<?xml version="1.0" encoding="UTF-8"?> <svg xmlns="http://www.w3.org/2000/svg" width="400" height="400" viewBox="0 0 400 400" fill="none"><rect width="400" height="400" rx="200" fill="white"></rect><path fill-rule="evenodd" clip-rule="evenodd" d="M319 218.935C319 283.656 200.004 340 200.004 340C200.004 340 81.0073 283.656 81.0073 218.935C81.0073 202.128 81.0142 187.292 81.0207 173.107C81.0337 144.905 81.0456 119.278 81 85.8651C156.561 51.3478 243.458 51.3837 319 85.9405V218.935ZM190.715 106.231H175.361V121.433H160.006V248.14H175.361V263.347H190.715V248.14H206.069V263.347H221.424V246.679C240.933 242.572 252.132 229.997 252.132 211.325C252.132 198.279 243.689 186.484 229.242 182.731C242.001 178.978 249.318 168.077 249.318 155.925C249.318 138.633 238.848 126.509 221.424 122.703V106.231H206.069V121.433H190.715V106.231ZM204.287 141.27C217.233 141.27 224.738 147.168 224.738 157.176C224.738 167.184 217.609 173.081 205.6 173.081H184.023V141.27H204.287ZM205.788 192.382C220.235 192.382 227.553 198.279 227.553 210.074C227.553 220.797 218.734 227.409 204.474 227.409H184.023V192.382H205.788Z" fill="#1647DB"></path></svg> 