<?xml version="1.0" encoding="UTF-8"?> <svg xmlns="http://www.w3.org/2000/svg" width="400" height="400" viewBox="0 0 400 400" fill="none"><rect width="400" height="400" rx="200" fill="white"></rect><path fill-rule="evenodd" clip-rule="evenodd" d="M302.732 280.888C290.083 295.207 276.015 302.544 266.439 306.213C239.721 316.272 212.649 315.917 186.168 305.03C159.096 293.905 134.862 270.828 123.04 244.911C117.72 233.314 114.883 221.124 114.528 208.698C114.41 206.095 114.41 203.136 114.41 202.544V198.639C114.764 180.888 121.857 163.728 134.152 150.473C139.709 144.556 146.092 139.941 153.422 136.746C160.633 133.55 168.554 131.893 177.066 131.657C174.11 134.024 171.391 136.509 168.79 139.349C154.013 155.207 145.856 176.982 145.856 200.769C145.856 224.556 154.013 246.331 168.79 262.189C177.302 271.302 187.469 278.047 199.054 282.071C207.211 284.911 216.078 286.331 225.299 286.331C240.785 286.331 263.129 282.189 281.453 262.308C287.718 255.562 292.802 247.633 296.585 238.876H326.849C321.647 254.615 313.49 269.053 302.732 280.888ZM101.051 280.888C81.4267 259.941 70.5506 231.42 70.5506 200.533C70.5506 169.645 81.4267 140.888 101.051 119.704C120.912 98.284 148.457 86.568 178.366 86.568C185.814 86.568 193.262 87.2781 200.355 88.6982C238.185 96.3905 267.976 124.201 280.034 162.426H249.77C245.987 153.669 240.904 145.858 234.638 138.994C226.245 129.882 216.196 123.254 204.729 119.231C196.572 116.391 187.705 114.97 178.484 114.97C167.135 114.97 156.496 117.101 146.683 121.479C137.344 125.621 129.069 131.538 121.976 139.112C120.202 141.006 118.547 142.899 117.011 144.911C107.08 155.917 100.696 170.473 98.5684 188.462C98.0955 191.657 97.8591 194.852 97.8591 198.047V200.533V201.361V201.834V202.071C97.8591 204.083 97.8591 206.095 97.9773 207.988V208.817C98.332 223.491 101.642 237.929 107.908 251.538C119.138 276.154 140.063 298.402 164.416 312.485C139.827 309.645 117.72 298.639 101.051 280.888ZM293.274 110.71C309.352 124.201 320.465 141.953 325.903 162.544H297.176C288.428 130.473 268.921 104.32 242.795 88.1065C261.71 90.9467 278.97 98.6391 293.274 110.71ZM234.52 262.071C240.785 255.325 245.869 247.396 249.652 238.639H278.024C275.542 243.136 272.586 247.16 269.158 250.828C255.326 265.74 238.539 269.29 226.481 269.527C229.318 267.396 232.037 264.793 234.52 262.071ZM345.882 222.189H238.185L236.175 227.751C232.983 236.627 228.372 244.438 222.343 250.947C216.314 257.456 209.339 262.308 201.419 265.385C193.498 262.189 186.523 257.337 180.612 250.947C168.672 238.166 162.17 220.296 162.17 200.769C162.17 181.243 168.672 163.491 180.612 150.592C186.168 144.675 192.552 140.059 199.882 136.864C200.473 136.627 201.182 136.272 201.773 136.036C209.576 139.231 216.432 143.965 222.343 150.355C228.372 156.864 232.983 164.675 236.175 173.55L238.185 179.112H346C346 146.568 325.312 115.917 304.032 98.0473C282.162 79.7041 254.853 70.1183 225.062 70.1183C217.26 70.1183 209.576 70.8284 202.01 72.2485C194.326 70.8284 186.405 70 178.366 70C143.846 70 112.045 83.6095 88.9927 108.462C66.413 132.722 54 165.385 54 200.533C54 235.68 66.413 268.225 88.9927 292.13C111.927 316.509 143.61 330 178.248 330C186.168 330 197.754 330 206.384 328.107C213.477 329.408 220.57 330 227.663 330C242.559 330 257.336 327.16 272.232 321.598C283.581 317.337 300.131 308.698 314.909 291.893L315.027 291.775C329.922 275.562 344.108 251.42 345.882 222.189Z" fill="url(#paint0_linear_2890_8660)"></path><defs><linearGradient id="paint0_linear_2890_8660" x1="289.373" y1="322.473" x2="101.381" y2="60.294" gradientUnits="userSpaceOnUse"><stop stop-color="#B9775D"></stop><stop offset="0.22" stop-color="#E89077"></stop><stop offset="0.78" stop-color="#FDBDA4"></stop><stop offset="1" stop-color="#B57359"></stop></linearGradient></defs></svg> 