<?xml version="1.0" encoding="UTF-8"?> <svg xmlns="http://www.w3.org/2000/svg" width="400" height="400" viewBox="0 0 400 400" fill="none"><rect width="400" height="400" rx="200" fill="white"></rect><path d="M200.427 100H199.574C199.062 100 198.552 100.068 198.057 100.203L62.3638 137.487C61.1585 137.822 60.0958 138.541 59.338 139.536C58.5801 140.531 58.1688 141.747 58.167 142.997C58.1688 144.248 58.5801 145.464 59.338 146.459C60.0958 147.454 61.1585 148.173 62.3638 148.508L146.03 171.523L198.044 185.805C198.538 185.94 199.048 186.008 199.56 186.008H200.413C200.921 186.009 201.426 185.941 201.916 185.805L253.943 171.523L337.61 148.508C338.815 148.173 339.878 147.454 340.635 146.459C341.393 145.464 341.804 144.248 341.806 142.997C341.804 141.747 341.393 140.531 340.635 139.536C339.878 138.541 338.815 137.822 337.61 137.487L201.929 100.203C201.44 100.067 200.934 99.9991 200.427 100Z" fill="#123461"></path><path d="M201.875 196.838H198.112C197.604 196.838 197.098 196.77 196.609 196.635L127.198 177.559C126.206 177.289 125.159 177.289 124.166 177.559L62.3638 194.536C61.1585 194.871 60.0958 195.59 59.338 196.585C58.5801 197.58 58.1688 198.796 58.167 200.046C58.1673 201.296 58.5782 202.511 59.3365 203.504C60.0948 204.497 61.1585 205.214 62.3638 205.543L146.084 228.558L198.057 242.841C198.552 242.976 199.062 243.044 199.574 243.044H200.427C200.934 243.045 201.44 242.977 201.929 242.841L253.916 228.558L337.637 205.543C338.842 205.214 339.906 204.497 340.664 203.504C341.422 202.511 341.833 201.296 341.833 200.046C341.832 198.796 341.42 197.58 340.662 196.585C339.905 195.59 338.842 194.871 337.637 194.536L275.821 177.559C274.833 177.289 273.79 177.289 272.802 177.559L203.392 196.635C202.898 196.771 202.388 196.839 201.875 196.838Z" fill="#123461"></path><path d="M201.875 253.78H198.112C197.604 253.78 197.098 253.712 196.609 253.577L127.225 234.515C126.233 234.245 125.186 234.245 124.193 234.515L62.3638 251.506C61.1585 251.835 60.0948 252.552 59.3365 253.545C58.5782 254.538 58.1673 255.753 58.167 257.002C58.1688 258.253 58.5801 259.469 59.338 260.464C60.0958 261.459 61.1585 262.178 62.3638 262.513L198.057 299.797C198.552 299.932 199.062 300 199.574 300H200.427C200.934 300.001 201.44 299.932 201.929 299.797L337.637 262.513C338.842 262.178 339.905 261.459 340.662 260.464C341.42 259.469 341.832 258.253 341.833 257.002C341.833 255.753 341.422 254.538 340.664 253.545C339.906 252.552 338.842 251.835 337.637 251.506L275.807 234.515C274.815 234.245 273.768 234.245 272.775 234.515L203.392 253.577C202.898 253.713 202.388 253.781 201.875 253.78Z" fill="#123461"></path></svg> 