<?xml version="1.0" encoding="UTF-8"?>
<svg id="Layer_1" xmlns="http://www.w3.org/2000/svg" version="1.1" viewBox="0 0 1000 1000">
  <!-- Generator: Adobe Illustrator 30.1.0, SVG Export Plug-In . SVG Version: 2.1.1 Build 136)  -->
  <defs>
    <style>
      .st0 {
        fill: #fff;
      }
    </style>
  </defs>
  <g id="Layer_1-2">
    <path class="st0" d="M686.1,377.5c9.4-33.9,22.9-66.6,32.9-100.4,3.7-12.1,13.3-39.6,12.6-50.6,0-3.4-1.8-5.7-3.9-8.2h-1.8l-10.3,14.9-52.6,142c-1.6,9.1,19.7,7.8,22.9,2.3h.2ZM653.6,484.8h13v-84.2c0-4.3-9.1-12.6-14.2-13.5-11.2-1.8-17.6,4.6-21.7,4.3-2.1,0-7.3-5.3-12.1-3v96.3h13v-78.7c0-5.7,22.2-10.5,22.2,3.7v75h-.2ZM775.7,408.1v76.9h13v-84.2c0-4.8-9.1-12.4-14.2-13.5-12.1-2.5-14.4,4.1-20.4,4.8-2.3.5-8.7-5.7-13.5-3.4v96.3h13v-78.7c0-5.3,22.2-9.8,22.2,1.8h-.2ZM461.9,434l21.5-45.3c-19.4-5-21,14.2-27.7,27.7-12.8-10.8-6.6-33.4-29.5-27.7l19.9,45.1-21.7,51.2c3.4,0,7.1.5,10.3,0,6.4-1.1,15.1-27.9,17.6-35.2,11.9,10.8,10.1,40.3,31.6,35.2,3-2.7-19.7-44.1-21.5-51h-.5ZM955.3,482v-124.9c-1.8,0-14.9,1.1-14.9,1.8v123.1c0,3.9,14.9,3.9,14.9,0h0ZM851.7,482c0,3.9,14.9,3.9,14.9,0v-93.6h-14.9v93.6h0ZM661.1,537.6c.5-22.4,13-16.7,27.7-16.5,2.7,0,4.1-1.4,3.7-3.9-.9-4.6-24.7-3.4-29-1.4-11.7,5-13.7,34.8-3,40.9,5.9,3.4,22.9,2.7,25.6,7.5,1.6,3,1.4,19,.5,22.9-3.7,16-29.7,5.5-31.1,6.9v7.3h28.6c11.7,0,11.9-31.3,9.4-39.1-5-15.1-33.2-.7-32.5-24.7h.2ZM736.8,542.2v-5.5c-13.3.7-25.8-4.6-30.2,11.4-2.5,9.6-2.7,40.5,2.5,48.5,5.5,8,19,4.1,27.7,4.8v-5.5c-28.8,6.4-26.1-19-24-40,1.4-16.9,9.8-14,24-14v.2ZM854.9,355.8c-8.5,2.5-8.2,16.9,0,19.7,19.7,6.2,19.7-25.6,0-19.7ZM749.9,538.5c-2.5,2.5-1.6,3.2-2.1,6.4-.9,13-1.4,37.5,0,50.3,0,1.7.6,3.1,1.8,4.3,2.1,2.1,4.3,3.7,5.5,0v-61.1c-1.1-3.7-3.4-2.1-5.5,0h.2ZM519.5,386.9c-4.3.5-8.7,5-11.4,5.3-2.5,0-8.7-5.7-13.5-3.4v122.1h13v-29.5c11.4,4.3,27.7,7.5,33.6-6.2,4.6-10.3,4.6-52.8,3.2-65-1.6-14.2-8.7-25.6-24.7-23.3h-.2ZM528.9,464.6c-3.4,10.3-12.1,5.9-19.7,3.4v-62c0-3.9,15.1-8.7,19-.5,2.3,4.6,2.5,53.3.5,58.8l.2.2ZM573.5,387.1c-6.9,1.4-13.3,7.3-15.8,14-3.9,11.4-3.9,61.3.9,72.3,7.8,16.9,40.3,15.8,44.4-4.6,1.8-9.4,1.8-54.2.5-64.3-2.3-14.2-16.9-19.9-30-17.2v-.2ZM590.7,463.5c-2.1,10.5-18.8,11.2-20.4-1.6-1.1-8.2-1.4-46.2,0-53.8.7-3.9,4.8-7.3,8.7-8.2,8.7-1.4,11.2,6.9,11.7,13.5.9,9.6,1.4,41.4,0,50.1h0ZM919.4,484.8c2.5.9,7.3,0,8.2-2.5v-72.3c0-1.1-3.2-11.2-3.9-12.8-7.1-13.5-32.7-13.7-40.7-2.1-2.1,3,3.4,9.6,5,10.1,2.5.5,17.8-13.3,23.8,0,6.4,14.2-17.2,20.8-25.6,31.6-15.1,19-11.2,52.8,18.1,47.6,4.3-.9,9.1-5.3,11.4-5.3s1.1,4.3,3.9,5.3l-.2.5ZM914.6,465.3c0,3.9-23.1,16.2-22.9-7.3,0-12.4,10.8-25.2,22.9-26.8v34.3-.2ZM727.7,453.4c-16.5-.9-10.5,3.4-14.4,12.6-3.7,9.1-17.6,8.5-19-2.5-1.6-15.8,14.2-17.2,23.3-27.4,10.3-11.2,14.2-28.1,4.3-41.2-11.2-14.9-38.4-9.4-40.7,9.1-1.4,12.1-1.6,52.8,0,64.7,1.4,8.2,9.6,14.6,17.6,15.8,20.8,2.7,29.7-12.1,28.6-31.3l.2.2ZM694.3,404.3c0-5.3,19.4-10.1,20.1,7.5.5,13-10.3,22.4-20.1,28.6v-36.1ZM955.3,571.9c0-21.5,4.3-37.7-23.1-35.2-9.1.9-14.2,4.3-15.6,14.2-1.4,8.2-2.5,50.8,10.1,50.8h26.8v-5.5c-22,1.4-32.5,1.6-29.5-24h31.6l-.2-.2ZM935.8,542.2c16.2,0,11.2,12.1,12.1,24.2h-24c.7-12.1-3.7-23.8,12.1-24.2h-.2ZM797.2,536.5c-12.1-1.6-25.4-.5-27,14-1.1,8.9-3,51,10.3,51h26.8v-5.5c-22,1.1-33.2,2.3-29.5-24h31.6c-.5-11.2,3.2-33.4-12.1-35.5h0ZM801.8,566.4h-24c0-14.9-3.4-26.8,16-24.2,11.7,1.4,7.5,15.3,8.2,24.2h-.2ZM842.3,482.9c-.5-16.2-2.7-12.1-8.2-11.2h-1.4c-10.8,1.6-10.8-8.2-10.8-8.2v-63.8h16.7v-11.2c-3-.5-16,.7-16.7,0-.5-.5,0-5,0-9.8v-10.1c0-1.4-.5-2.5-.9-2.5-2.1.9-11.2,3.4-11.9,4.1v18.3h-11.2v11.2c2.3.5,10.5-.5,11.2,0,2.5,2.5,0,60.2,0,69.3s22.9,20.6,33.2,13.7v.2ZM887.1,595.9c-.7,0-1.4-.5-2.1-1.4-4.6-5.3-4.8-36.6-3.2-43.7,1.4-5.9,4.1-6.9,8.9-8.7,4.3-1.1,8.7-1.6,13,0,2.5-.7,2.1-1.4,1.8-3.7-22.2-5-28.4-2.1-29.5,19v23.8c1.1,21.7,8.5,23.3,29.5,18.5v-4.1c-9.8,1.4-18.5.5-18.5.5v-.2ZM837.7,537.4s-4.3,1.8-7.5,3.9c-1.4-4.3-.5-5.7-8.2-4.6,1.8,8.2-2.5,62.7,0,64.7.5.5,6.4.7,7.3-1.8,3.2-9.1-1.6-38.4,1.8-53.8,4.3-.7,6.4-4.3,14-3.9,2.5,0,8.2,2.5,8.2,4.8v54.7c0,.5,7.3.5,7.3,0v-56.5c0-6.9-14.2-11.4-23.1-7.5h.2ZM748,507h9.1v9.4h-9.1v-9.4Z"/>
    <path class="st0" d="M612.9,494.2c3.4,21-7.8,37.5-18.5,54.7-21.5,34.3-49.4,65.6-81.4,91.7h-18.1v2.5h14.6c-31.1,24.7-66.1,45.1-102.7,57.9v-15.1h-2.5v16c-76.2,26.3-159.7,22.9-232.6-28.8-.9-.7-3-2.1-5.3-3.9-5.7-4.3-13.7-10.3-14-11.9l-6.2-5.5c-1.8-.9-5.9-4.3-10.5-8.9h16.9v-2.5h-19.9c-11-11-24.2-25.6-25.2-29.5l.5-213.2c38-51.5,104.1-80.1,167.9-70,114.1,18.5,154.6,162.2,49.4,224.2-43.2,25.6-108.4,29.5-103.4-37.5,32.5-3,96.1-20.4,101.6-58.8,5.9-43-34.8-52.4-68.4-40.5-102.5,36.4-102,196.9,36.1,186,48.7-3.9,81.2-35,106.1-73.4,0,0,3-6.4,6.4-15.1v12.6h2.5v-19.7c.7-1.8,1.4-3.9,2.1-5.9,2.7-12.1,7.1-24.2,7.8-38.2,1.6-26.8-3.4-39.6-8.9-62-5.5-22.4-.5-.9-1.1-2.5v-1.4h-.7c-1.4-3.2-3.4-8-6.2-12.8-2.1-3.4-5.3-8.7-8-13.3-2.1-3.4-4.1-6.4-5.3-8-54.9-67.7-168.8-79.6-242.2-36.8l-37.3,26.8v-90.8h296.7v10.5h2.5v-10.5h206.1v120.3h14.9v-136.3H92.7v126.7c0,1.4-13.7,15.8-16.7,20.4-9.4,14.4-19.9,34.5-24.9,51-1.1,3.4-2.1,7.3-2.7,11l-2.1,5.5c-2.1,8.9-4.3,22.2-5.3,39.3h-.5v10.5c0,9.1,0,19,1.1,29.7,4.6,40.3,22.9,77.1,47.3,110.3l-.5,129.5,3.7,1.6v1.8h535v-239.7c4.3-16.2,15.3-30.7,18.5-47.1h-33.4v-.5l.5-.2ZM269.8,435.4c19-3.2,23.3,9.1,15.3,24.7-11,21.7-36.4,30.7-59.2,32.5,8-20.1,19-52.8,43.9-56.7v-.5ZM138,690.4c80.1,64,176.6,75,266.3,46.2v6.4h2.5v-7.3c32.9-11,65-27.2,94.7-48.3,32.3-22.9,58.1-47.1,82.3-78.7,9.1-12.1,18.3-25.2,25.2-38.7l3.7.9v69.8h-9.1v2.5h9.1v121h-206.1v-5.7h-2.5v5.7H107.6v-100c3.4-.7,3.7,1.4,5.5,2.7,8,6.2,16.5,16.2,24.9,23.1v.2ZM84.9,566.4c-4.3-11-9.1-28.4-9.1-54v-11.9c.9-34.8,6.4-54.2,13.3-65.4l3.4-2.5v148l-7.8-14.2h.5-.2Z"/>
    <path class="st0" d="M404.3,323.3h2.5v20.8h-2.5v-20.8ZM404.3,541h2.5v20.8h-2.5v-20.8ZM404.3,359.7h2.5v20.8h-2.5v-20.8ZM404.3,613.6h2.5v20.8h-2.5v-20.8h0ZM404.3,577.2h2.5v20.8h-2.5v-20.8ZM404.3,286.9h2.5v20.8h-2.5v-20.8ZM404.3,649.9h2.5v20.8h-2.5v-20.8ZM567.8,640.8h20.8v2.5h-20.8v-2.5ZM168.4,640.8h20.8v2.5h-20.8v-2.5ZM204.8,640.8h20.8v2.5h-20.8v-2.5ZM458.9,640.8h20.8v2.5h-20.8v-2.5ZM422.6,640.8h20.8v2.5h-20.8v-2.5ZM386.2,640.8h20.8v2.5h-20.8v-2.5ZM240.9,640.8h20.8v2.5h-20.8v-2.5ZM350,640.8h20.8v2.5h-20.8v-2.5ZM277.3,640.8h20.8v2.5h-20.8v-2.5ZM313.4,640.8h20.8v2.5h-20.8v-2.5Z"/>
  </g>
</svg>