<?xml version="1.0" encoding="UTF-8"?>
<svg id="Layer_1" xmlns="http://www.w3.org/2000/svg" version="1.1" viewBox="0 0 1000 1000">
  <!-- Generator: Adobe Illustrator 30.1.0, SVG Export Plug-In . SVG Version: 2.1.1 Build 136)  -->
  <defs>
    <style>
      .st0 {
        fill: #fff;
      }
    </style>
  </defs>
  <path class="st0" d="M123.9,488.5h87.9v21.8h-87.9v-21.8Z"/>
  <path class="st0" d="M167.6,350.2c-83.1,0-149.7,67.3-149.7,149.7s67.3,149.7,149.7,149.7,149.7-67.3,149.7-149.7-67.3-149.7-149.7-149.7ZM231.8,568.5h-20v-42.4h-87.9v42.4h-20v-137h20v41.2h87.9v-41.2h20v137ZM486.5,428.4h-69.7v49.7h-15.8v-112.8h15.8v49.1h69.7v-49.1h15.8v112.8h-15.8v-50.3.6ZM607.1,440.6h-65.5c.6,14.6,11.5,26.1,26.7,26.1s21.8-8.5,23.6-10.9h14.6c-1.2,6.7-11.5,24.3-38.2,24.3s-41.2-18.2-41.2-41.2,17-41.2,40-41.2,40,17,40,43ZM542.9,429.1h48.5c-3.6-11.5-12.1-18.8-23.6-18.8s-21.2,6.7-24.3,18.8h-.6ZM690.8,464.8c-1.8,3.6-10.9,15.8-29.1,15.8s-38.8-15.2-38.8-41.2,17.6-41.2,38.8-41.2,26.7,10.9,29.1,14.6v-47.3h14.6v112.8h-14.6v-13.3ZM664.7,411.5c-15.8,0-26.7,11.5-26.7,27.9s10.9,27.9,26.7,27.9,26.1-12.1,26.1-27.9-10.9-27.9-26.1-27.9ZM807.2,441.2h-65.5c.6,14.6,11.5,26.1,26.7,26.1s21.8-8.5,23.6-10.9h14.6c-1.2,6.7-11.5,24.3-38.2,24.3s-41.2-18.2-41.2-41.2,17-41.2,40-41.2,40,17,40,43h0ZM742.9,429.1h48.5c-3.6-11.5-12.1-18.8-23.6-18.8s-21.2,6.7-24.3,18.8h-.6ZM843,478.2h-14.6v-78.8h14.6v14.6c2.4-5.5,9.1-15.2,27.3-15.2h20v14.6h-20c-20,0-26.7,6.7-26.7,20.6v44.9l-.6-.6ZM968.5,464.8c-2.4,3.6-9.7,15.8-27.9,15.8s-38.2-15.2-38.2-41.2,17.6-41.2,38.2-41.2,26.1,10.9,27.9,14.6v-12.7h14.6v78.8h-14.6v-13.9ZM943,411.5c-15.8,0-26.1,12.1-26.1,27.9s10.3,27.9,26.1,27.9,25.5-12.1,25.5-27.9-10.3-27.9-25.5-27.9ZM394.9,578.2c0-32.7,23.6-58.2,55.8-58.2s48.5,21.8,52.1,34.6h-15.8c-3.6-7.9-15.8-20.6-35.8-20.6s-40,20-40,44.3,15.8,44.3,40,44.3,32.7-13.9,36.4-20.6h15.8c-3.6,12.7-17.6,35.2-52.1,35.2s-55.8-25.5-55.8-58.2l-.6-.6ZM605.3,595.2c0,23.6-17.6,41.2-41.2,41.2s-41.2-17.6-41.2-41.2,17.6-41.2,41.2-41.2,41.2,17.6,41.2,41.2ZM590.2,595.2c0-15.8-10.9-27.9-26.7-27.9s-26.7,12.7-26.7,27.9,10.9,27.9,26.7,27.9,26.7-12.1,26.7-27.9ZM627.1,601.2v-45.5h14.6v43c0,14.6,7.9,24.3,22.4,24.3s22.4-9.7,22.4-24.3v-43h14.6v45.5c0,20-13.9,34.6-37,34.6s-37-14.6-37-34.6ZM742.9,634.6h-14.6v-78.8h14.6v14.6c3-6.7,12.1-16.4,26.7-16.4s34,14.6,34,35.2v44.9h-14.6v-42.4c0-14.6-9.1-24.9-22.4-24.9s-23,10.3-23,24.9v42.4l-.6.6ZM865.4,567.3c-14.6,0-24.9,12.7-24.9,27.9s10.3,27.9,24.9,27.9,21.8-10.3,23-12.7h14.6c-.6,5.5-9.1,26.7-37.6,26.7s-40-17.6-40-41.2,17.6-41.2,40-41.2,36.4,20.6,37.6,26.7h-14.6c-1.2-2.4-7.3-12.7-23-12.7v-1.2ZM925.4,521.8h15.2v19.4h-15.2v-19.4h0ZM925.4,556.4h14.6v78.8h-14.6v-78.8h0ZM968.5,521.8h14.6v112.8h-14.6v-112.8Z"/>
</svg>