<?xml version="1.0" encoding="UTF-8"?>
<svg id="Layer_1" xmlns="http://www.w3.org/2000/svg" version="1.1" viewBox="0 0 1000 1000">
  <!-- Generator: Adobe Illustrator 30.1.0, SVG Export Plug-In . SVG Version: 2.1.1 Build 136)  -->
  <defs>
    <style>
      .st0 {
        fill: #fff;
      }
    </style>
  </defs>
  <g>
    <path class="st0" d="M92.7,491.3h67v16.7h-67v-16.7Z"/>
    <path class="st0" d="M126.2,385.6c-63.2,0-114.4,51.2-114.4,114.4s51.2,114.4,114.4,114.4,114.4-51.2,114.4-114.4-51.2-114.4-114.4-114.4ZM174.9,552.4h-15.2v-32.3h-67v32.3h-15.2v-104.9h15.2v31.6h67v-31.6h15.2v104.9h0Z"/>
  </g>
  <path class="st0" d="M369.6,445.4h-53.1v38.1h-11.8v-86.4h11.8v37.4h53.1v-37.4h11.8v86.4h-11.8s0-38.1,0-38.1ZM461.7,454.7h-50c.6,11.2,8.6,20,20.4,20s16.9-6.5,17.9-8.4h11c-1,5.2-8.6,18.6-28.8,18.6s-31.6-13.9-31.6-31.5,13-31.5,30.5-31.5,30.7,13.1,30.7,32.9ZM412.4,445.5h37c-2.8-9.1-9.2-14.1-18.4-14.1s-16.3,5.4-18.6,14.1ZM525.6,473.1c-1.6,2.9-8.2,11.8-21.9,11.8s-29.7-11.7-29.7-31.5,13.6-31.5,29.7-31.5,20.3,8.2,21.9,11.4v-36.3h11.1v86.4h-11.1v-10.3h0ZM505.7,432.1c-12.3,0-20.3,9.1-20.3,21.3s8,21.3,20.3,21.3,20.1-9.1,20.1-21.3-8-21.3-20.1-21.3ZM614.4,454.7h-50c.6,11.2,8.6,20,20.4,20s16.9-6.5,17.9-8.4h11c-1,5.2-8.6,18.6-28.8,18.6s-31.6-13.9-31.6-31.5,13-31.5,30.5-31.5,30.7,13.1,30.7,32.9ZM565.1,445.5h37c-2.8-9.1-9.2-14.1-18.4-14.1s-16.3,5.4-18.6,14.1ZM641.7,483.5h-11.1v-60.1h11.1v11.1c1.7-4.4,6.8-11.6,20.9-11.6h15.1v11.1h-15.3c-15.5,0-20.7,4.9-20.7,15.6v34h0ZM737.3,473.1c-1.7,3-7.5,11.8-21.3,11.8s-29.3-11.7-29.3-31.5,13.5-31.5,29.3-31.5,19.7,8.2,21.3,11.4v-10h11.1v60.1h-11.1v-10.3ZM718,432.1c-12.2,0-20,9.3-20,21.3s7.8,21.3,20,21.3,19.5-9.3,19.5-21.3-7.8-21.3-19.5-21.3ZM304.8,516.5h70.1v11.1h-58.3v24h34v11.1h-34v40.3h-11.8v-86.4h0ZM436.9,572.9c0,17.9-13.8,31.5-31.6,31.5s-31.6-13.6-31.6-31.5,13.6-31.5,31.6-31.5,31.6,13.6,31.6,31.5ZM425.4,572.9c0-12.1-8.2-21.3-20.2-21.3s-20.2,9.5-20.2,21.3,8.2,21.3,20.2,21.3,20.2-9.3,20.2-21.3ZM452.4,577.5v-34.7h11.1v32.6c0,11.2,6.2,18.5,17,18.5s17-7.3,17-18.5v-32.6h11.2v34.7c0,15.5-10.8,26.8-28.1,26.8s-28.2-11.3-28.2-26.8ZM539.7,602.9h-11.1v-60.1h11.1v11.1c2.3-4.9,9.2-12.4,20.4-12.4s25.7,11.3,25.7,26.9v34.6h-11.2v-32.5c0-11.3-6.8-18.8-17.2-18.8s-17.8,7.8-17.8,18.8v32.5h0ZM653.3,592.6c-1.6,2.9-8.2,11.8-21.9,11.8s-29.7-11.7-29.7-31.5,13.6-31.5,29.7-31.5,20.3,8.2,21.9,11.4v-36.3h11.1v86.4h-11.1v-10.3h0ZM633.5,551.6c-12.3,0-20.3,9.1-20.3,21.3s8,21.3,20.3,21.3,20.1-9.1,20.1-21.3-8-21.3-20.1-21.3ZM731.9,592.6c-1.7,3-7.5,11.8-21.3,11.8s-29.3-11.7-29.3-31.5,13.5-31.5,29.3-31.5,19.7,8.2,21.3,11.4v-10h11.1v60.1h-11.1v-10.3ZM712.6,551.6c-12.2,0-20,9.3-20,21.3s7.8,21.3,20,21.3,19.5-9.3,19.5-21.3-7.8-21.3-19.5-21.3ZM809.1,602.9h-14.2c-14,0-21.1-6.7-21.1-20.1v-30.1h-17.8v-10h17.8v-26.3h11.1v26.3h24.2v10h-24.2v27.5c0,8.8,2.8,12.4,12.4,12.4h11.8v10.2h0ZM823.2,516.5h11.6v14.7h-11.6v-14.7ZM823.4,542.8h11.1v60.1h-11.1v-60.1ZM914.1,572.9c0,17.9-13.7,31.5-31.6,31.5s-31.6-13.6-31.6-31.5,13.6-31.5,31.6-31.5,31.6,13.6,31.6,31.5ZM902.7,572.9c0-12.1-8.2-21.3-20.2-21.3s-20.2,9.5-20.2,21.3,8.2,21.3,20.2,21.3,20.2-9.3,20.2-21.3ZM941.7,602.9h-11.1v-60.1h11.1v11.1c2.3-4.9,9.2-12.4,20.4-12.4s25.7,11.3,25.7,26.9v34.6h-11.2v-32.5c0-11.3-6.8-18.8-17.2-18.8s-17.8,7.8-17.8,18.8v32.5h0Z"/>
</svg>