<?xml version="1.0" encoding="UTF-8"?> <svg xmlns="http://www.w3.org/2000/svg" width="400" height="400" viewBox="0 0 400 400" fill="none"><rect width="400" height="400" rx="200" fill="white"></rect><path d="M229.934 169.997C229.934 186.565 216.531 199.998 200.002 199.998V229.998C233.061 229.998 259.866 203.132 259.866 169.997C259.866 136.862 233.061 109.996 200.002 109.996C189.104 109.996 178.87 112.914 170.07 118.029C152.174 128.395 140.139 147.785 140.139 169.997V320L167.052 346.973L170.07 350V169.997C170.07 153.43 183.473 139.997 200.002 139.997C216.531 139.997 229.934 153.43 229.934 169.997Z" fill="#110F23"></path><path d="M200 50C178.191 50 157.749 55.8481 140.137 66.0654C128.86 72.592 118.761 80.9096 110.205 90.6385C91.5774 111.792 80.2734 139.581 80.2734 170.002V260.003L110.205 290.004V170.002C110.205 143.353 121.766 119.404 140.137 102.918C148.774 95.184 158.914 89.0779 170.069 85.1431C179.423 81.8051 189.509 80.0005 200 80.0005C249.589 80.0005 289.795 120.3 289.795 170.002C289.795 219.704 249.589 260.003 200 260.003V290.004C266.131 290.004 319.727 236.272 319.727 170.002C319.727 103.732 266.131 50 200 50Z" fill="#110F23"></path></svg> 