<?xml version="1.0" encoding="UTF-8"?> <svg xmlns="http://www.w3.org/2000/svg" width="400" height="400" viewBox="0 0 400 400" fill="none"><rect width="400" height="400" rx="200" fill="white"></rect><path d="M306.868 107.061C302.349 95.4159 294.767 85.2096 286.3 76.652C277.371 68.2376 266.979 61.5324 255.639 56.8685C248.297 53.8985 240.593 51.9212 232.731 50.9887C204.619 46.8719 175.004 55.6011 153.523 77.3667C128.722 102.449 120.008 139.166 130.948 173.349V173.683C124.076 178.02 117.782 183.214 112.216 189.14C103.588 198.288 96.5956 208.923 92.0673 220.569C87.6301 232.252 85.4041 244.662 85.5032 257.162C85.5032 269.865 88.1383 281.939 93.0757 293.165C97.6041 304.81 105.186 315.017 113.643 323.574C122.572 331.989 132.964 338.694 144.305 343.358C155.407 347.932 167.384 350 179.494 350C177.782 350 176.098 349.914 174.424 349.838C187.475 350.549 200.527 348.473 212.716 343.748C224.905 339.023 235.953 331.757 245.126 322.431C257.309 310.202 265.883 294.84 269.904 278.04C273.924 261.239 273.234 243.653 267.911 227.22C275.237 222.781 281.918 217.352 287.765 211.087C296.394 201.938 303.395 191.303 307.914 179.658C312.357 167.975 314.589 155.565 314.497 143.064C314.509 130.664 311.926 118.399 306.915 107.061M225.605 113.837C224.949 110.849 224.639 107.795 224.682 104.736C228.079 105.327 231.304 106.337 234.529 107.69C239.057 109.596 242.996 112.693 246.049 116.248C248.979 119.936 251.576 123.919 253.042 128.493C254.64 133.067 255.096 137.642 255.096 142.216C254.589 150.903 250.94 159.108 244.832 165.297L225.615 113.884L225.605 113.837ZM247.562 172.587C248.142 172.034 248.732 171.481 249.236 170.843C253.165 166.698 255.639 162.295 257.694 157.12C259.748 151.955 260.167 146.361 260.167 141.33C260.167 135.736 258.702 130.695 256.647 126.12C254.592 121.546 251.12 117.391 247.6 113.884C244.08 110.787 239.552 107.69 235.033 106.213C231.77 105.031 228.202 104.517 224.606 104.269C224.748 98.3177 226.251 92.4785 229.001 87.2013C233.102 88.0018 237.04 89.2311 240.855 91.0132C247.847 94.1008 253.413 98.675 258.359 103.716C262.888 109.31 266.988 115.361 269.461 122.013C271.935 128.665 272.981 135.612 272.981 142.807C272.981 150.011 271.516 157.12 268.463 163.181C265.954 169.557 262.012 175.267 256.942 179.867C255.304 181.351 253.569 182.724 251.748 183.975L247.514 172.625L247.562 172.587ZM254.383 190.836C257 188.877 259.479 186.741 261.803 184.442C266.912 178.848 271.431 171.739 273.904 164.658C276.958 156.996 278.004 149.335 278.004 141.787C278.004 134.259 276.121 126.587 273.029 119.516C269.998 112.59 265.578 106.362 260.043 101.219C254.507 96.2164 248.523 92.071 241.521 89.5647C237.571 88.1888 233.491 87.2244 229.344 86.6867C231.094 83.4276 233.235 80.4162 235.87 77.7098C237.925 75.6323 240.189 73.8598 242.529 72.3351C244.413 73.0022 246.259 73.7645 248.057 74.6222C256.8 78.3473 264.664 83.8735 271.136 90.8416C277.719 97.4933 282.656 106.175 286.176 114.723C289.696 123.871 291.161 133.449 291.161 142.597C290.762 152.024 288.734 161.31 285.168 170.042C281.648 178.171 276.13 185.671 269.547 192.323C266.167 195.745 262.418 198.782 258.369 201.376L254.383 190.75V190.836ZM156.33 327.558C154.852 326.997 153.398 326.373 151.972 325.69C143.229 321.965 135.365 316.439 128.893 309.47C122.31 302.819 117.373 294.137 113.853 285.542C110.511 276.633 108.835 267.184 108.906 257.667C109.285 248.238 111.314 238.949 114.899 230.222C118.419 222.093 123.946 214.593 130.53 207.951C133.648 204.779 137.084 201.936 140.785 199.47L144.847 210.143C142.53 211.916 140.334 213.842 138.273 215.909C133.165 221.502 128.636 228.621 126.172 235.692C123.109 243.354 122.063 251.025 122.063 258.563C122.063 266.092 123.946 273.763 127.048 280.843C130.079 287.769 134.499 293.997 140.033 299.14C145.56 304.134 151.544 308.289 158.584 310.786C162.152 312.053 165.881 312.939 169.61 313.492C167.887 316.624 165.743 319.504 163.236 322.05C161.172 324.137 158.866 325.971 156.368 327.51M159.174 309.261C152.182 306.164 146.616 301.589 141.67 296.548C137.141 290.964 133.079 284.903 130.568 278.251C128.157 271.588 126.965 264.544 127.048 257.458C127.048 250.263 128.513 243.144 131.576 237.083C134.049 230.603 138.14 224.981 143.087 220.407C144.476 219.13 145.941 217.986 147.444 216.881L151.801 228.411C151.468 228.745 151.135 229.04 150.802 229.422C146.864 233.529 144.39 237.979 142.335 243.144C140.281 248.309 139.862 253.903 139.862 258.944C139.862 264.567 141.327 269.57 143.382 274.144C145.437 278.718 148.909 282.873 152.429 286.39C155.949 289.477 160.477 292.574 164.996 294.052C168.012 295.109 171.237 295.672 174.547 295.919C174.282 301.845 172.693 307.635 169.895 312.863C166.199 312.065 162.603 310.857 159.174 309.261ZM173.796 286.256C174.424 289.306 174.633 292.355 174.547 295.367C171.473 294.745 168.47 293.81 165.586 292.574C161.058 290.669 157.119 287.571 154.065 284.017C151.135 280.329 148.538 276.345 147.073 271.771C145.475 267.197 145.018 262.623 145.018 258.049C145.508 249.703 148.901 241.792 154.608 235.692L173.796 286.256ZM115.955 321.964C107.317 313.244 101.371 303.2 96.843 292.022C92.914 281.387 90.8496 269.151 90.8496 257.505C91.4394 245.851 93.9129 234.205 98.4412 223.58C102.96 212.811 109.952 203.206 118.001 195.115C122.894 190.214 128.382 185.946 134.335 182.412L137.436 190.541C132.699 193.676 128.303 197.192 124.451 201.471C117.428 208.914 111.973 217.697 108.411 227.296C104.891 236.874 103.464 247.08 103.464 257.248C104.054 267.283 105.938 277.451 110.038 286.599C114.114 295.747 119.92 304.019 127.133 310.957C134.225 317.734 142.543 323.093 151.639 326.748C152.933 327.262 154.237 327.682 155.54 328.149C149.587 331.681 142.839 333.648 135.924 333.866C133.46 333.912 131 333.656 128.598 333.104C124.064 329.818 119.845 326.117 115.993 322.05M301.721 176.78C297.193 187.529 290.2 197.145 282.152 205.235C276.992 210.424 271.163 214.898 264.819 218.539L261.803 210.439C266.938 207.219 271.628 203.336 275.75 198.889C282.742 191.341 288.307 182.66 291.789 173.044C295.309 163.476 296.736 153.27 296.736 143.102C296.146 133.067 294.263 122.899 290.153 113.751C282.029 95.4589 267.11 81.0576 248.561 73.6025C246.86 72.9361 245.126 72.3572 243.367 71.8681C251.843 66.7698 261.953 65.1321 271.602 67.2939C276.168 70.5912 280.392 74.3173 284.159 78.3483C292.798 87.0679 298.743 97.0645 303.262 108.29C307.201 118.916 309.256 131.162 309.256 142.807C308.675 154.452 306.202 166.145 301.673 176.732" fill="#DD1438"></path></svg> 