<svg xmlns="http://www.w3.org/2000/svg" width="150" height="90" fill="none"><path fill="#fff" fill-rule="evenodd" d="M62.608 51.297h2.413c.939 0 1.6.406 1.6 1.452 0 1.046-.768 1.323-1.643 1.323h-2.37v-2.775Zm-2.22 4.483h4.889c1.814 0 3.564-.875 3.564-2.924 0-2.05-.618-2.199-1.857-2.562.876-.427 1.367-1.11 1.367-2.113 0-1.879-1.303-2.498-3.224-2.498h-4.739V55.78Zm2.22-8.346h2.071c.79 0 1.516.192 1.516 1.153 0 .96-.577 1.195-1.367 1.195h-2.241v-2.348h.021ZM74.67 52.962c0 .448-.065 1.687-1.623 1.687s-1.238-.193-1.238-.94c0-.747.555-.939 1.195-1.067.62-.107 1.324-.128 1.665-.427v.747Zm-2.626-2.22c.064-.79.555-1.11 1.323-1.11.769 0 1.302.128 1.302.982s-1.152.769-2.37.96c-1.237.172-2.475.556-2.475 2.22 0 1.666 1.11 2.178 2.476 2.178 1.366 0 1.814-.235 2.455-.897 0 .235.064.47.15.705h2.027c-.192-.299-.256-.96-.256-1.622v-3.8c0-1.75-1.75-2.07-3.202-2.07s-3.309.554-3.437 2.433h2.007v.021ZM78.213 55.78h2.006v-3.821c0-1.473.47-2.092 1.559-2.092 1.088 0 1.28.598 1.28 1.793v4.12h2.007v-4.483c0-1.814-.534-3.01-2.668-3.01-2.135 0-1.73.406-2.242 1.217h-.042V48.48h-1.9v7.3ZM86.773 55.78h2.006v-2.498l.769-.747 2.006 3.245h2.434l-3.074-4.611 2.754-2.668h-2.37l-2.519 2.625v-5.422h-2.006V55.78ZM59.748 39.002c-.021 2.476 2.07 3.586 4.29 3.586s4.185-1.388 4.185-3.245c0-1.857-2.263-2.754-2.989-2.946-2.519-.64-3.01-.747-3.01-1.515 0-.769.812-1.153 1.516-1.153 1.067 0 1.921.32 1.985 1.516h2.156c0-2.327-1.942-3.245-4.034-3.245-2.092 0-3.779.982-3.779 3.053 0 2.07 1.516 2.476 3.01 2.86 1.473.406 2.989.576 2.989 1.665s-1.196 1.26-1.964 1.26c-1.196 0-2.242-.534-2.242-1.858h-2.156l.043.022ZM71.873 32.853h-2.007v2.2H68.65v1.344h1.217v4.312c0 1.452 1.067 1.73 2.306 1.73 1.238 0 .832 0 1.174-.065v-1.558a3.046 3.046 0 0 1-.62.064c-.683 0-.853-.171-.853-.854v-3.608h1.473v-1.344h-1.473v-2.22ZM78.853 39.535c0 .448-.064 1.687-1.622 1.687s-1.217-.193-1.217-.94c0-.747.555-.939 1.174-1.067.62-.107 1.324-.128 1.665-.427v.747Zm-2.625-2.241c.064-.79.555-1.11 1.323-1.11.768 0 1.302.128 1.302.982s-1.153.768-2.37.96c-1.237.171-2.476.555-2.476 2.22s1.11 2.178 2.477 2.178c1.366 0 1.814-.235 2.455-.897 0 .235.064.47.149.704h2.028c-.192-.298-.256-.96-.256-1.622v-3.8c0-1.75-1.75-2.07-3.202-2.07s-3.309.555-3.437 2.433h2.007v.022ZM82.418 42.353h2.006v-3.82c0-1.474.47-2.093 1.559-2.093 1.088 0 1.28.598 1.28 1.793v4.12h2.007V37.87c0-1.814-.533-3.01-2.668-3.01-2.135 0-1.73.406-2.242 1.217h-.042v-1.024h-1.9v7.3ZM95.994 42.353h1.9V32.278h-2.006v3.671h-.022c-.47-.726-1.323-1.088-2.177-1.088-2.135 0-3.223 1.814-3.223 3.778s1.067 3.906 3.266 3.906c2.198 0 1.75-.341 2.22-1.131h.021v.94h.021Zm-.042-3.672c0 1.196-.385 2.349-1.73 2.349-1.344 0-1.771-1.196-1.771-2.349 0-1.152.448-2.326 1.772-2.326 1.323 0 1.729 1.131 1.729 2.305M103.935 39.535c0 .448-.064 1.687-1.622 1.687s-1.238-.193-1.238-.94c0-.747.555-.939 1.195-1.067.619-.107 1.324-.128 1.665-.427v.747Zm-2.625-2.241c.064-.79.555-1.11 1.323-1.11.769 0 1.302.128 1.302.982s-1.131.768-2.369.96c-1.238.171-2.476.555-2.476 2.22s1.11 2.178 2.476 2.178c1.366 0 1.814-.235 2.455-.897 0 .235.064.47.149.704h2.028c-.192-.298-.256-.96-.256-1.622v-3.8c0-1.75-1.751-2.07-3.202-2.07-1.452 0-3.309.555-3.437 2.433h2.007v.022ZM107.5 42.353h2.007v-3.287c0-1.28.512-2.348 1.985-2.348s.533.021.726.064v-1.857a1.484 1.484 0 0 0-.427-.064c-.982 0-1.964.64-2.327 1.558h-.021v-1.345h-1.9v7.3l-.043-.02ZM117.938 42.353h1.9V32.278h-2.006v3.671h-.022c-.469-.726-1.302-1.088-2.177-1.088-2.156 0-3.223 1.814-3.223 3.778s1.067 3.906 3.266 3.906c2.198 0 1.75-.341 2.22-1.131h.021v.94h.021Zm-.021-3.672c0 1.196-.406 2.349-1.729 2.349s-1.772-1.196-1.772-2.349c0-1.152.449-2.326 1.772-2.326s1.729 1.131 1.729 2.305M32.574 53.346a5.003 5.003 0 0 1-2.412-4.29V35.608a3.38 3.38 0 0 1 3.372-3.373h13.427a3.38 3.38 0 0 1 3.373 3.373v13.448c0 1.814-.96 3.394-2.412 4.29l-3.906 2.391-5.337-10.48a3.813 3.813 0 0 1 2.134-.641c.812 0 .854.085 1.26.213l1.985.662c.384.128.811.192 1.238.192a3.9 3.9 0 0 0 2.797-1.174v-5.87a6.611 6.611 0 0 1-3.352.896c-1.216 0-1.344-.106-1.985-.298l-1.836-.577a6.03 6.03 0 0 0-1.772-.256c-1.259 0-2.433.384-3.415 1.046l-.427-.833v-1.11a.536.536 0 0 0-.213-.448l-2.242-1.686c-.042-.043-.106-.043-.17-.043a.283.283 0 0 0-.278.278v2.796c0 .192.085.341.235.448l.896.662 8.774 17.227L40.238 58l-7.664-4.654Zm-.171-11.1 6.212 12.168-4.889-2.989a2.798 2.798 0 0 1-1.323-2.39v-6.81.021Zm12.51 10.31 1.835-1.11c.811-.49 1.323-1.365 1.323-2.39v-1.772a6.113 6.113 0 0 1-2.775.662c-.982 0-2.262-.32-3.18-.897l2.796 5.508Zm3.18-16.756a4.482 4.482 0 0 1-3.352 1.494c-1.323 0-.896-.064-1.323-.213l-1.836-.556a8.286 8.286 0 0 0-2.434-.362c-.853 0-1.259.064-1.857.213a2.872 2.872 0 0 0-.875-1.089l-1.067-.81H46.96c.62 0 1.132.512 1.132 1.13v.193Z" clip-rule="evenodd"></path></svg>