<?xml version="1.0" encoding="UTF-8"?> <svg xmlns="http://www.w3.org/2000/svg" width="400" height="400" viewBox="0 0 400 400" fill="none"><rect width="400" height="400" rx="200" fill="white"></rect><path d="M306.911 309.999H93.1479C89.5258 310.026 85.9613 309.09 82.8171 307.287C79.6729 305.484 77.0625 302.878 75.2496 299.735C73.4377 296.592 72.4891 293.023 72.5001 289.393C72.512 285.763 73.4825 282.2 75.3147 279.069L176.369 103.668C178.765 99.5123 182.21 96.0615 186.357 93.6623C190.506 91.263 195.21 90 200 90C204.79 90 209.495 91.263 213.642 93.6623C217.79 96.0615 221.236 99.5123 223.631 103.668L324.685 279.069C326.517 282.2 327.489 285.763 327.5 289.393C327.512 293.023 326.562 296.592 324.75 299.735C322.938 302.878 320.327 305.484 317.183 307.287C314.04 309.09 310.474 310.026 306.852 309.999H306.911ZM128.844 268.769H271.274L200.059 145.134L128.844 268.769Z" fill="url(#paint0_linear_2890_9495)"></path><defs><linearGradient id="paint0_linear_2890_9495" x1="113.528" y1="338.876" x2="286.992" y2="165.787" gradientUnits="userSpaceOnUse"><stop stop-color="#0073D1"></stop><stop offset="0.06" stop-color="#0082CE"></stop><stop offset="0.22" stop-color="#00A0C9"></stop><stop offset="0.39" stop-color="#00B8C4"></stop><stop offset="0.57" stop-color="#00C9C1"></stop><stop offset="0.76" stop-color="#00D3C0"></stop><stop offset="1" stop-color="#00D6BF"></stop></linearGradient></defs></svg> 