<?xml version="1.0" encoding="UTF-8"?> <svg xmlns="http://www.w3.org/2000/svg" width="400" height="400" viewBox="0 0 400 400" fill="none"><rect width="400" height="400" rx="200" fill="white"></rect><path d="M200 360C288.366 360 360 288.366 360 200C360 111.634 288.366 40 200 40C111.634 40 40 111.634 40 200C40 288.366 111.634 360 200 360Z" fill="url(#paint0_linear_2890_9541)"></path><path d="M301.03 190.22L255.838 145.027L255.756 144.945L255.577 144.789C255.285 144.524 254.979 144.275 254.66 144.043C254.436 143.864 254.213 143.693 253.974 143.536C253.87 143.462 253.766 143.402 253.654 143.335C251.077 141.647 247.96 140.99 244.922 141.495C241.884 141.999 239.146 143.627 237.253 146.056L166.966 216.349V153.727C166.966 150.435 165.659 147.278 163.331 144.95C161.003 142.622 157.846 141.314 154.554 141.314C151.262 141.314 148.105 142.622 145.777 144.95C143.449 147.278 142.141 150.435 142.141 153.727V216.349L116.481 190.689C114.135 188.453 111.008 187.222 107.768 187.261C104.527 187.299 101.43 188.604 99.138 190.895C96.8463 193.187 95.5418 196.284 95.5033 199.525C95.4648 202.766 96.6953 205.893 98.9318 208.238L145.779 255.086C146.074 255.384 146.385 255.665 146.711 255.928C147.024 256.182 147.352 256.428 147.68 256.674C149.373 257.771 151.307 258.438 153.316 258.619H153.369C153.771 258.657 154.174 258.679 154.576 258.679H154.763C155.101 258.679 155.436 258.664 155.769 258.634H156.015C156.336 258.597 156.656 258.56 156.969 258.493H157.111C157.461 258.418 157.812 258.336 158.155 258.232H158.214C158.589 258.119 158.957 257.987 159.318 257.837C159.832 257.624 160.33 257.375 160.809 257.091L161.092 256.927C161.561 256.641 162.009 256.322 162.434 255.973L162.561 255.861C162.821 255.637 163.082 255.414 163.306 255.16L234.576 183.845V246.274C234.576 249.566 235.884 252.723 238.212 255.051C240.54 257.379 243.697 258.687 246.989 258.687C250.281 258.687 253.438 257.379 255.766 255.051C258.094 252.723 259.401 249.566 259.401 246.274V183.652L283.481 207.776C285.819 210.058 288.962 211.326 292.228 211.306C295.494 211.286 298.621 209.979 300.931 207.669C303.24 205.359 304.546 202.231 304.564 198.965C304.583 195.698 303.313 192.556 301.03 190.22Z" fill="white"></path><defs><linearGradient id="paint0_linear_2890_9541" x1="61.4109" y1="119.985" x2="338.589" y2="280.007" gradientUnits="userSpaceOnUse"><stop offset="0.13" stop-color="#348BED"></stop><stop offset="0.31" stop-color="#2B80E8"></stop><stop offset="0.64" stop-color="#1461DB"></stop><stop offset="0.72" stop-color="#0E57D7"></stop></linearGradient></defs></svg> 