<svg xmlns="http://www.w3.org/2000/svg" width="150" height="90" fill="none"><path fill="#fff" d="M66.96 53.952c-.96 0-1.824-.144-2.64-.48-.816-.336-1.488-.768-2.064-1.344a5.597 5.597 0 0 1-1.296-2.016c-.288-.768-.48-1.584-.48-2.496 0-.912.144-1.728.48-2.496.336-.768.768-1.44 1.344-2.016.576-.576 1.248-1.008 2.016-1.344.768-.336 1.632-.48 2.496-.48.864 0 1.728.144 2.496.48.768.288 1.44.72 2.016 1.296.576.576 1.008 1.2 1.296 1.968.336.768.48 1.584.48 2.496v1.008H62.976c.192.96.624 1.68 1.296 2.256.672.576 1.584.864 2.64.864s1.536-.192 2.16-.576c.624-.384 1.056-.912 1.392-1.584l2.16 1.2a6.037 6.037 0 0 1-2.256 2.4c-.96.624-2.112.912-3.504.912h.096v-.048Zm-.096-10.416c-.912 0-1.68.24-2.352.768-.672.528-1.104 1.152-1.344 1.968h7.344c-.192-.864-.624-1.536-1.248-2.016s-1.44-.72-2.352-.72h-.048Zm36.624 10.416c-.96 0-1.824-.144-2.64-.48-.816-.336-1.488-.768-2.064-1.344a5.597 5.597 0 0 1-1.296-2.016c-.288-.768-.48-1.584-.48-2.496 0-.912.144-1.728.48-2.496.336-.768.768-1.44 1.344-2.016.576-.576 1.248-1.008 2.016-1.344.768-.336 1.632-.48 2.496-.48.864 0 1.728.144 2.496.48.768.288 1.44.72 2.016 1.296.576.576 1.008 1.2 1.296 1.968.336.768.48 1.584.48 2.496v1.008H99.504c.192.96.624 1.68 1.296 2.256.672.576 1.584.864 2.64.864s1.536-.192 2.16-.576c.624-.384 1.056-.912 1.392-1.584l2.16 1.2a6.037 6.037 0 0 1-2.256 2.4c-.96.624-2.112.912-3.504.912h.096v-.048Zm-.096-10.416c-.912 0-1.68.24-2.352.768-.672.528-1.104 1.152-1.344 1.968h7.344c-.192-.864-.624-1.536-1.248-2.016s-1.44-.72-2.352-.72h-.048Zm14.16 10.416c-.96 0-1.824-.144-2.64-.48-.816-.336-1.488-.768-2.064-1.344a5.597 5.597 0 0 1-1.296-2.016c-.288-.768-.48-1.584-.48-2.496 0-.912.144-1.728.48-2.496.336-.768.768-1.44 1.344-2.016.576-.576 1.248-1.008 2.016-1.344.768-.336 1.632-.48 2.496-.48.864 0 1.728.144 2.496.48.768.288 1.44.72 2.016 1.296.576.576 1.008 1.2 1.296 1.968.336.768.48 1.584.48 2.496v1.008h-10.128c.192.96.624 1.68 1.296 2.256.672.576 1.584.864 2.64.864s1.536-.192 2.16-.576c.624-.384 1.056-.912 1.392-1.584l2.16 1.2a6.037 6.037 0 0 1-2.256 2.4c-.96.624-2.112.912-3.504.912h.096v-.048Zm-.096-10.416c-.912 0-1.68.24-2.352.768-.672.528-1.104 1.152-1.344 1.968h7.344c-.192-.864-.624-1.536-1.248-2.016s-1.44-.72-2.352-.72h-.048ZM52.8 51.552c.528 0 1.056-.096 1.488-.288.48-.192.864-.48 1.2-.816.336-.336.624-.768.816-1.248.192-.48.288-1.008.288-1.536s-.096-1.056-.288-1.536a3.754 3.754 0 0 0-.816-1.248 4.089 4.089 0 0 0-1.2-.816 3.911 3.911 0 0 0-1.488-.288c-.528 0-1.056.096-1.536.336-.48.192-.864.48-1.2.864a3.754 3.754 0 0 0-.816 1.248 3.98 3.98 0 0 0-.288 1.536c0 .576.096 1.056.288 1.536.192.48.48.912.816 1.248.336.336.72.624 1.2.864.48.192.96.336 1.536.336v-.192Zm.384 2.352c-.816 0-1.584-.144-2.304-.48a5.1 5.1 0 0 1-1.776-1.392v1.68H46.56V36h2.544v7.2c.432-.576 1.008-1.008 1.728-1.344a5.402 5.402 0 0 1 2.304-.528 5.9 5.9 0 0 1 2.256.432c.72.288 1.392.72 1.92 1.248.576.528 1.008 1.2 1.344 1.968.336.768.48 1.632.48 2.64a6.241 6.241 0 0 1-.528 2.592c-.336.768-.768 1.44-1.344 1.968-.576.528-1.2.96-1.92 1.248a6.08 6.08 0 0 1-2.256.432h.096v.048Zm37.392-2.688c.48-.192.864-.48 1.2-.864.336-.336.624-.768.816-1.248.192-.48.288-1.008.288-1.536s-.096-1.056-.288-1.536a3.754 3.754 0 0 0-.816-1.248 4.524 4.524 0 0 0-1.2-.864c-.48-.192-.96-.336-1.536-.336-.576 0-1.056.096-1.488.288-.48.192-.864.48-1.2.816a3.754 3.754 0 0 0-.816 1.248 4.158 4.158 0 0 0-.288 1.536c0 .528.096 1.056.288 1.536.192.48.48.912.816 1.248.336.336.768.624 1.2.816.48.192.96.288 1.488.288s1.056-.096 1.536-.336v.192Zm-4.128 2.256c-.72-.288-1.344-.72-1.92-1.248-.576-.528-1.008-1.2-1.344-1.968a6.407 6.407 0 0 1-.528-2.592c0-.96.144-1.824.48-2.64.336-.768.768-1.44 1.344-1.968.576-.528 1.2-.96 1.92-1.248a6.08 6.08 0 0 1 2.256-.432 5.57 5.57 0 0 1 2.304.528c.72.336 1.296.768 1.728 1.344v-7.2h2.544V53.76h-2.544v-1.68c-.432.576-1.056 1.056-1.776 1.392-.72.336-1.488.48-2.304.48a5.9 5.9 0 0 1-2.256-.432h.096v-.048ZM74.88 41.328h2.592V43.2c.336-.576.768-1.056 1.296-1.392.528-.336 1.248-.48 2.016-.48h1.44v2.496H80.4c-1.056 0-1.824.288-2.256.864-.432.576-.672 1.488-.672 2.784v6.288h-2.64V41.376h.048v-.048Zm56.832 2.688c1.968 0 3.6 1.584 3.6 3.6v6.096H138v-6.096a6.228 6.228 0 0 0-6.24-6.24 6.228 6.228 0 0 0-6.24 6.24v6.096h2.688v-6.096c0-1.968 1.584-3.6 3.6-3.6M42 49.152c-.192.48-.48.912-.816 1.248a4.089 4.089 0 0 1-1.2.816c-.48.192-.96.288-1.488.288s-1.056-.096-1.536-.336a3.082 3.082 0 0 1-1.2-.864 3.754 3.754 0 0 1-.816-1.248 4.158 4.158 0 0 1-.288-1.536c0-.528.096-1.056.288-1.536.192-.48.48-.912.816-1.248.336-.336.72-.624 1.2-.864.48-.192.96-.336 1.536-.336.576 0 1.056.096 1.488.288.48.192.864.48 1.2.816.336.336.624.768.816 1.248.192.48.288 1.008.288 1.536S42.192 48.48 42 48.96v.192Zm2.352-3.984c-.336-.768-.768-1.44-1.344-2.016a6.234 6.234 0 0 0-1.968-1.344c-.768-.336-1.584-.48-2.448-.48-.864 0-1.68.144-2.448.48-.768.336-1.44.768-2.016 1.344-.576.576-1.008 1.248-1.344 2.016-.336.768-.48 1.584-.48 2.496 0 .912.144 1.728.48 2.496.336.768.768 1.44 1.344 1.968a6.234 6.234 0 0 0 1.968 1.344c.768.336 1.584.48 2.448.48.864 0 1.536-.144 2.16-.48a4.74 4.74 0 0 0 1.584-1.344v1.584h2.544v-6.048c0-.912-.144-1.728-.48-2.496ZM25.632 52.8a.43.43 0 0 0-.432.432c0 .24.192.432.432.432a.43.43 0 0 0 .432-.432.43.43 0 0 0-.432-.432Zm-.864 0a.43.43 0 0 0-.432.432c0 .24.192.432.432.432a.43.43 0 0 0 .432-.432.43.43 0 0 0-.432-.432Zm2.64 0a.43.43 0 0 0-.432.432c0 .24.192.432.432.432a.43.43 0 0 0 .432-.432.43.43 0 0 0-.432-.432Zm-.864 0a.43.43 0 0 0-.432.432c0 .24.192.432.432.432a.43.43 0 0 0 .432-.432.43.43 0 0 0-.432-.432Zm-.912-.912a.43.43 0 0 0-.432.432c0 .24.192.432.432.432a.43.43 0 0 0 .432-.432.43.43 0 0 0-.432-.432Zm-.864 0a.43.43 0 0 0-.432.432c0 .24.192.432.432.432a.43.43 0 0 0 .432-.432.43.43 0 0 0-.432-.432Zm2.64 0a.43.43 0 0 0-.432.432c0 .24.192.432.432.432a.43.43 0 0 0 .432-.432.43.43 0 0 0-.432-.432Zm-.864 0a.43.43 0 0 0-.432.432c0 .24.192.432.432.432a.43.43 0 0 0 .432-.432.43.43 0 0 0-.432-.432Zm-.912-.864a.43.43 0 0 0-.432.432c0 .24.192.432.432.432a.43.43 0 0 0 .432-.432.43.43 0 0 0-.432-.432Zm-.864 0a.43.43 0 0 0-.432.432c0 .24.192.432.432.432a.43.43 0 0 0 .432-.432.43.43 0 0 0-.432-.432Zm2.64 0a.43.43 0 0 0-.432.432c0 .24.192.432.432.432a.43.43 0 0 0 .432-.432.43.43 0 0 0-.432-.432Zm-.864 0a.43.43 0 0 0-.432.432c0 .24.192.432.432.432a.43.43 0 0 0 .432-.432.43.43 0 0 0-.432-.432Zm-.912-.864a.43.43 0 0 0-.432.432c0 .24.192.432.432.432a.43.43 0 0 0 .432-.432.43.43 0 0 0-.432-.432Zm-.864 0a.43.43 0 0 0-.432.432c0 .24.192.432.432.432a.43.43 0 0 0 .432-.432.43.43 0 0 0-.432-.432Zm2.64 0a.43.43 0 0 0-.432.432c0 .24.192.432.432.432a.43.43 0 0 0 .432-.432.43.43 0 0 0-.432-.432Zm-.864 0a.43.43 0 0 0-.432.432c0 .24.192.432.432.432a.43.43 0 0 0 .432-.432.43.43 0 0 0-.432-.432Zm-.912-.912a.43.43 0 0 0-.432.432c0 .24.192.432.432.432a.43.43 0 0 0 .432-.432.43.43 0 0 0-.432-.432Zm-.864 0a.43.43 0 0 0-.432.432c0 .24.192.432.432.432a.43.43 0 0 0 .432-.432.43.43 0 0 0-.432-.432Zm2.64 0a.43.43 0 0 0-.432.432c0 .24.192.432.432.432a.43.43 0 0 0 .432-.432.43.43 0 0 0-.432-.432Zm-.864 0a.43.43 0 0 0-.432.432c0 .24.192.432.432.432a.43.43 0 0 0 .432-.432.43.43 0 0 0-.432-.432Zm-.912-.864a.43.43 0 0 0-.432.432c0 .24.192.432.432.432a.43.43 0 0 0 .432-.432.43.43 0 0 0-.432-.432Zm-.864 0a.43.43 0 0 0-.432.432c0 .24.192.432.432.432a.43.43 0 0 0 .432-.432.43.43 0 0 0-.432-.432Zm2.64 0a.43.43 0 0 0-.432.432c0 .24.192.432.432.432a.43.43 0 0 0 .432-.432.43.43 0 0 0-.432-.432Zm-.864 0a.43.43 0 0 0-.432.432c0 .24.192.432.432.432a.43.43 0 0 0 .432-.432.43.43 0 0 0-.432-.432Zm-.912-.912a.43.43 0 0 0-.432.432c0 .24.192.432.432.432a.43.43 0 0 0 .432-.432.43.43 0 0 0-.432-.432Zm-.864 0a.43.43 0 0 0-.432.432c0 .24.192.432.432.432a.43.43 0 0 0 .432-.432.43.43 0 0 0-.432-.432Zm2.64 0a.43.43 0 0 0-.432.432c0 .24.192.432.432.432a.43.43 0 0 0 .432-.432.43.43 0 0 0-.432-.432Zm-.864 0a.43.43 0 0 0-.432.432c0 .24.192.432.432.432a.43.43 0 0 0 .432-.432.43.43 0 0 0-.432-.432Zm-.912-.864a.43.43 0 0 0-.432.432c0 .24.192.432.432.432a.43.43 0 0 0 .432-.432.43.43 0 0 0-.432-.432Zm-.864 0a.43.43 0 0 0-.432.432c0 .24.192.432.432.432a.43.43 0 0 0 .432-.432.43.43 0 0 0-.432-.432Zm2.64 0a.43.43 0 0 0-.432.432c0 .24.192.432.432.432a.43.43 0 0 0 .432-.432.43.43 0 0 0-.432-.432Zm-.864 0a.43.43 0 0 0-.432.432c0 .24.192.432.432.432a.43.43 0 0 0 .432-.432.43.43 0 0 0-.432-.432Zm-.912-.864a.43.43 0 0 0-.432.432c0 .24.192.432.432.432a.43.43 0 0 0 .432-.432.43.43 0 0 0-.432-.432Zm-.864 0a.43.43 0 0 0-.432.432c0 .24.192.432.432.432a.43.43 0 0 0 .432-.432.43.43 0 0 0-.432-.432Zm2.64 0a.43.43 0 0 0-.432.432c0 .24.192.432.432.432a.43.43 0 0 0 .432-.432.43.43 0 0 0-.432-.432Zm-.864 0a.43.43 0 0 0-.432.432c0 .24.192.432.432.432a.43.43 0 0 0 .432-.432.43.43 0 0 0-.432-.432Zm-.912-.912a.43.43 0 0 0-.432.432c0 .24.192.432.432.432a.43.43 0 0 0 .432-.432.43.43 0 0 0-.432-.432Zm-.864 0a.43.43 0 0 0-.432.432c0 .24.192.432.432.432a.43.43 0 0 0 .432-.432.43.43 0 0 0-.432-.432Zm2.64 0a.43.43 0 0 0-.432.432c0 .24.192.432.432.432a.43.43 0 0 0 .432-.432.43.43 0 0 0-.432-.432Zm-.864 0a.43.43 0 0 0-.432.432c0 .24.192.432.432.432a.43.43 0 0 0 .432-.432.43.43 0 0 0-.432-.432Zm-.912-.864a.43.43 0 0 0-.432.432c0 .24.192.432.432.432a.43.43 0 0 0 .432-.432.43.43 0 0 0-.432-.432Zm-.864 0a.43.43 0 0 0-.432.432c0 .24.192.432.432.432a.43.43 0 0 0 .432-.432.43.43 0 0 0-.432-.432Zm2.64 0a.43.43 0 0 0-.432.432c0 .24.192.432.432.432a.43.43 0 0 0 .432-.432.43.43 0 0 0-.432-.432Zm-.864 0a.43.43 0 0 0-.432.432c0 .24.192.432.432.432a.43.43 0 0 0 .432-.432.43.43 0 0 0-.432-.432Zm-.912-.864a.43.43 0 0 0-.432.432c0 .24.192.432.432.432a.43.43 0 0 0 .432-.432.43.43 0 0 0-.432-.432Zm-.864 0a.43.43 0 0 0-.432.432c0 .24.192.432.432.432a.43.43 0 0 0 .432-.432.43.43 0 0 0-.432-.432Zm2.64 0a.43.43 0 0 0-.432.432c0 .24.192.432.432.432a.43.43 0 0 0 .432-.432.43.43 0 0 0-.432-.432Zm-.864 0a.43.43 0 0 0-.432.432c0 .24.192.432.432.432a.43.43 0 0 0 .432-.432.43.43 0 0 0-.432-.432Zm-.912-.912a.43.43 0 0 0-.432.432c0 .24.192.432.432.432a.43.43 0 0 0 .432-.432.43.43 0 0 0-.432-.432Zm-.864 0a.43.43 0 0 0-.432.432c0 .24.192.432.432.432a.43.43 0 0 0 .432-.432.43.43 0 0 0-.432-.432Zm2.64 0a.43.43 0 0 0-.432.432c0 .24.192.432.432.432a.43.43 0 0 0 .432-.432.43.43 0 0 0-.432-.432Zm-.864 0a.43.43 0 0 0-.432.432c0 .24.192.432.432.432a.43.43 0 0 0 .432-.432.43.43 0 0 0-.432-.432Zm-.912-.864a.43.43 0 0 0-.432.432c0 .24.192.432.432.432a.43.43 0 0 0 .432-.432.43.43 0 0 0-.432-.432Zm-.864 0a.43.43 0 0 0-.432.432c0 .24.192.432.432.432a.43.43 0 0 0 .432-.432.43.43 0 0 0-.432-.432Zm2.64 0a.43.43 0 0 0-.432.432c0 .24.192.432.432.432a.43.43 0 0 0 .432-.432.43.43 0 0 0-.432-.432Zm-.864 0a.43.43 0 0 0-.432.432c0 .24.192.432.432.432a.43.43 0 0 0 .432-.432.43.43 0 0 0-.432-.432Zm-.912-.912a.43.43 0 0 0-.432.432c0 .24.192.432.432.432a.43.43 0 0 0 .432-.432.43.43 0 0 0-.432-.432Zm-.864 0a.43.43 0 0 0-.432.432c0 .24.192.432.432.432a.43.43 0 0 0 .432-.432.43.43 0 0 0-.432-.432Zm2.64 0a.43.43 0 0 0-.432.432c0 .24.192.432.432.432a.43.43 0 0 0 .432-.432.43.43 0 0 0-.432-.432Zm-.864 0a.43.43 0 0 0-.432.432c0 .24.192.432.432.432a.43.43 0 0 0 .432-.432.43.43 0 0 0-.432-.432Zm-.912-.864a.43.43 0 0 0-.432.432c0 .24.192.432.432.432a.43.43 0 0 0 .432-.432.43.43 0 0 0-.432-.432Zm-.864 0a.43.43 0 0 0-.432.432c0 .24.192.432.432.432a.43.43 0 0 0 .432-.432.43.43 0 0 0-.432-.432Zm2.64 0a.43.43 0 0 0-.432.432c0 .24.192.432.432.432a.43.43 0 0 0 .432-.432.43.43 0 0 0-.432-.432Zm-.864 0a.43.43 0 0 0-.432.432c0 .24.192.432.432.432a.43.43 0 0 0 .432-.432.43.43 0 0 0-.432-.432Zm-.912-.864a.43.43 0 0 0-.432.432c0 .24.192.432.432.432a.43.43 0 0 0 .432-.432.43.43 0 0 0-.432-.432Zm-.864 0a.43.43 0 0 0-.432.432c0 .24.192.432.432.432a.43.43 0 0 0 .432-.432.43.43 0 0 0-.432-.432Zm2.64 0a.43.43 0 0 0-.432.432c0 .24.192.432.432.432a.43.43 0 0 0 .432-.432.43.43 0 0 0-.432-.432Zm-.864 0a.43.43 0 0 0-.432.432c0 .24.192.432.432.432a.43.43 0 0 0 .432-.432.43.43 0 0 0-.432-.432Zm-.912-.912a.43.43 0 0 0-.432.432c0 .24.192.432.432.432a.43.43 0 0 0 .432-.432.43.43 0 0 0-.432-.432Zm-.864 0a.43.43 0 0 0-.432.432c0 .24.192.432.432.432a.43.43 0 0 0 .432-.432.43.43 0 0 0-.432-.432Zm2.64 0a.43.43 0 0 0-.432.432c0 .24.192.432.432.432a.43.43 0 0 0 .432-.432.43.43 0 0 0-.432-.432Zm-.864 0a.43.43 0 0 0-.432.432c0 .24.192.432.432.432a.43.43 0 0 0 .432-.432.43.43 0 0 0-.432-.432ZM21.216 52.8a.43.43 0 0 0-.432.432c0 .24.192.432.432.432a.43.43 0 0 0 .432-.432.43.43 0 0 0-.432-.432Zm.912-.912a.43.43 0 0 0-.432.432c0 .24.192.432.432.432a.43.43 0 0 0 .432-.432.43.43 0 0 0-.432-.432Zm-.912 0a.43.43 0 0 0-.432.432c0 .24.192.432.432.432a.43.43 0 0 0 .432-.432.43.43 0 0 0-.432-.432Zm.912-.864a.43.43 0 0 0-.432.432c0 .24.192.432.432.432a.43.43 0 0 0 .432-.432.43.43 0 0 0-.432-.432Zm-.912 0a.43.43 0 0 0-.432.432c0 .24.192.432.432.432a.43.43 0 0 0 .432-.432.43.43 0 0 0-.432-.432Zm1.776 0a.43.43 0 0 0-.432.432c0 .24.192.432.432.432a.43.43 0 0 0 .432-.432.43.43 0 0 0-.432-.432Zm-.864-.864a.43.43 0 0 0-.432.432c0 .24.192.432.432.432a.43.43 0 0 0 .432-.432.43.43 0 0 0-.432-.432Zm-.912 0a.43.43 0 0 0-.432.432c0 .24.192.432.432.432a.43.43 0 0 0 .432-.432.43.43 0 0 0-.432-.432Zm2.688 0a.43.43 0 0 0-.432.432c0 .24.192.432.432.432a.43.43 0 0 0 .432-.432.43.43 0 0 0-.432-.432Zm-.912 0a.43.43 0 0 0-.432.432c0 .24.192.432.432.432a.43.43 0 0 0 .432-.432.43.43 0 0 0-.432-.432Zm-.864-9.744a.43.43 0 0 0-.432.432c0 .24.192.432.432.432a.43.43 0 0 0 .432-.432.43.43 0 0 0-.432-.432Zm-.912 0a.43.43 0 0 0-.432.432c0 .24.192.432.432.432a.43.43 0 0 0 .432-.432.43.43 0 0 0-.432-.432Zm2.688 0a.43.43 0 0 0-.432.432c0 .24.192.432.432.432a.43.43 0 0 0 .432-.432.43.43 0 0 0-.432-.432Zm-.912 0a.43.43 0 0 0-.432.432c0 .24.192.432.432.432a.43.43 0 0 0 .432-.432.43.43 0 0 0-.432-.432Zm-.864-.864a.43.43 0 0 0-.432.432c0 .24.192.432.432.432a.43.43 0 0 0 .432-.432.43.43 0 0 0-.432-.432Zm-.912 0a.43.43 0 0 0-.432.432c0 .24.192.432.432.432a.43.43 0 0 0 .432-.432.43.43 0 0 0-.432-.432Zm2.688 0a.43.43 0 0 0-.432.432c0 .24.192.432.432.432a.43.43 0 0 0 .432-.432.43.43 0 0 0-.432-.432Zm-.912 0a.43.43 0 0 0-.432.432c0 .24.192.432.432.432a.43.43 0 0 0 .432-.432.43.43 0 0 0-.432-.432Zm-.864-.864a.43.43 0 0 0-.432.432c0 .24.192.432.432.432a.43.43 0 0 0 .432-.432.43.43 0 0 0-.432-.432Zm-.912 0a.43.43 0 0 0-.432.432c0 .24.192.432.432.432a.43.43 0 0 0 .432-.432.43.43 0 0 0-.432-.432Zm2.688 0a.43.43 0 0 0-.432.432c0 .24.192.432.432.432a.43.43 0 0 0 .432-.432.43.43 0 0 0-.432-.432Zm-.912 0a.43.43 0 0 0-.432.432c0 .24.192.432.432.432a.43.43 0 0 0 .432-.432.43.43 0 0 0-.432-.432Zm-.864-.912a.43.43 0 0 0-.432.432c0 .24.192.432.432.432a.43.43 0 0 0 .432-.432.43.43 0 0 0-.432-.432Zm-.912 0a.43.43 0 0 0-.432.432c0 .24.192.432.432.432a.43.43 0 0 0 .432-.432.43.43 0 0 0-.432-.432Zm2.688 0a.43.43 0 0 0-.432.432c0 .24.192.432.432.432a.43.43 0 0 0 .432-.432.43.43 0 0 0-.432-.432Zm-.912 0a.43.43 0 0 0-.432.432c0 .24.192.432.432.432a.43.43 0 0 0 .432-.432.43.43 0 0 0-.432-.432ZM18.576 52.8a.43.43 0 0 0-.432.432c0 .24.192.432.432.432a.43.43 0 0 0 .432-.432.43.43 0 0 0-.432-.432Zm-.864 0a.43.43 0 0 0-.432.432c0 .24.192.432.432.432a.43.43 0 0 0 .432-.432.43.43 0 0 0-.432-.432Zm2.64 0a.43.43 0 0 0-.432.432c0 .24.192.432.432.432a.43.43 0 0 0 .432-.432.43.43 0 0 0-.432-.432Zm-.864 0a.43.43 0 0 0-.432.432c0 .24.192.432.432.432a.43.43 0 0 0 .432-.432.43.43 0 0 0-.432-.432Zm-.912-.912a.43.43 0 0 0-.432.432c0 .24.192.432.432.432a.43.43 0 0 0 .432-.432.43.43 0 0 0-.432-.432Zm-.864 0a.43.43 0 0 0-.432.432c0 .24.192.432.432.432a.43.43 0 0 0 .432-.432.43.43 0 0 0-.432-.432Zm2.64 0a.43.43 0 0 0-.432.432c0 .24.192.432.432.432a.43.43 0 0 0 .432-.432.43.43 0 0 0-.432-.432Zm-.864 0a.43.43 0 0 0-.432.432c0 .24.192.432.432.432a.43.43 0 0 0 .432-.432.43.43 0 0 0-.432-.432Zm-.912-.864a.43.43 0 0 0-.432.432c0 .24.192.432.432.432a.43.43 0 0 0 .432-.432.43.43 0 0 0-.432-.432Zm-.864 0a.43.43 0 0 0-.432.432c0 .24.192.432.432.432a.43.43 0 0 0 .432-.432.43.43 0 0 0-.432-.432Zm2.64 0a.43.43 0 0 0-.432.432c0 .24.192.432.432.432a.43.43 0 0 0 .432-.432.43.43 0 0 0-.432-.432Zm-.864 0a.43.43 0 0 0-.432.432c0 .24.192.432.432.432a.43.43 0 0 0 .432-.432.43.43 0 0 0-.432-.432Zm-.912-.864a.43.43 0 0 0-.432.432c0 .24.192.432.432.432a.43.43 0 0 0 .432-.432.43.43 0 0 0-.432-.432Zm-.864 0a.43.43 0 0 0-.432.432c0 .24.192.432.432.432a.43.43 0 0 0 .432-.432.43.43 0 0 0-.432-.432Zm2.64 0a.43.43 0 0 0-.432.432c0 .24.192.432.432.432a.43.43 0 0 0 .432-.432.43.43 0 0 0-.432-.432Zm-.864 0a.43.43 0 0 0-.432.432c0 .24.192.432.432.432a.43.43 0 0 0 .432-.432.43.43 0 0 0-.432-.432Zm-.912-9.744a.43.43 0 0 0-.432.432c0 .24.192.432.432.432a.43.43 0 0 0 .432-.432.43.43 0 0 0-.432-.432Zm-.864 0a.43.43 0 0 0-.432.432c0 .24.192.432.432.432a.43.43 0 0 0 .432-.432.43.43 0 0 0-.432-.432Zm2.64 0a.43.43 0 0 0-.432.432c0 .24.192.432.432.432a.43.43 0 0 0 .432-.432.43.43 0 0 0-.432-.432Zm-.864 0a.43.43 0 0 0-.432.432c0 .24.192.432.432.432a.43.43 0 0 0 .432-.432.43.43 0 0 0-.432-.432Zm-.912-.864a.43.43 0 0 0-.432.432c0 .24.192.432.432.432a.43.43 0 0 0 .432-.432.43.43 0 0 0-.432-.432Zm-.864 0a.43.43 0 0 0-.432.432c0 .24.192.432.432.432a.43.43 0 0 0 .432-.432.43.43 0 0 0-.432-.432Zm2.64 0a.43.43 0 0 0-.432.432c0 .24.192.432.432.432a.43.43 0 0 0 .432-.432.43.43 0 0 0-.432-.432Zm-.864 0a.43.43 0 0 0-.432.432c0 .24.192.432.432.432a.43.43 0 0 0 .432-.432.43.43 0 0 0-.432-.432Zm-.912-.864a.43.43 0 0 0-.432.432c0 .24.192.432.432.432a.43.43 0 0 0 .432-.432.43.43 0 0 0-.432-.432Zm-.864 0a.43.43 0 0 0-.432.432c0 .24.192.432.432.432a.43.43 0 0 0 .432-.432.43.43 0 0 0-.432-.432Zm2.64 0a.43.43 0 0 0-.432.432c0 .24.192.432.432.432a.43.43 0 0 0 .432-.432.43.43 0 0 0-.432-.432Zm-.864 0a.43.43 0 0 0-.432.432c0 .24.192.432.432.432a.43.43 0 0 0 .432-.432.43.43 0 0 0-.432-.432Zm-.912-.912a.43.43 0 0 0-.432.432c0 .24.192.432.432.432a.43.43 0 0 0 .432-.432.43.43 0 0 0-.432-.432Zm-.864 0a.43.43 0 0 0-.432.432c0 .24.192.432.432.432a.43.43 0 0 0 .432-.432.43.43 0 0 0-.432-.432Zm2.64 0a.43.43 0 0 0-.432.432c0 .24.192.432.432.432a.43.43 0 0 0 .432-.432.43.43 0 0 0-.432-.432Zm-.864 0a.43.43 0 0 0-.432.432c0 .24.192.432.432.432a.43.43 0 0 0 .432-.432.43.43 0 0 0-.432-.432ZM15.072 52.8a.43.43 0 0 0-.432.432c0 .24.192.432.432.432a.43.43 0 0 0 .432-.432.43.43 0 0 0-.432-.432Zm1.776 0a.43.43 0 0 0-.432.432c0 .24.192.432.432.432a.43.43 0 0 0 .432-.432.43.43 0 0 0-.432-.432Zm-.912 0a.43.43 0 0 0-.432.432c0 .24.192.432.432.432a.43.43 0 0 0 .432-.432.43.43 0 0 0-.432-.432Zm-.864-.912a.43.43 0 0 0-.432.432c0 .24.192.432.432.432a.43.43 0 0 0 .432-.432.43.43 0 0 0-.432-.432Zm-.912 0a.43.43 0 0 0-.432.432c0 .24.192.432.432.432a.43.43 0 0 0 .432-.432.43.43 0 0 0-.432-.432Zm2.688 0a.43.43 0 0 0-.432.432c0 .24.192.432.432.432a.43.43 0 0 0 .432-.432.43.43 0 0 0-.432-.432Zm-.912 0a.43.43 0 0 0-.432.432c0 .24.192.432.432.432a.43.43 0 0 0 .432-.432.43.43 0 0 0-.432-.432Zm-.864-.864a.43.43 0 0 0-.432.432c0 .24.192.432.432.432a.43.43 0 0 0 .432-.432.43.43 0 0 0-.432-.432Zm-.912 0a.43.43 0 0 0-.432.432c0 .24.192.432.432.432a.43.43 0 0 0 .432-.432.43.43 0 0 0-.432-.432Zm2.688 0a.43.43 0 0 0-.432.432c0 .24.192.432.432.432a.43.43 0 0 0 .432-.432.43.43 0 0 0-.432-.432Zm-.912 0a.43.43 0 0 0-.432.432c0 .24.192.432.432.432a.43.43 0 0 0 .432-.432.43.43 0 0 0-.432-.432Zm-.864-.864a.43.43 0 0 0-.432.432c0 .24.192.432.432.432a.43.43 0 0 0 .432-.432.43.43 0 0 0-.432-.432Zm-.912 0a.43.43 0 0 0-.432.432c0 .24.192.432.432.432a.43.43 0 0 0 .432-.432.43.43 0 0 0-.432-.432Zm2.688 0a.43.43 0 0 0-.432.432c0 .24.192.432.432.432a.43.43 0 0 0 .432-.432.43.43 0 0 0-.432-.432Zm-.912 0a.43.43 0 0 0-.432.432c0 .24.192.432.432.432a.43.43 0 0 0 .432-.432.43.43 0 0 0-.432-.432Zm-.864-.912a.43.43 0 0 0-.432.432c0 .24.192.432.432.432a.43.43 0 0 0 .432-.432.43.43 0 0 0-.432-.432Zm-.912 0a.43.43 0 0 0-.432.432c0 .24.192.432.432.432a.43.43 0 0 0 .432-.432.43.43 0 0 0-.432-.432Zm.912-.864a.43.43 0 0 0-.432.432c0 .24.192.432.432.432a.43.43 0 0 0 .432-.432.43.43 0 0 0-.432-.432Zm-.912 0a.43.43 0 0 0-.432.432c0 .24.192.432.432.432a.43.43 0 0 0 .432-.432.43.43 0 0 0-.432-.432Zm.912-.912a.43.43 0 0 0-.432.432c0 .24.192.432.432.432a.43.43 0 0 0 .432-.432.43.43 0 0 0-.432-.432Zm-.912 0a.43.43 0 0 0-.432.432c0 .24.192.432.432.432a.43.43 0 0 0 .432-.432.43.43 0 0 0-.432-.432Zm.912-.864a.43.43 0 0 0-.432.432c0 .24.192.432.432.432a.43.43 0 0 0 .432-.432.43.43 0 0 0-.432-.432Zm-.912 0a.43.43 0 0 0-.432.432c0 .24.192.432.432.432a.43.43 0 0 0 .432-.432.43.43 0 0 0-.432-.432Zm.912-.864a.43.43 0 0 0-.432.432c0 .24.192.432.432.432a.43.43 0 0 0 .432-.432.43.43 0 0 0-.432-.432Zm-.912 0a.43.43 0 0 0-.432.432c0 .24.192.432.432.432a.43.43 0 0 0 .432-.432.43.43 0 0 0-.432-.432Zm.912-.912a.43.43 0 0 0-.432.432c0 .24.192.432.432.432a.43.43 0 0 0 .432-.432.43.43 0 0 0-.432-.432Zm-.912 0a.43.43 0 0 0-.432.432c0 .24.192.432.432.432a.43.43 0 0 0 .432-.432.43.43 0 0 0-.432-.432Zm.912-.864a.43.43 0 0 0-.432.432c0 .24.192.432.432.432a.43.43 0 0 0 .432-.432.43.43 0 0 0-.432-.432Zm-.912 0a.43.43 0 0 0-.432.432c0 .24.192.432.432.432a.43.43 0 0 0 .432-.432.43.43 0 0 0-.432-.432Zm.912-.864a.43.43 0 0 0-.432.432c0 .24.192.432.432.432a.43.43 0 0 0 .432-.432.43.43 0 0 0-.432-.432Zm-.912 0a.43.43 0 0 0-.432.432c0 .24.192.432.432.432a.43.43 0 0 0 .432-.432.43.43 0 0 0-.432-.432Zm.912-.912a.43.43 0 0 0-.432.432c0 .24.192.432.432.432a.43.43 0 0 0 .432-.432.43.43 0 0 0-.432-.432Zm-.912 0a.43.43 0 0 0-.432.432c0 .24.192.432.432.432a.43.43 0 0 0 .432-.432.43.43 0 0 0-.432-.432Zm.912-.864a.43.43 0 0 0-.432.432c0 .24.192.432.432.432a.43.43 0 0 0 .432-.432.43.43 0 0 0-.432-.432Zm-.912 0a.43.43 0 0 0-.432.432c0 .24.192.432.432.432a.43.43 0 0 0 .432-.432.43.43 0 0 0-.432-.432Zm.912-.912a.43.43 0 0 0-.432.432c0 .24.192.432.432.432a.43.43 0 0 0 .432-.432.43.43 0 0 0-.432-.432Zm1.776 0a.43.43 0 0 0-.432.432c0 .24.192.432.432.432a.43.43 0 0 0 .432-.432.43.43 0 0 0-.432-.432Zm-.912 0a.43.43 0 0 0-.432.432c0 .24.192.432.432.432a.43.43 0 0 0 .432-.432.43.43 0 0 0-.432-.432Zm.912-.864a.43.43 0 0 0-.432.432c0 .24.192.432.432.432a.43.43 0 0 0 .432-.432.43.43 0 0 0-.432-.432Zm-.912 0a.43.43 0 0 0-.432.432c0 .24.192.432.432.432a.43.43 0 0 0 .432-.432.43.43 0 0 0-.432-.432Zm.912-.864a.43.43 0 0 0-.432.432c0 .24.192.432.432.432a.43.43 0 0 0 .432-.432.43.43 0 0 0-.432-.432Zm-3.552 12.336a.43.43 0 0 0-.432.432c0 .24.192.432.432.432a.43.43 0 0 0 .432-.432.43.43 0 0 0-.432-.432Zm0-.864a.43.43 0 0 0-.432.432c0 .24.192.432.432.432a.43.43 0 0 0 .432-.432.43.43 0 0 0-.432-.432Zm-.864 0a.43.43 0 0 0-.432.432c0 .24.192.432.432.432a.43.43 0 0 0 .432-.432.43.43 0 0 0-.432-.432Zm.864-.912a.43.43 0 0 0-.432.432c0 .24.192.432.432.432a.43.43 0 0 0 .432-.432.43.43 0 0 0-.432-.432Zm-.864 0a.43.43 0 0 0-.432.432c0 .24.192.432.432.432a.43.43 0 0 0 .432-.432.43.43 0 0 0-.432-.432Zm.864-.864a.43.43 0 0 0-.432.432c0 .24.192.432.432.432a.43.43 0 0 0 .432-.432.43.43 0 0 0-.432-.432Zm-.864 0a.43.43 0 0 0-.432.432c0 .24.192.432.432.432a.43.43 0 0 0 .432-.432.43.43 0 0 0-.432-.432Zm.864-.912a.43.43 0 0 0-.432.432c0 .24.192.432.432.432a.43.43 0 0 0 .432-.432.43.43 0 0 0-.432-.432Zm-.864 0a.43.43 0 0 0-.432.432c0 .24.192.432.432.432a.43.43 0 0 0 .432-.432.43.43 0 0 0-.432-.432Zm.864-.864a.43.43 0 0 0-.432.432c0 .24.192.432.432.432a.43.43 0 0 0 .432-.432.43.43 0 0 0-.432-.432Zm-.864 0a.43.43 0 0 0-.432.432c0 .24.192.432.432.432a.43.43 0 0 0 .432-.432.43.43 0 0 0-.432-.432Zm.864-.864a.43.43 0 0 0-.432.432c0 .24.192.432.432.432a.43.43 0 0 0 .432-.432.43.43 0 0 0-.432-.432Zm-.864 0a.43.43 0 0 0-.432.432c0 .24.192.432.432.432a.43.43 0 0 0 .432-.432.43.43 0 0 0-.432-.432Zm.864-.912a.43.43 0 0 0-.432.432c0 .24.192.432.432.432a.43.43 0 0 0 .432-.432.43.43 0 0 0-.432-.432Zm-.864 0a.43.43 0 0 0-.432.432c0 .24.192.432.432.432a.43.43 0 0 0 .432-.432.43.43 0 0 0-.432-.432Zm.864-.864a.43.43 0 0 0-.432.432c0 .24.192.432.432.432a.43.43 0 0 0 .432-.432.43.43 0 0 0-.432-.432Zm-.864 0A.43.43 0 0 0 12 44.4c0 .24.192.432.432.432a.43.43 0 0 0 .432-.432.43.43 0 0 0-.432-.432Zm.864-.864a.43.43 0 0 0-.432.432c0 .24.192.432.432.432a.43.43 0 0 0 .432-.432.43.43 0 0 0-.432-.432Zm-.864 0a.43.43 0 0 0-.432.432c0 .24.192.432.432.432a.43.43 0 0 0 .432-.432.43.43 0 0 0-.432-.432Zm.864-.912a.43.43 0 0 0-.432.432c0 .24.192.432.432.432a.43.43 0 0 0 .432-.432.43.43 0 0 0-.432-.432Z"></path></svg>