<svg xmlns="http://www.w3.org/2000/svg" width="135" height="20" fill="none" viewBox="0 0 135 20"><mask id="a" width="135" height="20" x="0" y="0" maskUnits="userSpaceOnUse" style="mask-type:luminance"><path fill="#fff" d="M134.54 0H0v19.313h134.54z"/></mask><g fill="#000" mask="url(#a)"><path d="M58.717 19.313q-1.54 0-2.82-.526a6.5 6.5 0 0 1-2.18-1.434 6.3 6.3 0 0 1-1.395-2.157 7.2 7.2 0 0 1-.496-2.67c0-.947.173-1.869.522-2.71a6.7 6.7 0 0 1 1.437-2.184 6.8 6.8 0 0 1 2.154-1.46 6.6 6.6 0 0 1 2.676-.54q1.437.001 2.676.5a6.3 6.3 0 0 1 2.128 1.395 6.5 6.5 0 0 1 1.396 2.131q.51 1.237.51 2.683v1.105H54.515q.287 1.526 1.384 2.447t2.82.921q1.331 0 2.31-.644a4.2 4.2 0 0 0 1.5-1.724l2.299 1.289a6.8 6.8 0 0 1-2.389 2.604q-1.527.974-3.72.974zm-.105-11.208q-1.463 0-2.52.816a4.1 4.1 0 0 0-1.449 2.132h7.832q-.314-1.42-1.332-2.184-1.018-.763-2.533-.763zM97.725 19.313q-1.541 0-2.82-.526a6.5 6.5 0 0 1-2.18-1.434 6.3 6.3 0 0 1-1.395-2.157 7.2 7.2 0 0 1-.496-2.67c0-.947.173-1.869.522-2.71a6.7 6.7 0 0 1 1.437-2.184 6.8 6.8 0 0 1 2.153-1.46 6.6 6.6 0 0 1 2.677-.54q1.437.001 2.676.5a6.3 6.3 0 0 1 2.128 1.395 6.5 6.5 0 0 1 1.396 2.131q.509 1.237.509 2.683v1.105H93.524q.285 1.526 1.384 2.447 1.096.921 2.82.921 1.33 0 2.31-.644a4.2 4.2 0 0 0 1.501-1.724l2.298 1.289a6.8 6.8 0 0 1-2.389 2.604q-1.527.974-3.72.974zM97.62 8.105q-1.462 0-2.52.816a4.1 4.1 0 0 0-1.449 2.132h7.832q-.313-1.42-1.332-2.184-1.017-.763-2.532-.763zM112.737 19.301q-1.54 0-2.82-.526a6.5 6.5 0 0 1-2.179-1.434 6.3 6.3 0 0 1-1.398-2.157 7.2 7.2 0 0 1-.495-2.67c0-.947.173-1.869.522-2.71a6.7 6.7 0 0 1 1.435-2.184 6.8 6.8 0 0 1 2.154-1.46 6.6 6.6 0 0 1 2.676-.539q1.436 0 2.676.5a6.3 6.3 0 0 1 2.128 1.394 6.5 6.5 0 0 1 1.396 2.132q.509 1.235.509 2.683v1.104h-10.808q.286 1.526 1.384 2.447 1.096.921 2.82.921 1.331 0 2.31-.644a4.24 4.24 0 0 0 1.501-1.724l2.298 1.29a6.8 6.8 0 0 1-2.389 2.604q-1.528.973-3.72.973m-.105-11.208q-1.463 0-2.52.816a4.1 4.1 0 0 0-1.449 2.132h7.832q-.314-1.42-1.332-2.184-1.018-.763-2.533-.762zM43.598 16.735a4.038 4.038 0 0 0 2.91-1.226q.556-.572.866-1.355a4.5 4.5 0 0 0 .31-1.668q.001-.885-.31-1.656a4.1 4.1 0 0 0-.866-1.342 4.1 4.1 0 0 0-1.306-.9 4 4 0 0 0-1.604-.326c-.569 0-1.125.113-1.616.339a4.13 4.13 0 0 0-2.134 2.254 4.3 4.3 0 0 0-.31 1.63c0 .573.102 1.142.31 1.655q.31.77.854 1.342.544.574 1.28.913a3.8 3.8 0 0 0 1.616.338zm.415 2.554a5.8 5.8 0 0 1-2.47-.534 4.84 4.84 0 0 1-1.874-1.498v1.792h-2.716V0h2.742v7.742a5.3 5.3 0 0 1 1.85-1.46 5.5 5.5 0 0 1 2.444-.547c.88 0 1.656.156 2.43.47a6.2 6.2 0 0 1 2.057 1.354 6.6 6.6 0 0 1 1.422 2.138q.53 1.251.53 2.816 0 1.563-.542 2.815a6.6 6.6 0 0 1-1.435 2.124 6.5 6.5 0 0 1-2.043 1.355 6.1 6.1 0 0 1-2.394.482zM83.939 16.396q.735-.338 1.28-.912a4.2 4.2 0 0 0 .854-1.342 4.4 4.4 0 0 0 .31-1.656c0-.59-.103-1.117-.31-1.63a4.13 4.13 0 0 0-2.134-2.255 3.8 3.8 0 0 0-1.617-.337 4.031 4.031 0 0 0-2.909 1.226q-.556.573-.866 1.342a4.4 4.4 0 0 0-.311 1.656q0 .885.311 1.668.31.783.866 1.355.556.574 1.306.9t1.603.326c.57 0 1.126-.114 1.617-.34m-4.423 2.41a6.5 6.5 0 0 1-2.043-1.354 6.6 6.6 0 0 1-1.435-2.124q-.542-1.252-.542-2.815t.53-2.816a6.6 6.6 0 0 1 1.422-2.138 6.1 6.1 0 0 1 2.056-1.355 6.4 6.4 0 0 1 2.43-.47 5.64 5.64 0 0 1 2.445.548q1.125.548 1.85 1.46V0h2.742v19.05h-2.715v-1.794a4.86 4.86 0 0 1-1.875 1.499 5.8 5.8 0 0 1-2.47.534q-1.24 0-2.392-.482zM67.163 5.734h2.77v2.009a3.76 3.76 0 0 1 1.397-1.488q.88-.522 2.174-.521h1.528v2.661H73.09q-1.708 0-2.42.939-.712.94-.711 2.973l.013 6.742h-2.81V5.732zM127.856 8.62c2.108 0 3.821 1.728 3.821 3.851v6.578h2.864v-6.578c0-3.721-2.994-6.737-6.685-6.737-3.692 0-6.684 3.017-6.684 6.737v6.578h2.864v-6.578c0-2.123 1.713-3.85 3.82-3.85M32.048 14.15a4.1 4.1 0 0 1-.867 1.356 4.04 4.04 0 0 1-2.91 1.226 3.9 3.9 0 0 1-1.617-.34 4.1 4.1 0 0 1-1.28-.911 4.2 4.2 0 0 1-.853-1.343 4.4 4.4 0 0 1-.311-1.656c0-.59.103-1.117.31-1.629q.31-.769.854-1.342.545-.573 1.28-.912a3.8 3.8 0 0 1 1.617-.339c.586 0 1.104.109 1.604.326a4.06 4.06 0 0 1 2.173 2.242q.31.769.31 1.656.001.886-.31 1.668zm2.498-4.311a6.8 6.8 0 0 0-1.412-2.154 6.57 6.57 0 0 0-4.729-1.958q-1.4 0-2.617.521a6.8 6.8 0 0 0-2.137 1.437 6.6 6.6 0 0 0-1.438 2.154 6.9 6.9 0 0 0-.519 2.676q-.001 1.437.52 2.677.517 1.24 1.41 2.141a6.7 6.7 0 0 0 2.1 1.423 6.5 6.5 0 0 0 2.605.521q1.295 0 2.318-.508a4.7 4.7 0 0 0 1.698-1.423v1.701h2.72v-6.533q0-1.437-.52-2.677zM14.598 18.063c-.26 0-.47.212-.47.474 0 .261.21.474.47.474s.471-.213.471-.474a.473.473 0 0 0-.47-.474M13.657 18.063c-.26 0-.47.212-.47.474 0 .261.21.474.47.474s.47-.213.47-.474a.473.473 0 0 0-.47-.474M16.482 18.063c-.26 0-.47.212-.47.474 0 .261.21.474.47.474s.47-.213.47-.474a.473.473 0 0 0-.47-.474M15.54 18.063c-.26 0-.47.212-.47.474 0 .261.21.474.47.474s.47-.213.47-.474a.473.473 0 0 0-.47-.474M14.598 17.113c-.26 0-.47.213-.47.474 0 .262.21.475.47.475s.471-.213.471-.475a.473.473 0 0 0-.47-.474M13.657 17.113c-.26 0-.47.213-.47.474 0 .262.21.475.47.475s.47-.213.47-.475a.473.473 0 0 0-.47-.474M16.482 17.113c-.26 0-.47.213-.47.474 0 .262.21.475.47.475s.47-.213.47-.475a.473.473 0 0 0-.47-.474M15.54 17.113c-.26 0-.47.213-.47.474 0 .262.21.475.47.475s.47-.213.47-.475a.473.473 0 0 0-.47-.474M14.598 16.162c-.26 0-.47.213-.47.474 0 .262.21.474.47.474s.471-.212.471-.474a.473.473 0 0 0-.47-.474M13.657 16.162c-.26 0-.47.213-.47.474 0 .262.21.474.47.474s.47-.212.47-.474a.473.473 0 0 0-.47-.474M16.482 16.162c-.26 0-.47.213-.47.474 0 .262.21.474.47.474s.47-.212.47-.474a.473.473 0 0 0-.47-.474M15.54 16.162c-.26 0-.47.213-.47.474 0 .262.21.474.47.474s.47-.212.47-.474a.473.473 0 0 0-.47-.474"/><path d="M14.598 15.215c-.26 0-.47.213-.47.474 0 .262.21.474.47.474s.471-.212.471-.474a.473.473 0 0 0-.47-.474M13.657 15.215c-.26 0-.47.213-.47.474 0 .262.21.474.47.474s.47-.212.47-.474a.473.473 0 0 0-.47-.474M16.482 15.215c-.26 0-.47.213-.47.474 0 .262.21.474.47.474s.47-.212.47-.474a.473.473 0 0 0-.47-.474M15.54 15.215c-.26 0-.47.213-.47.474 0 .262.21.474.47.474s.47-.212.47-.474a.473.473 0 0 0-.47-.474M14.598 14.264c-.26 0-.47.212-.47.474 0 .261.21.474.47.474s.471-.213.471-.474a.473.473 0 0 0-.47-.474M13.657 14.264c-.26 0-.47.212-.47.474 0 .261.21.474.47.474s.47-.213.47-.474a.473.473 0 0 0-.47-.474M16.482 14.264c-.26 0-.47.212-.47.474 0 .261.21.474.47.474s.47-.213.47-.474a.473.473 0 0 0-.47-.474M15.54 14.264c-.26 0-.47.212-.47.474 0 .261.21.474.47.474s.47-.213.47-.474a.473.473 0 0 0-.47-.474"/><path d="M14.598 13.316c-.26 0-.47.213-.47.475 0 .261.21.474.47.474s.471-.213.471-.474a.473.473 0 0 0-.47-.475M13.657 13.316c-.26 0-.47.213-.47.475 0 .261.21.474.47.474s.47-.213.47-.474a.473.473 0 0 0-.47-.475M16.482 13.316c-.26 0-.47.213-.47.475 0 .261.21.474.47.474s.47-.213.47-.474a.473.473 0 0 0-.47-.475M15.54 13.316c-.26 0-.47.213-.47.475 0 .261.21.474.47.474s.47-.213.47-.474a.473.473 0 0 0-.47-.475M14.598 12.365c-.26 0-.47.213-.47.474 0 .262.21.475.47.475s.471-.213.471-.475a.473.473 0 0 0-.47-.474M13.657 12.365c-.26 0-.47.213-.47.474 0 .262.21.475.47.475s.47-.213.47-.475a.473.473 0 0 0-.47-.474M16.482 12.365c-.26 0-.47.213-.47.474 0 .262.21.475.47.475s.47-.213.47-.475a.473.473 0 0 0-.47-.474M15.54 12.365c-.26 0-.47.213-.47.474 0 .262.21.475.47.475s.47-.213.47-.475a.473.473 0 0 0-.47-.474"/><path d="M14.598 11.418c-.26 0-.47.213-.47.474 0 .262.21.474.47.474s.471-.212.471-.474a.473.473 0 0 0-.47-.474M13.657 11.418c-.26 0-.47.213-.47.474 0 .262.21.474.47.474s.47-.212.47-.474a.473.473 0 0 0-.47-.474M16.482 11.418c-.26 0-.47.213-.47.474 0 .262.21.474.47.474s.47-.212.47-.474a.473.473 0 0 0-.47-.474M15.54 11.418c-.26 0-.47.213-.47.474 0 .262.21.474.47.474s.47-.212.47-.474a.473.473 0 0 0-.47-.474M14.598 10.467c-.26 0-.47.213-.47.474 0 .262.21.474.47.474s.471-.212.471-.474a.473.473 0 0 0-.47-.474M13.657 10.467c-.26 0-.47.213-.47.474 0 .262.21.474.47.474s.47-.212.47-.474a.473.473 0 0 0-.47-.474M16.482 10.467c-.26 0-.47.213-.47.474 0 .262.21.474.47.474s.47-.212.47-.474a.473.473 0 0 0-.47-.474M15.54 10.467c-.26 0-.47.213-.47.474 0 .262.21.474.47.474s.47-.212.47-.474a.473.473 0 0 0-.47-.474"/><path d="M14.598 9.52c-.26 0-.47.212-.47.474 0 .261.21.474.47.474s.471-.213.471-.474a.473.473 0 0 0-.47-.474M13.657 9.52c-.26 0-.47.212-.47.474 0 .261.21.474.47.474s.47-.213.47-.474a.473.473 0 0 0-.47-.474M16.482 9.52c-.26 0-.47.212-.47.474 0 .261.21.474.47.474s.47-.213.47-.474a.473.473 0 0 0-.47-.474M15.54 9.52c-.26 0-.47.212-.47.474 0 .261.21.474.47.474s.47-.213.47-.474a.473.473 0 0 0-.47-.474M14.598 8.57c-.26 0-.47.213-.47.475 0 .261.21.474.47.474s.471-.213.471-.474a.473.473 0 0 0-.47-.475M13.657 8.57c-.26 0-.47.213-.47.475 0 .261.21.474.47.474s.47-.213.47-.474a.473.473 0 0 0-.47-.475M16.482 8.57c-.26 0-.47.213-.47.475 0 .261.21.474.47.474s.47-.213.47-.474a.473.473 0 0 0-.47-.475M15.54 8.57c-.26 0-.47.213-.47.475 0 .261.21.474.47.474s.47-.213.47-.474a.473.473 0 0 0-.47-.475M14.598 7.621c-.26 0-.47.213-.47.474 0 .262.21.475.47.475s.471-.213.471-.475a.473.473 0 0 0-.47-.474M13.657 7.621c-.26 0-.47.213-.47.474 0 .262.21.475.47.475s.47-.213.47-.475a.473.473 0 0 0-.47-.474M16.482 7.621c-.26 0-.47.213-.47.474 0 .262.21.475.47.475s.47-.213.47-.475a.473.473 0 0 0-.47-.474M15.54 7.621c-.26 0-.47.213-.47.474 0 .262.21.475.47.475s.47-.213.47-.475a.473.473 0 0 0-.47-.474M14.598 6.672c-.26 0-.47.213-.47.474 0 .262.21.474.47.474s.471-.212.471-.474a.473.473 0 0 0-.47-.474M13.657 6.672c-.26 0-.47.213-.47.474 0 .262.21.474.47.474s.47-.212.47-.474a.473.473 0 0 0-.47-.474M16.482 6.672c-.26 0-.47.213-.47.474 0 .262.21.474.47.474s.47-.212.47-.474a.473.473 0 0 0-.47-.474M15.54 6.672c-.26 0-.47.213-.47.474 0 .262.21.474.47.474s.47-.212.47-.474a.473.473 0 0 0-.47-.474M14.598 5.723c-.26 0-.47.212-.47.474 0 .261.21.474.47.474s.471-.213.471-.474a.473.473 0 0 0-.47-.474M13.657 5.723c-.26 0-.47.212-.47.474 0 .261.21.474.47.474s.47-.213.47-.474a.473.473 0 0 0-.47-.474M16.482 5.723c-.26 0-.47.212-.47.474 0 .261.21.474.47.474s.47-.213.47-.474a.473.473 0 0 0-.47-.474M15.54 5.723c-.26 0-.47.212-.47.474 0 .261.21.474.47.474s.47-.213.47-.474a.473.473 0 0 0-.47-.474M14.598 4.773c-.26 0-.47.213-.47.475 0 .261.21.474.47.474s.471-.213.471-.474a.473.473 0 0 0-.47-.475M13.657 4.773c-.26 0-.47.213-.47.475 0 .261.21.474.47.474s.47-.213.47-.474a.473.473 0 0 0-.47-.475M16.482 4.773c-.26 0-.47.213-.47.475 0 .261.21.474.47.474s.47-.213.47-.474a.473.473 0 0 0-.47-.475M15.54 4.773c-.26 0-.47.213-.47.475 0 .261.21.474.47.474s.47-.213.47-.474a.473.473 0 0 0-.47-.475M14.598 3.824c-.26 0-.47.213-.47.474 0 .262.21.475.47.475s.471-.213.471-.475a.473.473 0 0 0-.47-.474M13.657 3.824c-.26 0-.47.213-.47.474 0 .262.21.475.47.475s.47-.213.47-.475a.473.473 0 0 0-.47-.474M16.482 3.824c-.26 0-.47.213-.47.474 0 .262.21.475.47.475s.47-.213.47-.475a.473.473 0 0 0-.47-.474M15.54 3.824c-.26 0-.47.213-.47.474 0 .262.21.475.47.475s.47-.213.47-.475a.473.473 0 0 0-.47-.474M14.598 2.875c-.26 0-.47.213-.47.474 0 .262.21.474.47.474s.471-.212.471-.474a.473.473 0 0 0-.47-.474M13.657 2.875c-.26 0-.47.213-.47.474 0 .262.21.474.47.474s.47-.212.47-.474a.473.473 0 0 0-.47-.474M16.482 2.875c-.26 0-.47.213-.47.474 0 .262.21.474.47.474s.47-.212.47-.474a.473.473 0 0 0-.47-.474M15.54 2.875c-.26 0-.47.213-.47.474 0 .262.21.474.47.474s.47-.212.47-.474a.473.473 0 0 0-.47-.474M14.598 1.926c-.26 0-.47.212-.47.474s.21.474.47.474.471-.212.471-.474a.473.473 0 0 0-.47-.474M13.657 1.926c-.26 0-.47.212-.47.474s.21.474.47.474.47-.212.47-.474a.473.473 0 0 0-.47-.474M16.482 1.926c-.26 0-.47.212-.47.474s.21.474.47.474.47-.212.47-.474a.473.473 0 0 0-.47-.474M15.54 1.926c-.26 0-.47.212-.47.474s.21.474.47.474.47-.212.47-.474a.473.473 0 0 0-.47-.474M9.889 18.063c-.26 0-.471.212-.471.474 0 .261.211.474.47.474.26 0 .471-.213.471-.474a.473.473 0 0 0-.47-.474M10.831 17.113c-.26 0-.47.213-.47.474 0 .262.21.475.47.475s.47-.213.47-.475a.473.473 0 0 0-.47-.474M9.889 17.113c-.26 0-.471.213-.471.474 0 .262.211.475.47.475.26 0 .471-.213.471-.475a.473.473 0 0 0-.47-.474M10.831 16.162c-.26 0-.47.213-.47.474 0 .262.21.474.47.474s.47-.212.47-.474a.473.473 0 0 0-.47-.474M9.889 16.162c-.26 0-.471.213-.471.474 0 .262.211.474.47.474.26 0 .471-.212.471-.474a.473.473 0 0 0-.47-.474M11.772 16.162c-.26 0-.47.213-.47.474 0 .262.21.474.47.474s.47-.212.47-.474a.473.473 0 0 0-.47-.474"/><path d="M10.831 15.215c-.26 0-.47.213-.47.474 0 .262.21.474.47.474s.47-.212.47-.474a.473.473 0 0 0-.47-.474M9.889 15.215c-.26 0-.471.213-.471.474 0 .262.211.474.47.474.26 0 .471-.212.471-.474a.473.473 0 0 0-.47-.474M12.715 15.215c-.26 0-.47.213-.47.474 0 .262.21.474.47.474s.47-.212.47-.474a.473.473 0 0 0-.47-.474M11.772 15.215c-.26 0-.47.213-.47.474 0 .262.21.474.47.474s.47-.212.47-.474a.473.473 0 0 0-.47-.474M10.831 4.773c-.26 0-.47.213-.47.475 0 .261.21.474.47.474s.47-.213.47-.474a.473.473 0 0 0-.47-.475M9.889 4.773c-.26 0-.471.213-.471.475 0 .261.211.474.47.474.26 0 .471-.213.471-.474a.473.473 0 0 0-.47-.475M12.715 4.773c-.26 0-.47.213-.47.475 0 .261.21.474.47.474s.47-.213.47-.474a.473.473 0 0 0-.47-.475M11.772 4.773c-.26 0-.47.213-.47.475 0 .261.21.474.47.474s.47-.213.47-.474a.473.473 0 0 0-.47-.475M10.831 3.824c-.26 0-.47.213-.47.474 0 .262.21.475.47.475s.47-.213.47-.475a.473.473 0 0 0-.47-.474M9.889 3.824c-.26 0-.471.213-.471.474 0 .262.211.475.47.475.26 0 .471-.213.471-.475a.473.473 0 0 0-.47-.474M12.715 3.824c-.26 0-.47.213-.47.474 0 .262.21.475.47.475s.47-.213.47-.475a.473.473 0 0 0-.47-.474M11.772 3.824c-.26 0-.47.213-.47.474 0 .262.21.475.47.475s.47-.213.47-.475a.473.473 0 0 0-.47-.474M10.831 2.875c-.26 0-.47.213-.47.474 0 .262.21.474.47.474s.47-.212.47-.474a.473.473 0 0 0-.47-.474M9.889 2.875c-.26 0-.471.213-.471.474 0 .262.211.474.47.474.26 0 .471-.212.471-.474a.473.473 0 0 0-.47-.474M12.715 2.875c-.26 0-.47.213-.47.474 0 .262.21.474.47.474s.47-.212.47-.474a.473.473 0 0 0-.47-.474M11.772 2.875c-.26 0-.47.213-.47.474 0 .262.21.474.47.474s.47-.212.47-.474a.473.473 0 0 0-.47-.474M10.831 1.926c-.26 0-.47.212-.47.474s.21.474.47.474.47-.212.47-.474a.473.473 0 0 0-.47-.474M9.889 1.926c-.26 0-.471.212-.471.474s.211.474.47.474c.26 0 .471-.212.471-.474a.473.473 0 0 0-.47-.474M12.715 1.926c-.26 0-.47.212-.47.474s.21.474.47.474.47-.212.47-.474a.473.473 0 0 0-.47-.474M11.772 1.926c-.26 0-.47.212-.47.474s.21.474.47.474.47-.212.47-.474a.473.473 0 0 0-.47-.474M7.064 18.063c-.26 0-.47.212-.47.474 0 .261.21.474.47.474s.47-.213.47-.474a.473.473 0 0 0-.47-.474M6.121 18.063c-.26 0-.47.212-.47.474 0 .261.21.474.47.474s.47-.213.47-.474a.473.473 0 0 0-.47-.474M8.948 18.063c-.26 0-.47.212-.47.474 0 .261.21.474.47.474s.47-.213.47-.474a.473.473 0 0 0-.47-.474M8.005 18.063c-.26 0-.47.212-.47.474 0 .261.21.474.47.474s.47-.213.47-.474a.473.473 0 0 0-.47-.474M7.064 17.113c-.26 0-.47.213-.47.474 0 .262.21.475.47.475s.47-.213.47-.475a.473.473 0 0 0-.47-.474M6.121 17.113c-.26 0-.47.213-.47.474 0 .262.21.475.47.475s.47-.213.47-.475a.473.473 0 0 0-.47-.474M8.948 17.113c-.26 0-.47.213-.47.474 0 .262.21.475.47.475s.47-.213.47-.475a.473.473 0 0 0-.47-.474M8.005 17.113c-.26 0-.47.213-.47.474 0 .262.21.475.47.475s.47-.213.47-.475a.473.473 0 0 0-.47-.474M7.064 16.162c-.26 0-.47.213-.47.474 0 .262.21.474.47.474s.47-.212.47-.474a.473.473 0 0 0-.47-.474M6.121 16.162c-.26 0-.47.213-.47.474 0 .262.21.474.47.474s.47-.212.47-.474a.473.473 0 0 0-.47-.474M8.948 16.162c-.26 0-.47.213-.47.474 0 .262.21.474.47.474s.47-.212.47-.474a.473.473 0 0 0-.47-.474M8.005 16.162c-.26 0-.47.213-.47.474 0 .262.21.474.47.474s.47-.212.47-.474a.473.473 0 0 0-.47-.474"/><path d="M7.064 15.215c-.26 0-.47.213-.47.474 0 .262.21.474.47.474s.47-.212.47-.474a.473.473 0 0 0-.47-.474M6.121 15.215c-.26 0-.47.213-.47.474 0 .262.21.474.47.474s.47-.212.47-.474a.473.473 0 0 0-.47-.474M8.948 15.215c-.26 0-.47.213-.47.474 0 .262.21.474.47.474s.47-.212.47-.474a.473.473 0 0 0-.47-.474M8.005 15.215c-.26 0-.47.213-.47.474 0 .262.21.474.47.474s.47-.212.47-.474a.473.473 0 0 0-.47-.474M7.064 4.773c-.26 0-.47.213-.47.475 0 .261.21.474.47.474s.47-.213.47-.474a.473.473 0 0 0-.47-.475M6.121 4.773c-.26 0-.47.213-.47.475 0 .261.21.474.47.474s.47-.213.47-.474a.473.473 0 0 0-.47-.475M8.948 4.773c-.26 0-.47.213-.47.475 0 .261.21.474.47.474s.47-.213.47-.474a.473.473 0 0 0-.47-.475M8.005 4.773c-.26 0-.47.213-.47.475 0 .261.21.474.47.474s.47-.213.47-.474a.473.473 0 0 0-.47-.475M7.064 3.824c-.26 0-.47.213-.47.474 0 .262.21.475.47.475s.47-.213.47-.475a.473.473 0 0 0-.47-.474M6.121 3.824c-.26 0-.47.213-.47.474 0 .262.21.475.47.475s.47-.213.47-.475a.473.473 0 0 0-.47-.474M8.948 3.824c-.26 0-.47.213-.47.474 0 .262.21.475.47.475s.47-.213.47-.475a.473.473 0 0 0-.47-.474M8.005 3.824c-.26 0-.47.213-.47.474 0 .262.21.475.47.475s.47-.213.47-.475a.473.473 0 0 0-.47-.474M7.064 2.875c-.26 0-.47.213-.47.474 0 .262.21.474.47.474s.47-.212.47-.474a.473.473 0 0 0-.47-.474M6.121 2.875c-.26 0-.47.213-.47.474 0 .262.21.474.47.474s.47-.212.47-.474a.473.473 0 0 0-.47-.474M8.948 2.875c-.26 0-.47.213-.47.474 0 .262.21.474.47.474s.47-.212.47-.474a.473.473 0 0 0-.47-.474M8.005 2.875c-.26 0-.47.213-.47.474 0 .262.21.474.47.474s.47-.212.47-.474a.473.473 0 0 0-.47-.474M7.064 1.926c-.26 0-.47.212-.47.474s.21.474.47.474.47-.212.47-.474a.473.473 0 0 0-.47-.474M6.121 1.926c-.26 0-.47.212-.47.474s.21.474.47.474.47-.212.47-.474a.473.473 0 0 0-.47-.474M8.948 1.926c-.26 0-.47.212-.47.474s.21.474.47.474.47-.212.47-.474a.473.473 0 0 0-.47-.474M8.005 1.926c-.26 0-.47.212-.47.474s.21.474.47.474.47-.212.47-.474a.473.473 0 0 0-.47-.474M3.297 18.063c-.26 0-.47.212-.47.474 0 .261.21.474.47.474s.47-.213.47-.474a.473.473 0 0 0-.47-.474M5.18 18.063c-.259 0-.47.212-.47.474 0 .261.211.474.47.474.26 0 .471-.213.471-.474a.473.473 0 0 0-.47-.474M4.238 18.063c-.26 0-.47.212-.47.474 0 .261.21.474.47.474s.47-.213.47-.474a.473.473 0 0 0-.47-.474M3.297 17.113c-.26 0-.47.213-.47.474 0 .262.21.475.47.475s.47-.213.47-.475a.473.473 0 0 0-.47-.474M2.354 17.113c-.26 0-.47.213-.47.474 0 .262.21.475.47.475s.47-.213.47-.475a.473.473 0 0 0-.47-.474M5.18 17.113c-.259 0-.47.213-.47.474 0 .262.211.475.47.475.26 0 .471-.213.471-.475a.473.473 0 0 0-.47-.474M4.238 17.113c-.26 0-.47.213-.47.474 0 .262.21.475.47.475s.47-.213.47-.475a.473.473 0 0 0-.47-.474M3.297 16.162c-.26 0-.47.213-.47.474 0 .262.21.474.47.474s.47-.212.47-.474a.473.473 0 0 0-.47-.474M2.354 16.162c-.26 0-.47.213-.47.474 0 .262.21.474.47.474s.47-.212.47-.474a.473.473 0 0 0-.47-.474M5.18 16.162c-.259 0-.47.213-.47.474 0 .262.211.474.47.474.26 0 .471-.212.471-.474a.473.473 0 0 0-.47-.474M4.238 16.162c-.26 0-.47.213-.47.474 0 .262.21.474.47.474s.47-.212.47-.474a.473.473 0 0 0-.47-.474"/><path d="M3.297 15.215c-.26 0-.47.213-.47.474 0 .262.21.474.47.474s.47-.212.47-.474a.473.473 0 0 0-.47-.474M2.354 15.215c-.26 0-.47.213-.47.474 0 .262.21.474.47.474s.47-.212.47-.474a.473.473 0 0 0-.47-.474M5.18 15.215c-.259 0-.47.213-.47.474 0 .262.211.474.47.474.26 0 .471-.212.471-.474a.473.473 0 0 0-.47-.474M4.238 15.215c-.26 0-.47.213-.47.474 0 .262.21.474.47.474s.47-.212.47-.474a.473.473 0 0 0-.47-.474M3.297 14.264c-.26 0-.47.212-.47.474 0 .261.21.474.47.474s.47-.213.47-.474a.473.473 0 0 0-.47-.474M2.354 14.264c-.26 0-.47.212-.47.474 0 .261.21.474.47.474s.47-.213.47-.474a.473.473 0 0 0-.47-.474"/><path d="M3.297 13.316c-.26 0-.47.213-.47.475 0 .261.21.474.47.474s.47-.213.47-.474a.473.473 0 0 0-.47-.475M2.354 13.316c-.26 0-.47.213-.47.475 0 .261.21.474.47.474s.47-.213.47-.474a.473.473 0 0 0-.47-.475M3.297 12.365c-.26 0-.47.213-.47.474 0 .262.21.475.47.475s.47-.213.47-.475a.473.473 0 0 0-.47-.474M2.354 12.365c-.26 0-.47.213-.47.474 0 .262.21.475.47.475s.47-.213.47-.475a.473.473 0 0 0-.47-.474"/><path d="M3.297 11.418c-.26 0-.47.213-.47.474 0 .262.21.474.47.474s.47-.212.47-.474a.473.473 0 0 0-.47-.474M2.354 11.418c-.26 0-.47.213-.47.474 0 .262.21.474.47.474s.47-.212.47-.474a.473.473 0 0 0-.47-.474M3.297 10.467c-.26 0-.47.213-.47.474 0 .262.21.474.47.474s.47-.212.47-.474a.473.473 0 0 0-.47-.474M2.354 10.467c-.26 0-.47.213-.47.474 0 .262.21.474.47.474s.47-.212.47-.474a.473.473 0 0 0-.47-.474"/><path d="M3.297 9.52c-.26 0-.47.212-.47.474 0 .261.21.474.47.474s.47-.213.47-.474a.473.473 0 0 0-.47-.474M2.354 9.52c-.26 0-.47.212-.47.474 0 .261.21.474.47.474s.47-.213.47-.474a.473.473 0 0 0-.47-.474M3.297 8.57c-.26 0-.47.213-.47.475 0 .261.21.474.47.474s.47-.213.47-.474a.473.473 0 0 0-.47-.475M2.354 8.57c-.26 0-.47.213-.47.475 0 .261.21.474.47.474s.47-.213.47-.474a.473.473 0 0 0-.47-.475M3.297 7.621c-.26 0-.47.213-.47.474 0 .262.21.475.47.475s.47-.213.47-.475a.473.473 0 0 0-.47-.474M2.354 7.621c-.26 0-.47.213-.47.474 0 .262.21.475.47.475s.47-.213.47-.475a.473.473 0 0 0-.47-.474M3.297 6.672c-.26 0-.47.213-.47.474 0 .262.21.474.47.474s.47-.212.47-.474a.473.473 0 0 0-.47-.474M2.354 6.672c-.26 0-.47.213-.47.474 0 .262.21.474.47.474s.47-.212.47-.474a.473.473 0 0 0-.47-.474M3.297 5.723c-.26 0-.47.212-.47.474 0 .261.21.474.47.474s.47-.213.47-.474a.473.473 0 0 0-.47-.474M2.354 5.723c-.26 0-.47.212-.47.474 0 .261.21.474.47.474s.47-.213.47-.474a.473.473 0 0 0-.47-.474M3.297 4.773c-.26 0-.47.213-.47.475 0 .261.21.474.47.474s.47-.213.47-.474a.473.473 0 0 0-.47-.475M5.18 4.773c-.259 0-.47.213-.47.475 0 .261.211.474.47.474.26 0 .471-.213.471-.474a.473.473 0 0 0-.47-.475M4.238 4.773c-.26 0-.47.213-.47.475 0 .261.21.474.47.474s.47-.213.47-.474a.473.473 0 0 0-.47-.475M5.18 3.824c-.259 0-.47.213-.47.474 0 .262.211.475.47.475.26 0 .471-.213.471-.475a.473.473 0 0 0-.47-.474M4.238 3.824c-.26 0-.47.213-.47.474 0 .262.21.475.47.475s.47-.213.47-.475a.473.473 0 0 0-.47-.474M5.18 2.875c-.259 0-.47.213-.47.474 0 .262.211.474.47.474.26 0 .471-.212.471-.474a.473.473 0 0 0-.47-.474M1.413 16.162c-.26 0-.47.213-.47.474 0 .262.21.474.47.474s.47-.212.47-.474a.473.473 0 0 0-.47-.474"/><path d="M1.413 15.215c-.26 0-.47.213-.47.474 0 .262.21.474.47.474s.47-.212.47-.474a.473.473 0 0 0-.47-.474M.47 15.215c-.259 0-.47.213-.47.474 0 .262.211.474.47.474.26 0 .471-.212.471-.474a.473.473 0 0 0-.47-.474M1.413 14.264c-.26 0-.47.212-.47.474 0 .261.21.474.47.474s.47-.213.47-.474a.473.473 0 0 0-.47-.474M.47 14.264c-.259 0-.47.212-.47.474 0 .261.211.474.47.474.26 0 .471-.213.471-.474a.473.473 0 0 0-.47-.474"/><path d="M1.413 13.316c-.26 0-.47.213-.47.475 0 .261.21.474.47.474s.47-.213.47-.474a.473.473 0 0 0-.47-.475M.47 13.316c-.259 0-.47.213-.47.475 0 .261.211.474.47.474.26 0 .471-.213.471-.474a.473.473 0 0 0-.47-.475M1.413 12.365c-.26 0-.47.213-.47.474 0 .262.21.475.47.475s.47-.213.47-.475a.473.473 0 0 0-.47-.474M.47 12.365c-.259 0-.47.213-.47.474 0 .262.211.475.47.475.26 0 .471-.213.471-.475a.473.473 0 0 0-.47-.474"/><path d="M1.413 11.418c-.26 0-.47.213-.47.474 0 .262.21.474.47.474s.47-.212.47-.474a.473.473 0 0 0-.47-.474M.47 11.418c-.259 0-.47.213-.47.474 0 .262.211.474.47.474.26 0 .471-.212.471-.474a.473.473 0 0 0-.47-.474M1.413 10.467c-.26 0-.47.213-.47.474 0 .262.21.474.47.474s.47-.212.47-.474a.473.473 0 0 0-.47-.474M.47 10.467c-.259 0-.47.213-.47.474 0 .262.211.474.47.474.26 0 .471-.212.471-.474a.473.473 0 0 0-.47-.474"/><path d="M1.413 9.52c-.26 0-.47.212-.47.474 0 .261.21.474.47.474s.47-.213.47-.474a.473.473 0 0 0-.47-.474M.47 9.52c-.259 0-.47.212-.47.474 0 .261.211.474.47.474.26 0 .471-.213.471-.474a.473.473 0 0 0-.47-.474M1.413 8.57c-.26 0-.47.213-.47.475 0 .261.21.474.47.474s.47-.213.47-.474a.473.473 0 0 0-.47-.475M.47 8.57c-.259 0-.47.213-.47.475 0 .261.211.474.47.474.26 0 .471-.213.471-.474a.473.473 0 0 0-.47-.475M1.413 7.621c-.26 0-.47.213-.47.474 0 .262.21.475.47.475s.47-.213.47-.475a.473.473 0 0 0-.47-.474M.47 7.621c-.259 0-.47.213-.47.474 0 .262.211.475.47.475.26 0 .471-.213.471-.475a.473.473 0 0 0-.47-.474M1.413 6.672c-.26 0-.47.213-.47.474 0 .262.21.474.47.474s.47-.212.47-.474a.473.473 0 0 0-.47-.474"/></g></svg>