<svg xmlns="http://www.w3.org/2000/svg" width="150" height="90" fill="none"><mask id="a" width="84" height="18" x="33" y="36" maskUnits="userSpaceOnUse" style="mask-type:luminance"><path fill="#fff" d="M33.02 36h83.96v18H33.02"></path></mask><g mask="url(#a)"><path fill="#FEFEFE" fill-rule="evenodd" d="M34.5 54a1.476 1.476 0 0 1-1.438-1.822l3.564-14.78a1.48 1.48 0 0 1 1.438-1.132h4.039c.685 0 1.277.467 1.437 1.131l3.227 13.376H49.1v-13.03a1.48 1.48 0 0 1 1.482-1.477h7.401c.818 0 1.484.661 1.484 1.476v6.742l3.433 6.289h1.41v-13.03c0-.816.662-1.477 1.48-1.477h7.401c.817 0 1.48.661 1.48 1.476v6.742l3.437 6.289h10.157v-8.598a1.48 1.48 0 0 1 2.959 0v10.074a1.48 1.48 0 0 1-1.48 1.48H77.227c-.541 0-1.039-.297-1.3-.772l-4.037-7.389a1.45 1.45 0 0 1-.18-.706v-5.64h-4.44v13.027c0 .815-.663 1.48-1.483 1.48H62.02c-.54 0-1.04-.297-1.301-.772l-4.035-7.389a1.478 1.478 0 0 1-.18-.706v-5.64h-4.441v13.027a1.48 1.48 0 0 1-1.481 1.48H45.6a1.48 1.48 0 0 1-1.44-1.136l-3.224-13.372H39.23L35.94 52.87a1.483 1.483 0 0 1-1.441 1.13Z" clip-rule="evenodd"></path></g><mask id="b" width="84" height="18" x="33" y="36" maskUnits="userSpaceOnUse" style="mask-type:luminance"><path fill="#fff" d="M33.02 36h83.96v18H33.02"></path></mask><g mask="url(#b)"><path fill="#FEFEFE" fill-rule="evenodd" d="M112.623 53.728h-3.231a1.478 1.478 0 0 1-1.451-1.196l-2.595-13.31h-.385l-2.595 13.31a1.48 1.48 0 0 1-1.453 1.196h-3.23a1.477 1.477 0 0 1-1.452-1.196l-2.593-13.31H82.207v8.597c0 .816-.662 1.476-1.482 1.476-.816 0-1.48-.66-1.48-1.476V37.743c0-.816.664-1.477 1.48-1.477h14.133c.709 0 1.318.5 1.452 1.196l2.595 13.31h.79l2.591-13.31a1.48 1.48 0 0 1 1.453-1.196h2.827c.707 0 1.316.5 1.453 1.196l2.592 13.31h.791l2.645-13.578a1.481 1.481 0 0 1 2.905.566l-2.878 14.772a1.475 1.475 0 0 1-1.451 1.196Z" clip-rule="evenodd"></path></g></svg>