<svg width="100" height="42" viewBox="0 0 100 42" fill="none" xmlns="http://www.w3.org/2000/svg">
<path fill-rule="evenodd" clip-rule="evenodd" d="M44.0157 10.8925H47.2135L47.7772 12.7697H49.4466L46.2921 3.39453H44.9371L41.7827 12.7697H43.4521L44.0157 10.8925ZM45.5984 5.55386L46.7474 9.38422H44.4602L45.5984 5.55386Z" fill="black"/>
<path fill-rule="evenodd" clip-rule="evenodd" d="M52.4751 12.9333C53.3748 12.9333 54.0252 12.5752 54.4046 11.9024V12.7705H55.8571V6.53125H54.4046V10.0469C54.4046 10.9476 54.0035 11.6854 52.8978 11.6854C51.9547 11.6854 51.6296 11.0886 51.6296 10.1012V6.54209H50.177V10.4701C50.177 12.152 51.1309 12.9441 52.4859 12.9441" fill="black"/>
<path fill-rule="evenodd" clip-rule="evenodd" d="M59.7536 12.932C61.2603 12.932 62.2143 12.2049 62.2143 10.9897C62.2143 10.0999 61.6506 9.45969 60.7725 9.19926L59.5259 8.84118C58.9514 8.67842 58.7455 8.45055 58.7455 8.11418C58.7455 7.7344 59.1249 7.47397 59.6452 7.47397C60.3281 7.47397 60.7292 7.7778 60.7292 8.30949H62.1601C62.1601 7.10505 61.2278 6.36719 59.6994 6.36719C58.3119 6.36719 57.3038 7.14844 57.3038 8.20098C57.3038 9.0799 57.8024 9.70925 58.6696 9.95882L59.9162 10.2952C60.5883 10.4688 60.7292 10.6858 60.7292 11.0331C60.7292 11.4779 60.3823 11.7709 59.8295 11.7709C59.0815 11.7709 58.5612 11.3911 58.5612 10.8594H57.1086C57.1086 12.0639 58.2468 12.9428 59.7536 12.9428" fill="black"/>
<path fill-rule="evenodd" clip-rule="evenodd" d="M63.8767 10.6676C63.8767 12.7618 65.1883 12.8487 65.8929 12.8487C66.2506 12.8487 66.6192 12.827 66.9769 12.7727V11.4923C66.7384 11.5249 66.4891 11.5465 66.2398 11.5465C65.6653 11.5465 65.3292 11.4163 65.3292 10.3313V7.7596H66.7601V6.5443H65.3292V4.65625H63.8767V6.5443H62.8252V7.7596H63.8767V10.6785V10.6676Z" fill="black"/>
<path fill-rule="evenodd" clip-rule="evenodd" d="M69.5453 10.0161C69.5453 8.6055 70.174 7.83509 71.2038 7.83509C71.399 7.83509 71.5832 7.83508 71.7784 7.85679V6.51128C71.5941 6.46788 71.399 6.45703 71.2038 6.45703C70.8244 6.45703 70.4559 6.57639 70.1524 6.80426C69.8488 7.03213 69.6429 7.3685 69.5453 7.73743V6.53299H68.0928V12.7722H69.5453V10.0161Z" fill="black"/>
<path fill-rule="evenodd" clip-rule="evenodd" d="M75.2171 12.9329C75.9759 12.9329 76.8323 12.5531 77.2225 11.9237V12.7701H78.6642V6.53086H77.2225V7.37722C77.0057 7.0517 76.713 6.79127 76.3662 6.61766C76.0193 6.44405 75.6399 6.35724 75.2496 6.36809C73.3093 6.36809 72.1494 7.81126 72.1494 9.64505C72.1494 11.4788 73.2117 12.922 75.2063 12.922M75.4339 7.65934C76.6805 7.65934 77.2767 8.57082 77.2767 9.64505C77.2767 10.7193 76.6805 11.6308 75.4339 11.6308C74.2957 11.6308 73.6128 10.7844 73.6128 9.64505C73.6128 8.50571 74.2957 7.65934 75.4339 7.65934Z" fill="black"/>
<path d="M81.7192 3.39453H80.2666V12.7588H81.7192V3.39453Z" fill="black"/>
<path d="M84.8663 6.53125H83.4246V12.7596H84.8663V6.53125Z" fill="black"/>
<path fill-rule="evenodd" clip-rule="evenodd" d="M84.1531 5.63111C84.4458 5.63111 84.7168 5.51175 84.9227 5.31643C85.1287 5.12112 85.2371 4.839 85.2371 4.54602C85.2371 4.25305 85.1178 3.98178 84.9227 3.77561C84.7276 3.56945 84.4458 3.46094 84.1531 3.46094C83.8604 3.46094 83.5894 3.5803 83.3835 3.77561C83.1775 3.98178 83.0691 4.25305 83.0691 4.54602C83.0691 4.839 83.1883 5.11027 83.3835 5.31643C83.5894 5.5226 83.8604 5.63111 84.1531 5.63111Z" fill="black"/>
<path fill-rule="evenodd" clip-rule="evenodd" d="M89.1806 12.9329C89.9394 12.9329 90.7958 12.5531 91.186 11.9237V12.7701H92.6278V6.53086H91.1969V7.37722C90.9801 7.0517 90.6874 6.79127 90.3405 6.61766C89.9936 6.44405 89.6142 6.35724 89.224 6.36809C87.2837 6.36809 86.1238 7.81126 86.1238 9.64505C86.1238 11.4788 87.1861 12.922 89.1806 12.922M89.3975 7.65934C90.644 7.65934 91.2402 8.57082 91.2402 9.64505C91.2402 10.7193 90.644 11.6308 89.3975 11.6308C88.2593 11.6308 87.5763 10.7844 87.5763 9.64505C87.5763 8.50571 88.2593 7.65934 89.3975 7.65934Z" fill="black"/>
<path fill-rule="evenodd" clip-rule="evenodd" d="M97.583 6.36719C96.6616 6.36719 95.9353 6.72526 95.5451 7.39802V6.52995H94.0925V12.7692H95.5451V9.34032C95.5451 8.24439 96.0762 7.61504 97.0302 7.61504C98.0491 7.61504 98.396 8.19013 98.396 9.51394V12.7692H99.8486V8.85204C99.8486 7.21356 99.0681 6.37803 97.5722 6.37803" fill="black"/>
<path fill-rule="evenodd" clip-rule="evenodd" d="M45.2407 16.1777H41.7827V25.542H43.322V22.7317H45.2298C47.1051 22.7317 48.4385 21.3644 48.4385 19.4547C48.4385 17.5449 47.1051 16.1777 45.2298 16.1777M45.1431 21.3536H43.322V17.5558H45.1431C46.1621 17.5558 46.91 18.3588 46.91 19.4547C46.91 20.5506 46.1621 21.3536 45.1431 21.3536Z" fill="black"/>
<path fill-rule="evenodd" clip-rule="evenodd" d="M54.0177 24.6972V25.5435H55.4594V19.3043H54.0177V20.1507C53.8009 19.8251 53.5082 19.5756 53.1613 19.3911C52.8144 19.2175 52.435 19.1307 52.0448 19.1415C50.1044 19.1415 48.9446 20.5847 48.9446 22.4185C48.9446 24.2523 50.0069 25.6955 52.0014 25.6955C52.7602 25.6955 53.6166 25.3265 54.0068 24.708M52.2291 24.4042C51.0909 24.4042 50.408 23.5578 50.408 22.4185C50.408 21.2792 51.0909 20.4328 52.2291 20.4328C53.4757 20.4328 54.0719 21.3443 54.0719 22.4185C54.0719 23.4927 53.4648 24.4042 52.2291 24.4042Z" fill="black"/>
<path fill-rule="evenodd" clip-rule="evenodd" d="M59.8361 27.3115C58.893 27.3115 58.5678 26.9318 58.5028 26.259H57.0286C57.0286 26.5628 57.0828 26.8667 57.202 27.1488C57.3212 27.4309 57.5055 27.6805 57.7223 27.8866C58.221 28.299 58.9364 28.5268 59.8578 28.5268C60.7792 28.5268 61.4621 28.2773 61.9716 27.7998C62.4919 27.2898 62.7846 26.552 62.7846 25.5754V19.3145H61.332V22.5372C61.332 23.6114 60.8767 24.4252 59.8361 24.4252C58.7955 24.4252 58.492 23.7308 58.492 22.8084V19.3145H57.0394V23.1123C57.0394 24.6097 57.7982 25.7056 59.3375 25.7056C60.2589 25.7056 60.9526 25.3475 61.3429 24.6748V25.4669C61.3429 26.7907 60.7141 27.3115 59.847 27.3115" fill="black"/>
<path fill-rule="evenodd" clip-rule="evenodd" d="M71.4085 19.1406C71.0182 19.1406 70.6388 19.2274 70.292 19.4227C69.9559 19.6181 69.6849 19.9002 69.5006 20.2474C69.2296 19.6289 68.6768 19.1406 67.5386 19.1406C67.1809 19.1406 66.8232 19.2274 66.5196 19.401C66.2161 19.5747 65.9668 19.8459 65.7934 20.1715V19.3034H64.3408V25.5426H65.7934V22.2331C65.7934 20.7466 66.3679 20.3885 67.1267 20.3885C67.8855 20.3885 68.2649 20.8334 68.2649 21.8642V25.5426H69.7174V22.2331C69.7174 20.7466 70.292 20.3885 71.0291 20.3885C71.7662 20.3885 72.1889 20.8442 72.1889 21.875V25.5426H73.6415V21.5929C73.6415 20.4319 73.2621 19.1406 71.3976 19.1406" fill="black"/>
<path fill-rule="evenodd" clip-rule="evenodd" d="M77.8879 19.1515C75.9909 19.1515 74.7551 20.4102 74.7551 22.4284C74.7551 24.4467 75.9584 25.7054 77.9312 25.7054C79.4271 25.7054 80.6087 24.8807 80.793 23.7197H79.3187C79.0803 24.1971 78.6575 24.4359 77.9312 24.4359C76.8689 24.4359 76.2294 23.9042 76.1968 22.9059H80.8255C80.858 22.5586 80.8689 22.3633 80.8689 22.1029C80.8689 20.3451 79.6765 19.1406 77.8987 19.1406M76.1968 21.7882C76.2077 20.9093 76.8581 20.2908 77.8554 20.2908C78.8526 20.2908 79.4163 20.8225 79.4271 21.7882H76.1968Z" fill="black"/>
<path fill-rule="evenodd" clip-rule="evenodd" d="M85.4309 19.1406C84.5095 19.1406 83.7941 19.4987 83.393 20.1715V19.3034H81.9404V25.5426H83.393V22.1138C83.393 21.0178 83.9241 20.3885 84.8781 20.3885C85.897 20.3885 86.2439 20.9636 86.2439 22.2874V25.5426H87.6964V21.6255C87.6964 19.987 86.916 19.1515 85.4201 19.1515" fill="black"/>
<path fill-rule="evenodd" clip-rule="evenodd" d="M91.1317 23.1019V20.5194H92.5626V19.3041H91.1317V17.416H89.6792V19.3041H88.6277V20.5194H89.6792V23.4274C89.6792 25.5325 90.9908 25.6193 91.6954 25.6193C92.0531 25.6193 92.4217 25.5976 92.7794 25.5433V24.2738C92.5409 24.3063 92.2916 24.328 92.0423 24.328C91.4678 24.328 91.1317 24.1978 91.1317 23.1127" fill="black"/>
<path fill-rule="evenodd" clip-rule="evenodd" d="M97.1516 21.9933L95.905 21.6352C95.3305 21.4725 95.1354 21.2446 95.1354 20.9082C95.1354 20.5285 95.5039 20.268 96.0351 20.268C96.718 20.268 97.1191 20.5719 97.1191 21.0927H98.55C98.55 19.8883 97.6177 19.1504 96.0893 19.1504C94.7018 19.1504 93.6937 19.9317 93.6937 20.9842C93.6937 21.8631 94.1923 22.4925 95.0595 22.742L96.3061 23.0676C96.9782 23.2412 97.1191 23.4582 97.1191 23.8054C97.1191 24.2503 96.7722 24.5433 96.2194 24.5433C95.4714 24.5433 94.9511 24.1635 94.9511 23.6318H93.4985C93.4985 24.8362 94.6367 25.726 96.1435 25.726C97.6502 25.726 98.6042 24.999 98.6042 23.7837C98.6042 22.8939 98.0405 22.2537 97.1624 21.9933" fill="black"/>
<path fill-rule="evenodd" clip-rule="evenodd" d="M45.1439 28.8633H41.6968V38.2276H43.2469V35.4172H45.1547C47.03 35.4172 48.3633 34.05 48.3633 32.1402C48.3633 30.2305 47.03 28.8633 45.1547 28.8633M45.0572 34.0392H43.2361V30.2413H45.0463C46.0653 30.2413 46.8132 31.0443 46.8132 32.1402C46.8132 33.2362 46.0653 34.0392 45.0463 34.0392" fill="black"/>
<path d="M51.0456 28.8633H49.593V38.2276H51.0456V28.8633Z" fill="black"/>
<path fill-rule="evenodd" clip-rule="evenodd" d="M56.6936 35.5048C56.6936 36.4055 56.2926 37.1433 55.1869 37.1433C54.2438 37.1433 53.9186 36.5465 53.9186 35.5591V32H52.4661V35.928C52.4661 37.5991 53.42 38.402 54.775 38.402C55.6747 38.402 56.3251 38.0439 56.7045 37.3712V38.2392H58.157V32H56.7045V35.5157L56.6936 35.5048Z" fill="black"/>
<path fill-rule="evenodd" clip-rule="evenodd" d="M62.9681 34.668L61.7215 34.3099C61.147 34.1472 60.941 33.9193 60.941 33.5829C60.941 33.2031 61.3204 32.9427 61.8407 32.9427C62.5237 32.9427 62.9247 33.2465 62.9247 33.7782H64.3556C64.3556 32.5738 63.4234 31.8359 61.8949 31.8359C60.5074 31.8359 59.4993 32.6172 59.4993 33.6697C59.4993 34.5486 59.998 35.178 60.8652 35.4276L62.1117 35.7639C62.7838 35.9376 62.9247 36.1546 62.9247 36.5018C62.9247 36.9467 62.5779 37.2397 62.025 37.2397C61.2771 37.2397 60.7567 36.8599 60.7567 36.3282H59.3042C59.3042 37.5218 60.4424 38.4116 61.9492 38.4116C63.4559 38.4116 64.4098 37.6846 64.4098 36.4693C64.4098 35.5795 63.8461 34.9393 62.9681 34.6789" fill="black"/>
<path fill-rule="evenodd" clip-rule="evenodd" d="M26.1026 13.0536H21.0295V7.94284C21.0512 6.90115 20.8561 5.87032 20.4658 4.91544C20.0756 3.96057 19.5119 3.0708 18.7856 2.33294C18.0594 1.59508 17.1922 1.00913 16.2383 0.607646C15.2843 0.206164 14.2545 0 13.2139 0C12.1733 0 11.1543 0.206164 10.1896 0.607646C9.23564 1.00913 8.36845 1.59508 7.64217 2.33294C6.91589 3.0708 6.34138 3.94971 5.95114 4.91544C5.5609 5.88117 5.37662 6.912 5.38746 7.94284V13.0536H0V16.6235H5.40914V25.1632H0V28.7331H5.40914V33.8547C5.44166 35.9055 6.27634 37.8695 7.73973 39.3018C9.20312 40.745 11.176 41.548 13.2247 41.548C15.2735 41.548 17.2464 40.745 18.7098 39.3018C20.1732 37.8587 21.0078 35.9055 21.0404 33.8547V28.7331H17.474V25.1632H8.98633V16.6235H17.474V25.1632H21.0404V28.7331H26.1026C28.1839 28.7331 30.1676 27.9084 31.6418 26.4327C33.1052 24.9678 33.9399 22.9713 33.9399 20.8879C33.9399 18.8046 33.1161 16.808 31.6418 15.3431C30.1784 13.8783 28.1839 13.0427 26.1026 13.0427M17.4849 28.7331V33.8547C17.4632 34.9615 17.0079 36.0249 16.2057 36.8061C15.4144 37.5874 14.3413 38.0214 13.2356 38.0214C12.1299 38.0214 11.0568 37.5874 10.2654 36.8061C9.47412 36.0249 9.01885 34.9724 8.98633 33.8547V28.7331H17.474H17.4849ZM8.97549 7.93198C8.96465 7.36774 9.06221 6.8035 9.26816 6.28265C9.47412 5.76181 9.78848 5.27352 10.1787 4.87204C10.569 4.47056 11.0459 4.14503 11.5662 3.92802C12.0866 3.711 12.6502 3.59163 13.2139 3.59163C13.7776 3.59163 14.3413 3.70015 14.8616 3.92802C15.3819 4.14503 15.8589 4.47056 16.2491 4.87204C16.6393 5.27352 16.9537 5.75096 17.1597 6.28265C17.3656 6.81435 17.4632 7.36774 17.4523 7.93198V13.0427H8.96465V7.93198H8.97549ZM29.127 23.9153C28.3248 24.7183 27.2408 25.1632 26.1135 25.1632H21.0512V16.6235H26.1135C27.2408 16.6235 28.3248 17.0684 29.127 17.8714C29.9291 18.6743 30.3736 19.7594 30.3736 20.8879C30.3736 22.0164 29.9291 23.1015 29.127 23.9045" fill="black"/>
</svg>
