<svg xmlns="http://www.w3.org/2000/svg" width="150" height="90" fill="none"><path fill="#fff" d="M44.57 30.03c3.212-.283 4.464 1.492 5.908 3.941 3.626 6.15 7.03 12.44 10.57 18.638 1.148 2.395.032 5.358-2.346 6.48-1.222.575-2.408.619-3.73.669-6.363.245-12.836-.1-19.215.043-.99-.068-1.917-.014-2.89-.263-3.05-.78-4.743-3.971-3.442-6.901 3.077-5.615 6.162-11.236 9.336-16.8 1.376-2.409 2.647-5.53 5.809-5.808Zm-4.143 19.317 7.021-12.375c2.152-3.462-2.688-6.545-4.822-3.077L33.83 49.533c-.009.068-.005.07.06.061.272-.033.582-.16.88-.2.335-.046.665-.05 1-.056l8.454-14.884c.932-1.088 2.575-.062 2.034 1.244l-7.739 13.647h1.91l-.002.002Zm7.056-7.592-.898 1.659 7.187 12.521c1.835 3.063 6.34.818 5.046-2.472l-9.16-16.107c-.108-.126-.11.206-.12.251-.15.597-.381 1.144-.627 1.702l8.303 14.512c.851 1.33-.87 2.726-1.906 1.45L47.6 41.82l-.117-.068v.002Zm-.166 7.633-2.137-3.61-2.013 3.61h4.15Zm2.198 3.982-.894-1.574-.125-.083c-4.852.028-9.712-.06-14.56.045-3.576.586-3.384 5.43.366 5.639l17.908-.023c-.564-.418-.948-1.012-1.316-1.598l-16.635.003c-1.06.038-1.714-1.299-.934-2.056.116-.113.624-.351.77-.351h15.417l.003-.002ZM90.495 52.913 93.38 57.6v-4.687h1.826v6.844h-2.387l-2.883-4.688v4.688h-1.827v-6.844h2.387ZM116.368 52.913c0 .05.023.095.049.136.844 1.37 1.648 2.771 2.508 4.133.088.14.18.323.308.418v-4.687h1.785v6.844h-2.385l-2.884-4.729v4.729h-1.826v-6.844h2.447-.002ZM82.298 52.913c0 .05.023.095.049.137.858 1.392 1.76 3.151 2.698 4.438.031.042.063.1.118.11v-4.687h1.785v6.845h-2.385l-2.884-4.73v4.73h-1.826V52.91H82.3l-.002.002ZM106.134 53.592c1.349-1.35 4.493-1.356 5.898-.097 1.513 1.36 1.455 4.457-.166 5.722-1.353 1.055-4.184 1.048-5.518-.042-1.534-1.256-1.598-4.201-.214-5.583Zm2.963.577c-1.377.014-2.169.924-2.066 2.29.187 2.445 3.98 2.415 4.19.083.129-1.444-.651-2.388-2.126-2.373h.002ZM64.828 59.757v-6.844h4.71c.265 0 .927.268 1.17.408 1.975 1.148 1.997 4.92.013 6.043-.275.156-.92.393-1.224.393h-4.669Zm1.868-1.536h2.097c1.745 0 2-2.9.63-3.573-.111-.054-.53-.201-.63-.201h-2.097v3.774ZM86.2 43.85l.144-.065c1.422.061 2.903-.074 4.318.002 1.112.06 1.985.362 2.125 1.609.14 1.247-.316 2.321-1.669 2.458-.06.007-.12-.037-.104.06l2.24 2.76H90.95l-2.592-3.817h1.971c.122 0 .448-.24.514-.358.187-.337.097-.984-.284-1.157a2.893 2.893 0 0 0-.352-.104h-2.055v5.433H86.2v-6.823.001ZM85.412 43.787v1.453h-4.274v1.243h3.942v1.369h-3.942v1.37h4.274v1.45h-6.143V43.85l.063-.062h6.08ZM79.02 52.913v1.41h-4.274v1.245h3.942v1.368h-3.942v1.368h4.275v1.453h-6.143v-6.844h6.142ZM64.58 50.673l2.883-6.844 2.368-.044 2.923 6.888H70.74l-.627-1.446-2.925.02-.535 1.426h-2.076.002Zm5.02-2.821-.871-2.448-.955 2.448h1.827Z"></path><path fill="#fff" d="M104.252 52.872v1.534l-1.969-.21c-.145.058-.309.023-.448.053-.453.097-.828.519-.333.854.494.336 1.56.52 2.158.829 1.661.858 1.346 3.011-.29 3.707-1.317.558-2.778.249-4.136.034v-1.659c.526.134 1.06.27 1.603.327.473.05 1.773.178 1.881-.474.086-.515-.343-.646-.736-.795-1.069-.407-2.618-.599-2.748-2.022-.25-2.725 3.228-2.541 5.021-2.178h-.003ZM73.252 43.787l1.91 4.77 1.826-4.77h2.074l-2.911 6.88-2.008.01-2.965-6.89h2.074ZM94.749 43.787l1.764 2.944 1.827-2.944h2.179c0 .099-.08.184-.131.261-.909 1.394-1.967 2.731-2.898 4.113v2.51h-1.95v-2.51l-2.988-4.376h2.2l-.003.002ZM98.317 52.913h-1.951v6.844h1.951v-6.844Z"></path></svg>