<svg xmlns="http://www.w3.org/2000/svg" width="201" height="90" fill="none"><g fill="#fff" clip-path="url(#a)"><path d="m37 31 7.645 4.393c0 2.964.053 5.928.053 8.892l-2.53-1.429v-5.928c-.053 0-5.114-2.911-5.114-2.911h-.106l-5.06 2.964v5.928l7.696 4.34v.106l-2.53 1.43-7.645-4.34c0-2.965-.105-5.929 0-8.893L36.95 31H37Z"></path><path d="m20.5 40.74 7.644-4.394v2.858l-5.06 2.964v5.981l5.166 2.911 5.06-2.964 2.531 1.377s-.21.158-.264.211c-2.372 1.482-4.902 2.806-7.275 4.288h-.158l-7.591-4.394v-5.716l-.053-.159v-3.017.053Zm158.155 7.092-2.531 4.393v2.435h-1.845v-2.382l-2.477-4.5h2.108l1.265 2.647 1.213-2.593h2.267Z"></path><path d="M44.592 45.662c.106 2.964.053 5.928 0 8.892L37.054 59l-7.645-4.287v-.106l2.478-1.43 5.167 2.912 5.06-2.964v-5.928c-.052 0-7.907-4.5-7.907-4.5l2.477-1.323h.211l7.697 4.34v-.052Zm75.177 2.117 2.003 5.24v-5.24h1.792v6.88h-3.216l-1.897-5.24v5.24h-1.74v-6.88h3.058Zm29.311 0c1.634.159 1.74 1.429 1.634 2.805-.053.9-.474 1.218-1.318 1.43.475.052.949.211 1.16.687 0 .053.105.318.105.37v1.589h-1.897v-1.323c0-.212-.422-.477-.58-.477h-1.476v1.853h-1.898v-6.881h4.27v-.053Zm-2.425 3.387h1.74s.263-.158.263-.211c.158-.265.158-1.059 0-1.323 0-.053-.263-.265-.316-.265h-1.74v1.8h.053ZM87.189 47.78c1.529.159 1.74 1.376 1.634 2.7-.053.9-.422 1.323-1.318 1.534.422.053.949.212 1.107.636 0 .052.106.423.106.423v1.535H86.82v-1.27c0-.053-.158-.318-.211-.37 0 0-.37-.16-.422-.16h-1.529v1.853h-1.845v-6.881H87.189Zm-.633 1.588c-.474-.106-1.318.053-1.792 0v1.8h1.792c.21 0 .316-.318.37-.477 0-.317.052-1.217-.37-1.27v-.053Zm78.129.53h-1.898c0-.477-.264-.636-.686-.689-.527-.053-1.528-.106-1.739.53-.106.37-.106 2.117-.053 2.54.105.9.949.953 1.687.847.738-.106.791-.477.791-1.165h-1.266v-1.27h3.164c-.053 1.64.421 3.546-1.687 3.864-1.16.159-3.585.265-4.271-.9-.474-.847-.527-4.076-.052-4.922.632-1.324 2.952-1.218 4.164-1.112 1.371.106 1.898.847 1.846 2.223v.053Zm-93.68-2.171c1.317-.106 3.373-.159 3.953 1.323.316.794.316 3.494 0 4.288-.527 1.429-2.372 1.429-3.638 1.376-.948-.053-1.95-.37-2.32-1.324-.316-.793-.316-3.652 0-4.393.317-.74 1.213-1.164 2.004-1.217v-.053Zm.843 1.588c-.633 0-1.107.106-1.16.847 0 .53-.053 1.694 0 2.223 0 .264.158.476.369.635.263.159 1.107.159 1.423.106.37 0 .633-.265.686-.635.052-.424.105-2.012 0-2.435 0-.159-.106-.423-.264-.53-.21-.158-.844-.211-1.107-.211h.053Zm36.639-1.535v1.535h-3.163v1.217h2.952v1.324h-2.952v1.323h3.216v1.535h-5.009v-6.881h4.956v-.053Zm28.151 0v1.535h-3.163v1.217h2.953v1.324h-2.953v1.323h3.216v1.535h-5.008v-6.881h4.955v-.053ZM61.146 35.552c1.054.106 1.423.847 1.423 1.8 0 .794-.158 1.535-1.001 1.8.369.158.738.264.949.582.421.635.316 2.223-.159 2.805-.21.264-.79.582-1.16.582h-5.06V35.5h4.955l.053.053Zm-3.954 3.335h3.269c.052 0 .527-.106.632-.16.527-.317.633-1.534.316-1.957-.105-.16-.474-.371-.685-.371h-3.532v2.54-.052Zm0 3.493h3.69c.053 0 .422-.106.527-.159.528-.317.528-1.746.159-2.223-.159-.159-.528-.37-.738-.37h-3.638v2.752Zm90.096.053v-6.88h1.001v7.621h-1.687c0-.053 0-.106-.053-.159-1.634-2.064-3.004-4.499-4.639-6.616 0 0 0-.106-.105-.053v6.828h-1.002v-7.622h1.634l4.64 6.722.158.159h.053Zm-86.09 5.346v1.535h-3.057v1.323h2.794v1.535h-2.794v2.54h-1.898v-6.88h4.903l.053-.053Zm15.658-12.227c.896-.106 2.847-.106 3.637.212.791.317 1.055.953 1.16 1.8.053.9.106 3.546-.105 4.287-.158.635-.633 1.111-1.318 1.27-.79.212-3.321.212-4.112 0-.633-.212-1.002-.635-1.16-1.27-.21-.9-.21-4.129 0-4.976.21-.846 1.054-1.217 1.845-1.27l.053-.053Zm-.633 6.563c.211.212.633.318.897.318.58.053 2.372.053 2.899-.159.316-.106.474-.423.58-.688.21-.635.158-3.07.105-3.864-.052-.847-.316-1.376-1.212-1.429-.58-.053-2.425-.053-2.952.159-.422.212-.58.582-.58 1.006-.053.688-.106 3.599.052 4.181 0 .159.159.37.264.476h-.053Zm39.803-6.563v3.388h4.955v-3.388h1.054v7.622h-1.054v-3.493h-4.955v3.493h-1.055v-7.622h1.055Zm9.067 7.622 3.11-7.516c0-.053.053-.053.106-.106.369-.053.896 0 1.265 0l3.269 7.622h-1.055l-.632-1.535-.158-.106h-4.112l-.739 1.641H125.093Zm5.746-2.329-1.897-4.446-1.846 4.446h3.743Zm-19.294-2.858h-1.002c0-.582 0-1.323-.58-1.588-.422-.159-1.951-.159-2.425-.106-.791.053-1.634.265-1.74 1.165-.105.846-.052 2.487 0 3.334 0 .53.158 1.165.686 1.43.527.264 2.266.211 2.899.158.422 0 .949-.106 1.16-.53 0 0 .105-.317.105-.37v-1.005h1.002v1.27c0 .37-.475.9-.791 1.111-.738.37-3.11.37-4.006.318-1.107-.106-2.004-.847-2.056-2.011-.053-.953-.106-2.859 0-3.811.158-1.377 1.265-1.8 2.477-1.853.844-.053 2.9-.106 3.532.318.369.212.739.847.739 1.27v.9Zm-19.928 0h-1.002c0-.635.053-1.323-.632-1.588-.475-.159-2.425-.106-2.953 0-.632.106-1.054.423-1.16 1.111-.105.847-.052 2.488 0 3.335.053.847.264 1.482 1.213 1.588.633.053 2.636.053 3.163-.159.211-.106.475-.423.475-.688V40.58h1.001v1.218c0 .53-.58 1.058-1.054 1.27-.79.265-2.847.265-3.743.212-1.107-.106-2.003-.847-2.056-2.011-.053-.953-.105-2.859 0-3.811.106-.953.685-1.483 1.582-1.747.896-.265 3.532-.318 4.323.106.421.212.843.847.843 1.323v.847Zm4.428-2.435v3.335h.791l3.532-3.335h1.265l-3.848 3.705 4.323 3.917h-1.318l-3.901-3.546h-.79v3.546h-1.003v-7.622h1.002-.053Zm-28.52 0v6.828H71.9v.794h-5.377v-7.622h1.002Zm68.481 0h1.001v7.622h-1.001v-7.622Z"></path></g><defs><clipPath id="a"><path fill="#fff" d="M20.5 31h160v28h-160z"></path></clipPath></defs></svg>