<?xml version="1.0" encoding="UTF-8"?>
<svg id="Layer_1" xmlns="http://www.w3.org/2000/svg" version="1.1" viewBox="0 0 172 40">
  <!-- Generator: Adobe Illustrator 30.1.0, SVG Export Plug-In . SVG Version: 2.1.1 Build 136)  -->
  <defs>
    <style>
      .st0 {
        fill: #fff;
      }
    </style>
  </defs>
  <path class="st0" d="M27,24.2c2.8-6.1.8-13.3-4.8-17,2.2-2.2,4.5-4.4,7-6.6-2.9,1.7-5.6,3.7-8.2,5.9-6.6-3.5-14.8-.9-18.3,5.7-2.6,4.9-1.9,10.9,1.7,15.1-2.6,5.6-3,10.1-.8,11.6,2.5,1.6,7.8-1.3,11-6.1,0,0-4.9,4.5-7.7,3.4-1.7-.6-1.7-3.2-.3-6.9,5.4,3.9,12.8,3.4,17.5-1.3l.5.9c5.9-.5,23.5-1,23.5-1,0-.8-11.7,0-21.3-3.9ZM2.8,18.5c0-6.6,5.3-11.9,11.9-11.9,1.7,0,3.4.4,4.9,1.1-5.8,5.1-10.7,11.2-14.4,18.1-1.6-2.1-2.4-4.6-2.4-7.2ZM14.7,30.4c-2.7,0-5.3-.9-7.4-2.5,2.4-5.3,7.2-12.5,13.7-19.4,5.1,3.2,7,9.7,4.4,15.1-2.1-.9-4-2.2-5.7-3.7l3.6,6.7c-2.2,2.4-5.4,3.8-8.7,3.8Z"/>
  <polygon class="st0" points="107.8 17.2 110 14.3 102.3 14.3 104.2 11.8 111.9 11.8 114.1 8.8 98.7 8.8 88.2 22.8 103.5 22.8 105.7 19.9 98 19.9 100.1 17.2 107.8 17.2 107.8 17.2"/>
  <polygon class="st0" points="118.4 8.8 107.9 22.8 115.5 22.8 126.1 8.8 118.4 8.8 118.4 8.8"/>
  <polygon class="st0" points="143.9 8.8 138.6 15.9 136.9 8.8 130.9 8.8 120.4 22.8 125.4 22.8 130.8 15.8 132.4 22.8 138.4 22.8 149 8.8 143.9 8.8 143.9 8.8"/>
  <path class="st0" d="M168.9,8.8h-12.3c-2,0-3.9.9-5.1,2.6l-6.4,8.4c-.2.3-.4.7-.4,1.1,0,1,.8,1.9,1.9,1.9h12.3c2,0,3.9-.9,5.2-2.6l1.5-2h1.8l2.2-3h-9.4l-3,4c-.3.4-.8.7-1.3.7h-2.2c-.3,0-.5-.2-.5-.5h0c0-.1,0-.2.1-.3l5-6.7c.3-.4.8-.7,1.3-.7h2.2c.3,0,.5.2.5.5h0c0,.1,0,.2-.1.3l-.8,1.1h7.6l1.4-1.8c.6-.8.5-2-.4-2.6-.3-.2-.7-.4-1.1-.4h0Z"/>
  <path class="st0" d="M92.4,10.7c0-1-.8-1.9-1.9-1.9h-12.3c-2,0-3.9.9-5.2,2.6l-6.3,8.4c-.6.8-.4,2,.4,2.6.3.2.7.4,1.1.4h12.3c2,0,3.9-.9,5.2-2.6l6.3-8.4c.2-.3.4-.7.4-1.1ZM83.9,12.6l-5,6.7c-.3.4-.8.7-1.3.7h-2.2c-.3,0-.5-.2-.5-.5,0-.1,0-.2,0-.3l5-6.7c.3-.4.8-.7,1.3-.7h2.2c.3,0,.5.2.5.5,0,.1,0,.2,0,.3h0Z"/>
  <path class="st0" d="M63.5,16.2c1.5-.3,2.8-1.2,3.7-2.4l1.5-1.9c.6-.8.5-2-.4-2.6-.3-.2-.7-.4-1.1-.4h-15.5l-10.5,14h16.1c2,0,3.9-.9,5.2-2.6l1.5-2c.2-.3.3-.6.3-.9,0-.5-.2-.9-.6-1.2h0ZM56.4,18l-1,1.3c-.3.4-.8.7-1.3.7h-3.1l2-2.7h3c.3,0,.5.2.5.5h0c0,.1,0,.2,0,.3h0ZM60.5,12.6l-.8,1.1c-.3.4-.8.7-1.3.7h-3.1l1.9-2.5h3c.3,0,.5.2.5.5h0c0,.1,0,.2-.1.3Z"/>
</svg>