<svg width="147" height="33" viewBox="0 0 147 33" fill="none" xmlns="http://www.w3.org/2000/svg">
<path d="M36.9199 16.182C36.9199 12.3449 39.7889 10.0449 42.8364 10.0449C45.8839 10.0449 47.5981 11.7967 48.1219 13.8582L46.2529 14.4898C45.9077 13.0598 44.8125 11.9158 42.8364 11.9158C40.8603 11.9158 38.9556 13.322 38.9556 16.182C38.9556 19.042 40.8484 20.4005 42.8483 20.4005C44.8482 20.4005 45.9434 19.1373 46.3482 17.8146L48.1695 18.4104C47.6338 20.4005 45.8482 22.3071 42.8483 22.3071C39.6817 22.3071 36.9199 20.0191 36.9199 16.182Z" fill="black"/>
<path d="M51.6744 22.0569H49.7578V10.0449H51.6744V14.752C52.222 14.037 53.1267 13.7391 53.9839 13.7391C55.9719 13.7391 56.9361 15.1691 56.9361 16.9446V22.0569H55.0195V17.2783C55.0195 16.2773 54.5672 15.4789 53.3648 15.4789C52.3053 15.4789 51.722 16.2773 51.6863 17.3022V22.0569H51.6744Z" fill="black"/>
<path d="M61.1244 17.4228L63.1958 17.113C63.66 17.0535 63.791 16.8151 63.791 16.5291C63.791 15.8499 63.3267 15.3017 62.2672 15.3017C61.2077 15.3017 60.6959 15.9452 60.6125 16.7555L58.8626 16.3504C59.0173 14.9561 60.2673 13.7168 62.2553 13.7168C64.7433 13.7168 65.6838 15.123 65.6838 16.7317V20.7476C65.6838 21.1766 65.7076 21.6175 65.779 22.0465H63.9815C63.9815 22.0465 63.8981 21.6652 63.8981 21.0217C63.5172 21.6413 62.7196 22.2967 61.4101 22.2967C59.7197 22.2967 58.6721 21.1408 58.6721 19.8538C58.6721 18.4119 59.7316 17.6135 61.1125 17.411M63.791 18.7099V18.3404L61.6839 18.6622C61.0887 18.7575 60.6006 19.0912 60.6006 19.7585C60.6006 20.3067 61.0173 20.8072 61.7792 20.8072C62.8505 20.8072 63.7791 20.2948 63.7791 18.7099" fill="black"/>
<path d="M68.8378 9.87695C69.5283 9.87695 70.0997 10.437 70.0997 11.1401C70.0997 11.8313 69.5283 12.3913 68.8378 12.3913C68.1474 12.3913 67.5879 11.8193 67.5998 11.1282C67.5998 10.437 68.1593 9.88888 68.8378 9.88888M67.8974 13.9643H69.8021V22.0438H67.8974V13.9643Z" fill="black"/>
<path d="M74.1041 22.0559H72.1875V13.9764H74.0565V15.0608C74.5922 14.1313 75.5564 13.75 76.4493 13.75C78.4254 13.75 79.3658 15.18 79.3658 16.9556V22.0678H77.4492V17.2892C77.4492 16.2882 76.9969 15.4898 75.7945 15.4898C74.6993 15.4898 74.116 16.3359 74.116 17.3965V22.0559H74.1041Z" fill="black"/>
<path d="M83.5104 10.0449H81.5938V22.0569H83.5104V10.0449Z" fill="black"/>
<path d="M86.8476 9.87695C87.5381 9.87695 88.1095 10.437 88.1095 11.1401C88.1095 11.8313 87.5381 12.3914 86.8476 12.3794C86.1572 12.3675 85.5977 11.8075 85.6096 11.1163C85.6096 10.4251 86.1691 9.87695 86.8476 9.87695ZM85.8953 13.9643H87.8V22.0438H85.8953V13.9643Z" fill="black"/>
<path d="M92.1139 22.0559H90.1973V13.9764H92.0782V15.0608C92.6139 14.1313 93.5781 13.75 94.459 13.75C96.4351 13.75 97.3756 15.18 97.3756 16.9556V22.0678H95.4471V17.2892C95.4471 16.2882 94.9947 15.4898 93.7924 15.4898C92.6972 15.4898 92.1139 16.3359 92.1139 17.3965V22.0559Z" fill="black"/>
<path d="M103.847 17.3975L107.228 22.0569H104.871L102.502 18.756L101.514 19.8046V22.0569H99.6094V10.0449H101.514V17.2426L104.609 13.9774H107.169L103.847 17.3975Z" fill="black"/>
<path d="M112.717 22.0546V10.293H114.705V20.1599H120.086V22.0546H112.717Z" fill="black"/>
<path d="M123.62 17.4228L125.692 17.113C126.156 17.0535 126.287 16.8151 126.287 16.5291C126.287 15.8499 125.823 15.3017 124.763 15.3017C123.704 15.3017 123.192 15.9452 123.109 16.7555L121.347 16.3504C121.501 14.9561 122.751 13.7168 124.739 13.7168C127.227 13.7168 128.168 15.123 128.168 16.7317V20.7476C128.168 21.1766 128.192 21.6175 128.263 22.0465H126.466C126.466 22.0465 126.382 21.6652 126.382 21.0217C126.001 21.6413 125.204 22.2967 123.894 22.2967C122.204 22.2967 121.156 21.1408 121.156 19.8538C121.156 18.4119 122.216 17.6135 123.597 17.411M126.287 18.7099V18.3404L124.18 18.6622C123.585 18.7575 123.097 19.0912 123.097 19.7585C123.097 20.3067 123.513 20.8072 124.275 20.8072C125.347 20.8072 126.275 20.2948 126.275 18.7099" fill="black"/>
<path d="M130.4 22.0569V10.0449H132.293V14.9665C132.662 14.3349 133.591 13.751 134.829 13.751C137.245 13.751 138.555 15.5981 138.555 17.9695C138.555 20.3409 137.114 22.2475 134.757 22.2475C133.615 22.2475 132.734 21.747 132.269 20.9725V22.0569H130.4ZM134.448 15.467C133.222 15.467 132.281 16.3846 132.281 17.9933C132.281 19.6021 133.222 20.5435 134.448 20.5435C135.674 20.5435 136.614 19.5782 136.614 17.9933C136.614 16.4084 135.722 15.467 134.448 15.467Z" fill="black"/>
<path d="M141.288 19.3988C141.359 20.1258 141.907 20.7812 142.93 20.7812C143.728 20.7812 144.145 20.3522 144.145 19.8517C144.145 19.4227 143.847 19.089 143.204 18.9579L142.014 18.6958C140.585 18.3859 139.847 17.4564 139.847 16.3363C139.847 14.9301 141.145 13.7266 142.811 13.7266C145.061 13.7266 145.799 15.1804 145.93 15.9788L144.311 16.4435C144.24 15.9788 143.895 15.228 142.811 15.228C142.133 15.228 141.657 15.657 141.657 16.1575C141.657 16.5865 141.966 16.9083 142.466 17.0036L143.692 17.2539C145.216 17.5875 146.014 18.517 146.014 19.7087C146.014 20.9003 145.014 22.2946 142.966 22.2946C140.633 22.2946 139.74 20.7693 139.633 19.8517L141.311 19.3869L141.288 19.3988Z" fill="black"/>
<path d="M28.499 8.17347L14.3447 0.0105925C14.3447 0.0105925 14.2852 -0.0132407 14.2495 0.0105925C14.2257 0.0105925 14.2019 0.0105794 14.19 0.0344126L14.1543 0.070161L0.0595214 8.20922C0.0595214 8.20922 0 8.2688 0 8.31646V24.666C0 24.666 -4.43472e-08 24.7495 0.0476173 24.7733L14.2019 32.9362C14.2019 32.9362 14.2852 32.96 14.3209 32.9362L28.4752 24.7495H28.4871L28.499 24.7256C28.5347 24.7018 28.5466 24.666 28.5466 24.6303V8.28072C28.5466 8.28072 28.5347 8.1973 28.499 8.17347ZM1.76184 25.4764L15.3209 31.7921C14.9757 32.0781 14.6066 32.3761 14.2257 32.6621L1.76184 25.4764ZM26.7848 7.4704L13.2257 1.15458C13.571 0.868578 13.94 0.570686 14.3209 0.284687L26.7848 7.4704ZM28.3085 22.8309L27.011 7.88745C27.4276 8.04236 27.8681 8.20921 28.3204 8.38796V22.8309H28.3085ZM6.15455 26.1556L2.51182 16.1218L7.20213 26.2152C6.90452 26.2152 6.59501 26.2033 6.27359 26.1794L6.14264 26.1556H6.15455ZM7.46403 26.2033L3.30941 17.2658L8.44018 26.1794C8.17829 26.2033 7.91639 26.2152 7.64259 26.2271H7.46403V26.2152V26.2033ZM9.27349 5.71865L19.0589 6.56472H8.83303C8.95207 6.29064 9.10683 6.01656 9.26158 5.74247L9.28539 5.71865H9.27349ZM21.0707 6.74346L25.2253 15.6809L20.0945 6.76728C20.3802 6.74345 20.6779 6.73154 20.9874 6.73154H21.0707V6.74346ZM8.70208 26.1437L4.16652 18.2668L9.5949 26.0364C9.34491 26.0841 9.09492 26.1199 8.82112 26.1556H8.70208V26.1437ZM19.8445 6.81496L24.3801 14.6919L18.9517 6.91031C19.1898 6.86265 19.4279 6.82687 19.6779 6.80303H19.8445V6.81496ZM19.8326 26.1199H10.7734L20.1779 25.2976C20.0826 25.5479 19.9755 25.81 19.8565 26.0722L19.8326 26.1199ZM18.6898 6.96988L23.4873 13.8457L17.8922 7.16055C18.1303 7.08905 18.3684 7.02948 18.6184 6.98181H18.6898V6.96988ZM20.9159 21.1506L16.3447 23.2837L20.9159 20.6502C20.9159 20.8051 20.9159 20.9719 20.9159 21.1506ZM20.904 19.804C20.904 19.947 20.904 20.1258 20.904 20.3522L14.809 23.8795C14.809 23.8795 14.7733 23.8796 14.7614 23.8915L14.4281 24.094L14.2852 24.1775L8.14257 20.6263C8.14257 20.6263 8.13067 20.6144 8.11877 20.6025C7.98782 20.5191 7.83306 20.4356 7.6783 20.3403H7.6664V13.2261C7.6664 13.2261 7.6664 13.1903 7.6664 13.1784V12.666L13.8448 9.09104C13.8448 9.09104 13.8805 9.09102 13.8924 9.07911C14.0233 9.00761 14.1543 8.92421 14.2971 8.8408L20.416 12.38C20.416 12.38 20.4398 12.4039 20.4517 12.4158C20.5945 12.4992 20.7493 12.5945 20.9159 12.6898V19.7564C20.9159 19.7564 20.9159 19.7802 20.904 19.7922V19.804ZM13.5471 24.5826L9.3092 21.6035L14.0114 24.3204C13.8686 24.4039 13.7138 24.4873 13.5471 24.5826ZM14.559 8.6978C14.7138 8.60247 14.8804 8.49522 15.059 8.39989L19.8207 11.7485L14.559 8.6978ZM7.6664 12.3681C7.6664 12.1655 7.6664 11.9629 7.6783 11.7723L12.94 9.30553L7.6545 12.3681H7.6664ZM7.3926 20.1973C7.23784 20.102 7.07118 20.0066 6.90452 19.9113L7.3926 14.3105V20.1973ZM21.6302 13.1069L21.1778 18.3383V12.8448C21.3207 12.9282 21.4754 13.0116 21.6302 13.1069ZM13.3091 24.7137C13.1305 24.8091 12.94 24.9044 12.7377 24.9997L7.80925 20.8527L13.3091 24.7137ZM15.2971 8.28072C15.4757 8.18538 15.6542 8.07813 15.8447 7.9828L20.7374 12.094L15.2971 8.28072ZM6.14264 19.4108L7.26165 13.0592L6.67834 19.7445C6.51168 19.6372 6.33311 19.5181 6.14264 19.3989V19.4108ZM20.9159 21.4247C20.9159 21.6273 20.904 21.8299 20.8802 22.0563L14.8447 24.2609L20.9159 21.4247ZM22.3921 13.5955L21.285 19.8755L21.8683 13.2618C22.0349 13.3691 22.2135 13.4764 22.3921 13.6074V13.5955ZM7.69021 11.4982C7.69021 11.2837 7.71402 11.0811 7.73783 10.8666L13.7019 8.68588L7.69021 11.4982ZM16.0828 7.86363C16.2851 7.76829 16.4875 7.67295 16.7018 7.58953L21.654 12.5588L16.0828 7.87556V7.86363ZM12.4877 25.1069C12.2853 25.2023 12.071 25.2857 11.8567 25.3691L6.89262 20.388L12.4996 25.1069H12.4877ZM20.8683 22.3185C20.8445 22.533 20.8207 22.7713 20.785 22.9977L13.9281 24.8448L20.8683 22.3185ZM23.154 14.1556L21.3445 20.9004L22.6064 13.7504C22.7849 13.8815 22.9635 14.0126 23.154 14.1556ZM7.76163 10.5925C7.78544 10.3661 7.80925 10.1397 7.84497 9.91328L14.559 8.10197L7.76163 10.5806V10.5925ZM5.91646 19.2559C5.7379 19.1248 5.55933 18.9818 5.36886 18.8388L7.19023 12.0464L5.91646 19.2559ZM11.6067 25.4644C11.3806 25.5478 11.1425 25.6313 10.8925 25.7028L5.96408 19.804L11.6067 25.4644ZM20.7255 23.2718C20.6779 23.5101 20.6302 23.7604 20.5707 24.0106L12.9757 25.3572L20.7374 23.2718H20.7255ZM23.9158 14.811L21.3088 21.9967L23.3682 14.3224C23.5587 14.4654 23.7373 14.6322 23.9277 14.811H23.9158ZM16.9399 7.48229C17.1661 7.39887 17.3923 7.31547 17.6422 7.23205L22.5706 13.1189L16.9399 7.4704V7.48229ZM7.89258 9.65112C7.9283 9.41279 7.97591 9.16255 8.03543 8.92422L15.5352 7.60146L7.90449 9.65112H7.89258ZM4.60698 18.1596L7.22594 10.95L5.15458 18.6601C4.97602 18.5051 4.78555 18.3383 4.60698 18.1596ZM24.6777 15.5737L21.154 23.1407L24.1182 14.9898C24.3087 15.1804 24.4872 15.3711 24.6777 15.5856V15.5737ZM8.09496 8.67395C8.16638 8.41178 8.23781 8.16154 8.32114 7.89938L16.6066 7.17248L8.09496 8.68588V8.67395ZM3.86891 17.385L7.3926 9.80604L4.41651 17.9808C4.22604 17.7901 4.04748 17.5995 3.85701 17.385M10.6425 25.7743C10.3925 25.8458 10.1306 25.9054 9.8449 25.9649L5.04744 19.101L10.6425 25.7743ZM20.2612 25.0474L11.9282 25.7862L20.5112 24.2609C20.4517 24.4992 20.3683 24.7495 20.285 24.9997L20.2612 25.0474ZM24.8444 15.7763C25.0348 15.9908 25.2134 16.2291 25.392 16.4793L20.8564 24.3443L24.8444 15.7882V15.7763ZM8.40447 7.63721C8.4997 7.36313 8.60684 7.08904 8.72589 6.81496H17.7851L8.40447 7.63721ZM3.69035 17.1824C3.51178 16.9679 3.32131 16.7296 3.14275 16.4793L7.6783 8.61438L3.69035 17.1824ZM19.7136 26.3701C19.5827 26.6561 19.4279 26.9421 19.2612 27.2281L9.47586 26.382H19.7136V26.3701ZM25.5467 16.6938C25.7253 16.9441 25.9039 17.2182 26.0705 17.5042L20.4279 25.5598L25.5467 16.6819V16.6938ZM2.98799 16.2529C2.80943 15.9908 2.64277 15.7286 2.4761 15.4307L8.10686 7.37504L2.98799 16.2529ZM19.1303 27.4545C18.9517 27.7405 18.7613 28.0384 18.5589 28.3363L8.10686 26.5012L19.1422 27.4545H19.1303ZM26.2015 17.7425C26.3681 18.0404 26.5229 18.3502 26.6776 18.672L19.8445 26.8229L26.2015 17.7425ZM21.3445 6.74346C21.6778 6.74346 22.0349 6.76729 22.404 6.81496L26.0348 16.8368L21.3445 6.75539V6.74346ZM9.40443 5.48031C9.583 5.18239 9.77347 4.89641 9.97584 4.59849L20.4398 6.43362L9.40443 5.48031ZM2.34516 15.2043C2.1785 14.9063 2.02374 14.5965 1.86898 14.2628L8.70208 6.12381L2.34516 15.2043ZM18.3922 28.5628C18.1779 28.8607 17.9399 29.1586 17.6899 29.4565L6.63072 26.5012L18.3922 28.5628ZM26.7967 18.9222C26.9395 19.2559 27.0824 19.6015 27.2133 19.9709L19.1065 28.0861L26.7967 18.9103V18.9222ZM22.6659 6.83882C23.023 6.88648 23.4039 6.93414 23.7968 7.01756L26.761 18.1119L22.6778 6.83882H22.6659ZM10.1306 4.38396C10.3449 4.08605 10.583 3.78813 10.833 3.49022L21.904 6.44555L10.1187 4.37207L10.1306 4.38396ZM1.74994 14.0245C1.60709 13.6909 1.46423 13.3453 1.33329 12.9759L9.44015 4.86066L1.76184 14.0245H1.74994ZM5.89265 26.1437C5.52362 26.1079 5.15458 26.0483 4.76174 25.9888L1.78565 14.8467L5.89265 26.1556V26.1437ZM17.5113 29.6472C17.2494 29.9451 16.9756 30.243 16.678 30.5409L5.07125 26.3224L17.5113 29.6472ZM27.3086 20.2211C27.4395 20.5906 27.5586 20.9838 27.6657 21.389L18.2017 29.3493L27.3205 20.2211H27.3086ZM24.0587 7.05331C24.4396 7.13672 24.8444 7.22013 25.2491 7.33929L27.38 19.53L24.0468 7.05331H24.0587ZM11.0115 3.28766C11.2734 2.98974 11.5472 2.69183 11.8567 2.39391L23.4635 6.6124L11.0234 3.28766H11.0115ZM1.23805 12.7137C1.1071 12.3443 0.988061 11.951 0.880921 11.5459L10.3449 3.5975L1.22615 12.7137H1.23805ZM4.49984 25.9411C4.107 25.8696 3.71416 25.7743 3.30941 25.6551L1.16663 13.4048L4.51175 25.9292L4.49984 25.9411ZM12.0472 2.21517C12.3448 1.91726 12.6662 1.63123 13.0115 1.33332L25.0825 6.95795L12.0472 2.21517ZM3.03561 25.5836C2.63086 25.4644 2.21421 25.3334 1.78565 25.1784L0.63093 11.8438L3.04751 25.5955L3.03561 25.5836ZM16.4875 30.7316C16.1899 31.0295 15.8685 31.3155 15.5233 31.6134L3.45226 25.9888L16.4875 30.7316ZM27.7252 21.6511C27.8205 22.0563 27.9276 22.4853 28.0109 22.9381L17.0946 30.6005L27.7371 21.663L27.7252 21.6511ZM25.511 7.42272C25.9158 7.54189 26.3324 7.67296 26.761 7.82788L27.9157 21.1268L25.511 7.42272ZM0.8214 11.2837C0.714261 10.8785 0.619026 10.4495 0.535695 9.99671L11.4639 2.34624L0.8214 11.2837ZM26.9753 7.58953C26.9753 7.58953 26.9753 7.58956 26.9753 7.57764L27.0229 7.60146H26.9753V7.58953ZM0.238087 10.1159L1.53566 25.0831C1.1071 24.9282 0.678548 24.7375 0.226183 24.5349V10.1159H0.238087ZM28.0585 23.2003C28.1419 23.6412 28.2014 24.106 28.2609 24.5945L15.7971 31.8041L28.0585 23.2122V23.2003ZM0.488078 9.74644C0.404748 9.30552 0.345226 8.84079 0.285704 8.35221L12.7496 1.14265L0.488078 9.73454V9.74644Z" fill="black"/>
</svg>
