<svg xmlns="http://www.w3.org/2000/svg" width="150" height="90" fill="none"><mask id="a" width="76" height="48" x="37" y="21" maskUnits="userSpaceOnUse" style="mask-type:luminance"><path fill="#fff" d="M112.333 21H37.667v48h74.666V21Z"></path></mask><g mask="url(#a)"><path fill="#fff" fill-rule="evenodd" d="m74.987 21-5.681 5.586h-.007l5.688 5.587 5.687-5.587L74.987 21Zm2.947 5.586-2.94 2.883-2.935-2.883 2.934-2.883 2.941 2.883ZM43.441 65.937v1.785c0 .672.394.952.936.952.588 0 .975-.293.975-.952v-1.785h.522v1.758c0 .926-.649 1.298-1.517 1.298-.822 0-1.444-.346-1.444-1.285v-1.77h.528Zm5.38 3.056v-3.05h.562l1.256 1.546c.287.36.521.679.702.992h.02c-.047-.413-.06-.786-.06-1.259v-1.285h.48v3.056h-.514l-1.25-1.551a8.296 8.296 0 0 1-.728-1.019h-.02c.027.386.033.76.033 1.265v1.305h-.48Zm5.908-3.056h.595v3.056h-.595v-3.056Zm4.752.34h-1.21v-.34h2.954v.34H60.01V69h-.528v-2.723Zm5.153 1.285h1.357v-.326h-1.357v-.966h1.437v-.333H64.18V69h1.971v-.333h-1.517v-1.105Zm4.465-1.558c.287-.034.621-.067.989-.067.668 0 1.143.127 1.45.373.327.246.508.6.508 1.085 0 .486-.187.893-.515 1.172-.34.28-.895.433-1.59.433-.335 0-.609-.007-.85-.033v-2.963h.008Zm.467 2.663c.114.02.288.02.468.02.99 0 1.53-.466 1.53-1.278 0-.72-.474-1.159-1.45-1.159-.24 0-.42.02-.54.04v2.377h-.008Zm8.883-.945v-1.785h-.528v1.771c0 .94.621 1.285 1.443 1.285.869 0 1.517-.372 1.517-1.298v-1.758h-.521v1.785c0 .659-.388.952-.976.952-.534 0-.935-.28-.935-.952Zm5.386 1.271v-3.05h.562l1.256 1.546c.288.36.521.679.702.992h.02c-.047-.413-.06-.786-.06-1.259v-1.285h.481v3.056h-.515l-1.25-1.551a9.093 9.093 0 0 1-.728-1.019h-.02c.027.386.034.76.034 1.265v1.305h-.482Zm5.908-3.056h.595v3.056h-.595v-3.056ZM96.12 69c-.434-.093-.855-.2-1.23-.306l-.033-.01c-.059-.016-.11-.03-.16-.03-.762-.027-1.41-.486-1.41-1.332 0-.846.621-1.385 1.49-1.385s1.444.553 1.444 1.332c0 .672-.381 1.105-.916 1.258v.014c.32.066.668.126.936.166l-.12.286V69Zm-1.37-.62c.655 0 1.03-.492 1.03-1.091 0-.526-.335-1.072-1.016-1.072-.682 0-1.043.532-1.043 1.098 0 .566.374 1.06 1.023 1.06l.006.006Zm4.96-.658v-1.785h-.522v1.771c0 .94.615 1.285 1.437 1.285.869 0 1.517-.372 1.517-1.298v-1.758h-.521v1.785c0 .659-.388.952-.976.952-.541 0-.936-.28-.936-.952Zm7.197-.16h-1.356v1.105h1.517V69h-1.972v-3.063h1.891v.333h-1.436v.966h1.356v.326Zm-44.37-34.337 5.687-5.587 5.68 5.587-5.68 5.586-5.688-5.586Zm5.687 2.883 2.934-2.883-2.934-2.883-2.94 2.883 2.94 2.883ZM75 34.297l-5.688 5.586L75 45.47l5.688-5.586L75 34.297Zm2.94 5.586L75 42.766l-2.94-2.883 2.94-2.89 2.94 2.89Zm6.316-5.673a2.649 2.649 0 0 1-2.432 1.585c-1.45 0-2.634-1.159-2.634-2.59 0-1.432 1.183-2.59 2.634-2.59a2.7 2.7 0 0 1 2.46 1.63H86.2a4.338 4.338 0 0 0-1.196-2.143c-1.744-1.711-4.571-1.711-6.31 0a4.334 4.334 0 0 0 0 6.206c1.745 1.71 4.572 1.71 6.31 0a4.32 4.32 0 0 0 1.19-2.098h-1.939Zm-34.81 27.112.057-.012v-.007l-.174-2.47c-.996.34-2.199.612-3.388.612-2.654 0-4.538-1.405-4.538-3.728 0-2.204 1.677-3.829 4.244-3.829 1.243 0 2.372.273 3.542.832l.294-2.563c-1.303-.333-2.647-.606-4.03-.606-4.478 0-7.786 2.044-7.786 6.166 0 4.474 4.183 6.065 7.806 6.065 1.817 0 2.958-.243 3.973-.46ZM59.575 49.55c4.457 0 6.79 2.317 6.79 6.119 0 3.802-2.366 6.119-6.79 6.119-4.425 0-6.79-2.357-6.79-6.119 0-3.762 2.332-6.119 6.79-6.119Zm0 9.894c2.192 0 3.06-1.83 3.06-3.782 0-2.05-.868-3.782-3.06-3.782-2.193 0-3.068 1.732-3.068 3.782 0 2.051.876 3.782 3.068 3.782Zm19.883-9.894H70.02v12.231h3.756v-4.927h5.433v-2.31h-5.433V51.86h5.68v-2.31Zm4.163 0h.007v12.231h3.73v-4.84h.781c1.384 0 1.865.526 2.627 2.63l.802 2.21h3.89l-1.364-3.329c-.154-.326-.278-.626-.39-.898-.4-.965-.656-1.58-1.595-1.798v-.034c1.805-.373 2.687-1.458 2.687-3.09 0-2.103-2.025-3.082-4.511-3.082h-6.657v-.007l-.007.007Zm3.73 5.08h.982c1.203 0 2.727-.033 2.727-1.418 0-1.139-1.303-1.352-2.727-1.352h-.982v2.77Zm19.789-5.08h-4.397l-5.12 12.238h3.65l1.062-2.61h5.059l1.003 2.61h3.936l-5.193-12.238Zm-2.232 2.523h.033l1.604 4.788h-3.374l1.737-4.788Z" clip-rule="evenodd"></path></g></svg>