<svg width="97" height="54" viewBox="0 0 97 54" fill="none" xmlns="http://www.w3.org/2000/svg">
<path d="M27.6516 53.4079C27.3637 53.3667 27.0757 53.3392 26.7878 53.298C25.7458 53.1608 24.7448 52.8863 23.8125 52.3922C22.1397 51.5137 21.0291 50.1411 20.4943 48.3293C19.891 46.2979 19.891 44.239 20.5355 42.2076C21.221 40.0389 22.6881 38.6115 24.8271 37.8703C26.0337 37.4448 27.2814 37.3075 28.5429 37.3212C29.6809 37.3212 30.8052 37.4585 31.8884 37.8016C34.3153 38.584 35.8784 40.2036 36.5228 42.6743C36.989 44.4861 36.989 46.3116 36.4954 48.1097C35.7961 50.6078 34.1645 52.2 31.7102 52.9412C31.0109 53.1608 30.2842 53.2843 29.5438 53.3393C29.4478 53.3393 29.3655 53.3667 29.2833 53.3941H27.6516V53.4079ZM32.2723 45.1861C32.2449 44.9253 32.2312 44.4861 32.1626 44.0606C32.0667 43.3331 31.8473 42.6469 31.4634 42.0155C30.9972 41.2468 30.3253 40.7389 29.4478 40.5193C28.8993 40.3821 28.3509 40.3684 27.8024 40.4507C26.8701 40.6017 26.1297 41.0547 25.5812 41.837C25.307 42.2351 25.115 42.6606 24.9779 43.1135C24.6626 44.1704 24.6077 45.241 24.7311 46.3254C24.8134 47.0665 25.0053 47.7803 25.3481 48.4528C26.4313 50.5666 28.7211 50.6215 30.0374 50.0039C30.9012 49.6058 31.4359 48.9058 31.7924 48.0411C32.1489 47.1764 32.2586 46.2705 32.286 45.1724" fill="black"/>
<path d="M96.5327 53.1335C96.423 53.1335 96.3133 53.1335 96.2036 53.1335C94.7913 53.1335 93.3928 53.1335 91.9805 53.1335H91.6652C91.2538 51.9394 90.8425 50.759 90.4174 49.5649H84.124C83.6852 50.7453 83.2464 51.9256 82.8077 53.1198H78.283C80.4082 47.7393 82.506 42.4 84.6313 37.0332H90.1021C90.1569 37.143 90.1981 37.2665 90.2529 37.3763C92.2959 42.4823 94.3389 47.5883 96.3818 52.6943C96.423 52.8041 96.4778 52.9276 96.5327 53.0374V53.1473V53.1335ZM85.166 46.6824H89.3617C89.1286 45.9001 88.9092 45.1451 88.7035 44.3902C88.4841 43.6216 88.2648 42.8529 88.0454 42.0843C87.826 41.3431 87.6203 40.5882 87.3598 39.847C86.6194 42.1117 85.8927 44.3902 85.1797 46.6824" fill="black"/>
<path d="M0 45.0207C0.0274226 44.856 0.0822672 44.6913 0.0959785 44.5129C0.356493 41.9461 1.60422 40.0245 3.85287 38.7618C4.94977 38.1441 6.14265 37.7735 7.39038 37.5539C8.59697 37.348 9.80356 37.2794 11.0239 37.348C12.2305 37.4166 13.4233 37.6225 14.5888 37.9108C14.863 37.9794 15.151 38.048 15.4663 38.1304C15.3566 39.2422 15.2195 40.3402 15.0961 41.4795C14.9727 41.4246 14.8767 41.3834 14.7808 41.3422C13.3822 40.7108 11.9151 40.3814 10.3794 40.3951C9.54305 40.3951 8.73408 40.5461 7.96625 40.8755C6.03296 41.6716 4.88122 43.456 4.94977 45.556C5.00462 47.5051 5.9644 48.8777 7.70574 49.7149C8.48728 50.0855 9.32367 50.264 10.1738 50.3189C11.8328 50.4287 13.4233 50.1405 14.9864 49.6463C15.0687 49.6189 15.151 49.5914 15.2744 49.564C15.3566 50.6483 15.4252 51.7189 15.5074 52.8032C15.0138 52.8993 14.534 53.0092 14.0541 53.0915C13.2314 53.2425 12.4087 53.3385 11.5723 53.3797C11.49 53.3797 11.4078 53.4072 11.3392 53.4209H9.37851C9.29625 53.4072 9.22769 53.3797 9.14542 53.366C8.54212 53.2836 7.93883 53.2425 7.33553 53.1327C5.9644 52.8856 4.64812 52.4326 3.46895 51.6777C1.49453 50.4287 0.356493 48.6581 0.123402 46.3247C0.10969 46.16 0.0548431 46.009 0.0274206 45.8443C0.0274206 45.5697 0.0274206 45.2952 0.0274206 45.0344" fill="black"/>
<path d="M59.8907 53.1049V37.3477C59.973 37.3477 60.0415 37.334 60.1101 37.334C62.7975 37.334 65.4849 37.334 68.1586 37.334C69.2418 37.334 70.3113 37.4987 71.3396 37.883C71.9978 38.1163 72.5873 38.4595 73.081 38.9674C73.6157 39.5164 73.9036 40.1752 73.9311 40.9438C73.9585 41.5615 73.931 42.1792 73.7665 42.7831C73.5471 43.6616 73.0261 44.2929 72.1897 44.6498C71.7921 44.8145 71.367 44.9381 70.9557 45.0753C70.8734 45.1028 70.7775 45.1302 70.6403 45.1577C70.75 45.1988 70.8049 45.24 70.8734 45.2538C71.4219 45.4322 71.8195 45.7753 72.08 46.2832C72.2171 46.544 72.3543 46.8185 72.4502 47.093C73.1084 48.8636 73.7528 50.6343 74.3972 52.4049C74.4795 52.6245 74.5481 52.8441 74.6303 53.0637C74.4109 53.1324 70.1467 53.1461 69.6805 53.0912C69.6394 52.9814 69.5983 52.8579 69.5572 52.7481C69.1595 51.499 68.7756 50.2637 68.3506 49.0146C68.186 48.5479 67.9666 48.095 67.7336 47.6558C67.3085 46.8597 66.6229 46.4891 65.7317 46.4754C65.2655 46.4754 64.8131 46.4754 64.3194 46.4754V53.0912C62.8249 53.0912 61.3578 53.0912 59.8633 53.0912M64.3469 43.9498C64.3469 43.9498 64.4291 43.9773 64.4566 43.9773C65.2381 43.9773 66.0196 43.9773 66.8012 43.9223C67.2811 43.8949 67.7473 43.7851 68.186 43.5655C68.8305 43.236 69.1047 42.7007 69.091 41.987C69.091 41.3144 68.7208 40.8889 68.1449 40.6007C67.7884 40.4223 67.3908 40.3262 67.0069 40.2713C66.1568 40.134 65.3067 40.1615 64.4566 40.1752C64.4291 40.1752 64.388 40.1889 64.3469 40.2027C64.3469 41.4517 64.3469 42.687 64.3469 43.9498Z" fill="black"/>
<path d="M54.2439 37.3477V40.1615H46.5519V43.8537C47.7859 43.8537 49.0199 43.8537 50.254 43.8537H53.9149C53.9834 44.0733 53.9834 46.0635 53.9149 46.3655H46.5245V53.1048H42.082V37.3477H54.2165H54.2439Z" fill="black"/>
<path d="M48.4735 17.5567C50.8319 19.9175 53.2039 22.2921 55.5897 24.6804C55.5074 24.8314 48.9809 31.406 48.501 31.7903C46.1152 29.4021 43.7294 27.0138 41.3711 24.6529C43.7157 22.3058 46.1015 19.9175 48.4735 17.543M48.4598 28.4138C49.7076 27.1648 50.9553 25.9157 52.1756 24.6941C50.9416 23.4588 49.6801 22.196 48.4598 20.9744C47.2258 22.196 45.9644 23.4451 44.7166 24.6667C45.9644 25.9157 47.2121 27.1648 48.4461 28.4001" fill="black"/>
<path d="M41.3555 7.09625C43.7138 4.73542 46.0859 2.36084 48.4442 0C50.8162 2.37456 53.202 4.76285 55.5604 7.12369C53.2157 9.4708 50.83 11.8591 48.4716 14.2199L41.3555 7.09625ZM52.1737 7.12369C50.9397 5.88837 49.6782 4.62559 48.4579 3.39027C47.2239 4.62559 45.9625 5.88837 44.7284 7.12369C45.9625 8.35901 47.2102 9.60807 48.4716 10.8708C49.7056 9.63552 50.9534 8.37274 52.1737 7.12369Z" fill="black"/>
<path d="M39.4912 22.853C37.1055 20.4784 34.7197 18.0902 32.3477 15.7156C34.7608 13.2999 37.1466 10.9116 39.4912 8.56445C41.8633 10.939 44.249 13.3273 46.6211 15.7019C44.2765 18.049 41.9044 20.4235 39.4775 22.853M39.5461 11.9547C38.2984 13.19 37.0369 14.4528 35.8029 15.6744C37.0369 16.9098 38.2984 18.1725 39.5461 19.4216C40.7801 18.1862 42.0278 16.9235 43.2618 15.6881C42.0278 14.4528 40.7664 13.1901 39.5461 11.9685" fill="black"/>
<path d="M62.839 14.5208H60.3298C60.3298 14.5208 60.2612 14.3835 60.2201 14.3012C59.6168 13.0247 58.2868 12.2697 56.9157 12.4345C55.5171 12.5992 54.3791 13.6286 54.0912 15.0012C53.6524 16.9914 55.2018 18.913 57.2311 18.9268C58.4514 18.9268 59.37 18.4052 60.0282 17.3895C60.1241 17.2385 60.2201 17.1836 60.3984 17.1836C61.0839 17.1836 61.7832 17.1836 62.4688 17.1836C62.551 17.1836 62.6333 17.1836 62.7019 17.1836C62.7019 17.7463 62.0163 18.9679 61.3033 19.6817C60.1653 20.8072 58.7804 21.3562 57.1762 21.3425C54.0912 21.3288 51.5546 18.7209 51.582 15.6051C51.6094 12.4482 54.2146 9.89518 57.3545 9.95009C58.9312 9.97754 60.2612 10.5678 61.3719 11.6796C62.1397 12.4619 62.6196 13.3953 62.8527 14.4933" fill="black"/>
</svg>
