<svg xmlns="http://www.w3.org/2000/svg" width="196" height="90" fill="none"><path fill="#fff" d="M176 47.898c0-1.88-1.045-2.715-3.134-3.133-2.087-.417-3.34-.627-3.34-2.088 0-1.044.835-1.672 2.298-1.672 1.88 0 2.505.835 2.505 1.88l.209.21h.835l.209-.21c0-2.087-1.671-2.923-3.759-2.923-2.298 0-3.549 1.253-3.549 2.716 0 1.672 1.252 2.507 3.34 2.925 2.088.418 3.132.627 3.132 2.298 0 1.044-.626 1.88-2.714 1.88-1.88 0-2.715-1.045-2.715-2.298l-.209-.209h-.834l-.209.21c0 1.88 1.461 3.342 3.967 3.342 2.714-.003 3.968-1.257 3.968-2.928Zm-8.979-2.088.208-.209v-.626c0-2.924-1.671-5.013-4.594-5.013-2.924 0-4.594 2.089-4.594 5.013v.417c0 2.924 1.461 5.43 4.803 5.43 2.923 0 3.967-1.88 4.176-3.133l-.209-.209h-.835l-.209.21c-.418 1.252-1.253 2.089-2.923 2.089-2.716 0-3.551-2.507-3.551-3.76l.209-.209h7.519Zm-1.252-1.045h-6.265l-.209-.21c0-1.462.834-3.55 3.341-3.55 2.505 0 3.342 2.088 3.342 3.55l-.209.21Zm-9.188 5.64V40.376l-.209-.21h-.835l-.209.21v10.027l.209.21h.835l.209-.21Zm0-12.116v-1.253l-.209-.21h-.835l-.209.21v1.253l.209.209h.835l.209-.21Zm-7.934 11.49c-2.089 0-3.341-1.463-3.341-4.387 0-2.924 1.252-4.387 3.341-4.387 2.087 0 3.34 1.463 3.34 4.387 0 2.923-1.253 4.387-3.34 4.387Zm3.34-.628c0 2.715-.627 4.805-3.133 4.805-1.879 0-2.505-.835-2.714-1.88l-.209-.21h-.834l-.209.21c.209 1.67 1.461 2.924 3.966 2.924 2.716 0 4.385-1.671 4.385-5.849v-8.774l-.209-.21h-.627l-.209.21-.209 1.254h-.209c-.416-.835-1.461-1.671-3.341-1.671-2.923 0-4.385 2.299-4.385 5.432 0 3.132 1.462 5.43 4.385 5.43 1.88 0 2.923-.834 3.341-1.67h.211Zm-13.571-8.146c2.087 0 3.548 1.672 3.548 4.387s-1.461 4.387-3.548 4.387c-2.089 0-3.551-1.672-3.551-4.387s1.462-4.387 3.551-4.387Zm0 9.818c2.714 0 4.801-1.88 4.801-5.43 0-3.551-2.087-5.433-4.801-5.433-2.716 0-4.803 1.88-4.803 5.432 0 3.55 2.088 5.43 4.803 5.43Zm-6.265-.419V36.201l-.209-.21h-.835l-.209.21v14.205l.209.209h.835l.209-.21Zm-7.516-9.399c2.087 0 3.549 1.672 3.549 4.387s-1.462 4.387-3.549 4.387c-2.088 0-3.55-1.672-3.55-4.387s1.462-4.387 3.55-4.387Zm0 9.818c2.715 0 4.803-1.88 4.803-5.43 0-3.551-2.088-5.433-4.803-5.433-2.714 0-4.803 1.88-4.803 5.432 0 3.55 2.089 5.43 4.803 5.43Zm-6.055-.419v-6.267c0-2.715-1.462-4.177-3.758-4.177-1.462 0-2.716.627-3.341 1.671h-.209l-.208-1.254-.209-.21h-.627l-.209.21v10.027l.209.21h.836l.208-.21v-5.64c0-2.298 1.045-3.759 3.341-3.759 1.671 0 2.714 1.044 2.714 3.133v6.266l.209.21h.835l.209-.21Zm-10.65 0v-6.267c0-2.715-1.461-4.177-3.758-4.177-1.461 0-2.714.627-3.341 1.671h-.209v-5.43l-.209-.21h-.835l-.209.21v14.205l.21.209h.834l.209-.21v-5.64c0-2.299 1.045-3.76 3.341-3.76 1.671 0 2.715 1.044 2.715 3.133v6.266l.209.21h.836l.207-.21Zm-17.956-5.012c0-2.924 1.462-4.387 3.549-4.387 2.087 0 2.923 1.254 3.13 2.507l.21.209h.836l.209-.21c-.21-2.087-1.88-3.55-4.385-3.55-2.714 0-4.801 1.672-4.801 5.433 0 3.759 2.087 5.43 4.8 5.43 2.506 0 4.177-1.462 4.386-3.55l-.21-.21h-.835l-.21.21c-.208 1.253-1.043 2.506-3.13 2.506-2.089-.001-3.549-1.465-3.549-4.388Zm-2.298.418.21-.209v-.626c0-2.924-1.671-5.013-4.596-5.013-2.922 0-4.594 2.089-4.594 5.013v.417c0 2.924 1.462 5.43 4.803 5.43 2.923 0 3.967-1.88 4.176-3.133l-.21-.209h-.834l-.209.21c-.416 1.252-1.252 2.089-2.923 2.089-2.714 0-3.549-2.507-3.549-3.76l.21-.209h7.516Zm-1.252-1.045h-6.265l-.209-.21c0-1.462.835-3.55 3.34-3.55 2.507 0 3.341 2.088 3.341 3.55l-.207.21Zm-5.627-7.938V36.2l-.21-.21H69.73l-.209.21v.627l.21.21h4.593l.21.208v13.16l.208.209h.835l.209-.21v-13.16l.209-.21h4.594l.209-.208ZM69.52 47.707v2.907h-9.429V35.992h3.32v11.716h6.11Zm-43.595 2.907a7.311 7.311 0 0 0 7.074-5.471l8.27 6.462 8.263-6.459v5.468h9.43v-2.906h-6.11V35.992h-3.32v5.467l-7.926 6.195-1.772-1.386 3.793-2.965 4.132-3.23L45.4 38.23l-7.928 6.196-1.772-1.385 7.926-6.195L41.268 35 33 41.462a7.311 7.311 0 0 0-7.074-5.47H20v14.622h5.925Zm-2.605-2.906v-8.81h2.605c2.202 0 3.988 1.972 3.988 4.405 0 2.432-1.786 4.405-3.988 4.405H23.32Z"></path></svg>