<svg xmlns="http://www.w3.org/2000/svg" width="150" height="90" fill="none"><g fill="#fff" clip-path="url(#a)"><path d="m122.511 43.849-9.289-9.255c-1.155-1.196-2.4-1.594-4.266-1.594H28.689c-.933 0-1.689.753-1.689 1.683v20.679c0 .93.756 1.682 1.689 1.682h80.267c1.866 0 3.111-.398 4.266-1.594l9.289-9.254c.667-.665.667-1.727 0-2.347Zm-83.6 5.933h-3.689v-9.52h3.69c3.288 0 4.666 1.86 4.666 4.738s-1.334 4.738-4.667 4.738v.044Zm14.667-7.66h-5.156v1.86h4.534v1.86h-4.534v2.036h5.156v1.86h-7.29v-9.52h7.29V42.122Zm11.51 7.66h-1.777l-4.844-6.066.089 6.066h-2.134v-9.52H58.2l4.889 6.066-.133-6.066h2.133v9.52Zm10.712-7.66h-3.022v7.616h-2.134v-7.616h-3.022v-1.86h8.222v1.86H75.8Zm6.489 7.882c-3.334 0-4.756-1.86-4.756-5.004 0-3.144 1.422-5.004 4.756-5.004 3.333 0 4.755 1.86 4.755 5.004 0 3.144-1.422 5.004-4.755 5.004Zm16.133-.222h-1.778L91.8 43.716l.089 6.066h-2.133v-9.52h1.777l4.89 6.066-.134-6.066h2.133v9.52Zm6.267.222c-.933 0-2.622-.266-3.289-.532v-1.904c.756.31 2.044.576 3.333.576 1.289 0 2.134-.399 2.134-1.196 0-.797-.489-1.018-1.867-1.107-2.889-.265-3.733-.885-3.733-2.7 0-1.816 1.2-3.056 4-3.056s2.444.177 3.289.531v1.904c-.845-.31-2.045-.531-3.289-.531-1.245 0-1.911.354-1.911 1.151 0 .709.533.886 1.911.974 2.889.266 3.733.842 3.733 2.879 0 2.036-1.111 3.1-4.267 3.1l-.044-.09Z"></path><path d="M38.867 42.122h-1.511v5.756h1.51c2 0 2.578-1.195 2.578-2.878s-.577-2.878-2.577-2.878ZM82.289 41.856c-2 0-2.622 1.196-2.622 3.144 0 1.949.622 3.144 2.622 3.144S84.91 46.949 84.91 45c0-1.948-.622-3.144-2.622-3.144Z"></path></g><defs><clipPath id="a"><path fill="#fff" d="M27 33h96v24H27z"></path></clipPath></defs></svg>