<svg width="74" height="43" viewBox="0 0 74 43" fill="none" xmlns="http://www.w3.org/2000/svg">
<path d="M42.732 30.0063H44.5169C44.9797 30.0063 45.2441 29.885 45.4424 29.6865C45.6628 29.466 45.7729 29.1351 45.7729 28.7602C45.7729 28.3411 45.6628 28.0323 45.4424 27.8228C45.178 27.5692 44.8144 27.503 44.2965 27.503H42.732V30.0063ZM40.8479 27.106C40.8479 26.3341 41.2225 25.9922 41.9718 25.9922H44.7042C45.6077 25.9922 46.3569 26.1907 46.8858 26.6869C47.3816 27.1501 47.679 27.8338 47.679 28.7602C47.679 30.282 46.7535 31.5282 44.9135 31.5282H42.732V33.5573C42.732 34.1197 42.3684 34.5057 41.7955 34.5057C41.2225 34.5057 40.8589 34.1197 40.8589 33.5573V27.106H40.8479Z" fill="black"/>
<path d="M53.4722 30.0063H55.2571C55.7199 30.0063 55.9843 29.885 56.1826 29.6865C56.403 29.466 56.5132 29.1351 56.5132 28.7602C56.5132 28.3411 56.403 28.0323 56.1826 27.8228C55.9182 27.5692 55.5546 27.503 55.0368 27.503H53.4722V30.0063ZM51.5881 27.106C51.5881 26.3341 51.9628 25.9922 52.712 25.9922H55.4444C56.3479 25.9922 57.0971 26.1907 57.626 26.6869C58.1218 27.1501 58.4193 27.8338 58.4193 28.7602C58.4193 30.282 57.4938 31.5282 55.6538 31.5282H53.4722V33.5573C53.4722 34.1197 53.1086 34.5057 52.5357 34.5057C51.9628 34.5057 51.5992 34.1197 51.5992 33.5573V27.106H51.5881Z" fill="black"/>
<path d="M71.6553 31.1966C72.5918 30.7445 73.0546 29.8071 73.0546 28.7264C73.0546 27.8001 72.7571 27.1384 72.2613 26.6752C71.7324 26.19 70.9832 25.9805 70.0797 25.9805H67.3252C66.576 25.9805 66.2014 26.3223 66.2014 27.0943V33.5456C66.2014 34.119 66.565 34.4939 67.1379 34.4939C67.7108 34.4939 68.0744 34.108 68.0744 33.5456V31.4723H69.8263L71.2256 33.9315C71.4239 34.3065 71.6553 34.4829 72.107 34.4829C72.4706 34.4829 72.9664 34.2624 72.9664 33.6117C72.9664 33.4353 72.8893 33.2588 72.8012 33.1155C72.691 32.939 72.074 31.9134 71.6333 31.1856M68.0965 27.5023H69.6831C70.256 27.5023 70.5976 27.6126 70.8179 27.8221C71.0493 28.0316 71.1485 28.3184 71.1485 28.7264C71.1485 29.1124 71.0383 29.4211 70.8289 29.6307C70.5976 29.8623 70.256 29.9615 69.8263 29.9615H68.0855V27.5023H68.0965Z" fill="black"/>
<path fill-rule="evenodd" clip-rule="evenodd" d="M20.5459 26.8634C19.9068 26.2569 19.1246 25.9922 17.9236 25.9922H15.5768C14.9047 25.9922 14.5081 26.2569 14.5081 27.106V33.3147C14.5081 34.1638 14.9047 34.4285 15.5768 34.4285H18.0889C20.3035 34.4285 21.7248 33.05 21.7248 30.282C21.7248 28.7491 21.3171 27.5912 20.5459 26.8634ZM19.2127 32.3332C18.9042 32.664 18.4525 32.8405 17.8245 32.8405H16.3811V27.5802H17.5821C18.2652 27.5802 18.75 27.6794 19.1246 28.0654C19.5543 28.5065 19.7967 29.2344 19.7967 30.293C19.7967 31.1863 19.5984 31.9031 19.1907 32.3442" fill="black"/>
<path d="M36.1119 32.9507C36.0238 32.6861 34.4042 28.0544 34.1397 27.3155C33.9745 26.8524 33.8312 26.5767 33.6329 26.3782C33.3464 26.0914 32.9828 25.9922 32.6192 25.9922C32.1895 25.9922 31.859 26.1356 31.6166 26.3671C31.3852 26.5767 31.242 26.8854 31.1098 27.2273C30.8674 27.9 29.0935 32.7412 29.0164 32.9507C28.9282 33.1934 28.8401 33.469 28.8401 33.6675C28.8401 34.1638 29.1926 34.4836 29.7105 34.4836C30.1181 34.4836 30.4046 34.2961 30.5368 33.8991C30.6029 33.7006 30.7902 33.1713 31.0216 32.4986H34.1067C34.2609 32.9507 34.4152 33.4139 34.5694 33.8771C34.7016 34.23 34.933 34.4836 35.4178 34.4836C35.9026 34.4836 36.2992 34.1197 36.2992 33.6675C36.2992 33.458 36.2111 33.2154 36.1119 32.9507ZM31.5174 31.0429C31.8921 29.9622 32.2777 28.8043 32.5642 27.9882C32.8286 28.7602 33.1922 29.8409 33.5999 31.0429H31.5174Z" fill="black"/>
<path d="M50.3609 33.5573C50.3609 34.1197 49.9973 34.5057 49.4243 34.5057C48.8514 34.5057 48.4768 34.1197 48.4768 33.5573V26.9406C48.4768 26.3782 48.8404 25.9922 49.4243 25.9922C50.0083 25.9922 50.3609 26.3782 50.3609 26.9406V33.5573Z" fill="black"/>
<path d="M23.6848 34.4167C23.0127 34.4167 22.594 34.1521 22.594 33.3029V26.9289C22.594 26.3664 22.9576 25.9805 23.5415 25.9805C24.1255 25.9805 24.4781 26.3664 24.4781 26.9289V32.8287H27.3868C27.7394 32.8287 27.9818 32.8949 28.147 33.0603C28.2793 33.1927 28.3344 33.3801 28.3344 33.6117C28.3344 33.8433 28.2793 34.0308 28.147 34.1631C27.9928 34.3285 27.7504 34.4057 27.3758 34.4057H23.6737L23.6848 34.4167Z" fill="black"/>
<path d="M60.2961 34.4167C59.624 34.4167 59.2053 34.1521 59.2053 33.3029V27.0943C59.2053 26.2451 59.6461 25.9805 60.3181 25.9805H64.2846C64.6372 25.9805 64.8796 26.0466 65.0448 26.2121C65.177 26.3444 65.2321 26.5319 65.2321 26.7634C65.2321 26.995 65.177 27.1825 65.0448 27.3148C64.8906 27.4803 64.6482 27.5574 64.2736 27.5574H61.0784V29.4211H63.8439C64.1854 29.4211 64.4499 29.4873 64.6041 29.6417C64.7363 29.774 64.8024 29.9615 64.8024 30.1931C64.8024 30.4247 64.7474 30.6122 64.6151 30.7445C64.4719 30.8878 64.2295 30.965 63.8439 30.965H61.0894V32.8287H64.3727C64.7253 32.8287 64.9677 32.8949 65.133 33.0603C65.2652 33.1927 65.3203 33.3801 65.3203 33.6117C65.3203 33.8433 65.2652 34.0308 65.133 34.1631C64.9787 34.3285 64.7363 34.4057 64.3617 34.4057H60.2851L60.2961 34.4167Z" fill="black"/>
<path d="M6.95401 42.5453C5.38946 42.5453 4.33174 42.2476 3.40623 41.7072C2.34851 41.1007 1.4781 40.2074 0.905167 39.1267C0.332234 38.046 0.177979 36.8881 0.177979 35.3883V7.14603C0.177979 5.65727 0.343252 4.48833 0.905167 3.4076C1.4781 2.32687 2.34851 1.42259 3.40623 0.827086C4.33174 0.297751 5.38946 0 6.95401 0H35.9423C37.5068 0 38.5645 0.297753 39.49 0.838116C40.5478 1.44465 41.4182 2.3379 41.9911 3.41863C42.564 4.49936 42.7183 5.65728 42.7183 7.15706V21.416C42.7183 22.0446 42.3657 22.3644 41.7928 22.3644C41.2199 22.3644 40.9003 22.0446 40.8232 21.416C40.2503 17.06 38.7188 13.5863 36.0084 10.8403C32.9454 7.7305 28.6043 5.82269 23.4589 5.82269C13.091 5.82269 5.99546 13.5752 5.99546 23.3018C5.99546 28.1981 7.79137 32.5982 10.9095 35.7632C13.5648 38.454 17.0905 40.1964 21.4426 40.6706C22.302 40.7588 22.5775 41.1007 22.5775 41.6521C22.5775 41.9167 22.4893 42.1373 22.3351 42.2917C22.1588 42.4571 21.8833 42.5563 21.4867 42.5563H6.95401V42.5453Z" fill="black"/>
</svg>
