<svg xmlns="http://www.w3.org/2000/svg" width="150" height="90" fill="none"><g fill="#fff" clip-path="url(#a)"><path d="M80.333 51.514h1.589c.454 0 .68 0 .794-.343.227-.228.34-.457.34-.8 0-.342 0-.685-.34-.8-.227-.228-.567-.228-1.021-.228h-1.362v2.171Zm-1.588-2.628c0-.686.34-1.029 1.021-1.029h2.383c.794 0 1.475.229 1.929.572.454.457.68 1.028.68 1.828 0 1.372-.793 2.4-2.382 2.4h-1.93v1.829c0 .457-.34.8-.793.8a.778.778 0 0 1-.795-.8v-5.714l-.113.114ZM89.752 51.514h1.589c.453 0 .68 0 .794-.343.227-.228.34-.457.34-.8 0-.342 0-.685-.34-.8-.227-.228-.568-.228-1.022-.228h-1.361v2.171Zm-1.589-2.628c0-.686.34-1.029 1.021-1.029h2.383c.795 0 1.476.229 1.93.572.453.457.68 1.028.68 1.828 0 1.372-.794 2.4-2.383 2.4h-1.929v1.829c0 .457-.34.8-.794.8a.778.778 0 0 1-.794-.8v-5.714l-.114.114ZM105.752 52.543c.794-.343 1.248-1.257 1.248-2.172 0-.914-.227-1.371-.681-1.828-.454-.457-1.135-.572-1.929-.572h-2.383c-.681 0-1.021.343-1.021 1.029v5.714c0 .457.34.8.794.8a.778.778 0 0 0 .794-.8v-1.828h1.589l1.248 2.171c.227.343.341.457.795.457s.794-.228.794-.8c0-.571 0-.343-.113-.457 0-.114-.681-1.028-1.022-1.714h-.113Zm-3.178-3.2h1.362c.454 0 .795 0 1.021.228.227.229.341.458.341.8 0 .343 0 .572-.227.8-.227.229-.454.343-.908.343h-1.475v-2.171h-.114ZM60.93 48.771c-.568-.571-1.25-.8-2.27-.8h-2.043c-.567 0-.908.229-.908 1.029v5.486c0 .8.34 1.028.908 1.028h2.156c1.93 0 3.177-1.257 3.177-3.657 0-2.4-.34-2.4-1.02-2.971v-.115Zm-1.25 4.8c-.226.343-.68.458-1.247.458h-1.249v-4.686h1.022c.567 0 1.021 0 1.361.457.34.343.568 1.029.568 1.943 0 .914-.227 1.371-.568 1.828h.114ZM74.546 54.143c0-.229-1.475-4.343-1.702-5.029-.113-.457-.227-.685-.454-.8-.227-.228-.567-.343-.908-.343-.34 0-.68.115-.907.343-.227.229-.34.457-.454.8-.227.572-1.816 4.915-1.816 5.029 0 .228-.114.457-.114.686 0 .457.341.685.795.685s.567-.114.68-.571c0-.229.228-.686.455-1.257h2.723c.114.457.227.8.454 1.257.113.343.34.571.794.571s.795-.343.795-.685c0-.343 0-.343-.114-.686h-.227Zm-3.972-1.714c.34-.915.681-1.943.908-2.743.227.685.568 1.6.908 2.743h-1.816ZM87.028 54.6c0 .457-.34.8-.794.8a.778.778 0 0 1-.794-.8v-5.829c0-.457.34-.8.794-.8s.794.343.794.8V54.6ZM63.653 55.4c-.568 0-.908-.229-.908-1.029v-5.6c0-.457.34-.8.794-.8s.794.343.794.8v5.258h2.497c.34 0 .567 0 .68.228.114.114.114.229.114.457 0 .229 0 .343-.113.457-.114.115-.34.229-.681.229h-3.291.114ZM95.766 55.4c-.567 0-.908-.228-.908-1.029v-5.485c0-.8.34-1.029 1.021-1.029h3.518c.34 0 .567 0 .681.229.113.114.113.228.113.457s0 .343-.113.457c-.114.114-.34.229-.68.229H96.56v1.6h2.383c.34 0 .568 0 .681.228.114.114.227.229.227.457 0 .229 0 .343-.113.457-.114.115-.34.229-.681.229h-2.383v1.6h2.837c.34 0 .567 0 .68.229.114.114.114.228.114.457 0 .228 0 .343-.114.457-.113.114-.34.229-.68.229h-3.632l-.113.228Z"></path><path d="M49.355 65c-1.476 0-2.497-.229-3.291-.8a6.04 6.04 0 0 1-2.383-2.4c-.567-1.029-.681-2.057-.681-3.543V31.743c0-1.372.114-2.514.68-3.543a6.04 6.04 0 0 1 2.384-2.4c.794-.571 1.815-.8 3.29-.8h27.121c1.475 0 2.497.229 3.291.8a6.04 6.04 0 0 1 2.383 2.4c.567 1.029.68 2.057.68 3.543v13.371c0 .572-.34.915-.907.915s-.794-.343-.908-.915c-.567-4.114-1.929-7.314-4.539-9.943-2.837-2.971-6.922-4.685-11.688-4.685-9.645 0-16.34 7.314-16.34 16.457s1.702 8.686 4.539 11.657c2.496 2.514 5.787 4.114 9.872 4.571.795 0 1.021.458 1.021.915s0 .457-.226.571c-.114.114-.454.229-.795.229H49.355V65Z"></path></g><defs><clipPath id="a"><path fill="#fff" d="M43 25h64v40H43z"></path></clipPath></defs></svg>