<svg xmlns="http://www.w3.org/2000/svg" width="150" height="90" fill="none"><path fill="#fff" d="M56.734 33.916c.12-1 0-2.461.76-3.142.239-1.06 1.897-.82 1.637-1.501-.16-.42-.959-.26-1.258-.14-1.119.36-2.257.66-3.416.88l-1.118-.32c-1.438.2-2.277 1.341-3.076 2.262-.68.76-1.578 2.662-.879 3.763-.02.24-.06.5-.12.74l1.638 2.403c.56.4.64.7 1.239 1.1l.379.56c.699.301 1.478.341 2.217.12 2.357.221 2.097-4.563 2.836-5.564-.12-.48-.42-.88-.839-1.16ZM46.588 48.288c.6-.1 1.198-.24 1.777-.42.7-.36 3.156-2.082 2.377-3.463-.24-2.942-3.775-.46-5.313-1.481-1.478-.2-3.175-3.083-3.635-4.324-.06-.26-.18-.5-.36-.7 0-.04-.159.14-.159.08-.44.52-.38.98-.44 2.242h-.599c0 .34-.1.68-.3.94l-.14.24c-.379-.12-.179.06-.339-.26-1.418.04-1.318 1.441-1.957 2.262.02 2.642 5.233 5.905 9.068 4.904l.02-.02Zm17.317-8.006c-1.618.2-3.176.76-4.534 1.66-.34.241-.64.541-.879.882-.16.3-.22.64-.16.98.04.42.24.821.58 1.081 2.796-.2 7.65-.38 8.588 1.962.04.2.08.4.14.6.879-.24.24-.16 1.598.06.539 0 1.078-.1 1.598-.24.14-.04.28-.14.36-.26v-.34c.219.02.459 0 .678-.12 1.298-.2.62-.821 1.219-1.502-.42-4.443-4.914-5.464-9.188-4.803v.04Zm-4.994 9.547c-.639.5-.878.38-1.298 1.141 0 0 .06.12 0 .12.4.78 1.279 1.081 1.938 1.622.2.18.759 1.12 1.018 1.2.3.34.48 1.322.68 1.322.2.26 0 .88.18 1.16 0 1.141-.16 1.242-.34 1.442 0 .08.1.3.1.38 0 .08.519.38.718.34.62 0 3.176 2.022 3.376 2.422 1.838.14 1.698-.42 2.976-.96.34-.14.62 0 .879-.24.26-.241.26-.721.48-.962 0-4.523-6.133-8.827-10.687-8.987h-.02Zm-7.23 1.041c-.26.26-.959.38-1.158.68a14.05 14.05 0 0 1-1.518 2.062c-1.778 1.642-5.453 2.482-7.29.881-.12 0-.06.08.08.54.14.881.818 2.863.558 3.383.16.56.34.36.66.68.32.321.3.781.539.881l.879-.06c.06.16.1.32.16.48l1.078-.08c.2.04.819.361.999.401l1.198-.08c.879.16 1.798-.08 2.477-.66.44-.3.879-.24 1.278-.581a9.115 9.115 0 0 0 1.618-1.982c.879-1.58.58-5.324-.22-6.285-.32-.34-.679-.36-1.358-.28l.02.02Zm44.101-10.308c3.775 0 6.332 2.402 6.332 6.685 0 4.284-3.535 6.986-7.19 6.986H89.99V40.582h5.792v-.02ZM94.684 51.63c2.097 0 3.775-.7 3.775-4.384 0-3.683-1.698-4.183-3.775-4.183h-1.099v8.567h1.099Zm12.803.48c0 1 .06 2.082.06 2.082h-3.675V40.582h8.628v2.662s-1.937-.04-2.597-.04h-2.436v2.702h4.494v2.502h-4.494v3.703h.02Zm-24.767-.64a2.863 2.863 0 0 1-3.036-2.683v-.42s3.195-.08 4.274-.08c1.838 0 2.597 0 4.055-.04v-1.02c0-4.645-1.978-6.906-6.032-6.906-4.055 0-6.192.7-6.192 7.225 0 6.526 2.197 6.946 6.032 6.946 2.197.12 4.374-.52 6.192-1.781-.14-.22-1.259-2.242-1.419-2.462a6.307 6.307 0 0 1-3.874 1.24v-.02Zm-3.056-5.745c.06-.78.34-2.662 2.337-2.662s2.157 1.741 2.157 2.662v.16h-4.494v-.16Z"></path></svg>