<?xml version="1.0" encoding="UTF-8"?>
<svg id="Layer_1" xmlns="http://www.w3.org/2000/svg" version="1.1" viewBox="0 0 710.3 707.8">
  <!-- Generator: Adobe Illustrator 30.1.0, SVG Export Plug-In . SVG Version: 2.1.1 Build 136)  -->
  <defs>
    <style>
      .st0 {
        fill: #fff;
      }
    </style>
  </defs>
  <g id="Logo">
    <g>
      <path class="st0" d="M389.7,147.4c-55.6,25.4-93.3,74.1-93.3,129.9s64.9,127.6,145,127.6,62.6-8.5,92.8-26.7c3.2-1.9,6.8-3.4,9.2-.4,1.4,1.7.8,3.8-.2,5.7-33,60.6-100.2,102.7-175.6,102.7-111.4,0-201.7-90.3-201.7-201.7s29.4-120.3,75.4-157.3c34.6-27.8,121.2-31.6,148.2,20Z"/>
      <path class="st0" d="M540.9,225.5c0,67-64,121.3-142.9,121.3s-42.6-1.6-64.8-11.9c-6.3-3-5.7-6.6-1.3-8.5,10.1-4.2,89.4-19.4,89.4-100.9h0c0-81.5-84.2-141.1-179.8-98.1h0c34.5-27.8,78.5-44.4,126.2-44.4,93.7,0,173.2,63.8,173.2,142.5h0Z"/>
    </g>
    <g>
      <path class="st0" d="M133.4,538.7c-32.8,0-50.4,19.7-50.4,45.3v.7c0,25.7,13.9,42.5,48.9,42.5s42.2-8.1,49.5-27.3h-24.4c-3.6,6.2-10.4,9.7-23.5,9.7s-26.7-6.5-29-18.4h78.1v-8.8c0-25.3-17-43.7-49.2-43.7ZM104.8,574.7c2.9-11.8,12.5-18.6,29-18.6s24.4,6,26.6,18.6h-55.6Z"/>
      <path class="st0" d="M281.1,518.7h-18.9c0,3.8-.1,9.9-.9,13.8-1.3,7-3,8.4-9.3,9-3.9.3-8.3.3-12.5.3h-14.8v-3.5c0-12.6,2.5-15,13.5-15h7.3v-18h-9.8c-24.1,0-32.4,8.1-32.4,32.1v4.4h-19.6v18.8h19.6v64.2h21.2v-64.2h35.3v26.1c0,28.3,7.5,38,35.3,38h15.8v-19.9h-10c-17.1,0-19.9-2.5-19.9-21.8v-22.5h29.9v-18.8h-29.9v-23.1h0Z"/>
      <path class="st0" d="M377.4,539c-16.3,0-28.7,6.7-35.1,18.1l-1.9-15.4h-19v112.5h21.9v-42.7c6,9.9,16.8,15.4,33.5,15.4s43-14.2,43-42.8v-.7c0-28.9-16.2-44.4-42.4-44.4ZM397,584c0,15.8-8.3,24.5-27.1,24.5s-27-8.8-27-24.7v-.6c0-16.4,10.3-26.1,27.3-26.1s26.9,9,26.9,26.3v.6Z"/>
      <path class="st0" d="M478.2,538.7c-29.8,0-49.9,16.7-49.9,44.6v.9c0,27.1,15,43.1,49.5,43.1s50.5-16.7,50.5-43.1v-.9c0-28.2-19.7-44.6-50.1-44.6ZM505.5,584c0,15.8-8.3,24.5-27.3,24.5s-27.1-8.6-27.1-24.5v-.7c0-17.1,9.9-26.1,27.4-26.1s27,9.3,27,26.1v.7h0Z"/>
      <path class="st0" d="M586.1,574c-21.6-1.5-27.6-2.9-27.6-9s4.2-9.4,19.7-9.4,22.1,3.2,24,11.5h23.8c-4.5-18.7-19.3-28.3-47.5-28.3s-41.8,11.9-41.8,28,14.5,22.8,40.3,24.2c21.5,1.2,28.2,2.5,28.2,8.7s-5.2,9.9-20.9,9.9-23.4-3.5-25.7-12.3h-25.3c3.6,20,19.3,30,50.1,30s43.8-11.9,43.8-28.5c0-17.8-12.5-23.1-41.2-24.8Z"/>
    </g>
    <path class="st0" d="M636.5,557.2c-2.6,0-4.8-.8-6.6-2.3s-2.6-3.7-2.6-6.6v-.4c0-.9,0-1.8.3-2.6s.5-1.5.9-2.2c.8-1.4,1.9-2.4,3.2-3.2s2.9-1.1,4.6-1.1,1.7,0,2.4.3c.8.2,1.5.4,2.2.8,1.4.7,2.5,1.8,3.3,3.1.8,1.3,1.2,3,1.2,4.9v.5c0,1,0,1.8-.3,2.7s-.5,1.5-.9,2.2c-.8,1.3-1.9,2.3-3.2,3-1.4.7-2.9,1-4.6,1ZM636.5,555.6c2.2,0,3.9-.6,5.3-1.9,1.4-1.3,2.1-3.1,2.1-5.5v-.3c0-2.4-.7-4.3-2.1-5.6-1.4-1.3-3.2-2-5.4-2s-3.9.7-5.3,2c-1.4,1.4-2.1,3.2-2.1,5.6v.2c0,2.4.7,4.2,2.1,5.5,1.4,1.3,3.2,1.9,5.4,1.9ZM636.6,549h-2v3.5h-1.6v-9.4h3.8c1.3,0,2.2.2,2.8.8.6.5.8,1.2.8,2s-.2,1.2-.5,1.6c-.3.4-.8.7-1.4.8.6.1,1,.4,1.3.7s.4.9.4,1.6v1.4c0,0,0,.2,0,.3,0,0,0,.2,0,.2h-1.7s0,0,0-.2c0,0,0-.2,0-.3v-1.4c0-.6-.1-1-.3-1.3-.2-.2-.8-.4-1.6-.4ZM636.6,547.7c.8,0,1.4,0,1.7-.4.3-.3.5-.7.5-1.3s-.2-.8-.5-1.1c-.3-.2-.9-.4-1.6-.4h-2v3.2h2Z"/>
  </g>
</svg>