<svg width="98" height="33" viewBox="0 0 98 33" fill="none" xmlns="http://www.w3.org/2000/svg">
<path d="M24.2333 11.3193H12.8151V14.7084H20.8984C20.5006 19.4699 16.5393 21.478 12.8151 21.478C8.03278 21.478 3.88532 17.7246 3.88532 12.4631C3.88532 7.20167 7.84657 3.38902 12.8151 3.38902C16.6494 3.38902 18.9178 5.84606 18.9178 5.84606L21.2962 3.38902C21.2962 3.38902 18.2576 0 12.7051 0C5.65434 0 0.177979 5.97316 0.177979 12.4038C0.177979 18.8345 5.33269 24.8839 12.8828 24.8839C19.5441 24.8839 24.4026 20.3087 24.4026 13.5646C24.4026 12.1327 24.2164 11.3193 24.2164 11.3193" fill="black"/>
<path d="M33.5543 8.85222C28.8736 8.85222 25.5217 12.5293 25.5217 16.7825C25.5217 21.0358 28.772 24.8484 33.6051 24.8484C37.9896 24.8484 41.5615 21.4933 41.5615 16.8842C41.5868 11.5719 37.414 8.84375 33.5543 8.84375M33.6135 12.004C35.9158 12.004 38.108 13.8595 38.108 16.8673C38.108 19.875 35.9412 21.7305 33.6135 21.7305C31.0489 21.7305 29.0429 19.6971 29.0429 16.8673C29.0429 14.0374 31.0235 12.004 33.6135 12.004Z" fill="black"/>
<path d="M51.0582 8.85222C46.3775 8.85222 43.0256 12.5293 43.0256 16.7825C43.0256 21.0358 46.2759 24.8484 51.109 24.8484C55.4934 24.8484 59.0654 21.4933 59.0654 16.8842C59.0654 11.5719 54.8925 8.84375 51.0582 8.84375M51.109 12.004C53.4112 12.004 55.6035 13.8595 55.6035 16.8673C55.6035 19.875 53.4366 21.7305 51.109 21.7305C48.5443 21.7305 46.5383 19.6971 46.5383 16.8673C46.5129 14.0628 48.5189 12.004 51.109 12.004Z" fill="black"/>
<path d="M68.1838 8.85352C63.8755 8.85352 60.5237 12.6069 60.5237 16.8431C60.5237 21.6556 64.4342 24.8582 68.133 24.8582C70.4015 24.8582 71.6203 23.9601 72.5175 22.901V24.4854C72.5175 27.239 70.85 28.8996 68.3192 28.8996C65.7884 28.8996 64.6458 27.078 64.2225 26.0443L61.1585 27.3406C62.2419 29.6452 64.4342 32.0514 68.3447 32.0514C72.6276 32.0514 75.8778 29.3571 75.8778 23.7229V9.33646H72.526V10.6836C71.4933 9.5991 70.0713 8.86198 68.1923 8.86198M68.497 12.0053C70.6131 12.0053 72.7799 13.8015 72.7799 16.8686C72.7799 19.9356 70.6131 21.7064 68.4716 21.7064C66.1693 21.7064 64.0617 19.8509 64.0617 16.894C64.0363 13.8269 66.254 12.0053 68.497 12.0053Z" fill="black"/>
<path d="M90.7437 8.85352C86.6978 8.85352 83.2952 12.0816 83.2952 16.8431C83.2952 21.8928 87.0956 24.8836 91.1415 24.8836C94.5272 24.8836 96.6094 23.0281 97.8283 21.3675L95.052 19.512C94.341 20.6219 93.1221 21.7064 91.1415 21.7064C88.8985 21.7064 87.8658 20.4609 87.231 19.2748L97.9552 14.8352L97.3966 13.5389C96.3639 10.9717 93.9347 8.85352 90.7352 8.85352M90.8961 11.9206C92.3519 11.9206 93.4099 12.6916 93.8585 13.6405L86.6978 16.6313C86.3846 14.3014 88.5769 11.9206 90.8961 11.9206Z" fill="black"/>
<path d="M81.706 0.814453H78.1934V24.4021H81.706V0.814453Z" fill="black"/>
</svg>
