<?xml version="1.0" encoding="UTF-8"?>
<svg id="Layer_1" xmlns="http://www.w3.org/2000/svg" version="1.1" viewBox="0 0 150 90">
  <!-- Generator: Adobe Illustrator 30.1.0, SVG Export Plug-In . SVG Version: 2.1.1 Build 136)  -->
  <defs>
    <style>
      .st0 {
        fill: #fff;
      }
    </style>
  </defs>
  <path class="st0" d="M68.4,45.4c0,4.2-3.3,7.2-7.3,7.2s-7.3-3.1-7.3-7.2,3.3-7.2,7.3-7.2,7.3,3,7.3,7.2ZM65.2,45.4c0-2.6-1.9-4.4-4.1-4.4s-4.1,1.8-4.1,4.4,1.9,4.4,4.1,4.4,4.1-1.8,4.1-4.4h0ZM84.1,45.4c0,4.2-3.3,7.2-7.3,7.2s-7.3-3.1-7.3-7.2,3.3-7.2,7.3-7.2,7.3,3,7.3,7.2ZM80.9,45.4c0-2.6-1.9-4.4-4.1-4.4s-4.1,1.8-4.1,4.4,1.9,4.4,4.1,4.4,4.1-1.8,4.1-4.4ZM99.1,38.6v13c0,5.3-3.2,7.5-6.9,7.5s-5.6-2.3-6.4-4.3l2.8-1.2c.5,1.2,1.7,2.6,3.7,2.6s3.9-1.5,3.9-4.2v-1h-.1c-.7.9-2.1,1.6-3.8,1.6-3.6,0-7-3.2-7-7.2s3.3-7.3,7-7.3,3.1.8,3.8,1.6h.1v-1.2h3s0,0,0,0ZM96.3,45.4c0-2.5-1.7-4.4-3.9-4.4s-4,1.9-4,4.4,1.8,4.4,4,4.4,3.9-1.8,3.9-4.4h0ZM104.1,31v21.2h-3.1v-21.2h3.1ZM116.2,47.8l2.5,1.6c-.8,1.2-2.7,3.2-6,3.2s-7.2-3.2-7.2-7.2,3.1-7.2,6.8-7.2,5.6,3,6.2,4.6l.3.8-9.7,4c.7,1.5,1.9,2.2,3.5,2.2s2.7-.8,3.6-2ZM108.6,45.2l6.5-2.7c-.4-.9-1.4-1.5-2.7-1.5s-3.9,1.4-3.8,4.2ZM42,43.5v-3.1h10.4c.1.5.2,1.2.2,1.9,0,2.3-.6,5.1-2.7,7.2-2,2.1-4.5,3.2-7.9,3.2-6.2,0-11.4-5-11.4-11.2s5.2-11.2,11.4-11.2,5.9,1.3,7.7,3.1l-2.2,2.2c-1.3-1.2-3.1-2.2-5.6-2.2-4.5,0-8.1,3.6-8.1,8.2s3.5,8.2,8.1,8.2,4.6-1.2,5.7-2.2c.9-.9,1.4-2.1,1.7-3.8,0,0-7.4,0-7.4,0Z"/>
</svg>