<svg width="111" height="18" viewBox="0 0 111 18" fill="none" xmlns="http://www.w3.org/2000/svg">
<path d="M0.177979 17.4482V0.539062H4.4421V7.21599H13.5767V0.539062H18.0911V17.4482H13.6345V10.0197H4.4421V17.4482H0.177979Z" fill="black"/>
<path d="M26.0612 0.539062H21.7971V17.4482H26.0612V0.539062Z" fill="black"/>
<path d="M27.6936 0.539062H45.9918V3.3428H39.1673V17.4482H34.7106V3.3428H27.6936V0.539062Z" fill="black"/>
<path d="M42.1897 17.4482L50.0056 0.539062H55.5211L63.4236 17.4482H58.5627L57.0034 13.864H48.6196L47.195 17.4482H42.1897ZM56.0312 11.0507L52.874 3.45841L49.6399 11.0507H56.0312Z" fill="black"/>
<path d="M84.1565 17.4482V0.539062H88.6131V7.21599H97.7478V0.539062H102.07V17.4482H97.8055V10.0197H88.6131L88.6035 17.4482H84.1565Z" fill="black"/>
<path d="M110.022 17.4482H105.758V0.539062H110.022V17.4482Z" fill="black"/>
<path d="M77.1126 6.21448C77.1414 4.43204 76.0826 2.76521 72.5308 2.74594C67.9394 2.72667 67.5255 6.79257 67.5063 8.98932C67.4678 13.7104 69.4891 15.1074 72.7811 15.1749C76.0153 15.2327 77.1318 13.1708 77.1126 11.398H81.8676C81.6558 15.6373 78.7778 17.7474 72.7907 17.8052C65.6389 17.8726 62.5684 13.9416 62.5684 8.99896C62.5684 4.05629 65.5715 0.0193046 72.5982 3.49054e-05C77.5746 -0.00959992 81.4729 1.97516 81.6751 6.21448H77.1126Z" fill="black"/>
</svg>
