<svg xmlns="http://www.w3.org/2000/svg" width="150" height="90" fill="none"><g clip-path="url(#a)"><path fill="#fff" d="M91.035 37c-4.149-.028-9.206 1.697-9.232 7.96-.027 6.2 5.137 8.157 9.232 8.034 3.807-.113 8.01-1.174 8.202-5.841l-4.208.01c-.119 2.932-2.453 3.514-3.994 3.519-1.58.005-4.798-.328-4.849-5.66-.048-5.031 2.905-5.743 4.849-5.721 1.944.021 3.871.93 3.893 3.221l4.18-.003c-.042-2.805-2.461-5.481-8.073-5.52ZM25 37.284V52.69h4.069v-6.799h8.234v6.8h4.087V37.283h-4.087v6.166h-8.234v-6.166H25Zm19.766 0V52.69h4.096V37.284h-4.096Zm5.612 0v2.549h5.967v12.854h4.053V39.832h5.968v-2.548H50.378Zm50.854 0V52.69h4.068v-6.799h8.234v6.8h4.069V37.283h-4.069v6.166h-8.233v-6.166h-4.069Zm19.667 0V52.69H125V37.284h-4.101Zm-50.749.023L62.865 52.69h4.571l1.42-3.456 7.699-.003 1.417 3.459h4.583l-7.253-15.383H70.15Zm2.563 2.601 2.815 6.874-5.654.003 2.839-6.877Z"></path></g><defs><clipPath id="a"><path fill="#fff" d="M25 37h100v16H25z"></path></clipPath></defs></svg>