<svg xmlns="http://www.w3.org/2000/svg" width="150" height="90" fill="none"><path fill="#fff" d="M51.09 57.046H37.52v1.95h13.57v-1.95ZM51.09 53.323H37.52v1.95h13.57v-1.95ZM47.212 49.603h-5.82v1.95h5.82v-1.95ZM47.212 45.884h-5.82v1.95h5.82v-1.95ZM47.212 42.165h-5.82v1.95h5.82v-1.95ZM47.212 38.439h-5.82v1.95h5.82v-1.95ZM51.09 34.72H37.52v1.949h13.57v-1.95ZM51.09 31H37.52v1.95h13.57V31ZM53.026 58.977l14.456.021a7.343 7.343 0 0 0 4.991-1.95H53.027v1.93ZM53.026 55.272h20.871a6.928 6.928 0 0 0 .775-1.95H53.027v1.95ZM62.718 49.603h-5.814v1.95h5.814v-1.95ZM68.54 49.603v1.95h6.345c0-.67-.09-1.327-.262-1.95h-6.084ZM72.272 45.884H56.904v1.95h16.992a7.801 7.801 0 0 0-1.624-1.95ZM56.904 42.165v1.95h15.368a7.256 7.256 0 0 0 1.625-1.95H56.904ZM62.718 38.439h-5.814v1.95h5.814v-1.95ZM68.54 40.388h6.083a7.291 7.291 0 0 0 .262-1.95H68.54v1.95ZM73.897 34.72h-20.87v1.949H74.67a8.436 8.436 0 0 0-.774-1.95ZM67.482 31H53.026v1.95h19.44A7.339 7.339 0 0 0 67.483 31ZM76.296 36.669h13.059l-.67-1.95H76.295v1.95ZM76.296 32.95H88.07L87.4 31H76.296v1.95ZM97.616 59v-1.95h9.699V59h-9.699ZM97.616 55.272v-1.95h9.699v1.95h-9.699ZM91.802 43.74l-.546-1.575H80.167v1.949h5.821v-1.79l.615 1.79h10.398l.615-1.79v1.79h5.821v-1.95H92.348l-.546 1.576ZM103.437 38.439h-9.803l-.67 1.95h10.473v-1.95ZM107.316 32.95V31H96.213l-.67 1.95h11.773ZM91.132 57.05l.67 1.928.67-1.929h-1.34ZM89.832 53.323l.684 1.95h2.572l.691-1.95h-3.947ZM88.525 49.603l.685 1.95h5.185l.684-1.95h-6.554ZM87.91 47.833h7.791l.664-1.949H87.24l.67 1.95ZM80.167 40.388h10.474l-.67-1.949h-9.804v1.95ZM107.315 34.72H94.92l-.663 1.949h13.058v-1.95ZM85.996 57.05h-9.7v1.949h9.7v-1.95ZM85.996 53.323h-9.7v1.95h9.7v-1.95ZM85.988 49.603h-5.821v1.95h5.82v-1.95ZM85.988 45.884h-5.821v1.95h5.82v-1.95ZM103.437 45.884h-5.821v1.95h5.821v-1.95ZM103.437 49.603h-5.821v1.95h5.821v-1.95ZM110.945 55.927a1.536 1.536 0 1 0 0 3.073 1.536 1.536 0 0 0 0-3.073Zm0 .28a1.255 1.255 0 0 1 .888 2.144 1.255 1.255 0 1 1-1.776-1.777c.235-.235.555-.368.888-.368Zm-.652.474v1.564h.38v-.54h.216l.291.54h.417l-.35-.599c.172-.067.283-.224.283-.471 0-.285-.178-.494-.529-.494h-.708Zm.38.299h.283c.12 0 .186.052.186.164v.113c0 .112-.066.165-.186.165h-.283v-.442Z"></path></svg>