<svg xmlns="http://www.w3.org/2000/svg" width="150" height="90" fill="none"><path fill="#fff" d="M32.844 59.29c0-.123-.008-.214.001-.303.042-.368.357-.558.693-.4.13.061.269.164.34.286.145.244.246.513.363.773.012.027.01.06.02.087.03.073.51.19.572.141.173-.134.35-.124.494.038.152.17.227.364.169.6-.037.15-.056.306-.086.475l.515.096c.042-.224.085-.44.128-.672-.154-.076-.428-.002-.415-.317l.45.07c-.055-.163-.131-.318-.158-.48-.037-.234.085-.386.292-.42.19-.033.457.131.502.31.006.023-.01.051-.02.093-.034-.025-.053-.039-.07-.054-.137-.122-.272-.136-.397-.046-.127.094-.16.246-.09.406.028.063.046.129.07.195-.012.015-.023.032-.034.048l2.161.152c-.038-.133-.072-.232-.094-.33-.075-.357.2-.642.563-.59.264.038.468.185.649.364.111.109.216.227.307.354.062.087.125.142.234.113.171-.043.277.035.359.204l-.255.022.104 1.605c-.28-.083-.313-.12-.332-.377-.013-.185-.023-.37-.035-.58-.206.015-.404.013-.593.05-.058.013-.125.13-.133.204-.023.182.082.326.2.457l.187.205-.106.117c-.186-.235-.367-.432-.51-.652-.194-.297-.027-.674.375-.653.18.01.36-.021.542-.034v-.324c-.412.024-.813.05-1.243.076v1.585c-.261-.068-.326-.146-.322-.373l.024-1.075v-.15h-.367c-.04.534-.082 1.063-.123 1.595-.28-.083-.328-.273-.252-.53-.04.012-.059.015-.075.023-.373.185-.641.12-.878-.219-.093-.132-.139-.273-.061-.425.08-.16.226-.227.397-.233.21-.005.38.09.524.236.034.036.066.073.108.122.01-.05.021-.084.024-.117l.03-.484c-.41-.029-.814-.058-1.236-.09-.05.266-.096.529-.145.789l-.149.814c-.094-.13-.264-.15-.247-.322.013-.128.041-.256.066-.397l-.511-.1c-.015.064-.025.122-.04.18-.036.132-.142.18-.236.082a1.363 1.363 0 0 1-.257-.383c-.07-.16-.011-.221.165-.212.03 0 .06.003.105.005l.055-.281-.506-.55-.163.524c-.212-.061-.416-.123-.623-.183-.17-.05-.284-.007-.323.12-.04.13.036.259.193.312.066.023.136.034.214.053.01-.141.09-.206.219-.2a.235.235 0 0 1 .238.215c.025.168-.084.245-.24.294.089.178.173.346.268.531-.06.024-.112.046-.176.07l-.148-.4c-.292.177-.567.214-.828-.027-.178-.164-.203-.27-.122-.476-.387-.264-.413-.495-.063-.684.056.086.113.172.169.26-.044.084-.22.108-.113.25.078.103.166.06.259.004-.019-.056-.042-.11-.056-.168-.067-.315.148-.524.468-.449.146.035.29.082.451.129l.068-.236-1.403-.428-.574 1.465c-.22-.185-.233-.23-.138-.472l.385-.986.049-.138-.312-.115-.699 1.439c-.204-.201-.214-.251-.104-.48.048-.098.095-.199.153-.32-.268-.05-.413-.223-.484-.467l-.424.184.287.746-.191.083-.284-1.186a.272.272 0 0 1 0-.09c.008-.103.042-.2.153-.217.115-.018.146.082.173.172l.015.054c.2-.01.381-.22.337-.4-.01-.038-.062-.073-.103-.097-.074-.042-.154-.072-.231-.112-.07-.036-.136-.078-.218-.124-.266.45-.535.91-.806 1.372-.186-.22-.192-.268-.057-.5l.612-1.044c-.163-.076-.294-.174-.23-.398l.407.234c.03-.115.046-.22.08-.316.13-.35.482-.453.782-.227.208.156.312.382.38.623.05.179.07.365.106.548.008.04.022.096.05.109.255.117.512.225.789.345h-.003v.005Zm-.932-.404c-.053-.386-.163-.701-.453-.925-.169-.13-.354-.12-.503.034-.073.076-.124.178-.209.301l1.166.591-.001-.001Zm2.208.854.033-.04c-.08-.29-.22-.545-.47-.727-.303-.222-.604-.11-.706.252-.02.073-.004.11.068.137.36.125.717.252 1.075.38v-.002Zm4.34.63 1.285-.07c-.239-.313-.496-.53-.87-.562-.194-.018-.334.08-.382.268-.027.104-.023.215-.035.364h.001Zm-7.015-1.46c-.031.13-.039.252-.09.35-.073.14-.03.236.059.336.102.115.228.142.37.108a.154.154 0 0 0 .091-.064c.073-.136.136-.275.207-.421-.221-.109-.427-.208-.637-.31Zm6.103 2.457c-.204-.286-.43-.366-.655-.264-.119.054-.212.135-.177.278.036.145.166.185.288.159.178-.038.349-.108.544-.173Zm-3.652-.137-.017-.046c-.085-.043-.166-.106-.255-.122a.385.385 0 0 0-.245.048c-.037.02-.067.145-.048.16.058.051.147.107.214.095.122-.02.235-.087.351-.134v-.002Zm1.302-.798c.015-.089.041-.175.043-.263.002-.055-.032-.11-.05-.165-.061.025-.142.035-.18.081-.102.12-.018.276.186.347ZM42.64 61.352c.043-.143.103-.261.106-.382.002-.084-.054-.206-.122-.244-.06-.033-.187.009-.255.058-.118.084-.183.197-.13.365.059.195.084.4.123.598-.311-.007-.393-.204-.393-.459-.02 0-.033-.003-.039 0a.525.525 0 0 1-.855-.295c-.02-.09.03-.22.09-.299.102-.129.262-.145.416-.094.09.027.17.081.267.13l-.104-.5c-.24.05-.471.098-.702.144-.224.044-.224.041-.41-.152 1.06-.216 2.119-.382 3.113-.827-.038-.021-.085-.037-.118-.066-.103-.093-.218-.18-.3-.29-.098-.132-.08-.288.015-.408.1-.128.32-.186.499-.121.07.024.131.074.198.112-.004.016-.008.033-.015.048-.034 0-.07.006-.102 0-.168-.033-.287.018-.353.154-.07.147-.029.29.113.4.055.043.106.09.16.134l-.008.062c.461-.21.927-.415 1.383-.636.309-.15.609-.315.901-.493.154-.094.282-.107.431.015l-.213.142.802 1.395c-.32.044-.326.042-.466-.2a398.61 398.61 0 0 0-.596-1.032c-.098.06-.187.11-.284.169l.682 1.45c-.218.011-.37-.075-.457-.257-.07-.15-.143-.299-.222-.465l-.428.2c.105.069.207.12.291.192.141.12.176.276.113.42a.376.376 0 0 1-.38.225c-.4-.038-.68-.28-.933-.565-.015-.018.012-.075.016-.098.188.124.351.253.532.344.201.1.369.054.425-.079.05-.12-.035-.266-.221-.365a1.3 1.3 0 0 0-.196-.08c-.061-.022-.124-.04-.212-.066.298-.142.573-.272.86-.41l-.157-.325c-.47.223-.93.44-1.403.662l.508 1.493c-.375.068-.392-.226-.48-.465l-.515.172c.018.061.036.117.048.173.031.143-.044.236-.178.188a1.497 1.497 0 0 1-.441-.244c-.128-.106-.092-.201.069-.266.032-.012.062-.028.104-.047l-.21-.61c-.328.074-.637.146-.96.218.029.147.055.287.085.45.15-.134.3-.226.478-.095.225.166.398.365.377.666-.007.103-.049.203-.076.32-.109-.064-.195-.117-.272-.164h.002Zm.645-1.535.226.66.52-.18-.227-.659-.52.179Zm-1.407 1.106c-.136-.196-.433-.151-.548.026-.034.053-.043.16-.011.202.036.05.136.085.2.075.17-.028.274-.152.36-.301l-.001-.002ZM53.44 46.06v-.463c.533-.029 1.07-.056 1.647-.088l-.59-.167c-.3-.087-.598-.181-.9-.26-.114-.03-.16-.08-.145-.197.01-.074.002-.15.002-.24l1.555-.437.003-.02h-.121c-.45-.01-.898-.026-1.347-.03-.113-.002-.154-.039-.145-.15.007-.094.001-.19.001-.318l2.176.103c0 .206.005.405-.004.604-.002.031-.062.073-.103.085-.442.133-.888.262-1.332.393.267.07.54.143.81.217.18.05.358.107.536.155.075.02.107.057.105.137 0 .146.015.294.006.439-.002.04-.06.108-.096.11-.664.05-1.329.093-1.993.137-.019 0-.038-.006-.068-.011M22.144 47.541l1.511-.212.066.454-2.145.28c-.024-.174-.054-.331-.063-.49-.002-.05.042-.122.088-.154.396-.286.797-.567 1.196-.85.012-.008.02-.022.031-.035-.474.07-.944.137-1.426.207l-.058-.456 2.144-.281c.02.162.046.319.052.476.002.038-.056.089-.098.12-.43.315-.863.626-1.297.94l-.001.002ZM23.524 43.445l-2.136-.34c.028-.172.045-.332.083-.486.013-.05.074-.105.124-.123.466-.163.934-.32 1.4-.48.014-.004.025-.014.038-.02-.474-.069-.949-.138-1.434-.207.025-.16.05-.3.075-.455l2.133.341c-.024.154-.04.303-.073.448-.01.04-.068.084-.112.098-.484.17-.97.337-1.456.505l-.106.035c.535.08 1.03.156 1.536.233l-.07.45h-.002ZM48.31 30.92l.383.258c-.403.603-.8 1.195-1.2 1.797-.133-.088-.258-.163-.373-.25-.034-.028-.054-.095-.05-.14.047-.542.098-1.084.15-1.633l-.838 1.28-.382-.25L47.2 30.18c.148.098.294.187.428.291.032.025.041.098.038.147-.038.503-.083 1.004-.123 1.489l.767-1.187ZM25.685 56.41c-.11-.136-.219-.258-.31-.39-.028-.04-.025-.123-.005-.173.185-.467.379-.93.563-1.379-.346.29-.71.592-1.087.906l-.289-.359c.562-.454 1.114-.9 1.68-1.36.103.126.206.243.294.369.02.029.004.096-.014.137-.203.482-.409.964-.614 1.446l-.035.083 1.208-.996c.1.124.192.235.29.355l-1.682 1.36h.001ZM54.971 49.592c-.12.34-.208.668-.347.97-.22.477-.638.665-1.119.545-.586-.145-.907-.518-.903-1.05 0-.388.14-.738.297-1.083.012-.028.075-.058.1-.05.645.215 1.286.435 1.973.667v.001Zm-1.85-.107c-.176.353-.16.658.036.865.207.221.632.333.876.231.222-.092.395-.38.389-.655l-1.301-.441ZM25.885 53.155l-1.848 1.057c-.299-.465-.702-.885-.591-1.497.136-.754 1.195-1.101 1.77-.593.313.278.494.643.669 1.034v-.001Zm-.57-.242c-.117-.329-.348-.533-.61-.544-.313-.014-.695.197-.797.458-.115.294.009.537.196.776l1.21-.693v.003ZM33.472 30.793c-.579 0-1.05-.54-1.046-1.203.003-.588.468-1.044 1.07-1.045.578 0 1.043.546 1.044 1.224 0 .578-.463 1.021-1.068 1.024Zm.553-.947c0-.292-.135-.607-.329-.77-.261-.216-.633-.116-.729.208-.091.306-.007.588.169.843.148.218.361.297.572.23.204-.066.318-.25.319-.512h-.002ZM52.12 37.77c-.438-.012-.72-.237-.907-.598-.182-.35-.166-.698.071-1.011.293-.387.684-.593 1.18-.529.425.057.684.329.821.716.133.372.043.709-.226.99-.257.27-.575.421-.94.432Zm-.044-.492c.281-.031.56-.184.75-.478a.43.43 0 0 0 .02-.472.434.434 0 0 0-.428-.231c-.354.027-.639.184-.816.496-.186.327.035.687.474.684v.001ZM48.298 33.296c-.002-.603.566-1.178 1.17-1.184.544-.004 1.044.478 1.046 1.008.003.585-.595 1.19-1.174 1.19-.545 0-1.039-.482-1.041-1.016m1.733-.265a.442.442 0 0 0-.558-.458c-.329.076-.652.423-.707.755a.452.452 0 0 0 .447.526c.363 0 .809-.448.819-.823h-.001ZM45.39 30.66a290.4 290.4 0 0 0-.723-.33l-.375.815-.448-.202.898-1.97.446.204-.341.757.719.33.351-.754c.151.069.292.132.446.204l-.897 1.966-.446-.203c.122-.273.242-.536.37-.819v.002ZM51.862 51.602l.222-.433c.63.326 1.253.648 1.895.982-.151.383-.28.77-.594 1.052a.514.514 0 0 1-.592.084.546.546 0 0 1-.342-.494c0-.029-.004-.057-.007-.091-.387.18-.73-.055-1.115-.075.076-.146.13-.27.203-.383.022-.034.092-.06.133-.055.144.02.286.057.428.088.295.064.388.012.509-.287l-.74-.388Zm1.07.56c-.092.177-.225.346-.1.536.05.076.186.148.275.138.216-.024.27-.222.342-.407l-.517-.268ZM53.323 39.52l-.116-.31.356-.141.3.753c-.341.134-.673.267-1.004.393-.026.01-.08-.007-.099-.03-.237-.303-.42-.635-.454-1.022-.048-.54.279-.963.836-1.098.458-.111.84.02 1.129.392.221.286.338.612.345.987l-.36.046c-.071-.214-.116-.423-.205-.61a.59.59 0 0 0-.661-.341c-.367.069-.62.279-.635.59-.008.16.068.328.115.49.007.022.076.048.106.038.114-.035.223-.087.35-.138l-.003.001ZM26.545 32.618l.367-.366c.343.354.712.68 1.014 1.061.42.53.04 1.34-.637 1.41-.234.025-.432-.08-.61-.22a1.902 1.902 0 0 1-.182-.161c-.277-.28-.55-.562-.829-.845l.35-.35c.212.219.418.438.632.651.121.122.24.245.377.35.199.151.393.141.531-.006.142-.152.151-.345-.015-.532-.232-.258-.484-.5-.732-.745-.084-.085-.177-.163-.27-.246l.004-.001ZM53.043 48.432c.029-.164.046-.31.08-.449.01-.037.07-.078.113-.087.119-.023.242-.021.36-.049.049-.012.086-.072.127-.113.003-.002.001-.009.002-.015.023-.16.106-.348.048-.47-.052-.11-.261-.144-.393-.224a.178.178 0 0 1-.071-.136c.01-.13.04-.258.066-.4.052.022.098.04.141.06.587.294 1.17.59 1.758.882.086.042.136.079.104.19-.038.13-.04.27-.074.401-.012.048-.073.113-.119.12-.703.098-1.407.19-2.14.287h-.002v.003Zm1.119-1.063-.076.453.87-.091-.794-.362ZM50.008 54.506c.1-.14.182-.259.273-.373.019-.023.066-.029.1-.035.018-.003.038.012.057.017.143.043.322.16.421.113.136-.066.219-.251.314-.393.021-.032.015-.106-.007-.14-.09-.127-.193-.244-.297-.377l.3-.414c.216.287.423.56.63.832.22.293.441.588.666.88.05.065.061.113.005.182-.091.113-.168.24-.261.352-.026.032-.094.058-.13.047-.682-.224-1.363-.453-2.07-.69v-.001Zm1.206-.09.824.307c-.196-.24-.37-.45-.556-.675-.094.129-.179.245-.268.37v-.001ZM23.797 48.255c.017.026.024.034.027.042.042.145.147.31.11.428-.036.115-.22.182-.34.27a2.711 2.711 0 0 1-.114.08c.05.168.093.333.152.493.015.04.077.066.122.091.019.01.05 0 .074 0 .448-.018.46-.006.524.477h-.21c-.625-.003-1.25-.012-1.876-.008-.128 0-.18-.042-.205-.158a2.262 2.262 0 0 0-.094-.319c-.039-.105-.021-.165.08-.23.586-.384 1.165-.774 1.752-1.166h-.002Zm-1.379 1.451h.858l-.136-.45-.722.45ZM41.528 28.479l-.83-.117-.067.433.782.118a55.32 55.32 0 0 1-.054.396l-.783-.107c-.025.167-.05.323-.074.494l.871.13-.052.4-1.367-.194.307-2.141c.441.062.868.124 1.318.186l-.053.403v-.002l.002.001ZM30.774 30.054c-.244.142-.479.277-.728.42.073.126.14.248.217.38l.688-.388.203.344-.687.399c.085.148.163.287.247.436l.77-.436.201.35c-.404.232-.797.455-1.198.684l-1.072-1.88 1.16-.663.2.352v.002ZM49.814 54.86l.214.344c-.119.07-.24.125-.34.205a.88.88 0 0 0-.23.273c-.083.162.053.323.232.288.087-.018.17-.062.255-.093.108-.04.214-.09.325-.12.232-.064.44-.02.604.167.16.184.187.394.108.622-.1.29-.398.584-.71.697l-.196-.33c.106-.07.208-.128.296-.2a.549.549 0 0 0 .162-.195c.027-.065.028-.17-.011-.219-.038-.047-.147-.069-.211-.052-.154.041-.298.12-.451.17-.218.076-.433.092-.63-.062-.253-.199-.33-.483-.19-.783.153-.336.42-.559.77-.713l.003.001ZM23.846 41.14l-.345-.213c.073-.115.145-.222.212-.333.027-.042.043-.091.06-.14.063-.197.035-.328-.084-.39-.115-.06-.215-.018-.357.148-.091.109-.18.22-.28.315-.18.166-.394.231-.628.133a.59.59 0 0 1-.378-.54c-.024-.344.099-.638.317-.915.115.076.224.145.326.212-.071.134-.147.254-.2.382-.069.172-.04.326.06.37.154.068.24-.043.331-.14.12-.13.227-.276.365-.38a.607.607 0 0 1 .957.392c.064.415-.087.769-.355 1.1v-.002ZM43.964 28.748l-.208.344c-.323-.193-.641-.33-.98-.082-.225.164-.338.563-.257.839.086.291.344.434.887.481-.007.103-.005.207-.029.307-.008.035-.076.082-.115.08-.34-.013-.662-.089-.93-.309-.344-.279-.427-.649-.324-1.064.111-.438.363-.755.822-.857.408-.09.774.028 1.132.26v.001h.002ZM35.508 28.474c.025.153.05.3.076.472l.764-.12.068.39-.758.135.136.853c-.166.028-.317.054-.482.08l-.361-2.13c.439-.076.866-.148 1.303-.222.022.139.042.257.066.398-.268.048-.533.093-.812.144ZM55.352 42c-.437-.128-.84-.251-1.247-.363a.614.614 0 0 0-.278-.007c-.241.046-.48.106-.735.164-.038-.158-.072-.309-.111-.476.237-.056.467-.103.693-.167a.78.78 0 0 0 .277-.135c.325-.271.64-.553.982-.85.045.183.088.345.116.509.006.03-.048.081-.083.108-.227.167-.458.33-.71.511.28.048.539.095.798.13.128.019.212.058.224.204.01.113.045.225.076.37l-.002.002ZM38.439 28.214h-.551v-.405h1.643v.418h-.595v1.735h-.497v-1.748ZM23.24 36.996l.374.173-.24.535 1.582.735-.206.446-1.584-.731-.25.525c-.125-.056-.242-.112-.374-.174.234-.504.464-1.001.698-1.51ZM25.155 34.802l1.4 1.04-.29.396c-.475-.35-.936-.691-1.405-1.039l-.35.464-.332-.245c.331-.449.657-.887.99-1.337.114.084.218.161.33.246l-.344.475M28.188 31.738l-.464.345-.251-.328 1.328-1.004.25.33-.466.36 1.047 1.391-.39.298-1.054-1.392ZM50.382 35.225l.534.67c-.11.088-.215.17-.324.26l-.845-1.053 1.686-1.354c.102.126.2.245.309.382l-1.361 1.096h.001ZM21.34 43.967l2.16.094c-.009.169-.017.32-.024.494-.717-.032-1.425-.062-2.136-.092v-.495ZM22.764 51.855a79.982 79.982 0 0 0-.193-.453c.665-.282 1.32-.562 1.99-.845l.195.453c-.663.282-1.322.562-1.992.845ZM26.597 57.307 26.31 57l1.475-1.507.357.376-1.544 1.44M25.442 37.518l-1.86-1.104.25-.424 1.86 1.103-.25.424v.001ZM48.28 58.11a.312.312 0 0 1-.313-.317c0-.179.151-.33.326-.324.171.005.313.15.314.323a.315.315 0 0 1-.327.318ZM28.61 58.11a.308.308 0 0 1-.319-.313.324.324 0 0 1 .31-.328.336.336 0 0 1 .33.326.323.323 0 0 1-.322.315ZM38.28 56.76l.813-.729-5.178-.528.859-.638-3.814-1.316a.198.198 0 0 0 .005-.025l4.952.884-.54.636 5 .437c-.173.142-.317.26-.494.408l4.797.212c0 .008 0 .016.002.024l-6.401.635ZM38.442 53.532c-1.887-.003-3.698-.361-5.411-1.164-1.521-.714-2.82-1.704-3.78-3.105a7.096 7.096 0 0 1-.941-2.02c-.057-.192.012-.344.125-.482.172-.215.41-.34.654-.452.7-.325 1.444-.506 2.194-.661a28.123 28.123 0 0 1 3.91-.518c.149-.01.103-.076.072-.155a8.2 8.2 0 0 1-.547-1.991c-.151-1.117-.057-2.214.228-3.3.318-1.202.855-2.302 1.542-3.332.49-.735.987-1.464 1.342-2.278.197-.45.352-.913.408-1.402.021-.192.15-.129.253-.142.11-.013.159.02.176.142.121.892.5 1.683.955 2.446.399.666.863 1.293 1.25 1.966.69 1.197 1.159 2.472 1.33 3.846a7.823 7.823 0 0 1-.55 4.017c-.059.141-.026.166.107.175.852.054 1.699.15 2.541.281 1.132.178 2.256.384 3.326.815.248.1.485.221.696.39a.93.93 0 0 1 .292.433c.023.065-.01.126-.028.188-.414 1.507-1.279 2.717-2.463 3.71-1.513 1.27-3.275 2.002-5.199 2.368-.82.156-1.648.23-2.483.224l.001.001Zm-9.501-5.71-.017-.01.01.016c.008.034.012.07.026.102.435 1.015 1.094 1.864 1.92 2.59a9.858 9.858 0 0 0 2.686 1.667c1.523.647 3.118.937 4.765.97.398.007.794-.032 1.19-.054.44-.025.872-.087 1.302-.168a11.592 11.592 0 0 0 3.494-1.224 9.453 9.453 0 0 0 1.822-1.291 7.18 7.18 0 0 0 1.435-1.767c.157-.277.307-.56.421-.883-.432.194-.866.285-1.298.383a18.43 18.43 0 0 1-2.052.342c-.54.06-1.08.118-1.622.143-.721.032-1.439-.036-2.151-.145-.783-.122-1.553-.292-2.297-.572a.262.262 0 0 0-.203-.006c-.46.182-.938.308-1.42.415-.802.176-1.613.294-2.435.314-.788.02-1.57-.058-2.35-.148a20.008 20.008 0 0 1-2.211-.387c-.345-.08-.677-.196-1.017-.289l.002.002Zm11.13-5.608c.268.008.515.045.747.153.087.04.133.109.12.206-.015.09-.074.148-.161.156-.142.012-.203.115-.277.211-.042.056-.026.08.03.113.116.07.233.142.337.227.11.09.103.24-.02.301-.174.087-.314.219-.463.335a1.445 1.445 0 0 1-.842.332c-.047 0-.085-.002-.098.06-.077.343-.3.588-.55.812-.06.053-.074.109-.074.184.002.722.003 1.443-.002 2.166 0 .096.024.145.117.17.15.038.298.081.444.135.085.03.126.005.175-.06.502-.677.986-1.364 1.38-2.11.857-1.618 1.153-3.328.82-5.135-.232-1.266-.718-2.436-1.4-3.526-.346-.555-.713-1.097-1.059-1.652a7.748 7.748 0 0 1-.822-1.76c-.038.01-.039.03-.045.05-.206.646-.516 1.242-.867 1.82-.394.65-.847 1.262-1.224 1.923-.675 1.186-1.126 2.448-1.267 3.809a7.523 7.523 0 0 0 .538 3.67c.438 1.072 1.08 2.021 1.764 2.946.05.068.102.054.158.038.163-.046.324-.103.488-.147.09-.025.108-.076.108-.162-.003-.727-.003-1.454 0-2.182a.254.254 0 0 0-.092-.206c-.237-.217-.451-.452-.516-.781-.016-.076-.068-.06-.115-.06-.343 0-.636-.132-.9-.34-.146-.113-.284-.24-.451-.328-.13-.068-.14-.217-.02-.311.097-.079.207-.141.312-.21.032-.02.084-.035.046-.089-.068-.099-.125-.216-.258-.237-.115-.018-.193-.065-.2-.185-.009-.122.077-.173.178-.213.218-.085.444-.12.68-.125-.001-.02 0-.036-.005-.05-.195-.454-.22-.927-.15-1.41.08-.536.202-1.071.196-1.618-.003-.271.055-.546-.022-.814-.03-.105-.028-.19.068-.252.097-.063.18-.023.259.048.094.086.19.168.296.259l.348-.76.417.57c.073-.115.119-.233.269-.212.133.019.154.154.237.24l.44-.598c.103.23.2.44.293.651.029.066.052.09.113.03.07-.072.15-.135.226-.202.078-.068.163-.08.247-.015.073.059.098.135.056.229a.384.384 0 0 0-.035.145c-.008.5 0 1 .074 1.495.052.348.124.694.159 1.045a2.4 2.4 0 0 1-.196 1.216h-.003v.004l-.006.001Zm-6.031 6.047a12.407 12.407 0 0 0 2.806-.307c.165-.037.164-.038.069-.167-.491-.67-.967-1.35-1.333-2.098-.085-.175-.182-.21-.354-.194-.883.079-1.767.166-2.644.302-.845.132-1.686.294-2.504.545-.434.133-.865.275-1.234.546-.225.165-.218.28.02.433.257.164.546.246.836.323a18.32 18.32 0 0 0 2.735.492c.597.062 1.193.12 1.602.125Zm5.846-.35a12.76 12.76 0 0 0 2.422.337c.792.031 1.58-.056 2.367-.145a17.9 17.9 0 0 0 2.627-.496c.279-.075.56-.158.794-.345.156-.124.156-.21.005-.342a1.871 1.871 0 0 0-.463-.28c-.556-.257-1.142-.413-1.736-.55-1.449-.33-2.918-.506-4.398-.612-.085-.006-.1.04-.128.094-.18.36-.378.708-.593 1.046-.276.438-.581.856-.898 1.288v.005Zm-1.454-9.364a4.8 4.8 0 0 0-.327.632c-.37.811-.662 1.642-.564 2.557.053.475.245.878.593 1.205.04.038.083.066.144.073.247.031.458-.018.603-.24.057-.09.127-.17.18-.261.306-.525.318-1.095.227-1.67-.128-.815-.455-1.558-.857-2.296m-.56 5.56a.578.578 0 0 0 .088.328c.12.204.297.354.466.513.037.034.067.032.103-.004.159-.156.332-.296.45-.488.194-.317.106-.757-.189-.938-.418-.258-.9.043-.917.589m1.78-5.395c-.106.09-.19.16-.273.235-.215.195-.213.195-.103.468.271.675.46 1.367.446 2.102-.005.22-.05.438-.093.663.065-.027.073-.08.093-.125.184-.41.207-.838.138-1.275-.061-.393-.14-.784-.177-1.182-.027-.285-.01-.572-.033-.886m-2.437 3.417c-.006-.034-.01-.069-.017-.102a3.337 3.337 0 0 1-.029-1.13c.075-.58.256-1.129.484-1.664.017-.041.06-.085.003-.134-.143-.124-.283-.25-.457-.406.057.818-.128 1.572-.22 2.335-.048.384.022.761.235 1.1v.002Zm-.724 1.293c.114.09.222.18.334.262.163.117.35.18.548.192.055.003.123.022.145-.068a1.1 1.1 0 0 1 .263-.486c-.315-.203-.89-.16-1.292.1h.002Zm2.64-.13c.152.15.252.31.294.503.017.08.065.085.133.078.342-.033.588-.233.836-.463-.409-.212-.813-.298-1.264-.116v-.002Zm-1.934-.48c-.154-.208-.325-.26-.58-.188.088.16.215.23.385.206.059-.008.117-.012.196-.018Zm3.05-.188c-.256-.074-.444-.017-.556.17.266.065.451.007.556-.17Zm-1.188-4.256c-.059.081-.102.132-.135.188-.045.078.017.14.058.185.04.041.074-.026.106-.05.146-.114 0-.198-.029-.324v.001Zm-1.184.389c.029-.054.061-.104.085-.16.033-.084-.043-.126-.08-.18-.02-.028-.04-.008-.059.015-.108.128-.095.224.055.326"></path><path fill="#fff" d="M38.469 65c-11.028 0-20-8.972-20-20s8.972-20 20-20S58.47 33.972 58.47 45 49.498 65 38.47 65Zm0-39.452c-10.725 0-19.45 8.726-19.45 19.45 0 10.726 8.725 19.452 19.45 19.452s19.452-8.726 19.452-19.451-8.727-19.45-19.452-19.45Z"></path><path fill="#fff" d="M38.469 58.722c-7.567 0-13.722-6.157-13.722-13.722 0-7.566 6.155-13.722 13.722-13.722 7.566 0 13.722 6.157 13.722 13.722 0 7.565-6.157 13.722-13.722 13.722Zm0-26.895c-7.263 0-13.172 5.91-13.172 13.172 0 7.262 5.91 13.172 13.172 13.172 7.263 0 13.172-5.91 13.172-13.172 0-7.263-5.91-13.172-13.172-13.172ZM130.936 49.421c-.514.368-1.06.661-1.702.738-1.135.136-2.208-.01-3.179-.662-.205-.137-.311-.288-.293-.551.027-.39.007-.783.007-1.2h1.307c.061.205.145.424.187.65a.485.485 0 0 0 .367.409c.47.146.946.17 1.42.037.305-.086.519-.275.558-.61.038-.341-.136-.587-.423-.704-.405-.167-.836-.267-1.253-.406-.399-.133-.805-.25-1.186-.425-1.465-.672-1.314-2.43-.272-3.214.74-.555 1.588-.617 2.466-.559.704.047 1.353.286 1.995.552v2c-.225-.01-.451-.038-.673-.022-.249.018-.346-.078-.387-.317-.037-.215-.076-.474-.214-.618-.361-.378-1.329-.438-1.779-.162-.239.146-.405.35-.398.643.008.307.186.52.46.625.29.113.593.203.896.273.751.17 1.488.365 2.094.875v2.65l.002-.002ZM96.474 49.883c-.103.004-.189.012-.276.012-1.11-.003-2.218-.015-3.328-.01-.218 0-.333-.042-.308-.29.026-.262-.066-.593.063-.77.115-.155.46-.148.708-.197.166-.033.245-.087.253-.28.064-1.695.145-3.39.219-5.085.003-.085 0-.17 0-.255l-.073-.024c-.04.077-.087.152-.116.233-.782 2.116-1.566 4.23-2.335 6.35-.085.236-.194.331-.44.307-.31-.032-.695.071-.914-.078-.206-.141-.245-.533-.347-.819-.68-1.912-1.357-3.826-2.036-5.739a.5.5 0 0 0-.18-.259c-.008.063-.026.127-.025.189.051 1.725.101 3.451.164 5.175.003.081.104.189.186.23.11.056.245.061.371.084.535.09.441.08.442.563.002.63 0 .63-.638.627l-2.946-.011h-.345c0-.346-.012-.658.01-.968.005-.068.122-.159.205-.186.256-.083.621-.061.754-.23.138-.175.06-.523.062-.797.013-1.873.015-3.748.04-5.62.003-.292-.097-.391-.363-.439-.66-.12-.659-.13-.656-.788v-.423c.076-.012.13-.026.186-.026 1.022.002 2.043.015 3.064.005.228-.002.275.129.33.292l2.176 6.407c.031.09.066.18.129.35.073-.159.122-.244.155-.335.755-2.116 1.512-4.23 2.254-6.35.085-.242.191-.332.456-.326.952.022 1.904.022 2.857.012.251-.003.332.079.309.319-.025.252.061.577-.066.74-.124.158-.455.166-.702.207-.206.034-.275.121-.275.328-.005 2.1-.018 4.2-.038 6.298 0 .21.077.298.273.336.246.05.602.047.705.202.129.195.05.526.055.799.001.076-.014.151-.023.24h.004ZM109.163 43.565v-1.221c0-.314-.006-.628.011-.941.011-.21-.07-.313-.275-.329-.008 0-.02-.003-.029-.005-.233-.064-.61-.069-.667-.206-.112-.269-.054-.612-.042-.924.003-.054.127-.145.195-.147.834-.002 1.668.013 2.502.015.205 0 .206.124.205.272a457.82 457.82 0 0 0-.014 2.03c-.013 2.08-.02 4.158-.04 6.237-.003.247.052.362.318.409.592.105.592.121.584.74-.008.558.078.493-.507.493-.589 0-1.178-.019-1.767-.007-.215.003-.3-.075-.319-.276-.015-.165-.05-.328-.076-.491l-.126-.112c-.037.092-.055.2-.113.274-.805 1.012-2.465.819-3.157.247-.613-.504-.963-1.156-1.085-1.928-.197-1.224-.17-2.427.432-3.553.584-1.093 1.611-1.585 2.745-1.29.292.076.558.271.815.442.115.076.178.231.264.35l.145-.079h.003-.002Zm-.035 2.895h.013c0-.392-.015-.785.005-1.177.015-.272-.092-.47-.279-.646-.702-.664-1.735-.458-2.083.442-.335.869-.342 1.77-.085 2.657.231.794.947 1.12 1.726.833.483-.177.701-.482.703-.99v-1.118M72.206 40.332H80.7v1.24c0 .178-.006.353-.007.53-.005.487-.257.728-.752.725h-.687c-.022-.293-.029-.564-.071-.831-.014-.085-.12-.22-.186-.221-.518-.02-1.038-.01-1.596-.01v6.727c.233.049.496.111.763.156.154.025.215.092.208.253-.012.284-.003.567-.003.881h-3.91V48.67c.259-.05.526-.107.793-.15.152-.024.21-.09.212-.25.007-2.089.02-4.178.039-6.267 0-.188-.058-.26-.253-.255-.432.009-.864.005-1.295-.005-.175-.003-.259.057-.251.234 0 .009 0 .02-.002.029-.04.257.006.617-.143.743-.158.132-.505.047-.767.046-.586-.004-.585-.008-.584-.602v-1.859l-.002-.002ZM97.745 45.124c0-.508-.008-.976.007-1.444.003-.073.093-.168.167-.213 1.1-.664 2.28-.883 3.535-.574 1.24.304 1.875 1.112 1.889 2.393.011 1.01-.004 2.02-.006 3.031 0 .291.139.462.419.51.048.007.096.017.175.032 0 .319.009.642-.009.96-.003.054-.124.144-.191.145-.599.007-1.198.003-1.796-.015-.081-.002-.19-.089-.229-.166-.082-.163-.126-.346-.195-.548-.098.081-.178.15-.259.218-.842.69-1.782.782-2.767.397-.777-.305-1.2-1.036-1.17-1.901.029-.834.473-1.44 1.293-1.753.732-.28 1.497-.28 2.265-.278.664.002.569.106.585-.565.01-.453-.066-.885-.528-1.094a1.655 1.655 0 0 0-1.555.08c-.118.068-.161.322-.178.496-.023.244-.13.306-.358.293-.352-.019-.706-.004-1.094-.004Zm3.048 1.787c-.109 0-.216-.003-.324 0-.337.01-.666.053-.936.285-.279.241-.398.625-.28.958a.71.71 0 0 0 .753.5c.323-.02.656-.096.955-.217.361-.148.536-.43.514-.862-.036-.655-.006-.656-.68-.665l-.002.001ZM124.742 48.971c0 .324.012.628-.01.93-.005.064-.124.172-.191.175-.6.01-1.198.005-1.797-.013-.079-.002-.187-.091-.225-.167-.08-.163-.124-.346-.191-.544-.085.07-.151.123-.217.179-.807.692-1.727.815-2.704.478-.82-.285-1.217-.91-1.264-1.771-.045-.849.31-1.456 1.067-1.831.653-.324 1.358-.36 2.067-.375.206-.004.413.002.619.003.251.001.378-.128.38-.388v-.119c.005-.457-.041-.91-.506-1.139-.517-.254-1.052-.2-1.562.043-.077.035-.129.164-.154.259-.046.168-.064.344-.097.531h-1.395c0-.478-.006-.945.006-1.411.001-.07.065-.167.128-.205 1.275-.766 2.623-.99 4.031-.438.92.362 1.409 1.075 1.421 2.073.014 1.069.003 2.14.003 3.208 0 .524-.023.399.41.49l.18.034v-.002h.001Zm-2.475-1.262c0-.205-.004-.332 0-.458.005-.144-.046-.221-.201-.217-.381.012-.771-.026-1.14.042-.25.047-.518.196-.697.38-.348.357-.259.975.147 1.195.453.245.911.162 1.35-.06.391-.197.649-.476.541-.881v-.001ZM71.516 49.75c-.111.007-.197.02-.282.019-1.11-.005-2.218-.016-3.328-.014-.222 0-.327-.052-.303-.296.026-.261-.073-.603.058-.767.13-.16.48-.156.737-.2.178-.032.245-.105.245-.29.005-2.128.018-4.257.033-6.385.001-.182-.06-.28-.244-.29-.01 0-.02-.003-.03-.005-.242-.064-.626-.061-.696-.208-.12-.249-.05-.592-.037-.894.002-.057.117-.154.182-.155 1.226-.01 2.452-.007 3.722-.007 0 .379.003.707-.005 1.034 0 .042-.06.095-.105.12-.049.028-.113.032-.17.042-.735.134-.738.133-.741.87-.011 1.933-.012 3.865-.036 5.798-.003.279.088.382.35.408.213.021.423.078.648.122v1.099h.002ZM62.99 40.252h3.918c0 .347.008.676-.008 1.004-.002.053-.108.127-.179.145a4.177 4.177 0 0 1-.606.114c-.17.02-.233.095-.234.266-.006 2.147-.015 4.296-.03 6.443 0 .17.079.22.22.245.258.048.515.102.758.15.017.042.032.06.032.078l-.025.993c-.319.016-.638.043-.957.044-.864.002-1.727-.006-2.591-.011-.106 0-.212-.01-.333-.015v-1.1l.987-.2c.006-.096.016-.19.016-.286.016-2.08.026-4.16.05-6.238.004-.248-.057-.359-.32-.406-.701-.125-.698-.14-.695-.864v-.364l-.003.002ZM115.553 43.879c.068-.102.134-.203.205-.304.399-.559.928-.825 1.624-.723.184.027.272.091.237.305-.074.473-.124.95-.186 1.459-.173 0-.336-.007-.498.001-.243.012-.493.007-.729.062-.454.105-.669.402-.671.864-.005.94.001 1.882-.02 2.822-.006.26.079.37.33.399.193.022.382.077.575.118v1.095h-3.701c0-.337-.01-.648.008-.959.003-.062.106-.148.181-.175.226-.078.554-.064.669-.217.119-.16.04-.47.041-.715.008-1.108.007-2.215.024-3.324.004-.227-.059-.327-.292-.372-.726-.14-.71-.15-.717-.895-.002-.29.069-.39.377-.379.716.028 1.433.02 2.149.012.188 0 .263.062.27.25.005.218.036.437.055.657l.069.018v.001ZM130.936 49.421s.595-.4.595-1.241c0-.842-.595-1.408-.595-1.408"></path></svg>