<svg xmlns="http://www.w3.org/2000/svg" width="138" height="49" fill="none" viewBox="0 0 138 49"><path fill="#000" d="M17.695 41.82v-.375c.055-.452.43-.684.849-.485.165.077.33.199.418.353.176.298.298.629.44.948.012.033.012.078.023.11.033.089.617.232.694.177.21-.165.43-.154.606.044.187.21.275.441.21.728-.045.188-.067.375-.111.585.21.044.408.077.628.121.055-.276.1-.54.154-.816-.187-.088-.518 0-.507-.386.188.033.375.055.551.088-.066-.198-.165-.386-.198-.584-.044-.287.1-.475.353-.508.23-.044.561.166.617.386 0 .033-.012.066-.023.11-.044-.033-.066-.044-.088-.066-.165-.143-.33-.165-.484-.055-.155.11-.199.298-.11.496.033.078.055.155.088.232a.2.2 0 0 1-.044.055c.87.066 1.74.122 2.633.188-.044-.166-.088-.287-.11-.408-.089-.43.242-.783.683-.717.319.044.572.22.793.441.132.132.264.276.374.43.078.11.155.177.287.144.21-.056.341.044.44.253-.099 0-.198.022-.308.033l.132 1.963c-.341-.099-.385-.143-.407-.463a13 13 0 0 1-.044-.706c-.254.022-.496.011-.728.066-.066.012-.154.155-.165.254-.022.22.1.397.242.563.067.077.144.154.232.253-.022.022-.055.066-.132.144-.232-.287-.452-.53-.617-.794-.232-.364-.033-.828.462-.795.22.012.441-.022.661-.044v-.397c-.506.033-.991.066-1.509.089v1.93c-.32-.089-.397-.177-.397-.453 0-.44.022-.87.034-1.312v-.187h-.452c-.055.65-.1 1.3-.154 1.94-.342-.099-.397-.33-.309-.65-.055.01-.077.022-.088.033-.452.231-.782.143-1.069-.265-.11-.165-.165-.33-.077-.518.1-.199.276-.276.485-.287.253 0 .463.11.639.287.044.044.077.088.132.143.011-.066.022-.099.033-.143.011-.188.022-.375.044-.596-.495-.033-.991-.066-1.51-.11-.054.32-.12.64-.175.96-.055.308-.11.628-.177.992-.11-.154-.32-.187-.297-.397.01-.154.055-.309.077-.485-.21-.044-.408-.077-.628-.121-.022.077-.033.154-.044.22-.044.165-.176.22-.287.1a1.4 1.4 0 0 1-.308-.464c-.088-.198-.011-.265.198-.253h.133c.021-.133.044-.254.066-.342-.21-.221-.397-.43-.617-.673-.077.242-.133.43-.199.64a20 20 0 0 0-.76-.221c-.21-.066-.341 0-.396.143-.045.155.044.32.23.386.078.033.166.044.265.067.011-.177.11-.254.265-.243.165 0 .264.1.286.265.033.21-.099.297-.297.364.11.22.209.419.33.65l-.21.088a9 9 0 0 1-.175-.485c-.353.22-.695.265-1.014-.033-.22-.199-.253-.33-.154-.584-.474-.32-.507-.607-.077-.839.066.11.132.21.209.32-.055.1-.264.133-.132.309.099.121.198.077.32 0-.023-.066-.056-.132-.067-.21-.077-.386.176-.64.573-.551.176.044.353.1.55.154.034-.099.056-.187.09-.286-.574-.177-1.125-.342-1.709-.519-.231.574-.462 1.18-.705 1.787-.264-.232-.286-.276-.165-.574.154-.396.309-.805.463-1.202a1 1 0 0 0 .055-.165c-.132-.044-.242-.088-.386-.143-.286.584-.562 1.169-.848 1.753-.254-.242-.265-.309-.132-.584.055-.122.12-.243.187-.386-.33-.067-.507-.276-.595-.574-.165.066-.32.132-.518.22.11.287.232.596.353.905-.055.022-.121.055-.232.1-.12-.497-.23-.971-.341-1.445v-.11c0-.122.055-.243.187-.265.143-.023.177.099.21.21q.002.032.022.065c.242-.01.462-.264.407-.485-.01-.044-.077-.088-.121-.121-.088-.055-.187-.089-.286-.133-.089-.044-.166-.099-.265-.154-.32.551-.65 1.114-.98 1.676-.232-.264-.232-.33-.066-.606.242-.42.484-.838.749-1.28-.199-.088-.353-.21-.276-.485.165.088.32.188.496.287.033-.144.055-.265.1-.386.153-.43.583-.551.947-.276.253.188.385.463.462.761.066.22.088.441.133.673 0 .044.022.121.066.132.308.144.628.276.958.42zm-1.135-.496c-.066-.474-.198-.86-.55-1.125-.21-.154-.43-.143-.618.044-.088.088-.154.22-.253.364.485.243.937.474 1.421.717m2.689 1.048s.022-.033.044-.055c-.1-.353-.265-.662-.573-.883-.375-.276-.738-.132-.86.31-.022.087 0 .131.088.164.441.155.87.31 1.312.464zm5.288.772c.54-.033 1.036-.055 1.564-.088-.286-.386-.606-.651-1.057-.684a.407.407 0 0 0-.463.33c-.033.133-.022.265-.044.442m-8.55-1.787c-.044.154-.044.309-.11.43-.088.166-.033.287.077.408.122.144.276.177.452.133.044 0 .088-.045.11-.078.088-.165.166-.33.254-.518-.265-.132-.518-.254-.771-.375zm7.437 3c-.253-.353-.529-.452-.804-.32-.143.066-.265.165-.22.342.044.176.198.22.352.198.22-.044.43-.132.661-.21m-4.44-.176s-.01-.033-.022-.055c-.099-.055-.198-.132-.308-.154-.1-.022-.21 0-.298.055-.044.022-.077.176-.055.199.066.066.176.132.265.11.143-.022.286-.11.43-.166zm1.587-.981c.022-.11.055-.21.055-.32 0-.066-.044-.132-.066-.199-.078.034-.177.045-.22.1-.122.143-.023.342.23.419M29.629 44.334c.055-.176.121-.32.132-.463 0-.1-.066-.254-.154-.298-.077-.044-.231.011-.309.066-.143.1-.22.243-.165.441.077.243.1.486.154.728-.385 0-.484-.253-.484-.562h-.044a.645.645 0 0 1-1.047-.364c-.022-.11.033-.265.11-.364.121-.154.32-.176.507-.121.11.033.21.099.33.154-.044-.21-.088-.408-.132-.607a30 30 0 0 1-.86.177c-.275.055-.275.055-.495-.188 1.29-.264 2.578-.463 3.79-1.003-.044-.022-.1-.044-.143-.077a2.2 2.2 0 0 1-.364-.353.384.384 0 0 1 .022-.497c.122-.154.386-.231.606-.154.088.033.166.088.243.143a.1.1 0 0 1-.022.056h-.122c-.209-.045-.352.022-.43.187-.087.176-.032.353.144.485l.198.166v.077c.562-.254 1.135-.507 1.686-.772.374-.188.738-.386 1.102-.607.187-.11.341-.132.528.022-.088.055-.176.11-.264.177.33.573.65 1.136.98 1.698-.385.055-.396.055-.572-.242l-.727-1.258c-.122.078-.232.133-.342.21.275.584.55 1.18.826 1.764q-.396.02-.562-.308c-.088-.188-.176-.364-.275-.574-.176.088-.353.166-.518.243.132.088.254.143.353.231.176.144.209.342.132.519a.45.45 0 0 1-.463.275c-.485-.044-.826-.341-1.135-.683-.022-.022.011-.089.023-.122.23.155.43.31.65.42.242.12.451.066.517-.1.066-.143-.044-.33-.264-.44-.077-.045-.154-.067-.242-.1a6 6 0 0 1-.254-.077c.364-.177.694-.331 1.047-.497-.066-.132-.121-.264-.188-.397-.572.276-1.134.54-1.707.805.21.607.407 1.214.617 1.82-.463.088-.474-.276-.584-.573-.21.066-.408.132-.628.21.022.076.044.142.055.209.033.176-.055.286-.22.231a1.7 1.7 0 0 1-.54-.297c-.154-.133-.11-.243.088-.32.044-.011.077-.033.132-.056-.088-.264-.176-.529-.253-.738-.397.088-.771.176-1.168.264.033.177.066.353.099.552.187-.166.364-.276.584-.11.275.198.485.44.463.816 0 .12-.055.242-.088.386-.133-.078-.232-.144-.331-.199zm.793-1.875c.1.276.188.53.276.805.22-.077.43-.143.639-.22-.1-.276-.188-.54-.276-.805-.21.077-.407.143-.639.22m-1.719 1.357c-.165-.243-.528-.188-.671.033-.045.066-.056.198-.012.242.044.067.166.1.243.089.21-.033.33-.188.44-.364M42.788 25.686v-.563c.65-.033 1.3-.066 2.005-.11-.264-.077-.495-.143-.716-.21-.363-.11-.727-.22-1.09-.32-.144-.032-.199-.099-.177-.242.011-.088 0-.187 0-.298.64-.176 1.267-.353 1.895-.53v-.021h-.143c-.551-.011-1.09-.033-1.642-.044-.143 0-.187-.044-.176-.177v-.386c.87.044 1.74.077 2.655.122v.738c0 .034-.077.089-.121.1-.54.165-1.08.32-1.62.485l.992.265c.22.066.44.132.65.187.088.022.132.066.132.166 0 .176.022.352 0 .54 0 .044-.077.132-.12.132-.805.066-1.62.11-2.425.166-.022 0-.044 0-.088-.011M4.653 27.494c.606-.088 1.212-.177 1.84-.265.022.188.055.364.077.552-.87.11-1.74.231-2.61.342-.034-.21-.067-.408-.078-.596 0-.066.055-.143.11-.187.485-.353.97-.695 1.455-1.037.01 0 .022-.022.044-.044-.573.088-1.146.165-1.741.253-.022-.198-.044-.364-.066-.551.87-.11 1.719-.232 2.61-.342.023.199.056.386.067.585 0 .044-.066.11-.121.143l-1.576 1.147zM6.33 22.499c-.87-.144-1.729-.276-2.6-.42.034-.209.056-.407.1-.595.01-.055.088-.132.154-.154.562-.199 1.135-.386 1.708-.585.022 0 .033-.022.044-.022-.584-.088-1.157-.165-1.752-.254.033-.198.066-.364.088-.551.87.143 1.719.276 2.6.419-.033.188-.044.375-.088.552-.01.044-.077.099-.132.12-.595.21-1.179.409-1.774.618-.022 0-.055.022-.132.045.65.099 1.256.187 1.873.286-.033.188-.055.353-.088.552zM36.547 7.214c.166.11.309.21.463.308-.496.74-.97 1.456-1.465 2.195-.166-.11-.32-.198-.452-.309-.044-.033-.066-.11-.066-.165.055-.662.121-1.324.187-1.985-.341.518-.672 1.036-1.024 1.566-.155-.1-.298-.199-.463-.309.485-.728.97-1.456 1.465-2.195.176.122.353.232.518.353.044.033.055.122.044.177-.044.617-.1 1.224-.154 1.82.297-.464.606-.938.936-1.445zM8.976 38.314c-.132-.166-.265-.32-.375-.475a.23.23 0 0 1 0-.21c.232-.573.463-1.135.683-1.675-.418.352-.86.716-1.322 1.102-.121-.154-.231-.286-.352-.44.683-.552 1.355-1.104 2.049-1.655.121.154.253.298.363.452.022.033 0 .121-.022.166-.242.584-.495 1.18-.749 1.764 0 .022-.022.044-.044.1.507-.42.98-.817 1.476-1.214.122.155.232.287.353.43-.683.552-1.355 1.103-2.05 1.666zM44.658 29.986c-.143.42-.253.816-.418 1.18-.265.585-.783.805-1.367.662-.716-.176-1.101-.629-1.101-1.28 0-.473.176-.904.363-1.323.011-.033.088-.066.122-.055.782.265 1.564.53 2.401.816m-2.247-.121c-.22.43-.199.805.044 1.059.253.275.771.408 1.069.286.275-.11.484-.463.473-.794-.529-.176-1.046-.352-1.586-.54zM9.216 34.343c-.75.43-1.488.85-2.248 1.29-.363-.562-.86-1.08-.716-1.83.165-.916 1.454-1.346 2.16-.728.385.341.605.783.815 1.257zm-.694-.298c-.144-.397-.419-.65-.739-.662-.385-.022-.848.243-.969.563-.143.364.011.65.242.948.496-.286.98-.562 1.477-.849zM18.456 7.059c-.705 0-1.278-.662-1.278-1.467 0-.717.573-1.268 1.3-1.28.705 0 1.267.662 1.278 1.49 0 .705-.562 1.246-1.3 1.246m.683-1.147c0-.353-.165-.74-.397-.938-.32-.265-.771-.143-.892.254-.11.375 0 .717.21 1.025.175.265.44.364.693.276.254-.077.386-.309.386-.628zM41.182 15.571c-.529-.01-.882-.287-1.102-.728-.22-.43-.198-.849.088-1.235.353-.474.838-.728 1.444-.64.517.067.837.398 1.002.872.165.452.055.86-.275 1.213a1.6 1.6 0 0 1-1.146.53zm-.055-.606c.341-.044.683-.22.914-.585a.52.52 0 0 0 .022-.573.54.54 0 0 0-.518-.287c-.43.033-.782.22-.991.607-.232.397.044.838.573.838M36.522 10.113c0-.74.694-1.434 1.421-1.445.661 0 1.267.584 1.278 1.235 0 .717-.727 1.445-1.432 1.445-.661 0-1.267-.585-1.267-1.235m2.115-.32c0-.386-.308-.65-.683-.563-.397.089-.793.519-.86.927a.546.546 0 0 0 .551.64c.441 0 .981-.552 1.003-1.004zM32.985 6.893c-.297-.132-.584-.265-.881-.397-.155.33-.298.65-.463.993-.187-.078-.353-.155-.55-.243.363-.805.726-1.588 1.09-2.404l.54.253c-.144.31-.276.607-.419.927l.881.408c.144-.309.287-.607.43-.915l.54.253c-.364.805-.727 1.588-1.09 2.404l-.54-.253c.154-.331.297-.65.451-1.004zM40.859 32.447c.088-.176.176-.342.275-.529.771.397 1.532.794 2.314 1.202-.188.463-.342.938-.727 1.28a.62.62 0 0 1-.716.099.69.69 0 0 1-.42-.607v-.11c-.473.22-.892-.066-1.354-.088.088-.177.165-.331.242-.464.022-.044.11-.077.165-.066.177.022.353.066.518.11.364.078.474.011.617-.352-.297-.155-.595-.31-.903-.475zm1.31.684c-.11.22-.275.42-.12.65.066.089.23.177.33.166.265-.033.33-.276.419-.496l-.628-.33zM42.65 17.7c-.054-.131-.087-.242-.143-.374.144-.055.276-.11.43-.177.121.31.242.607.364.916-.419.165-.816.33-1.223.485-.033.011-.1 0-.121-.033-.287-.364-.507-.772-.551-1.246-.055-.662.341-1.17 1.013-1.335.562-.132 1.025.022 1.378.474.275.353.407.75.418 1.203-.165.022-.32.044-.44.055-.089-.265-.144-.519-.254-.74a.726.726 0 0 0-.804-.418c-.452.088-.76.342-.771.717 0 .198.088.397.143.595 0 .033.088.055.132.044.143-.044.275-.11.43-.165M10.01 9.286l.452-.452c.419.43.87.827 1.234 1.29.507.651.055 1.633-.771 1.72-.287.034-.53-.098-.75-.264-.077-.066-.154-.121-.22-.198-.341-.342-.672-.684-1.013-1.026l.43-.43c.264.264.506.53.77.794.144.143.298.298.463.43.243.188.474.176.65 0 .177-.187.188-.42-.022-.65-.286-.32-.595-.607-.892-.916-.1-.1-.22-.199-.33-.298M42.309 28.574c.033-.198.055-.375.099-.551.011-.044.088-.1.143-.11.143-.034.298-.023.44-.056.056-.01.111-.088.155-.132v-.022c.022-.198.132-.42.055-.573-.066-.133-.32-.177-.474-.276a.25.25 0 0 1-.088-.166 4 4 0 0 1 .078-.485c.066.033.12.044.176.077.716.364 1.421.717 2.137 1.07.11.055.165.1.132.232-.044.154-.044.33-.088.485a.23.23 0 0 1-.143.143c-.86.122-1.719.232-2.611.353zm1.366-1.29c-.033.187-.066.364-.088.551.363-.033.683-.077 1.057-.11-.352-.154-.65-.298-.969-.441M38.621 35.987c.121-.166.22-.32.33-.453.023-.033.078-.033.122-.044.022 0 .044.011.066.022.176.055.397.199.518.133.165-.078.264-.31.386-.486.022-.044.022-.132 0-.165-.11-.154-.232-.298-.364-.463.121-.166.242-.331.364-.508.264.353.517.684.77 1.015.276.353.54.717.816 1.07.066.077.077.143 0 .22-.11.144-.21.287-.32.43a.17.17 0 0 1-.154.056c-.826-.276-1.663-.552-2.523-.839zm1.466-.11c.33.12.65.242 1.002.374-.242-.286-.451-.551-.672-.827-.11.154-.22.298-.33.452M6.665 28.365s.033.044.033.055c.055.177.176.375.132.519-.044.143-.265.22-.419.33-.044.034-.088.067-.143.1.066.21.11.408.187.595.022.045.1.078.155.11.022.012.066 0 .088 0 .55-.021.562 0 .639.585h-.254c-.76 0-1.52-.01-2.28 0-.155 0-.22-.055-.254-.198a4 4 0 0 0-.11-.386c-.044-.133-.022-.199.1-.287.715-.463 1.42-.948 2.137-1.423zM4.99 30.13h1.047c-.066-.199-.11-.375-.166-.552-.308.188-.584.364-.881.552M28.288 4.236a37 37 0 0 0-1.014-.143c-.033.176-.055.342-.088.53.32.043.628.099.958.143-.022.165-.044.309-.066.485-.32-.044-.628-.088-.958-.132-.033.198-.055.397-.088.606.352.055.694.11 1.057.155-.022.154-.044.308-.066.485-.55-.077-1.09-.154-1.663-.232.12-.87.242-1.731.374-2.613.54.077 1.058.154 1.609.231-.022.166-.044.32-.066.496zM15.18 6.153c-.297.176-.583.342-.892.507.088.154.177.298.265.463.275-.154.55-.308.837-.474.088.143.154.265.253.42-.275.165-.55.319-.837.484l.298.53c.308-.177.617-.353.936-.53.077.144.154.276.242.43-.495.287-.97.552-1.465.839-.44-.761-.87-1.522-1.31-2.294.462-.265.925-.53 1.41-.805.076.143.153.275.242.43zM38.378 36.416c.1.154.176.287.264.42-.143.087-.297.154-.418.253a1 1 0 0 0-.276.33c-.099.2.066.398.287.354.11-.023.21-.078.308-.11.133-.045.265-.111.397-.144.286-.077.54-.022.738.198s.232.486.132.761c-.12.353-.484.717-.87.85a8 8 0 0 0-.242-.398c.132-.088.253-.154.363-.242.077-.066.165-.144.199-.243.032-.077.032-.21-.011-.264-.045-.056-.177-.089-.254-.067-.187.056-.363.144-.55.21-.265.088-.53.11-.772-.077-.309-.243-.397-.585-.231-.96.187-.408.506-.684.936-.871M6.731 19.685c-.154-.1-.286-.176-.419-.254.088-.143.177-.275.254-.408.033-.055.055-.11.077-.165.077-.243.044-.397-.1-.474-.143-.078-.264-.022-.429.176-.11.133-.22.265-.342.386-.22.199-.473.287-.76.166-.286-.122-.44-.353-.462-.662-.033-.42.12-.783.385-1.114.143.088.276.176.397.254-.088.165-.176.308-.243.463-.088.21-.055.397.078.452.187.088.297-.055.407-.177.143-.154.276-.33.44-.463a.74.74 0 0 1 1.169.475c.077.507-.11.937-.43 1.345zM31.25 4.566c-.099.154-.176.287-.253.42-.397-.232-.782-.409-1.19-.1-.275.198-.408.684-.308 1.025.11.353.418.53 1.08.585 0 .121 0 .254-.034.375 0 .044-.088.1-.143.1-.419-.023-.804-.111-1.135-.376-.418-.342-.518-.794-.396-1.301.132-.53.44-.915 1.002-1.048.496-.11.948.033 1.377.32M20.94 4.234c.032.187.054.364.087.573.309-.044.617-.099.926-.143.033.154.055.298.088.474-.298.055-.595.11-.926.166.056.342.11.683.166 1.036-.199.033-.386.067-.584.1a258 258 0 0 0-.44-2.603c.539-.088 1.057-.177 1.586-.265.033.166.055.31.077.486-.33.055-.65.11-.992.176M45.123 20.734c-.529-.155-1.024-.31-1.52-.442a.6.6 0 0 0-.342 0c-.297.056-.584.133-.892.199-.044-.198-.088-.375-.132-.584.286-.067.572-.122.848-.199a1 1 0 0 0 .341-.165c.397-.331.783-.673 1.201-1.037.055.22.11.419.143.617 0 .034-.055.1-.099.133-.275.21-.562.408-.87.628.342.056.661.122.97.166.154.022.264.066.275.253.011.144.055.276.088.453zM24.52 3.914h-.672v-.496h2.005v.507h-.727v2.118h-.606zM6.004 14.624c.165.077.298.144.452.21-.1.22-.187.419-.298.65.64.298 1.278.596 1.928.894l-.253.54c-.65-.297-1.278-.595-1.928-.893-.1.21-.198.419-.309.64a8 8 0 0 1-.451-.21c.286-.617.562-1.224.848-1.842zM8.31 11.955c.572.43 1.134.838 1.707 1.268-.121.165-.231.32-.353.485-.573-.43-1.134-.838-1.707-1.268l-.43.562c-.143-.099-.264-.198-.408-.298.408-.55.805-1.08 1.212-1.632.143.1.265.199.408.298-.143.199-.276.375-.419.585M12.015 8.216c-.187.143-.375.276-.562.419-.099-.132-.198-.265-.308-.397.54-.408 1.068-.816 1.62-1.224q.145.198.308.397a20 20 0 0 0-.562.44c.43.563.848 1.126 1.278 1.7-.154.12-.309.23-.474.363-.43-.562-.848-1.125-1.289-1.698zM39.07 12.462l.65.816c-.132.11-.264.21-.396.32-.342-.43-.683-.85-1.025-1.28.683-.551 1.366-1.091 2.05-1.654.12.155.242.298.374.463-.551.452-1.102.894-1.653 1.335M3.684 23.127c.892.044 1.752.077 2.633.11-.011.21-.022.386-.033.607-.87-.033-1.74-.077-2.6-.11zM5.415 32.755c-.077-.188-.154-.364-.231-.552.815-.342 1.608-.683 2.424-1.025.077.187.154.353.242.551-.804.342-1.609.684-2.424 1.026M10.075 39.404c-.088-.088-.209-.231-.352-.375.595-.606 1.2-1.224 1.796-1.842.143.144.275.287.44.464-.606.562-1.233 1.158-1.884 1.753M8.67 15.264c-.76-.452-1.51-.893-2.27-1.345.1-.177.199-.342.31-.519.76.453 1.497.894 2.269 1.346-.1.176-.199.342-.309.518M36.497 40.387a.377.377 0 0 1-.385-.386c0-.221.187-.398.396-.398a.4.4 0 0 1 .386.398.38.38 0 0 1-.397.386M12.54 40.387a.377.377 0 0 1-.385-.386c0-.221.165-.398.374-.398.21 0 .408.188.408.398s-.176.386-.397.386M24.317 38.733c.341-.31.639-.574.991-.894-2.115-.22-4.186-.43-6.313-.64.364-.275.694-.518 1.047-.782-1.564-.54-3.107-1.07-4.65-1.61v-.034c2.006.353 4 .717 6.038 1.081-.22.265-.43.508-.66.772 2.037.177 4.043.353 6.092.53-.21.176-.386.32-.606.496 1.983.088 3.91.176 5.85.254v.033c-2.578.253-5.167.518-7.8.772zM24.513 34.794c-2.302 0-4.506-.441-6.6-1.423-1.85-.871-3.437-2.073-4.604-3.783a8.6 8.6 0 0 1-1.146-2.459c-.066-.232.01-.42.154-.585.21-.264.496-.419.793-.551.849-.397 1.763-.618 2.678-.805 1.575-.33 3.162-.53 4.77-.629.176-.01.121-.088.088-.187-.32-.783-.55-1.588-.672-2.426-.187-1.357-.066-2.703.276-4.026.385-1.467 1.035-2.812 1.872-4.07.595-.893 1.201-1.786 1.631-2.779.242-.551.43-1.113.496-1.709.022-.232.187-.154.308-.176.132-.011.199.022.21.176.154 1.092.605 2.051 1.167 2.989.485.816 1.047 1.577 1.52 2.393.838 1.456 1.411 3.01 1.62 4.687a9.55 9.55 0 0 1-.672 4.897c-.077.176-.033.198.132.21 1.036.065 2.072.187 3.096.341 1.377.22 2.744.474 4.055.993.308.121.595.275.848.474.176.143.286.32.352.53.034.076-.01.154-.032.23-.507 1.843-1.554 3.32-2.997 4.534-1.84 1.544-3.989 2.437-6.335 2.89a16.4 16.4 0 0 1-3.03.275zm-11.579-6.96s-.011 0-.022-.01c0 0 0 .01.011.022 0 .044.011.088.033.121.529 1.235 1.333 2.272 2.336 3.165.98.86 2.082 1.522 3.272 2.03 1.85.783 3.8 1.147 5.806 1.18.485 0 .97-.033 1.454-.066.54-.034 1.058-.11 1.587-.21a14.3 14.3 0 0 0 4.263-1.489c.805-.441 1.543-.96 2.226-1.577a8.7 8.7 0 0 0 1.752-2.15c.187-.343.374-.684.517-1.081-.528.231-1.057.341-1.586.463-.826.187-1.653.32-2.501.419-.661.077-1.311.143-1.972.176-.881.044-1.752-.044-2.622-.176-.959-.143-1.895-.353-2.799-.695-.088-.033-.165-.044-.253 0-.562.22-1.146.375-1.73.507-.98.221-1.96.364-2.963.386-.959.023-1.906-.066-2.865-.176a25 25 0 0 1-2.699-.474c-.419-.1-.826-.243-1.234-.353zm13.562-6.848c.33 0 .628.055.915.188.11.055.165.132.143.253-.022.11-.088.177-.198.188-.177.01-.254.143-.342.253-.055.067-.033.1.033.144.143.088.287.176.408.275.132.11.121.298-.022.364-.21.11-.386.265-.562.408-.309.243-.64.386-1.025.409-.055 0-.099 0-.12.077-.1.419-.364.716-.673.992-.077.066-.088.133-.088.22v2.648c0 .121.033.176.143.21.187.043.364.099.54.165.1.033.154 0 .21-.078.605-.827 1.2-1.665 1.685-2.57 1.047-1.973 1.4-4.058 1.003-6.263-.287-1.544-.882-2.967-1.708-4.301-.419-.673-.87-1.335-1.29-2.019a9.6 9.6 0 0 1-1.002-2.15c-.044.01-.044.033-.055.055-.253.783-.628 1.51-1.058 2.217-.484.794-1.035 1.544-1.487 2.349-.826 1.444-1.366 2.988-1.542 4.643-.166 1.544.066 3.032.66 4.477.53 1.313 1.312 2.47 2.15 3.595.065.089.12.067.197.045.199-.056.397-.122.595-.177.11-.033.133-.088.133-.198v-2.658a.32.32 0 0 0-.11-.254c-.287-.264-.552-.551-.629-.948-.022-.089-.088-.078-.143-.078-.419 0-.771-.165-1.102-.419-.176-.143-.341-.297-.55-.397-.166-.088-.177-.264-.022-.375.12-.099.253-.176.385-.253.033-.022.1-.044.055-.11-.088-.122-.154-.265-.32-.287-.142-.022-.23-.078-.242-.22 0-.155.1-.21.22-.265.265-.1.54-.144.827-.155v-.066c-.242-.552-.264-1.136-.187-1.72.099-.651.242-1.313.242-1.975 0-.33.066-.661-.022-.992-.033-.133-.033-.232.088-.309s.22-.033.32.055c.11.11.231.21.363.32.143-.32.276-.607.43-.926.176.242.341.463.507.694.088-.143.143-.286.33-.264.165.022.188.187.287.297.176-.242.352-.485.54-.728.132.276.242.54.352.795.033.077.066.11.132.033.088-.089.188-.166.276-.243.099-.088.198-.1.297-.022.088.077.121.165.066.276a.5.5 0 0 0-.044.176c0 .607 0 1.224.088 1.82.067.43.155.85.199 1.28a3 3 0 0 1-.243 1.477zm-7.348 7.378c1.31 0 2.369-.143 3.415-.375.198-.044.198-.044.088-.21-.595-.816-1.179-1.643-1.62-2.558-.098-.21-.22-.254-.429-.243-1.08.1-2.148.199-3.217.375-1.025.166-2.05.353-3.052.662-.529.165-1.057.33-1.498.662-.276.198-.265.342.022.53.308.198.661.297 1.025.396 1.09.287 2.203.485 3.327.596.727.077 1.454.143 1.95.154zm7.128-.43c.991.232 1.961.375 2.953.408.97.033 1.928-.066 2.886-.176 1.08-.122 2.148-.32 3.206-.607.342-.088.683-.198.97-.419.187-.154.187-.254 0-.42a2.3 2.3 0 0 0-.562-.341c-.672-.309-1.389-.507-2.116-.673-1.762-.408-3.558-.617-5.354-.75-.1 0-.121.056-.154.11-.22.442-.463.86-.727 1.28-.342.53-.706 1.048-1.091 1.577zM24.502 16.52a5 5 0 0 0-.396.771c-.452.993-.805 2.008-.684 3.122.067.573.298 1.07.728 1.466.055.044.099.078.176.089.297.044.562-.022.738-.298.066-.11.154-.21.22-.32.375-.64.386-1.334.276-2.04-.154-.993-.551-1.897-1.047-2.801m-.694 6.793c0 .132.033.276.11.397.144.254.364.43.573.629.044.044.077.044.121 0 .199-.188.408-.364.551-.596.243-.386.132-.926-.231-1.147-.507-.32-1.102.055-1.113.717m2.16-6.584c-.133.11-.232.198-.331.287-.264.242-.264.231-.121.573.33.827.562 1.666.54 2.559 0 .276-.066.54-.11.805.077-.033.088-.1.11-.154.22-.497.253-1.026.165-1.555-.077-.486-.165-.96-.22-1.445-.034-.353-.011-.695-.044-1.081m-2.964 4.18s-.011-.088-.022-.122c-.1-.463-.1-.915-.033-1.378.088-.706.308-1.379.595-2.03.022-.055.077-.099 0-.165-.177-.154-.342-.308-.562-.496.066 1.004-.154 1.919-.276 2.845-.055.474.022.927.287 1.346zm-.882 1.577c.144.11.265.22.408.32.198.143.43.22.672.231.066 0 .154.033.176-.088.056-.232.166-.419.32-.596-.386-.242-1.08-.198-1.576.122zm3.218-.154c.187.187.308.375.363.617.022.1.077.1.165.1.419-.045.716-.287 1.014-.563-.496-.254-.992-.364-1.543-.143zm-2.358-.585c-.187-.254-.397-.32-.705-.232.11.199.264.276.462.254.078 0 .144-.011.243-.022m3.724-.232c-.309-.088-.54-.022-.672.21.32.077.55 0 .672-.21M25.262 16.3c-.077.1-.12.165-.165.232-.055.099.022.176.066.231s.088-.033.132-.066c.177-.143 0-.243-.033-.397m-1.443.474c.033-.066.077-.132.1-.198.043-.1-.056-.155-.1-.22-.022-.034-.044 0-.066.021-.132.154-.121.276.066.397"/><path fill="#000" d="M24.548 48.79c-13.44 0-24.37-10.94-24.37-24.395S11.108 0 24.548 0s24.37 10.94 24.37 24.395S37.99 48.79 24.548 48.79m0-48.128C11.482.662.85 11.304.85 24.384s10.632 23.722 23.698 23.722 23.698-10.642 23.698-23.722S37.614.662 24.548.662"/><path fill="#000" d="M24.553 41.125c-9.222 0-16.725-7.51-16.725-16.741S15.331 7.643 24.553 7.643c9.22 0 16.724 7.51 16.724 16.74 0 9.232-7.503 16.742-16.725 16.742m0-32.799C15.705 8.326 8.5 15.54 8.5 24.395s7.206 16.069 16.052 16.069 16.053-7.213 16.053-16.07c0-8.855-7.206-16.068-16.052-16.068M137.228 29.789c-.628.452-1.289.805-2.071.904-1.388.165-2.689-.011-3.878-.805-.254-.166-.375-.353-.353-.673.033-.474 0-.96 0-1.467h1.598c.077.254.176.519.231.794.055.276.198.42.452.497.573.176 1.156.21 1.729.044.375-.11.628-.331.683-.75.044-.42-.165-.717-.517-.86-.496-.199-1.025-.331-1.532-.497-.485-.165-.98-.308-1.443-.518-1.785-.816-1.598-2.967-.331-3.915.904-.673 1.939-.75 3.008-.684.859.055 1.653.353 2.435.673v2.437c-.275-.011-.551-.044-.815-.033-.309.022-.419-.1-.474-.386-.044-.265-.088-.573-.264-.75-.441-.463-1.62-.53-2.171-.198-.286.176-.496.43-.485.782 0 .375.232.63.562.761.353.144.727.243 1.091.331.914.21 1.807.442 2.556 1.07v3.232zM95.233 30.35c-.12 0-.231.012-.341.012-1.355 0-2.7-.022-4.054-.011-.265 0-.408-.056-.375-.353.033-.32-.077-.728.077-.938.143-.187.562-.176.86-.242.198-.045.297-.11.308-.342.077-2.074.176-4.136.264-6.198v-.31c-.033-.01-.055-.021-.088-.032-.044.099-.11.187-.143.287-.948 2.58-1.906 5.16-2.843 7.742-.099.286-.23.408-.54.375-.374-.034-.848.088-1.112-.1-.253-.176-.298-.65-.419-1.003-.826-2.338-1.652-4.665-2.479-7.003a.65.65 0 0 0-.22-.32c-.011.077-.033.154-.033.231.066 2.107.121 4.213.198 6.309 0 .099.132.231.232.275.132.067.297.078.451.1.65.11.54.099.54.683 0 .772 0 .772-.782.761-1.2 0-2.39 0-3.592-.01h-.418c0-.42-.011-.806.01-1.18 0-.089.155-.2.254-.232.309-.1.76-.078.915-.276.165-.21.077-.64.077-.97.022-2.283.022-4.577.044-6.86 0-.353-.121-.475-.441-.54-.804-.144-.804-.155-.804-.96v-.519c.088-.01.165-.033.231-.033 1.245 0 2.49.022 3.735 0 .275 0 .341.155.408.353.881 2.603 1.762 5.217 2.655 7.82.033.11.077.22.154.43.088-.199.154-.298.187-.408.915-2.581 1.84-5.162 2.744-7.743.099-.297.231-.407.55-.396 1.157.021 2.325.022 3.482.01.308 0 .408.1.374.386-.033.31.078.706-.077.905-.154.187-.55.198-.859.253-.253.045-.33.144-.33.398 0 2.558-.023 5.117-.045 7.686 0 .254.1.364.331.409.297.055.738.055.86.242.153.232.065.64.065.97 0 .089-.022.188-.033.298zM110.691 22.64v-1.488c0-.386 0-.761.011-1.147.011-.254-.088-.386-.33-.397h-.033c-.287-.077-.749-.088-.815-.254-.133-.33-.067-.75-.056-1.125 0-.066.155-.176.243-.176 1.013 0 2.027.01 3.052.022.253 0 .253.154.253.33 0 .828-.011 1.655-.022 2.482a1755 1755 0 0 1-.044 7.61c0 .297.066.44.385.496.717.132.717.154.717.904 0 .684.099.607-.617.607s-1.433-.022-2.149 0c-.264 0-.363-.088-.385-.342-.022-.198-.066-.397-.088-.595-.056-.045-.1-.089-.155-.133-.044.11-.066.243-.143.331-.98 1.235-3.008 1.004-3.845.298-.749-.618-1.168-1.412-1.322-2.35-.242-1.488-.209-2.955.529-4.334.716-1.334 1.961-1.93 3.349-1.577.353.089.683.331.992.54.143.089.22.288.319.43.055-.032.121-.065.176-.098zm-.033 3.53h.011c0-.475-.022-.96 0-1.434.022-.33-.11-.573-.341-.794-.86-.805-2.116-.562-2.534.54-.408 1.06-.419 2.162-.099 3.243.286.97 1.156 1.367 2.104 1.014.595-.22.859-.584.859-1.213V26.16M65.66 18.694h10.356v2.161c0 .596-.309.883-.915.883h-.837c-.033-.353-.033-.684-.088-1.015-.022-.1-.143-.264-.231-.275-.628-.023-1.267-.012-1.95-.012v8.206c.286.055.606.132.925.187.187.033.264.11.253.309-.01.342 0 .695 0 1.07h-4.77V28.85c.32-.066.639-.132.97-.187.187-.033.253-.11.253-.31 0-2.547.022-5.094.044-7.642 0-.231-.066-.32-.308-.309-.53.011-1.058 0-1.576 0-.21 0-.32.067-.308.287v.033c-.044.309 0 .75-.177.905-.187.165-.617.055-.936.055-.716 0-.716 0-.716-.74v-2.271zM96.779 24.539v-1.765c0-.088.11-.21.198-.264 1.344-.816 2.777-1.081 4.308-.706 1.509.375 2.292 1.356 2.303 2.922.011 1.236 0 2.46 0 3.695 0 .353.165.563.506.618.056 0 .122.022.21.044 0 .386.011.783-.011 1.169 0 .066-.154.176-.232.176-.727 0-1.454 0-2.192-.022-.099 0-.231-.11-.275-.198-.1-.199-.155-.42-.243-.673-.121.1-.22.187-.319.265-1.025.838-2.17.96-3.372.485-.947-.375-1.465-1.268-1.42-2.316.032-1.015.572-1.754 1.575-2.14.892-.342 1.829-.342 2.765-.342.804 0 .694.133.716-.683.011-.552-.077-1.081-.639-1.335a2.02 2.02 0 0 0-1.895.1c-.143.088-.198.396-.22.606-.033.298-.154.375-.44.353-.43-.022-.86 0-1.334 0zm3.724 2.184h-.397c-.407.01-.815.066-1.146.353-.341.297-.484.76-.341 1.168.154.43.496.64.914.607a3.8 3.8 0 0 0 1.168-.265c.441-.176.65-.529.628-1.047-.044-.794 0-.805-.826-.805zM129.682 29.237c0 .397.011.76-.011 1.136 0 .077-.154.21-.231.21-.727.01-1.465 0-2.193-.012-.099 0-.231-.11-.275-.21-.099-.198-.154-.419-.231-.661-.099.088-.188.154-.265.22-.98.85-2.104.993-3.294.585-1.002-.342-1.487-1.114-1.542-2.162-.055-1.036.374-1.775 1.3-2.238.793-.398 1.652-.442 2.523-.453h.749c.308 0 .463-.154.463-.474v-.143c0-.563-.045-1.114-.617-1.39-.628-.309-1.278-.242-1.906.055-.1.044-.155.199-.188.32-.055.21-.077.42-.121.65h-1.697v-1.72c0-.088.078-.21.155-.253 1.553-.938 3.195-1.213 4.913-.53 1.124.441 1.719 1.313 1.73 2.526.022 1.301 0 2.614 0 3.915 0 .64-.033.485.496.595.055.012.121.023.22.045zm-3.018-1.544v-.563c0-.176-.056-.264-.243-.264-.463.01-.936-.034-1.388.055a1.7 1.7 0 0 0-.848.463c-.43.441-.32 1.19.176 1.456.551.297 1.113.198 1.642-.078.473-.242.793-.584.661-1.08zM64.819 30.185c-.133 0-.243.022-.342.022-1.355 0-2.7-.022-4.054-.022-.276 0-.397-.066-.375-.364.033-.32-.088-.739.066-.937s.584-.188.904-.243c.22-.044.297-.132.297-.353 0-2.591.022-5.194.044-7.786 0-.22-.077-.342-.297-.353h-.033c-.298-.077-.76-.077-.849-.254-.143-.308-.066-.716-.044-1.091 0-.066.143-.188.22-.188 1.499-.01 2.986 0 4.54 0v1.258c0 .055-.078.12-.133.143a.6.6 0 0 1-.209.055c-.892.165-.892.165-.903 1.059-.011 2.36-.011 4.709-.044 7.069 0 .342.11.463.43.496.264.022.517.1.792.155v1.345zM54.425 18.606h4.77v1.224c0 .066-.132.154-.22.176-.242.066-.495.11-.738.143-.21.023-.286.122-.286.32 0 2.625-.022 5.239-.033 7.864 0 .21.099.264.264.297.32.056.628.122.925.188.023.055.045.077.045.1 0 .407-.023.804-.034 1.212-.385.022-.782.055-1.167.055-1.058 0-2.105 0-3.162-.01-.133 0-.254-.012-.408-.023v-1.345c.386-.077.771-.154 1.201-.243 0-.121.022-.231.022-.353.022-2.536.033-5.073.066-7.61 0-.297-.066-.44-.386-.496-.859-.154-.848-.176-.848-1.058v-.442zM118.476 23.029c.088-.122.165-.254.254-.375.484-.684 1.134-1.004 1.983-.883.22.033.33.11.286.375-.088.574-.154 1.158-.231 1.776h-.606c-.298.01-.606 0-.893.077-.55.132-.815.496-.815 1.059 0 1.147 0 2.294-.022 3.44 0 .32.099.453.408.486.231.022.463.1.705.143v1.335h-4.506c0-.408-.011-.794 0-1.17 0-.076.132-.176.22-.209.276-.099.672-.077.815-.264.144-.199.045-.574.056-.872 0-1.356 0-2.702.033-4.058 0-.276-.077-.397-.353-.452-.881-.166-.87-.188-.87-1.092 0-.353.088-.474.462-.463.871.033 1.741.022 2.623.01.231 0 .319.078.33.31 0 .264.044.529.066.804.033 0 .055.011.088.023z"/><path fill="#000" d="M137.237 29.788s.727-.485.727-1.51c0-1.027-.727-1.721-.727-1.721"/></svg>