<svg width="138" height="49" viewBox="0 0 138 49" fill="none" xmlns="http://www.w3.org/2000/svg">
<path d="M17.6951 41.8203C17.6951 41.6659 17.6951 41.5556 17.6951 41.4453C17.7502 40.9931 18.1248 40.7615 18.5435 40.96C18.7087 41.0372 18.874 41.1586 18.9621 41.313C19.1384 41.6107 19.2596 41.9416 19.4028 42.2614C19.4138 42.2945 19.4138 42.3386 19.4249 42.3717C19.4579 42.4599 20.0418 42.6033 20.1189 42.5482C20.3283 42.3827 20.5486 42.3938 20.7249 42.5923C20.9122 42.8018 21.0003 43.0334 20.9342 43.3202C20.8901 43.5077 20.8681 43.6951 20.824 43.9046C21.0334 43.9488 21.2317 43.9819 21.452 44.026C21.5071 43.7503 21.5512 43.4856 21.6063 43.2098C21.419 43.1216 21.0884 43.2099 21.0995 42.8239C21.2868 42.857 21.4741 42.879 21.6503 42.9121C21.5842 42.7136 21.4851 42.5261 21.452 42.3276C21.408 42.0408 21.5512 41.8534 21.8046 41.8203C22.0359 41.7762 22.3664 41.9857 22.4215 42.2063C22.4215 42.2394 22.4105 42.2725 22.3995 42.3166C22.3554 42.2835 22.3334 42.2725 22.3114 42.2504C22.1461 42.107 21.9808 42.085 21.8266 42.1952C21.6724 42.3055 21.6283 42.493 21.7164 42.6915C21.7495 42.7687 21.7715 42.846 21.8046 42.9232C21.7935 42.9452 21.7715 42.9673 21.7605 42.9783C22.6309 43.0445 23.5012 43.0996 24.3936 43.1658C24.3496 43.0003 24.3055 42.879 24.2834 42.7577C24.1953 42.3276 24.5258 41.9747 24.9665 42.0409C25.286 42.085 25.5394 42.2614 25.7598 42.482C25.892 42.6143 26.0242 42.7577 26.1343 42.9121C26.2115 43.0224 26.2886 43.0886 26.4208 43.0555C26.6301 43.0004 26.7623 43.0996 26.8615 43.3091C26.7623 43.3091 26.6632 43.3312 26.553 43.3422C26.5971 44.0039 26.6411 44.6436 26.6852 45.3053C26.3437 45.206 26.2996 45.1619 26.2776 44.8421C26.2555 44.6105 26.2445 44.3899 26.2335 44.1363C25.9801 44.1583 25.7377 44.1473 25.5064 44.2024C25.4403 44.2135 25.3521 44.3568 25.3411 44.4561C25.3191 44.6766 25.4403 44.8531 25.5835 45.0185C25.6496 45.0957 25.7267 45.1729 25.8148 45.2722C25.7928 45.2942 25.7598 45.3384 25.6826 45.4156C25.4513 45.1288 25.2309 44.8862 25.0657 44.6215C24.8343 44.2576 25.0326 43.7944 25.5284 43.8274C25.7487 43.8385 25.9691 43.8054 26.1894 43.7833V43.3863C25.6826 43.4194 25.1979 43.4525 24.6801 43.4746V45.4046C24.3606 45.3164 24.2834 45.2281 24.2834 44.9524C24.2834 44.5112 24.3055 44.0811 24.3165 43.64C24.3165 43.5848 24.3165 43.5187 24.3165 43.4525H23.8648C23.8097 44.1032 23.7656 44.7539 23.7106 45.3935C23.369 45.2943 23.3139 45.0627 23.4021 44.7428C23.347 44.7539 23.325 44.7649 23.3139 44.7759C22.8622 45.0075 22.5317 44.9193 22.2453 44.5112C22.1351 44.3458 22.08 44.1804 22.1681 43.9929C22.2673 43.7944 22.4436 43.7172 22.6529 43.7061C22.9063 43.7061 23.1156 43.8164 23.2919 43.9929C23.336 44.037 23.369 44.0811 23.4241 44.1363C23.4351 44.0701 23.4461 44.037 23.4572 43.9929C23.4682 43.8054 23.4792 43.6179 23.5012 43.3974C23.0055 43.3643 22.5097 43.3312 21.9919 43.2871C21.9368 43.6069 21.8707 43.9267 21.8156 44.2465C21.7605 44.5553 21.7054 44.8752 21.6393 45.2391C21.5291 45.0847 21.3198 45.0517 21.3418 44.8421C21.3529 44.6877 21.3969 44.5333 21.419 44.3569C21.2096 44.3127 21.0113 44.2796 20.791 44.2355C20.7689 44.3127 20.7579 44.3899 20.7469 44.4561C20.7029 44.6215 20.5706 44.6767 20.4605 44.5554C20.3283 44.423 20.2181 44.2576 20.152 44.0922C20.0638 43.8937 20.141 43.8274 20.3503 43.8385C20.3834 43.8385 20.4274 43.8385 20.4825 43.8385C20.5045 43.7061 20.5266 43.5848 20.5486 43.4966C20.3393 43.276 20.152 43.0665 19.9316 42.8239C19.8545 43.0665 19.7994 43.254 19.7333 43.4635C19.4799 43.3863 19.2265 43.3091 18.9731 43.243C18.7638 43.1768 18.6316 43.243 18.5765 43.3863C18.5325 43.5407 18.6206 43.7061 18.8079 43.7723C18.885 43.8054 18.9731 43.8164 19.0723 43.8385C19.0833 43.662 19.1825 43.5849 19.3367 43.5959C19.502 43.5959 19.6011 43.6951 19.6232 43.8606C19.6562 44.0701 19.524 44.1583 19.3257 44.2245C19.4359 44.4451 19.535 44.6436 19.6562 44.8752C19.5791 44.9082 19.524 44.9303 19.4469 44.9634C19.3808 44.798 19.3257 44.6436 19.2706 44.4782C18.9181 44.6987 18.5765 44.7428 18.257 44.445C18.0367 44.2465 18.0036 44.1142 18.1028 43.8606C17.629 43.5407 17.596 43.254 18.0257 43.0224C18.0918 43.1327 18.1579 43.2319 18.235 43.3422C18.1799 43.4414 17.9706 43.4746 18.1028 43.651C18.2019 43.7723 18.3011 43.7282 18.4223 43.651C18.4003 43.5848 18.3672 43.5187 18.3562 43.4415C18.2791 43.0555 18.5324 42.8018 18.9291 42.89C19.1053 42.9342 19.2816 42.9893 19.4799 43.0445C19.513 42.9452 19.535 42.857 19.5681 42.7577C18.9952 42.5812 18.4443 42.4158 17.8604 42.2394C17.629 42.8128 17.3977 43.4194 17.1553 44.026C16.8909 43.7944 16.8689 43.7503 16.99 43.4525C17.1443 43.0555 17.2985 42.6474 17.4528 42.2504C17.4748 42.1953 17.4968 42.1401 17.5079 42.0849C17.3756 42.0408 17.2655 41.9967 17.1222 41.9416C16.8358 42.5261 16.5604 43.1106 16.2739 43.6951C16.0205 43.4525 16.0095 43.3863 16.1417 43.1106C16.1968 42.9893 16.2629 42.868 16.329 42.7246C15.9985 42.6584 15.8222 42.4489 15.7341 42.1511C15.5688 42.2173 15.4146 42.2835 15.2163 42.3717C15.3264 42.6584 15.4476 42.9672 15.5688 43.276C15.5137 43.2981 15.4476 43.3312 15.3375 43.3753C15.2163 42.879 15.1061 42.4048 14.9959 41.9306C14.9959 41.8975 14.9959 41.8534 14.9959 41.8203C14.9959 41.699 15.051 41.5777 15.1832 41.5556C15.3264 41.5335 15.3595 41.6549 15.3925 41.7651C15.3925 41.7872 15.4036 41.8093 15.4146 41.8313C15.657 41.8203 15.8773 41.5666 15.8222 41.346C15.8112 41.3019 15.7451 41.2578 15.701 41.2247C15.6129 41.1696 15.5137 41.1365 15.4146 41.0924C15.3264 41.0483 15.2493 40.9931 15.1502 40.938C14.8307 41.4894 14.5002 42.0519 14.1696 42.6143C13.9383 42.3496 13.9383 42.2835 14.1035 42.0078C14.3459 41.5887 14.5883 41.1696 14.8527 40.7285C14.6544 40.6402 14.5001 40.5189 14.5773 40.2432C14.7425 40.3314 14.8968 40.4307 15.073 40.5299C15.1061 40.3865 15.1281 40.2653 15.1722 40.1439C15.3264 39.7138 15.7561 39.5925 16.1197 39.8682C16.3731 40.0557 16.5053 40.3314 16.5824 40.6292C16.6485 40.8498 16.6705 41.0703 16.7146 41.3019C16.7146 41.346 16.7366 41.4232 16.7807 41.4343C17.0892 41.5776 17.4087 41.71 17.7392 41.8534L17.6951 41.8203ZM16.5604 41.324C16.4943 40.8497 16.3621 40.4638 16.0095 40.1991C15.8002 40.0447 15.5798 40.0557 15.3925 40.2432C15.3044 40.3314 15.2383 40.4638 15.1391 40.6071C15.6239 40.8498 16.0756 41.0813 16.5604 41.324ZM19.2486 42.3717C19.2486 42.3717 19.2706 42.3386 19.2926 42.3166C19.1935 41.9637 19.0282 41.6548 18.7197 41.4343C18.3452 41.1585 17.9816 41.3019 17.8604 41.7431C17.8384 41.8313 17.8604 41.8754 17.9485 41.9085C18.3892 42.0629 18.8189 42.2173 19.2596 42.3717H19.2486ZM24.5369 43.1437C25.0767 43.1106 25.5725 43.0886 26.1013 43.0555C25.8148 42.6695 25.4953 42.4048 25.0436 42.3717C24.8123 42.3496 24.636 42.471 24.5809 42.7026C24.5479 42.8349 24.5589 42.9672 24.5369 43.1437ZM15.9875 41.3571C15.9434 41.5115 15.9434 41.6659 15.8773 41.7872C15.7892 41.9526 15.8442 42.0739 15.9544 42.1952C16.0756 42.3386 16.2299 42.3717 16.4061 42.3276C16.4502 42.3276 16.4943 42.2835 16.5163 42.2504C16.6044 42.085 16.6816 41.9195 16.7697 41.7321C16.5053 41.5997 16.2519 41.4784 15.9985 41.3571H15.9875ZM23.4241 44.3569C23.1707 44.0039 22.8953 43.9046 22.6198 44.037C22.4766 44.1032 22.3554 44.2024 22.3995 44.3789C22.4436 44.5553 22.5978 44.5995 22.752 44.5774C22.9724 44.5333 23.1817 44.4451 23.4131 44.3679M18.9731 44.1914C18.9731 44.1914 18.9621 44.1583 18.9511 44.1363C18.852 44.0811 18.7528 44.0039 18.6426 43.9819C18.5435 43.9598 18.4333 43.9818 18.3452 44.037C18.3011 44.059 18.268 44.2134 18.2901 44.2355C18.3562 44.3017 18.4664 44.3679 18.5545 44.3458C18.6977 44.3238 18.8409 44.2355 18.9842 44.1804L18.9731 44.1914ZM20.5596 43.2098C20.5817 43.0996 20.6147 43.0003 20.6147 42.89C20.6147 42.8239 20.5706 42.7577 20.5486 42.6915C20.4715 42.7246 20.3723 42.7356 20.3283 42.7908C20.2071 42.9341 20.3062 43.1326 20.5596 43.2098Z" fill="black"/>
<path d="M29.629 44.334C29.684 44.1576 29.7501 44.0142 29.7612 43.8708C29.7612 43.7716 29.6951 43.6172 29.6069 43.5731C29.5298 43.5289 29.3756 43.5841 29.2984 43.6392C29.1552 43.7385 29.0781 43.8819 29.1332 44.0804C29.2103 44.323 29.2323 44.5656 29.2874 44.8082C28.9018 44.8082 28.8027 44.5546 28.8027 44.2458C28.7806 44.2458 28.7586 44.2458 28.7586 44.2458C28.373 44.5546 27.8221 44.3671 27.712 43.8819C27.6899 43.7716 27.745 43.6172 27.8221 43.5179C27.9433 43.3635 28.1416 43.3415 28.3289 43.3966C28.4391 43.4297 28.5382 43.4958 28.6594 43.551C28.6154 43.3414 28.5713 43.1429 28.5272 42.9444C28.2298 43.0106 27.9543 43.0658 27.6679 43.1209C27.3925 43.1761 27.3925 43.176 27.1721 42.9334C28.4611 42.6687 29.7501 42.4702 30.962 41.9298C30.918 41.9078 30.8629 41.8857 30.8188 41.8526C30.6866 41.7423 30.5544 41.632 30.4552 41.4997C30.3341 41.3343 30.3561 41.1468 30.4773 41.0034C30.5985 40.849 30.8629 40.7718 31.0832 40.849C31.1714 40.8821 31.2485 40.9372 31.3256 40.9924C31.3256 41.0144 31.3146 41.0365 31.3036 41.0475C31.2595 41.0475 31.2154 41.0475 31.1824 41.0475C30.9731 41.0034 30.8298 41.0696 30.7527 41.235C30.6646 41.4115 30.7197 41.5879 30.8959 41.7203C30.962 41.7754 31.0281 41.8305 31.0942 41.8857C31.0942 41.9077 31.0942 41.9408 31.0942 41.9629C31.6561 41.7092 32.229 41.4556 32.7799 41.1909C33.1545 41.0034 33.518 40.8049 33.8816 40.5843C34.0689 40.474 34.2231 40.452 34.4104 40.6064C34.3223 40.6615 34.2341 40.7167 34.146 40.7828C34.4765 41.3563 34.796 41.9188 35.1266 42.4812C34.741 42.5364 34.7299 42.5364 34.5537 42.2386C34.3113 41.8195 34.0689 41.4004 33.8265 40.9813C33.7053 41.0585 33.5952 41.1137 33.485 41.1909C33.7604 41.7754 34.0358 42.3709 34.3113 42.9555C34.0469 42.9665 33.8596 42.8673 33.7494 42.6467C33.6613 42.4592 33.5731 42.2827 33.474 42.0732C33.2977 42.1614 33.1214 42.2386 32.9562 42.3158C33.0884 42.404 33.2096 42.4592 33.3087 42.5474C33.485 42.6908 33.518 42.8893 33.4409 43.0657C33.3638 43.2422 33.1875 43.3635 32.9782 43.3414C32.4934 43.2973 32.1519 42.9996 31.8434 42.6577C31.8214 42.6356 31.8544 42.5695 31.8655 42.5364C32.0968 42.6908 32.2951 42.8452 32.5155 42.9555C32.7578 43.0768 32.9672 43.0216 33.0333 42.8562C33.0994 42.7128 32.9892 42.5254 32.7689 42.4151C32.6917 42.371 32.6146 42.3489 32.5265 42.3158C32.4494 42.2938 32.3722 42.2717 32.2731 42.2386C32.6367 42.0622 32.9672 41.9077 33.3197 41.7423C33.2536 41.61 33.1985 41.4776 33.1324 41.3453C32.5595 41.621 31.9977 41.8857 31.4248 42.1504C31.6341 42.7569 31.8324 43.3635 32.0417 43.9701C31.579 44.0583 31.568 43.6944 31.4578 43.3966C31.2485 43.4628 31.0502 43.529 30.8298 43.6062C30.8519 43.6834 30.8739 43.7495 30.8849 43.8157C30.918 43.9922 30.8298 44.1024 30.6646 44.0473C30.4773 43.9811 30.279 43.8819 30.1247 43.7495C29.9705 43.6172 30.0146 43.5069 30.2129 43.4297C30.2569 43.4186 30.29 43.3966 30.3451 43.3745C30.2569 43.1099 30.1688 42.8452 30.0917 42.6357C29.6951 42.7239 29.3205 42.8121 28.9239 42.9003C28.9569 43.0768 28.99 43.2532 29.023 43.4518C29.2103 43.2863 29.3866 43.176 29.6069 43.3414C29.8823 43.5399 30.0917 43.7826 30.0696 44.1576C30.0696 44.2789 30.0146 44.4002 29.9815 44.5436C29.8493 44.4664 29.7502 44.4002 29.651 44.3451L29.629 44.334ZM30.4222 42.4592C30.5214 42.7349 30.6095 42.9886 30.6976 43.2643C30.918 43.1871 31.1273 43.1209 31.3366 43.0437C31.2375 42.768 31.1493 42.5033 31.0612 42.2386C30.8519 42.3158 30.6536 42.382 30.4222 42.4592ZM28.7035 43.8157C28.5383 43.5731 28.1747 43.6282 28.0315 43.8488C27.9874 43.9149 27.9764 44.0473 28.0204 44.0914C28.0645 44.1576 28.1857 44.1906 28.2628 44.1796C28.4721 44.1465 28.5933 43.9922 28.7035 43.8157Z" fill="black"/>
<path d="M42.7881 25.6857V25.1232C43.4381 25.0901 44.0881 25.0571 44.7932 25.0129C44.5288 24.9357 44.2975 24.8696 44.0771 24.8034C43.7135 24.6931 43.35 24.5828 42.9864 24.4836C42.8432 24.4505 42.7881 24.3843 42.8101 24.2409C42.8212 24.1527 42.8101 24.0535 42.8101 23.9432C43.4491 23.7667 44.0771 23.5902 44.7051 23.4138C44.7051 23.4138 44.7051 23.4028 44.7051 23.3917C44.661 23.3917 44.6059 23.3917 44.5619 23.3917C44.011 23.3807 43.4712 23.3587 42.9203 23.3476C42.7771 23.3476 42.733 23.3035 42.744 23.1712C42.744 23.0498 42.744 22.9396 42.744 22.7852C43.6144 22.8293 44.4848 22.8624 45.3992 22.9065C45.3992 23.1601 45.3992 23.4028 45.3992 23.6454C45.3992 23.6785 45.3221 23.7336 45.278 23.7447C44.7381 23.9101 44.1983 24.0645 43.6585 24.2299C43.989 24.3181 44.3195 24.4064 44.65 24.4946C44.8704 24.5608 45.0907 24.6269 45.3 24.6821C45.3882 24.7041 45.4322 24.7483 45.4322 24.8475C45.4322 25.024 45.4543 25.2004 45.4322 25.3879C45.4322 25.432 45.3551 25.5202 45.3111 25.5202C44.5068 25.5864 43.6915 25.6305 42.8873 25.6857C42.8652 25.6857 42.8432 25.6857 42.7991 25.6747" fill="black"/>
<path d="M4.65336 27.494C5.25931 27.4058 5.86525 27.3175 6.49323 27.2293C6.51527 27.4168 6.54831 27.5932 6.57035 27.7807C5.69999 27.891 4.82963 28.0123 3.95927 28.1226C3.92622 27.9131 3.89317 27.7146 3.88216 27.5271C3.88216 27.4609 3.93723 27.3837 3.99232 27.3396C4.47708 26.9867 4.96184 26.6448 5.4466 26.3029C5.45762 26.3029 5.46863 26.2809 5.49066 26.2588C4.91777 26.347 4.34487 26.4242 3.74994 26.5124C3.7279 26.3139 3.70587 26.1485 3.68384 25.961C4.5542 25.8507 5.40252 25.7294 6.29492 25.6191C6.31695 25.8177 6.35002 26.0051 6.36103 26.2037C6.36103 26.2478 6.29493 26.3139 6.23984 26.347C5.71102 26.733 5.1932 27.108 4.66437 27.494H4.65336Z" fill="black"/>
<path d="M6.33078 22.4986C5.46042 22.3553 4.60107 22.2229 3.73071 22.0796C3.76376 21.87 3.78579 21.6715 3.82986 21.484C3.84088 21.4289 3.918 21.3517 3.9841 21.3296C4.54598 21.1311 5.11888 20.9436 5.69178 20.7451C5.71381 20.7451 5.72482 20.723 5.73584 20.723C5.15193 20.6348 4.57903 20.5576 3.9841 20.4694C4.01716 20.2709 4.05021 20.1055 4.07224 19.918C4.94261 20.0613 5.79093 20.1937 6.67231 20.337C6.63926 20.5245 6.62824 20.712 6.58417 20.8885C6.57315 20.9326 6.50706 20.9877 6.45197 21.0098C5.85704 21.2193 5.27313 21.4178 4.6782 21.6274C4.65616 21.6274 4.62311 21.6494 4.54599 21.6715C5.19601 21.7708 5.80195 21.859 6.41892 21.9582C6.38587 22.1457 6.36383 22.3111 6.33078 22.5096V22.4986Z" fill="black"/>
<path d="M36.5472 7.21362C36.7125 7.32391 36.8557 7.42316 37.0099 7.52242C36.5142 8.26133 36.0404 8.97821 35.5446 9.71712C35.3794 9.60684 35.2251 9.51861 35.0929 9.40832C35.0489 9.37524 35.0268 9.29801 35.0268 9.24287C35.0819 8.58116 35.148 7.91946 35.2141 7.25775C34.8726 7.77609 34.5421 8.29441 34.1895 8.82378C34.0353 8.72452 33.8921 8.62527 33.7268 8.51498C34.2116 7.7871 34.6963 7.05922 35.1921 6.32031C35.3684 6.44163 35.5447 6.55192 35.7099 6.67323C35.754 6.70632 35.765 6.79455 35.754 6.84969C35.7099 7.46729 35.6548 8.07386 35.5997 8.6694C35.8972 8.2062 36.2057 7.73197 36.5362 7.22466L36.5472 7.21362Z" fill="black"/>
<path d="M8.97576 38.3136C8.84355 38.1482 8.71135 37.9938 8.60118 37.8394C8.56813 37.7843 8.56813 37.685 8.60118 37.6299C8.83254 37.0564 9.0639 36.4939 9.28424 35.9535C8.86559 36.3064 8.4249 36.6704 7.96218 37.0564C7.84099 36.902 7.73081 36.7696 7.60962 36.6152C8.29269 36.0638 8.96474 35.5124 9.65882 34.9609C9.78001 35.1153 9.91222 35.2587 10.0224 35.4131C10.0444 35.4462 10.0224 35.5344 10.0004 35.5785C9.75798 36.163 9.50459 36.7586 9.25119 37.3431C9.25119 37.3652 9.22915 37.3872 9.20711 37.4424C9.71391 37.0233 10.1877 36.6262 10.6834 36.2292C10.8046 36.3836 10.9148 36.516 11.036 36.6593C10.3529 37.2108 9.68086 37.7622 8.98677 38.3246L8.97576 38.3136Z" fill="black"/>
<path d="M44.6582 29.9862C44.515 30.4053 44.4048 30.8024 44.2396 31.1663C43.9752 31.7508 43.4574 31.9714 42.8735 31.828C42.1573 31.6516 41.7717 31.1994 41.7717 30.5487C41.7717 30.0745 41.948 29.6443 42.1353 29.2253C42.1463 29.1922 42.2234 29.1591 42.2565 29.1701C43.0387 29.4348 43.8209 29.6995 44.6582 29.9862ZM42.4107 29.8649C42.1904 30.295 42.2124 30.67 42.4548 30.9237C42.7082 31.1994 43.226 31.3317 43.5235 31.2104C43.7989 31.1001 44.0082 30.7472 43.9972 30.4164C43.4684 30.2399 42.9506 30.0635 42.4107 29.876V29.8649Z" fill="black"/>
<path d="M9.21573 34.3429C8.46656 34.773 7.7284 35.1921 6.96821 35.6333C6.60464 35.0708 6.10887 34.5525 6.2521 33.8025C6.41736 32.8872 7.70638 32.457 8.41148 33.0746C8.79708 33.4165 9.01742 33.8577 9.22674 34.3319L9.21573 34.3429ZM8.52164 34.0452C8.37842 33.6481 8.10299 33.3945 7.78349 33.3834C7.39789 33.3614 6.93516 33.6261 6.81397 33.9459C6.67075 34.3098 6.82499 34.5966 7.05635 34.8943C7.55212 34.6076 8.03688 34.3319 8.53265 34.0452H8.52164Z" fill="black"/>
<path d="M18.4557 7.05863C17.7506 7.05863 17.1777 6.3969 17.1777 5.59181C17.1777 4.87496 17.7506 4.32353 18.4778 4.3125C19.1829 4.3125 19.7447 4.97422 19.7558 5.80136C19.7558 6.50719 19.1939 7.04759 18.4557 7.04759M19.1388 5.90061C19.1388 5.5477 18.9735 5.16169 18.7422 4.96318C18.4227 4.69849 17.971 4.81982 17.8498 5.21685C17.7396 5.59182 17.8498 5.9337 18.0591 6.24249C18.2354 6.50718 18.4998 6.60644 18.7532 6.51821C19.0066 6.44101 19.1388 6.20943 19.1388 5.88961V5.90061Z" fill="black"/>
<path d="M41.1818 15.5713C40.653 15.5602 40.3005 15.2845 40.0801 14.8434C39.8598 14.4133 39.8818 13.9942 40.1682 13.6082C40.5208 13.134 41.0056 12.8803 41.6115 12.9685C42.1293 13.0347 42.4488 13.3656 42.6141 13.8398C42.7793 14.292 42.6692 14.7 42.3386 15.0529C42.0302 15.3838 41.6335 15.5712 41.1929 15.5823L41.1818 15.5713ZM41.1268 14.9647C41.4683 14.9206 41.8098 14.7441 42.0412 14.3802C42.1624 14.1927 42.1734 13.9942 42.0632 13.8067C41.953 13.6082 41.7657 13.5089 41.5454 13.5199C41.1157 13.553 40.7632 13.7405 40.5539 14.1265C40.3225 14.5236 40.5979 14.9647 41.1268 14.9647Z" fill="black"/>
<path d="M36.5217 10.1127C36.5217 9.37379 37.2158 8.679 37.943 8.66797C38.604 8.66797 39.2099 9.25248 39.2209 9.90316C39.2209 10.62 38.4938 11.3479 37.7887 11.3479C37.1277 11.3479 36.5217 10.7634 36.5217 10.1127ZM38.637 9.79287C38.637 9.40687 38.3286 9.14221 37.954 9.23044C37.5574 9.31866 37.1607 9.74877 37.0946 10.1568C37.0395 10.4987 37.2929 10.7965 37.6455 10.7965C38.0862 10.7965 38.626 10.245 38.6481 9.79287H38.637Z" fill="black"/>
<path d="M32.9851 6.89309C32.6876 6.76075 32.4011 6.62842 32.1037 6.49608C31.9494 6.82693 31.8062 7.14676 31.6409 7.48864C31.4537 7.41144 31.2884 7.33424 31.0901 7.24601C31.4537 6.44093 31.8172 5.65791 32.1808 4.8418C32.3681 4.93003 32.5333 5.00724 32.7206 5.09547C32.5774 5.40426 32.4452 5.70203 32.302 6.02186C32.5884 6.1542 32.8749 6.28654 33.1834 6.42991C33.3266 6.12111 33.4698 5.82332 33.613 5.51452C33.8003 5.60275 33.9656 5.67996 34.1529 5.76819C33.7893 6.57327 33.4257 7.35629 33.0622 8.1724C32.8749 8.08418 32.7096 8.007 32.5223 7.91877C32.6766 7.58791 32.8198 7.26808 32.974 6.91517L32.9851 6.89309Z" fill="black"/>
<path d="M40.8587 32.4474C40.9468 32.2709 41.035 32.1055 41.1341 31.918C41.9053 32.315 42.6655 32.7121 43.4477 33.1201C43.2604 33.5833 43.1062 34.0575 42.7206 34.3994C42.5113 34.5869 42.2579 34.62 42.0045 34.4987C41.7511 34.3774 41.6079 34.1788 41.5858 33.8921C41.5858 33.859 41.5858 33.8259 41.5858 33.7818C41.1121 34.0024 40.6934 33.7156 40.2307 33.6936C40.3189 33.5171 40.396 33.3627 40.4731 33.2304C40.4951 33.1863 40.5833 33.1532 40.6383 33.1642C40.8146 33.1863 40.9909 33.2304 41.1562 33.2745C41.5197 33.3517 41.6299 33.2855 41.7731 32.9216C41.4757 32.7672 41.1782 32.6128 40.8697 32.4474H40.8587ZM42.1697 33.1311C42.0596 33.3517 41.8943 33.5502 42.0485 33.7818C42.1147 33.87 42.2799 33.9583 42.3791 33.9473C42.6435 33.9142 42.7096 33.6715 42.7977 33.451C42.5884 33.3407 42.3791 33.2304 42.1697 33.1201V33.1311Z" fill="black"/>
<path d="M42.6506 17.7009C42.5956 17.5685 42.5625 17.4583 42.5074 17.3259C42.6507 17.2708 42.7829 17.2156 42.9371 17.1494C43.0583 17.4582 43.1795 17.756 43.3007 18.0648C42.882 18.2302 42.4854 18.3957 42.0778 18.5501C42.0447 18.5611 41.9786 18.5501 41.9566 18.517C41.6701 18.153 41.4498 17.745 41.4057 17.2707C41.3506 16.609 41.7472 16.1017 42.4193 15.9363C42.9812 15.804 43.4439 15.9584 43.7965 16.4105C44.0719 16.7634 44.2041 17.1605 44.2151 17.6126C44.0499 17.6347 43.8956 17.6568 43.7744 17.6678C43.6863 17.4031 43.6312 17.1494 43.521 16.9289C43.3668 16.598 43.0473 16.4546 42.7168 16.5098C42.2651 16.598 41.9566 16.8517 41.9455 17.2267C41.9455 17.4252 42.0337 17.6237 42.0888 17.8222C42.0888 17.8553 42.1769 17.8773 42.221 17.8663C42.3642 17.8222 42.4964 17.756 42.6506 17.7009Z" fill="black"/>
<path d="M10.0103 9.28616C10.1756 9.12073 10.3078 8.98838 10.462 8.83398C10.8807 9.2641 11.3324 9.66114 11.696 10.1243C12.2027 10.775 11.751 11.7566 10.9248 11.8448C10.6383 11.8779 10.3959 11.7455 10.1756 11.5801C10.0985 11.5139 10.0213 11.4588 9.95523 11.3816C9.6137 11.0397 9.28318 10.6978 8.94165 10.3559C9.07386 10.2236 9.20606 10.0912 9.37132 9.9258C9.63574 10.1905 9.87811 10.4552 10.1425 10.7199C10.2857 10.8632 10.44 11.0176 10.6053 11.15C10.8476 11.3375 11.079 11.3264 11.2553 11.15C11.4316 10.9625 11.4426 10.7309 11.2332 10.4993C10.9468 10.1795 10.6383 9.89272 10.3408 9.58392C10.2417 9.48466 10.1205 9.38542 10.0103 9.28616Z" fill="black"/>
<path d="M42.3088 28.5743C42.3419 28.3757 42.3639 28.1993 42.408 28.0228C42.419 27.9787 42.4961 27.9236 42.5512 27.9126C42.6944 27.8795 42.8487 27.8905 42.9919 27.8574C43.047 27.8464 43.1021 27.7692 43.1462 27.7251C43.1462 27.7251 43.1462 27.7141 43.1462 27.703C43.1682 27.5045 43.2784 27.2839 43.2012 27.1295C43.1351 26.9972 42.8817 26.9531 42.7275 26.8538C42.6834 26.8207 42.6394 26.7435 42.6394 26.6884C42.6504 26.534 42.6834 26.3686 42.7165 26.2031C42.7826 26.2362 42.8377 26.2472 42.8927 26.2803C43.6089 26.6443 44.314 26.9972 45.0301 27.3501C45.1403 27.4052 45.1953 27.4494 45.1623 27.5817C45.1182 27.7361 45.1182 27.9126 45.0742 28.067C45.0632 28.1221 44.986 28.1993 44.9309 28.2103C44.0716 28.3316 43.2123 28.4419 42.3199 28.5632L42.3088 28.5743ZM43.675 27.2839C43.6419 27.4714 43.6089 27.6479 43.5868 27.8354C43.9504 27.8023 44.2699 27.7582 44.6445 27.7251C44.292 27.5707 43.9945 27.4273 43.675 27.2839Z" fill="black"/>
<path d="M38.6213 35.9865C38.7425 35.8211 38.8417 35.6667 38.9518 35.5343C38.9739 35.5013 39.029 35.5013 39.073 35.4903C39.0951 35.4903 39.1171 35.5013 39.1391 35.5123C39.3154 35.5674 39.5358 35.7108 39.6569 35.6446C39.8222 35.5674 39.9214 35.3358 40.0426 35.1594C40.0646 35.1153 40.0646 35.027 40.0426 34.994C39.9324 34.8396 39.8112 34.6962 39.679 34.5308C39.8002 34.3653 39.9214 34.1999 40.0426 34.0234C40.307 34.3764 40.5604 34.7072 40.8138 35.0381C41.0892 35.391 41.3536 35.7549 41.629 36.1078C41.6951 36.185 41.7062 36.2512 41.629 36.3284C41.5189 36.4718 41.4197 36.6152 41.3095 36.7585C41.2765 36.8026 41.1994 36.8247 41.1553 36.8137C40.329 36.5379 39.4917 36.2623 38.6323 35.9755L38.6213 35.9865ZM40.0866 35.8763C40.4171 35.9976 40.7366 36.1189 41.0892 36.2512C40.8468 35.9645 40.6375 35.6998 40.4171 35.4241C40.307 35.5785 40.1968 35.7219 40.0866 35.8763Z" fill="black"/>
<path d="M6.66464 28.3652C6.66464 28.3652 6.69769 28.4094 6.69769 28.4204C6.75278 28.5969 6.87396 28.7954 6.82989 28.9387C6.78582 29.0821 6.56547 29.1593 6.41123 29.2696C6.36716 29.3027 6.32311 29.3358 6.26802 29.3688C6.33412 29.5784 6.37819 29.7769 6.45531 29.9644C6.47734 30.0085 6.55446 30.0416 6.60955 30.0747C6.63159 30.0857 6.67566 30.0747 6.69769 30.0747C7.24855 30.0526 7.25957 30.0747 7.33669 30.6592H7.08328C6.32309 30.6592 5.56291 30.6482 4.80273 30.6592C4.64849 30.6592 4.58239 30.6041 4.54933 30.4607C4.51628 30.3283 4.48322 30.196 4.43916 30.0747C4.39509 29.9423 4.41712 29.8762 4.53831 29.7879C5.25443 29.3247 5.95953 28.8395 6.67565 28.3652H6.66464ZM4.99002 30.1298H6.03665C5.97055 29.9313 5.92648 29.7548 5.8714 29.5784C5.56292 29.7659 5.28748 29.9423 4.99002 30.1298Z" fill="black"/>
<path d="M28.2876 4.23641C27.9351 4.18127 27.6156 4.13715 27.2741 4.09304C27.241 4.26949 27.219 4.4349 27.1859 4.62239C27.5054 4.6665 27.8139 4.72165 28.1444 4.76576C28.1224 4.93119 28.1003 5.07456 28.0783 5.25102C27.7588 5.20691 27.4503 5.1628 27.1198 5.11868C27.0868 5.3172 27.0647 5.5157 27.0317 5.72524C27.3842 5.78038 27.7257 5.83554 28.0893 5.87966C28.0673 6.03406 28.0452 6.18846 28.0232 6.36491C27.4724 6.28771 26.9325 6.21052 26.3596 6.13332C26.4808 5.26207 26.602 4.40181 26.7342 3.51953C27.274 3.59673 27.7919 3.67396 28.3427 3.75115C28.3207 3.91658 28.2987 4.07096 28.2766 4.24742L28.2876 4.23641Z" fill="black"/>
<path d="M15.1807 6.15279C14.8833 6.32924 14.5968 6.49466 14.2883 6.66009C14.3765 6.81449 14.4646 6.95787 14.5527 7.1233C14.8282 6.9689 15.1036 6.81451 15.39 6.64908C15.4782 6.79245 15.5443 6.91374 15.6434 7.06814C15.368 7.23357 15.0926 7.38797 14.8061 7.5534C14.9053 7.72986 15.0044 7.90632 15.1036 8.08278C15.4121 7.90632 15.7206 7.72986 16.0401 7.5534C16.1172 7.69677 16.1943 7.82913 16.2824 7.98353C15.7867 8.27027 15.3129 8.53493 14.8172 8.82167C14.3765 8.0607 13.9468 7.29975 13.5061 6.52775C13.9688 6.26307 14.4315 5.99837 14.9163 5.72266C14.9934 5.86603 15.0705 5.99839 15.1587 6.15279H15.1807Z" fill="black"/>
<path d="M38.3781 36.416C38.4773 36.5704 38.5544 36.7028 38.6425 36.8351C38.4993 36.9233 38.3451 36.9895 38.2239 37.0887C38.1137 37.177 38.0035 37.2983 37.9484 37.4196C37.8493 37.6181 38.0145 37.8166 38.2349 37.7725C38.345 37.7504 38.4442 37.6953 38.5434 37.6622C38.6756 37.6181 38.8078 37.552 38.94 37.5189C39.2264 37.4417 39.4798 37.4968 39.6781 37.7174C39.8764 37.9379 39.9095 38.2026 39.8103 38.4783C39.6892 38.8313 39.3256 39.1952 38.94 39.3275C38.8629 39.1952 38.7857 39.0629 38.6976 38.9305C38.8298 38.8423 38.951 38.7761 39.0612 38.6879C39.1383 38.6217 39.2264 38.5445 39.2595 38.4453C39.2925 38.3681 39.2925 38.2357 39.2485 38.1806C39.2044 38.1254 39.0722 38.0924 38.9951 38.1144C38.8078 38.1696 38.6315 38.2578 38.4442 38.3239C38.1798 38.4122 37.9154 38.4342 37.673 38.2468C37.3645 38.0041 37.2764 37.6623 37.4416 37.2873C37.6289 36.8792 37.9484 36.6035 38.3781 36.416Z" fill="black"/>
<path d="M6.731 19.685C6.57676 19.5858 6.44455 19.5086 6.31234 19.4314C6.40048 19.288 6.48861 19.1556 6.56573 19.0233C6.59878 18.9682 6.62083 18.913 6.64286 18.8579C6.71998 18.6153 6.68693 18.4609 6.54371 18.3837C6.40049 18.3065 6.2793 18.3616 6.11404 18.5601C6.00387 18.6925 5.89368 18.8248 5.77249 18.9461C5.55215 19.1446 5.29876 19.2329 5.01232 19.1116C4.72587 18.9902 4.57163 18.7586 4.5496 18.4498C4.51654 18.0307 4.67077 17.6668 4.93519 17.3359C5.07841 17.4242 5.21062 17.5124 5.33181 17.5896C5.24367 17.755 5.15553 17.8984 5.08943 18.0528C5.00129 18.2624 5.03435 18.4499 5.16656 18.505C5.35385 18.5932 5.46402 18.4498 5.57419 18.3285C5.71741 18.1741 5.84961 17.9977 6.01487 17.8653C6.45556 17.5345 7.09457 17.7991 7.18271 18.3395C7.25983 18.8469 7.07254 19.277 6.75304 19.685H6.731Z" fill="black"/>
<path d="M31.2503 4.566C31.1512 4.7204 31.0741 4.85275 30.9969 4.98509C30.6003 4.7535 30.2147 4.57704 29.8071 4.88584C29.5316 5.08436 29.3994 5.5696 29.4986 5.91149C29.6088 6.2644 29.9172 6.44086 30.5783 6.496C30.5783 6.61731 30.5783 6.74965 30.5452 6.87097C30.5452 6.91508 30.4571 6.97022 30.402 6.97022C29.9833 6.94816 29.5977 6.85994 29.2672 6.59525C28.8486 6.25337 28.7494 5.80121 28.8706 5.29389C29.0028 4.76452 29.3113 4.37851 29.8732 4.24617C30.369 4.13588 30.8207 4.27926 31.2503 4.566Z" fill="black"/>
<path d="M20.9392 4.23398C20.9722 4.42147 20.9943 4.59791 21.0273 4.80746C21.3358 4.76334 21.6443 4.70819 21.9527 4.66408C21.9858 4.81848 22.0078 4.96184 22.0409 5.1383C21.7434 5.19344 21.446 5.24861 21.1154 5.30376C21.1705 5.64564 21.2256 5.98749 21.2807 6.34041C21.0824 6.37349 20.8951 6.40661 20.6968 6.43969C20.5536 5.56844 20.4103 4.71922 20.2561 3.83694C20.7959 3.74871 21.3138 3.66049 21.8426 3.57227C21.8756 3.73769 21.8977 3.88107 21.9197 4.05752C21.5892 4.11267 21.2697 4.16781 20.9282 4.23398" fill="black"/>
<path d="M45.1231 20.7336C44.5943 20.5792 44.0985 20.4248 43.6027 20.2925C43.4925 20.2594 43.3714 20.2594 43.2612 20.2925C42.9637 20.3476 42.6773 20.4248 42.3688 20.491C42.3247 20.2925 42.2806 20.116 42.2366 19.9065C42.523 19.8403 42.8095 19.7852 43.0849 19.708C43.2061 19.6749 43.3273 19.6197 43.4264 19.5425C43.8231 19.2117 44.2087 18.8698 44.6273 18.5059C44.6824 18.7264 44.7375 18.9249 44.7705 19.1235C44.7705 19.1565 44.7155 19.2227 44.6714 19.2558C44.396 19.4653 44.1095 19.6639 43.801 19.8844C44.1426 19.9396 44.4621 20.0057 44.7705 20.0498C44.9248 20.0719 45.035 20.116 45.046 20.3035C45.057 20.4469 45.1011 20.5792 45.1341 20.7557L45.1231 20.7336Z" fill="black"/>
<path d="M24.52 3.91427H23.8479V3.41797H25.853V3.92531H25.1259V6.04277H24.52V3.91427Z" fill="black"/>
<path d="M6.00412 14.6243C6.16938 14.7015 6.30157 14.7677 6.45581 14.8339C6.35666 15.0544 6.26853 15.2529 6.15836 15.4845C6.79736 15.7823 7.43636 16.0801 8.08637 16.3779C7.99824 16.5653 7.9211 16.7308 7.83296 16.9183C7.18295 16.6205 6.55497 16.3227 5.90495 16.025C5.80579 16.2345 5.70664 16.444 5.59647 16.6646C5.44223 16.5984 5.29902 16.5323 5.14478 16.4551C5.43122 15.8375 5.70664 15.2309 5.99309 14.6133L6.00412 14.6243Z" fill="black"/>
<path d="M8.30925 11.9546C8.88214 12.3847 9.44401 12.7927 10.0169 13.2228C9.89571 13.3883 9.78555 13.5427 9.66436 13.7081C9.09147 13.278 8.52958 12.8699 7.95669 12.4398C7.81346 12.6273 7.67024 12.8148 7.52702 13.0023C7.38379 12.903 7.26261 12.8038 7.11938 12.7045C7.52702 12.1531 7.92363 11.6237 8.33127 11.0723C8.47449 11.1715 8.59569 11.2708 8.73892 11.3701C8.59569 11.5686 8.46348 11.745 8.32026 11.9546" fill="black"/>
<path d="M12.0151 8.21578C11.8279 8.35915 11.6405 8.4915 11.4533 8.63487C11.3541 8.50253 11.2549 8.37017 11.1448 8.23782C11.6846 7.82977 12.2134 7.42173 12.7643 7.01367C12.8635 7.14601 12.9626 7.27834 13.0728 7.41068C12.8855 7.55405 12.6982 7.69745 12.5109 7.85185C12.9406 8.41431 13.3592 8.97674 13.7889 9.55022C13.6347 9.67154 13.4804 9.78184 13.3152 9.91418C12.8855 9.35173 12.4668 8.78926 12.0262 8.21578H12.0151Z" fill="black"/>
<path d="M39.0703 12.4617C39.2906 12.7374 39.5 13.0021 39.7203 13.2778C39.5881 13.3881 39.4559 13.4874 39.3237 13.5977C38.9821 13.1675 38.6406 12.7485 38.2991 12.3183C38.9821 11.7669 39.6652 11.2265 40.3483 10.6641C40.4695 10.8185 40.5907 10.9618 40.7229 11.1273C40.172 11.5794 39.6211 12.0206 39.0703 12.4617Z" fill="black"/>
<path d="M3.68384 23.127C4.57623 23.1711 5.43558 23.2042 6.31695 23.2372C6.30594 23.4468 6.29492 23.6233 6.2839 23.8438C5.41354 23.8107 4.54318 23.7666 3.68384 23.7335V23.127Z" fill="black"/>
<path d="M5.41521 32.7548C5.33809 32.5673 5.26096 32.3909 5.18384 32.2034C5.99911 31.8615 6.79235 31.5196 7.60762 31.1777C7.68475 31.3652 7.76187 31.5306 7.85001 31.7292C7.04575 32.071 6.24149 32.4129 5.42622 32.7548" fill="black"/>
<path d="M10.0754 39.4042C9.98731 39.316 9.86612 39.1727 9.7229 39.0293C10.3178 38.4227 10.9238 37.8051 11.5187 37.1875C11.6619 37.3309 11.7941 37.4743 11.9594 37.6507C11.3534 38.2132 10.7255 38.8087 10.0754 39.4042Z" fill="black"/>
<path d="M8.67018 15.2642C7.90999 14.812 7.16082 14.3709 6.40063 13.9187C6.49979 13.7423 6.59894 13.5768 6.70912 13.4004C7.4693 13.8526 8.20746 14.2937 8.97866 14.7459C8.87951 14.9223 8.78035 15.0878 8.67018 15.2642Z" fill="black"/>
<path d="M36.4972 40.3866C36.2768 40.3866 36.1116 40.2211 36.1116 40.0006C36.1116 39.78 36.2989 39.6035 36.5082 39.6035C36.7175 39.6035 36.8938 39.791 36.8938 40.0006C36.8938 40.2211 36.7175 40.3976 36.4972 40.3866Z" fill="black"/>
<path d="M12.5402 40.3866C12.3198 40.3866 12.1545 40.2211 12.1545 40.0006C12.1545 39.78 12.3198 39.6035 12.5291 39.6035C12.7385 39.6035 12.9368 39.791 12.9368 40.0006C12.9368 40.2101 12.7605 40.3866 12.5402 40.3866Z" fill="black"/>
<path d="M24.3168 38.7327C24.6583 38.4239 24.9558 38.1592 25.3083 37.8394C23.193 37.6188 21.1218 37.4092 18.9954 37.1997C19.359 36.924 19.6895 36.6814 20.0421 36.4167C18.4776 35.8763 16.9352 35.3469 15.3928 34.8065C15.3928 34.8065 15.3928 34.7845 15.3928 34.7734C17.398 35.1264 19.3921 35.4903 21.4303 35.8542C21.2099 36.1189 21.0006 36.3615 20.7692 36.6262C22.8074 36.8027 24.8126 36.9791 26.8618 37.1556C26.6524 37.332 26.4762 37.4754 26.2558 37.6519C28.2389 37.7401 30.1669 37.8283 32.106 37.9055C32.106 37.9055 32.106 37.9276 32.106 37.9386C29.5279 38.1923 26.9389 38.4569 24.3058 38.7106L24.3168 38.7327Z" fill="black"/>
<path d="M24.5132 34.7938C22.2106 34.7938 20.0071 34.3527 17.9138 33.3711C16.0629 32.4999 14.4765 31.2978 13.3086 29.5883C12.7908 28.8274 12.4162 28.0002 12.1628 27.129C12.0967 26.8974 12.1739 26.7099 12.3171 26.5444C12.5264 26.2798 12.8129 26.1254 13.1103 25.993C13.9587 25.596 14.8731 25.3754 15.7875 25.188C17.363 24.8571 18.9495 24.6586 20.558 24.5593C20.7343 24.5483 20.6792 24.4711 20.6461 24.3718C20.3266 23.5888 20.0953 22.7837 19.9741 21.9456C19.7868 20.5891 19.908 19.2435 20.2495 17.9201C20.6351 16.4533 21.2851 15.1079 22.1224 13.8506C22.7174 12.9573 23.3233 12.064 23.753 11.0714C23.9954 10.52 24.1826 9.95753 24.2487 9.36199C24.2708 9.13039 24.436 9.20759 24.5572 9.18553C24.6894 9.1745 24.7555 9.20759 24.7666 9.36199C24.9208 10.4538 25.3725 11.4133 25.9344 12.3507C26.4191 13.1668 26.981 13.9278 27.4548 14.7439C28.2921 16.1997 28.865 17.7547 29.0743 19.4311C29.2836 21.1184 29.0523 22.7617 28.4022 24.3277C28.3251 24.5042 28.3692 24.5262 28.5344 24.5372C29.5701 24.6034 30.6057 24.7248 31.6303 24.8792C33.0074 25.0997 34.3736 25.3534 35.6846 25.8717C35.9931 25.993 36.2796 26.1474 36.533 26.3459C36.7092 26.4893 36.8194 26.6658 36.8855 26.8753C36.9186 26.9525 36.8745 27.0297 36.8525 27.1069C36.3457 28.9487 35.299 30.4265 33.8558 31.6396C32.0159 33.1836 29.8675 34.077 27.5209 34.5291C26.5183 34.7166 25.5157 34.8048 24.4911 34.8048L24.5132 34.7938ZM12.934 27.8348C12.934 27.8348 12.923 27.8348 12.912 27.8238C12.912 27.8238 12.912 27.8348 12.923 27.8458C12.923 27.8899 12.9341 27.9341 12.9561 27.9671C13.4849 29.2023 14.2892 30.239 15.2918 31.1323C16.2723 31.9926 17.374 32.6543 18.5639 33.1616C20.4147 33.9446 22.3648 34.3085 24.3699 34.3416C24.8547 34.3416 25.3395 34.3086 25.8242 34.2755C26.3641 34.2424 26.8819 34.1652 27.4107 34.0659C28.909 33.7902 30.3303 33.3049 31.6744 32.5771C32.4786 32.1359 33.2168 31.6176 33.8999 31C34.5939 30.3714 35.1889 29.6655 35.6516 28.8494C35.8389 28.5075 36.0262 28.1657 36.1694 27.7686C35.6406 28.0002 35.1117 28.1105 34.5829 28.2318C33.7566 28.4193 32.9303 28.5516 32.082 28.6509C31.421 28.7281 30.771 28.7943 30.1099 28.8274C29.2285 28.8715 28.3582 28.7832 27.4878 28.6509C26.5293 28.5075 25.5929 28.298 24.6894 27.9561C24.6013 27.923 24.5242 27.912 24.436 27.9561C23.8742 28.1767 23.2903 28.3311 22.7063 28.4634C21.7258 28.684 20.7453 28.8274 19.7427 28.8494C18.7842 28.8715 17.8367 28.7832 16.8782 28.6729C15.9748 28.5627 15.0714 28.4083 14.179 28.1987C13.7603 28.0995 13.3527 27.9561 12.9451 27.8458L12.934 27.8348ZM26.4963 20.9861C26.8268 20.9861 27.1243 21.0412 27.4107 21.1736C27.5209 21.2287 27.576 21.3059 27.5539 21.4272C27.5319 21.5375 27.4658 21.6037 27.3556 21.6147C27.1793 21.6257 27.1022 21.7581 27.0141 21.8684C26.959 21.9345 26.981 21.9676 27.0471 22.0117C27.1904 22.1 27.3336 22.1882 27.4548 22.2874C27.587 22.3977 27.576 22.5852 27.4327 22.6514C27.2234 22.7617 27.0471 22.9161 26.8709 23.0594C26.5624 23.3021 26.2318 23.4455 25.8462 23.4675C25.7912 23.4675 25.7471 23.4675 25.7251 23.5447C25.6259 23.9638 25.3615 24.2615 25.053 24.5372C24.9759 24.6034 24.9649 24.6696 24.9649 24.7578C24.9649 25.6401 24.9649 26.5224 24.9649 27.4047C24.9649 27.526 24.9979 27.5811 25.1081 27.6142C25.2954 27.6583 25.4717 27.7135 25.6479 27.7796C25.7471 27.8127 25.8022 27.7797 25.8573 27.7025C26.4632 26.8753 27.0581 26.0371 27.5429 25.1328C28.5895 23.1587 28.9421 21.0743 28.5455 18.8686C28.259 17.3246 27.6641 15.9019 26.8378 14.5675C26.4191 13.8947 25.9674 13.233 25.5488 12.5492C25.1301 11.8765 24.7886 11.1596 24.5462 10.3987C24.5021 10.4097 24.5021 10.4317 24.4911 10.4538C24.2377 11.2368 23.8632 11.9647 23.4335 12.6706C22.9487 13.4646 22.3979 14.2146 21.9462 15.0196C21.1199 16.4644 20.58 18.0084 20.4037 19.6626C20.2385 21.2066 20.4698 22.6955 21.0648 24.1402C21.5936 25.4526 22.3758 26.6106 23.2131 27.7355C23.2792 27.8238 23.3343 27.8017 23.4114 27.7796C23.6098 27.7245 23.8081 27.6584 24.0064 27.6032C24.1165 27.5701 24.1386 27.515 24.1386 27.4047C24.1386 26.5224 24.1386 25.6291 24.1386 24.7468C24.1386 24.6365 24.1055 24.5704 24.0284 24.4932C23.742 24.2285 23.4775 23.9417 23.4004 23.5447C23.3784 23.4565 23.3123 23.4675 23.2572 23.4675C22.8385 23.4675 22.486 23.3021 22.1555 23.0484C21.9792 22.905 21.8139 22.7506 21.6046 22.6514C21.4394 22.5631 21.4283 22.3867 21.5826 22.2764C21.7038 22.1771 21.836 22.0999 21.9682 22.0227C22.0012 22.0007 22.0673 21.9786 22.0233 21.9125C21.9351 21.7912 21.869 21.6478 21.7038 21.6257C21.5605 21.6037 21.4724 21.5485 21.4614 21.4051C21.4614 21.2507 21.5605 21.1956 21.6817 21.1405C21.9461 21.0412 22.2216 20.9971 22.508 20.9861C22.508 20.964 22.508 20.9419 22.508 20.9199C22.2656 20.3685 22.2436 19.7839 22.3207 19.1994C22.4199 18.5487 22.5631 17.8871 22.5631 17.2253C22.5631 16.8945 22.6292 16.5636 22.5411 16.2328C22.508 16.1004 22.508 16.0012 22.6292 15.924C22.7504 15.8468 22.8496 15.8909 22.9487 15.9791C23.0589 16.0894 23.1801 16.1887 23.3123 16.299C23.4555 15.9791 23.5877 15.6924 23.742 15.3725C23.9182 15.6152 24.0835 15.8357 24.2487 16.0673C24.3369 15.924 24.392 15.7806 24.5793 15.8027C24.7445 15.8247 24.7666 15.9901 24.8657 16.1004C25.042 15.8578 25.2183 15.6152 25.4056 15.3725C25.5378 15.6482 25.6479 15.9129 25.7581 16.1666C25.7912 16.2438 25.8242 16.2769 25.8903 16.1997C25.9785 16.1114 26.0776 16.0342 26.1658 15.957C26.2649 15.8688 26.3641 15.8578 26.4632 15.935C26.5514 16.0122 26.5844 16.1004 26.5293 16.2107C26.5073 16.2659 26.4852 16.332 26.4852 16.3872C26.4852 16.9937 26.4852 17.6113 26.5734 18.2069C26.6395 18.637 26.7276 19.0561 26.7717 19.4862C26.8158 19.9935 26.7387 20.4898 26.5293 20.964L26.4963 20.9861ZM19.1478 28.3641C20.4588 28.3641 21.5165 28.2208 22.5631 27.9892C22.7614 27.9451 22.7614 27.9451 22.6513 27.7796C22.0563 26.9635 21.4724 26.1364 21.0317 25.221C20.9326 25.0115 20.8114 24.9674 20.602 24.9784C19.5224 25.0777 18.4537 25.1769 17.385 25.3534C16.3604 25.5188 15.3358 25.7063 14.3332 26.0151C13.8044 26.1805 13.2756 26.3459 12.8349 26.6768C12.5595 26.8753 12.5705 27.0187 12.8569 27.2062C13.1654 27.4047 13.518 27.504 13.8815 27.6032C14.9722 27.89 16.085 28.0884 17.2087 28.1987C17.9359 28.2759 18.663 28.3421 19.1588 28.3531L19.1478 28.3641ZM26.2759 27.9341C27.2675 28.1657 28.237 28.309 29.2285 28.3421C30.1981 28.3752 31.1565 28.2759 32.115 28.1656C33.1947 28.0443 34.2634 27.8458 35.3211 27.5591C35.6626 27.4709 36.0041 27.3606 36.2906 27.14C36.4779 26.9856 36.4779 26.8863 36.2906 26.7209C36.1253 26.5775 35.927 26.4673 35.7287 26.379C35.0566 26.0702 34.3405 25.8717 33.6134 25.7063C31.8506 25.2982 30.0548 25.0887 28.259 24.9563C28.1599 24.9563 28.1378 25.0115 28.1048 25.0666C27.8844 25.5078 27.6421 25.9269 27.3776 26.3459C27.0361 26.8753 26.6725 27.3936 26.2869 27.923L26.2759 27.9341ZM24.5021 16.5195C24.3369 16.7732 24.2157 17.0379 24.1055 17.2915C23.6538 18.2841 23.3013 19.2987 23.4225 20.4126C23.4886 20.9861 23.7199 21.4824 24.1496 21.8794C24.2047 21.9235 24.2488 21.9566 24.3259 21.9676C24.6233 22.0117 24.8878 21.9456 25.064 21.6698C25.1301 21.5596 25.2183 21.4603 25.2844 21.35C25.659 20.7104 25.67 20.0156 25.5598 19.3097C25.4056 18.3172 25.0089 17.4128 24.5132 16.5085M23.8191 23.3021C23.8191 23.4344 23.8521 23.5778 23.9293 23.6991C24.0725 23.9528 24.2928 24.1292 24.5021 24.3277C24.5462 24.3718 24.5793 24.3718 24.6233 24.3277C24.8216 24.1402 25.031 23.9638 25.1742 23.7322C25.4166 23.3462 25.3064 22.8058 24.9428 22.5852C24.436 22.2654 23.8411 22.6403 23.8301 23.3021M25.9895 16.718C25.8573 16.8283 25.7581 16.9165 25.659 17.0048C25.3945 17.2474 25.3945 17.2364 25.5378 17.5782C25.8683 18.4054 26.0996 19.2436 26.0776 20.1369C26.0776 20.4126 26.0115 20.6773 25.9674 20.942C26.0446 20.9089 26.0556 20.8427 26.0776 20.7875C26.298 20.2913 26.331 19.7619 26.2429 19.2325C26.1657 18.7473 26.0776 18.273 26.0225 17.7878C25.9895 17.4349 26.0115 17.093 25.9785 16.707M23.0148 20.8868C23.0148 20.8868 23.0038 20.7986 22.9928 20.7655C22.8936 20.3023 22.8936 19.8501 22.9597 19.3869C23.0479 18.6811 23.2682 18.0084 23.5547 17.3577C23.5767 17.3025 23.6318 17.2584 23.5547 17.1923C23.3784 17.0379 23.2131 16.8835 22.9928 16.696C23.0589 17.6996 22.8385 18.6149 22.7174 19.5413C22.6623 20.0155 22.7394 20.4677 23.0038 20.8868H23.0148ZM22.1334 22.4639C22.2767 22.5742 22.3979 22.6845 22.5411 22.7837C22.7394 22.9271 22.9707 23.0043 23.2131 23.0153C23.2792 23.0153 23.3674 23.0484 23.3894 22.9271C23.4445 22.6955 23.5547 22.508 23.7089 22.3315C23.3233 22.0889 22.6292 22.133 22.1334 22.4529V22.4639ZM25.3505 22.3095C25.5378 22.497 25.659 22.6845 25.714 22.9271C25.7361 23.0263 25.7912 23.0263 25.8793 23.0263C26.2979 22.9822 26.5954 22.7396 26.8929 22.4639C26.3971 22.2102 25.9013 22.1 25.3505 22.3205V22.3095ZM22.9928 21.725C22.8055 21.4713 22.5962 21.4052 22.2877 21.4934C22.3979 21.6919 22.5521 21.7691 22.7504 21.747C22.8275 21.747 22.8936 21.736 22.9928 21.725ZM26.7166 21.4934C26.4081 21.4052 26.1768 21.4713 26.0446 21.7029C26.3641 21.7801 26.5954 21.7029 26.7166 21.4934ZM25.2623 16.299C25.1852 16.3982 25.1411 16.4644 25.0971 16.5305C25.042 16.6298 25.1191 16.707 25.1632 16.7621C25.2072 16.8173 25.2513 16.7291 25.2954 16.696C25.4717 16.5526 25.2954 16.4534 25.2623 16.299ZM23.8191 16.7732C23.8521 16.707 23.8962 16.6408 23.9182 16.5747C23.9623 16.4754 23.8631 16.4203 23.8191 16.3541C23.797 16.321 23.775 16.3541 23.753 16.3761C23.6208 16.5305 23.6318 16.6519 23.8191 16.7732Z" fill="black"/>
<path d="M24.5481 48.7903C11.1071 48.7903 0.177979 37.85 0.177979 24.3952C0.177979 10.9403 11.1071 0 24.5481 0C37.9891 0 48.9182 10.9403 48.9182 24.3952C48.9182 37.85 37.9891 48.7903 24.5481 48.7903ZM24.5481 0.661719C11.4816 0.661719 0.85003 11.3043 0.85003 24.3841C0.85003 37.464 11.4816 48.1065 24.5481 48.1065C37.6145 48.1065 48.2461 37.464 48.2461 24.3841C48.2461 11.3043 37.6145 0.661719 24.5481 0.661719Z" fill="black"/>
<path d="M24.5525 41.1252C15.3311 41.1252 7.82837 33.6148 7.82837 24.3839C7.82837 15.153 15.3311 7.64258 24.5525 7.64258C33.7739 7.64258 41.2767 15.153 41.2767 24.3839C41.2767 33.6148 33.7739 41.1252 24.5525 41.1252ZM24.5525 8.32634C15.7057 8.32634 8.50042 15.539 8.50042 24.3949C8.50042 33.2509 15.7057 40.4635 24.5525 40.4635C33.3994 40.4635 40.6046 33.2509 40.6046 24.3949C40.6046 15.539 33.3994 8.32634 24.5525 8.32634Z" fill="black"/>
<path d="M137.228 29.7885C136.6 30.2407 135.939 30.5936 135.157 30.6929C133.769 30.8583 132.468 30.6818 131.279 29.8878C131.025 29.7224 130.904 29.5349 130.926 29.2151C130.959 28.7408 130.926 28.2556 130.926 27.7482H132.524C132.601 28.0019 132.7 28.2666 132.755 28.5423C132.81 28.818 132.953 28.9614 133.207 29.0386C133.78 29.2151 134.363 29.2481 134.936 29.0827C135.311 28.9724 135.564 28.7518 135.619 28.3328C135.663 27.9137 135.454 27.6159 135.102 27.4725C134.606 27.274 134.077 27.1417 133.57 26.9763C133.085 26.8108 132.59 26.6675 132.127 26.4579C130.342 25.6418 130.529 23.4912 131.796 22.5428C132.7 21.87 133.735 21.7928 134.804 21.859C135.663 21.9141 136.457 22.2119 137.239 22.5318V24.9691C136.964 24.958 136.688 24.9249 136.424 24.936C136.115 24.958 136.005 24.8367 135.95 24.55C135.906 24.2853 135.862 23.9765 135.686 23.8C135.245 23.3368 134.066 23.2707 133.515 23.6015C133.229 23.778 133.019 24.0316 133.03 24.3845C133.03 24.7595 133.262 25.0132 133.592 25.1455C133.945 25.2889 134.319 25.3881 134.683 25.4764C135.597 25.6859 136.49 25.9175 137.239 26.5461V29.7775L137.228 29.7885Z" fill="black"/>
<path d="M95.2334 30.3505C95.1122 30.3505 95.002 30.3616 94.8919 30.3616C93.5367 30.3616 92.1927 30.3395 90.8375 30.3505C90.5731 30.3505 90.4299 30.2954 90.4629 29.9976C90.496 29.6778 90.3858 29.2697 90.54 29.0602C90.6833 28.8727 91.1019 28.8837 91.3994 28.8176C91.5977 28.7734 91.6969 28.7073 91.7079 28.4757C91.785 26.4023 91.8842 24.34 91.9723 22.2776C91.9723 22.1784 91.9723 22.0681 91.9723 21.9688C91.9393 21.9578 91.9172 21.9468 91.8842 21.9358C91.8401 22.035 91.774 22.1232 91.7409 22.2225C90.7934 24.8032 89.835 27.3839 88.8985 29.9645C88.7993 30.2513 88.6671 30.3726 88.3587 30.3395C87.9841 30.3064 87.5103 30.4277 87.2459 30.2402C86.9925 30.0638 86.9484 29.5896 86.8272 29.2366C86.001 26.8986 85.1747 24.5716 84.3484 22.2335C84.3043 22.1232 84.2602 22.013 84.128 21.9137C84.117 21.9909 84.095 22.0681 84.095 22.1453C84.1611 24.2518 84.2162 26.3582 84.2933 28.4536C84.2933 28.5529 84.4255 28.6852 84.5247 28.7293C84.6569 28.7955 84.8221 28.8065 84.9764 28.8286C85.6264 28.9389 85.5162 28.9278 85.5162 29.5124C85.5162 30.2844 85.5162 30.2844 84.734 30.2733C83.5331 30.2733 82.3432 30.2733 81.1424 30.2623H80.7237C80.7237 29.8432 80.7127 29.4572 80.7347 29.0823C80.7347 28.994 80.889 28.8837 80.9881 28.8506C81.2966 28.7514 81.7483 28.7734 81.9025 28.5749C82.0678 28.3654 81.9797 27.9353 81.9797 27.6044C82.0017 25.3215 82.0017 23.0276 82.0238 20.7447C82.0238 20.3918 81.9025 20.2704 81.583 20.2043C80.7788 20.0609 80.7788 20.0499 80.7788 19.2448V18.7264C80.8669 18.7154 80.9441 18.6934 81.0102 18.6934C82.2551 18.6934 83.5 18.7154 84.745 18.6934C85.0204 18.6934 85.0865 18.8478 85.1526 19.0463C86.034 21.649 86.9154 24.2628 87.8078 26.8655C87.8409 26.9758 87.8849 27.0861 87.962 27.2956C88.0502 27.0971 88.1163 26.9978 88.1493 26.8876C89.0638 24.3069 89.9892 21.7262 90.8926 19.1455C90.9918 18.8478 91.124 18.7375 91.4435 18.7485C92.6003 18.7705 93.7681 18.7706 94.9249 18.7595C95.2334 18.7595 95.3326 18.8588 95.2995 19.1455C95.2664 19.4543 95.3766 19.8514 95.2224 20.0499C95.0681 20.2374 94.6715 20.2484 94.363 20.3035C94.1096 20.3476 94.0325 20.4469 94.0325 20.7006C94.0325 23.2592 94.0105 25.8178 93.9884 28.3875C93.9884 28.6411 94.0876 28.7514 94.319 28.7955C94.6164 28.8507 95.0571 28.8507 95.1783 29.0381C95.3325 29.2697 95.2444 29.6778 95.2444 30.0087C95.2444 30.0969 95.2224 30.1961 95.2113 30.3064L95.2334 30.3505Z" fill="black"/>
<path d="M110.691 22.6406C110.691 22.1443 110.691 21.648 110.691 21.1518C110.691 20.7658 110.691 20.3908 110.702 20.0048C110.713 19.7511 110.614 19.6188 110.372 19.6078C110.361 19.6078 110.35 19.6078 110.339 19.6078C110.052 19.5306 109.59 19.5195 109.524 19.3541C109.391 19.0232 109.457 18.6042 109.468 18.2292C109.468 18.163 109.623 18.0527 109.711 18.0527C110.724 18.0527 111.738 18.0638 112.763 18.0748C113.016 18.0748 113.016 18.2292 113.016 18.4056C113.016 19.2328 113.005 20.0599 112.994 20.887C112.983 23.4236 112.972 25.9602 112.95 28.4968C112.95 28.7945 113.016 28.9379 113.335 28.993C114.052 29.1254 114.052 29.1474 114.052 29.8974C114.052 30.5811 114.151 30.5039 113.435 30.5039C112.719 30.5039 112.002 30.4819 111.286 30.5039C111.022 30.5039 110.923 30.4157 110.901 30.1621C110.879 29.9635 110.835 29.7651 110.813 29.5665C110.757 29.5224 110.713 29.4783 110.658 29.4342C110.614 29.5445 110.592 29.6768 110.515 29.765C109.535 31.0002 107.507 30.7686 106.67 30.0628C105.921 29.4452 105.502 28.6511 105.348 27.7137C105.106 26.2249 105.139 24.7581 105.877 23.3795C106.593 22.0451 107.838 21.4495 109.226 21.8024C109.579 21.8907 109.909 22.1333 110.218 22.3428C110.361 22.431 110.438 22.6296 110.537 22.7729C110.592 22.7399 110.658 22.7068 110.713 22.6737L110.691 22.6406ZM110.658 26.1697H110.669C110.669 25.6955 110.647 25.2103 110.669 24.736C110.691 24.4052 110.559 24.1625 110.328 23.942C109.468 23.1369 108.212 23.3795 107.794 24.4824C107.386 25.5411 107.375 26.644 107.695 27.7248C107.981 28.6953 108.851 29.0923 109.799 28.7394C110.394 28.5188 110.658 28.1549 110.658 27.5262C110.658 27.0741 110.658 26.6219 110.658 26.1587" fill="black"/>
<path d="M65.6597 18.6939H76.0159V20.2048C76.0159 20.4254 76.0159 20.6349 76.0159 20.8555C76.0159 21.451 75.7074 21.7378 75.1014 21.7378C74.837 21.7378 74.5726 21.7378 74.2642 21.7378C74.2311 21.3849 74.2311 21.054 74.176 20.7232C74.154 20.6239 74.0328 20.4585 73.9447 20.4475C73.3167 20.4254 72.6777 20.4364 71.9946 20.4364V28.6417C72.2811 28.6968 72.6006 28.774 72.9201 28.8292C73.1074 28.8622 73.1845 28.9394 73.1734 29.138C73.1624 29.4798 73.1734 29.8328 73.1734 30.2077H68.403V28.8512C68.7225 28.785 69.042 28.7189 69.3725 28.6637C69.5598 28.6306 69.6259 28.5534 69.6259 28.3549C69.6259 25.8073 69.6479 23.2598 69.67 20.7122C69.67 20.4806 69.6039 20.3923 69.3615 20.4033C68.8327 20.4144 68.3038 20.4033 67.786 20.4033C67.5767 20.4033 67.4665 20.4695 67.4775 20.6901C67.4775 20.7011 67.4775 20.7121 67.4775 20.7232C67.4335 21.032 67.4775 21.4731 67.3013 21.6275C67.114 21.7929 66.6843 21.6826 66.3648 21.6826C65.6487 21.6826 65.6487 21.6827 65.6487 20.9438C65.6487 20.1938 65.6487 19.4328 65.6487 18.6719L65.6597 18.6939Z" fill="black"/>
<path d="M96.779 24.5389C96.779 23.9213 96.779 23.3479 96.779 22.7744C96.779 22.6862 96.8892 22.5648 96.9773 22.5097C98.3214 21.6936 99.7537 21.4289 101.285 21.8039C102.794 22.1788 103.577 23.1604 103.588 24.7264C103.599 25.9616 103.588 27.1858 103.588 28.421C103.588 28.7739 103.753 28.9835 104.094 29.0386C104.15 29.0386 104.216 29.0607 104.304 29.0827C104.304 29.4687 104.315 29.8657 104.293 30.2517C104.293 30.3179 104.139 30.4282 104.061 30.4282C103.334 30.4282 102.607 30.4282 101.869 30.4061C101.77 30.4061 101.638 30.2958 101.594 30.2076C101.494 30.0091 101.439 29.7885 101.351 29.5349C101.23 29.6341 101.131 29.7224 101.032 29.7996C100.007 30.6377 98.8612 30.7591 97.6604 30.2848C96.7129 29.9099 96.1951 29.0165 96.2392 27.9688C96.2722 26.9542 96.8121 26.2153 97.8146 25.8293C98.707 25.4874 99.6435 25.4874 100.58 25.4874C101.384 25.4874 101.274 25.6197 101.296 24.8036C101.307 24.2522 101.219 23.7228 100.657 23.4692C100.018 23.1825 99.357 23.2266 98.7621 23.5684C98.6189 23.6567 98.5638 23.9655 98.5418 24.175C98.5087 24.4728 98.3875 24.55 98.1011 24.5279C97.6714 24.5059 97.2417 24.5279 96.768 24.5279L96.779 24.5389ZM100.503 26.7226C100.371 26.7226 100.238 26.7226 100.106 26.7226C99.6986 26.7336 99.2909 26.7888 98.9604 27.0755C98.6189 27.3733 98.4757 27.8365 98.6189 28.2445C98.7731 28.6746 99.1147 28.8842 99.5333 28.8511C99.9299 28.829 100.338 28.7298 100.701 28.5864C101.142 28.41 101.351 28.057 101.329 27.5387C101.285 26.7446 101.329 26.7336 100.503 26.7336V26.7226Z" fill="black"/>
<path d="M129.682 29.2366C129.682 29.6336 129.693 29.9976 129.671 30.3725C129.671 30.4497 129.517 30.5821 129.44 30.5821C128.713 30.5931 127.975 30.5821 127.247 30.571C127.148 30.571 127.016 30.4608 126.972 30.3615C126.873 30.163 126.818 29.9424 126.741 29.6998C126.642 29.788 126.553 29.8542 126.476 29.9204C125.496 30.7696 124.372 30.9129 123.182 30.5049C122.18 30.163 121.695 29.391 121.64 28.3433C121.585 27.3066 122.014 26.5677 122.94 26.1045C123.733 25.7075 124.592 25.6634 125.463 25.6523C125.716 25.6523 125.969 25.6523 126.212 25.6523C126.52 25.6523 126.675 25.4979 126.675 25.1781V25.0347C126.675 24.4723 126.63 23.9208 126.058 23.6451C125.43 23.3363 124.78 23.4025 124.152 23.7003C124.052 23.7444 123.997 23.8988 123.964 24.0201C123.909 24.2297 123.887 24.4392 123.843 24.6708H122.146C122.146 24.0863 122.146 23.5128 122.146 22.9504C122.146 22.8621 122.224 22.7408 122.301 22.6967C123.854 21.7593 125.496 21.4835 127.214 22.1673C128.338 22.6084 128.933 23.4797 128.944 24.6928C128.966 25.9942 128.944 27.3066 128.944 28.608C128.944 29.2476 128.911 29.0932 129.44 29.2035C129.495 29.2145 129.561 29.2256 129.66 29.2476L129.682 29.2366ZM126.664 27.6926C126.664 27.439 126.664 27.2845 126.664 27.1301C126.664 26.9537 126.608 26.8655 126.421 26.8655C125.958 26.8765 125.485 26.8324 125.033 26.9206C124.725 26.9757 124.405 27.1632 124.185 27.3838C123.755 27.825 123.865 28.5749 124.361 28.8396C124.912 29.1374 125.474 29.0381 126.003 28.7624C126.476 28.5198 126.796 28.1779 126.664 27.6816V27.6926Z" fill="black"/>
<path d="M64.8185 30.1852C64.6863 30.1852 64.5761 30.2072 64.4769 30.2072C63.1218 30.2072 61.7777 30.1852 60.4226 30.1852C60.1472 30.1852 60.026 30.119 60.048 29.8212C60.0811 29.5014 59.9599 29.0823 60.1141 28.8838C60.2684 28.6853 60.698 28.6963 61.0175 28.6412C61.2379 28.5971 61.315 28.5089 61.315 28.2883C61.315 25.6966 61.337 23.0938 61.3591 20.5021C61.3591 20.2816 61.2819 20.1602 61.0616 20.1492C61.0506 20.1492 61.0396 20.1492 61.0285 20.1492C60.7311 20.072 60.2684 20.072 60.1802 19.8955C60.037 19.5867 60.1141 19.1787 60.1361 18.8037C60.1361 18.7376 60.2794 18.6162 60.3565 18.6162C61.8548 18.6052 63.3422 18.6162 64.8956 18.6162C64.8956 19.0794 64.8956 19.4765 64.8956 19.8735C64.8956 19.9286 64.8185 19.9948 64.7634 20.0169C64.7083 20.05 64.6312 20.061 64.5541 20.072C63.6617 20.2374 63.6617 20.2374 63.6506 21.1307C63.6396 23.4908 63.6397 25.8399 63.6066 28.2C63.6066 28.5419 63.7168 28.6632 64.0363 28.6963C64.3007 28.7184 64.5541 28.7956 64.8295 28.8507V30.1962L64.8185 30.1852Z" fill="black"/>
<path d="M54.4252 18.6055H59.1956C59.1956 19.0246 59.1956 19.4326 59.1956 19.8296C59.1956 19.8958 59.0634 19.984 58.9753 20.0061C58.7329 20.0723 58.4795 20.1164 58.2371 20.1495C58.0278 20.1715 57.9507 20.2708 57.9507 20.4693C57.9507 23.0941 57.9286 25.7078 57.9176 28.3326C57.9176 28.5422 58.0168 28.5973 58.182 28.6304C58.5015 28.6856 58.81 28.7517 59.1075 28.8179C59.1295 28.873 59.1516 28.8951 59.1516 28.9171C59.1516 29.3252 59.1295 29.7222 59.1185 30.1303C58.7329 30.1523 58.3363 30.1854 57.9507 30.1854C56.893 30.1854 55.8464 30.1854 54.7887 30.1744C54.6565 30.1744 54.5353 30.1634 54.3811 30.1524V28.8069C54.7667 28.7297 55.1523 28.6525 55.582 28.5642C55.582 28.4429 55.604 28.3326 55.604 28.2113C55.6261 25.6748 55.6371 23.1382 55.6701 20.6016C55.6701 20.3039 55.604 20.1605 55.2845 20.1053C54.4252 19.9509 54.4362 19.9289 54.4362 19.0466V18.6055H54.4252Z" fill="black"/>
<path d="M118.476 23.0286C118.564 22.9072 118.641 22.7749 118.73 22.6536C119.214 21.9698 119.864 21.65 120.713 21.7713C120.933 21.8044 121.043 21.8816 120.999 22.1463C120.911 22.7198 120.845 23.3043 120.768 23.9219C120.558 23.9219 120.36 23.9219 120.162 23.9219C119.864 23.9329 119.556 23.9219 119.269 23.9991C118.719 24.1314 118.454 24.4953 118.454 25.0578C118.454 26.2048 118.454 27.3518 118.432 28.4987C118.432 28.8186 118.531 28.9509 118.84 28.984C119.071 29.0061 119.303 29.0832 119.545 29.1273V30.4618H115.039C115.039 30.0538 115.028 29.6678 115.039 29.2928C115.039 29.2156 115.171 29.1163 115.259 29.0832C115.535 28.984 115.931 29.006 116.074 28.8185C116.218 28.62 116.119 28.2451 116.13 27.9473C116.13 26.5908 116.13 25.2453 116.163 23.8888C116.163 23.6131 116.086 23.4917 115.81 23.4366C114.929 23.2712 114.94 23.2491 114.94 22.3448C114.94 21.9919 115.028 21.8706 115.402 21.8816C116.273 21.9147 117.143 21.9036 118.025 21.8926C118.256 21.8926 118.344 21.9698 118.355 22.2014C118.355 22.4661 118.399 22.7308 118.421 23.0065C118.454 23.0065 118.476 23.0175 118.509 23.0286H118.476Z" fill="black"/>
<path d="M137.237 29.788C137.237 29.788 137.964 29.3027 137.964 28.2771C137.964 27.2514 137.237 26.5566 137.237 26.5566" fill="black"/>
</svg>
