<svg xmlns="http://www.w3.org/2000/svg" width="150" height="90" fill="none"><g fill="#fff" clip-path="url(#a)"><path d="M52.02 27C42.056 27 34 35.067 34 45c0 9.98 8.056 18 18.02 18 9.919 0 17.974-8.02 17.974-18 0-9.933-8.055-18-17.974-18Zm4.284 24.482v1.399h-5.029V37.119h1.444v14.363h3.585Zm6.333 4.197c-2.84 2.844-6.612 4.43-10.663 4.43s-7.823-1.586-10.663-4.43A15 15 0 0 1 36.887 45c0-8.3 6.752-15.109 15.087-15.109h.698v1.4h-.698a13.593 13.593 0 0 0-9.639 4.01c-2.608 2.564-4.005 6.015-4.005 9.652 0 3.684 1.444 7.088 4.005 9.653a13.592 13.592 0 0 0 9.639 4.01c7.217 0 13.131-5.642 13.597-12.73v-.233h-9.313v-1.4H67.06v.654c0 4.15-1.583 7.927-4.424 10.772ZM48.388 39.264c0 1.166-.977 2.145-2.142 2.145-1.164 0-2.142-.979-2.142-2.145s.978-2.145 2.142-2.145c1.165 0 2.142.933 2.142 2.145ZM83.544 33.062h-5.4v23.456h16.623v-4.57H83.545V33.062Zm23.097 14.503h4.423v4.104c-.791.326-2.375.606-3.911.606-4.89 0-6.473-2.472-6.473-7.508 0-4.803 1.537-7.601 6.426-7.601 2.701 0 4.238.84 5.541 2.471L116 36.56c-2.049-2.938-5.634-3.824-8.987-3.824-7.59 0-11.548 4.15-11.548 12.03 0 7.835 3.585 12.125 11.501 12.125 3.632 0 7.171-.932 9.127-2.285V43.181h-9.452v4.384Z"></path></g><defs><clipPath id="a"><path fill="#fff" d="M34 27h82v36H34z"></path></clipPath></defs></svg>