<svg width="42" height="42" viewBox="0 0 42 42" fill="none" xmlns="http://www.w3.org/2000/svg">
<path d="M0.384766 41.5476H41.8912V0H0.384766V41.5476ZM14.9678 33.5775H8.18601V7.97007H10.9223V30.774H14.9678V33.5775ZM24.3036 28.2176C23.7026 31.9448 20.859 33.6097 18.1871 33.5452L17.3608 33.5775V30.774H18.2192C19.3352 30.774 21.2453 29.9792 21.535 28.2176C21.8248 26.499 21.5994 25.2529 19.3996 21.4935L19.3353 21.429C17.8008 18.9155 16.3414 16.7458 16.8779 13.2978C17.4788 9.57056 20.3869 7.90562 23.0266 7.97007H23.8851V10.7736H23.0266C21.9106 10.7736 19.9361 11.5362 19.6786 13.33C19.3889 15.0486 19.5821 16.1657 21.7497 19.8715L21.814 19.9682C23.4022 22.5569 24.8401 24.8126 24.3036 28.2283M34.1544 10.7736H29.9801V18.9692H33.8646V21.9661H29.9801V30.731H34.1544V33.5667H27.2438V7.95932H34.1544V10.7629V10.7736Z" fill="black"/>
</svg>
