<svg width="88" height="19" viewBox="0 0 88 19" fill="none" xmlns="http://www.w3.org/2000/svg">
<path d="M86.4634 0.308594H84.4875C83.9245 0.308594 83.5824 0.651106 83.5824 1.2146V7.04836C83.5824 9.19183 82.4233 10.3962 80.8228 10.3962C79.1339 10.3962 78.1846 9.30232 78.1846 7.18095V1.2146C78.1846 0.651106 77.8424 0.308594 77.2794 0.308594H75.3036C74.7406 0.308594 74.3984 0.651106 74.3984 1.2146V7.46822C74.3984 11.4347 76.4516 13.6887 79.5423 13.6887C81.3968 13.6887 82.8318 13.07 83.8473 11.7993L84.0128 12.5949C84.1232 13.1031 84.4654 13.3904 84.9953 13.3904H86.4303C86.9932 13.3904 87.3354 13.0479 87.3354 12.4844V1.2146C87.3354 0.651106 87.0043 0.308594 86.4303 0.308594" fill="black"/>
<path d="M72.7338 9.93338H69.1905C67.9542 9.93338 67.303 9.2815 67.303 8.04404V1.20483C67.303 0.641342 66.9608 0.298828 66.3978 0.298828H64.3778C63.8149 0.298828 63.4727 0.641342 63.4727 1.20483V8.53019C63.4727 11.5355 65.294 13.3806 68.3185 13.3806H72.7338C73.2968 13.3806 73.639 13.0381 73.639 12.4746V10.8394C73.639 10.2759 73.2857 9.93338 72.7338 9.93338Z" fill="black"/>
<path d="M15.4032 1.18145C15.348 0.584814 15.039 0.308594 14.476 0.308594H12.9858C12.5112 0.308594 12.169 0.507473 11.9151 0.927327L8.2835 7.07046L4.91678 0.927327C4.69601 0.496424 4.32071 0.308594 3.84606 0.308594H2.24551C1.68256 0.308594 1.37349 0.595863 1.3183 1.18145L0.391077 12.4512C0.335885 13.07 0.644936 13.3793 1.22997 13.3793H3.02923C3.59219 13.3793 3.93437 13.1031 3.95645 12.5065L4.3428 6.19761L6.50631 10.1089C6.72708 10.5287 7.10238 10.7276 7.57703 10.7276H8.81332C9.28797 10.7276 9.63017 10.5619 9.88405 10.1089L12.3346 5.92139L12.6105 12.5065C12.6326 13.1031 12.9527 13.3793 13.5157 13.3793H15.4584C16.0545 13.3793 16.3636 13.07 16.2973 12.4512L15.3922 1.18145H15.4032Z" fill="black"/>
<path d="M60.8661 0.309366H59.3208C58.7909 0.309366 58.4157 0.585586 58.3384 1.12698L58.2501 1.76781C57.378 0.839708 56.1086 0 53.9893 0C50.4459 0 47.8298 2.7843 47.8298 6.80606C47.8298 10.8278 50.2804 13.6784 53.7685 13.6784C55.9651 13.6784 57.4001 12.7503 58.2721 11.7891L58.4156 12.5846C58.5039 13.0928 58.8351 13.3801 59.376 13.3801H60.8661C61.4291 13.3801 61.7713 13.0376 61.7713 12.4741V1.20432C61.7713 0.640831 61.4181 0.298317 60.8661 0.298317M54.8171 10.3859C52.8192 10.3859 51.5608 9.00477 51.5608 6.86131C51.5608 4.71784 52.8854 3.28149 54.8171 3.28149C56.7489 3.28149 58.0734 4.6626 58.0734 6.80606C58.0734 8.98268 56.7599 10.3859 54.8171 10.3859Z" fill="black"/>
<path d="M45.5934 0.309366H44.048C43.5182 0.309366 43.1429 0.585586 43.0656 1.12698L42.9773 1.76781C42.1053 0.839708 40.8358 0 38.7275 0C35.1842 0 32.5681 2.61857 32.5681 6.65138C32.5681 10.6842 34.9855 13.1812 38.4847 13.1812C40.6482 13.1812 41.9397 12.2752 42.8227 11.314V11.9659C42.8227 14.2198 41.5533 15.6562 38.8821 15.6562C37.7562 15.6562 36.7406 15.4352 35.703 14.9822C35.1732 14.7281 34.7427 14.8385 34.4998 15.3689L33.8817 16.6064C33.6278 17.1146 33.7161 17.5344 34.1908 17.8107C35.6809 18.6504 37.5133 18.9929 39.2794 18.9929C43.6948 18.9929 46.5096 16.2086 46.5096 12.3194V1.19327C46.5096 0.629782 46.1674 0.287269 45.6044 0.287269M39.5444 9.96602C37.6016 9.96602 36.288 8.67331 36.288 6.66243C36.288 4.55211 37.6679 3.29254 39.5444 3.29254C41.4209 3.29254 42.8007 4.45267 42.8007 6.61823C42.8007 8.56282 41.4209 9.96602 39.5444 9.96602Z" fill="black"/>
<path d="M30.3141 0.309366H28.7687C28.2389 0.309366 27.8636 0.585586 27.7863 1.12698L27.698 1.76781C26.826 0.839708 25.5565 0 23.4482 0C19.9049 0 17.2888 2.7843 17.2888 6.80606C17.2888 10.8278 19.7393 13.6784 23.2274 13.6784C25.4241 13.6784 26.8591 12.7503 27.7311 11.7891L27.8746 12.5846C27.9629 13.0928 28.2941 13.3801 28.8349 13.3801H30.3251C30.8881 13.3801 31.2303 13.0376 31.2303 12.4741V1.20432C31.2082 0.640831 30.877 0.298317 30.3141 0.298317M24.2761 10.3859C22.2781 10.3859 21.0198 9.00477 21.0198 6.86131C21.0198 4.71784 22.3444 3.28149 24.2761 3.28149C26.2078 3.28149 27.5324 4.6626 27.5324 6.80606C27.5324 8.94953 26.2078 10.3859 24.2761 10.3859Z" fill="black"/>
</svg>
