<svg xmlns="http://www.w3.org/2000/svg" width="150" height="90" fill="none"><path fill="#fff" d="M119.868 35.322h-2.076c-.59 0-.948.358-.948.949v6.138c0 2.255-1.217 3.526-2.909 3.526-1.78 0-2.783-1.154-2.783-3.383v-6.281c0-.591-.358-.949-.948-.949h-2.076c-.591 0-.949.358-.949.949v6.577c0 4.179 2.166 6.55 5.423 6.55 1.96 0 3.463-.653 4.537-1.987l.179.833c.116.537.474.832 1.038.832h1.512c.591 0 .949-.358.949-.949V36.272c0-.592-.349-.95-.949-.95ZM105.41 45.46h-3.732c-1.306 0-1.986-.68-1.986-1.986v-7.203c0-.591-.358-.949-.949-.949h-2.13c-.59 0-.948.358-.948.949v7.704c0 3.168 1.924 5.1 5.101 5.1h4.653c.591 0 .949-.357.949-.948V46.41c-.009-.59-.367-.948-.958-.948ZM45.012 36.244c-.063-.627-.385-.922-.975-.922h-1.575c-.502 0-.86.206-1.128.653l-3.82 6.461-3.553-6.46c-.233-.448-.627-.654-1.128-.654h-1.691c-.59 0-.913.304-.976.922l-.975 11.855c-.063.653.268.975.886.975h1.897c.59 0 .948-.295.975-.922l.412-6.64 2.282 4.117c.233.447.626.653 1.127.653h1.307c.5 0 .859-.179 1.127-.653l2.578-4.412.295 6.935c.027.627.358.922.948.922h2.05c.626 0 .948-.322.886-.975l-.949-11.855ZM92.908 35.322h-1.629c-.563 0-.948.295-1.038.86l-.09.68C89.232 35.885 87.898 35 85.67 35c-3.732 0-6.488 2.935-6.488 7.168 0 4.152 2.577 7.23 6.255 7.23 2.309 0 3.821-.975 4.743-1.986l.152.832c.09.537.447.832 1.011.832h1.575c.59 0 .948-.358.948-.949V36.272c-.008-.592-.366-.95-.957-.95Zm-6.379 10.611c-2.102 0-3.436-1.45-3.436-3.704 0-2.282 1.396-3.768 3.436-3.768 2.103 0 3.437 1.45 3.437 3.705.007 2.293-1.39 3.767-3.436 3.767ZM76.811 35.322h-1.629c-.563 0-.948.295-1.038.86l-.089.68C73.133 35.885 71.8 35 69.581 35c-3.732 0-6.488 2.756-6.488 6.998 0 4.027 2.55 6.872 6.228 6.872 2.282 0 3.642-.948 4.564-1.96v.68c0 2.372-1.333 3.884-4.152 3.884a8.173 8.173 0 0 1-3.347-.707c-.564-.268-1.011-.152-1.27.412l-.654 1.306c-.268.537-.179.976.322 1.271 1.575.886 3.5 1.244 5.36 1.244 4.654 0 7.616-2.935 7.616-7.025V36.272c0-.592-.358-.95-.949-.95ZM70.44 45.488c-2.05 0-3.436-1.36-3.436-3.472 0-2.22 1.45-3.553 3.436-3.553 2.049 0 3.436 1.217 3.436 3.499 0 2.05-1.45 3.526-3.436 3.526ZM60.724 35.322h-1.629c-.564 0-.948.295-1.038.86l-.09.68C57.047 35.885 55.714 35 53.494 35c-3.731 0-6.487 2.935-6.487 7.168 0 4.152 2.577 7.23 6.255 7.23 2.308 0 3.82-.975 4.742-1.986l.153.832c.089.537.447.832 1.01.832h1.576c.59 0 .948-.358.948-.949V36.272c-.018-.592-.376-.95-.966-.95Zm-6.372 10.611c-2.102 0-3.436-1.45-3.436-3.704 0-2.282 1.396-3.768 3.436-3.768 2.103 0 3.437 1.45 3.437 3.705 0 2.293-1.396 3.767-3.437 3.767Z"></path></svg>