<svg width="120" height="29" viewBox="0 0 120 29" fill="none" xmlns="http://www.w3.org/2000/svg">
<path d="M13.0706 18.9078C12.5154 19.4069 11.7223 19.577 11.2238 19.6337C10.2041 19.7585 9.16171 19.4182 8.49324 18.613C7.93807 17.9551 7.65483 17.0931 7.12232 16.4126C6.27257 15.3352 4.91295 14.6206 3.51936 14.8701C0.754842 15.3692 -0.491438 18.6016 1.06077 20.836C3.29278 24.0344 8.31194 23.4786 10.8839 21.2669C11.6883 20.5751 12.4361 19.8152 13.0592 18.9078" fill="black"/>
<path d="M106.674 18.9078C107.229 19.4069 108.022 19.577 108.521 19.6337C109.54 19.7585 110.583 19.4296 111.251 18.613C111.806 17.9551 112.09 17.0931 112.622 16.4126C113.472 15.3352 114.831 14.6206 116.225 14.8701C118.99 15.3692 120.236 18.6016 118.672 20.836C116.44 24.0344 111.421 23.4786 108.849 21.2669C108.045 20.5751 107.297 19.8152 106.674 18.9078Z" fill="black"/>
<path d="M97.4667 1.85938C97.3987 1.85938 90.8047 1.85938 90.748 1.85938C90.0229 1.88206 89.4337 2.55123 89.3997 3.24308C89.3658 3.9803 90.0002 4.70618 90.748 4.74021C90.816 4.74021 97.41 4.74021 97.4667 4.74021C98.1918 4.71753 98.7923 4.04835 98.815 3.3565C98.849 2.61928 98.2145 1.8934 97.4667 1.85938Z" fill="black"/>
<path d="M55.4712 16.195C55.3805 15.8093 55.3352 15.4351 55.3012 15.0608C55.3012 14.5164 55.3012 13.7451 55.3012 13.0419C55.3692 10.6034 55.8224 6.30486 52.514 6.30486C50.282 6.30486 48.9564 8.18761 48.5825 8.80007C48.5259 7.08745 47.1776 5.83984 45.1156 5.83984C43.8013 5.83984 43.0195 6.89464 43.0195 6.89464C43.0195 6.89464 44.2998 7.33697 44.2998 9.07227C44.3111 10.3085 44.2998 16.3424 44.2998 16.3651C44.3451 17.4312 45.0929 18.4407 46.4298 18.4407C47.7668 18.4407 48.5939 17.4199 48.5939 16.3651V11.0231C48.7751 10.1498 49.2737 9.25375 50.0101 9.25375C50.9732 9.25375 51.0298 10.3199 51.0298 10.3199V15.4918C51.0298 15.6619 51.0525 15.8207 51.0751 15.9795C51.1205 16.2517 51.1998 16.5012 51.3244 16.728C51.8342 17.7715 52.9672 18.452 54.4968 18.452C55.8111 18.452 56.5928 17.4085 56.5928 17.4085C56.5928 17.4085 55.8224 17.1363 55.4712 16.2063" fill="black"/>
<path d="M87.2826 16.1962C87.192 15.8106 87.1353 15.4363 87.1127 15.062V2.25703C87.1127 1.00942 86.1043 0 84.858 0C83.6117 0 82.6034 1.00942 82.6034 2.25703V13.5989C82.6147 14.6197 82.5127 15.6631 82.9999 16.6045C83.5098 17.6479 84.7674 18.4532 86.2969 18.4532C87.6226 18.4532 88.4043 17.4098 88.4043 17.4098C88.4043 17.4098 87.6339 17.1376 87.2826 16.2075" fill="black"/>
<path d="M36.9701 15.8433C36.9701 15.8433 36.9701 15.8433 36.9588 15.8433C36.9475 15.8433 36.9588 15.8433 36.9475 15.8433C35.7918 15.8206 35.214 14.4936 35.214 12.316C35.214 10.1384 35.9504 8.81138 36.9475 8.78869H36.9701C37.9672 8.81138 38.7036 10.1384 38.7036 12.316C38.7036 14.4936 38.1258 15.8206 36.9701 15.8433ZM36.9248 6.19141C33.5485 6.19141 30.8066 8.93614 30.8066 12.316C30.8066 15.6959 33.5485 18.4406 36.9248 18.4406C40.3012 18.4406 43.043 15.6959 43.043 12.316C43.043 8.93614 40.3012 6.19141 36.9248 6.19141Z" fill="black"/>
<path d="M62.5423 15.459C62.5423 15.459 62.5423 15.459 62.531 15.459H62.5196C61.364 15.4363 60.7861 14.2794 60.7861 12.3853C60.7861 10.4912 61.5226 9.33435 62.5196 9.31167C62.5196 9.31167 62.5196 9.31167 62.531 9.31167C62.531 9.31167 62.531 9.31167 62.5423 9.31167C63.5393 9.33435 64.2758 10.4912 64.2758 12.3853C64.2758 14.2794 63.698 15.4363 62.5423 15.459ZM69.2496 16.1962C69.159 15.8106 69.1023 15.4363 69.0797 15.062V2.25703C69.0797 1.00942 68.0713 0 66.825 0C65.5787 0 64.5703 1.00942 64.5703 2.25703V8.32493C64.0152 7.56503 62.8255 6.29474 60.9448 6.29474C55.767 6.29474 55.4384 15.5157 58.996 17.8067C59.993 18.4532 61.4999 18.612 62.6443 18.3171C63.4374 18.113 64.6723 17.3304 64.8763 16.4117C64.9103 16.4797 64.9329 16.5478 64.9669 16.6158C65.4767 17.6593 66.7344 18.4645 68.2639 18.4645C69.5895 18.4645 70.3713 17.4211 70.3713 17.4211C70.3713 17.4211 69.6009 17.1489 69.2496 16.2189" fill="black"/>
<path d="M74.3874 11.6245C74.5234 10.6604 74.7499 9.43548 75.6224 8.87973C76.3475 8.41472 77.3559 8.94778 77.3672 9.84379C77.3785 10.7965 76.7667 11.443 75.9056 11.6245C75.815 11.6471 74.3761 11.7152 74.3874 11.6245ZM80.9701 14.6527C80.9701 14.6527 80.313 15.5601 77.7411 15.5601C75.1692 15.5601 74.6253 13.5639 74.6253 13.5639C78.3642 13.5639 81.4913 13.3144 81.4913 10.2861C81.4913 7.25784 78.0696 6.25977 76.0416 6.25977C72.6992 6.25977 70.252 8.93644 70.252 12.4638C70.252 16.4334 73.4357 18.4523 76.0756 18.4523C80.7322 18.4523 80.9588 14.6641 80.9588 14.6641" fill="black"/>
<path d="M92.4206 11.6245C92.5566 10.6604 92.7832 9.43548 93.6556 8.87973C94.3807 8.41472 95.3891 8.94778 95.4004 9.84379C95.4117 10.7965 94.7999 11.443 93.9388 11.6245C93.8482 11.6471 92.4093 11.7152 92.4206 11.6245ZM99.0033 14.6527C99.0033 14.6527 98.3462 15.5601 95.7743 15.5601C93.2024 15.5601 92.6585 13.5639 92.6585 13.5639C96.3974 13.5639 99.5245 13.3144 99.5245 10.2861C99.5245 7.25784 96.1028 6.25977 94.0748 6.25977C90.7324 6.25977 88.2852 8.93644 88.2852 12.4638C88.2852 16.4334 91.4689 18.4523 94.1088 18.4523C98.7654 18.4523 98.992 14.6641 98.992 14.6641" fill="black"/>
<path d="M107.455 14.9814H104.883C105.075 14.9814 106.967 13.3822 107.602 12.8491C109.256 11.4427 112.213 9.42387 111.352 6.8039V6.82659C111.193 6.20279 110.718 5.83984 110.718 5.83984C110.718 5.83984 110.536 6.35023 109.924 6.57707C109.675 6.63378 109.426 6.67914 109.177 6.70183C108.973 6.70183 102.005 6.70183 102.005 6.70183C101.064 6.70183 100.271 7.46173 100.26 8.35774C100.26 9.26509 100.996 9.97962 101.948 10.0023L106.016 10.025C104.135 11.0798 101.88 12.3274 100.736 14.2215C100.079 15.3103 99.3876 17.0002 99.6482 18.2932C100.555 17.4879 102.923 16.7167 104.724 17.091C105.404 17.2271 106.118 17.5787 106.707 17.9416C110.094 20.0625 112.122 15.9114 110.514 14.0854C110.514 14.0854 109.596 14.9814 107.455 14.9814Z" fill="black"/>
<path d="M31.1276 17.5697C29.0542 15.29 28.397 11.5018 28.2724 8.98389C28.1591 6.80626 28.2724 3.04076 29.9946 1.9406C29.4167 1.21472 28.2837 0.931174 27.434 0.931174C25.4966 0.931174 24.5675 2.22415 23.9103 3.14284C23.6951 3.44907 20.4434 7.9291 20.4434 7.9291C20.4434 7.9291 17.7128 3.69859 17.3729 3.1882C16.9084 2.48501 16.036 1.19204 14.5178 0.976543C13.8607 0.885808 12.1498 0.795072 11.2208 2.06536C12.8183 3.34699 12.7843 6.61345 12.4331 8.83645C11.3907 15.5281 8.54688 16.1406 8.54688 16.1406C10.0084 20.0762 13.7587 18.5224 14.8124 15.3807C15.5035 13.3392 15.9454 10.7532 16.0474 8.60962L20.1601 14.927C20.1601 14.927 24.8168 8.62096 24.8168 8.6323C24.0463 19.7813 27.8759 22.9344 31.2182 22.9344C34.5605 22.9344 35.7049 19.8721 35.7049 19.8721C33.8921 19.7587 32.3172 18.8513 31.1276 17.547" fill="black"/>
<path d="M41.5696 21.1867C41.6149 21.3455 41.6263 21.5156 41.6376 21.6744C41.6376 21.7198 41.6376 27.5041 41.6376 27.5722C41.6489 28.0599 42.1021 28.4568 42.5666 28.4795C43.0538 28.5022 43.541 28.0826 43.5637 27.5722C43.5637 27.5041 43.5637 22.2982 43.5637 22.2982C43.5637 21.8559 43.5977 21.4135 43.3937 21.0166C43.1785 20.5743 42.6346 20.2227 41.9888 20.2227C41.4223 20.2227 41.0938 20.6763 41.0938 20.6763C41.0938 20.6763 41.4223 20.7897 41.5696 21.1867Z" fill="black"/>
<path d="M102.637 27.5261C102.592 27.3673 102.58 27.1972 102.569 27.0384C102.569 26.993 102.569 21.2087 102.569 21.1406C102.558 20.6529 102.104 20.256 101.64 20.2333C101.153 20.2106 100.665 20.6303 100.643 21.1406C100.643 21.2087 100.643 26.4146 100.643 26.4146C100.643 26.8569 100.609 27.2993 100.813 27.6962C101.028 28.1386 101.572 28.4902 102.218 28.4902C102.784 28.4902 103.113 28.0365 103.113 28.0365C103.113 28.0365 102.784 27.9231 102.637 27.5261Z" fill="black"/>
<path d="M67.7795 23.2169C66.7825 23.2169 66.182 24.0562 66.012 24.3397C66.012 24.0675 66.012 23.8407 66.012 23.8294C66.0007 23.3417 65.5475 22.9787 65.083 22.956C64.5958 22.9333 64.1086 23.319 64.0859 23.8294C64.0859 23.8974 64.0859 27.5155 64.0859 27.5722C64.0973 28.0599 64.5504 28.4568 65.015 28.4795C65.5022 28.5022 65.9894 28.0826 66.012 27.5722C66.012 27.5381 66.012 26.3473 66.012 25.3378C66.0913 24.9409 66.3179 24.5439 66.6465 24.5439C67.077 24.5439 67.0997 25.0202 67.0997 25.0202V27.5722C67.0997 28.0599 67.5642 28.4568 68.0174 28.4795C68.5046 28.5022 68.9918 28.0826 69.0145 27.5722V26.2338C69.0145 24.8615 69.1504 23.2056 67.7568 23.2169" fill="black"/>
<path d="M92.3967 23.2169C91.3997 23.2169 90.7992 24.0562 90.6292 24.3397C90.6292 24.0675 90.6292 23.8407 90.6292 23.8294C90.6179 23.3417 90.1647 22.9787 89.7002 22.956C89.213 22.9333 88.7258 23.319 88.7031 23.8294C88.7031 23.8974 88.7031 27.5155 88.7031 27.5722C88.7145 28.0599 89.1677 28.4568 89.6322 28.4795C90.1194 28.5022 90.6066 28.0826 90.6292 27.5722C90.6292 27.5381 90.6292 26.3473 90.6292 25.3378C90.7085 24.9409 90.9351 24.5439 91.2637 24.5439C91.6943 24.5439 91.7169 25.0202 91.7169 25.0202V27.5722C91.7169 28.0599 92.1814 28.4568 92.6346 28.4795C93.1218 28.5022 93.609 28.0826 93.6317 27.5722V26.2338C93.6317 24.8615 93.7677 23.2056 92.3741 23.2169" fill="black"/>
<path d="M48.2387 23.2169C47.2417 23.2169 46.6412 24.0562 46.4712 24.3397C46.4712 24.0675 46.4712 23.8407 46.4712 23.8294C46.4599 23.3417 46.0067 22.9787 45.5422 22.956C45.055 22.9333 44.5678 23.319 44.5452 23.8294C44.5452 23.8974 44.5452 27.5155 44.5452 27.5722C44.5565 28.0599 45.0097 28.4568 45.4742 28.4795C45.9614 28.5022 46.4486 28.0826 46.4712 27.5722C46.4712 27.5381 46.4712 26.3473 46.4712 25.3378C46.5506 24.9409 46.7772 24.5439 47.1057 24.5439C47.5363 24.5439 47.5589 25.0202 47.5589 25.0202V27.5722C47.5589 28.0599 48.0235 28.4568 48.4767 28.4795C48.9639 28.5022 49.4511 28.0826 49.4737 27.5722V26.2338C49.4737 24.8615 49.6097 23.2056 48.2161 23.2169" fill="black"/>
<path d="M85.4442 27.2978C84.923 27.2865 84.6624 26.6967 84.6624 25.7213C84.6624 24.7459 84.991 24.1561 85.4442 24.1448C85.8974 24.1448 86.2259 24.7572 86.2259 25.7213C86.2259 26.6853 85.9654 27.2865 85.4442 27.2978ZM85.4215 22.9766C83.9033 22.9766 82.6797 24.2015 82.6797 25.7213C82.6797 27.2411 83.9033 28.466 85.4215 28.466C86.9397 28.466 88.1634 27.2411 88.1634 25.7213C88.1634 24.2015 86.9397 22.9766 85.4215 22.9766Z" fill="black"/>
<path d="M72.2373 27.0967H72.2259C71.7047 27.0967 71.4441 26.5636 71.4441 25.7243C71.4441 24.885 71.7727 24.3633 72.2259 24.3519H72.2373C72.6905 24.3519 73.019 24.885 73.019 25.7243C73.019 26.5636 72.7584 27.0967 72.2373 27.0967ZM75.183 23.7621C75.1717 23.2518 74.6845 22.8321 74.2087 22.8094C73.6988 22.7867 73.189 23.2291 73.155 23.7621C73.155 23.7962 73.155 23.8756 73.155 23.8869C72.9171 23.5466 72.3732 22.9796 71.5348 22.9796C69.2121 22.9796 69.0648 27.108 70.6624 28.1401C71.1156 28.4236 71.784 28.503 72.2939 28.3669C72.5771 28.2876 73.0077 28.0494 73.2003 27.7318C73.3249 28.1401 73.7215 28.4463 74.1293 28.469C74.6392 28.4917 75.149 28.0494 75.183 27.5163C75.183 27.4483 75.183 23.8075 75.183 23.7621Z" fill="black"/>
<path d="M96.8294 27.0967H96.8181C96.2969 27.0967 96.0363 26.5636 96.0363 25.7243C96.0363 24.885 96.3649 24.3633 96.8181 24.3519H96.8294C97.2826 24.3519 97.6112 24.885 97.6112 25.7243C97.6112 26.5636 97.3506 27.0967 96.8294 27.0967ZM99.7752 23.7621C99.7639 23.2518 99.288 22.8321 98.8008 22.8094C98.291 22.7867 97.7812 23.2291 97.7585 23.7621C97.7585 23.7962 97.7585 23.8756 97.7585 23.8869C97.5206 23.5466 96.9767 22.9796 96.1383 22.9796C93.8156 22.9796 93.6684 27.108 95.2659 28.1401C95.7191 28.4236 96.3876 28.503 96.8974 28.3669C97.192 28.2876 97.6112 28.0494 97.8038 27.7318C97.9171 28.1401 98.325 28.4463 98.7329 28.469C99.2427 28.4917 99.7525 28.0494 99.7865 27.5163C99.7865 27.4483 99.7865 23.8075 99.7865 23.7621" fill="black"/>
<path d="M82.0847 24.2827C82.062 23.8064 81.6881 23.4321 81.2123 23.3867C81.1783 23.3867 81.1556 23.3867 81.1329 23.3867C80.7024 23.3867 80.1699 23.761 80.1699 24.226V26.0067C80.1699 26.5624 80.1699 27.5605 80.1699 27.5719C80.1926 28.0482 80.5665 28.4225 81.0423 28.4679C81.0763 28.4679 81.099 28.4679 81.1216 28.4679C81.5522 28.4679 82.0847 28.0936 82.0847 27.6286V26.1428C82.0847 25.587 82.0847 24.2941 82.0847 24.2827Z" fill="black"/>
<path d="M82.0734 21.8785C82.0734 22.4002 81.6428 22.8312 81.1216 22.8312C80.6005 22.8312 80.1699 22.4002 80.1699 21.8785C80.1699 21.3568 80.6005 20.9258 81.1216 20.9258C81.6428 20.9258 82.0734 21.3568 82.0734 21.8785Z" fill="black"/>
<path d="M62.5513 23.1491C61.9848 23.1718 61.7015 23.6028 61.305 24.1359C61.305 24.1359 61.305 23.8864 61.305 23.875C61.2937 23.3873 60.8404 22.9904 60.3759 22.9677C59.8887 22.945 59.4016 23.3646 59.3789 23.875V27.5725C59.3902 28.0602 59.8434 28.4571 60.3079 28.4798C60.7951 28.5025 61.271 28.0829 61.305 27.5838V25.236C61.339 24.8958 61.4863 24.4648 61.7582 24.4648C62.1547 24.4648 61.7468 25.4175 62.6419 25.4175C63.9222 25.4175 64.0695 23.0811 62.5513 23.1378" fill="black"/>
<path d="M55.6882 25.4064C55.7448 24.9754 55.8468 24.431 56.2433 24.1702C56.5719 23.9547 57.0251 24.2042 57.0251 24.6012C57.0251 25.0322 56.7532 25.3157 56.368 25.4064C56.3227 25.4064 55.6768 25.4518 55.6882 25.4064ZM58.634 26.7675C58.634 26.7675 58.3394 27.1758 57.1837 27.1758C56.0281 27.1758 55.7901 26.2798 55.7901 26.2798C57.467 26.2798 58.8719 26.1663 58.8719 24.8053C58.8719 23.4443 57.3423 23.002 56.4246 23.002C54.9177 23.002 53.8301 24.2042 53.8301 25.7807C53.8301 27.5614 55.2577 28.4687 56.4473 28.4687C58.532 28.4687 58.634 26.7675 58.634 26.7675Z" fill="black"/>
<path d="M53.7096 27.4582C53.7096 27.4582 53.2111 28.4789 52.282 28.4789C51.5229 28.4789 50.5825 27.8098 50.5485 26.8344C50.5485 26.8344 50.5485 25.428 50.5485 24.2484H50.2879C50.152 24.2484 49.9141 24.169 49.9141 23.8174C49.9141 23.4658 50.186 23.3864 50.3106 23.3864H50.5372C50.5372 22.9781 50.5372 22.6946 50.5372 22.6719C50.5599 22.1615 51.0471 21.7419 51.5342 21.7646C51.9988 21.7872 52.452 22.1842 52.4633 22.6719V23.3864H53.2791C53.3924 23.3864 53.6529 23.4658 53.6529 23.8174C53.6529 24.169 53.3924 24.2484 53.2451 24.2484H52.4633V26.4034C52.4633 27.1066 53.0638 27.4695 53.7096 27.4695" fill="black"/>
<path d="M79.4716 27.4582C79.4716 27.4582 78.973 28.4789 78.044 28.4789C77.2849 28.4789 76.3445 27.8098 76.3105 26.8344C76.3105 26.8344 76.3105 25.428 76.3105 24.2484H76.0499C75.914 24.2484 75.676 24.169 75.676 23.8174C75.676 23.4658 75.948 23.3864 76.0726 23.3864H76.2992C76.2992 22.9781 76.2992 22.6946 76.2992 22.6719C76.3219 22.1615 76.8091 21.7419 77.2962 21.7646C77.7608 21.7872 78.2139 22.1842 78.2253 22.6719V23.3864H79.041C79.1543 23.3864 79.4149 23.4658 79.4149 23.8174C79.4149 24.169 79.1543 24.2484 79.007 24.2484H78.2253V26.4034C78.2253 27.1066 78.8258 27.4695 79.4716 27.4695" fill="black"/>
</svg>
