<svg xmlns="http://www.w3.org/2000/svg" width="150" height="90" fill="none"><path fill="#fff" d="M32.265 49.249c-.503.459-1.233.61-1.686.666-.924.114-1.887-.188-2.497-.93-.503-.604-.761-1.384-1.252-2.007-.774-.988-2.013-1.636-3.29-1.403-2.522.46-3.667 3.397-2.24 5.441 2.039 2.92 6.625 2.41 8.977.39.73-.629 1.416-1.327 1.988-2.157Zm85.47 0c.503.459 1.226.61 1.686.666.924.12 1.887-.188 2.497-.93.503-.604.761-1.384 1.252-2.007.774-.988 2.013-1.636 3.29-1.403 2.522.46 3.667 3.397 2.239 5.441-2.038 2.913-6.617 2.41-8.97.39-.736-.629-1.422-1.327-1.994-2.157Zm-8.404-15.55h-6.14c-.66.018-1.208.629-1.239 1.258-.032.666.547 1.327 1.239 1.365h6.14c.66-.02 1.207-.63 1.239-1.259.031-.666-.547-1.327-1.239-1.365ZM70.99 46.776a6.559 6.559 0 0 1-.151-1.038v-1.844c.063-2.226.478-6.145-2.542-6.145-3.019 0-3.252 1.717-3.591 2.277-.05-1.567-1.284-2.699-3.17-2.699-1.888 0-1.92.956-1.92.956s1.177.41 1.177 1.982c.012 1.126 0 6.63 0 6.649.044.975.73 1.887 1.944 1.887s1.975-.937 1.975-1.887V42.04c.17-.8.616-1.61 1.296-1.61s.924.974.93.974v4.725c0 .15.02.302.045.446.044.245.12.478.226.686.466.95 1.504 1.572 2.894 1.572 1.39 0 1.918-.956 1.918-.956s-.704-.251-1.019-1.094m29.031-.007a5.922 5.922 0 0 1-.15-1.037V34.057a2.058 2.058 0 0 0-4.115 0v10.348c.013.931-.075 1.887.365 2.743.466.95 1.617 1.685 3.007 1.685 1.39 0 1.919-.956 1.919-.956s-.705-.251-1.019-1.094m-45.947-.327h-.025c-1.057-.02-1.585-1.233-1.585-3.221s.673-3.196 1.585-3.215h.025c.912.02 1.586 1.24 1.586 3.221 0 1.982-.529 3.196-1.586 3.215Zm-.044-8.807a5.592 5.592 0 1 0 0 11.184 5.592 5.592 0 0 0 0-11.184Z"></path><path fill="#fff" d="M77.432 46.097h-.026c-1.056-.019-1.585-1.076-1.585-2.806s.667-2.78 1.585-2.805h.026c.912.019 1.585 1.076 1.585 2.806s-.529 2.786-1.585 2.799m6.133.685a5.368 5.368 0 0 1-.151-1.037V34.057A2.054 2.054 0 0 0 81.357 32a2.054 2.054 0 0 0-2.057 2.057v5.536c-.503-.686-1.592-1.856-3.309-1.856-4.724 0-5.026 8.417-1.78 10.499.912.585 2.29.736 3.334.465.717-.188 1.855-.893 2.038-1.736.025.063.057.126.088.183.465.95 1.617 1.685 3.007 1.685 1.39 0 1.919-.956 1.919-.956s-.705-.251-1.02-1.094m4.687-4.177c.12-.88.333-1.994 1.126-2.51.66-.428 1.579.057 1.598.88.012.869-.548 1.46-1.334 1.63-.082.019-1.403.082-1.39 0Zm6.007 2.768s-.603.824-2.944.824c-2.34 0-2.843-1.818-2.843-1.818 3.41 0 6.272-.227 6.272-2.995 0-2.767-3.12-3.673-4.976-3.673-3.057 0-5.29 2.44-5.29 5.655 0 3.215 2.906 5.46 5.321 5.46 4.253 0 4.454-3.46 4.454-3.46l.006.007Zm10.455-2.768c.12-.88.334-1.994 1.126-2.51.661-.428 1.579.057 1.598.88.013.869-.547 1.46-1.334 1.63-.081.019-1.402.082-1.39 0Zm6.008 2.768s-.604.824-2.944.824-2.844-1.818-2.844-1.818c3.41 0 6.272-.227 6.272-2.995 0-2.767-3.12-3.673-4.976-3.673-3.057 0-5.29 2.44-5.29 5.655 0 3.215 2.906 5.46 5.322 5.46 4.252 0 4.453-3.46 4.453-3.46l.007.007Zm7.718.295h-2.346c.17 0 1.906-1.459 2.485-1.95 1.503-1.277 4.214-3.12 3.422-5.51v.019a1.802 1.802 0 0 0-.579-.9s-.164.466-.723.673a4.266 4.266 0 0 1-.68.113h-6.555c-.861 0-1.585.692-1.591 1.51-.013.824.673 1.485 1.541 1.497l3.712.026c-1.724.962-3.781 2.094-4.819 3.83-.598.994-1.233 2.536-.994 3.712.824-.73 2.988-1.44 4.636-1.095.617.132 1.271.447 1.806.78 3.088 1.931 4.95-1.85 3.472-3.516 0 0-.843.818-2.793.818m-69.68 2.346c-1.894-2.082-2.491-5.536-2.605-7.838-.1-1.988.007-5.422 1.573-6.423-.522-.66-1.56-.924-2.34-.924-1.761 0-2.617 1.176-3.215 2.019l-3.164 4.372s-2.497-3.863-2.8-4.322c-.42-.641-1.22-1.818-2.61-2.019-.604-.088-2.157-.17-3.007.994 1.46 1.17 1.422 4.145 1.108 6.184-.95 6.101-3.548 6.668-3.548 6.668 1.327 3.591 4.755 2.17 5.724-.692.63-1.862 1.032-4.221 1.126-6.171l3.762 5.768s4.259-5.75 4.259-5.743C42.33 50.06 45.822 52.94 48.872 52.94c3.051 0 4.096-2.793 4.096-2.793-1.655-.1-3.102-.93-4.184-2.12m9.512 3.303c.038.15.056.295.063.447v5.384c.012.44.421.812.843.83.446.026.893-.364.912-.83V52.35c0-.396.031-.805-.151-1.17-.202-.409-.692-.724-1.29-.724-.597 0-.824.41-.824.41s.302.106.44.471m55.766 5.769a2.216 2.216 0 0 1-.063-.447V51.28c-.012-.44-.421-.812-.843-.83-.446-.026-.893.364-.912.83v4.812c0 .396-.038.805.151 1.17.201.409.692.723 1.283.723.592 0 .824-.409.824-.409s-.301-.107-.434-.471m-31.83-3.926c-.912 0-1.46.768-1.61 1.02v-.46c-.013-.44-.422-.774-.843-.793-.447-.025-.893.334-.912.793v3.41c.012.44.421.811.843.83.446.025.893-.365.912-.83v-2.045h.006c.076-.365.277-.73.579-.73.302 0 .415.44.415.44v2.335c.013.44.422.811.843.83.447.025.893-.365.912-.83v-1.22c0-1.253.126-2.756-1.145-2.75Zm22.483 0c-.912 0-1.46.768-1.611 1.02v-.46c-.012-.44-.421-.774-.843-.793-.446-.025-.893.334-.912.793v3.41c.013.44.422.811.843.83.447.025.893-.365.912-.83v-2.045h.007c.075-.365.276-.73.578-.73.302 0 .415.44.415.44v2.335c.013.44.422.811.843.83.447.025.894-.365.913-.83v-1.22c0-1.253.125-2.756-1.145-2.75Zm-40.335 0c-.912 0-1.46.768-1.61 1.02v-.46c-.013-.44-.422-.774-.844-.793-.446-.025-.893.334-.912.793v3.41c.013.44.422.811.843.83.447.025.893-.365.912-.83v-2.045h.007c.075-.365.276-.73.578-.73.302 0 .416.44.416.44v2.335c.012.44.421.811.842.83.447.025.894-.365.913-.83v-1.22c0-1.253.125-2.756-1.145-2.75Zm33.975 3.724c-.472-.012-.71-.553-.71-1.44 0-.887.301-1.434.71-1.44h.013c.408.012.71.553.71 1.44 0 .887-.239 1.434-.71 1.44m-.032-3.944a2.502 2.502 0 0 0-2.504 2.504 2.502 2.502 0 0 0 2.504 2.503 2.502 2.502 0 0 0 2.504-2.503 2.502 2.502 0 0 0-2.504-2.504Zm-12.04 3.756h-.013c-.471-.007-.71-.485-.71-1.259 0-.773.302-1.245.71-1.258h.013c.409.007.71.485.71 1.258 0 .774-.238 1.252-.71 1.259Zm2.686-3.039c-.013-.465-.453-.849-.893-.868-.472-.025-.931.384-.956.868v.12c-.22-.308-.711-.83-1.479-.83-2.12 0-2.252 3.767-.799 4.705.41.264 1.026.327 1.491.207.264-.069.654-.295.83-.578a.973.973 0 0 0 .856.673c.472.025.931-.384.956-.868v-3.422m19.771 3.032h-.012c-.472-.007-.711-.485-.711-1.259 0-.773.302-1.245.711-1.258h.012c.409.007.711.485.711 1.258 0 .774-.239 1.252-.711 1.259Zm2.687-3.039c-.013-.465-.453-.849-.894-.868-.471-.025-.931.384-.956.868v.12c-.22-.308-.711-.83-1.478-.83-2.12 0-2.252 3.767-.799 4.705.409.264 1.025.327 1.497.207.264-.069.654-.295.83-.578a.973.973 0 0 0 .85.673c.471.025.931-.384.956-.868v-3.422m-16.173.465a.862.862 0 0 0-.799-.818c-.025 0-.05-.006-.076-.006-.39 0-.887.34-.887.767v3.051c.02.434.365.78.8.818.025 0 .05.006.075.006.39 0 .887-.34.887-.767v-3.051Zm-.006-2.19c0 .479-.39.869-.875.869a.871.871 0 1 1 0-1.742c.485 0 .875.39.875.874Zm-17.815 1.165c-.522.018-.78.408-1.139.9v-.233c-.012-.44-.421-.812-.843-.83-.446-.026-.893.364-.912.83v3.378c.013.44.421.811.843.83.447.025.88-.359.912-.818v-2.139c.025-.314.164-.704.415-.704.359 0-.012.868.805.868 1.177 0 1.303-2.133-.088-2.076m-6.271 2.05c.05-.396.15-.893.503-1.125a.473.473 0 0 1 .717.396c.006.39-.245.654-.597.73-.038.006-.63.037-.623 0Zm2.692 1.24s-.27.371-1.32.371c-1.051 0-1.278-.818-1.278-.818 1.529 0 2.812-.1 2.812-1.34 0-1.239-1.403-1.648-2.233-1.648-1.371 0-2.372 1.095-2.372 2.535 0 1.44 1.302 2.454 2.39 2.454 1.907 0 2.001-1.554 2.001-1.554Zm-4.491.623s-.46.924-1.302.924c-.843 0-1.554-.616-1.586-1.503 0-.006 0-1.29-.006-2.359h-.239c-.126 0-.34-.075-.34-.396s.246-.39.365-.39h.208v-.648c.019-.46.465-.85.912-.824.421.018.837.383.855.824v.648h.743c.1 0 .34.069.34.396s-.24.39-.365.39h-.718v1.963c0 .635.548.968 1.139.968m23.52.007s-.459.924-1.302.924-1.554-.616-1.585-1.503c0-.006 0-1.29-.006-2.359h-.24c-.125 0-.34-.075-.34-.396s.246-.39.366-.39h.207v-.648c.02-.46.466-.85.912-.824.422.018.837.383.856.824v.648h.742c.101 0 .34.069.34.396s-.239.39-.365.39h-.717v1.963c0 .635.547.968 1.139.968"></path></svg>