<svg width="101" height="34" viewBox="0 0 101 34" fill="none" xmlns="http://www.w3.org/2000/svg">
<path d="M18 33.2384H51.3171V28.0176L18 33.2384Z" fill="black"/>
<path d="M59.9931 8.15366V11.268C59.7895 11.2793 59.6197 11.268 59.484 11.268C59.3369 11.2567 59.2012 11.2227 59.0767 11.1661C58.9523 11.1095 58.8505 11.0302 58.7939 10.9169C58.7373 10.8037 58.7034 10.6565 58.7147 10.4753V8.17631C58.6242 7.75729 58.2396 7.59874 57.5495 7.67801C57.1874 7.72331 56.9838 7.75729 56.9273 7.77994C56.9499 7.88186 56.9499 7.99511 56.9499 8.11969V10.4639C56.9499 10.6451 56.9273 10.7924 56.8594 10.9056C56.7915 11.0189 56.701 11.1095 56.5765 11.1548C56.4521 11.2001 56.3163 11.234 56.1693 11.2567C56.0222 11.268 55.8525 11.268 55.6602 11.2567V7.08911C55.6602 6.71539 56.2598 6.52287 57.4476 6.48889C59.1333 6.44359 59.9818 6.99851 59.9818 8.14232L59.9931 8.15366Z" fill="black"/>
<path d="M61.5573 7.72388C61.5573 7.72388 61.5573 7.67858 61.5573 7.65593C61.5573 7.63328 61.5573 7.57666 61.5573 7.48606C61.5573 7.40679 61.5686 7.32751 61.58 7.24823C61.5913 7.16896 61.6252 7.08968 61.6705 6.99908C61.7157 6.90848 61.7723 6.82922 61.8402 6.76127C61.908 6.69332 62.0099 6.63668 62.1343 6.59138C62.2588 6.54608 62.4058 6.52344 62.5642 6.52344H62.8018C62.9489 6.52344 63.1072 6.52344 63.2543 6.52344C63.4014 6.52344 63.5711 6.53477 63.7295 6.54609C63.8879 6.54609 64.0349 6.58006 64.182 6.61404C64.3291 6.65934 64.4761 6.70464 64.6006 6.76127C64.7363 6.81789 64.8608 6.89715 64.9626 7.0104C65.0757 7.11233 65.1662 7.23691 65.2567 7.37281C65.3359 7.50871 65.4038 7.67858 65.449 7.88243C65.4943 8.08628 65.5169 8.31278 65.5169 8.56193V9.5019C65.5169 9.73973 65.4943 9.94357 65.4377 10.1361C65.3812 10.3286 65.3246 10.4872 65.2454 10.6004C65.1662 10.7137 65.0757 10.8269 64.9626 10.9175C64.8495 11.0081 64.7363 11.0761 64.6458 11.1214C64.5553 11.1667 64.4309 11.2006 64.2951 11.2233C64.1594 11.2459 64.0575 11.2686 63.9897 11.2686C63.9218 11.2686 63.8313 11.2686 63.7408 11.2686H62.5642C62.5642 11.2686 62.519 11.2686 62.485 11.2686C62.4511 11.2686 62.3832 11.2573 62.2927 11.2459C62.2022 11.2346 62.1117 11.212 62.0212 11.178C61.9307 11.1553 61.8402 11.0987 61.7384 11.0421C61.6365 10.9855 61.546 10.8949 61.4669 10.8156C61.3877 10.7363 61.3311 10.6117 61.2745 10.4645C61.2179 10.3173 61.1953 10.1587 61.1953 9.98887C61.1953 9.67177 61.2406 9.4113 61.3198 9.19612C61.399 8.98095 61.5234 8.81107 61.6818 8.69782C61.8402 8.58457 62.0212 8.49397 62.2248 8.44867C62.4284 8.40337 62.666 8.38073 62.9489 8.38073C63.4466 8.38073 63.786 8.34676 63.967 8.27881C64.148 8.21086 64.2385 8.10893 64.2385 7.97303C64.2385 7.7805 64.0462 7.6446 63.6729 7.57665C63.2996 7.5087 62.9036 7.49738 62.485 7.53136C62.0664 7.56533 61.761 7.63329 61.5573 7.71256V7.72388ZM64.2725 9.01492C64.2725 9.01492 64.2159 9.08287 64.1707 9.11684C64.1254 9.16214 64.0349 9.20744 63.8878 9.27539C63.7408 9.34334 63.5824 9.37733 63.424 9.37733C63.1412 9.37733 62.9149 9.4113 62.7452 9.47925C62.5755 9.5472 62.485 9.64912 62.485 9.77369C62.485 9.92091 62.5529 10.0342 62.6773 10.1021C62.8018 10.1701 63.0507 10.2154 63.4353 10.2154C63.5937 10.2154 63.7068 10.2154 63.786 10.2154C63.8652 10.2154 63.9444 10.1927 64.0123 10.1474C64.0802 10.1021 64.1367 10.0682 64.1593 10.0342C64.182 10.0002 64.2159 9.93225 64.2273 9.819C64.2386 9.70575 64.2612 9.60383 64.2612 9.5019C64.2612 9.39998 64.2612 9.24143 64.2612 9.02626L64.2725 9.01492Z" fill="black"/>
<path d="M66.9072 6.03716C66.7714 5.90126 66.7148 5.74272 66.7148 5.5502C66.7148 5.35767 66.7827 5.19913 66.9185 5.06323C67.0542 4.92733 67.2126 4.85938 67.405 4.85938C67.5973 4.85938 67.7557 4.92733 67.8914 5.06323C68.0272 5.19913 68.095 5.35767 68.095 5.5502C68.095 5.74272 68.0272 5.90126 67.8914 6.03716C67.7557 6.17306 67.5973 6.24102 67.405 6.24102C67.2126 6.24102 67.0542 6.17307 66.9185 6.0485L66.9072 6.03716ZM68.0272 7.38483C68.0272 7.10171 67.9819 6.90919 67.8914 6.78461C67.8009 6.66004 67.6991 6.60341 67.5747 6.60341C67.4502 6.60341 67.3144 6.60342 67.1447 6.58077C66.9751 6.56945 66.8393 6.52413 66.7375 6.44486V11.2806C67.1561 11.3033 67.4728 11.258 67.6991 11.156C67.9253 11.0541 68.0272 10.8276 68.0158 10.4879V7.38483H68.0272Z" fill="black"/>
<path d="M72.4209 6.52304C72.4209 6.52304 72.4209 6.59099 72.4209 6.70424C72.4209 6.81749 72.4209 6.91941 72.4209 7.02134C72.4095 7.12326 72.3869 7.22519 72.353 7.33843C72.319 7.45168 72.2511 7.54229 72.1493 7.61024C72.0475 7.67819 71.9118 7.71216 71.7421 7.71216C71.5045 7.71216 71.3121 7.71215 71.1877 7.7348C71.0633 7.75745 70.9388 7.79142 70.837 7.85937C70.7352 7.92732 70.6673 8.02926 70.6334 8.15383C70.5994 8.27841 70.5768 8.44828 70.5768 8.66345V11.4041C70.475 11.3248 70.3392 11.2682 70.1695 11.2342C69.9998 11.1889 69.8641 11.1549 69.7396 11.1323C69.6265 11.1096 69.5134 11.0417 69.4229 10.9284C69.3324 10.8152 69.2871 10.6566 69.2871 10.4415V8.1425C69.2871 8.1425 69.2871 8.06323 69.2871 8.0066C69.2871 7.94998 69.2984 7.85938 69.321 7.75745C69.3437 7.65553 69.3663 7.54228 69.4116 7.44035C69.4568 7.33843 69.5134 7.22519 69.5926 7.11194C69.6718 6.99869 69.7736 6.89675 69.8867 6.81748C69.9998 6.72688 70.1469 6.65893 70.3279 6.6023C70.5089 6.54568 70.7126 6.51172 70.9275 6.51172H72.4209V6.52304Z" fill="black"/>
<path d="M72.674 8.90168C72.674 8.90168 72.674 8.8224 72.6626 8.76577C72.6513 8.70915 72.6626 8.5959 72.6853 8.43735C72.7079 8.27881 72.7418 8.10893 72.7871 7.96171C72.8323 7.81449 72.9115 7.64461 73.0247 7.46341C73.1378 7.28221 73.2849 7.12366 73.4433 6.98776C73.6129 6.85186 73.8392 6.74993 74.122 6.65933C74.4049 6.56873 74.7329 6.52344 75.095 6.52344C75.3552 6.52344 75.5927 6.54609 75.8077 6.58007C76.0226 6.61404 76.215 6.67066 76.3733 6.73861C76.5317 6.80656 76.6675 6.89716 76.7919 6.99908C76.9164 7.10101 77.0182 7.20294 77.0974 7.30486C77.1766 7.40679 77.2445 7.52003 77.301 7.65593C77.3576 7.79183 77.3915 7.9164 77.4254 8.007C77.4481 8.10893 77.4707 8.22217 77.482 8.35807C77.4933 8.49397 77.5046 8.5959 77.5046 8.66385C77.5046 8.7318 77.5046 8.82239 77.5046 8.92432C77.5046 9.02624 77.5046 9.0942 77.5046 9.0942C77.5046 9.1848 77.5046 9.26408 77.5046 9.34335C77.5046 9.42263 77.482 9.53587 77.4481 9.69442C77.4254 9.85297 77.3802 10.0002 77.3236 10.1248C77.2671 10.2493 77.1879 10.3852 77.0747 10.5325C76.9616 10.6797 76.8372 10.8043 76.6788 10.9062C76.5204 11.0081 76.3281 11.0874 76.0905 11.1553C75.8529 11.2233 75.5814 11.2573 75.276 11.2573C74.9705 11.2573 74.6877 11.2346 74.4388 11.2006C74.1899 11.1553 73.9863 11.11 73.8166 11.0421C73.6469 10.9741 73.4998 10.8835 73.3641 10.7703C73.2396 10.657 73.1265 10.5438 73.0473 10.4192C72.9681 10.2946 72.9002 10.1474 72.8549 9.97755C72.8097 9.80767 72.7645 9.62648 72.7418 9.46793C72.7192 9.30938 72.6966 9.11684 72.674 8.89035V8.90168ZM73.9523 8.98095C73.9749 9.1848 73.9976 9.34334 74.0202 9.45659C74.0428 9.56984 74.1107 9.69441 74.1899 9.80766C74.2691 9.92091 74.3935 10.0002 74.5632 10.0568C74.7329 10.1134 74.9366 10.1361 75.1968 10.1361C75.4004 10.1361 75.5701 10.1021 75.7059 10.0455C75.8529 9.97754 75.9548 9.90959 76.0226 9.83032C76.0905 9.75104 76.1471 9.64912 76.181 9.53588C76.2263 9.42263 76.2489 9.33201 76.2489 9.27539C76.2489 9.21876 76.2489 9.15082 76.2489 9.08287V8.85637C76.2489 8.85637 76.2489 8.76578 76.2489 8.6865C76.2489 8.60723 76.2376 8.55061 76.2149 8.49398C76.2036 8.43736 76.181 8.38072 76.1584 8.30144C76.1358 8.22217 76.1018 8.16555 76.0679 8.10892C76.034 8.0523 75.9774 7.99568 75.9208 7.93905C75.8643 7.88243 75.7964 7.83714 75.7172 7.80316C75.638 7.76919 75.5475 7.73521 75.4457 7.71256C75.3438 7.68991 75.2194 7.67859 75.095 7.67859C74.8687 7.67859 74.6764 7.71256 74.518 7.76919C74.3596 7.83714 74.2465 7.90507 74.1673 7.98435C74.0881 8.06362 74.0315 8.17688 73.9976 8.31278C73.9523 8.44868 73.941 8.5506 73.9297 8.62988C73.9297 8.70915 73.9297 8.79975 73.9297 8.913V8.98095H73.9523Z" fill="black"/>
<path d="M79.9967 6.51239L79.4876 7.10127C79.6008 7.05597 79.7026 6.99935 79.8044 6.9314C79.9062 6.86345 79.9741 6.7955 80.0306 6.7502C80.0872 6.7049 80.189 6.65961 80.3474 6.61431C80.5058 6.56901 80.6981 6.55768 80.9583 6.55768C81.1846 6.55768 81.4108 6.58033 81.6145 6.62563C81.8294 6.67093 82.0331 6.75021 82.2367 6.86346C82.4403 6.97671 82.6214 7.12392 82.7684 7.29379C82.9155 7.46367 83.04 7.69018 83.1305 7.96198C83.221 8.23378 83.2662 8.53955 83.2662 8.8793C83.2662 9.76264 83.0739 10.3968 82.6892 10.7706C82.3046 11.1556 81.6823 11.3368 80.7999 11.3368C80.5171 11.3368 80.2682 11.3255 80.042 11.2915C79.8157 11.2689 79.646 11.2349 79.5103 11.2009C79.3745 11.1669 79.2614 11.1216 79.1482 11.065C79.0351 11.0084 78.9672 10.9518 78.922 10.9178C78.8767 10.8838 78.8428 10.8272 78.7862 10.7706C78.7409 10.7139 78.707 10.68 78.707 10.6686V5.61771C78.707 5.39121 78.7296 5.21002 78.7862 5.09677C78.8428 4.97219 78.9107 4.90423 79.0125 4.87026C79.1143 4.83628 79.2048 4.82496 79.3179 4.82496C79.431 4.82496 79.5442 4.82496 79.6686 4.80231C79.7931 4.77966 79.9062 4.74568 79.9854 4.67773V6.51239H79.9967ZM79.9967 8.95856C79.9967 9.71733 79.9967 10.0911 79.9967 10.0911C79.9967 10.0911 80.0872 10.1137 80.1438 10.125C80.2003 10.1364 80.2909 10.1477 80.4266 10.159C80.5624 10.1703 80.6868 10.1817 80.8113 10.159C80.9244 10.159 81.0601 10.125 81.2072 10.0797C81.3543 10.0344 81.4787 9.97781 81.5692 9.88721C81.6597 9.79661 81.7503 9.68336 81.8181 9.52481C81.886 9.36626 81.9199 9.17373 81.9199 8.95856C81.9199 8.73206 81.8973 8.52821 81.8294 8.35834C81.7729 8.18847 81.6937 8.0639 81.6032 7.96198C81.5127 7.86005 81.3995 7.79209 81.2751 7.73546C81.1506 7.67884 81.0262 7.64487 80.9131 7.63354C80.7999 7.62222 80.6755 7.62222 80.5397 7.63354C80.404 7.63354 80.3022 7.65619 80.2117 7.66752C80.1212 7.69017 80.042 7.7015 79.9628 7.72415V8.93592L79.9967 8.95856Z" fill="black"/>
<path d="M84.6142 6.03716C84.4785 5.90126 84.4219 5.74272 84.4219 5.5502C84.4219 5.35767 84.4898 5.19913 84.6255 5.06323C84.7613 4.92733 84.9197 4.85938 85.112 4.85938C85.3043 4.85938 85.4627 4.92733 85.5984 5.06323C85.7342 5.19913 85.8021 5.35767 85.8021 5.5502C85.8021 5.74272 85.7342 5.90126 85.5984 6.03716C85.4627 6.17306 85.3043 6.24102 85.112 6.24102C84.9197 6.24102 84.7613 6.17307 84.6255 6.0485L84.6142 6.03716ZM85.7342 7.38483C85.7342 7.10171 85.689 6.90919 85.5984 6.78461C85.5079 6.66004 85.4061 6.60341 85.2817 6.60341C85.1572 6.60341 85.0215 6.60342 84.8518 6.58077C84.6821 6.56945 84.5463 6.52413 84.4445 6.44486V11.2806C84.8631 11.3033 85.1799 11.258 85.4061 11.156C85.6324 11.0541 85.7342 10.8276 85.7229 10.4879V7.38483H85.7342Z" fill="black"/>
<path d="M59.4414 15.4926C59.2604 15.4926 59.0341 15.47 58.7513 15.4473C58.4685 15.4247 58.2649 15.402 58.1404 15.402C58.016 15.402 57.801 15.402 57.5069 15.4247C57.4277 15.4247 57.3711 15.4473 57.3145 15.4587C57.0996 15.5266 56.9978 15.6172 57.0204 15.7531C57.043 15.8437 57.0996 15.889 57.1901 15.9003C57.4843 15.9456 57.7445 16.0022 57.9933 16.0702C58.2422 16.1381 58.4346 16.2061 58.6043 16.2741C58.774 16.342 58.921 16.4213 59.0568 16.5119C59.1925 16.6025 59.2943 16.6817 59.3735 16.761C59.4527 16.8403 59.5206 16.9309 59.5772 17.0102C59.6337 17.0894 59.679 17.1687 59.6903 17.248C59.7016 17.3273 59.7242 17.3952 59.7469 17.4518C59.7695 17.5198 59.7695 17.5764 59.7582 17.6104C59.7582 17.6557 59.7582 17.6897 59.7582 17.7123V17.735C59.7582 18.2219 59.5545 18.5617 59.1473 18.7769C58.74 18.9807 58.1178 19.094 57.258 19.094C57.0317 19.094 56.8281 19.0713 56.6584 19.026C56.4887 18.9807 56.3643 18.9241 56.2624 18.8561C56.1606 18.7882 56.0927 18.7089 56.0362 18.6183C55.9796 18.5277 55.9457 18.4371 55.9343 18.3578C55.9117 18.2786 55.9117 18.1993 55.9117 18.12C55.9117 18.0407 55.9117 17.9841 55.923 17.9501C55.923 17.9162 55.9344 17.8935 55.9457 17.8822C56.1267 17.8822 56.3529 17.9048 56.6358 17.9275C56.9186 17.9501 57.1222 17.9728 57.2467 17.9728C57.3711 17.9728 57.5861 17.9728 57.8802 17.9501C58.0612 17.9275 58.197 17.9048 58.2988 17.8595C58.4006 17.8142 58.4572 17.7689 58.4685 17.7123C58.4798 17.6557 58.4685 17.6104 58.4459 17.5538C58.4119 17.4971 58.3667 17.4518 58.2875 17.4179C58.2083 17.3726 58.1291 17.3386 58.0273 17.3159C57.8802 17.2706 57.6879 17.2253 57.4616 17.18C57.2354 17.1347 57.0544 17.1008 56.896 17.0668C56.7376 17.0328 56.5905 16.9875 56.4208 16.9196C56.2511 16.8516 56.1154 16.7724 56.0022 16.6704C55.9004 16.5798 55.8099 16.4439 55.742 16.2741C55.6742 16.1042 55.6289 15.9003 55.6289 15.6625V15.6285C55.6289 15.1415 55.8325 14.8018 56.2398 14.5866C56.6471 14.3828 57.2693 14.2695 58.1291 14.2695C58.3554 14.2695 58.559 14.2922 58.7287 14.3375C58.8984 14.3828 59.0228 14.4394 59.1247 14.5074C59.2152 14.5753 59.2943 14.6546 59.3509 14.7452C59.4075 14.8358 59.4414 14.9264 59.4527 15.0057C59.4641 15.0849 59.4754 15.1642 59.4754 15.2435C59.4754 15.3228 59.4753 15.3794 59.464 15.4134C59.464 15.4473 59.4527 15.47 59.4414 15.4813V15.4926Z" fill="black"/>
<path d="M62.195 17.396C62.195 17.5772 62.2855 17.7018 62.4552 17.7924C62.6362 17.883 62.8512 17.9283 63.1227 17.9283C63.3942 17.9283 63.6544 17.9283 63.9146 17.8943C64.1748 17.8716 64.4237 17.8377 64.65 17.8037C64.8762 17.7697 65.012 17.7471 65.0459 17.7471C65.0685 18.2454 64.9667 18.5964 64.7518 18.8003C64.5368 19.0041 64.0956 19.1061 63.4281 19.1061C62.5118 19.1061 61.8443 18.9249 61.4144 18.5511C60.9845 18.1774 60.7695 17.5432 60.7695 16.6259C60.7695 16.1729 60.8261 15.7879 60.9393 15.4708C61.0524 15.1537 61.2221 14.9158 61.4483 14.746C61.6746 14.5761 61.9235 14.4628 62.2063 14.3949C62.4891 14.3269 62.8059 14.293 63.1792 14.293C63.8806 14.293 64.401 14.4402 64.7404 14.746C65.0685 15.0404 65.2382 15.5274 65.2382 16.1842C65.2382 16.4334 65.193 16.6372 65.0911 16.7845C64.9893 16.9317 64.8649 17.0336 64.7065 17.0902C64.5481 17.1469 64.3558 17.1808 64.1408 17.2035C63.9259 17.2261 63.6996 17.2374 63.496 17.2261C63.2924 17.2148 63.0548 17.2261 62.8059 17.2601C62.557 17.2827 62.3421 17.3394 62.1724 17.4073L62.195 17.396ZM62.1497 16.5013C62.2515 16.4334 62.4099 16.3881 62.6249 16.3654C62.8398 16.3428 63.0548 16.3315 63.2358 16.3315C63.4281 16.3315 63.5978 16.2862 63.7449 16.2069C63.892 16.1276 63.9598 16.0144 63.9598 15.8445C63.9598 15.6973 63.8467 15.5727 63.6091 15.4821C63.2811 15.3462 62.9643 15.3349 62.6588 15.4481C62.2289 15.6067 62.0592 15.9577 62.1497 16.5126V16.5013Z" fill="black"/>
<path d="M70.1954 14.4506V14.4846C70.2745 15.1414 70.0483 15.4812 69.5166 15.4812C69.4487 15.4812 69.3469 15.4812 69.1998 15.4812C69.0527 15.4812 68.9509 15.4812 68.8717 15.4812C68.7925 15.4812 68.702 15.4811 68.5776 15.5038C68.4531 15.5264 68.3513 15.5378 68.2834 15.5718C68.2156 15.5944 68.1364 15.6397 68.0572 15.7077C67.978 15.7756 67.9101 15.8436 67.8649 15.9228C67.8196 16.0021 67.7857 16.1153 67.7517 16.2512C67.7178 16.3871 67.7065 16.5457 67.7065 16.7156C67.7065 16.8854 67.7178 17.0213 67.7517 17.1572C67.7743 17.2818 67.8196 17.3837 67.8535 17.4743C67.8988 17.5649 67.9553 17.6329 68.0458 17.6895C68.1363 17.7461 68.2155 17.7914 68.3061 17.8254C68.3966 17.8594 68.5097 17.882 68.6568 17.9047C68.8038 17.916 68.9396 17.9273 69.064 17.9387C69.1885 17.9387 69.3469 17.9387 69.5505 17.9387C69.6297 17.9387 69.6976 17.9387 69.7541 17.9726C69.8107 17.9953 69.8673 18.0179 69.9125 18.0519C69.9578 18.0859 69.9917 18.1199 70.0256 18.1765C70.0596 18.2331 70.0822 18.2784 70.0935 18.3237C70.1161 18.369 70.1275 18.4256 70.1275 18.4823C70.1275 18.5389 70.1388 18.5955 70.1388 18.6408C70.1388 18.6861 70.1388 18.7427 70.1388 18.788C70.1388 18.8447 70.1388 18.8786 70.1388 18.9126C70.1388 18.9466 70.1388 18.9919 70.1162 19.0598C69.8786 19.0825 69.6749 19.1051 69.4826 19.1278C69.2903 19.1504 69.064 19.1504 68.7925 19.1278C68.521 19.1278 68.2834 19.0938 68.0798 19.0372C67.8761 18.9919 67.6612 18.9126 67.435 18.7994C67.2087 18.6861 67.0277 18.5502 66.8806 18.369C66.7335 18.1878 66.6204 17.9613 66.5186 17.6895C66.4281 17.4064 66.3828 17.078 66.3828 16.7156C66.3828 14.8017 67.5481 14.0429 69.8899 14.4166C69.9691 14.4279 70.0709 14.4393 70.2066 14.4732L70.1954 14.4506Z" fill="black"/>
<path d="M71.3867 17.4299V14.3156C71.5904 14.3043 71.7601 14.3156 71.8958 14.3156C72.0316 14.3156 72.1673 14.3609 72.3031 14.4175C72.4388 14.4741 72.518 14.5534 72.5859 14.6667C72.6538 14.7799 72.6764 14.9271 72.6764 15.1083V17.4073C72.7669 17.8263 73.1516 17.9962 73.8417 17.9056C74.1924 17.8603 74.4073 17.8263 74.4639 17.8037C74.4413 17.7017 74.4413 17.5885 74.4413 17.4639V15.1196C74.4413 14.9384 74.4639 14.7912 74.5204 14.678C74.577 14.5647 74.6788 14.4741 74.8033 14.4288C74.9277 14.3722 75.0635 14.3495 75.2106 14.3269C75.3576 14.3156 75.5273 14.3156 75.7196 14.3269V18.4945C75.7196 18.8682 75.12 19.0607 73.9322 19.0947C72.2352 19.14 71.398 18.5851 71.398 17.4413L71.3867 17.4299Z" fill="black"/>
<path d="M80.1122 14.2926C80.1122 14.2926 80.1122 14.3605 80.1122 14.4738C80.1122 14.587 80.1122 14.6889 80.1122 14.7909C80.1122 14.8928 80.0783 14.9947 80.0444 15.108C80.0104 15.2212 79.9425 15.3118 79.8407 15.3798C79.7389 15.4477 79.6031 15.4817 79.4334 15.4817C79.1959 15.4817 79.0036 15.4817 78.8791 15.5043C78.7434 15.527 78.6302 15.561 78.5284 15.6289C78.4266 15.6969 78.3587 15.7988 78.3248 15.9234C78.2908 16.0479 78.2682 16.2178 78.2682 16.433V19.1736C78.1664 19.0943 78.0306 19.0377 77.8609 19.0037C77.6912 18.9584 77.5555 18.9245 77.431 18.9018C77.3179 18.8792 77.2048 18.8112 77.1143 18.698C77.0238 18.5847 76.9785 18.4262 76.9785 18.211V15.912C76.9785 15.912 76.9785 15.8328 76.9785 15.7761C76.9785 15.7195 76.9898 15.6289 77.0125 15.527C77.0351 15.4251 77.0577 15.3118 77.1029 15.2099C77.1482 15.108 77.2048 14.9947 77.284 14.8815C77.3631 14.7682 77.465 14.6663 77.5781 14.587C77.6912 14.4964 77.8383 14.4285 78.0193 14.3718C78.2003 14.3152 78.404 14.2812 78.6189 14.2812H80.1122V14.2926Z" fill="black"/>
<path d="M81.6318 13.8047C81.496 13.6688 81.4395 13.5103 81.4395 13.3178C81.4395 13.1253 81.5073 12.9667 81.6431 12.8308C81.7788 12.6949 81.9372 12.627 82.1295 12.627C82.3219 12.627 82.4803 12.6949 82.616 12.8308C82.7518 12.9667 82.8197 13.1253 82.8197 13.3178C82.8197 13.5103 82.7518 13.6688 82.616 13.8047C82.4803 13.9406 82.3219 14.0086 82.1295 14.0086C81.9372 14.0086 81.7788 13.9406 81.6431 13.8161L81.6318 13.8047ZM82.7518 15.1411C82.7518 14.858 82.7065 14.6654 82.616 14.5409C82.5255 14.4163 82.4237 14.3597 82.2993 14.3597C82.1748 14.3597 82.0391 14.3597 81.8694 14.337C81.6997 14.3257 81.5639 14.2804 81.4621 14.2011V19.0369C81.8807 19.0595 82.1974 19.0142 82.4237 18.9123C82.6499 18.8104 82.7518 18.5839 82.7405 18.2441V15.1411H82.7518Z" fill="black"/>
<path d="M86.6227 17.9286C86.7019 18.1778 86.7132 18.4156 86.6566 18.6194C86.6001 18.8346 86.4982 18.9705 86.3625 19.0385C86.0683 19.1291 85.7742 19.1517 85.4914 19.1177C85.2086 19.0838 84.9597 19.0045 84.7334 18.8799C84.5184 18.7553 84.3374 18.5855 84.2017 18.359C84.0659 18.1325 83.998 17.872 83.998 17.5775V13.8969C83.998 13.7157 84.0207 13.5685 84.0886 13.4553C84.1564 13.342 84.247 13.2514 84.3714 13.2061C84.4958 13.1608 84.6316 13.1268 84.7787 13.1042C84.9257 13.0929 85.0954 13.0929 85.2878 13.1042V14.3499H86.7584V14.4179C86.7584 14.4179 86.7585 14.4972 86.7358 14.5764C86.7132 14.6557 86.7132 14.735 86.6792 14.8029C86.6453 14.8709 86.6227 14.9615 86.5661 15.0521C86.5096 15.1427 86.453 15.2106 86.3738 15.2786C86.2946 15.3465 86.2041 15.3918 86.0797 15.4371C85.9552 15.4824 85.8195 15.5051 85.6611 15.5051C85.5253 15.5051 85.4009 15.5051 85.2878 15.5051V17.4869C85.2878 17.6455 85.3217 17.7588 85.3896 17.838C85.4574 17.9173 85.548 17.9739 85.6724 17.9852C85.7968 17.9966 85.91 18.0079 86.0231 17.9852C86.1362 17.9852 86.2607 17.9626 86.3851 17.9513C86.5096 17.9286 86.5888 17.9286 86.634 17.9286H86.6227Z" fill="black"/>
<path d="M88.0575 13.8047C87.9218 13.6688 87.8652 13.5103 87.8652 13.3178C87.8652 13.1253 87.9331 12.9667 88.0689 12.8308C88.2046 12.6949 88.363 12.627 88.5553 12.627C88.7476 12.627 88.906 12.6949 89.0418 12.8308C89.1775 12.9667 89.2454 13.1253 89.2454 13.3178C89.2454 13.5103 89.1775 13.6688 89.0418 13.8047C88.906 13.9406 88.7476 14.0086 88.5553 14.0086C88.363 14.0086 88.2046 13.9406 88.0689 13.8161L88.0575 13.8047ZM89.1776 15.1411C89.1776 14.858 89.1323 14.6654 89.0418 14.5409C88.9513 14.4163 88.8495 14.3597 88.725 14.3597C88.6006 14.3597 88.4648 14.3597 88.2951 14.337C88.1254 14.3257 87.9897 14.2804 87.8878 14.2011V19.0369C88.3064 19.0595 88.6232 19.0142 88.8495 18.9123C89.0757 18.8104 89.1775 18.5839 89.1662 18.2441V15.1411H89.1776Z" fill="black"/>
<path d="M91.787 17.396C91.787 17.5772 91.8776 17.7018 92.0472 17.7924C92.2283 17.883 92.4432 17.9283 92.7147 17.9283C92.9862 17.9283 93.2464 17.9283 93.5066 17.8943C93.7668 17.8716 94.0157 17.8377 94.242 17.8037C94.4683 17.7697 94.604 17.7471 94.6379 17.7471C94.6605 18.2454 94.5588 18.5964 94.3438 18.8003C94.1289 19.0041 93.6876 19.1061 93.0202 19.1061C92.1038 19.1061 91.4363 18.9249 91.0064 18.5511C90.5765 18.1774 90.3616 17.5432 90.3616 16.6259C90.3616 16.1729 90.4182 15.7879 90.5313 15.4708C90.6444 15.1537 90.8141 14.9158 91.0404 14.746C91.2666 14.5761 91.5155 14.4628 91.7984 14.3949C92.0812 14.3269 92.3979 14.293 92.7713 14.293C93.4727 14.293 93.9931 14.4402 94.3325 14.746C94.6719 15.0517 94.8303 15.5274 94.8303 16.1842C94.8303 16.4334 94.785 16.6372 94.6832 16.7845C94.5814 16.9317 94.4569 17.0336 94.2985 17.0902C94.1402 17.1469 93.9478 17.1808 93.7329 17.2035C93.5179 17.2261 93.2917 17.2374 93.088 17.2261C92.8844 17.2148 92.6468 17.2261 92.398 17.2601C92.1491 17.2827 91.9341 17.3394 91.7644 17.4073L91.787 17.396ZM91.7418 16.5013C91.8436 16.4334 92.002 16.3881 92.2169 16.3654C92.4319 16.3428 92.6468 16.3315 92.8279 16.3315C93.0202 16.3315 93.1899 16.2862 93.3369 16.2069C93.484 16.1276 93.5519 16.0144 93.5519 15.8445C93.5519 15.6973 93.4387 15.5727 93.2012 15.4821C92.8731 15.3462 92.5563 15.3349 92.2509 15.4481C91.821 15.6067 91.6513 15.9577 91.7418 16.5126V16.5013Z" fill="black"/>
<path d="M99.7871 15.4926C99.6061 15.4926 99.3798 15.47 99.097 15.4473C98.8142 15.4247 98.6106 15.402 98.4861 15.402C98.3617 15.402 98.1467 15.402 97.8526 15.4247C97.7734 15.4247 97.7168 15.4473 97.6603 15.4587C97.4453 15.5266 97.3435 15.6172 97.3661 15.7531C97.3887 15.8437 97.4453 15.889 97.5358 15.9003C97.8299 15.9456 98.0902 16.0022 98.339 16.0702C98.5879 16.1381 98.7802 16.2061 98.9499 16.2741C99.1196 16.342 99.2667 16.4213 99.4025 16.5119C99.5382 16.6025 99.6401 16.6817 99.7192 16.761C99.7984 16.8403 99.8663 16.9309 99.9229 17.0102C99.9794 17.0894 100.025 17.1687 100.036 17.248C100.047 17.3273 100.07 17.3952 100.093 17.4518C100.115 17.5198 100.115 17.5764 100.104 17.6104C100.093 17.6444 100.104 17.6897 100.104 17.7123V17.735C100.104 18.2219 99.9002 18.5617 99.493 18.7769C99.0857 18.9807 98.4635 19.094 97.6037 19.094C97.3774 19.094 97.1738 19.0713 97.0041 19.026C96.8344 18.9807 96.71 18.9241 96.6081 18.8561C96.5063 18.7882 96.4384 18.7089 96.3819 18.6183C96.3253 18.5277 96.2914 18.4371 96.2801 18.3578C96.2574 18.2786 96.2574 18.1993 96.2574 18.12C96.2574 18.0407 96.2574 17.9841 96.2687 17.9501C96.2687 17.9162 96.2801 17.8935 96.2914 17.8822C96.4724 17.8822 96.6986 17.9048 96.9815 17.9275C97.2643 17.9501 97.4679 17.9728 97.5924 17.9728C97.7168 17.9728 97.9318 17.9728 98.2259 17.9501C98.4069 17.9275 98.5427 17.9048 98.6445 17.8595C98.7463 17.8142 98.8029 17.7689 98.8142 17.7123C98.8255 17.6557 98.8142 17.6104 98.7916 17.5538C98.7576 17.4971 98.7124 17.4518 98.6332 17.4179C98.554 17.3726 98.4748 17.3386 98.373 17.3159C98.2259 17.2706 98.0336 17.2253 97.8073 17.18C97.5811 17.1347 97.4001 17.1008 97.2417 17.0668C97.0833 17.0328 96.9362 16.9875 96.7665 16.9196C96.5968 16.8516 96.4611 16.7724 96.3479 16.6704C96.2461 16.5798 96.1556 16.4439 96.0877 16.2741C96.0198 16.1042 95.9746 15.9003 95.9746 15.6625V15.6285C95.9746 15.1415 96.1782 14.8018 96.5855 14.5866C96.9928 14.3828 97.615 14.2695 98.4748 14.2695C98.7011 14.2695 98.9047 14.2922 99.0744 14.3375C99.2441 14.3828 99.3685 14.4394 99.4704 14.5074C99.5609 14.5753 99.64 14.6546 99.6966 14.7452C99.7532 14.8358 99.7871 14.9264 99.7984 15.0057C99.8097 15.0849 99.8211 15.1642 99.8211 15.2435C99.8211 15.3228 99.821 15.3794 99.8097 15.4134C99.8097 15.4473 99.7984 15.47 99.7871 15.4813V15.4926Z" fill="black"/>
<path d="M57.0466 25.1636C57.0466 25.3448 57.137 25.4693 57.3067 25.5599C57.4764 25.6505 57.7027 25.6958 57.9742 25.6958C58.2458 25.6958 58.5059 25.6958 58.7661 25.6619C59.0263 25.6392 59.2752 25.6052 59.5015 25.5713C59.7277 25.5373 59.8635 25.5147 59.8974 25.5147C59.9201 26.013 59.8182 26.364 59.6033 26.5679C59.3883 26.7717 58.9472 26.8736 58.2797 26.8736C57.3633 26.8736 56.6958 26.6924 56.2659 26.3187C55.8361 25.945 55.6211 25.3108 55.6211 24.3935C55.6211 23.9405 55.6777 23.5554 55.7908 23.2383C55.9039 22.9212 56.0736 22.6834 56.2999 22.5135C56.5261 22.3437 56.775 22.2304 57.0578 22.1625C57.3407 22.0945 57.6575 22.0605 58.0308 22.0605C58.7322 22.0605 59.2526 22.2078 59.592 22.5135C59.9201 22.808 60.0898 23.295 60.0898 23.9518C60.0898 24.201 60.0445 24.4048 59.9427 24.552C59.8409 24.6993 59.7164 24.8012 59.5581 24.8578C59.3997 24.9144 59.2074 24.9484 58.9924 24.971C58.7775 24.9937 58.5512 25.005 58.3476 24.9937C58.1326 24.9937 57.9063 24.9937 57.6574 25.0277C57.4086 25.0503 57.1936 25.107 57.0239 25.1749L57.0466 25.1636ZM57.0126 24.2576C57.1144 24.1896 57.2728 24.1443 57.4877 24.1217C57.7027 24.099 57.9177 24.0877 58.0987 24.0877C58.291 24.0877 58.4607 24.0424 58.6078 23.9631C58.7548 23.8839 58.8227 23.7706 58.8227 23.6007C58.8227 23.4535 58.7096 23.3289 58.472 23.2383C58.1439 23.1024 57.8271 23.0911 57.5217 23.2044C57.0918 23.3629 56.9221 23.714 57.0126 24.2689V24.2576Z" fill="black"/>
<path d="M60.6107 22.2993C60.7012 22.2427 60.803 22.2087 60.9275 22.1634C61.0519 22.1294 61.199 22.1068 61.3687 22.0955C61.5383 22.0841 61.7194 22.1295 61.9117 22.2087C62.104 22.2993 62.2624 22.4239 62.4208 22.6164C62.5791 22.809 62.7828 23.0694 63.0317 23.4092C63.3371 22.9901 63.586 22.6504 63.767 22.4013C63.948 22.2314 64.1517 22.1408 64.3779 22.1181C64.6042 22.0955 64.8078 22.1181 64.9662 22.2087C65.1246 22.2993 65.2491 22.3786 65.3056 22.4919C65.0794 22.7976 64.5816 23.4545 63.8236 24.4624C64.6721 25.5949 65.1925 26.2857 65.3848 26.5462C65.3169 26.6594 65.2038 26.75 65.0454 26.8293C64.887 26.9086 64.6834 26.9425 64.4571 26.9199C64.2309 26.8972 64.0272 26.8066 63.8462 26.6368C63.6539 26.365 63.3824 25.9912 63.0317 25.5269C62.7375 25.912 62.5113 26.2064 62.3416 26.4216C62.1945 26.6028 62.0248 26.7387 61.8325 26.8293C61.6402 26.9199 61.4705 26.9539 61.2895 26.9425C61.1084 26.9312 60.9727 26.9086 60.8483 26.8746C60.7238 26.8406 60.622 26.7953 60.5315 26.75C60.9388 26.1951 61.5044 25.4363 62.2285 24.485C61.5497 23.5904 61.0067 22.8656 60.6107 22.322V22.2993Z" fill="black"/>
<path d="M69.5098 22.2201V22.2541C69.589 22.9109 69.3627 23.2507 68.831 23.2507C68.7631 23.2507 68.6613 23.2507 68.5142 23.2507C68.3671 23.2507 68.2654 23.2507 68.1862 23.2507C68.107 23.2507 68.0165 23.2507 67.892 23.2733C67.7676 23.296 67.6657 23.3073 67.5979 23.3413C67.53 23.3753 67.4508 23.4092 67.3716 23.4772C67.2811 23.5338 67.2245 23.6131 67.1793 23.6924C67.134 23.7716 67.1001 23.8849 67.0661 24.0208C67.0322 24.1567 67.0209 24.3152 67.0209 24.4851C67.0209 24.655 67.0322 24.7909 67.0661 24.9268C67.0888 25.0514 67.134 25.1533 67.168 25.2439C67.2132 25.3345 67.2698 25.4024 67.3603 25.4591C67.4508 25.5157 67.53 25.561 67.6205 25.5949C67.711 25.6289 67.8241 25.6516 67.9712 25.6742C68.1183 25.6969 68.254 25.6969 68.3785 25.7082C68.5029 25.7082 68.6613 25.7082 68.8649 25.7082C68.9441 25.7082 69.012 25.7082 69.0686 25.7422C69.1251 25.7648 69.1817 25.7875 69.2269 25.8214C69.2722 25.8554 69.3061 25.8894 69.3401 25.946C69.374 25.9913 69.3966 26.0479 69.408 26.0932C69.4306 26.1385 69.4419 26.1952 69.4419 26.2518C69.4419 26.3084 69.4532 26.365 69.4532 26.4103C69.4532 26.4556 69.4532 26.5123 69.4532 26.5576C69.4532 26.6142 69.4532 26.6482 69.4532 26.6821C69.4532 26.7161 69.4532 26.7614 69.4306 26.8294C69.193 26.852 68.9894 26.8747 68.797 26.8973C68.616 26.9086 68.3785 26.92 68.107 26.8973C67.8354 26.8747 67.5979 26.8633 67.3942 26.8067C67.1906 26.7614 66.9756 26.6821 66.7494 26.5689C66.5231 26.4556 66.3421 26.3197 66.195 26.1385C66.048 25.9573 65.9348 25.7309 65.833 25.4591C65.7425 25.1759 65.6973 24.8475 65.6973 24.4851C65.6973 22.5712 66.8625 21.8124 69.2043 22.1861C69.2835 22.1975 69.3853 22.2088 69.5211 22.2428L69.5098 22.2201Z" fill="black"/>
<path d="M72.0073 22.219C72.2901 22.1057 72.754 22.0491 73.4101 22.0491C73.7269 22.0491 73.9984 22.1057 74.236 22.2076C74.4622 22.3209 74.6319 22.4454 74.7338 22.5813C74.8356 22.7172 74.9148 22.8758 74.9714 23.057C75.0279 23.2382 75.0505 23.3741 75.0618 23.4647C75.0618 23.5553 75.0618 23.6346 75.0618 23.6912V26.8056C74.2021 26.9188 73.7835 26.6583 73.7835 26.0128V25.0728C73.7835 24.2235 73.7495 23.7025 73.659 23.5213C73.5685 23.3401 73.3083 23.2382 72.8558 23.2269C72.573 23.2269 72.3014 23.2835 72.0186 23.3854V26.0241C72.0299 26.3639 71.9281 26.5904 71.7019 26.6923C71.4756 26.7942 71.1588 26.8395 70.7402 26.8169V20.1465C70.8421 20.2258 70.9778 20.2597 71.1475 20.2824C71.3172 20.2937 71.453 20.305 71.5774 20.305C71.7019 20.305 71.8037 20.3617 71.8942 20.4862C71.9847 20.6108 72.0299 20.8147 72.0299 21.0865V22.2303L72.0073 22.219Z" fill="black"/>
<path d="M76.5983 23.2493C76.5983 23.2493 76.5983 23.204 76.5983 23.1813C76.5983 23.1587 76.5983 23.102 76.5983 23.0114C76.5983 22.9322 76.6097 22.8529 76.621 22.7736C76.6323 22.6943 76.6662 22.6151 76.7115 22.5245C76.7567 22.4339 76.8133 22.3546 76.8811 22.2866C76.949 22.2187 77.0509 22.1621 77.1753 22.1168C77.2997 22.0715 77.4468 22.0488 77.6052 22.0488H77.8428C77.9898 22.0488 78.1482 22.0488 78.2953 22.0488C78.4424 22.0488 78.6121 22.0601 78.7705 22.0715C78.9288 22.0715 79.0759 22.1054 79.223 22.1394C79.37 22.1847 79.5171 22.23 79.6415 22.2866C79.7773 22.3433 79.9018 22.4225 80.0036 22.5358C80.1167 22.6377 80.2072 22.7623 80.2977 22.8982C80.3882 23.0341 80.4448 23.204 80.49 23.4078C80.5353 23.6117 80.5579 23.8382 80.5579 24.0873V25.0273C80.5579 25.2651 80.5353 25.4689 80.4787 25.6615C80.4222 25.854 80.3656 26.0125 80.2864 26.1258C80.2072 26.2504 80.1167 26.3523 80.0036 26.4429C79.8904 26.5335 79.7773 26.6015 79.6868 26.6468C79.5963 26.6921 79.4719 26.726 79.3361 26.7487C79.2003 26.7713 79.0985 26.794 79.0307 26.794C78.9628 26.794 78.8723 26.794 78.7818 26.794H77.6052C77.6052 26.794 77.5599 26.794 77.526 26.794C77.4921 26.794 77.4242 26.7827 77.3337 26.7713C77.2432 26.76 77.1527 26.7373 77.0622 26.7034C76.9717 26.6807 76.8812 26.6241 76.7793 26.5675C76.6775 26.5108 76.587 26.4202 76.5078 26.341C76.4286 26.2504 76.3721 26.1371 76.3155 25.9899C76.2589 25.8427 76.2363 25.6841 76.2363 25.5143C76.2363 25.1972 76.2816 24.9367 76.3608 24.7215C76.4399 24.5063 76.5644 24.3365 76.7228 24.2232C76.8812 24.11 77.0622 24.0307 77.2658 23.9741C77.4695 23.9288 77.707 23.9061 77.9898 23.9061C78.4876 23.9061 78.827 23.8721 79.008 23.8042C79.189 23.7362 79.2796 23.6343 79.2796 23.4984C79.2796 23.3059 79.0872 23.17 78.7139 23.102C78.3406 23.0341 77.9446 23.0228 77.526 23.0567C77.1074 23.0907 76.802 23.1587 76.5983 23.2379V23.2493ZM79.3022 24.5403C79.3022 24.5403 79.2456 24.6083 79.2004 24.6422C79.1551 24.6875 79.0646 24.7328 78.9175 24.8008C78.7705 24.8687 78.6121 24.9027 78.4537 24.9027C78.1709 24.9027 77.9446 24.9367 77.7749 25.0046C77.6052 25.0726 77.5147 25.1745 77.5147 25.2991C77.5147 25.4463 77.5826 25.5595 77.707 25.6275C77.8315 25.7068 78.0804 25.7408 78.465 25.7408C78.6234 25.7408 78.7365 25.7408 78.8157 25.7408C78.8949 25.7408 78.9741 25.7181 79.042 25.6728C79.1098 25.6275 79.1664 25.5935 79.189 25.5595C79.2117 25.5256 79.2456 25.4576 79.2569 25.3444C79.2682 25.2311 79.2908 25.1292 79.2908 25.0273C79.2908 24.9254 79.2908 24.7668 79.2908 24.5516L79.3022 24.5403Z" fill="black"/>
<path d="M86.1122 23.6908V26.8051C85.9086 26.8165 85.7389 26.8051 85.6031 26.8051C85.4561 26.7938 85.3203 26.7598 85.1958 26.7032C85.0714 26.6466 84.9696 26.5673 84.913 26.4541C84.8564 26.3408 84.8225 26.1936 84.8338 26.0124V23.7134C84.7433 23.2944 84.3587 23.1358 83.6686 23.2151C83.3065 23.2604 83.1029 23.2944 83.0464 23.317C83.069 23.419 83.069 23.5322 83.069 23.6568V26.001C83.069 26.1822 83.0464 26.3295 82.9785 26.4427C82.9106 26.556 82.8201 26.6466 82.6957 26.6919C82.5712 26.7372 82.4355 26.7711 82.2884 26.7938C82.1413 26.8051 81.9716 26.8051 81.7793 26.7938V22.6262C81.7793 22.2525 82.3789 22.06 83.5668 22.026C85.2524 21.9807 86.1009 22.5356 86.1009 23.6794L86.1122 23.6908Z" fill="black"/>
<path d="M90.7299 26.6813C90.4923 26.704 90.2887 26.7266 90.0963 26.738C89.9153 26.7493 89.7004 26.738 89.4515 26.738C89.2026 26.7153 88.9876 26.6927 88.8066 26.636C88.6256 26.5907 88.4333 26.5115 88.241 26.3982C88.0486 26.285 87.8903 26.1491 87.7658 25.9905C87.6414 25.832 87.5396 25.6168 87.4604 25.3563C87.3812 25.0958 87.3359 24.8014 87.3359 24.473C87.3359 23.1933 87.8563 22.4231 88.8972 22.174C89.4289 22.0381 90.1868 22.0494 91.1598 22.2306C91.3973 22.2986 91.5557 22.3552 91.6576 22.4231C91.7594 22.4911 91.8046 22.593 91.8046 22.7516V26.285C91.8046 26.285 91.8046 26.2963 91.8046 26.3076C91.929 26.636 91.963 26.9192 91.9177 27.1683C91.8725 27.4174 91.782 27.6326 91.6462 27.8138C91.5105 27.995 91.3181 28.1423 91.0692 28.2555C90.8317 28.3688 90.5715 28.448 90.2886 28.5047C90.0171 28.5613 89.7117 28.5839 89.4062 28.5839C89.1234 28.5839 88.8745 28.5839 88.6596 28.5499C88.4446 28.5273 88.2862 28.5046 88.1844 28.482C88.0826 28.4593 87.9921 28.4254 87.9242 28.3914C87.8563 28.3574 87.8224 28.3348 87.8111 28.3234C87.8111 28.3121 87.7998 28.3008 87.7885 28.2895C87.7885 27.8025 87.8563 27.5194 88.0034 27.4401C88.1505 27.3608 88.5125 27.3495 89.1121 27.4061C89.2365 27.4175 89.3383 27.4288 89.4062 27.4288C89.8814 27.4288 90.2547 27.3608 90.5036 27.2249C90.7638 27.089 90.8317 26.9078 90.7185 26.6927L90.7299 26.6813ZM90.5262 23.2385H90.4697C90.3905 23.2385 90.2886 23.2385 90.1529 23.2385C90.0171 23.2385 89.904 23.2385 89.8361 23.2385C89.7569 23.2385 89.6664 23.2385 89.542 23.2385C89.4175 23.2385 89.327 23.2612 89.2591 23.2839C89.1913 23.3065 89.1121 23.3405 89.0216 23.3858C88.9311 23.4311 88.8745 23.4877 88.8293 23.5556C88.784 23.6236 88.7501 23.7142 88.7161 23.8161C88.6822 23.9294 88.6709 24.054 88.6709 24.1899C88.6709 24.439 88.6709 24.6089 88.6709 24.7108C88.6709 24.8127 88.6935 24.9373 88.7274 25.0845C88.7614 25.2317 88.8179 25.3223 88.8858 25.379C88.965 25.4243 89.0668 25.4809 89.2026 25.5262C89.3383 25.5715 89.5194 25.5941 89.7343 25.5828C89.9493 25.5715 90.2095 25.5488 90.5262 25.5035V23.2385Z" fill="black"/>
<path d="M94.3766 25.1636C94.3766 25.3448 94.4671 25.4693 94.6368 25.5599C94.8178 25.6505 95.0328 25.6958 95.3043 25.6958C95.5758 25.6958 95.836 25.6958 96.0962 25.6619C96.3564 25.6392 96.6053 25.6052 96.8316 25.5713C97.0578 25.5373 97.1936 25.5147 97.2275 25.5147C97.2501 26.013 97.1483 26.364 96.9334 26.5679C96.7184 26.7717 96.2772 26.8736 95.6098 26.8736C94.6934 26.8736 94.0259 26.6924 93.596 26.3187C93.1661 25.945 92.9512 25.3108 92.9512 24.3935C92.9512 23.9405 93.0077 23.5554 93.1209 23.2383C93.234 22.9212 93.4037 22.6834 93.63 22.5135C93.8562 22.3437 94.1051 22.2304 94.3879 22.1625C94.6708 22.0945 94.9875 22.0605 95.3609 22.0605C96.0623 22.0605 96.5827 22.2078 96.9221 22.5135C97.2502 22.808 97.4199 23.295 97.4199 23.9518C97.4199 24.201 97.3746 24.4048 97.2728 24.552C97.171 24.6993 97.0465 24.8012 96.8881 24.8578C96.7298 24.9144 96.5374 24.9484 96.3225 24.971C96.1075 24.9937 95.8813 25.005 95.6776 24.9937C95.4627 24.9937 95.2364 24.9937 94.9875 25.0277C94.7386 25.0503 94.5237 25.107 94.354 25.1749L94.3766 25.1636ZM94.3314 24.2576C94.4332 24.1896 94.5916 24.1443 94.8065 24.1217C95.0215 24.099 95.2364 24.0877 95.4174 24.0877C95.6097 24.0877 95.7795 24.0424 95.9265 23.9631C96.0736 23.8839 96.1415 23.7706 96.1415 23.6007C96.1415 23.4535 96.0283 23.3289 95.7908 23.2383C95.4627 23.1024 95.1459 23.0911 94.8405 23.2044C94.4106 23.3629 94.2409 23.714 94.3314 24.2689V24.2576Z" fill="black"/>
<path d="M8.89224 0C4.1973 0 0.384766 3.81649 0.384766 8.51634V33.2387L51.3164 25.2659V0.0113187H8.89224V0ZM16.687 8.15395C16.687 7.9501 16.8567 7.78023 17.0603 7.78023H19.1306C19.3342 7.78023 19.5039 7.9501 19.5039 8.15395V19.1052C19.5039 19.1052 19.5039 19.1505 19.5039 19.1731L16.687 15.7417V8.15395ZM34.0073 19.5468C33.815 21.9477 31.4506 23.6804 28.396 23.6804H17.6712C17.4902 23.6804 17.3205 23.6012 17.1961 23.4539L8.94879 13.42V23.3747C8.94879 23.5785 8.77911 23.7484 8.57548 23.7484H6.50516C6.30152 23.7484 6.13184 23.5785 6.13184 23.3747V8.66357C6.13184 8.45972 6.30152 8.28985 6.50516 8.28985H8.15686C8.38312 8.28985 8.59809 8.57297 8.59809 8.57297L18.5989 20.7473C18.6667 20.8266 18.7573 20.8719 18.8591 20.8719H28.3847C30.1382 20.8719 31.1451 20.0678 31.2017 19.309C31.2809 18.2898 29.7197 16.9987 26.5633 16.4778C20.4316 15.4699 19.9791 12.7292 20.0696 11.6081C20.2506 9.38837 22.8187 7.7236 26.0542 7.7236H45.6372C45.8182 7.7236 45.9653 7.87083 45.9653 8.05203V10.1924C45.9653 10.3736 45.8182 10.5209 45.6372 10.5209H26.0542C23.916 10.5209 22.8978 11.4722 22.8639 11.8346C22.8413 12.1517 23.7803 13.1709 27.0158 13.7145C32.4348 14.6092 34.177 17.3158 33.996 19.5468H34.0073ZM46.3273 23.3067C46.3273 23.5106 46.1576 23.6804 45.9539 23.6804H35.1273C34.9237 23.6804 34.754 23.5106 34.754 23.3067V14.3827C34.754 14.1675 34.9237 14.0089 35.1273 14.0089H44.2117C44.4154 14.0089 44.5851 14.1788 44.5851 14.3827V16.4551C44.5851 16.659 44.4154 16.8289 44.2117 16.8289H37.5709V20.8605H45.9539C46.1576 20.8605 46.3273 21.0304 46.3273 21.2343V23.3067Z" fill="black"/>
</svg>
