<svg xmlns="http://www.w3.org/2000/svg" width="101" height="34" fill="none" viewBox="0 0 101 34"><path fill="#000" d="M18 33.238h33.317v-5.22zM59.993 8.154v3.114c-.204.011-.373 0-.509 0a1.2 1.2 0 0 1-.407-.102.56.56 0 0 1-.283-.25.86.86 0 0 1-.08-.44v-2.3c-.09-.419-.474-.577-1.164-.498-.363.045-.566.08-.623.102.023.102.023.215.023.34v2.344c0 .181-.023.328-.09.442a.55.55 0 0 1-.283.249q-.187.068-.408.102a4 4 0 0 1-.509 0V7.089c0-.374.6-.566 1.788-.6 1.685-.045 2.534.51 2.534 1.653zM61.557 7.724v-.238c0-.08.012-.158.023-.238A.8.8 0 0 1 61.67 7a.9.9 0 0 1 .17-.238.8.8 0 0 1 .294-.17c.125-.045.272-.068.43-.068h.69c.147 0 .317.012.476.023.158 0 .305.034.452.068.147.045.294.09.419.147a1 1 0 0 1 .362.25c.113.101.203.226.294.362.079.136.147.306.192.51q.068.305.068.679v.94c0 .238-.023.442-.08.634-.056.193-.112.351-.192.464-.079.114-.17.227-.282.318a2 2 0 0 1-.317.203c-.09.046-.215.08-.35.102-.137.023-.239.046-.306.046h-1.505c-.034 0-.102-.012-.192-.023a1.2 1.2 0 0 1-.272-.068c-.09-.023-.18-.08-.283-.136a1.3 1.3 0 0 1-.271-.226c-.08-.08-.136-.204-.192-.352a1.3 1.3 0 0 1-.08-.475c0-.317.046-.578.125-.793s.203-.385.362-.498a1.5 1.5 0 0 1 .543-.25c.203-.045.441-.067.724-.067q.747 0 1.018-.102.272-.102.272-.306c0-.192-.193-.328-.566-.396a4.6 4.6 0 0 0-1.188-.046c-.419.034-.724.102-.928.182zm2.715 1.29s-.056.069-.101.103c-.046.045-.136.09-.283.158a1.1 1.1 0 0 1-.464.102q-.425 0-.679.102c-.17.068-.26.17-.26.295 0 .147.068.26.192.328.125.068.374.113.758.113h.351q.122 0 .226-.068c.068-.045.125-.079.147-.113a.5.5 0 0 0 .068-.215c.012-.113.034-.215.034-.317v-.476zM66.907 6.037a.65.65 0 0 1-.192-.487c0-.192.068-.35.203-.487a.66.66 0 0 1 .487-.204c.192 0 .35.068.486.204a.66.66 0 0 1 .204.487.66.66 0 0 1-.204.487.66.66 0 0 1-.486.204.7.7 0 0 1-.487-.192zm1.12 1.348c0-.283-.045-.476-.136-.6-.09-.125-.192-.182-.316-.182-.125 0-.26 0-.43-.022a.73.73 0 0 1-.407-.136v4.836c.418.022.735-.023.961-.125s.328-.328.317-.668V7.385zM72.42 6.523v.498a2 2 0 0 1-.067.317.5.5 0 0 1-.204.272.72.72 0 0 1-.407.102c-.238 0-.43 0-.554.023a.9.9 0 0 0-.351.124.5.5 0 0 0-.204.295 2 2 0 0 0-.056.51v2.74a1 1 0 0 0-.407-.17 6 6 0 0 0-.43-.102.55.55 0 0 1-.317-.204c-.09-.113-.136-.271-.136-.487V8.008c0-.057.011-.148.034-.25.023-.101.045-.215.09-.317.046-.102.102-.215.182-.328.079-.113.18-.215.294-.295.113-.09.26-.158.44-.215.182-.056.386-.09.6-.09h1.494zM72.674 8.902s0-.08-.011-.136c-.012-.057 0-.17.022-.329.023-.158.057-.328.102-.475a2.17 2.17 0 0 1 .656-.974c.17-.136.396-.238.679-.329q.427-.136.973-.136c.26 0 .498.023.713.057s.407.09.565.159c.159.068.294.158.419.26q.186.153.305.306c.08.102.148.215.204.35.057.137.09.261.124.352.023.102.046.215.057.351s.023.238.023.306v.68c0 .079-.023.192-.057.35a1.6 1.6 0 0 1-.124.43c-.057.125-.136.261-.25.409a1.6 1.6 0 0 1-.395.373c-.159.102-.35.181-.588.25q-.357.1-.815.101a6 6 0 0 1-.837-.056 3.3 3.3 0 0 1-.622-.159 1.7 1.7 0 0 1-.453-.272 1.8 1.8 0 0 1-.317-.35 1.6 1.6 0 0 1-.192-.442 5 5 0 0 1-.113-.51 14 14 0 0 1-.068-.578zm1.278.079q.035.306.068.476c.023.113.09.237.17.35.08.114.204.193.373.25.17.056.374.08.634.08.203 0 .373-.035.509-.091a.9.9 0 0 0 .317-.216.8.8 0 0 0 .158-.294.8.8 0 0 0 .068-.26v-.59a.5.5 0 0 0-.034-.192c-.011-.057-.034-.113-.057-.193-.022-.079-.056-.135-.09-.192s-.09-.113-.147-.17a.6.6 0 0 0-.204-.136 1.5 1.5 0 0 0-.271-.09 1.7 1.7 0 0 0-.351-.034c-.226 0-.419.034-.577.09a1.1 1.1 0 0 0-.35.215.7.7 0 0 0-.17.329c-.046.136-.057.238-.068.317v.351zM79.997 6.512l-.51.59c.114-.046.216-.103.317-.17.102-.069.17-.137.227-.182a1 1 0 0 1 .316-.136c.159-.045.351-.056.611-.056.227 0 .453.022.657.068.214.045.418.124.622.237.203.114.384.26.531.43s.272.397.362.669q.136.408.136.917c0 .884-.192 1.518-.577 1.892-.384.385-1.007.566-1.89.566-.282 0-.53-.011-.757-.046a4 4 0 0 1-.532-.09 1.7 1.7 0 0 1-.362-.136c-.113-.057-.18-.113-.226-.147-.045-.034-.08-.09-.136-.147-.045-.057-.079-.091-.079-.102V5.618c0-.227.023-.408.08-.521.056-.125.124-.193.225-.227a.9.9 0 0 1 .306-.045c.113 0 .226 0 .35-.023a.67.67 0 0 0 .317-.124v1.834zm0 2.447v1.132s.09.023.147.034.147.023.283.034.26.023.384 0c.113 0 .25-.034.396-.08a.85.85 0 0 0 .362-.192c.09-.09.181-.204.25-.362.067-.159.1-.351.1-.566 0-.227-.022-.43-.09-.6a1.1 1.1 0 0 0-.226-.397.95.95 0 0 0-.328-.227 1.2 1.2 0 0 0-.362-.101 2 2 0 0 0-.373 0c-.136 0-.238.022-.328.034-.09.022-.17.034-.25.056v1.212zM84.614 6.037a.65.65 0 0 1-.192-.487.66.66 0 0 1 .204-.487.66.66 0 0 1 .486-.204c.192 0 .35.068.486.204a.66.66 0 0 1 .204.487.66.66 0 0 1-.204.487.66.66 0 0 1-.486.204.7.7 0 0 1-.486-.192zm1.12 1.348c0-.283-.045-.476-.136-.6-.09-.125-.192-.182-.316-.182-.125 0-.26 0-.43-.022a.73.73 0 0 1-.407-.136v4.836c.418.022.735-.023.961-.125s.328-.328.317-.668V7.385zM59.441 15.493c-.18 0-.407-.023-.69-.046-.282-.022-.486-.045-.61-.045-.125 0-.34 0-.634.023-.08 0-.136.022-.192.034-.215.068-.317.158-.295.294.023.09.08.136.17.147.294.046.555.102.803.17.25.068.442.136.611.204.17.068.317.147.453.238.136.09.237.17.316.249.08.08.148.17.204.25.057.078.102.158.113.237.012.08.034.147.057.204a.27.27 0 0 1 .011.158v.125c0 .487-.204.827-.61 1.042-.408.204-1.03.317-1.89.317-.226 0-.43-.023-.6-.068a1.3 1.3 0 0 1-.396-.17.75.75 0 0 1-.226-.238.7.7 0 0 1-.102-.26c-.022-.08-.022-.159-.022-.238 0-.08 0-.136.011-.17 0-.034.011-.056.023-.068.18 0 .407.023.69.045.283.023.486.046.61.046.125 0 .34 0 .634-.023.181-.023.317-.045.419-.09.102-.046.158-.091.17-.148a.26.26 0 0 0-.023-.158.32.32 0 0 0-.158-.136.9.9 0 0 0-.26-.102 6 6 0 0 0-.566-.136c-.227-.045-.408-.08-.566-.113a3 3 0 0 1-.475-.147 1.4 1.4 0 0 1-.419-.25 1.05 1.05 0 0 1-.26-.396 1.6 1.6 0 0 1-.113-.612v-.034c0-.486.204-.826.61-1.041.408-.204 1.03-.317 1.89-.317.226 0 .43.022.6.068.17.045.294.101.396.17a.9.9 0 0 1 .226.237c.056.09.09.181.102.26s.022.16.022.238c0 .08 0 .136-.011.17 0 .034-.011.057-.023.068zM62.195 17.396c0 .181.09.306.26.396.181.091.396.136.668.136.271 0 .531 0 .792-.034.26-.022.509-.056.735-.09s.362-.057.396-.057c.022.498-.08.85-.294 1.053q-.322.306-1.324.306c-.916 0-1.584-.181-2.014-.555s-.645-1.008-.645-1.925q0-.68.17-1.155c.113-.317.283-.555.51-.725.226-.17.474-.283.757-.351s.6-.102.973-.102c.702 0 1.222.147 1.561.453.329.294.498.781.498 1.438 0 .25-.045.453-.147.6a.78.78 0 0 1-.384.306c-.159.057-.351.09-.566.113s-.441.034-.645.023-.441 0-.69.034a2.3 2.3 0 0 0-.634.147zm-.045-.895q.153-.102.475-.136c.215-.022.43-.034.61-.034.193 0 .363-.045.51-.124a.375.375 0 0 0 .215-.363c0-.147-.113-.271-.35-.362a1.26 1.26 0 0 0-.951-.034c-.43.159-.6.51-.51 1.065zM70.195 14.45v.035c.08.656-.147.996-.678.996h-.645c-.08 0-.17 0-.294.023-.125.022-.227.034-.295.068a.7.7 0 0 0-.226.136.9.9 0 0 0-.192.215 1.4 1.4 0 0 0-.113.328 2 2 0 0 0-.045.465c0 .17.01.305.045.441.022.125.068.227.102.317.045.09.101.159.192.215.09.057.17.102.26.136s.204.057.35.08q.222.016.408.034h.487c.079 0 .147 0 .203.034.057.022.113.045.158.079a.55.55 0 0 1 .181.272.4.4 0 0 1 .035.158c0 .057.01.114.01.159v.272c0 .034 0 .079-.022.147-.237.023-.441.045-.633.068a3.5 3.5 0 0 1-.69 0 2.7 2.7 0 0 1-.713-.09 2.8 2.8 0 0 1-.645-.239 1.6 1.6 0 0 1-.554-.43 2.4 2.4 0 0 1-.362-.68 3.2 3.2 0 0 1-.136-.973c0-1.914 1.165-2.673 3.507-2.3.08.012.18.023.317.057zM71.387 17.43v-3.114c.203-.012.373 0 .509 0s.271.045.407.101a.56.56 0 0 1 .283.25c.068.113.09.26.09.441v2.3c.09.418.476.588 1.166.498.35-.046.565-.08.622-.102-.023-.102-.023-.215-.023-.34V15.12c0-.182.023-.329.08-.442a.5.5 0 0 1 .282-.25c.125-.056.26-.079.408-.101q.22-.016.509 0v4.167c0 .374-.6.567-1.788.6-1.697.046-2.534-.509-2.534-1.653zM80.112 14.293v.498c0 .102-.034.204-.068.317a.5.5 0 0 1-.203.272.72.72 0 0 1-.408.102c-.237 0-.43 0-.554.022a.9.9 0 0 0-.35.125.5.5 0 0 0-.204.294 2 2 0 0 0-.057.51v2.74a1 1 0 0 0-.407-.17 6 6 0 0 0-.43-.101.55.55 0 0 1-.317-.204c-.09-.113-.136-.272-.136-.487v-2.435c0-.056.012-.147.035-.249.022-.102.045-.215.09-.317s.102-.215.181-.328a1.2 1.2 0 0 1 .294-.295q.17-.133.441-.215c.181-.057.385-.09.6-.09h1.493zM81.632 13.805a.65.65 0 0 1-.193-.487c0-.193.068-.351.204-.487a.66.66 0 0 1 .486-.204c.193 0 .351.068.487.204a.66.66 0 0 1 .204.487.66.66 0 0 1-.204.487.66.66 0 0 1-.487.204.7.7 0 0 1-.486-.193zm1.12 1.336c0-.283-.045-.476-.136-.6-.09-.125-.192-.181-.317-.181-.124 0-.26 0-.43-.023a.73.73 0 0 1-.407-.136v4.836c.419.023.735-.023.962-.125s.328-.328.316-.668v-3.103zM86.623 17.929c.079.249.09.487.034.69-.057.216-.159.352-.294.42-.295.09-.589.113-.872.079a2.1 2.1 0 0 1-.758-.238 1.46 1.46 0 0 1-.531-.521 1.5 1.5 0 0 1-.204-.782v-3.68c0-.181.023-.328.09-.442a.55.55 0 0 1 .283-.249q.187-.068.408-.102a4 4 0 0 1 .509 0v1.246h1.47v.068s0 .08-.022.158c-.023.08-.023.159-.057.227s-.056.158-.113.25a1 1 0 0 1-.192.226.9.9 0 0 1-.294.158c-.125.045-.26.068-.419.068h-.373v1.982c0 .159.034.272.102.351.067.08.158.136.282.147.125.012.238.023.351 0 .113 0 .238-.022.362-.034.125-.022.204-.022.249-.022zM88.058 13.805a.65.65 0 0 1-.193-.487c0-.193.068-.351.204-.487a.66.66 0 0 1 .486-.204c.193 0 .351.068.487.204a.66.66 0 0 1 .203.487.66.66 0 0 1-.203.487.66.66 0 0 1-.487.204.7.7 0 0 1-.486-.193zm1.12 1.336c0-.283-.046-.476-.136-.6-.09-.125-.192-.181-.317-.181-.124 0-.26 0-.43-.023a.73.73 0 0 1-.407-.136v4.836c.418.023.735-.023.962-.125s.328-.328.316-.668v-3.103zM91.787 17.396c0 .181.09.306.26.396.181.091.396.136.668.136.271 0 .531 0 .792-.034.26-.022.509-.056.735-.09s.362-.057.396-.057c.022.498-.08.85-.294 1.053q-.322.306-1.324.306c-.916 0-1.584-.181-2.014-.555s-.644-1.008-.644-1.925q0-.68.17-1.155c.112-.317.282-.555.508-.725a2 2 0 0 1 .758-.351c.283-.068.6-.102.973-.102.702 0 1.222.147 1.561.453.34.306.498.781.498 1.438 0 .25-.045.453-.147.6a.78.78 0 0 1-.385.306c-.158.057-.35.09-.565.113s-.441.034-.645.023-.441 0-.69.034c-.249.023-.464.08-.634.147zm-.045-.895q.153-.102.475-.136c.215-.022.43-.034.61-.034.193 0 .363-.045.51-.124a.375.375 0 0 0 .215-.363c0-.147-.113-.271-.35-.362a1.26 1.26 0 0 0-.951-.034c-.43.159-.6.51-.51 1.065zM99.787 15.493c-.18 0-.407-.023-.69-.046-.283-.022-.486-.045-.61-.045-.125 0-.34 0-.634.023-.08 0-.136.022-.193.034-.215.068-.316.158-.294.294.023.09.08.136.17.147.294.046.554.102.803.17s.441.136.61.204c.17.068.318.147.454.238.135.09.237.17.316.249.08.08.147.17.204.25.056.078.102.158.113.237.011.08.034.147.057.204a.27.27 0 0 1 .011.158c-.011.034 0 .08 0 .102v.023c0 .487-.204.827-.611 1.042-.407.204-1.03.317-1.89.317-.226 0-.43-.023-.599-.068a1.3 1.3 0 0 1-.396-.17.75.75 0 0 1-.226-.238.7.7 0 0 1-.102-.26c-.023-.08-.023-.159-.023-.238 0-.08 0-.136.012-.17 0-.034.011-.056.022-.068.181 0 .408.023.69.045.283.023.487.046.611.046.125 0 .34 0 .634-.023.18-.023.317-.045.418-.09.102-.046.159-.091.17-.148a.26.26 0 0 0-.022-.158.32.32 0 0 0-.159-.136.9.9 0 0 0-.26-.102 6 6 0 0 0-.566-.136c-.226-.045-.407-.08-.565-.113a3 3 0 0 1-.476-.147 1.4 1.4 0 0 1-.418-.25 1.05 1.05 0 0 1-.26-.396 1.6 1.6 0 0 1-.113-.612v-.034c0-.486.203-.826.61-1.041.408-.204 1.03-.317 1.89-.317.226 0 .43.022.6.068.17.045.293.101.395.17a.9.9 0 0 1 .227.237c.056.09.09.181.101.26s.023.16.023.238c0 .08 0 .136-.011.17 0 .034-.012.057-.023.068zM57.047 25.164c0 .18.09.305.26.396.17.09.396.136.667.136.272 0 .532 0 .792-.034.26-.023.51-.057.736-.09.226-.035.361-.057.395-.057.023.498-.079.849-.294 1.053q-.322.306-1.323.306c-.917 0-1.584-.182-2.014-.555s-.645-1.008-.645-1.925q0-.68.17-1.156c.113-.317.283-.555.509-.724.226-.17.475-.284.758-.351.283-.069.6-.102.973-.102.701 0 1.222.147 1.561.453.328.294.498.781.498 1.438 0 .249-.046.453-.147.6a.78.78 0 0 1-.385.306c-.158.056-.35.09-.566.113a4 4 0 0 1-.644.023c-.215 0-.442 0-.69.034-.25.022-.464.079-.634.147zm-.034-.906q.152-.102.475-.136a6 6 0 0 1 .61-.034c.193 0 .363-.046.51-.125a.375.375 0 0 0 .215-.362c0-.148-.113-.272-.351-.363a1.26 1.26 0 0 0-.95-.034c-.43.159-.6.51-.51 1.065zM60.61 22.3c.091-.057.193-.091.318-.137a2.3 2.3 0 0 1 .44-.067c.17-.012.351.034.544.113.192.09.35.215.509.407.158.193.362.453.61.793l.736-1.008c.181-.17.385-.26.61-.283.227-.022.43 0 .59.09.158.091.282.17.339.284-.227.306-.724.962-1.482 1.97.848 1.133 1.368 1.824 1.56 2.084a.8.8 0 0 1-.339.283 1.1 1.1 0 0 1-.588.09 1.02 1.02 0 0 1-.61-.282 45 45 0 0 0-.815-1.11c-.294.385-.52.68-.69.895a1.45 1.45 0 0 1-.51.407c-.192.09-.361.125-.543.113a2 2 0 0 1-.44-.067 1.7 1.7 0 0 1-.317-.125c.407-.555.972-1.314 1.697-2.265-.68-.895-1.222-1.62-1.618-2.163zM69.51 22.22v.034c.079.657-.147.997-.679.997h-.645c-.079 0-.17 0-.294.022-.124.023-.226.034-.294.068s-.147.068-.226.136a.6.6 0 0 0-.193.215c-.045.08-.079.193-.113.329a2 2 0 0 0-.045.464c0 .17.011.306.045.442.023.124.068.226.102.317.045.09.102.158.192.215s.17.102.26.136c.091.034.204.057.351.08.147.022.283.022.407.033h.487c.08 0 .147 0 .204.034a.7.7 0 0 1 .158.08c.045.033.08.067.113.124a.4.4 0 0 1 .068.147.4.4 0 0 1 .034.159c0 .056.011.113.011.158v.272c0 .034 0 .08-.022.147-.238.023-.442.046-.634.068a5 5 0 0 1-.69 0c-.272-.022-.51-.034-.713-.09a2.8 2.8 0 0 1-.645-.238 1.6 1.6 0 0 1-.554-.43 2.4 2.4 0 0 1-.362-.68 3.2 3.2 0 0 1-.136-.974c0-1.914 1.165-2.673 3.507-2.299.08.012.181.023.317.057zM72.007 22.219c.283-.113.747-.17 1.403-.17.317 0 .588.057.826.159.226.113.396.237.498.373q.152.204.237.476c.057.181.08.317.09.408v3.341c-.859.113-1.278-.148-1.278-.793v-.94c0-.85-.034-1.37-.124-1.552-.09-.18-.35-.283-.803-.294-.283 0-.555.056-.837.158v2.64c.01.339-.09.565-.317.667-.226.102-.543.148-.962.125v-6.67c.102.079.238.113.407.135.17.012.306.023.43.023.125 0 .227.057.317.181.09.125.136.329.136.6v1.144zM76.598 23.25v-.239c0-.079.012-.158.023-.237a.8.8 0 0 1 .09-.25.9.9 0 0 1 .17-.237.8.8 0 0 1 .294-.17c.125-.046.272-.068.43-.068h.69c.147 0 .317.011.475.023.159 0 .306.033.453.067.147.046.294.091.418.148a1 1 0 0 1 .363.249c.113.102.203.226.294.362s.147.306.192.51q.068.306.068.68v.94c0 .237-.023.44-.08.634-.056.192-.112.35-.192.464-.079.124-.17.226-.282.317-.114.09-.227.159-.317.204s-.215.079-.35.102c-.137.022-.239.045-.306.045h-1.505c-.034 0-.102-.011-.192-.023a1.2 1.2 0 0 1-.272-.068c-.09-.022-.18-.079-.283-.136-.102-.056-.192-.147-.271-.226a1.1 1.1 0 0 1-.192-.351 1.3 1.3 0 0 1-.08-.476c0-.317.046-.577.125-.793a1.04 1.04 0 0 1 .362-.498c.158-.113.34-.192.543-.249.203-.045.441-.068.724-.068q.747 0 1.018-.102.272-.102.272-.306c0-.192-.193-.328-.566-.396a4.6 4.6 0 0 0-1.188-.045c-.419.034-.724.102-.928.18zm2.704 1.29s-.056.068-.102.102c-.045.046-.135.09-.282.159a1.1 1.1 0 0 1-.464.102q-.425 0-.68.102c-.169.068-.26.17-.26.294 0 .147.069.26.193.329.125.079.373.113.758.113h.35c.08 0 .16-.023.227-.068.068-.045.124-.08.147-.113a.5.5 0 0 0 .068-.216c.011-.113.034-.215.034-.317v-.475zM86.112 23.69v3.115c-.203.012-.373 0-.509 0a1.2 1.2 0 0 1-.407-.102.56.56 0 0 1-.283-.249.86.86 0 0 1-.08-.442v-2.299c-.09-.419-.474-.577-1.164-.498-.362.045-.566.08-.623.102.023.102.023.215.023.34V26c0 .181-.023.328-.09.442a.55.55 0 0 1-.283.249q-.187.068-.408.102a4 4 0 0 1-.509 0v-4.168c0-.373.6-.566 1.788-.6 1.685-.045 2.534.51 2.534 1.653zM90.73 26.681c-.238.023-.441.046-.634.057-.18.011-.396 0-.645 0-.248-.023-.463-.045-.644-.102a2.2 2.2 0 0 1-.566-.238 1.7 1.7 0 0 1-.475-.407 2 2 0 0 1-.306-.635 3 3 0 0 1-.124-.883c0-1.28.52-2.05 1.561-2.299.532-.136 1.29-.125 2.263.057.237.068.396.124.498.192s.147.17.147.329v3.556c.124.328.158.611.113.86q-.069.375-.272.646a1.45 1.45 0 0 1-.577.442 3.3 3.3 0 0 1-.78.249c-.272.056-.577.079-.883.079-.283 0-.532 0-.746-.034a5 5 0 0 1-.476-.068 1.2 1.2 0 0 1-.26-.09.5.5 0 0 1-.113-.069c0-.01-.011-.022-.023-.034 0-.487.068-.77.215-.849.147-.08.51-.09 1.11-.034.124.012.225.023.293.023.475 0 .849-.068 1.098-.204.26-.136.328-.317.215-.532zm-.204-3.443h-.984a.9.9 0 0 0-.283.046 2 2 0 0 0-.237.102.5.5 0 0 0-.193.17 1.13 1.13 0 0 0-.158.634v.52c0 .103.022.227.056.374.034.148.09.238.159.295.079.045.18.102.317.147.135.046.316.068.531.057s.476-.034.792-.08zM94.377 25.164c0 .18.09.305.26.396.18.09.396.136.667.136.272 0 .532 0 .792-.034.26-.023.51-.057.736-.09.226-.035.362-.057.396-.057.022.498-.08.849-.295 1.053q-.323.306-1.323.306c-.917 0-1.584-.182-2.014-.555s-.645-1.008-.645-1.925q0-.68.17-1.156c.113-.317.283-.555.509-.724.226-.17.475-.284.758-.351.283-.069.6-.102.973-.102.701 0 1.222.147 1.561.453.328.294.498.781.498 1.438 0 .249-.045.453-.147.6a.78.78 0 0 1-.385.306c-.158.056-.35.09-.566.113s-.44.034-.644.023c-.215 0-.442 0-.69.034a2.3 2.3 0 0 0-.634.147zm-.046-.906q.153-.102.475-.136a6 6 0 0 1 .611-.034c.193 0 .362-.046.51-.125a.375.375 0 0 0 .214-.362c0-.148-.113-.272-.35-.363a1.26 1.26 0 0 0-.95-.034c-.43.159-.6.51-.51 1.065zM8.892 0C4.197 0 .385 3.816.385 8.516V33.24l50.931-7.973V.01H8.892zm7.795 8.154c0-.204.17-.374.373-.374h2.07c.204 0 .374.17.374.374v11.019l-2.817-3.431zm17.32 11.393c-.192 2.4-2.556 4.133-5.611 4.133H17.671a.62.62 0 0 1-.475-.226L8.95 13.42v9.955c0 .203-.17.373-.374.373h-2.07a.377.377 0 0 1-.373-.373V8.664c0-.204.17-.374.373-.374h1.652c.226 0 .441.283.441.283l10 12.174c.069.08.16.125.261.125h9.526c1.753 0 2.76-.804 2.817-1.563.079-1.02-1.482-2.31-4.639-2.831-6.131-1.008-6.584-3.749-6.493-4.87.18-2.22 2.749-3.884 5.984-3.884h19.583c.181 0 .328.147.328.328v2.14a.33.33 0 0 1-.328.329H26.054c-2.138 0-3.156.951-3.19 1.314-.023.317.916 1.336 4.152 1.88 5.419.894 7.161 3.6 6.98 5.832zm12.32 3.76c0 .204-.17.373-.373.373H35.127a.377.377 0 0 1-.373-.373v-8.924a.37.37 0 0 1 .373-.374h9.085c.203 0 .373.17.373.374v2.072c0 .204-.17.374-.373.374H37.57v4.031h8.383c.204 0 .373.17.373.374z"/></svg>