<svg xmlns="http://www.w3.org/2000/svg" width="7662" height="1796" viewBox="0 0 7662 1796" fill="none"><g clip-path="url(#clip0_3074_5012)"><path d="M1500 0L1582.71 8.29C1768.86 33.66 1938.41 125.62 2047.62 279.38C2174.52 458.03 2196.79 690.7 2141.99 900.01H2474.99C2476.98 901.51 2477.23 901.74 2477.2 904.12C2477.12 912.27 2471.38 932.88 2469.37 942.39C2437.54 1093.1 2369.79 1236.18 2277.97 1358.99L1901.4 1360.42C1701.12 1592 1419.68 1759.87 1110.98 1792L1059.99 1796.01H977.99L897.32 1787.68C523.87 1735.27 291.91 1437.38 313.91 1062.93C317.14 1007.97 328.23 953.94 338 900.01H0V896.01C2.89 893.62 3.15 890.14 3.74 886.75C8.28 860.79 12.2 835.19 18.58 809.59C52.02 675.43 119.46 551.93 195.38 437.89L204.91 435.93L582.67 435.69C792.24 192.06 1096.26 16.19 1423.16 2.08L1428 0H1500Z" fill="white"></path><path d="M7662 360V366C7590.58 685.83 7531.69 1008.76 7459.38 1328.38C7457.18 1338.1 7455.84 1349.86 7451 1358H7282L7491.77 361.15L7662 360Z" fill="white"></path><path d="M4472 1604L4609.37 946.37C4668.58 678.38 4913.83 535.37 5180.41 588.6C5528.15 658.03 5561.96 1066.55 5312.95 1273.96C5154.77 1405.71 4881.94 1430.71 4734.97 1270.04C4732.86 1267.73 4718.9 1246.71 4716.01 1250.02L4644 1604.01H4472V1604ZM5035.6 730.6C4930.52 738.86 4825.73 814.74 4788.47 913.47C4730.44 1067.24 4790.25 1215.85 4963.02 1233.98C5118.97 1250.34 5261.21 1155.44 5293.37 1000.37C5330.95 819.18 5209.83 716.9 5035.6 730.6Z" fill="white"></path><path d="M3860.01 1074.01C3875.85 1180.35 3970.24 1234.21 4070.92 1240.08C4171.9 1245.97 4268.19 1222.36 4357.99 1177.99L4401.7 1307.4C4402.22 1309.94 4400.41 1310.57 4398.79 1311.74C4385.74 1321.15 4352.64 1333.42 4336.51 1339.49C4102.53 1427.46 3732.25 1403.38 3694.27 1094.74C3664.32 851.32 3828.08 653.431 4057.6 596.581C4225.25 555.051 4534.88 571.55 4513.76 812.74C4501.38 954.14 4362.4 1021.65 4240.4 1049.38C4117.29 1077.36 3985.73 1078.03 3860.03 1074.01H3860.01ZM4329.3 758.701C4280.26 707.301 4144.27 719.07 4081.16 736.16C3977.24 764.3 3890.5 837.551 3868.01 945.991C3974.13 945.551 4081.68 950.991 4185.64 926.641C4248.25 911.971 4354.08 873.751 4345.98 793.031C4344.72 780.451 4337.92 767.741 4329.3 758.711V758.701Z" fill="white"></path><path d="M6817.61 580.57C7074.31 577.38 7271.69 742.19 7227.42 1012.42C7193.81 1217.6 7002.51 1367.23 6800.98 1385.98C6529.31 1411.26 6294.74 1241.47 6348.63 949.63C6389.15 730.22 6601.08 583.26 6817.6 580.57H6817.61ZM6787.6 732.6C6674.89 741.41 6573.08 814.66 6533.97 920.97C6462.44 1115.35 6590.38 1256.57 6788.99 1235.99C6910.92 1223.35 7013.41 1145.34 7047.44 1026.44C7102.47 834.13 6975.35 717.94 6787.61 732.61L6787.6 732.6Z" fill="white"></path><path d="M6197.97 790C6146.5 759 6088.58 736.81 6028.72 728.28C5968.86 719.75 5824.42 714.86 5799.63 782.62C5775.85 847.62 5877.2 875.02 5922.01 888.98C6045.41 927.44 6241.93 964.09 6231.98 1134.97C6218.88 1360.09 5964.96 1400.54 5785.02 1381.97C5691.05 1372.27 5596.87 1344.88 5516.23 1295.76L5593.29 1162.11C5615.56 1172.36 5637.7 1186.25 5660.66 1196.34C5747.64 1234.59 5882.65 1258.62 5974.42 1229.41C6060.51 1202.01 6092.52 1123.63 5998.76 1076.23C5881.96 1017.19 5633.96 1013.41 5620.03 836.96C5606.3 663.09 5787.36 586.83 5932.9 579.9C6048.04 574.41 6176.67 592.25 6271.51 660.96L6197.96 790H6197.97Z" fill="white"></path><path d="M3058 1358L3160.57 867.57C3174.11 819.49 3192.55 771.4 3221.56 730.56C3330.49 577.23 3544.56 560.94 3714.01 604.02L3654.23 742.82C3652.14 745.86 3612.21 737.05 3604.75 736.26C3472.76 722.2 3367.38 757.32 3327.48 892.47L3230.01 1358H3058.01H3058Z" fill="white"></path></g><defs><clipPath id="clip0_3074_5012"><rect width="7662" height="1796" fill="white"></rect></clipPath></defs></svg>