<svg xmlns="http://www.w3.org/2000/svg" width="150" height="90" fill="none"><g fill="#fff" clip-path="url(#a)"><path fill-rule="evenodd" d="M43.095 41.545c-1.24 0-2.441.433-3.39 1.224v-1.102h-3.088v12.079h3.21v-7.72a3.845 3.845 0 0 1 2.92-1.497 3.32 3.32 0 0 1 1.287.198V41.63a5.301 5.301 0 0 0-.948-.085M15.059 50.065a5.014 5.014 0 0 0 3.286 1.196c.864 0 1.53-.424 1.53-1.017 0-1.817-5.812-1.167-5.812-5.056 0-2.316 2.226-3.756 4.601-3.756 1.446 0 2.855.433 4.056 1.224l-1.502 2.335a4 4 0 0 0-2.3-.82c-.892 0-1.634.349-1.634.97 0 1.573 5.812.951 5.812 5.131 0 2.316-2.253 3.738-4.78 3.738a8.319 8.319 0 0 1-4.825-1.61l1.558-2.316.01-.019ZM35.246 47.598c0-3.36-2.348-6.175-5.662-6.175-3.559 0-5.84 2.937-5.84 6.298-.141 3.323 2.432 6.138 5.746 6.279h.535a6.454 6.454 0 0 0 4.92-2.165l-1.83-1.845a4.228 4.228 0 0 1-3.015 1.393 3.153 3.153 0 0 1-3.239-2.862h8.31a6.02 6.02 0 0 0 .075-.923Zm-8.235-1.44a2.601 2.601 0 0 1 2.573-2.118c1.211 0 2.235.913 2.375 2.118h-4.948ZM51.705 49.039l3.286-7.372h3.343l-5.512 12.079h-2.225l-5.52-12.079h3.342l3.286 7.372ZM61.038 36a2.07 2.07 0 0 1 2.028 2.109 2.067 2.067 0 0 1-4.131-.038c0-1.139.92-2.071 2.066-2.071h.037Z" clip-rule="evenodd"></path><path d="M62.644 41.667h-3.211v12.079h3.21V41.667Z"></path><path fill-rule="evenodd" d="M75.939 51.28a6.346 6.346 0 0 1-5.446 2.71c-3.465.085-6.338-2.654-6.431-6.128a6.289 6.289 0 0 1 6.112-6.449h.338a6.351 6.351 0 0 1 5.042 2.42l-2.272 2.014a3.458 3.458 0 0 0-2.77-1.44 3.232 3.232 0 0 0-3.24 3.22v.094a3.176 3.176 0 0 0 3.07 3.285h.245a3.513 3.513 0 0 0 2.873-1.59l2.47 1.863h.009ZM87.62 51.825a6.47 6.47 0 0 1-4.92 2.165 6.013 6.013 0 0 1-6.282-5.742v-.537c0-3.36 2.272-6.298 5.84-6.298 3.314 0 5.662 2.815 5.662 6.176 0 .31-.02.621-.076.922h-8.309a3.153 3.153 0 0 0 3.24 2.862 4.23 4.23 0 0 0 3.013-1.393l1.831 1.845Zm-2.996-5.677a2.397 2.397 0 0 0-2.375-2.118 2.61 2.61 0 0 0-2.573 2.118h4.948ZM89.197 53.746V41.667h3.089v.97a5.295 5.295 0 0 1 3.39-1.224c1.605 0 3.126.706 4.159 1.94a6.13 6.13 0 0 1 1.239 4.236v6.147h-3.22v-6.401a2.946 2.946 0 0 0-.714-2.27 2.502 2.502 0 0 0-1.803-.668 3.845 3.845 0 0 0-2.92 1.497v7.842h-3.22v.01ZM109.355 41.423a7.06 7.06 0 0 0-7.06 7.041c0 1.95.798 3.813 2.206 5.15.498.47 1.268.518 1.812.094a5.018 5.018 0 0 1 6 0 1.396 1.396 0 0 0 1.822-.103c2.816-2.683 2.938-7.155.263-9.98a7.065 7.065 0 0 0-5.043-2.202Zm-.037 10.581a3.415 3.415 0 0 1-3.502-3.332v-.189a3.507 3.507 0 0 1 3.502-3.511 3.507 3.507 0 0 1 3.502 3.511 3.416 3.416 0 0 1-3.324 3.512h-.188M122.688 53.746h-2.394l-4.779-12.079h3.211l2.62 6.901 2.563-6.9h2.685l2.545 6.9 2.638-6.9h3.221l-4.779 12.078h-2.395l-2.572-6.873-2.564 6.873Z" clip-rule="evenodd"></path><path d="M135.026 52.38h-.272v.509h-.235v-1.403h.563a.45.45 0 0 1 .451.443.456.456 0 0 1-.272.414l.319.546h-.254l-.3-.518v.01Zm-.272-.206h.328a.233.233 0 0 0 .235-.236.233.233 0 0 0-.235-.235h-.328v.47Z"></path><path d="M134.998 50.922a1.3 1.3 0 0 1 0 2.598 1.3 1.3 0 0 1 0-2.599Zm0-.208c-.827 0-1.503.678-1.503 1.507 0 .828.676 1.506 1.503 1.506.826 0 1.502-.678 1.502-1.506 0-.829-.676-1.507-1.502-1.507Z"></path></g><defs><clipPath id="a"><path fill="#fff" d="M13.5 36h123v18h-123z"></path></clipPath></defs></svg>