<svg width="129" height="19" viewBox="0 0 129 19" fill="none" xmlns="http://www.w3.org/2000/svg">
<path fill-rule="evenodd" clip-rule="evenodd" d="M31.4998 5.87277C30.094 5.87277 28.8985 6.39355 27.9355 7.13595V5.95031H24.6702V18.6598H28.0905V10.5599C28.5333 9.89504 29.7287 8.9975 31.1345 8.9975C31.6547 8.9975 32.0975 9.07508 32.4738 9.21912V5.95031C32.175 5.87275 31.8761 5.87277 31.4998 5.87277ZM1.9455 14.7927C2.84209 15.6127 4.09288 16.0559 5.43223 16.0559C6.32882 16.0559 7.07046 15.6127 7.07046 15.0143C7.07046 13.0863 0.982502 13.7511 0.982502 9.66234C0.982502 7.20244 3.36236 5.71763 5.80861 5.71763C7.44682 5.71763 9.22891 6.316 10.1144 6.98084L8.5537 9.44072C7.88956 8.99749 7.07045 8.54319 6.09638 8.54319C5.12231 8.54319 4.39178 8.91993 4.39178 9.58477C4.39178 11.2247 10.4797 10.5488 10.4797 15.0143C10.4797 17.4742 8.09986 18.959 5.43223 18.959C3.65012 18.959 1.86801 18.3607 0.384766 17.2526L1.9455 14.8038V14.7927ZM23.2533 12.1887C23.2533 8.62076 20.796 5.71763 17.3093 5.71763C13.5237 5.71763 11.1438 8.84238 11.1438 12.3328C11.1438 16.344 13.9664 18.948 17.752 18.948C19.6781 18.948 21.6926 18.128 22.9434 16.6432L21.0174 14.7151C20.4197 15.38 19.2353 16.1999 17.8185 16.1999C16.0363 16.1999 14.5531 14.9367 14.3981 13.1527H23.1648C23.1648 12.8647 23.2423 12.5655 23.2423 12.1887M14.5642 10.7039C14.7191 9.5183 15.9035 8.47671 17.2318 8.47671C18.6376 8.47671 19.6116 9.59586 19.7555 10.7039H14.5642ZM40.5542 13.7511L44.0409 5.93926H47.5277L41.7386 18.6488H39.3588L33.5697 5.93926H37.1339L40.5542 13.74V13.7511ZM50.4388 0C51.6232 0 52.6637 0.964021 52.6637 2.14965C52.6637 3.33528 51.7007 4.29931 50.4388 4.29931C49.177 4.29931 48.214 3.33528 48.214 2.14965C48.214 0.964021 49.177 0 50.4388 0ZM48.7231 5.95031H52.1435V18.6598H48.7231V5.95031ZM66.1015 16.0559C64.6183 18.0615 62.7586 18.8815 60.3788 18.8815C56.4382 18.8815 53.6267 15.9118 53.6267 12.2663C53.6267 8.62077 56.5932 5.65115 60.4563 5.65115C62.6037 5.65115 64.6182 6.69273 65.8026 8.17754L63.4228 10.3272C62.7586 9.42966 61.7181 8.84239 60.5338 8.84239C58.6078 8.84239 57.1134 10.4048 57.1134 12.3328C57.1134 14.2608 58.5192 15.8232 60.6002 15.8232C62.006 15.8232 63.0575 15.0032 63.6442 14.1168L66.1015 16.0448V16.0559ZM78.4324 16.6542C77.248 18.1391 75.167 18.959 73.241 18.959C69.4554 18.959 66.6328 16.3551 66.6328 12.3439C66.6328 8.77591 69.0126 5.72872 72.7982 5.72872C76.285 5.72872 78.7423 8.69834 78.7423 12.1998C78.7423 12.5766 78.7423 12.8647 78.6648 13.1638H69.8982C70.0531 14.9478 71.5364 16.211 73.3185 16.211C74.7242 16.211 75.9197 15.3911 76.5174 14.7262L78.4434 16.6542H78.4324ZM75.2334 10.7039C75.156 9.58478 74.1154 8.47671 72.7097 8.47671C71.3039 8.47671 70.186 9.5183 70.0421 10.7039H75.2334ZM80.0595 18.6598V5.95031H83.3249V6.9919C84.2879 6.17193 85.4723 5.72872 86.8891 5.72872C88.6712 5.72872 90.2319 6.5487 91.2724 7.81189C92.0915 8.77591 92.6118 10.1167 92.6118 12.2663V18.7374H89.1914V11.9782C89.1914 10.715 88.8926 10.0502 88.4498 9.59586C88.007 9.15264 87.3318 8.85344 86.5238 8.85344C85.118 8.85344 83.9226 9.75098 83.4798 10.4158V18.6598H80.0595Z" fill="black"/>
<path fill-rule="evenodd" clip-rule="evenodd" d="M101.302 5.72656C97.2951 5.72656 93.8748 8.99534 93.8748 13.0841C93.8748 15.2338 94.7713 17.1729 96.1771 18.5912C96.6973 19.112 97.5164 19.112 98.1031 18.6688C98.9222 18.0039 100.029 17.6272 101.302 17.6272C102.575 17.6272 103.604 18.0039 104.501 18.6688C105.099 19.112 105.907 19.0455 106.427 18.5136C107.833 17.1729 108.729 15.2448 108.729 13.0841C108.652 9.06183 105.387 5.72656 101.302 5.72656ZM101.225 16.8737C99.0772 16.8737 97.5164 15.2338 97.5164 13.1617C97.5164 11.0896 98.9997 9.44965 101.225 9.44965C103.449 9.44965 104.933 11.1561 104.933 13.1617C104.933 15.1673 103.449 16.8737 101.225 16.8737Z" fill="black"/>
<path fill-rule="evenodd" clip-rule="evenodd" d="M115.327 18.6607H112.803L107.756 5.95117H111.176L113.921 13.2312L116.666 5.95117H119.489L122.157 13.2312L124.913 5.95117H128.322L123.275 18.6607H120.751L118.083 11.4472L115.327 18.6607Z" fill="black"/>
<path d="M126.475 17.0977V17.3193H126.033V18.66H125.734V17.3193H125.291V17.0977H126.475ZM127.516 18.0617L128.114 17.0977H128.335V18.66H128.036V17.7625L127.593 18.4273H127.372L126.996 17.7625V18.66H126.697V17.0977H126.918L127.505 18.0617H127.516Z" fill="black"/>
</svg>
