<svg width="124" height="36" viewBox="0 0 124 36" fill="none" xmlns="http://www.w3.org/2000/svg">
<path fill-rule="evenodd" clip-rule="evenodd" d="M44.8156 26.4202H48.1186C49.4119 26.4202 50.3072 26.9779 50.3072 28.3921C50.3072 29.8062 49.2626 30.2145 48.0688 30.2145H44.8255V26.4202H44.8156ZM41.7812 32.5747H48.4668C50.9639 32.5747 53.3416 31.3697 53.3416 28.5713C53.3416 26.8484 52.486 25.5538 50.8146 25.0658C52.0085 24.4882 52.685 23.5322 52.685 22.1778C52.685 19.5984 50.9042 18.752 48.2777 18.752H41.7812V32.5747ZM44.8156 21.1221H47.6609C48.7453 21.1221 49.7501 21.391 49.7501 22.7056C49.7501 23.8708 48.9642 24.3488 47.8897 24.3488H44.8156V21.1221Z" fill="black"/>
<path fill-rule="evenodd" clip-rule="evenodd" d="M61.3117 28.7103C61.3117 29.3078 61.2321 31.0108 59.0932 31.0108C58.1978 31.0108 57.4119 30.7618 57.4119 29.7361C57.4119 28.7103 58.1878 28.4414 59.0335 28.2622C59.8891 28.1029 60.8541 28.0929 61.3117 27.6846V28.7103ZM57.7103 25.653C57.8098 24.5675 58.4863 24.1492 59.5309 24.1492C60.4959 24.1492 61.3117 24.3185 61.3117 25.5036C61.3117 26.6887 59.7498 26.5692 58.0684 26.8182C56.3672 27.0472 54.666 27.595 54.666 29.8556C54.666 31.9071 56.1782 32.8532 58.0684 32.8532C59.2822 32.8532 60.5656 32.5245 61.4311 31.6183C61.451 31.9469 61.5306 32.2756 61.6301 32.5843H64.4157C64.167 32.176 64.0675 31.2697 64.0675 30.3535V25.1451C64.0675 22.745 61.6699 22.2969 59.6802 22.2969C57.4417 22.2969 55.1336 23.0737 54.9844 25.643H57.7302L57.7103 25.653Z" fill="black"/>
<path fill-rule="evenodd" clip-rule="evenodd" d="M66.1875 32.5741H68.9333V27.3259C68.9333 25.2943 69.57 24.4677 71.0623 24.4677C72.3358 24.4677 72.8232 25.2843 72.8232 26.9275V32.5841H75.5691V26.4296C75.5691 23.9499 74.8329 22.3066 71.9179 22.3066C70.7539 22.3066 69.5601 22.8444 68.8637 23.9698H68.804V22.5755H66.1974V32.5841L66.1875 32.5741Z" fill="black"/>
<path fill-rule="evenodd" clip-rule="evenodd" d="M77.8962 32.5765H80.6421V29.1307L81.7066 28.115L84.4524 32.5765H87.7753L83.5769 26.2526L87.3475 22.5779H84.1042L80.6421 26.173V18.7637H77.8962V32.5765Z" fill="black"/>
<path fill-rule="evenodd" clip-rule="evenodd" d="M40.9203 9.57035C40.8805 12.9762 43.7458 14.48 46.8 14.48C50.5507 14.48 52.5404 12.5879 52.5404 10.0484C52.5404 6.91137 49.4464 6.274 48.4416 6.02504C44.9794 5.13871 44.3228 4.99928 44.3228 3.93369C44.3228 2.76852 45.447 2.36022 46.412 2.36022C47.8645 2.36022 49.0385 2.78845 49.1379 4.45157H52.0728C52.0728 1.2548 49.4265 0 46.5414 0C44.0442 0 41.378 1.35437 41.378 4.18266C41.378 6.78189 43.4473 7.56865 45.4967 8.11638C47.5263 8.65415 49.5956 8.90313 49.5956 10.3969C49.5956 11.8111 47.974 12.1198 46.9095 12.1198C45.2878 12.1198 43.8552 11.4028 43.8552 9.56041H40.9203V9.57035Z" fill="black"/>
<path fill-rule="evenodd" clip-rule="evenodd" d="M57.5283 1.14453H54.7825V4.14213H53.1211V5.9845H54.7825V11.89C54.7825 13.8818 56.2549 14.2702 57.9362 14.2702C58.4735 14.2702 59.0804 14.2503 59.538 14.1706V12.0195C59.2495 12.0793 58.9809 12.0992 58.6824 12.0992C57.7572 12.0992 57.5184 11.8701 57.5184 10.934V5.9845H59.528V4.14213H57.5184V1.14453H57.5283Z" fill="black"/>
<path fill-rule="evenodd" clip-rule="evenodd" d="M67.0643 10.2865C67.0643 10.884 66.9847 12.587 64.8358 12.587C63.9504 12.587 63.1545 12.338 63.1545 11.3122C63.1545 10.2865 63.9305 10.0176 64.7761 9.83836C65.6317 9.67902 66.5967 9.66905 67.0643 9.26074V10.2865ZM63.4629 7.22917C63.5623 6.14367 64.2389 5.71542 65.2735 5.71542C66.2385 5.71542 67.0543 5.88474 67.0543 7.06983C67.0543 8.25492 65.4824 8.13539 63.8011 8.38436C62.0999 8.61341 60.3987 9.16116 60.3987 11.4218C60.3987 13.4733 61.9109 14.4194 63.8011 14.4194C65.0148 14.4194 66.2982 14.0907 67.1638 13.1845C67.1837 13.5131 67.2633 13.8418 67.3628 14.1505H70.1484C69.8997 13.7422 69.8002 12.836 69.8002 11.9297V6.72127C69.8002 4.32121 67.4026 3.87305 65.4128 3.87305C63.1744 3.87305 60.8663 4.64985 60.717 7.2192H63.4629V7.22917Z" fill="black"/>
<path fill-rule="evenodd" clip-rule="evenodd" d="M71.9258 14.1507H74.6716V8.90241C74.6716 6.87082 75.3083 6.03428 76.8006 6.03428C78.0741 6.03428 78.5616 6.8509 78.5616 8.4941V14.1407H81.3074V7.98619C81.3074 5.50646 80.5712 3.86328 77.6562 3.86328C76.4922 3.86328 75.2984 4.40104 74.602 5.52638H74.5423V4.13216H71.9357V14.1407L71.9258 14.1507Z" fill="black"/>
<path fill-rule="evenodd" clip-rule="evenodd" d="M90.52 14.1507H93.1265V0.337891H90.3807V5.36705H90.3409H90.3608C89.7241 4.38113 88.5601 3.87324 87.3862 3.87324C84.4513 3.87324 82.959 6.37291 82.959 9.06177C82.959 11.7506 84.4314 14.4196 87.4458 14.4196C88.7193 14.4196 89.8435 13.9515 90.4802 12.876H90.52V14.1507ZM90.4802 9.12152C90.4802 10.7647 89.943 12.3581 88.1223 12.3581C86.4211 12.3581 85.7048 10.7149 85.7048 9.14143C85.7048 7.56794 86.3216 5.94468 88.1223 5.94468C89.9231 5.94468 90.4802 7.48828 90.4802 9.12152Z" fill="black"/>
<path fill-rule="evenodd" clip-rule="evenodd" d="M101.405 10.2865C101.405 10.884 101.326 12.587 99.1768 12.587C98.2914 12.587 97.4955 12.338 97.4955 11.3122C97.4955 10.2865 98.2715 10.0176 99.1171 9.83836C99.9727 9.67902 100.938 9.66905 101.395 9.26074V10.2865H101.405ZM97.8138 7.22917C97.9133 6.14367 98.5898 5.71542 99.6344 5.71542C100.599 5.71542 101.415 5.88474 101.415 7.06983C101.415 8.25492 99.8533 8.13539 98.172 8.38436C96.4708 8.61341 94.7695 9.16116 94.7695 11.4218C94.7695 13.4733 96.2817 14.4194 98.172 14.4194C99.3857 14.4194 100.669 14.0907 101.535 13.1845C101.555 13.5131 101.634 13.8418 101.724 14.1505H104.509C104.261 13.7422 104.161 12.836 104.161 11.9297V6.72127C104.161 4.32121 101.763 3.87305 99.7737 3.87305C97.5353 3.87305 95.2272 4.64985 95.0779 7.2192H97.8238L97.8138 7.22917Z" fill="black"/>
<path fill-rule="evenodd" clip-rule="evenodd" d="M106.284 14.1507H109.029V9.63935C109.029 7.87665 109.726 6.42266 111.735 6.42266C112.064 6.42266 112.472 6.4625 112.72 6.52225V3.96287C112.541 3.90312 112.313 3.86328 112.124 3.86328C110.79 3.86328 109.437 4.72968 108.93 5.99444H108.89V4.13216H106.274V14.1407L106.284 14.1507Z" fill="black"/>
<path fill-rule="evenodd" clip-rule="evenodd" d="M120.586 14.1507H123.193V0.337891H120.447V5.36705H120.407H120.427C119.79 4.38113 118.627 3.87324 117.453 3.87324C114.518 3.87324 113.025 6.37291 113.025 9.06177C113.025 11.7506 114.498 14.4196 117.512 14.4196C118.786 14.4196 119.91 13.9515 120.547 12.876H120.586V14.1507ZM120.547 9.12152C120.547 10.7647 120.009 12.3581 118.189 12.3581C116.488 12.3581 115.771 10.7149 115.771 9.14143C115.771 7.56794 116.388 5.94468 118.189 5.94468C119.989 5.94468 120.547 7.48828 120.547 9.12152Z" fill="black"/>
<path fill-rule="evenodd" clip-rule="evenodd" d="M3.69769 29.2388C1.7179 28.0238 0.384766 25.8428 0.384766 23.3432V4.90953C0.384766 2.36009 2.46405 0.308594 5.00096 0.308594H23.3961C25.9429 0.308594 28.0023 2.37006 28.0023 4.9195V23.3531C28.0023 25.8428 26.6791 28.0238 24.7093 29.2288L19.3469 32.4953L12.0446 18.1348C12.8902 17.5771 13.8752 17.2484 14.9596 17.2484C15.5664 17.2484 16.1435 17.358 16.6807 17.5372L19.4066 18.4534C19.9439 18.6327 20.5209 18.7323 21.1079 18.7323C22.6101 18.7323 23.9631 18.1148 24.9381 17.1289V9.08225C23.5851 9.85904 22.0231 10.3072 20.3518 10.3072C19.4066 10.3072 18.5013 10.1677 17.6457 9.90882L15.1287 9.13204C14.3527 8.90298 13.5369 8.77354 12.6913 8.77354C10.9602 8.77354 9.35848 9.31131 8.01541 10.2076L7.43837 9.07229V7.53866C7.43837 7.30961 7.3389 7.07057 7.13992 6.92119L4.08567 4.61078C4.02598 4.57095 3.93643 4.54106 3.85684 4.54106C3.64792 4.54106 3.46886 4.71037 3.46886 4.9195V8.75363C3.46886 9.0026 3.5982 9.22168 3.78723 9.3611L5.03081 10.2773L17.0388 33.8795L14.2134 35.6124L3.70762 29.2288L3.69769 29.2388ZM3.46886 14.0318L11.965 30.7127L5.28945 26.6097C4.20505 25.9325 3.47882 24.7275 3.47882 23.3432V14.0218L3.46886 14.0318ZM20.5905 28.1433L23.1075 26.6196C24.2019 25.9424 24.9282 24.7374 24.9282 23.3531V20.9133C23.7841 21.4909 22.4907 21.8195 21.1178 21.8195C19.5161 21.8195 18.0238 21.3714 16.7503 20.6045L20.5905 28.1433ZM24.9381 5.17841C23.8139 6.44317 22.1724 7.23988 20.3518 7.23988C19.725 7.23988 19.1082 7.14029 18.5411 6.96103L16.0141 6.19422C14.9596 5.87554 13.8453 5.69628 12.6813 5.69628C11.8158 5.69628 10.9702 5.79587 10.1544 5.97513C9.8957 5.39752 9.48782 4.87966 8.95059 4.48131L7.49806 3.38585H23.3961C24.2417 3.38585 24.9282 4.08295 24.9282 4.92944V5.20831V5.18838L24.9381 5.17841Z" fill="black"/>
</svg>
