<svg xmlns="http://www.w3.org/2000/svg" width="150" height="90" fill="none"><g fill="#fff" clip-path="url(#a)"><path d="M56.613 45c-.287-15.38-20.877-21.076-28.826-6.74.383.284.862.664 1.15.854-.575 1.234-1.054 2.563-1.245 3.797-.096.855-.192 1.71-.192 2.659C27.5 53.544 34.012 60 42.056 60c8.045 0 14.557-6.456 14.557-14.43V45Zm-25.474 2.563c-.191 1.52-.096 2.089-.096 2.279l-.383.095c-.096-.285-.479-1.14-.574-2.374-.383-4.652 2.777-8.829 7.661-9.588 4.501-.665 8.715 2.088 9.768 5.98l-.383.096c-.096-.095-.287-.38-.958-1.14-5.362-5.411-13.886-2.943-15.035 4.652Zm13.79 2.563c-.766 1.045-1.915 1.71-3.256 1.71-2.202 0-4.022-1.804-4.022-3.988a3.888 3.888 0 0 1 3.735-3.892c1.245-.095 2.49.664 3.065 1.708a3.321 3.321 0 0 1-.575 3.703c.383.285.766.57 1.053.76Zm8.332.19c-2.107 4.747-6.416 7.216-11.013 7.12-8.906-.474-11.492-10.537-5.554-14.24l.287.285c-.096.095-.479.38-.958 1.519-.67 1.33-.862 2.563-.766 3.418.479 7.12 10.439 8.544 13.886 1.519 4.31-9.684-7.278-19.462-17.62-11.962l-.192-.285c2.681-4.177 7.948-6.076 13.024-4.842 7.757 1.994 11.97 9.968 8.906 17.468ZM70.786 39.304v6.645c0 2.659-1.628 4.652-4.596 4.652-2.97 0-4.597-1.993-4.597-4.652v-6.645h2.394v6.456c0 1.613.766 2.563 2.203 2.563 1.436 0 2.202-.95 2.202-2.563v-6.456h2.394Zm9.098 7.974c0 1.9-1.532 3.323-4.022 3.323h-3.926V39.4h3.734c2.203 0 3.64 1.044 3.64 2.658 0 1.234-.575 1.994-1.437 2.373 1.15.475 2.011 1.33 2.011 2.849Zm-5.459-5.696v2.374h1.245c.766 0 1.245-.475 1.245-1.14 0-.664-.479-1.139-1.245-1.139l-1.245-.095Zm1.341 6.836c1.054 0 1.628-.475 1.628-1.424 0-.95-.574-1.424-1.628-1.424h-1.34v2.753l1.34.095Zm5.076-9.02h2.394v11.108h-2.394V39.4Zm8.236 4.558c1.915.664 2.873 1.519 2.873 3.228 0 2.278-1.82 3.607-3.927 3.607-1.915 0-3.447-.854-4.022-2.468l1.915-1.424c.383 1.044 1.245 1.614 2.203 1.614.766 0 1.34-.475 1.34-1.14 0-.664-.478-1.044-2.01-1.613-1.724-.665-3.065-1.52-3.065-3.323 0-1.804 1.532-3.133 3.64-3.133 1.723 0 3.064.664 3.638 1.993l-1.915 1.33c-.383-.855-.958-1.33-1.82-1.33-.766 0-1.245.38-1.245.95.096.664.767 1.14 2.395 1.709ZM104.113 45c0 3.228-2.394 5.696-5.746 5.696-3.448 0-5.746-2.468-5.746-5.316 0-1.899.766-3.323 1.82-4.177l-.383-.38c.861-.855 2.394-1.52 4.213-1.52 3.448-.094 5.842 2.47 5.842 5.697Zm-2.49 0c0-1.994-1.245-3.418-3.256-3.418-1.15 0-2.011.475-2.49.95l.383.38c-.575.474-1.15 1.139-1.15 2.373 0 1.709 1.246 3.133 3.257 3.133s3.256-1.424 3.256-3.418Zm5.938-3.228v2.564h4.788v1.803h-4.788v4.367h-2.49V39.4h7.661v2.278h-5.171v.095Zm14.939 0h-3.16v8.83h-2.394v-8.83h-3.256V39.4h8.714v2.373h.096Z"></path></g><defs><clipPath id="a"><path fill="#fff" d="M27.5 30h95v30h-95z"></path></clipPath></defs></svg>