<svg xmlns="http://www.w3.org/2000/svg" width="64" height="50" fill="none" viewBox="0 0 64 50"><path fill="#000" d="M44.893 2.966a1.724 1.724 0 0 1-2.107 1.216 1.726 1.726 0 0 1-1.215-2.109A1.724 1.724 0 0 1 43.677.857a1.726 1.726 0 0 1 1.216 2.109M42.657 9.119a1.14 1.14 0 0 1-1.4.81 1.14 1.14 0 0 1-.81-1.401 1.14 1.14 0 0 1 1.4-.811c.613.162.972.788.81 1.402M40.988 13.938a.785.785 0 0 1-1.516-.405.785.785 0 0 1 1.516.405M39.701 17.704a.52.52 0 0 1-.636.37.522.522 0 0 1 .266-1.008c.278.07.44.36.37.638M50.309 5.701a1.719 1.719 0 1 1-2.975-1.726A1.72 1.72 0 1 1 50.309 5.7M46.55 11.054a1.15 1.15 0 0 1-1.562.417 1.15 1.15 0 0 1-.417-1.564 1.15 1.15 0 0 1 1.562-.417c.544.313.741 1.02.417 1.564M43.686 15.295a.79.79 0 0 1-1.076.29.79.79 0 0 1-.29-1.077.79.79 0 0 1 1.077-.29c.382.22.509.695.289 1.077M41.48 18.598a.51.51 0 0 1-.705.185.516.516 0 0 1-.186-.706.51.51 0 0 1 .706-.186.513.513 0 0 1 .185.707M55.086 9.987a2.066 2.066 0 0 1-2.928 0 2.07 2.07 0 0 1 0-2.931 2.066 2.066 0 0 1 2.928 0c.81.81.81 2.12 0 2.931M49.964 14.089a1.34 1.34 0 0 1-1.91 0 1.344 1.344 0 0 1 0-1.912 1.34 1.34 0 0 1 1.91 0c.533.533.533 1.39 0 1.912M45.96 17.299a.796.796 0 0 1-1.11 0 .8.8 0 0 1 0-1.112c.3-.313.798-.3 1.11 0 .3.301.3.8 0 1.112M42.973 19.905a.523.523 0 0 1-.729 0 .525.525 0 0 1 0-.73.523.523 0 0 1 .729 0 .525.525 0 0 1 0 .73M58.48 15.363a2.345 2.345 0 0 1-3.206-.857 2.35 2.35 0 0 1 .856-3.21 2.35 2.35 0 0 1 2.35 4.067M52.378 17.855a1.458 1.458 0 1 1-1.459-2.526 1.458 1.458 0 1 1 1.459 2.526M47.842 20.174a1.183 1.183 0 0 1-1.632-.44 1.186 1.186 0 0 1 .44-1.635 1.183 1.183 0 0 1 1.632.44c.335.569.139 1.31-.44 1.634M44.071 21.575a.52.52 0 0 1-.705-.186.523.523 0 0 1 .185-.706.52.52 0 0 1 .705.185.523.523 0 0 1-.185.707M60.264 21.341a2.493 2.493 0 0 1-3.056-1.772 2.513 2.513 0 0 1 1.77-3.07 2.493 2.493 0 0 1 3.057 1.772 2.496 2.496 0 0 1-1.771 3.059M53.732 22.142A1.59 1.59 0 0 1 51.8 21.03a1.59 1.59 0 0 1 1.111-1.935 1.59 1.59 0 0 1 1.933 1.112 1.59 1.59 0 0 1-1.11 1.935M48.732 23.15a1.256 1.256 0 0 1-1.54-.892 1.266 1.266 0 0 1 .892-1.541 1.265 1.265 0 0 1 1.54.892 1.257 1.257 0 0 1-.892 1.541M44.77 23.705a.77.77 0 0 1-.948-.544.77.77 0 0 1 .544-.95.77.77 0 0 1 .948.545.77.77 0 0 1-.543.95M60.406 27.576a2.65 2.65 0 0 1-2.651-2.653 2.644 2.644 0 0 1 2.65-2.653c1.47 0 2.651 1.181 2.651 2.653a2.644 2.644 0 0 1-2.65 2.653M53.892 26.767a1.834 1.834 0 0 1-1.829-1.83c0-1.009.822-1.832 1.83-1.832 1.006 0 1.828.823 1.828 1.831s-.822 1.83-1.829 1.83M48.803 26.255a1.32 1.32 0 1 1 1.32-1.32c0 .73-.59 1.32-1.32 1.32M44.835 25.803a.874.874 0 0 1-.867-.868c0-.475.393-.869.867-.869.475 0 .868.394.868.869a.874.874 0 0 1-.868.868M56.188 38.468a2.247 2.247 0 0 1-.822-3.06 2.23 2.23 0 0 1 3.056-.822 2.247 2.247 0 0 1 .821 3.06 2.23 2.23 0 0 1-3.056.822M50.826 34.712a1.67 1.67 0 0 1-.614-2.271 1.664 1.664 0 0 1 2.269-.614c.799.452 1.065 1.471.613 2.27a1.664 1.664 0 0 1-2.268.615M46.665 31.724a1.16 1.16 0 0 1-.429-1.575 1.16 1.16 0 0 1 1.575-.43c.544.314.74 1.032.428 1.577a1.16 1.16 0 0 1-1.574.428M43.571 29.187a.513.513 0 0 1-.185-.706.51.51 0 0 1 .706-.185.513.513 0 0 1 .185.706.51.51 0 0 1-.706.185M52.135 42.823a2.107 2.107 0 0 1 0-2.977 2.1 2.1 0 0 1 2.975 0 2.107 2.107 0 0 1 0 2.977 2.1 2.1 0 0 1-2.975 0M47.95 37.796a1.505 1.505 0 0 1 0-2.132c.59-.591 1.539-.591 2.13 0 .59.59.59 1.54 0 2.132-.591.59-1.54.59-2.13 0M44.667 33.867a1.05 1.05 0 0 1 0-1.494 1.047 1.047 0 0 1 1.492 0 1.05 1.05 0 0 1 0 1.494 1.047 1.047 0 0 1-1.492 0M42.244 30.68a.525.525 0 0 1 0-.73.523.523 0 0 1 .729 0 .525.525 0 0 1 0 .73.523.523 0 0 1-.729 0M47.107 46.01a1.98 1.98 0 0 1 .718-2.699 1.977 1.977 0 0 1 2.697.719c.544.95.22 2.155-.718 2.7-.95.544-2.153.22-2.697-.72M44.342 40.079a1.405 1.405 0 0 1 .509-1.924 1.4 1.4 0 0 1 1.921.51c.394.672.162 1.53-.51 1.923a1.4 1.4 0 0 1-1.92-.51M42.331 35.36a.785.785 0 0 1 .29-1.077.783.783 0 0 1 1.075.29c.22.37.093.857-.289 1.077a.783.783 0 0 1-1.076-.29M40.594 31.794a.523.523 0 0 1 .185-.707.52.52 0 0 1 .706.186.523.523 0 0 1-.185.706.52.52 0 0 1-.706-.185M41.57 47.784a1.726 1.726 0 0 1 1.216-2.109 1.724 1.724 0 0 1 2.107 1.217A1.726 1.726 0 0 1 43.677 49a1.724 1.724 0 0 1-2.106-1.216M40.446 41.341a1.14 1.14 0 0 1 .81-1.402 1.14 1.14 0 0 1 1.4.811 1.14 1.14 0 0 1-.81 1.402 1.14 1.14 0 0 1-1.4-.81M39.472 36.323a.785.785 0 1 1 .96.556.785.785 0 0 1-.96-.556M38.703 32.419a.53.53 0 0 1 .37-.637.53.53 0 0 1 .636.37.53.53 0 0 1-.359.637.527.527 0 0 1-.636-.37M35.505 48.13c0-.95.775-1.726 1.725-1.726.949 0 1.724.777 1.724 1.727a1.73 1.73 0 0 1-1.724 1.726 1.73 1.73 0 0 1-1.725-1.726M36.081 41.606c0-.637.51-1.147 1.146-1.147.637 0 1.146.51 1.146 1.147s-.51 1.147-1.146 1.147c-.637 0-1.146-.51-1.146-1.147M36.444 36.52c0-.429.347-.788.787-.788a.78.78 0 0 1 .787.788.78.78 0 0 1-.787.787.78.78 0 0 1-.787-.787M36.706 32.548c0-.29.231-.52.52-.52s.521.23.521.52-.231.521-.52.521a.52.52 0 0 1-.52-.52M29.561 46.892a1.724 1.724 0 0 1 2.107-1.217 1.726 1.726 0 0 1 1.215 2.109A1.724 1.724 0 0 1 30.776 49a1.726 1.726 0 0 1-1.215-2.11M31.81 40.75a1.14 1.14 0 0 1 1.4-.81c.614.162.972.787.81 1.401a1.14 1.14 0 0 1-1.4.811 1.14 1.14 0 0 1-.81-1.402M33.465 35.918a.785.785 0 0 1 1.515.405.785.785 0 0 1-1.515-.405M34.835 32.175c.058-.232.301-.371.532-.302.232.058.37.302.301.533a.424.424 0 0 1-.532.301.424.424 0 0 1-.3-.532M24.327 44.273a1.513 1.513 0 0 1 2.06-.556c.718.417.972 1.344.556 2.062a1.513 1.513 0 0 1-2.06.556 1.516 1.516 0 0 1-.556-2.062M28.072 38.908a.94.94 0 0 1 1.284-.347.942.942 0 0 1-.937 1.633.944.944 0 0 1-.347-1.286M30.842 34.621a.684.684 0 0 1 .937-.255c.335.186.44.614.254.95a.694.694 0 0 1-.937.255.685.685 0 0 1-.254-.938M33.065 31.32a.416.416 0 0 1 .717.417.416.416 0 0 1-.717-.417M19.852 40.356a1.375 1.375 0 0 1 1.956 0 1.38 1.38 0 0 1 0 1.958 1.375 1.375 0 0 1-1.956 0 1.38 1.38 0 0 1 0-1.958M24.874 36.149a.816.816 0 0 1 1.145 0 .82.82 0 0 1 0 1.146.816.816 0 0 1-1.145 0 .82.82 0 0 1 0-1.146M28.658 32.733c.22-.22.567-.22.787 0s.22.568 0 .788a.55.55 0 0 1-.787 0 .553.553 0 0 1 0-.788M16.495 35.374a1.34 1.34 0 0 1 1.83.486c.37.638.15 1.46-.487 1.83a1.34 1.34 0 0 1-1.829-.486c-.37-.637-.15-1.46.486-1.83M22.47 32.7a.663.663 0 0 1 .902.243.664.664 0 0 1-.243.904.663.663 0 0 1-.903-.244.664.664 0 0 1 .243-.903M26.918 30.242a.564.564 0 0 1 .764.209.565.565 0 0 1-.209.764.564.564 0 0 1-.763-.209.565.565 0 0 1 .208-.764M15.15 17.765c.648.173 1.03.834.856 1.483a1.207 1.207 0 0 1-1.482.857 1.21 1.21 0 0 1-.856-1.483 1.207 1.207 0 0 1 1.481-.857M17.751 12.283c.579.336.776 1.078.44 1.645a1.2 1.2 0 0 1-1.644.44c-.567-.335-.775-1.077-.44-1.645a1.2 1.2 0 0 1 1.644-.44M23.146 15.99c.335.185.44.613.254.949-.185.336-.613.44-.948.255-.336-.186-.44-.614-.255-.95s.613-.44.949-.255M27.48 18.667c.266.15.347.486.197.752a.547.547 0 0 1-.752.197.55.55 0 0 1-.197-.752.547.547 0 0 1 .752-.197M21.75 7.624a1.278 1.278 0 1 1-1.806 1.807 1.278 1.278 0 0 1 1.806-1.807M26.024 12.56a.81.81 0 0 1 0 1.158.81.81 0 0 1-1.157 0 .81.81 0 0 1 0-1.158.81.81 0 0 1 1.157 0M29.475 16.302a.623.623 0 1 1-.881.88.623.623 0 0 1 .88-.88M26.937 4.078a1.506 1.506 0 0 1-.555 2.062 1.503 1.503 0 0 1-2.06-.556 1.506 1.506 0 0 1 .555-2.062 1.5 1.5 0 0 1 2.06.556M29.704 10.011a.948.948 0 1 1-1.296-.347.95.95 0 0 1 1.296.347M32.033 14.555a.688.688 0 0 1-1.191.683.687.687 0 1 1 1.192-.683M33.748 18.145a.37.37 0 0 1-.138.51.365.365 0 0 1-.51-.14.37.37 0 0 1 .14-.509.367.367 0 0 1 .508.14M32.78 2.107a1.617 1.617 0 1 1-3.125.834 1.617 1.617 0 1 1 3.125-.834M33.851 8.562a.99.99 0 0 1-.694 1.204.987.987 0 0 1-1.203-.695.99.99 0 0 1 .694-1.204.987.987 0 0 1 1.203.695M34.98 13.533a.785.785 0 1 1-.96-.556.785.785 0 0 1 .96.556M35.66 17.46a.426.426 0 0 1-.82.22.42.42 0 0 1 .3-.522c.22-.058.462.07.52.301M38.946 1.726a1.73 1.73 0 0 1-1.724 1.727 1.73 1.73 0 0 1-1.725-1.727c0-.95.776-1.726 1.725-1.726s1.724.776 1.724 1.726M38.365 8.25c0 .638-.51 1.148-1.146 1.148s-1.146-.51-1.146-1.147c0-.638.51-1.147 1.146-1.147.637 0 1.146.51 1.146 1.147M38.01 13.346a.788.788 0 1 1-.787-.787.78.78 0 0 1 .787.787M37.74 17.31c0 .29-.232.521-.521.521a.52.52 0 0 1-.52-.52c0-.29.23-.522.52-.522.289 0 .52.232.52.521M58.971 33.359a2.5 2.5 0 0 1 1.285-4.832 2.51 2.51 0 0 1 1.77 3.07 2.5 2.5 0 0 1-3.055 1.774M52.887 30.889a1.69 1.69 0 0 1-1.193-2.074 1.69 1.69 0 0 1 2.072-1.194 1.706 1.706 0 0 1 1.204 2.074 1.69 1.69 0 0 1-2.072 1.194M48.093 29.116a1.225 1.225 0 0 1-.869-1.506 1.229 1.229 0 1 1 2.373.637 1.223 1.223 0 0 1-1.504.87M44.37 27.656a.785.785 0 1 1 .96-.556.785.785 0 0 1-.96.556M19.735 29.06c0 1.18-.024 2.293 0 3.406.023.59-.15.834-.8.822-1.388-.023-1.388.012-1.388-1.367 0-3.117-.012-6.234.011-9.35 0-.406-.312-1.008.37-1.194.66-.185 1.054.15 1.205.87.89-.742 1.817-1.206 2.928-1.102a3.65 3.65 0 0 1 2.2 1.009c1.388 1.32 1.69 3.545.717 5.283-.984 1.75-2.662 2.294-5.267 1.634m.024-3.87c0 1.923.358 2.352 1.759 2.224.868-.08 1.458-.567 1.748-1.402.312-.892.139-1.691-.51-2.363-.567-.58-1.25-.73-2.025-.452-1.077.394-1.042 1.286-.973 1.993M3.872 25.318c.672-1.287 1.262-2.422 1.864-3.557.15-.278.243-.65.648-.638.394 0 .486.371.637.66.59 1.136 1.192 2.272 1.852 3.535.382-1.182.718-2.213 1.065-3.233.208-.614 1.47-1.043 2.025-.684.244.163.14.348.081.545l-2.222 6.882c-.081.255-.15.533-.475.568-.358.035-.497-.232-.636-.51-.741-1.436-1.493-2.862-2.315-4.426-.776 1.472-1.482 2.839-2.211 4.195-.174.324-.266.787-.764.718-.451-.058-.44-.51-.532-.823-.706-2.155-1.378-4.31-2.107-6.453-.22-.638-.035-.719.556-.777.937-.08 1.458.186 1.655 1.17.185.904.555 1.773.903 2.816M37.032 29.385c-2.21.023-4.062-1.866-4.062-4.137 0-2.236 1.805-4.102 3.981-4.125 2.2-.023 4.063 1.877 4.063 4.137 0 2.224-1.806 4.101-3.982 4.124m2.026-4.149c-.012-1.181-1.007-2.19-2.107-2.166-1.11.035-2.072 1.089-2.025 2.248.046 1.147.983 2.108 2.06 2.12 1.111 0 2.084-1.043 2.072-2.201M28.73 22.316c.925-.95 1.874-1.39 3.043-1.113.382.093.984.174.718.719-.231.486-.08 1.413-1.111 1.274-1.505-.22-2.003.209-2.003 1.68 0 1.182-.023 2.352 0 3.534.012.591-.208.765-.775.765-1.424.012-1.424.035-1.424-1.425 0-1.738-.023-3.476.012-5.203 0-.405-.301-1.008.405-1.181.648-.151 1.065.127 1.123.95M15.652 25.213c0 1.054-.023 2.12 0 3.175.011.556-.15.834-.741.776a6 6 0 0 0-.787 0c-.429.023-.648-.139-.648-.602.011-2.202 0-4.403 0-6.616 0-.406.15-.603.567-.591.324 0 .648.023.972 0 .51-.035.66.22.648.695-.023 1.054 0 2.12 0 3.175"/></svg>