<svg width="112" height="44" viewBox="0 0 112 44" fill="none" xmlns="http://www.w3.org/2000/svg">
<path d="M111.879 18.6087C111.608 16.8302 110.025 15.9217 108.548 16.1053C108.451 16.405 108.519 25.2295 108.519 27.008V27.7909C108.519 28.3515 108.557 28.3611 108.432 28.5448C108.21 28.4094 107.939 27.9552 107.775 27.7329C105.497 24.7656 103.083 21.4987 100.814 18.628C100.032 17.6421 99.1829 16.202 97.4933 16.1053C95.63 15.9893 94.6743 17.2845 94.626 19.063C94.6067 19.9038 94.5584 29.8206 94.6839 30.6712C94.9542 32.4496 96.5472 33.3678 98.034 33.1455V23.8087C98.034 23.2288 97.8988 21.0734 98.1016 20.7158C98.2947 20.8027 98.3333 20.9284 98.4588 21.0927L105.719 30.5649C106.472 31.5314 107.389 32.9909 108.992 33.1455C110.894 33.3292 111.869 32.0243 111.946 30.2556C111.975 29.55 112.033 19.4012 111.907 18.6087" fill="black"/>
<path d="M81.4856 17.8825C78.7727 15.6498 74.1096 15.1569 70.7596 17.1286C69.8906 17.6409 68.8673 18.4818 68.288 19.2937C66.7626 21.4878 66.164 23.8171 66.6177 26.6201C67.9018 34.5941 78.4349 35.0291 79.6996 29.6937C79.9892 28.5242 79.603 26.8231 78.9369 26.1078C78.6665 26.4268 78.541 28.9398 76.1854 29.7711C74.3124 30.4283 72.3236 29.6164 71.4257 28.5435C70.4023 27.3064 69.881 25.5086 70.3058 23.4112C71.1167 19.3613 75.5481 18.3271 78.3962 19.9993C81.9684 22.0967 80.974 26.9197 81.196 30.1577C81.2636 31.2112 81.5532 31.8491 82.1807 32.4097C82.6635 32.835 83.7641 33.2699 84.7103 33.1346C84.7103 31.2595 84.7971 25.4409 84.6233 24.0008C84.3337 21.5458 83.349 19.4097 81.4856 17.8729" fill="black"/>
<path d="M60.3494 29.81C59.4515 29.81 53.7168 29.9067 53.4078 29.7423C53.4175 29.491 54.4602 28.7565 54.6919 28.5728L61.7493 22.8702C62.6568 22.1356 63.7574 21.3141 64.4333 20.4345C65.3408 19.236 65.138 17.6122 64.0471 16.8679C62.9271 16.1044 61.1604 16.2494 59.5674 16.2494C58.795 16.2494 49.8936 16.201 49.3819 16.259C49.2081 16.9839 49.5461 18.1921 50.357 18.7624C51.1487 19.323 52.23 19.323 53.3789 19.323H60.359C60.359 19.323 60.3687 19.323 60.3784 19.3326C60.3977 19.3326 60.4266 19.352 60.4652 19.3616L60.5618 19.4196C60.4267 19.7289 57.0669 22.3386 56.7386 22.5996C55.4256 23.6338 54.1416 24.6776 52.8382 25.7408C51.7473 26.6301 49.826 27.9736 49.2082 29.1431C48.7158 30.0613 48.8606 31.1535 49.4302 31.8591C50.5405 33.2413 53.514 32.8836 55.4256 32.8836H64.2112C65.1573 32.8836 65.2635 33.1059 65.0994 32.12C64.7229 29.7907 62.792 29.8003 60.359 29.8003" fill="black"/>
<path d="M87.6709 16.0548V17.1276C87.6709 20.3366 87.6709 23.5552 87.6709 26.7641C87.6709 28.0399 87.5261 30.2727 87.9027 31.3262C88.3854 32.6987 89.7853 33.2593 91.1948 33.153V22.8496C91.1948 21.6028 91.33 18.8771 90.9824 17.8912C90.4514 16.4027 88.6074 15.7938 87.6709 16.0548Z" fill="black"/>
<path d="M88.968 10.6641C86.2648 11.36 87.2881 15.3228 89.9142 14.6946C90.8699 14.4626 91.7389 13.5057 91.4589 12.2396C91.2465 11.2633 90.2231 10.3451 88.968 10.6641Z" fill="black"/>
<path d="M36.7609 29.4158C37.8422 27.2604 38.6629 24.9117 38.9622 22.476C39.0298 21.8961 39.0587 21.3548 39.1263 20.7652C39.1939 20.2143 39.1263 19.5764 39.1649 19.0061C39.0683 19.2478 39.107 19.673 39.0587 19.963C39.0008 20.2626 38.9428 20.5913 38.8656 20.9199C38.2188 23.7615 36.6741 26.1779 34.8494 28.3429C34.4825 28.7682 33.0054 30.392 32.5613 30.6433C32.8316 30.0731 33.9805 28.8359 34.1156 28.2753C33.9418 28.3429 32.9957 29.2032 32.7736 29.4062C32.3199 29.8024 31.8662 30.1214 31.3738 30.479C28.4099 32.6537 25.0211 34.1906 21.2655 35.1764C18.7457 35.8337 14.9419 36.056 12.3931 35.3407C10.1339 34.7125 8.40577 33.224 7.12172 31.4069L6.89969 31.1363C6.86107 31.0783 6.88041 31.0976 6.81283 31.0493C6.76456 30.856 6.23355 30.0248 6.07908 29.7155C5.81841 29.2129 5.64464 28.8069 5.42259 28.2656C4.53438 26.1489 4.17717 23.4039 4.09993 21.0649C4.05166 19.644 4.18678 18.3392 4.17712 16.957C3.55924 18.0589 3.10547 20.7652 2.96065 22.3117C2.76756 24.4284 2.89311 26.4195 3.30826 28.3913C3.68478 30.1504 4.34129 31.8225 5.1233 33.195C8.00999 38.2984 12.731 40.0478 18.5236 39.0619C22.2503 38.4337 25.1853 36.8196 27.9271 35.2538C27.9368 35.2151 27.9271 35.1958 27.9271 35.1764C27.9271 35.1861 27.9368 35.2151 27.9271 35.2538L27.8596 35.3407C27.8596 35.3407 27.8402 35.3601 27.8306 35.3698L26.8748 36.0947C24.1715 37.9988 20.9373 39.7289 17.5486 40.3088C13.9282 40.9371 9.34228 40.8501 6.18527 38.7527C5.98252 38.6174 5.7798 38.5013 5.60602 38.366C5.39363 38.2114 5.2391 38.0664 5.00739 37.9601C5.24875 38.511 5.52876 38.8783 5.94391 39.2843L6.89002 40.0865C7.03484 40.1735 7.17003 40.2218 7.16038 40.3088C7.3245 40.4345 7.58514 40.4731 7.78788 40.5698C9.64154 41.4783 10.4139 41.778 12.673 42.1259C17.6161 42.8798 23.2061 41.4687 27.4154 38.975C27.7533 38.772 29.5394 37.6218 29.7229 37.6025C29.9546 37.4865 31.3255 36.2493 31.5379 36.056C32.1461 35.5051 32.6771 34.9348 33.2178 34.3742C34.077 33.4656 34.7722 32.6441 35.5349 31.6389C35.6893 31.4456 36.1237 30.7497 36.2686 30.6433C36.1527 30.4307 36.6934 29.6188 36.7996 29.4158M6.91902 31.3489C6.91902 31.3489 6.91902 31.3489 6.91902 31.3392C6.91902 31.3392 6.91902 31.3393 6.91902 31.3489ZM7.00587 31.5132C7.00587 31.5132 7.00587 31.5132 7.00587 31.5036C7.00587 31.5036 7.00587 31.5036 7.00587 31.5132ZM6.95761 31.4359C6.95761 31.4359 6.9576 31.4262 6.94795 31.4166C6.94795 31.4166 6.94796 31.4262 6.95761 31.4359Z" fill="black"/>
<path d="M24.5239 5.96405C18.9243 6.92093 13.624 10.6518 11.3938 15.9968C10.1194 19.0414 9.7622 22.434 11.0173 25.6526C12.002 28.185 14.1936 30.698 16.752 31.5485C16.5589 31.1233 13.7881 30.0214 12.7454 25.3143C12.4654 24.0578 12.3689 22.7046 12.4461 21.3321C12.3592 22.695 12.4654 24.0481 12.7454 25.3047C13.7784 30.0117 16.5589 31.1232 16.752 31.5389C17.8913 32.0801 19.8125 32.4281 21.3282 32.4184C24.9583 32.3894 28.3663 30.6593 30.8572 28.3009C31.0599 28.1076 32.064 27.0734 32.1605 26.8511C32.9039 26.3872 34.5645 23.2652 34.9797 22.144C35.7038 20.2013 36.1768 17.9686 35.501 15.7262C34.468 12.2756 30.6641 9.75291 26.0203 10.1492C17.6113 10.8548 14.6281 19.1574 17.4858 22.202C18.7505 23.5552 20.8938 23.7388 22.5447 23.0526C22.6606 23.0043 22.7571 22.9559 22.8729 22.8979C22.9695 22.8496 22.9406 22.8689 23.0274 22.8109C23.1433 22.7143 23.0854 22.7723 23.1433 22.6853C22.9502 22.5693 22.6992 22.5017 22.4675 22.3857C18.4126 20.4332 19.8608 15.1946 23.3847 13.2325C25.219 12.2176 27.5457 11.7053 29.9883 12.3239C31.4364 12.7009 32.7688 13.5321 33.5218 14.75C33.8115 15.2236 33.8984 15.6585 34.1397 16.1418C34.1397 16.1418 34.1397 16.1418 34.1493 16.1514C34.3907 18.2295 34.3038 19.37 33.4832 21.0518C32.7012 22.637 31.842 23.7195 30.751 24.8697C28.8298 26.9091 26.783 28.4266 23.7708 28.8422C18.7312 29.5478 14.2708 26.5128 13.4695 21.8734C13.2474 20.6072 13.1992 19.1671 13.4309 17.8912C13.5081 17.4466 13.6336 17.0503 13.6915 16.6251C13.7591 16.5284 13.8074 16.4221 13.846 16.3158C13.8267 16.9923 13.7109 17.7366 13.8267 18.4035C13.9426 18.1135 14.0295 17.6206 14.1357 17.2823C14.4543 16.2094 14.9273 15.2429 15.5066 14.3247C20.4593 6.50531 34.1494 5.65475 38.2236 14.141C38.9573 15.6585 39.2469 17.0407 39.1793 19.0124C39.1504 19.5924 39.2083 20.2303 39.1407 20.7716C39.0732 21.3611 39.0538 21.9024 38.9766 22.4823C38.6773 24.918 37.8567 27.2667 36.7754 29.4221C36.6692 29.6251 36.1189 30.437 36.2444 30.6497L37.3836 28.8809C38.4649 27.1894 39.4497 24.86 40.0965 22.9269C43.4563 12.8169 35.9741 4.01163 24.5335 5.95439" fill="black"/>
<path d="M20.4946 2.68852C21.5759 2.31157 22.7055 2.18592 23.2461 1.22904C23.391 0.968073 23.6034 0.359146 23.3137 0.0788474C22.9179 -0.307771 19.423 0.842419 18.9016 1.04539C17.5114 1.58666 16.2756 2.20525 15.0978 2.90116C13.3117 3.9547 11.7477 5.14355 10.2802 6.50638C9.98091 6.78667 9.04445 7.67589 8.91895 7.96586C9.00584 7.93686 11.6801 6.35173 12.52 5.96511C15.5902 4.54429 17.2121 3.81938 20.4946 2.68852Z" fill="black"/>
<path d="M12.6459 42.1326C10.3868 41.7847 9.61444 41.4947 7.76078 40.5765C7.56769 40.4798 7.29735 40.4412 7.13322 40.3155C4.26584 39.465 2.49911 35.7148 1.6109 33.0084C1.08955 31.404 1.10887 30.94 0.770962 29.6738C0.490982 31.143 1.02198 33.9266 1.3792 35.2218C1.84261 36.8843 2.59562 38.1891 3.44521 39.3683C5.00923 41.5334 7.76077 43.1765 11.4295 43.7177C15.1561 44.2687 19.1144 43.6791 22.117 42.3936C23.6038 41.7653 24.9071 41.0308 26.1525 40.2285C26.8573 39.7549 29.4254 38.0345 29.6957 37.6188C29.5026 37.6285 27.7262 38.7884 27.3883 38.9914C23.1886 41.485 17.589 42.8865 12.6459 42.1423" fill="black"/>
</svg>
