<svg xmlns="http://www.w3.org/2000/svg" width="150" height="90" fill="none"><g fill="#fff" clip-path="url(#a)"><path d="M99.196 55.42V41.611a3.133 3.133 0 0 0-.807-2.338 3.256 3.256 0 0 0-2.387-.88 2.216 2.216 0 0 0-.245 0V52.21a3.134 3.134 0 0 0 .808 2.333 3.263 3.263 0 0 0 2.378.88c.085.005.169.005.253 0v-.004Zm.31-20.377a2.064 2.064 0 0 0-.347-1.137 2.037 2.037 0 0 0-.914-.752 2.017 2.017 0 0 0-2.214.45 2.058 2.058 0 0 0-.437 2.235c.154.374.415.694.75.92a2.021 2.021 0 0 0 2.57-.258 2.05 2.05 0 0 0 .592-1.458ZM89.202 48.727v3.483a3.136 3.136 0 0 0 .807 2.333 3.29 3.29 0 0 0 2.383.88c.085.005.169.005.253 0v-7.422c0-3.192-.873-5.341-2.4-7.014-1.528-1.673-3.928-2.708-6.687-2.708-5.237 0-8.894 3.883-8.894 8.938 0 4.966 3.37 8.282 7.742 8.282 3.374 0 5.395-2.021 5.395-4.403a4.911 4.911 0 0 0-.873-2.734c-.485 2.549-1.886 3.962-4.133 3.962-2.405 0-4.522-1.836-4.522-5.19 0-3.356 2.121-5.548 5.294-5.548a5.245 5.245 0 0 1 3.837 1.519c1.134 1.136 1.798 2.875 1.798 5.626v-.004Zm26.867 2.131a.135.135 0 0 1-.104-.066c-2.471-3.24-6.984-9.22-7.987-10.523-1.039-1.37-1.855-1.818-2.929-1.818a2.48 2.48 0 0 0-1.877.77 3.358 3.358 0 0 0-.742 2.294V52.21a3.113 3.113 0 0 0 .808 2.333 3.181 3.181 0 0 0 2.326.88c.064.005.128.005.192 0V43.158c0-.088.039-.136.1-.136.062 0 .07 0 .101.07 1.449 1.902 6.944 9.15 8 10.514 1.056 1.365 1.846 1.823 2.915 1.823a2.503 2.503 0 0 0 1.886-.761 3.38 3.38 0 0 0 .742-2.294v-10.7a3.15 3.15 0 0 0-.812-2.342 3.181 3.181 0 0 0-2.331-.88 1.464 1.464 0 0 0-.192 0v12.275c0 .088-.039.132-.096.132Zm-54.154 1.281c-.135 0-.214-.044-.214-.136a.256.256 0 0 1 .118-.172c1.056-.88 8.052-6.556 9.117-7.44 1.855-1.507 2.244-2.242 2.244-3.312a2.272 2.272 0 0 0-.777-1.7c-.559-.48-1.397-.739-2.754-.739H57.751v.19a3.25 3.25 0 0 0 .437 1.76c.484.696 1.392 1.097 2.619 1.097h7.82c.136 0 .215.044.215.114s-.035.102-.123.168c-1.108.907-7.563 6.164-9.165 7.458-1.86 1.506-2.23 2.254-2.23 3.32a2.254 2.254 0 0 0 .777 1.695c.563.484 1.4.748 2.762.748h12.46v-.132a2.844 2.844 0 0 0-.78-2.148c-.607-.564-1.393-.77-2.872-.77h-7.756ZM49.507 41.947c0-2-1.523-3.523-3.7-3.347-4.623.357-5.238 5.663-2.213 6.002 3.146.352 4.272-3.003 4.334-3.192 0 .228.17 4.843-4.496 4.843a3.603 3.603 0 0 1-2.618-1.084 3.665 3.665 0 0 1-1.052-2.65c0-2.567 2.474-5.125 5.97-5.261 1.956-.075 3.247.391 4.255 1.413 2.065 2.078 1.454 5.975-.196 7.894-2.645 3.056-6.363 3.83-9.824 2.263-3.461-1.567-4.705-6.102-2.619-9.897.786-1.4 3.588-4.509 8.42-4.509 6.11 0 9.221 4.377 8.658 9.515-.436 3.936-2.797 6.789-3.897 7.995-4.845 5.284-11.941 6.35-16.41 3.593a7.486 7.486 0 0 1-2.857-3.125 7.568 7.568 0 0 1-.718-4.188 7.556 7.556 0 0 0 1.01 3.058 7.486 7.486 0 0 0 2.189 2.349c3.653 2.514 9.768 2.857 14.184-2.043-4.438 3.346-9.627 3.297-13.167.968-3.252-2.135-4.146-6.401-2.553-10.62-.799 3.76.467 7.248 3.304 9.066 4.39 2.831 10.793 1.202 14.839-3.36a8.5 8.5 0 0 0 2.125-5.56c-.039-3.192-2.243-6.054-6.708-6.054-4.57 0-7.703 3.562-7.703 6.525 0 3.289 2.239 5.165 5.159 5.165s6.284-1.836 6.284-5.76Z"></path></g><defs><clipPath id="a"><path fill="#fff" d="M30.5 33h89v24h-89z"></path></clipPath></defs></svg>