<?xml version="1.0" encoding="UTF-8"?>
<svg id="Ebene_1" data-name="Ebene 1" xmlns="http://www.w3.org/2000/svg" version="1.1" viewBox="0 0 3840 1512">
  <defs>
    <style>
      .cls-1 {
        fill: #fff;
        stroke-width: 0px;
      }
    </style>
  </defs>
  <g>
    <path class="cls-1" d="M1322.03,1054.54l-274.92.45c-.07.08-.14.17-.21.25-.21.25-.43.5-.64.76l-.69-.12-.82-.15c-7.84,9.18-16.08,18.08-24.69,26.68-42.35,42.34-91.7,75.61-146.7,98.87-12.35,5.22-24.87,9.89-37.52,13.99v-96.26c134.87-55.02,229.91-187.47,229.91-342.11,0-121.74-58.91-229.73-149.78-297.01-.07-.06-.15-.11-.22-.17-25.15-18.61-52.76-34.08-82.23-45.87v-170.44c-9.13-2.47-18.33-4.68-27.57-6.64-14.16-3-28.45-5.42-42.85-7.24v164.03c-21.63-3.95-43.92-6.01-66.69-6.01-24.9,0-49.23,2.46-72.75,7.17v-164.66c-46.42,6.27-91.67,18.66-135.19,37.07-31.55,13.34-61.96,29.85-90.4,49.06-28.1,18.98-54.52,40.78-78.51,64.78-2.31,2.31-4.6,4.64-6.86,7l-122,.2h-1.38c19.15-26.26,40.39-51.11,63.36-74.07,28.2-28.2,59.23-53.81,92.25-76.12,33.43-22.58,69.18-41.98,106.28-57.67,6.15-2.59,12.33-5.09,18.56-7.49v-73.49c-.31.1-.62.22-.93.33v-.94c-15.17,5.2-30.14,10.93-44.88,17.16-41.25,17.45-81.02,39.03-118.18,64.14-35.93,24.27-69.75,52.05-100.54,82.62-.99.97-1.97,1.95-2.95,2.93-.67.67-1.33,1.34-2,2.01-30.19,30.55-57.66,64.05-81.68,99.61-4.69,6.95-9.27,13.99-13.71,21.12-13.94,22.35-38.3,70.02-38.3,70.02l274.43-.45,2.83-.37c.07-.08.48-.36.48-.36,7.84-9.18,16.08-18.08,24.69-26.68,42.35-42.34,91.7-75.61,146.7-98.87,12.35-5.22,24.87-9.89,37.52-13.99v96.26c-134.87,55.02-229.91,187.47-229.91,342.11,0,121.81,58.96,229.83,149.9,297.11,24.92,18.44,52.24,33.81,81.4,45.57.31.12.62.24.93.37v170.44c9.13,2.47,18.33,4.68,27.57,6.64,14.16,3,28.45,5.42,42.85,7.24v-164.04c21.63,3.95,43.92,6.02,66.69,6.02,24.58,0,48.58-2.4,71.82-6.99.31-.07.62-.12.93-.19v164.66c23.8-3.21,47.31-8.04,70.42-14.47,21.96-6.1,43.58-13.64,64.78-22.61,31.55-13.34,61.96-29.85,90.4-49.06,28.1-18.98,54.52-40.78,78.51-64.78,1.7-1.7,3.39-3.41,5.05-5.13.61-.62,1.21-1.24,1.81-1.87h2.76l119-.2h1.62c-19.15,26.26-40.39,51.11-63.36,74.07-28.2,28.2-59.23,53.81-92.25,76.12-33.43,22.58-69.18,41.98-106.28,57.67-6.15,2.59-12.33,5.09-18.56,7.49v73.49c.31-.1.62-.21.93-.33v.94c15.17-5.2,30.14-10.93,44.88-17.16,41.25-17.45,81.02-39.03,118.18-64.14,35.93-24.27,69.75-52.05,100.54-82.62.67-.66,1.34-1.32,2.01-2,.98-.98,1.96-1.96,2.93-2.95,30.19-30.55,57.66-64.05,81.68-99.61,4.69-6.95,9.27-13.99,13.71-21.12,13.94-22.35,26.65-45.53,37.96-69.32l.34-.7h-.45ZM924.9,564.76c43.1,51.87,69.02,118.51,69.02,191.21s-25.92,139.34-69.02,191.21v-382.42ZM465.09,948.28c-43.65-52.02-69.95-119.09-69.95-192.31s26.3-140.29,69.95-192.31v384.62ZM535.04,502.56c46.18-29.12,100.86-45.99,159.49-45.99s114.05,17.09,160.42,46.58v217.84h-319.91v-218.43ZM694.53,1055.36c-58.63,0-113.31-16.87-159.49-45.99v-218.43h319.91v217.84c-46.37,29.49-101.4,46.58-160.42,46.58ZM693.6,1331.43c-33.17,0-62.16,17.84-77.91,44.46-.02.04-.04.07-.07.1-.29-.03-.58-.07-.87-.1-15.7-1.99-31.31-4.56-46.76-7.72-40.27-8.24-79.88-20.54-117.74-36.55-11.43-4.83-22.71-10.02-33.85-15.53-24.38-12.18-48.01-25.97-70.57-41.21-33.02-22.31-64.06-47.92-92.25-76.12-.16-.16-.31-.31-.47-.47-.16-.16-.31-.31-.47-.47-27.82-27.93-53.12-58.66-75.18-91.32-22.58-33.43-41.98-69.18-57.67-106.28-16.01-37.86-28.32-77.47-36.55-117.74-8.42-41.16-12.69-83.41-12.69-125.6s4.27-84.44,12.69-125.6c.69-3.38,1.41-6.74,2.16-10.11h93.8c-11.47,43.75-17.25,88.85-17.25,134.77,0,71.67,14.08,141.31,41.88,207.01,12.93,30.57,28.83,60.08,47.29,87.76.59.89,1.17,1.76,1.76,2.64,18.99,28.1,40.79,54.52,64.78,78.51l.93.93c23.74,23.62,49.83,45.1,77.58,63.84,19.33,13.06,66.1,38.04,66.1,38.04v-79.24c-33.92-19.84-65.15-43.97-93.29-72.1l-.47-.47-.47-.47c-42.34-42.35-75.61-91.7-98.87-146.7-24.12-57.02-36.35-117.5-36.35-179.76s12.23-122.73,36.35-179.76c3.63-8.58,7.5-17.02,11.61-25.31H30.56c-6.65,21.55-12.26,43.42-16.77,65.46C4.42,662.11-.32,709.08-.32,755.97s4.75,93.86,14.11,139.61c9.17,44.8,22.84,88.87,40.66,130.98,5.73,13.53,11.89,26.9,18.49,40.07.32.63.63,1.27.95,1.9,13.27,26.31,28.22,51.82,44.7,76.21,24.8,36.71,53.27,71.22,84.61,102.56,31.34,31.35,65.85,59.81,102.56,84.61,37.16,25.11,76.93,46.69,118.18,64.14,42.11,17.81,86.18,31.49,130.98,40.66,16.62,3.4,33.4,6.19,50.27,8.37.16.02.32.04.48.06.16.02.33.04.49.06.09.34.18.65.27.98h0c10.6,38.19,45.63,66.21,87.18,66.21s76.94-28.32,87.34-66.81c2.04-7.54,3.13-15.47,3.13-23.66,0-16.7-4.53-32.36-12.43-45.8-15.72-26.73-44.79-44.68-78.04-44.68ZM1389.37,752.51c-.22-45.74-4.97-91.52-14.1-136.15-9.17-44.8-22.84-88.87-40.66-130.98-17.45-41.25-39.03-81.02-64.14-118.18-24.8-36.71-53.27-71.22-84.61-102.56-31.34-31.35-65.85-59.81-102.56-84.61-37.16-25.11-76.93-46.69-118.18-64.14-42.11-17.81-86.18-31.49-130.98-40.66-17.02-3.48-34.21-6.32-51.5-8.52C772.03,28.52,737.02.49,695.46.49s-76.94,28.32-87.34,66.81c-2.04,7.54-3.13,15.47-3.13,23.66,0,16.7,4.53,32.36,12.43,45.8,15.72,26.73,44.79,44.68,78.04,44.68s62.16-17.84,77.9-44.46c.02-.04.05-.07.07-.1.29.03.58.07.87.1,15.7,1.99,31.31,4.56,46.77,7.72,40.27,8.24,79.88,20.54,117.74,36.55,11.59,4.91,23.06,10.17,34.36,15.78.6.3,1.19.59,1.79.89,23.57,11.9,46.41,25.3,68.26,40.07,33.02,22.31,64.06,47.92,92.25,76.12l.93.93c27.82,27.93,53.12,58.66,75.18,91.32,22.58,33.43,41.98,69.18,57.67,106.28,16.01,37.86,28.32,77.47,36.55,117.74,8.42,41.16,12.69,83.41,12.69,125.6s-4.27,84.44-12.69,125.6c-.69,3.38-1.41,6.74-2.16,10.11h-93.8c11.47-43.75,17.25-88.85,17.25-134.77,0-71.67-14.08-141.31-41.88-207.01-12.93-30.57-28.83-60.08-47.29-87.76-.58-.89-1.17-1.76-1.76-2.64-18.99-28.1-40.79-54.52-64.78-78.51-.16-.16-.31-.31-.47-.47-.16-.16-.31-.31-.47-.47-23.74-23.62-49.83-45.1-77.58-63.84-18.26-12.34-37.34-23.54-57.02-33.51-.28-.14-4.07-1.96-9.08-4.34v79.05c33.92,19.84,65.15,43.97,93.29,72.1l.93.93c42.34,42.35,75.61,91.7,98.87,146.7,24.12,57.02,36.35,117.5,36.35,179.76s-12.23,122.73-36.35,179.76c-3.63,8.58-7.5,17.02-11.61,25.31h250.25c6.65-21.55,12.26-43.42,16.77-65.46,9.13-44.63,13.88-90.41,14.1-136.15,0-1.15,0-2.3,0-3.46v-1.04c0-1.12,0-2.23,0-3.35Z"/>
    <path class="cls-1" d="M625.51,1283.87h-.75c.25.04.49.07.75.1v-.1Z"/>
  </g>
  <path class="cls-1" d="M1660.65,343.83h124.73v26.11h-47.46v99.15h-29.81v-99.15h-47.46v-26.11Z"/>
  <path class="cls-1" d="M1966.73,419.51h-61.22v49.57h-29.99v-125.25h29.99v49.22h61.22v-49.22h29.81v125.25h-29.81v-49.57Z"/>
  <path class="cls-1" d="M2095.86,343.83h104.79v24.7h-74.8v22.58h44.63v25.23h-44.63v26.82h81.68v25.93h-111.67v-125.25Z"/>
  <path class="cls-1" d="M1850.36,755.1h-147.36v112.22h-50.63v-268.26h50.63v110.7h147.36v-110.7h51.01v268.26h-51.01v-112.22Z"/>
  <path class="cls-1" d="M2046.83,871.47c-49.12,0-89.93-37.03-89.93-99.75s40.81-99.75,90.3-99.75c40.43,0,59.7,24.94,63.85,32.87v-28.72h48.36v191.19h-47.99v-30.23c-3.78,7.93-22.67,34.38-64.61,34.38ZM2059.68,714.3c-32.49,0-53.65,24.94-53.65,57.43s21.16,57.43,53.65,57.43,52.14-24.94,52.14-57.43-20.78-57.43-52.14-57.43Z"/>
  <path class="cls-1" d="M2280.33,789.11c-41.94-3.4-70.28-22.29-70.28-59.7s32.87-58.56,84.26-58.56c68.39,0,89.17,35.52,93.7,54.03h-51.01c-3.02-4.16-14.74-17.38-43.07-17.38-23.05,0-35.14,7.93-35.14,19.27,0,10.58,7.93,17.76,27.2,20.02l32.49,3.4c51.76,4.53,72.92,24.56,72.92,61.96s-30.23,60.45-88.41,60.45c-71.03,0-94.08-41.18-97.86-58.94h51.76c1.89,4.53,13.6,21.54,46.1,21.54,26.45,0,39.29-9.07,39.29-21.16s-6.8-19.27-28.34-21.54c-13.6-1.13-20.4-1.89-33.63-3.4Z"/>
  <path class="cls-1" d="M2488.13,867.32h-47.98v-278.09h47.98v119.02c7.18-13.6,28.72-36.27,63.48-36.27,47.98,0,79.72,35.14,79.72,83.88v111.46h-48.74v-102.02c0-30.23-18.14-50.25-46.47-50.25s-47.99,20.78-47.99,50.25v102.02Z"/>
  <path class="cls-1" d="M2769.99,870.72c-49.87,0-91.06-37.41-91.06-99.37s41.18-99.37,91.06-99.37c41.18,0,61.59,25.69,65.37,33.25v-29.09h48.36v187.03c0,52.52-33.63,89.17-102.77,89.17-73.68,0-97.48-45.72-100.5-59.7h55.54c2.65,3.78,13.98,19.65,44.96,19.65,34.76,0,54.79-18.14,54.79-49.87v-26.45c-4.16,8.31-24.18,34.76-65.74,34.76ZM2782.46,714.3c-33.25,0-54.41,24.56-54.41,57.05s21.16,57.05,54.41,57.05,53.65-25.31,53.65-57.05-21.16-57.05-53.65-57.05Z"/>
  <path class="cls-1" d="M2994.04,867.32h-47.98v-191.19h47.98v32.12c4.91-10.96,19.65-33.25,61.97-33.25h44.58v47.99h-51.01c-40.81,0-55.54,13.6-55.54,43.83v100.5Z"/>
  <path class="cls-1" d="M3219.23,871.47c-49.12,0-89.93-37.03-89.93-99.75s40.81-99.75,90.3-99.75c40.43,0,59.7,24.94,63.85,32.87v-28.72h48.36v191.19h-47.99v-30.23c-3.78,7.93-22.67,34.38-64.61,34.38ZM3232.07,714.3c-32.49,0-53.65,24.94-53.65,57.43s21.16,57.43,53.65,57.43,52.14-24.94,52.14-57.43-20.78-57.43-52.14-57.43Z"/>
  <path class="cls-1" d="M3441.77,947.42h-47.61v-271.29h47.98v30.23c3.4-7.18,24.18-34.38,65.74-34.38,49.87,0,90.68,37.41,90.68,99.75s-40.81,99.75-90.68,99.75c-41.56,0-62.34-25.69-66.12-33.25v109.2ZM3495.42,829.16c33.25,0,54.41-24.94,54.41-57.43s-21.16-57.43-54.41-57.43-54.03,24.56-54.03,57.43,21.16,57.43,54.03,57.43Z"/>
  <path class="cls-1" d="M3696.8,867.32h-47.98v-278.09h47.98v119.02c7.18-13.6,28.72-36.27,63.48-36.27,47.98,0,79.72,35.14,79.72,83.88v111.46h-48.74v-102.02c0-30.23-18.14-50.25-46.47-50.25s-47.99,20.78-47.99,50.25v102.02Z"/>
  <path class="cls-1" d="M1757.11,1113.41h-63.05l-9.89,22.94h-31.9l58.01-132.63h32.46l57.83,132.63h-33.58l-9.89-22.94ZM1745.73,1086.92l-20.15-46.82-20.15,46.82h40.29Z"/>
  <path class="cls-1" d="M1917.34,1039.35c0,7.28,6.34,11.38,17.91,12.68,7.28.75,12.68,1.12,20.89,1.87,30.22,2.61,50.18,13.62,50.18,42.16,0,25.93-20.15,42.72-58.76,42.72-45.33,0-62.12-22.76-66.41-41.6h33.39c2.8,7.09,12.5,16.04,33.02,16.04,17.54,0,25.93-5.97,25.93-14.92,0-9.89-7.46-13.25-19.21-14.55-7.84-.93-13.43-1.31-21.08-2.05-29.1-2.8-48.31-16.23-48.31-41.04s22.94-39.17,55.59-39.17c43.46,0,58.76,20.52,62.68,37.49h-31.9c-2.98-5.04-12.12-12.12-30.78-12.12-14.74,0-23.13,4.66-23.13,12.5Z"/>
  <path class="cls-1" d="M2131.3,1039.35c0,7.28,6.34,11.38,17.91,12.68,7.28.75,12.68,1.12,20.89,1.87,30.22,2.61,50.18,13.62,50.18,42.16,0,25.93-20.15,42.72-58.76,42.72-45.33,0-62.12-22.76-66.41-41.6h33.39c2.8,7.09,12.5,16.04,33.02,16.04,17.54,0,25.93-5.97,25.93-14.92,0-9.89-7.46-13.25-19.21-14.55-7.84-.93-13.43-1.31-21.08-2.05-29.1-2.8-48.31-16.23-48.31-41.04s22.94-39.17,55.59-39.17c43.46,0,58.76,20.52,62.68,37.49h-31.9c-2.98-5.04-12.12-12.12-30.78-12.12-14.74,0-23.13,4.66-23.13,12.5Z"/>
  <path class="cls-1" d="M2312.24,1070.13c0-40.67,30.59-68.46,70.33-68.46s70.14,27.8,70.14,68.46-30.59,68.46-70.14,68.46-70.33-27.98-70.33-68.46ZM2420.43,1070.13c0-22.2-14.55-40.11-37.87-40.11s-38.05,17.72-38.05,40.11,14.74,40.11,38.05,40.11,37.87-17.72,37.87-40.11Z"/>
  <path class="cls-1" d="M2544.85,1070.13c0-39.36,28.17-68.46,67.9-68.46,43.09,0,59.51,29.66,62.68,44.77h-32.27c-2.99-5.22-12.13-16.23-30.41-16.23-22.01,0-35.44,18.09-35.44,39.92s13.43,39.92,35.44,39.92c19.59,0,27.8-11.19,30.59-16.23h32.09c-2.61,13.24-18.09,44.77-62.68,44.77-39.73,0-67.9-29.1-67.9-68.46Z"/>
  <path class="cls-1" d="M2773.17,1003.91h31.71v132.44h-31.71v-132.44Z"/>
  <path class="cls-1" d="M3002.24,1113.41h-63.05l-9.89,22.94h-31.9l58.01-132.63h32.46l57.83,132.63h-33.58l-9.89-22.94ZM2990.86,1086.92l-20.15-46.82-20.15,46.82h40.29Z"/>
  <path class="cls-1" d="M3112.29,1003.91h131.88v27.61h-50.18v104.84h-31.53v-104.84h-50.18v-27.61Z"/>
  <path class="cls-1" d="M3339.87,1003.91h31.71v132.44h-31.71v-132.44Z"/>
  <path class="cls-1" d="M3470.44,1070.13c0-40.67,30.59-68.46,70.33-68.46s70.14,27.8,70.14,68.46-30.59,68.46-70.14,68.46-70.33-27.98-70.33-68.46ZM3578.63,1070.13c0-22.2-14.55-40.11-37.87-40.11s-38.05,17.72-38.05,40.11,14.74,40.11,38.05,40.11,37.87-17.72,37.87-40.11Z"/>
  <path class="cls-1" d="M3838.29,1136.73h-25.74l-72.19-91.59v91.22h-30.97v-132.44h36l62.68,81.14v-81.14h30.22v132.82Z"/>
</svg>