<svg width="278" height="43" viewBox="0 0 278 43" fill="none" xmlns="http://www.w3.org/2000/svg">
<path d="M75.3352 38.5695V41.8263H69.7467C63.4459 41.8263 60.5421 38.8503 60.5421 32.6736V17.962H52.0498V14.7614H60.5421V1.95898H63.9938V14.7614H75.3352V17.962H63.9938V32.1121C63.9938 36.4919 65.5279 38.5695 70.2946 38.5695H75.3352ZM95.2784 42.5001C87.7175 42.5001 83.17 37.5026 83.17 30.3714V14.7614H86.6217V29.8661C86.6217 35.4812 89.7447 39.131 95.2236 39.131C100.703 39.131 103.88 35.4812 103.88 29.8661V14.7614H107.332V30.3714C107.332 37.5026 102.675 42.5001 95.2784 42.5001ZM121.303 27.1147V41.8263H117.852V14.7614H121.303V20.4888C122.399 17.6813 125.632 14.0876 130.782 14.0876C137.576 14.0876 142.287 19.2535 142.287 26.497V41.8263H138.836V27.1147C138.836 21.1627 135.274 17.4005 130.069 17.4005C125.084 17.4005 121.303 21.275 121.303 27.1147ZM164.039 14.0876C171.874 14.0876 177.243 20.0958 177.352 28.2377H154.286V28.2938C154.286 34.1336 158.286 39.1872 164.532 39.1872C170.613 39.1872 172.915 35.8181 173.682 34.5828H177.024C176.421 36.885 172.969 42.5001 164.532 42.5001C156.368 42.5001 150.78 36.0988 150.78 28.2938C150.78 20.3204 156.259 14.0876 164.039 14.0876ZM164.039 17.1759C158.889 17.1759 155.492 20.4888 154.505 25.2055H173.572C172.531 20.4327 169.134 17.1759 164.039 17.1759Z" fill="#FF0057"/>
<path d="M184.476 41.8272V30.8216H194.721V41.8272H184.476ZM222.938 20.209H213.569V41.8272H204.638V20.209H197.296V12.7409H204.638V8.81036C204.638 3.70061 207.542 0.5 213.459 0.5H226.389V7.35043H217.185C214.555 7.35043 213.569 8.52961 213.569 10.9441V12.7409H222.938V20.209ZM237.128 26.498V41.8272H228.252V12.7409H237.128V17.1207C238.169 15.2677 241.237 12.1233 246.168 12.1233C250.88 12.1233 254.386 14.4255 256.195 18.1876C257.509 15.7169 260.578 12.1233 266.495 12.1233C273.563 12.1233 278.001 17.2892 278.001 24.645V41.8272H269.07V26.498C269.07 22.6235 266.878 20.209 263.372 20.209C259.865 20.209 257.564 22.6797 257.564 26.498V41.8272H248.634V26.498C248.634 22.6235 246.442 20.209 242.936 20.209C239.429 20.209 237.128 22.6797 237.128 26.498Z" fill="#FF0057"/>
<path d="M19.7241 41.378C8.83077 41.378 0 32.3277 0 21.1636C0 9.99951 8.83077 0.949219 19.7241 0.949219C30.6174 0.949219 39.4482 9.99951 39.4482 21.1636C39.4482 32.3277 30.6174 41.378 19.7241 41.378ZM33.3129 21.3875C33.3129 13.3266 27.2088 6.75852 19.6514 6.75852C12.094 6.75852 5.98989 13.3266 5.98989 21.3875C5.98989 26.9107 8.8966 31.7622 13.184 34.2252C14.274 35.0462 15.5094 35.3448 16.454 34.897C18.1981 34.0759 18.4887 31.0904 17.1807 28.4035C15.8727 25.6419 13.4747 24.1491 11.7306 24.9701C11.3673 25.1941 11.004 25.4926 10.786 25.8658C10.1319 24.7462 9.76861 23.4774 9.76861 22.0593C9.76861 17.2824 14.2013 13.4759 19.6514 13.4759C25.1015 13.4759 29.5342 17.3571 29.5342 22.0593C29.5342 23.4774 29.0982 24.8209 28.4442 26.0151C28.1535 25.4926 27.7902 25.1194 27.3542 24.8955C25.6102 24.0745 23.2121 25.6419 21.9768 28.4035C20.7414 31.1651 21.1048 34.0759 22.8488 34.897C23.7208 35.3448 24.8108 35.1209 25.8282 34.3745C30.2609 31.9861 33.3129 27.06 33.3129 21.3875Z" fill="#FF0057"/>
</svg>
