<?xml version="1.0" encoding="UTF-8"?> <svg xmlns="http://www.w3.org/2000/svg" width="400" height="400" viewBox="0 0 400 400" fill="none"><rect width="400" height="400" rx="200" fill="white"></rect><path d="M117.8 200L84.2 233.6L50 200L84.2 165.8L117.8 200ZM200 117.8L258.2 176L292.4 141.8L200 50L108.2 141.8L142.4 176L200 117.8ZM315.8 165.8L282.2 200L316.4 234.2L350 200L315.8 165.8ZM200 282.2L141.8 224L107.6 258.2L200 350L291.8 258.2L258.2 224L200 282.2ZM200 233.6L234.2 199.4L200 165.8L165.8 200L200 233.6Z" fill="#F0B90B"></path></svg> 