<?xml version="1.0" encoding="UTF-8"?> <svg xmlns="http://www.w3.org/2000/svg" width="400" height="400" viewBox="0 0 400 400" fill="none"><rect width="400" height="400" rx="200" fill="white"></rect><path d="M326.112 100C296.992 100 268.203 107.338 242.838 121.235C229.253 128.674 216.709 137.901 205.563 148.679C202.94 151.202 200.372 153.843 197.915 156.54C189.696 165.566 182.407 175.472 176.286 185.975C174.114 189.745 171.703 193.423 169.126 196.936C168.785 197.395 168.463 197.854 168.095 198.303C145.555 228.032 111.217 245.074 73.8867 245.074V300C103.007 300 131.796 292.662 157.161 278.775C170.718 271.354 183.263 262.108 194.436 251.33C197.059 248.798 199.627 246.157 202.093 243.469C210.321 234.434 217.583 224.546 223.704 214.034L224.109 213.355C226.179 209.815 228.462 206.366 230.864 203.082C231.205 202.633 231.545 202.165 231.904 201.688C254.435 171.968 288.782 154.917 326.112 154.917V100Z" fill="#2954FE"></path><path d="M326.112 245.092C288.782 245.092 254.435 228.041 231.886 198.312C231.554 197.863 231.205 197.413 230.864 196.927C228.296 193.441 225.885 189.754 223.713 185.975C217.592 175.481 210.312 165.584 202.084 156.549C199.627 153.871 197.059 151.229 194.436 148.697C183.29 137.919 170.755 128.683 157.161 121.253C131.796 107.365 103.007 100.027 73.8867 100.027V154.953C111.217 154.953 145.565 171.996 168.114 201.724C168.463 202.174 168.795 202.642 169.135 203.091C171.556 206.384 173.838 209.842 175.881 213.346L176.314 214.061C182.425 224.546 189.696 234.434 197.915 243.478C200.363 246.157 202.94 248.798 205.563 251.33C216.727 262.108 229.272 271.354 242.838 278.774C268.203 292.662 296.992 300 326.112 300V245.092Z" fill="#2954FE"></path></svg> 