<?xml version="1.0" encoding="UTF-8"?> <svg xmlns="http://www.w3.org/2000/svg" width="400" height="400" viewBox="0 0 400 400" fill="none"><rect width="400" height="400" rx="200" fill="white"></rect><path d="M246.608 57.3771C200.798 42.4151 152.183 50.8312 114.787 77.0149C112.917 75.1446 110.113 74.2095 107.308 73.2744C93.2843 68.5987 77.391 76.0798 72.7165 91.0418C69.9117 99.458 71.7816 108.809 76.4561 115.355C68.9769 126.577 62.4325 139.669 57.758 153.696C32.5157 230.376 72.7164 312.668 148.444 340.722C150.313 341.657 152.183 341.657 154.053 342.592C192.384 354.749 232.585 351.943 268.111 334.176C273.72 331.37 279.33 327.63 284.939 323.889L298.963 337.916C299.898 338.851 301.768 338.851 301.768 336.981L315.791 295.835C327.945 281.809 336.359 264.976 342.903 247.209C367.211 166.787 325.14 83.5608 246.608 57.3771ZM329.815 241.598C325.14 256.56 317.661 270.587 308.312 282.744L263.437 297.706C261.567 298.641 261.567 299.576 262.502 300.511L274.655 312.668C269.981 315.473 266.241 318.279 261.567 320.149C228.845 336.981 192.384 339.787 157.793 328.565C85.8051 305.187 46.5392 228.506 69.9118 156.501C73.6514 144.344 79.2608 133.123 86.74 122.836C87.6749 123.771 89.5447 123.771 90.4796 124.707C104.503 129.382 120.396 121.901 125.071 106.939C127.876 99.458 126.941 91.977 123.201 86.3662C156.858 62.9879 200.798 55.5069 242.869 68.5987C244.739 69.5338 246.608 69.5338 247.543 70.469C316.726 96.6526 352.252 171.463 329.815 241.598Z" fill="#0046E1"></path><path d="M221.366 217.285C231.65 206.999 238.194 197.647 242.869 191.101C246.608 184.555 248.478 177.074 248.478 169.593C248.478 155.566 243.803 145.28 234.454 136.864C225.105 128.448 213.887 124.707 201.733 124.707C189.579 124.707 179.295 127.512 170.881 133.123C162.467 138.734 154.988 146.215 148.443 157.437L174.621 172.399C183.035 159.307 191.449 152.761 200.798 152.761C205.472 152.761 210.147 154.631 212.952 157.437C215.756 161.177 217.626 164.918 217.626 169.593C217.626 174.269 215.756 179.88 212.017 184.555C208.277 190.166 202.668 196.712 193.319 205.128L150.313 249.079V273.393H252.218V244.404H195.188L221.366 217.285Z" fill="#0046E1"></path></svg> 