<?xml version="1.0" encoding="UTF-8"?> <svg xmlns="http://www.w3.org/2000/svg" width="400" height="400" viewBox="0 0 400 400" fill="none"><rect width="400" height="400" rx="200" fill="white"></rect><g clip-path="url(#clip0_2890_9336)"><path d="M278.533 196.012C289.474 182.144 295.414 164.975 295.385 147.297C295.385 103.809 260.221 70 216.838 70H121.457V79.8356H214.724C253.065 79.8356 284.147 109.583 284.147 148C284.171 162.935 279.377 177.478 270.481 189.461L278.533 196.012Z" fill="black"></path><path d="M267.895 187.869C278.334 177.237 284.175 162.914 284.157 148C284.157 132.904 278.173 118.427 267.521 107.753C256.869 97.0779 242.422 91.0796 227.357 91.0771H146.704V100.922H229.453C235.533 100.918 241.554 102.115 247.173 104.444C252.791 106.773 257.897 110.188 262.197 114.495C266.498 118.802 269.91 123.915 272.237 129.543C274.565 135.171 275.763 141.204 275.763 147.296C275.771 154.061 274.298 160.745 271.449 166.877C268.599 173.01 264.442 178.441 259.27 182.79L267.895 187.869Z" fill="black"></path><path d="M252.335 180.449C265.605 174.638 275.763 161.981 275.763 147.297C275.763 127.117 256.629 110.758 236.489 110.758H166.336V116.374H235.769C252.391 116.374 268.726 129.911 268.726 146.593C268.726 160.112 258.033 171.576 245.114 175.415L252.335 180.449Z" fill="black"></path><path d="M93.4033 320.164H108.834V330H93.4033V320.164Z" fill="black"></path><path d="M108.834 300.484H170.547V307.507H108.834V300.484Z" fill="black"></path><path d="M108.834 256.923H174.758V262.548H108.834V256.923Z" fill="black"></path><path d="M187.381 256.923H229.462V262.548H187.381V256.923Z" fill="black"></path><path d="M121.457 237.242H143.896V242.868H121.457V237.242Z" fill="black"></path><path d="M156.521 237.242H229.453V242.868H156.521V237.242Z" fill="black"></path><path d="M180.363 148.703H228.049V154.329H180.363V148.703Z" fill="black"></path><path d="M124.265 110.758H150.915V116.383H124.265V110.758Z" fill="black"></path><path d="M131.273 131.836H229.453V137.462H131.273V131.836Z" fill="black"></path><path d="M106.027 148.703H166.337V154.329H106.027V148.703Z" fill="black"></path><path d="M122.861 318.758V328.594H229.453C272.854 328.594 308 294.766 308 251.297C308 230.424 299.725 210.405 284.994 195.645C270.264 180.886 250.285 172.594 229.453 172.594H160.731V181.032H227.357C245.77 181.035 263.428 188.365 276.447 201.412C289.467 214.459 296.781 232.153 296.781 250.603C296.781 289.029 265.698 318.767 227.357 318.767L122.861 318.758Z" fill="black"></path><path d="M139.686 193.671V203.516H242.076C248.154 203.515 254.174 204.713 259.79 207.043C265.406 209.373 270.51 212.789 274.808 217.095C279.107 221.402 282.517 226.514 284.843 232.141C287.17 237.768 288.367 243.799 288.367 249.89C288.367 262.192 283.49 273.99 274.809 282.688C266.127 291.387 254.353 296.274 242.076 296.274H181.766V307.516H239.943C247.402 307.516 254.789 306.043 261.681 303.183C268.573 300.322 274.835 296.129 280.11 290.843C285.384 285.557 289.568 279.282 292.422 272.376C295.276 265.47 296.744 258.068 296.743 250.593C296.743 235.498 290.759 221.021 280.107 210.346C269.455 199.672 255.008 193.673 239.943 193.671H139.686Z" fill="black"></path><path d="M169.144 214.758V220.374H248.392C265.014 220.374 281.35 233.911 281.35 250.593C281.35 267.248 265.051 280.813 248.392 280.813H92V287.835H249.094C269.234 287.835 288.368 271.477 288.368 251.297C288.368 231.117 269.234 214.758 249.094 214.758H169.144Z" fill="black"></path></g><defs><clipPath id="clip0_2890_9336"><rect width="216" height="260" fill="white" transform="translate(92 70)"></rect></clipPath></defs></svg> 