<?xml version="1.0" encoding="UTF-8"?> <svg xmlns="http://www.w3.org/2000/svg" width="400" height="400" viewBox="0 0 400 400" fill="none"><rect width="400" height="400" rx="200" fill="white"></rect><path d="M200 227.905C200 227.905 213.374 240.364 227.418 253.236L229.527 255.169C236.567 261.61 243.614 268.005 249.082 272.847C253.528 276.783 259.027 281.468 264.721 286.237L266.864 288.028C282.262 300.875 298.293 313.734 298.293 313.734C291.826 319.988 284.578 325.381 276.728 329.778C269.914 333.728 262.805 337.145 255.465 340C255.465 340 248.128 336.012 240.35 331.616L238.478 330.555C234.731 328.424 231.01 326.265 228.078 324.473C218.762 318.854 204.756 308.545 200.944 305.714L200.406 305.314C200.113 305.096 199.957 304.978 199.957 304.978C199.957 304.978 191.111 311.58 182.126 317.741L180.33 318.966C180.032 319.168 179.733 319.369 179.436 319.57L177.663 320.753C175.612 322.111 173.633 323.381 171.836 324.473C168.903 326.265 165.182 328.424 161.436 330.555L159.564 331.616C151.786 336.012 144.449 340 144.449 340C137.107 337.13 129.999 333.698 123.185 329.735L123.272 329.951C115.423 325.553 108.174 320.16 101.707 313.906C101.707 313.906 114.911 303.276 128.866 291.674L131.017 289.882C138.196 283.895 145.404 277.782 150.961 272.847C156.976 267.505 164.896 260.296 172.613 253.217L174.711 251.291C187.946 239.133 200 227.905 200 227.905ZM86.3093 101.879C86.3093 101.879 112.144 134.14 127.197 151.091C132.538 157.105 139.747 165.026 146.826 172.743L148.752 174.84C160.91 188.075 172.138 200.129 172.138 200.129C172.138 200.129 159.679 213.504 146.807 227.547L144.875 229.657C138.433 236.696 132.038 243.744 127.197 249.211C123.26 253.657 118.575 259.157 113.806 264.851L112.015 266.994C99.7658 281.676 87.5055 296.933 86.3915 298.32L86.3093 298.423C80.0556 291.955 74.6629 284.706 70.2649 276.858C66.3021 270.044 62.8703 262.935 60 255.595C60 255.595 63.9876 248.257 68.3842 240.479L69.4454 238.607C71.5762 234.861 73.7352 231.14 75.5268 228.207C81.146 218.891 91.455 204.885 94.2857 201.074L94.6862 200.535C94.9042 200.243 95.0216 200.086 95.0216 200.086C95.0216 200.086 88.42 191.218 82.2586 182.237L81.0343 180.442C80.8319 180.143 80.6305 179.845 80.4304 179.548L79.2472 177.777C77.8894 175.73 76.6194 173.755 75.5268 171.965C73.7352 169.033 71.5762 165.312 69.4454 161.565L68.3842 159.694C63.9876 151.915 60 144.578 60 144.578C62.855 137.238 66.2724 130.129 70.2218 123.315L70.2649 123.444C74.6629 115.595 80.0556 108.347 86.3093 101.879ZM313.734 101.75C319.988 108.218 325.38 115.466 329.778 123.315C333.727 130.129 337.145 137.238 340 144.578C340 144.578 336.012 151.915 331.616 159.694L330.555 161.565C328.424 165.312 326.265 169.033 324.473 171.965C318.854 181.282 308.545 195.287 305.714 199.099L305.314 199.637C305.096 199.93 304.978 200.086 304.978 200.086C304.978 200.086 311.58 208.932 317.741 217.917L318.966 219.713C319.168 220.012 319.369 220.31 319.57 220.607L320.753 222.38C322.111 224.431 323.381 226.41 324.473 228.207C326.265 231.14 328.424 234.861 330.555 238.607L331.616 240.479C336.012 248.257 340 255.595 340 255.595C337.13 262.936 333.698 270.044 329.735 276.858C325.338 284.707 319.946 291.956 313.691 298.423C313.691 298.423 303.598 285.937 292.39 272.402L290.612 270.258C284.367 262.735 277.926 255.076 272.803 249.211C269.024 244.885 264.258 239.587 259.249 234.091L257.361 232.022C257.045 231.676 256.728 231.33 256.411 230.983L253.551 227.865L251.647 225.794C239.302 212.383 227.733 200.086 227.733 200.086C227.733 200.086 239.269 187.756 251.62 174.341L253.525 172.27L257.339 168.113C263.038 161.89 268.558 155.804 272.847 150.961C276.783 146.515 281.468 141.016 286.237 135.322L288.028 133.179C300.875 117.781 313.734 101.75 313.734 101.75ZM255.508 60C262.848 62.8561 269.957 66.2735 276.771 70.2218L276.685 70.2649C284.534 74.6633 291.782 80.0559 298.25 86.3093L298.148 86.3913C296.897 87.395 284.366 97.462 271.14 108.421L268.991 110.204C268.633 110.502 268.274 110.801 267.915 111.099L265.767 112.892C259.693 117.969 253.775 123.002 249.039 127.197C244.105 131.567 237.899 137.187 231.576 142.964L228.41 145.86C213.989 159.067 199.957 172.138 199.957 172.138C199.957 172.138 186.583 159.679 172.539 146.807L170.429 144.875C163.39 138.433 156.343 132.038 150.875 127.197C146.429 123.26 140.93 118.575 135.235 113.806L133.093 112.015C117.695 99.1683 101.664 86.3093 101.664 86.3093C108.131 80.0545 115.379 74.6617 123.229 70.2649C130.042 66.3018 137.151 62.87 144.492 60C144.492 60 151.829 63.9876 159.607 68.3842L161.479 69.4454C165.225 71.5762 168.946 73.7353 171.879 75.5268C181.195 81.146 195.201 91.455 199.013 94.2857L199.551 94.6862C199.844 94.9042 200 95.0216 200 95.0216C200 95.0216 208.868 88.42 217.849 82.2586L219.644 81.0343C219.943 80.8319 220.241 80.6305 220.538 80.4304L222.309 79.2472C224.356 77.8894 226.331 76.6194 228.121 75.5268C231.054 73.7353 234.775 71.5762 238.521 69.4454L240.393 68.3842C248.171 63.9876 255.508 60 255.508 60Z" fill="black"></path></svg> 