<?xml version="1.0" encoding="UTF-8"?> <svg xmlns="http://www.w3.org/2000/svg" width="400" height="400" viewBox="0 0 400 400" fill="none"><rect width="400" height="400" rx="200" fill="white"></rect><path d="M213.802 320H111V80H209.668C257.621 80 285.562 106.292 285.562 147.418C285.562 174.039 267.617 191.243 255.197 196.971C270.022 203.709 289 218.874 289 250.912C289 295.729 257.621 320 213.802 320ZM205.872 121.805H158.953V177.087H205.872C226.223 177.087 237.609 165.961 237.609 149.437C237.609 132.931 226.223 121.805 205.872 121.805ZM208.973 219.223H158.953V278.213H208.973C230.713 278.213 241.047 264.737 241.047 248.544C241.047 232.369 230.694 219.223 208.973 219.223Z" fill="#15192A"></path></svg> 