<?xml version="1.0" encoding="UTF-8"?> <svg xmlns="http://www.w3.org/2000/svg" width="400" height="400" viewBox="0 0 400 400" fill="none"><rect width="400" height="400" rx="200" fill="white"></rect><path fill-rule="evenodd" clip-rule="evenodd" d="M70.7402 125V274.993L200.014 350L329.26 274.993V125L200.014 50L70.7402 125ZM82.1186 268.416V131.605L200.014 63.1662L317.918 131.605V268.416L200.014 336.827L82.1186 268.416Z" fill="#012E74"></path><path fill-rule="evenodd" clip-rule="evenodd" d="M250.664 114.756H149.088L137.312 166.801H262.907L250.664 114.756Z" fill="#012E74"></path><path fill-rule="evenodd" clip-rule="evenodd" d="M167.11 238.425V203.842L137.023 184.62L102.973 210.055L149.387 291.167H167.925L189.853 270.656V260.347L167.11 238.425Z" fill="#012E74"></path><path fill-rule="evenodd" clip-rule="evenodd" d="M232.998 174.655H167.223L178.304 203.731L174.929 236.311H199.997L225.306 236.197L222.152 203.731L232.998 174.655Z" fill="#012E74"></path><path fill-rule="evenodd" clip-rule="evenodd" d="M263.086 184.384L233.347 203.841V238.423L210.611 260.345V270.655L232.531 290.938H250.836L297.023 210.053L263.086 184.384Z" fill="#012E74"></path></svg> 