<?xml version="1.0" encoding="UTF-8"?> <svg xmlns="http://www.w3.org/2000/svg" width="400" height="400" viewBox="0 0 400 400" fill="none"><rect width="400" height="400" rx="200" fill="white"></rect><path fill-rule="evenodd" clip-rule="evenodd" d="M251.643 140C254.917 142.023 260.155 147.416 264.084 157.529L320.392 145.394C312.535 116.405 291.583 95.6689 264.084 85.0507C255.572 81.7643 240.513 80 227.418 80H132.479C130.515 80 128.551 81.3483 128.551 83.3708L122.658 127.191C122.658 129.214 123.968 131.236 126.587 131.236H220.215C233.31 131.91 243.786 134.607 251.643 140Z" fill="#6E45B7"></path><path fill-rule="evenodd" clip-rule="evenodd" d="M205.162 319.326C238.555 319.326 268.672 310.562 291.589 283.595C309.268 262.696 321.052 229.662 324.326 197.303L263.435 210.786C254.923 248.539 237.9 267.415 202.544 267.415C202.544 267.415 177.008 267.415 165.223 267.415H160.64L153.438 320L205.162 319.326Z" fill="#6E45B7"></path><path fill-rule="evenodd" clip-rule="evenodd" d="M161.293 262.696C162.602 255.28 165.221 235.729 165.876 228.313C165.876 226.291 167.84 224.943 169.804 224.943H202.541C204.506 224.943 205.815 223.594 206.47 221.572L212.363 177.077C212.363 175.055 211.053 173.032 208.435 173.032H119.389C117.425 173.032 116.115 174.381 115.46 176.403L104.33 259.999C103.675 265.392 101.711 270.112 99.0917 274.831L76.1756 313.258C74.8661 315.955 76.1756 319.325 79.4494 319.325H154.09L161.293 262.696Z" fill="#01B5AB"></path></svg> 