<?xml version="1.0" encoding="UTF-8"?> <svg xmlns="http://www.w3.org/2000/svg" width="400" height="400" viewBox="0 0 400 400" fill="none"><rect width="400" height="400" rx="200" fill="white"></rect><path d="M102.364 230.63C99.4413 235.309 97.4906 240.528 96.6286 245.977C95.7666 251.425 96.0109 256.991 97.3469 262.344C98.6828 267.696 101.083 272.724 104.405 277.129C107.726 281.534 111.901 285.225 116.68 287.983C126.342 293.671 137.861 295.313 148.728 292.551C159.596 289.789 168.932 282.848 174.704 273.238L178.174 267.275L165.485 260.011L162.014 265.866C158.136 271.867 152.076 276.127 145.115 277.745C138.153 279.364 130.835 278.214 124.706 274.539C118.573 270.981 114.101 265.136 112.271 258.288C110.441 251.439 111.403 244.144 114.945 238.003L147.481 184.228L143.469 177.181C139.526 169.938 137.059 161.985 136.213 153.782C135.366 145.579 136.156 137.29 138.537 129.395C140.917 121.499 144.841 114.154 150.081 107.786C155.321 101.417 161.774 96.1504 169.064 92.2917C183.779 84.3441 200.99 82.3654 217.125 86.7662C233.261 91.167 247.081 101.609 255.719 115.926L276.651 153.005L285.327 138.802L268.517 108.879C257.964 91.2158 240.993 78.3097 221.148 72.8553C201.303 67.4009 180.118 69.8198 162.014 79.607C153.033 84.3513 145.086 90.8348 138.636 98.6796C132.185 106.524 127.361 115.574 124.444 125.301C121.527 135.028 120.575 145.238 121.644 155.336C122.713 165.434 125.782 175.219 130.671 184.12L102.473 230.739L102.364 230.63Z" fill="#3BAF4A"></path><path d="M261.793 292.646C272.855 292.646 283.484 288.309 291.292 280.612C295.168 276.807 298.247 272.268 300.349 267.261C302.45 262.254 303.533 256.878 303.533 251.448C303.533 246.017 302.45 240.642 300.349 235.634C298.247 230.627 295.168 226.088 291.292 222.284C283.393 214.612 272.806 210.332 261.793 210.358H254.852V224.669H261.793C268.951 224.669 275.892 227.488 280.989 232.475C283.501 234.955 285.495 237.91 286.856 241.167C288.217 244.423 288.918 247.918 288.918 251.448C288.918 254.977 288.217 258.472 286.856 261.729C285.495 264.985 283.501 267.94 280.989 270.42C275.892 275.408 269.059 278.226 261.793 278.226H197.154L193.358 284.731C186.803 295.553 177.181 304.185 165.711 309.532C154.242 314.878 141.442 316.699 128.936 314.763C116.477 312.897 104.837 307.427 95.4519 299.028C86.0663 290.628 79.3454 279.666 76.1181 267.493C74.0515 259.445 73.6299 251.062 74.8784 242.847C76.127 234.632 79.02 226.753 83.3845 219.682L105.509 183.254L88.5904 182.929L70.8038 212.201C65.3797 220.905 61.7605 230.61 60.161 240.739C58.5616 250.868 59.0146 261.215 61.493 271.166C63.9715 281.117 68.4249 290.468 74.5889 298.665C80.7529 306.862 88.5017 313.737 97.3752 318.882C115.279 329.47 136.611 332.653 156.828 327.752C177.045 322.852 194.549 310.256 205.613 292.646H261.793Z" fill="#3BAF4A"></path><path d="M263.094 173.713L236.523 126.66C233.914 121.704 230.331 117.325 225.989 113.786C221.647 110.247 216.635 107.619 211.253 106.061C203.149 103.666 194.517 103.727 186.448 106.236C178.379 108.744 171.235 113.588 165.919 120.155C160.721 126.737 157.655 134.747 157.132 143.116C156.609 151.485 158.653 159.814 162.991 166.991L166.461 172.954L179.15 165.799L175.68 159.944C172.435 153.687 171.8 146.399 173.913 139.675C176.027 132.951 180.717 127.336 186.959 124.058C193.182 120.685 200.456 119.805 207.304 121.597C214.153 123.389 220.062 127.719 223.834 133.707L254.527 188.024H261.359C278.4 188.038 294.755 194.733 306.91 206.671C312.862 212.523 317.589 219.501 320.815 227.198C324.042 234.895 325.704 243.156 325.704 251.501C325.704 259.847 324.042 268.108 320.815 275.805C317.589 283.502 312.862 290.48 306.91 296.332C294.761 308.28 278.402 314.977 261.359 314.979H217.977L226.22 329.29H261.359C282.168 329.464 302.217 321.486 317.213 307.065C324.556 299.964 330.418 291.479 334.461 282.1C338.504 272.722 340.648 262.635 340.77 252.423C340.891 242.211 338.986 232.077 335.166 222.605C331.347 213.133 325.687 204.512 318.515 197.239C303.862 182.473 284.007 174.028 263.203 173.713H263.094Z" fill="#3BAF4A"></path></svg> 