<?xml version="1.0" encoding="UTF-8"?> <svg xmlns="http://www.w3.org/2000/svg" width="400" height="400" viewBox="0 0 400 400" fill="none"><rect width="400" height="400" rx="200" fill="white"></rect><path d="M200 277.006C179.577 277.006 159.99 268.893 145.549 254.451C131.107 240.01 122.994 220.423 122.994 200C122.994 179.577 131.107 159.99 145.549 145.548C159.99 131.107 179.577 122.994 200 122.994V60C172.311 60 145.243 68.2108 122.22 83.5942C99.1973 98.9776 81.2532 120.843 70.6569 146.424C60.0607 172.006 57.2882 200.155 62.6901 227.313C68.0921 254.47 81.4258 279.416 101.005 298.995C120.584 318.574 145.53 331.908 172.687 337.31C199.845 342.712 227.994 339.939 253.576 329.343C279.157 318.747 301.022 300.803 316.406 277.78C331.789 254.757 340 227.689 340 200H277.006C277.006 220.423 268.893 240.01 254.451 254.451C240.01 268.893 220.423 277.006 200 277.006Z" fill="#0169FF"></path><path d="M277.006 122.996H200V200.002H277.006V122.996Z" fill="#1AE29D"></path></svg> 