<?xml version="1.0" encoding="UTF-8"?> <svg xmlns="http://www.w3.org/2000/svg" width="400" height="400" viewBox="0 0 400 400" fill="none"><rect width="400" height="400" rx="200" fill="white"></rect><path d="M161.613 124.259L148.552 175.283L61.1592 186.918L161.613 124.259Z" fill="#57BAE5"></path><path d="M207.099 237.373L178.819 225.397L185.293 329.999L207.099 237.373Z" fill="#005472"></path><path d="M148.552 175.283L125.554 223.583L61.1592 186.918L148.552 175.283Z" fill="#34AFE4"></path><path d="M178.819 225.398L125.554 223.582L185.292 330L178.819 225.398Z" fill="#0076A7"></path><path d="M148.552 175.283L178.819 225.399L125.554 223.583L148.552 175.283Z" fill="#009DE2"></path><path d="M161.613 124.259L234.129 133.567L148.553 175.283L161.613 124.259Z" fill="#7ACDF2"></path><path d="M313.514 101.103L267.858 155.361L271.095 105.132L313.514 101.103Z" fill="#7ACDF2"></path><path d="M313.515 101.102L338.841 70L333.276 103.543L313.515 101.102Z" fill="#7ACDF2"></path><path d="M288.927 129.31L333.276 103.543L313.515 101.103L288.927 129.31Z" fill="#00ABE7"></path><path d="M207.099 237.374L209.256 175.112L178.819 225.398L207.099 237.374Z" fill="#0076A7"></path><path d="M209.257 175.112L178.819 225.398L148.553 175.283L209.257 175.112Z" fill="#008DBE"></path><path d="M234.129 133.566L209.257 175.112L148.553 175.282L234.129 133.566Z" fill="#57BAE5"></path><path d="M209.255 175.112L207.098 237.374L262.748 295.662L209.255 175.112Z" fill="#00698D"></path><path d="M291.88 263.085L262.465 188.394L262.749 295.663L291.88 263.085Z" fill="#09A1CB"></path><path d="M267.859 155.361L262.464 188.393L209.256 175.112L267.859 155.361Z" fill="#09A1CB"></path><path d="M294.833 200.255L262.465 188.393L267.859 155.361L294.833 200.255Z" fill="#8BDAFF"></path><path d="M306.416 260.984L271.152 203.206H291.254L306.416 260.984Z" fill="#7ACDF2"></path><path d="M240.772 121.308L267.859 155.362L271.096 105.133L240.772 121.308Z" fill="#57BAE5"></path><path d="M262.464 188.393L209.256 175.112L262.748 295.662L262.464 188.393Z" fill="#008DBE"></path><path d="M291.879 263.084L303.633 269.781L262.918 295.662L291.879 263.084Z" fill="#0076A7"></path><path d="M306.417 260.36L262.465 188.394L291.88 263.085L306.417 260.36Z" fill="#57BAE5"></path><path d="M240.772 121.308L209.256 175.112L267.859 155.361L240.772 121.308Z" fill="#7ACDF2"></path></svg> 