<?xml version="1.0" encoding="UTF-8"?> <svg xmlns="http://www.w3.org/2000/svg" width="400" height="400" viewBox="0 0 400 400" fill="none"><rect width="400" height="400" rx="200" fill="white"></rect><path d="M228.806 145.896C229.638 104.687 206.304 68.7781 194.15 60.1479C194.095 60.0923 193.012 59.5097 193.095 61.1192C193.095 61.1468 193.067 61.1468 193.067 61.1746C191.819 139.014 151.807 159.993 130.082 188.52C81.8022 251.956 122.09 324.329 174.282 338.037C175.171 338.26 177.585 338.981 182.163 339.924C184.549 340.425 185.243 338.398 183.494 335.373C177.252 324.523 166.152 306.208 163.961 282.676C158.967 228.035 227.834 193.848 228.806 145.896Z" fill="black"></path><path d="M255.11 172.287C254.694 171.982 254.112 172.009 254.057 172.536C252.947 182.444 242.708 202.979 229.223 222.182C183.828 286.923 206.692 316.282 224.451 336.651C227.724 340.425 229.361 339.593 231.082 336.901C232.691 334.348 235.132 331.101 245.622 326.134C247.258 325.357 286.882 304.323 291.182 256.426C295.317 210.083 265.599 180.778 255.11 172.287Z" fill="#008CD6"></path></svg> 