<?xml version="1.0" encoding="UTF-8"?> <svg xmlns="http://www.w3.org/2000/svg" width="400" height="400" viewBox="0 0 400 400" fill="none"><rect width="400" height="400" rx="200" fill="white"></rect><g clip-path="url(#clip0_2890_8754)"><path d="M199.976 90C120.163 90 55.5 152.694 55.5 230.019V290.013C55.5 301.06 64.7439 310 76.1143 310C87.5005 310 96.7928 301.06 96.7928 290.013V230.019C96.7928 218.958 105.989 210.001 117.423 210.001C128.809 210.001 138.054 218.958 138.054 230.019V290.013C138.054 301.06 147.298 310 158.684 310C170.102 310 179.346 301.06 179.346 290.013V230.019C179.346 218.958 188.591 210.001 199.976 210.001C211.409 210.001 220.654 218.958 220.654 230.019V290.013C220.654 301.06 229.898 310 241.269 310C252.655 310 261.899 301.06 261.899 290.013V230.019C261.899 218.958 271.144 210.001 282.577 210.001C293.963 210.001 303.208 218.958 303.208 230.019V290.013C303.208 301.06 312.452 310 323.87 310C335.256 310 344.5 301.06 344.5 290.013V230.019C344.5 152.694 279.79 90 199.976 90Z" fill="#5741D9"></path></g><defs><clipPath id="clip0_2890_8754"><rect width="289" height="220" fill="white" transform="translate(55.5 90)"></rect></clipPath></defs></svg> 