<?xml version="1.0" encoding="UTF-8"?> <svg xmlns="http://www.w3.org/2000/svg" width="400" height="400" viewBox="0 0 400 400" fill="none"><rect width="400" height="400" rx="200" fill="white"></rect><path d="M155.868 200L232.739 276.972L281.315 228.331C289.829 219.808 303.851 219.808 312.364 228.331C320.877 236.856 320.877 250.897 312.364 259.422L248.264 323.606C239.75 332.131 225.727 332.131 217.214 323.606L125.069 231.09V286.249C125.069 298.283 115.304 308.313 103.035 308.313C90.7654 308.313 81 298.535 81 286.249V114.253C81 101.967 90.7654 92.1891 103.035 92.1891C115.304 92.1891 125.069 101.967 125.069 114.253V168.91L217.465 76.3934C225.978 67.8689 240 67.8689 248.514 76.3934L312.615 140.579C321.128 149.103 321.128 163.144 312.615 171.668C304.101 180.192 290.08 180.192 281.566 171.668L232.989 123.028L155.868 200ZM232.989 177.937C220.72 177.937 210.955 187.715 210.955 200C210.955 212.285 220.72 222.063 232.989 222.063C245.258 222.063 255.024 212.285 255.024 200C254.774 187.715 245.008 177.937 232.989 177.937Z" fill="#00B47D"></path></svg> 