<?xml version="1.0" encoding="UTF-8"?> <svg xmlns="http://www.w3.org/2000/svg" width="400" height="400" viewBox="0 0 400 400" fill="none"><rect width="400" height="400" rx="200" fill="white"></rect><g clip-path="url(#clip0_2890_8819)"><path d="M297.202 216.605C290.372 206.114 290.675 193.228 297.244 183.085C303.986 172.724 307.876 160.405 308.006 147.171C308.265 109.907 277.148 80 240.153 80H122.34C105.571 80 92 93.6692 92 110.56V289.435C92 306.326 105.571 319.995 122.34 319.995H241.838V319.821C278.401 319.821 308.048 289.958 308.048 253.129C308.048 239.634 304.072 227.097 297.244 216.649L297.202 216.605ZM224.291 288.304C209.035 301.233 186.129 299.971 173.466 285.518C161.063 271.325 161.149 251.693 173.077 237.152C178.652 230.361 184.4 223.222 187.815 215.256C193.39 202.37 190.754 185.871 182.24 174.64C178.61 169.895 174.504 165.542 170.917 160.796C160.674 147.258 161.192 128.191 172.083 115.74C183.622 102.506 202.077 98.9802 216.944 107.338C219.969 109.036 222.648 110.995 225.069 113.215H225.026C229.606 117.525 232.978 122.836 234.664 129.41C236.868 137.811 235.96 146.866 232.287 154.702C230.904 157.662 229.131 160.448 227.057 162.973C223.255 167.544 219.279 172.071 215.907 176.947C206.658 190.573 207.436 212.383 217.55 225.442C221.179 230.145 225.199 234.628 228.872 239.285C240.455 253.957 238.295 276.463 224.249 288.347L224.291 288.304Z" fill="#FFDC00"></path></g><defs><clipPath id="clip0_2890_8819"><rect width="216" height="240" fill="white" transform="translate(92 80)"></rect></clipPath></defs></svg> 