<?xml version="1.0" encoding="UTF-8"?> <svg xmlns="http://www.w3.org/2000/svg" width="400" height="400" viewBox="0 0 400 400" fill="none"><rect width="400" height="400" rx="200" fill="white"></rect><path fill-rule="evenodd" clip-rule="evenodd" d="M75.8484 300H258.26C269.101 300 277.351 287.113 271.108 277.752L180.018 119.266C173.364 107.798 160.744 100 146.29 100C131.146 100 117.837 108.715 111.413 121.56L42.1196 241.743C28.0088 266.93 47.2472 300 75.8484 300Z" fill="#0043FF"></path><path fill-rule="evenodd" clip-rule="evenodd" d="M219.483 158.493C208.699 139.915 215.123 116.062 233.709 105.282C252.294 94.5026 276.156 100.925 286.94 119.503L357.381 241.521C368.166 260.099 361.74 283.952 343.155 294.731C324.569 305.512 300.707 299.089 289.923 280.511L219.483 158.493Z" fill="#0043FF"></path></svg> 