<?xml version="1.0" encoding="UTF-8"?> <svg xmlns="http://www.w3.org/2000/svg" width="400" height="400" viewBox="0 0 400 400" fill="none"><rect width="400" height="400" rx="200" fill="white"></rect><path d="M185.553 268.283L183.955 268.807C173.675 272.213 158.472 277.474 144.823 283.74C144.101 284.088 143.62 285.05 143.62 285.05C143.358 285.639 143.051 286.36 142.701 287.168L142.658 287.276C141.127 290.748 139.026 295.965 138.108 298.105L137.407 299.786C137.298 300.047 137.365 300.353 137.583 300.549C137.715 300.681 137.867 300.746 138.043 300.746C138.13 300.746 138.239 300.724 138.348 300.681L139.989 299.895C143.729 298.126 148.454 295.441 153.397 293.083L153.573 292.996C163.001 288.543 173.631 283.499 180.04 280.443C180.04 280.443 181.069 279.898 181.593 278.872L186.383 269.267C186.515 269.026 186.472 268.72 186.296 268.501C186.1 268.283 185.815 268.196 185.553 268.283Z" fill="#00C805"></path><path d="M147.229 253.417C147.907 252.106 151.014 246.125 151.714 244.792L151.845 244.553C172.669 205.367 198.043 168.386 227.245 134.679L228.054 133.74C228.295 133.457 228.339 133.02 228.163 132.692C227.967 132.343 227.595 132.168 227.222 132.212L225.998 132.387C206.837 135.028 187.433 138.674 168.317 143.237C166.413 143.761 165.188 145.005 164.925 145.289C150.619 162.382 137.079 180.371 124.655 198.818C124.043 199.756 123.823 200.979 123.977 201.983C124.108 202.965 127.105 225.997 131.654 243.68C120.369 276.099 110.284 318.821 110.284 318.821C110.197 319.105 110.262 319.388 110.415 319.629C110.591 319.868 110.852 320 111.16 320H117.59C118.005 320 118.355 319.759 118.509 319.388L118.946 318.188C125.509 300.331 132.99 282.691 141.258 265.488C143.16 261.493 147.229 253.417 147.229 253.417Z" fill="#00C805"></path><path d="M236.672 141.687L236.65 140.464C236.628 140.072 236.387 139.744 236.037 139.613C235.687 139.482 235.272 139.591 235.009 139.875L234.2 140.792C200.143 180.109 171.51 223.727 149.111 270.466L148.585 271.559C148.411 271.907 148.476 272.322 148.739 272.606C148.913 272.78 149.154 272.889 149.395 272.889C149.504 272.889 149.635 272.867 149.767 272.824L150.882 272.365C170.023 264.463 189.556 257.608 208.958 251.997C210.117 251.671 211.101 250.841 211.647 249.771C220.156 233.223 239.908 201.176 239.908 201.176C240.412 200.455 240.281 199.385 240.281 199.385C240.281 199.385 236.891 161.073 236.672 141.687Z" fill="#00C805"></path><path d="M280.705 86.4116C275.871 82.2201 268.849 80.2553 257.956 80.0152C248.069 79.7969 236.322 81.9363 223.001 86.3024C221.01 87.001 219.414 88.1144 217.991 89.4897C204.452 102.173 191.284 115.643 178.837 129.527L177.874 130.575C177.613 130.881 177.569 131.317 177.765 131.645C177.963 131.994 178.378 132.169 178.771 132.081L180.171 131.776C200.23 127.497 220.486 124.222 240.369 122.061C241.681 121.908 243.038 122.345 244 123.24C244.985 124.135 245.531 125.423 245.509 126.755C245.181 146.446 245.904 166.225 247.652 185.545L247.762 186.811C247.806 187.204 248.069 187.509 248.462 187.619C248.528 187.641 248.593 187.641 248.68 187.662C248.965 187.662 249.271 187.531 249.469 187.269L250.19 186.243C261.39 170.307 273.574 154.807 286.391 140.137C287.836 138.5 288.208 137.474 288.469 135.989C292.494 110.272 286.282 91.2362 280.705 86.4116Z" fill="#00C805"></path></svg> 