<?xml version="1.0" encoding="UTF-8"?> <svg xmlns="http://www.w3.org/2000/svg" width="400" height="400" viewBox="0 0 400 400" fill="none"><rect width="400" height="400" rx="200" fill="white"></rect><path d="M200 360C288.366 360 360 288.366 360 200C360 111.634 288.366 40 200 40C111.634 40 40 111.634 40 200C40 288.366 111.634 360 200 360Z" fill="#0048FF"></path><mask id="mask0_2890_8840" style="mask-type:alpha" maskUnits="userSpaceOnUse" x="80" y="85" width="240" height="240"><path d="M320 85H80V325H320V85Z" fill="#D9D9D9"></path></mask><g mask="url(#mask0_2890_8840)"><path fill-rule="evenodd" clip-rule="evenodd" d="M172.496 97.1807C170.256 93.0737 165.111 91.5604 161.004 93.8006C156.897 96.0407 155.383 101.186 157.624 105.293L165.984 120.622C164.152 121.87 161.39 123.78 159.691 125.101C154.316 129.307 149.714 134.416 146.093 140.199C145.522 140.199 144.884 140.131 144.211 140.06C143.458 139.981 142.66 139.897 141.862 139.897H141.258C133.687 139.905 126.196 141.446 119.238 144.428C112.28 147.409 105.999 151.769 100.774 157.244C95.5497 162.719 91.4897 169.195 88.8394 176.281C86.1893 183.368 85.004 190.917 85.3553 198.474C85.7118 206.191 87.6733 213.749 91.1148 220.667C94.5562 227.584 99.4021 233.71 105.344 238.653C111.285 243.595 118.192 247.247 125.624 249.375C131.396 251.028 142.006 251.102 146.458 251.051L199.968 316.723L254.361 250.469C255.737 250.608 257.118 250.688 258.501 250.71C273.276 250.618 287.427 244.753 297.93 234.372C308.432 223.989 314.455 209.913 314.707 195.152C314.27 180.427 308.138 166.445 297.602 156.141C287.065 145.838 272.942 140.015 258.2 139.897C256.281 139.847 254.361 139.948 252.458 140.199C248.855 134.494 244.367 129.398 239.162 125.101C237.423 123.695 233.723 121.176 233.723 121.176L233.162 120.895L241.672 105.293C243.912 101.186 242.399 96.0407 238.292 93.8006C234.185 91.5604 229.039 93.0737 226.799 97.1807L217.813 113.656C211.817 111.794 205.565 110.866 199.275 110.91C193.352 110.931 187.458 111.744 181.749 113.325C181.749 113.295 181.609 113.332 181.355 113.423L172.496 97.1807ZM230.574 243.846C207.615 231.678 193.961 207.732 190.85 202.277C190.511 201.683 190.297 201.307 190.21 201.192L188.397 198.173C182.211 187.092 173.892 177.343 163.92 169.487C157.454 164.633 149.645 161.891 141.56 161.637C132.263 161.637 123.348 165.327 116.774 171.896C110.201 178.464 106.507 187.373 106.507 196.662C106.507 205.952 110.201 214.861 116.774 221.429C123.348 227.998 132.263 231.688 141.56 231.688C152.136 231.688 163.316 225.649 174.498 213.873L181.447 206.627L193.837 223.535L189.304 228.064C184.203 233.823 174.292 240.521 169.519 243.594L200.034 281.045L230.574 243.846ZM199.578 129.312C189.015 129.302 182.259 131.932 174.057 138.583C171.337 140.998 169.72 142.614 167.605 144.727C181.721 151.115 189.923 162.429 197.05 172.259C198.009 173.582 198.948 174.877 199.88 176.131C200.52 175.236 201.165 174.321 201.821 173.393C208.91 163.355 217.167 151.663 231.55 145.03C229.546 142.423 227.707 140.586 225.098 138.583C216.872 131.977 210.132 129.353 199.578 129.312ZM242.789 227.461C247.405 229.721 252.456 230.957 257.595 231.085C262.199 231.104 266.761 230.218 271.021 228.475C275.282 226.734 279.156 224.17 282.425 220.932C285.694 217.694 288.293 213.844 290.073 209.601C291.853 205.36 292.78 200.809 292.799 196.209C292.819 191.61 291.932 187.051 290.189 182.794C288.445 178.537 285.88 174.665 282.639 171.398C279.399 168.132 275.545 165.535 271.3 163.757C267.055 161.978 262.501 161.053 257.897 161.033C236.141 160.731 218.615 184.585 211.664 195.757C215.287 201.653 219.433 207.211 224.053 212.363C229.423 218.393 235.754 223.494 242.789 227.461Z" fill="white"></path></g></svg> 