<?xml version="1.0" encoding="UTF-8"?> <svg xmlns="http://www.w3.org/2000/svg" width="400" height="400" viewBox="0 0 400 400" fill="none"><rect width="400" height="400" rx="200" fill="white"></rect><path d="M57.5754 158.787C53.3148 166.666 50.2715 175.757 50.2715 184.848H114.18L140.352 158.787H57.5754Z" fill="black"></path><path d="M167.13 132.728H102.614C83.1368 132.728 66.0946 143.637 56.9648 158.788H140.35L167.13 132.728Z" fill="black"></path><path d="M349.728 80H285.211C255.996 80 232.259 103.636 232.259 132.727H167.742L220.695 80H156.177C126.962 80 103.225 103.636 103.225 132.727V224.242V224.848C103.225 277.575 146.439 320 198.783 320H296.167V132.121L349.728 80ZM227.998 216.969C219.477 208.485 219.477 193.939 227.998 185.455L259.647 216.969C251.126 226.061 237.127 226.061 227.998 216.969Z" fill="black"></path></svg> 