<?xml version="1.0" encoding="UTF-8"?> <svg xmlns="http://www.w3.org/2000/svg" width="400" height="400" viewBox="0 0 400 400" fill="none"><rect width="400" height="400" rx="200" fill="white"></rect><path fill-rule="evenodd" clip-rule="evenodd" d="M230.765 80C219.289 80 207.985 82.4856 200 85.7652C192.015 82.4856 180.711 80 169.235 80C118.663 80 73 127.779 73 193.303C73 264.764 131.453 320 200 320C268.547 320 327 264.764 327 193.303C327 127.779 281.337 80 230.765 80ZM200 118.907C209.748 124.707 222.607 141.484 222.607 160.403C222.607 174.281 213.447 185.224 200 185.224C186.553 185.224 177.393 174.315 177.393 160.403C177.393 141.484 190.252 124.707 200 118.907ZM200 288.792C147.562 288.792 104.214 246.674 104.214 192.681C104.214 143.383 139.853 109.689 167.852 110.932C154.579 124.12 146.559 143.349 146.559 161.991C146.559 193.993 172.001 216.433 200.035 216.433C228.069 216.433 253.51 193.993 253.51 161.991C253.51 143.383 245.456 124.154 232.217 110.932C260.216 109.689 295.855 143.349 295.855 192.681C295.855 246.674 252.473 288.792 200.069 288.792H200Z" fill="black"></path></svg> 