<?xml version="1.0" encoding="UTF-8"?> <svg xmlns="http://www.w3.org/2000/svg" width="400" height="400" viewBox="0 0 400 400" fill="none"><rect width="400" height="400" rx="200" fill="white"></rect><path d="M258.916 90L229.19 119.724L202.781 146.269L200.239 148.825L199.503 149.566L149.708 199.62L187.067 237.31L171.303 253.154L117.599 198.964L180.709 135.693L187.04 129.346L212.361 103.962L198.811 90.4091L169.498 119.806L140.344 90.4091L32.1172 199.62L141.546 310L250.704 200.772L213.174 162.916L229.189 146.908L281.665 199.869L187.15 294.712L200.698 308.174L229.109 279.684L258.835 309.74L367.883 199.952L258.916 90ZM141.659 282.972L58.9687 199.536L140.595 117.839L156.03 133.352L90.6672 198.884L104.131 212.518L157.834 266.707L141.659 282.972ZM223.69 200.689L200.62 223.848L176.639 199.62L199.712 176.463L223.69 200.689ZM258.667 282.391L242.574 266.132L308.681 199.869L295.208 186.318L242.66 133.352L258.835 117.096L340.947 199.951L258.667 282.391Z" fill="url(#paint0_linear_2902_69)"></path><defs><linearGradient id="paint0_linear_2902_69" x1="32.1172" y1="200.001" x2="367.885" y2="200.001" gradientUnits="userSpaceOnUse"><stop stop-color="#00AA9F"></stop><stop offset="1" stop-color="#282B65"></stop></linearGradient></defs></svg> 