<?xml version="1.0" encoding="UTF-8"?> <svg xmlns="http://www.w3.org/2000/svg" width="400" height="400" viewBox="0 0 400 400" fill="none"><rect width="400" height="400" rx="200" fill="white"></rect><path fill-rule="evenodd" clip-rule="evenodd" d="M66.8423 289.505L86.1275 294.482C89.7787 295.412 92.6545 291.042 92.6545 284.741V248.964C92.6545 242.662 89.7928 237.193 86.1416 236.827L66.7577 234.881C63.5435 234.557 61.0342 239.026 61.0342 244.791V277.523C61.0342 283.289 63.6281 288.674 66.8423 289.505Z" fill="#589DD5"></path><path fill-rule="evenodd" clip-rule="evenodd" d="M105.797 299.429L130.227 305.617C134.795 306.787 138.869 301.995 138.869 294.933V254.856C138.869 247.793 134.752 241.633 130.171 241.182L105.938 238.771C101.962 238.376 98.7197 243.282 98.7197 249.682V285.981C98.7338 292.381 101.821 298.414 105.797 299.429Z" fill="#589DD5"></path><path fill-rule="evenodd" clip-rule="evenodd" d="M154.107 311.851L185.079 319.731C190.971 321.239 196.033 315.939 196.033 307.904V262.344C196.033 254.323 191.028 247.26 185.135 246.668L154.135 243.595C149.117 243.102 144.943 248.571 144.943 255.747V296.486C144.957 303.675 149.088 310.568 154.107 311.851Z" fill="#589DD5"></path><path fill-rule="evenodd" clip-rule="evenodd" d="M66.8423 227.3L86.1275 228.823C89.7787 229.105 92.6545 224.185 92.6545 217.884V182.107C92.6545 175.806 89.7928 170.886 86.1416 171.168L66.7577 172.69C63.5435 172.944 61.0342 177.864 61.0342 183.629V216.361C61.0342 222.141 63.6281 227.061 66.8423 227.3Z" fill="#589DD5"></path><path fill-rule="evenodd" clip-rule="evenodd" d="M105.797 230.342L130.227 232.231C134.795 232.583 138.869 227.113 138.869 220.051V179.961C138.869 172.898 134.752 167.414 130.171 167.767L105.938 169.656C101.962 169.966 98.7197 175.45 98.7197 181.835V218.134C98.7338 224.548 101.821 230.032 105.797 230.342Z" fill="black"></path><path fill-rule="evenodd" clip-rule="evenodd" d="M154.107 234.122L185.079 236.532C190.971 236.984 196.033 230.809 196.033 222.788V177.228C196.033 169.207 191.028 163.019 185.135 163.484L154.135 165.894C149.117 166.289 144.943 172.477 144.943 179.638V220.378C144.957 227.553 149.088 233.742 154.107 234.122Z" fill="#589DD5"></path><path fill-rule="evenodd" clip-rule="evenodd" d="M66.8423 165.118L86.1275 163.172C89.7787 162.806 92.6545 157.35 92.6545 151.049V115.272C92.6545 108.971 89.7928 104.587 86.1416 105.517L66.7577 110.493C63.5435 111.325 61.0342 116.696 61.0342 122.461V155.194C61.0342 160.973 63.6281 165.428 66.8423 165.118Z" fill="#589DD5"></path><path fill-rule="evenodd" clip-rule="evenodd" d="M105.797 161.241L130.227 158.831C134.795 158.38 138.869 152.22 138.869 145.157V105.08C138.869 98.0179 134.752 93.225 130.171 94.381L105.938 100.569C101.962 101.584 98.7197 107.632 98.7197 114.032V150.331C98.7338 156.716 101.821 161.636 105.797 161.241Z" fill="#589DD5"></path><path fill-rule="evenodd" clip-rule="evenodd" d="M154.107 156.392L185.079 153.319C190.971 152.727 196.033 145.678 196.033 137.644V92.0831C196.033 84.0621 191.028 78.7476 185.135 80.2559L154.135 88.136C149.117 89.4188 144.943 96.3262 144.943 103.501V144.227C144.957 151.43 149.088 156.9 154.107 156.392Z" fill="#589DD5"></path><path fill-rule="evenodd" clip-rule="evenodd" d="M329.351 242.368C333.933 241.692 338.204 244.835 338.952 249.389V244.807C338.952 239.042 336.456 234.573 333.228 234.897L313.844 236.843C310.193 237.209 307.331 242.665 307.331 248.98V249.614L322.81 247.345C323.952 244.751 326.349 242.792 329.351 242.368Z" fill="black"></path><path fill-rule="evenodd" clip-rule="evenodd" d="M331.804 259.172C328.816 259.609 325.954 258.425 324.121 256.282L307.331 258.749V284.743C307.331 291.044 310.193 295.414 313.859 294.484L333.144 289.507C336.358 288.69 338.966 283.305 338.966 277.54V252.18C338.359 255.718 335.554 258.622 331.804 259.172Z" fill="black"></path><path fill-rule="evenodd" clip-rule="evenodd" d="M301.24 250.5V249.682C301.24 243.282 297.997 238.376 294.022 238.771L269.789 241.182C265.207 241.633 261.091 247.793 261.091 254.856V280.216L299.576 250.74L301.24 250.5Z" fill="black"></path><path fill-rule="evenodd" clip-rule="evenodd" d="M261.106 290.254V294.948C261.106 302.01 265.18 306.803 269.748 305.633L294.179 299.445C298.154 298.43 301.242 292.382 301.242 285.983V260.862L263.531 289.747L261.106 290.254Z" fill="black"></path><path fill-rule="evenodd" clip-rule="evenodd" d="M214.105 303.913C209.509 304.858 205.026 301.883 204.081 297.288C204.025 296.978 203.969 296.653 203.94 296.344V307.916C203.94 315.937 209.001 321.252 214.894 319.744L245.866 311.85C250.885 310.567 255.029 303.673 255.029 296.498V291.494L220.349 298.585C219.349 301.206 217.065 303.307 214.105 303.913Z" fill="black"></path><path fill-rule="evenodd" clip-rule="evenodd" d="M210.709 287.266C213.669 286.661 216.587 287.69 218.547 289.719L255.045 282.262V255.747C255.045 248.571 250.872 243.102 245.839 243.595L214.853 246.668C208.961 247.26 203.956 254.309 203.956 262.344V294.794C204.28 291.171 206.944 288.042 210.709 287.266Z" fill="black"></path><path fill-rule="evenodd" clip-rule="evenodd" d="M330.433 191.565C335.142 191.565 338.92 195.385 338.864 200.079C338.821 204.773 334.973 208.565 330.292 208.565C327.261 208.565 324.625 206.972 323.131 204.59L307.313 204.576V217.911C307.313 224.212 310.176 229.132 313.84 228.85L333.126 227.328C336.34 227.074 338.948 222.154 338.948 216.389V183.657C338.948 177.891 336.453 172.971 333.224 172.717L313.84 171.195C310.19 170.913 307.328 175.818 307.328 182.134V195.54L323.215 195.554C324.738 193.157 327.403 191.565 330.433 191.565Z" fill="black"></path><path fill-rule="evenodd" clip-rule="evenodd" d="M301.24 181.852C301.24 175.466 297.997 169.969 294.022 169.672L269.789 167.784C265.207 167.431 261.091 172.901 261.091 179.977V195.498L301.226 195.526V181.852H301.24Z" fill="black"></path><path fill-rule="evenodd" clip-rule="evenodd" d="M261.106 220.037C261.106 227.1 265.18 232.583 269.748 232.217L294.179 230.328C298.154 230.018 301.242 224.534 301.242 218.134V204.531L261.106 204.503V220.037Z" fill="black"></path><path fill-rule="evenodd" clip-rule="evenodd" d="M212.286 191.466C215.317 191.466 217.981 193.058 219.504 195.455L255.029 195.483V179.638C255.029 172.463 250.856 166.275 245.824 165.894L214.837 163.484C208.945 163.019 203.94 169.207 203.94 177.228V198.584C204.575 194.539 208.057 191.452 212.286 191.466Z" fill="black"></path><path fill-rule="evenodd" clip-rule="evenodd" d="M212.384 208.45C208.127 208.45 204.575 205.292 203.94 201.204V222.786C203.94 230.807 209.001 236.996 214.894 236.53L245.866 234.12C250.885 233.725 255.029 227.537 255.029 220.361V204.503L219.546 204.474C218.066 206.857 215.416 208.45 212.384 208.45Z" fill="black"></path><path fill-rule="evenodd" clip-rule="evenodd" d="M331.734 139.844C335.512 140.366 338.359 143.312 338.952 146.893V122.477C338.952 116.712 336.456 111.327 333.228 110.509L313.844 105.533C310.193 104.603 307.331 108.973 307.331 115.288V140.507L324.079 142.833C325.883 140.648 328.731 139.436 331.734 139.844Z" fill="black"></path><path fill-rule="evenodd" clip-rule="evenodd" d="M329.408 156.672C326.405 156.263 323.994 154.318 322.838 151.752L307.331 149.609V151.047C307.331 157.348 310.193 162.803 313.859 163.17L333.144 165.115C336.358 165.44 338.966 160.971 338.966 155.206V149.581C338.233 154.148 333.989 157.306 329.408 156.672Z" fill="black"></path><path fill-rule="evenodd" clip-rule="evenodd" d="M261.106 119.446V145.144C261.106 152.207 265.18 158.367 269.748 158.818L294.179 161.229C298.154 161.623 301.242 156.704 301.242 150.318V148.753L299.479 148.513L261.106 119.446Z" fill="black"></path><path fill-rule="evenodd" clip-rule="evenodd" d="M301.24 138.521V114.035C301.24 107.635 297.997 101.588 294.022 100.573L269.789 94.3844C265.207 93.2144 261.091 98.0214 261.091 105.084V109.369L263.318 109.806L301.24 138.521Z" fill="black"></path><path fill-rule="evenodd" clip-rule="evenodd" d="M214.048 96.0871C217.022 96.6651 219.32 98.7372 220.335 101.373L255.029 108.182V103.53C255.029 96.355 250.856 89.4476 245.824 88.1648L214.837 80.2848C208.945 78.7764 203.94 84.0768 203.94 92.1119V103.925C203.969 103.558 203.997 103.178 204.081 102.811C204.984 98.1875 209.438 95.1849 214.048 96.0871Z" fill="black"></path><path fill-rule="evenodd" clip-rule="evenodd" d="M210.778 112.748C206.887 111.986 204.166 108.688 203.94 104.924V137.642C203.94 145.663 209.001 152.726 214.894 153.317L245.866 156.391C250.885 156.898 255.029 151.415 255.029 144.239V117.371L218.587 110.224C216.656 112.282 213.752 113.34 210.778 112.748Z" fill="black"></path></svg> 