<?xml version="1.0" encoding="UTF-8"?> <svg xmlns="http://www.w3.org/2000/svg" width="400" height="400" viewBox="0 0 400 400" fill="none"><rect width="400" height="400" rx="200" fill="white"></rect><path d="M64.4375 161.311H89.8058V277.299H64.4375V161.311Z" fill="#37FF92"></path><path d="M39.0693 135.889H64.4376V161.311H39.0693V135.889Z" fill="#37FF92"></path><path d="M159.539 280C191.88 280 214.788 260.194 214.788 221.033C214.788 181.872 191.88 162.066 159.539 162.066C127.199 162.066 104.291 181.872 104.291 221.033C104.291 260.194 127.199 280 159.539 280ZM159.539 258.394C142.92 258.394 132.14 246.015 132.14 221.033C132.14 196.051 142.92 183.673 159.539 183.673C176.159 183.673 186.939 196.051 186.939 221.033C186.939 246.015 176.159 258.394 159.539 258.394Z" fill="#37FF92"></path><path fill-rule="evenodd" clip-rule="evenodd" d="M232.503 120V277.3H360.93V188.322H335.562V147.011H310.193V120H232.503ZM310.193 147.011V188.322H257.871V147.011H310.193ZM335.562 215.333H257.871V251.877H335.562V215.333Z" fill="#37FF92"></path></svg> 