<?xml version="1.0" encoding="UTF-8"?> <svg xmlns="http://www.w3.org/2000/svg" width="400" height="400" viewBox="0 0 400 400" fill="none"><rect width="400" height="400" rx="200" fill="white"></rect><path d="M283.468 172.683C283.468 136.716 270.798 119.047 253.918 106.966L298 60.0715H267.616L116.962 219.787L116.527 227.235C116.527 263.202 129.223 280.877 146.077 292.958L102 339.842H132.389L282.982 180.136L283.468 172.683ZM160.317 277.812C146.813 268.581 138.547 256.291 137.954 230.33L239.765 122.117C253.269 131.342 261.504 143.633 262.102 169.593L160.312 277.817L160.317 277.812ZM218.343 329.972L230.092 310.954C247.407 302.745 269.668 286.741 279.038 256.183C281.985 246.554 283.468 220.732 283.468 208.973V193.316L261.857 216.507C261.857 217.151 261.857 218.551 261.642 219.327C260.916 227.858 258.941 250.559 256.24 256.99C248.588 273.71 234.91 286.961 217.908 294.112C215.99 294.96 214.368 296.365 213.263 298.148L200.138 319.424L186.634 297.423L171.749 313.401L182.01 330.054C185.98 336.251 192.854 340 200.23 340C207.611 340 214.481 336.251 218.45 330.054M181.657 69.9509L169.934 88.9639C152.593 97.035 130.338 113.177 120.987 143.73C118.02 153.364 116.537 179.186 116.537 190.94V206.608L138.143 183.421C138.143 182.777 138.143 181.378 138.332 180.596C139.09 172.065 141.033 149.364 143.867 142.933C151.494 126.224 165.146 112.973 182.118 105.811C184.031 104.963 185.647 103.558 186.737 101.775L199.893 80.4995L213.396 102.506L228.307 86.5222L218.153 69.956C214.184 63.7495 207.309 60 199.934 60C192.552 60 185.683 63.7495 181.714 69.9509" fill="#28EB9B"></path></svg> 