<?xml version="1.0" encoding="UTF-8"?> <svg xmlns="http://www.w3.org/2000/svg" width="400" height="400" viewBox="0 0 400 400" fill="none"><rect width="400" height="400" rx="200" fill="white"></rect><path d="M213.139 336.498C213.2 337.064 213.107 337.636 212.871 338.153C212.636 338.67 212.265 339.114 211.799 339.438C211.333 339.762 210.788 339.953 210.223 339.993C209.657 340.032 209.091 339.918 208.585 339.662L65.3157 297.838C64.0544 297.45 62.9572 296.652 62.1964 295.571C61.4356 294.49 61.0542 293.185 61.1122 291.863V139.681C61.0821 139.16 61.1811 138.639 61.4002 138.166C61.6193 137.692 61.9518 137.281 62.368 136.968C62.7842 136.654 63.2712 136.449 63.7855 136.371C64.2998 136.292 64.8255 136.343 65.3157 136.518L208.585 178.341C209.855 178.763 210.968 179.559 211.78 180.624C212.592 181.69 213.066 182.977 213.139 184.316V336.498ZM166.55 213.487C166.456 212.195 165.969 210.963 165.155 209.957C164.341 208.951 163.238 208.221 161.996 207.864L107 190.643C106.494 190.386 105.929 190.272 105.363 190.311C104.797 190.351 104.253 190.543 103.787 190.866C103.321 191.19 102.95 191.634 102.714 192.151C102.478 192.669 102.386 193.24 102.447 193.806V259.177C102.469 260.531 102.923 261.842 103.742 262.917C104.562 263.993 105.704 264.776 107 265.152L161.996 282.374C162.503 282.63 163.068 282.744 163.634 282.705C164.199 282.665 164.744 282.474 165.21 282.15C165.676 281.826 166.047 281.382 166.283 280.865C166.518 280.348 166.611 279.776 166.55 279.21V213.487Z" fill="#2D519E"></path><path d="M291.255 91.1787L325.934 100.668C328.736 101.371 328.736 103.48 326.284 104.886L224.349 169.203C221.696 170.72 218.584 171.219 215.592 170.609L68.4693 127.73C66.0173 127.028 66.0173 125.27 68.119 123.513L176.009 61.656C178.791 60.1433 182.01 59.6464 185.117 60.2502L209.987 67.9823L212.089 68.6852C215.592 69.3882 215.942 70.794 215.942 71.4969C215.892 71.9821 215.741 72.4514 215.5 72.875C215.259 73.2985 214.932 73.6671 214.541 73.9571L150.087 112.618C147.986 114.024 147.986 116.132 150.438 116.835L206.484 133.002C207.939 133.43 209.465 133.557 210.971 133.376C212.476 133.194 213.929 132.709 215.242 131.948L278.294 93.9903L284.249 91.1787C286.511 90.3451 288.994 90.3451 291.255 91.1787Z" fill="#76C8D4"></path><path d="M298.961 203.294C298.942 201.757 299.36 200.246 300.166 198.939C300.973 197.631 302.134 196.582 303.515 195.914L333.289 176.935C335.741 175.178 338.894 176.935 338.894 180.449V263.745C338.894 267.26 338.894 269.017 333.64 272.883L302.814 295.377C300.012 296.783 298.61 295.728 298.61 292.917V203.294H298.961ZM297.56 140.383V180.801C297.56 183.613 299.311 184.316 301.763 182.91L334.691 162.174C335.908 161.433 336.927 160.406 337.659 159.181C338.392 157.956 338.816 156.571 338.894 155.144V114.375C338.894 111.915 337.143 110.158 334.691 111.563L302.113 133.002C300.876 133.838 299.83 134.928 299.044 136.201C298.259 137.473 297.753 138.899 297.56 140.383Z" fill="#F8B576"></path></svg> 