<?xml version="1.0" encoding="UTF-8"?> <svg xmlns="http://www.w3.org/2000/svg" width="400" height="400" viewBox="0 0 400 400" fill="none"><rect width="400" height="400" rx="200" fill="white"></rect><path d="M199.999 360C287.224 360 357.934 288.366 357.934 199.999C357.934 111.634 287.224 40 199.999 40C112.775 40 42.0654 111.634 42.0654 199.999C42.0654 288.366 112.775 360 199.999 360Z" fill="#F9A61A"></path><path d="M173.591 110.64V231.041C173.591 242.279 177.816 252.445 185.211 259.937C169.365 259.937 156.687 246.56 156.687 231.041V127.228H144.011V230.507C144.011 253.516 162.498 272.245 185.211 272.245C207.923 272.245 226.412 253.516 226.412 230.507V110.64H272.366V231.041C272.366 258.867 252.822 282.412 226.94 288.298C244.371 275.455 255.463 254.586 255.463 231.041V127.763H242.786V231.041C242.786 263.683 216.903 289.904 184.682 289.904C152.462 289.904 126.579 263.683 126.579 231.041V110.64H173.591Z" fill="#FAFAFA"></path></svg> 