<?xml version="1.0" encoding="UTF-8"?> <svg xmlns="http://www.w3.org/2000/svg" width="400" height="400" viewBox="0 0 400 400" fill="none"><rect width="400" height="400" rx="200" fill="white"></rect><g clip-path="url(#clip0_2890_8633)"><path d="M299.97 105.646C309.909 115.342 319.866 125.073 329.684 134.665C307.97 156.227 286.443 177.599 265.363 198.541C287.438 221.101 308.725 242.852 329.839 264.432C319.797 274.644 309.892 284.735 299.18 295.62C294.888 290.97 290.786 286.286 286.392 281.86C264.745 260.039 243.047 238.288 221.314 216.537C216.937 212.146 214.276 207.048 214.053 200.779C213.83 194.201 216.56 188.862 221.091 184.315C246.24 159.086 271.405 133.856 296.571 108.643C297.515 107.696 298.596 106.852 299.97 105.646Z" fill="black"></path><path d="M264.275 70C274.352 79.9714 284.326 89.8395 294.436 99.8453C293.75 100.638 293.184 101.361 292.531 101.998C267.228 127.366 241.908 152.733 216.606 178.118C210.562 184.18 203.524 187.694 194.959 185.368C191.32 184.387 187.509 182.355 184.847 179.72C158.807 153.904 132.989 127.865 107.119 101.878C106.553 101.309 106.089 100.62 105.488 99.8798C115.496 89.9773 125.384 80.178 135.546 70.1206C137.366 71.8427 139.357 73.651 141.246 75.5626C159.699 94.0933 178.119 112.658 196.572 131.172C199.765 134.375 199.834 134.289 203.112 131.017C222.974 111.091 242.818 91.1828 262.696 71.2744C263.194 70.775 263.796 70.3789 264.258 70.0172L264.275 70Z" fill="black"></path><path d="M99.4127 295.191C89.6794 284.995 80.0321 274.903 70.1271 264.518C91.293 243.594 112.871 222.239 134.363 200.988C129.9 196.32 126.261 192.36 122.45 188.553C105.799 171.917 89.0959 155.315 72.4102 138.696C69.2345 135.545 69.2173 135.493 72.2386 132.427C80.135 124.419 88.0658 116.428 96.0138 108.455C97.0952 107.37 98.3141 106.423 99.5157 105.372C106.176 112.02 112.665 118.478 119.154 124.953C138.174 143.932 157.194 162.927 176.198 181.922C177.965 183.679 179.682 185.522 181.209 187.503C187.115 195.183 187.287 204.604 181.553 212.423C179.905 214.679 177.931 216.728 175.957 218.726C150.911 243.921 125.831 269.083 100.752 294.243C100.546 294.45 100.254 294.588 99.4127 295.156V295.191Z" fill="black"></path><path d="M104.833 300.172C130.839 274.322 156.366 248.885 181.978 223.552C184.535 221.021 187.317 218.437 190.475 216.801C198.715 212.496 207.487 213.874 214.318 220.452C225.031 230.786 235.536 241.359 246.111 251.847C262.144 267.778 278.143 283.725 294.434 299.948C293.06 301.515 291.979 302.859 290.777 304.082C282.64 312.296 274.4 320.408 266.35 328.709C264.513 330.603 263.483 330.276 261.852 328.622C241.871 308.387 221.855 288.185 201.839 267.985C201.272 267.416 200.637 266.9 199.933 266.262C191.385 274.666 182.87 282.916 174.476 291.285C161.945 303.806 149.533 316.43 137.002 328.933C136.436 329.5 134.667 329.828 134.273 329.432C124.471 319.822 114.789 310.092 104.815 300.12L104.833 300.172Z" fill="black"></path></g><defs><clipPath id="clip0_2890_8633"><rect width="260" height="260" fill="white" transform="translate(70 70)"></rect></clipPath></defs></svg> 