<?xml version="1.0" encoding="UTF-8"?> <svg xmlns="http://www.w3.org/2000/svg" width="400" height="400" viewBox="0 0 400 400" fill="none"><rect width="400" height="400" rx="200" fill="white"></rect><path d="M329.447 124.487L200.657 50.1365C200.402 50 200.104 49.9643 199.823 50.0365C199.61 50.0589 199.407 50.1372 199.234 50.2636L198.88 50.5361L70.6801 124.687C70.5085 124.782 70.3657 124.921 70.2667 125.091C70.1678 125.26 70.1163 125.453 70.1179 125.65L70 274.542C70.0004 274.736 70.0516 274.928 70.1486 275.097C70.2457 275.266 70.3851 275.406 70.5531 275.504L199.315 349.846C199.484 349.947 199.677 350 199.873 350C200.069 350 200.262 349.947 200.431 349.846L329.193 275.359L329.338 275.277L329.456 275.187C329.59 275.086 329.699 274.956 329.774 274.806C329.85 274.656 329.89 274.491 329.891 274.324L330 125.432C329.995 125.24 329.941 125.053 329.845 124.888C329.748 124.723 329.611 124.585 329.447 124.487ZM86.2222 281.99L209.544 339.463C206.397 342.107 203.069 344.741 199.569 347.384L86.2222 281.99ZM313.823 118.01L190.502 60.5192C193.621 57.8849 196.946 55.2294 200.476 52.5527L313.823 118.01ZM327.724 257.9L315.936 121.898C319.775 123.273 323.731 124.787 327.806 126.44L327.724 257.9ZM126.129 288.185L93.0049 196.812L135.723 288.758C133.003 288.758 130.165 288.612 127.272 288.385L126.129 288.185ZM138.081 288.576L100.25 207.149L146.949 288.313C144.597 288.518 142.179 288.655 139.695 288.721L138.081 288.576ZM154.512 102.086L243.521 109.817L150.476 109.889C151.61 107.373 152.934 104.839 154.33 102.295L154.512 102.086ZM261.91 111.415L299.741 192.842L253.042 111.67C255.653 111.47 258.374 111.364 261.203 111.352L261.91 111.415ZM149.298 287.995L108.003 216.233L157.359 286.968C155.101 287.377 152.771 287.731 150.368 288.013L149.298 287.995ZM250.693 112.033L291.997 183.795L242.578 112.942C244.7 112.551 246.903 112.233 249.179 111.97L250.693 112.033ZM250.557 287.886L168.113 287.995L253.713 280.428C252.861 282.726 251.899 285.079 250.82 287.468L250.557 287.886ZM240.247 113.532L283.899 176.092L233.002 115.231C235.124 114.622 237.327 114.068 239.631 113.587L240.247 113.532ZM260.477 242.576L218.865 262.042L260.423 238.034C260.468 239.415 260.487 240.932 260.477 242.576ZM260.369 230.295C260.287 231.585 260.323 233.265 260.369 235.336L204.865 267.438C204.709 267.46 204.559 267.509 204.421 267.583L201.337 269.4L200.005 270.172L144.147 237.834C144.074 237.766 143.995 237.706 143.911 237.652C142.705 236.926 141.354 236.154 139.894 235.318L139.776 235.245V170.514C139.83 170.379 139.858 170.234 139.858 170.087C139.858 168.543 139.858 167.008 139.858 165.473L196.078 132.971C196.223 132.948 196.364 132.902 196.495 132.835C197.674 132.172 198.935 131.436 200.222 130.673L255.889 162.866C255.986 162.979 256.099 163.077 256.225 163.157C257.539 163.947 258.945 164.764 260.487 165.636V229.986C260.428 230.087 260.388 230.198 260.369 230.313V230.295ZM193.449 273.833L154.847 246.727L197.674 271.499C196.344 272.262 194.936 273.046 193.449 273.851V273.833ZM202.58 129.256C204.031 128.348 205.554 127.439 207.114 126.531L250.448 157.016L202.58 129.256ZM139.885 162.584C139.885 160.768 139.967 158.951 140.039 157.134L187.953 134.706L139.885 162.584ZM137.437 233.901C136.031 233.083 134.544 232.211 132.985 231.257L137.437 180.298V233.901ZM266.943 169.406L262.79 217.05V166.981C264.114 167.72 265.498 168.531 266.943 169.415V169.406ZM191.245 275.014C189.604 275.877 187.863 276.74 186.04 277.603L141.209 239.851L191.245 275.014ZM209.29 125.395C210.886 124.487 212.554 123.579 214.295 122.716L258.773 160.159L209.29 125.395ZM126.048 226.77L136.195 168.997L130.872 229.904C129.318 228.947 127.71 227.89 126.048 226.734V226.77ZM260.423 245.047C260.378 246.863 260.287 248.78 260.133 250.824L205.182 270.917L260.423 245.047ZM273.834 173.803L263.778 230.93L269.037 170.705C270.606 171.668 272.211 172.695 273.852 173.803H273.834ZM140.157 154.663C140.254 152.75 140.384 150.833 140.547 148.913L194.8 129.083L140.157 154.663ZM216.463 121.607C218.276 120.699 220.09 119.891 222.094 119.073L267.16 164.283L216.463 121.607ZM183.819 278.62C182.005 279.447 180.046 280.264 178.024 281.046L132.831 235.699L183.819 278.62ZM259.988 253.258C259.797 255.248 259.543 257.328 259.208 259.49L196.804 276.295L259.988 253.258ZM280.844 178.871L264.395 240.305L275.838 175.183C277.483 176.328 279.145 177.557 280.826 178.871H280.844ZM140.774 146.461C140.985 144.42 141.239 142.37 141.536 140.311L202.598 123.869L140.774 146.461ZM124.044 225.317C122.421 224.145 120.752 222.873 119.066 221.511L135.596 159.687L124.044 225.317ZM175.73 281.899C173.663 282.653 171.505 283.38 169.265 284.052L124.407 230.385L175.73 281.899ZM258.755 261.915C258.365 264.077 257.902 266.312 257.331 268.619L188.18 280.891L258.755 261.915ZM287.771 184.858L264.014 250.261L282.693 180.434C284.392 181.784 286.091 183.25 287.79 184.83L287.771 184.858ZM224.324 118.128C226.355 117.338 228.477 116.584 230.672 115.894L275.539 169.542L224.324 118.128ZM141.916 137.913C142.288 135.715 142.714 133.516 143.213 131.3L211.394 119.209L141.916 137.913ZM112.12 215.397L135.968 149.767L117.152 219.957C115.511 218.54 113.815 217.023 112.12 215.397ZM294.636 191.779L262.59 260.643L289.54 186.447C291.253 188.155 292.949 189.89 294.636 191.825V191.779ZM143.775 128.956C144.38 126.601 145.051 124.245 145.788 121.889L221.16 115.222L143.775 128.956ZM105.31 208.267L137.41 139.303L110.379 213.699C108.683 212 106.987 210.192 105.31 208.267ZM166.971 284.715C164.658 285.351 162.255 285.942 159.716 286.45L116.101 223.909L166.971 284.715ZM254.502 278.084L178.641 284.797L256.76 270.944C256.17 273.125 255.49 275.35 254.71 277.639L254.502 278.084ZM296.214 193.605C297.9 195.586 299.563 197.705 301.201 199.964L259.97 271.553L296.214 193.605ZM146.595 119.545C147.457 117.066 148.409 114.568 149.524 112.07L231.923 112.006L146.595 119.545ZM103.732 206.413C102.055 204.406 100.404 202.28 98.772 200.009L140.03 128.438L103.732 206.413ZM249.542 290.102C248.333 292.664 246.957 295.265 245.416 297.905L156.443 290.175L249.542 290.102ZM302.588 201.99C304.202 204.315 305.78 206.777 307.322 209.402L256.016 282.799L302.588 201.99ZM97.3756 198.011C95.7706 195.667 94.1928 193.187 92.6694 190.562L143.939 117.22L97.3756 198.011ZM244.21 300.012C242.623 302.647 240.882 305.326 238.969 308.024L143.848 291.301L244.21 300.012ZM308.591 211.509C310.096 214.189 311.547 217.014 312.934 220.012L250.775 294.217L308.591 211.509ZM264.34 111.388C267.414 111.461 270.606 111.652 273.934 111.988L306.986 203.198L264.34 111.388ZM155.718 99.9609C157.295 97.2963 159.03 94.6226 160.922 91.9399L256.134 108.681L155.718 99.9609ZM91.4543 188.437C89.9612 185.772 88.5194 182.926 87.129 179.898L149.252 105.756L91.4543 188.437ZM237.527 310.023C235.568 312.699 233.434 315.403 231.125 318.135L130.473 291.201L237.527 310.023ZM313.923 222.256C315.265 225.283 316.54 228.484 317.749 231.857L243.974 305.762L313.923 222.256ZM276.382 112.251C279.674 112.642 283.092 113.16 286.638 113.832L313.578 214.879L276.382 112.251ZM162.355 89.9687C164.32 87.2799 166.463 84.576 168.784 81.8569L269.536 108.799L162.355 89.9687ZM86.1134 177.681C84.7714 174.654 83.4928 171.459 82.2778 168.098L156.017 94.229L86.1134 177.681ZM123.736 288.076C120.417 287.731 116.998 287.244 113.48 286.614L86.4217 185.13L123.736 288.076ZM229.529 319.997C227.172 322.722 224.651 325.402 221.93 328.118L116.363 289.721L229.529 319.997ZM318.566 234.173C319.717 237.553 320.805 241.104 321.803 244.829L235.659 317.272L318.566 234.173ZM289.05 114.268C292.541 114.985 296.15 115.839 299.931 116.857L319.364 227.897L289.05 114.268ZM170.398 79.9766C172.765 77.2969 175.304 74.5899 178.042 71.8739L283.627 110.271L170.398 79.9766ZM81.4617 165.773C80.307 162.394 79.228 158.848 78.2245 155.136L164.368 82.729L81.4617 165.773ZM111.068 286.178C107.538 285.475 103.91 284.619 100.187 283.607L80.6546 172.122L111.068 286.178ZM179.792 70.148C182.543 67.4895 185.481 64.8067 188.606 62.0998L298.381 113.278L179.792 70.148ZM97.829 282.917C94.1172 281.845 90.3088 280.6 86.4036 279.183L75.894 157.743L97.829 282.917ZM220.18 329.834C217.442 332.517 214.504 335.2 211.366 337.883L101.547 286.687L220.18 329.834ZM322.419 247.172C323.326 250.888 324.233 254.766 324.986 258.836L225.63 328.563L322.419 247.172ZM302.253 117.547C305.916 118.595 309.703 119.806 313.615 121.181L324.106 242.312L302.253 117.547ZM77.6079 152.765C76.6648 149.053 75.8064 145.165 75.0326 141.101L174.397 71.4015L77.6079 152.765ZM315.591 119.155C315.573 119.11 315.548 119.067 315.519 119.028L315.99 119.291L315.591 119.155ZM72.3123 140.311V140.447V140.502V140.311ZM72.3123 142.128L84.1004 278.384C80.2436 276.919 76.2809 275.259 72.2125 273.406L72.3123 142.128ZM325.43 261.27C326.149 265.303 326.775 269.518 327.307 273.915L213.869 339.527L325.43 261.27ZM74.5883 138.703C73.8689 134.676 73.2463 130.464 72.7203 126.068L186.122 60.4738L74.5883 138.703Z" fill="#0747F6"></path></svg> 