<?xml version="1.0" encoding="UTF-8"?> <svg xmlns="http://www.w3.org/2000/svg" width="400" height="400" viewBox="0 0 400 400" fill="none"><rect width="400" height="400" rx="200" fill="white"></rect><mask id="mask0_2843_1210" style="mask-type:luminance" maskUnits="userSpaceOnUse" x="93" y="70" width="214" height="260"><path d="M306.833 70H93.168V330H306.833V70Z" fill="white"></path></mask><g mask="url(#mask0_2843_1210)"><mask id="mask1_2843_1210" style="mask-type:luminance" maskUnits="userSpaceOnUse" x="-23" y="41" width="446" height="316"><path d="M422.233 41.8945H-22.0518V356.038H422.233V41.8945Z" fill="white"></path></mask><g mask="url(#mask1_2843_1210)"><mask id="mask2_2843_1210" style="mask-type:luminance" maskUnits="userSpaceOnUse" x="93" y="124" width="190" height="129"><path d="M139.577 154.212C139.577 170.631 152.888 183.94 169.307 183.94C174.738 183.94 179.825 182.477 184.208 179.933L212.98 203.55V215.646H151.773C148.596 202.647 136.877 192.998 122.9 192.998C106.48 192.998 93.1699 206.307 93.1699 222.728C93.1699 239.147 106.48 252.458 122.9 252.458C136.877 252.458 148.596 242.809 151.773 229.808H212.98H215.559H227.14V195.199H225.12L194.469 170.039C196.147 167.378 197.412 164.435 198.18 161.294H282.403V147.132H198.18C195.003 134.133 183.285 124.484 169.307 124.484C152.888 124.484 139.577 137.795 139.577 154.212Z" fill="white"></path></mask><g mask="url(#mask2_2843_1210)"><path d="M74.2148 127.358L278.155 96.4575L301.356 249.585L97.4158 280.484L74.2148 127.358Z" fill="url(#paint0_linear_2843_1210)"></path></g></g><mask id="mask3_2843_1210" style="mask-type:luminance" maskUnits="userSpaceOnUse" x="-23" y="41" width="446" height="316"><path d="M422.233 41.8945H-22.0518V356.038H422.233V41.8945Z" fill="white"></path></mask><g mask="url(#mask3_2843_1210)"><mask id="mask4_2843_1210" style="mask-type:luminance" maskUnits="userSpaceOnUse" x="201" y="187" width="60" height="61"><path d="M201.221 217.441C201.221 233.86 214.531 247.169 230.951 247.169C247.37 247.169 260.68 233.86 260.68 217.441C260.68 201.022 247.37 187.713 230.951 187.713C214.531 187.713 201.221 201.023 201.221 217.441Z" fill="white"></path></mask><g mask="url(#mask4_2843_1210)"><path d="M260.678 187.713H201.221V247.169H260.678V187.713Z" fill="url(#paint1_linear_2843_1210)"></path></g></g><mask id="mask5_2843_1210" style="mask-type:luminance" maskUnits="userSpaceOnUse" x="-23" y="41" width="446" height="316"><path d="M422.233 41.8945H-22.0518V356.038H422.233V41.8945Z" fill="white"></path></mask><g mask="url(#mask5_2843_1210)"><mask id="mask6_2843_1210" style="mask-type:luminance" maskUnits="userSpaceOnUse" x="120" y="69" width="187" height="261"><path d="M262.921 70.5719C252.729 72.187 241.199 76.9963 229.235 84.3727C232.338 83.1224 235.399 82.0944 238.405 81.3002C281.214 69.998 294.186 126.33 267.318 191.064C241.613 252.991 195.635 301.929 159.617 309.391C139.346 313.59 119.486 301.154 120.924 261.321C117.308 303.825 130.42 335.092 164.786 329.306C207.883 322.052 263.655 263.191 292.121 191.064C318.985 123.003 307.58 70.0056 269.935 69.998C267.689 69.9999 265.353 70.1881 262.921 70.5719Z" fill="white"></path></mask><g mask="url(#mask6_2843_1210)"><path d="M100.121 71.1175L318.133 56.9233L336.172 333.975L118.159 348.169L100.121 71.1175Z" fill="url(#paint2_radial_2843_1210)"></path></g></g><mask id="mask7_2843_1210" style="mask-type:luminance" maskUnits="userSpaceOnUse" x="-23" y="41" width="446" height="316"><path d="M422.233 41.8945H-22.0518V356.038H422.233V41.8945Z" fill="white"></path></mask><g mask="url(#mask7_2843_1210)"><mask id="mask8_2843_1210" style="mask-type:luminance" maskUnits="userSpaceOnUse" x="147" y="70" width="160" height="260"><path d="M265.465 70.247C301.007 72.5956 311.756 123.554 285.553 189.943C257.089 262.071 201.315 320.932 158.218 328.187C154.359 328.837 150.773 329.008 147.442 328.761C152.476 330.165 158.245 330.41 164.785 329.31C207.882 322.055 263.654 263.194 292.12 191.068C318.984 123.005 307.578 70.0133 269.93 70.0114C268.48 70.0076 266.992 70.0874 265.465 70.247Z" fill="white"></path></mask><g mask="url(#mask8_2843_1210)"><path d="M318.983 70.0073H147.442V330.408H318.983V70.0073Z" fill="url(#paint3_radial_2843_1210)"></path></g></g><mask id="mask9_2843_1210" style="mask-type:luminance" maskUnits="userSpaceOnUse" x="-23" y="41" width="446" height="316"><path d="M422.233 41.8945H-22.0518V356.038H422.233V41.8945Z" fill="white"></path></mask><g mask="url(#mask9_2843_1210)"><mask id="mask10_2843_1210" style="mask-type:luminance" maskUnits="userSpaceOnUse" x="-23" y="41" width="446" height="316"><path d="M422.233 41.8945H-22.0518V356.038H422.233V41.8945Z" fill="white"></path></mask><g mask="url(#mask10_2843_1210)"><g opacity="0.4"><mask id="mask11_2843_1210" style="mask-type:luminance" maskUnits="userSpaceOnUse" x="147" y="70" width="160" height="260"><path d="M306.833 70.0098H147.444V329.998H306.833V70.0098Z" fill="white"></path></mask><g mask="url(#mask11_2843_1210)"><path d="M265.465 70.2468C301.007 72.5954 311.756 123.554 285.555 189.943C257.089 262.071 201.315 320.932 158.218 328.187C154.359 328.837 150.773 329.01 147.442 328.761C152.474 330.165 158.245 330.41 164.785 329.31C207.882 322.055 263.654 263.194 292.12 191.066C320.02 120.379 306.647 65.9487 265.465 70.2468Z" fill="#020000"></path></g></g></g></g></g><defs><linearGradient id="paint0_linear_2843_1210" x1="114.944" y1="199.396" x2="212.291" y2="184.647" gradientUnits="userSpaceOnUse"><stop stop-color="#5641E1"></stop><stop offset="1" stop-color="#4083E5"></stop></linearGradient><linearGradient id="paint1_linear_2843_1210" x1="201.088" y1="217.46" x2="260.582" y2="217.46" gradientUnits="userSpaceOnUse"><stop stop-color="#5641E1"></stop><stop offset="1" stop-color="#4083E5"></stop></linearGradient><radialGradient id="paint2_radial_2843_1210" cx="0" cy="0" r="1" gradientUnits="userSpaceOnUse" gradientTransform="translate(213.35 200.413) rotate(-3.7252) scale(122.86 166.536)"><stop stop-color="#5B3EE1"></stop><stop offset="1" stop-color="#8023E5"></stop></radialGradient><radialGradient id="paint3_radial_2843_1210" cx="0" cy="0" r="1" gradientUnits="userSpaceOnUse" gradientTransform="translate(226.841 200.054) scale(108.002 126.66)"><stop stop-color="#8023E5"></stop><stop offset="1" stop-color="#5B3EE1"></stop></radialGradient></defs></svg> 