<?xml version="1.0" encoding="UTF-8"?> <svg xmlns="http://www.w3.org/2000/svg" width="400" height="400" viewBox="0 0 400 400" fill="none"><rect width="400" height="400" rx="200" fill="white"></rect><path d="M247.59 222.465C266.673 211.374 279.5 190.663 279.5 166.94V139.727C279.5 95.6998 243.915 60 200.009 60C156.102 60 120.5 95.6998 120.5 139.727V168.889H168.965V170.785C163.081 172.255 157.516 174.541 152.409 177.535C133.327 188.626 120.5 209.337 120.5 233.06V260.273C120.5 304.3 156.085 340 199.991 340C243.898 340 279.5 304.3 279.5 260.273V231.112H231.035V229.216C236.918 227.745 242.484 225.459 247.59 222.465ZM215.522 270C215.522 278.592 208.578 285.555 200.009 285.555C191.439 285.555 184.496 278.592 184.496 270V130C184.496 121.407 191.439 114.444 200.009 114.444C208.578 114.444 215.522 121.407 215.522 130V270Z" fill="#0A0A0A"></path></svg> 