<?xml version="1.0" encoding="UTF-8"?> <svg xmlns="http://www.w3.org/2000/svg" width="400" height="400" viewBox="0 0 400 400" fill="none"><rect width="400" height="400" rx="200" fill="white"></rect><path d="M137.796 145.828C103.911 126.194 103.911 94.3601 137.796 74.7257C171.679 55.0914 226.617 55.0914 260.501 74.7257C294.385 94.3601 294.385 126.194 260.501 145.828C226.617 165.462 171.679 165.462 137.796 145.828ZM225.29 296.065C225.29 256.948 252.759 209.042 286.645 189.408C320.53 169.772 348 185.843 348 224.96C348 264.077 320.53 311.982 286.645 331.617C252.759 351.252 225.29 335.182 225.29 296.065ZM113.355 189.405C79.4696 169.77 52 185.84 52 224.957C52 264.074 79.4696 311.98 113.355 331.614C147.241 351.25 174.71 335.179 174.71 296.063C174.71 256.945 147.241 209.04 113.355 189.405Z" fill="black"></path></svg> 