<?xml version="1.0" encoding="UTF-8"?> <svg xmlns="http://www.w3.org/2000/svg" width="400" height="400" viewBox="0 0 400 400" fill="none"><rect width="400" height="400" rx="200" fill="white"></rect><path fill-rule="evenodd" clip-rule="evenodd" d="M148.882 188.058V141.835C164.009 144.527 180.955 146.179 200.003 146.179C219.051 146.179 235.991 144.527 251.124 141.835V188.058H148.882ZM200.003 253.815C180.955 253.815 164.009 255.468 148.882 258.165V211.937H251.124V258.165C235.991 255.468 219.051 253.815 200.003 253.815ZM285.714 132.934C285.923 132.859 286.128 132.779 286.337 132.705C301.6 127.385 314.081 121.069 324.014 114.822C328.73 111.859 331.5 106.641 331.5 101.108C331.5 92.1534 321.427 86.9246 313.963 91.9668C302.659 99.6049 286.687 107.781 265.047 113.602C264.391 113.778 263.767 113.97 263.105 114.14C260.11 114.913 256.986 115.627 253.775 116.299C252.802 116.507 251.801 116.693 250.812 116.885C248.15 117.413 245.413 117.892 242.605 118.34C241.75 118.473 240.917 118.623 240.046 118.751C236.394 119.284 232.63 119.758 228.731 120.152C228.059 120.216 227.359 120.264 226.676 120.328C223.305 120.643 219.831 120.893 216.27 121.091C215.265 121.144 214.259 121.202 213.237 121.245C208.946 121.432 204.563 121.56 200.003 121.56C195.453 121.56 191.086 121.432 186.811 121.245C185.741 121.202 184.698 121.144 183.654 121.085C180.229 120.893 176.889 120.653 173.641 120.35C172.807 120.275 171.958 120.216 171.14 120.136C167.37 119.753 163.74 119.294 160.202 118.777C159.035 118.607 157.916 118.415 156.771 118.228C154.399 117.844 152.081 117.434 149.817 116.997C148.457 116.736 147.091 116.475 145.768 116.192C143.472 115.702 141.245 115.179 139.062 114.641C137.04 114.14 135.082 113.618 133.152 113.079C112.469 107.307 97.0882 99.3917 86.0961 91.9882C78.6048 86.9352 68.5 92.1374 68.5 101.119C68.5 106.646 71.2642 111.853 75.9697 114.817C85.8917 121.053 98.3466 127.359 113.576 132.673C113.829 132.763 114.071 132.859 114.335 132.95C117.384 134 120.573 134.991 123.832 135.962V188.058H112.764C107.838 188.058 103.843 192.018 103.843 196.901C103.843 205.205 110.64 211.937 119.013 211.937H123.832V264.033C120.573 265.003 117.384 266 114.335 267.045C114.071 267.135 113.829 267.231 113.576 267.327C98.3466 272.641 85.8917 278.941 75.9697 285.183C71.2642 288.141 68.5 293.349 68.5 298.881C68.5 307.857 78.6048 313.059 86.0961 308.012C97.0882 300.603 112.469 292.693 133.152 286.915C135.082 286.377 137.04 285.855 139.062 285.354C141.245 284.815 143.472 284.293 145.768 283.803C147.091 283.52 148.457 283.259 149.817 282.998C152.081 282.561 154.399 282.15 156.771 281.772C157.916 281.585 159.035 281.388 160.202 281.217C163.74 280.7 167.37 280.242 171.14 279.864C171.958 279.778 172.807 279.72 173.641 279.645C176.889 279.347 180.229 279.101 183.654 278.909C184.698 278.856 185.741 278.798 186.811 278.75C191.086 278.563 195.453 278.435 200.003 278.435C204.563 278.435 208.946 278.563 213.237 278.75C214.259 278.792 215.265 278.851 216.27 278.904C219.831 279.101 223.305 279.352 226.676 279.666C227.359 279.73 228.059 279.778 228.731 279.842C232.63 280.237 236.394 280.711 240.046 281.249C240.917 281.377 241.75 281.521 242.605 281.66C245.413 282.102 248.15 282.587 250.812 283.11C251.801 283.301 252.802 283.493 253.775 283.696C256.986 284.367 260.11 285.082 263.105 285.855C263.767 286.025 264.391 286.222 265.047 286.393C286.687 292.219 302.659 300.395 313.963 308.033C321.427 313.075 331.5 307.847 331.5 298.892C331.5 293.354 328.73 288.136 324.014 285.172C314.081 278.925 301.6 272.609 286.337 267.29C286.128 267.215 285.923 267.135 285.714 267.066C282.654 266.011 279.449 265.009 276.168 264.033V211.937H287.236C292.162 211.937 296.157 207.976 296.157 203.094C296.157 194.79 289.365 188.058 280.981 188.058H276.168V135.962C279.449 134.991 282.654 133.989 285.714 132.934Z" fill="url(#paint0_linear_2890_8694)"></path><defs><linearGradient id="paint0_linear_2890_8694" x1="13218.5" y1="90" x2="13218.5" y2="22090" gradientUnits="userSpaceOnUse"><stop stop-color="#006EF5"></stop><stop offset="1" stop-color="#0062DB"></stop></linearGradient></defs></svg> 