<?xml version="1.0" encoding="UTF-8"?> <svg xmlns="http://www.w3.org/2000/svg" width="400" height="400" viewBox="0 0 400 400" fill="none"><rect width="400" height="400" rx="200" fill="white"></rect><path fill-rule="evenodd" clip-rule="evenodd" d="M75 320L149.185 117.433C158.598 93.7831 176.148 80.3957 199.478 80.0087V80L199.999 80.0022L200.522 80V80.0087C223.852 80.3957 241.402 93.7831 250.816 117.433L325 320L279.063 304.077L215.691 131.036C211.834 121.466 207.379 118.02 199.999 117.868C192.62 118.02 188.166 121.466 184.309 131.036L120.938 304.077L75 320ZM232.279 242.867C232.279 260.561 218.023 274.905 200.435 274.905C182.85 274.905 168.593 260.561 168.593 242.867C168.593 225.173 182.85 210.829 200.435 210.829C218.023 210.829 232.279 225.173 232.279 242.867Z" fill="#3692FE"></path></svg> 