<?xml version="1.0" encoding="UTF-8"?> <svg xmlns="http://www.w3.org/2000/svg" width="400" height="400" viewBox="0 0 400 400" fill="none"><rect width="400" height="400" rx="200" fill="white"></rect><path d="M203.485 113.232L224.446 100.865V72.3669L202.947 60V113.232H203.485Z" fill="#A4A7A9"></path><path d="M126.09 237.976V157.322L195.96 116.995V60L80.9434 126.674C79.7705 127.283 78.7945 128.213 78.1285 129.355C77.4626 130.497 77.1341 131.805 77.1812 133.126V265.937L126.628 237.439L126.09 237.976Z" fill="#27C4B8"></path><path d="M270.13 243.892L199.723 284.219L129.853 243.892L80.4062 272.389L196.498 339.063C197.56 339.677 198.765 340 199.992 340C201.218 340 202.423 339.677 203.485 339.063L319.577 272.389L269.593 243.892H270.13Z" fill="#6D6E71"></path><path d="M319.576 126.675L273.355 100.328V129.364L223.908 157.324L273.355 185.821V237.44L322.801 265.938V133.127C322.901 131.86 322.653 130.59 322.085 129.453C321.517 128.316 320.65 127.356 319.576 126.675Z" fill="#A4A7A9"></path><path d="M174.999 185.283V241.741L223.371 214.318V157.86L174.999 185.283Z" fill="#6D6E71"></path></svg> 