<?xml version="1.0" encoding="UTF-8"?> <svg xmlns="http://www.w3.org/2000/svg" width="400" height="400" viewBox="0 0 400 400" fill="none"><rect width="400" height="400" rx="200" fill="white"></rect><path d="M200 200V340L318.9 270V130L200 199.944V200Z" fill="#B3ABBC"></path><path d="M81.0991 130V270L200 340V200L81.0991 130Z" fill="#685879"></path><path d="M200 60L81.0991 130L200 199.944L318.9 130L200 60Z" fill="#E5E3E8"></path><path d="M199.999 112.191L125.47 156.095V243.903L199.999 287.807L274.585 243.903V156.095L199.999 112.191Z" fill="#473955"></path><path d="M162.903 178.16V221.896L200 243.736V200L162.903 178.16Z" fill="#685879"></path><path d="M200 156.319L162.903 178.159L200 199.999L237.097 178.159L200 156.319Z" fill="#E5E3E8"></path><path d="M200 200V243.736L237.097 221.896V178.16L200 200Z" fill="#B3ABBC"></path></svg> 