<?xml version="1.0" encoding="UTF-8"?> <svg xmlns="http://www.w3.org/2000/svg" width="400" height="400" viewBox="0 0 400 400" fill="none"><rect width="400" height="400" rx="200" fill="white"></rect><path d="M327.695 142.597L216.95 70V110.592L287.996 156.742L279.633 183.181H216.95V216.819H279.633L287.996 243.258L216.95 289.408V330L327.695 257.639L309.589 200.114L327.695 142.589V142.597Z" fill="url(#paint0_linear_2890_9590)"></path><path d="M120.596 216.819H183.051V183.181H120.36L112.233 156.742L183.051 110.592V70L72.3052 142.597L90.4121 200.122L72.3052 257.639L183.287 330V289.416L112.241 243.258L120.596 216.819Z" fill="url(#paint1_linear_2890_9590)"></path><mask id="mask0_2890_9590" style="mask-type:alpha" maskUnits="userSpaceOnUse" x="72" y="70" width="256" height="260"><path d="M327.695 142.597L216.95 70V110.592L287.996 156.742L279.633 183.181H216.95V216.819H279.633L287.996 243.258L216.95 289.408V330L327.695 257.639L309.589 200.114L327.695 142.589V142.597Z" fill="url(#paint2_linear_2890_9590)"></path><path d="M120.596 216.819H183.051V183.181H120.36L112.233 156.742L183.051 110.592V70L72.3052 142.597L90.4121 200.122L72.3052 257.639L183.287 330V289.416L112.241 243.258L120.596 216.819Z" fill="url(#paint3_linear_2890_9590)"></path></mask><g mask="url(#mask0_2890_9590)"><path d="M326.006 70H72.4434V330H326.006V70Z" fill="url(#paint4_linear_2890_9590)"></path></g><defs><linearGradient id="paint0_linear_2890_9590" x1="291.872" y1="347.876" x2="217.723" y2="41.4404" gradientUnits="userSpaceOnUse"><stop stop-color="#0B46F9"></stop><stop offset="1" stop-color="#BBFBE0"></stop></linearGradient><linearGradient id="paint1_linear_2890_9590" x1="291.872" y1="347.876" x2="217.723" y2="41.4404" gradientUnits="userSpaceOnUse"><stop stop-color="#0B46F9"></stop><stop offset="1" stop-color="#BBFBE0"></stop></linearGradient><linearGradient id="paint2_linear_2890_9590" x1="291.872" y1="347.876" x2="217.723" y2="41.4404" gradientUnits="userSpaceOnUse"><stop stop-color="#0B46F9"></stop><stop offset="1" stop-color="#BBFBE0"></stop></linearGradient><linearGradient id="paint3_linear_2890_9590" x1="291.872" y1="347.876" x2="217.723" y2="41.4404" gradientUnits="userSpaceOnUse"><stop stop-color="#0B46F9"></stop><stop offset="1" stop-color="#BBFBE0"></stop></linearGradient><linearGradient id="paint4_linear_2890_9590" x1="88.6973" y1="128.5" x2="217.081" y2="224.405" gradientUnits="userSpaceOnUse"><stop offset="0.12" stop-color="#8952FF" stop-opacity="0.87"></stop><stop offset="1" stop-color="#DABDFF" stop-opacity="0"></stop></linearGradient></defs></svg> 