<?xml version="1.0" encoding="UTF-8"?> <svg xmlns="http://www.w3.org/2000/svg" width="400" height="400" viewBox="0 0 400 400" fill="none"><rect width="400" height="400" rx="200" fill="white"></rect><path fill-rule="evenodd" clip-rule="evenodd" d="M322.097 90.0853C322.364 90.3994 322.525 90.7904 322.557 91.2017C322.721 93.2185 337.354 293.297 200.633 339.895C200.222 340.035 199.776 340.035 199.365 339.895C62.6487 293.297 77.281 93.2185 77.4421 91.2017C77.4749 90.7917 77.6357 90.4023 77.9015 90.0885C78.1674 89.7747 78.5248 89.5527 78.9236 89.4535L199.536 60.0538C199.841 59.9821 200.157 59.9821 200.462 60.0538L321.069 89.4535C321.471 89.55 321.829 89.7713 322.097 90.0853ZM299.899 111.448C300.116 111.703 300.249 112.019 300.277 112.352H300.29C300.425 113.998 312.394 277.343 200.519 315.38C200.19 315.505 199.827 315.505 199.499 315.38C87.6188 277.343 99.5922 113.998 99.7265 112.352C99.7525 112.019 99.8835 111.702 100.101 111.447C100.318 111.193 100.61 111.014 100.935 110.936L199.614 86.9197C199.864 86.857 200.125 86.857 200.376 86.9197L299.064 110.936C299.389 111.015 299.68 111.194 299.899 111.448Z" fill="#798CE5"></path><path d="M198.602 122.77L132.803 138.772C132.586 138.827 132.392 138.949 132.247 139.12C132.103 139.291 132.015 139.503 131.997 139.726C131.912 140.824 123.932 249.722 198.507 275.084C198.731 275.155 198.973 275.155 199.197 275.084C273.772 249.718 265.796 140.824 265.707 139.722C265.689 139.498 265.602 139.285 265.457 139.114C265.311 138.943 265.114 138.823 264.896 138.772L199.102 122.765C198.939 122.721 198.765 122.721 198.602 122.765" fill="#798CE5"></path></svg> 