<?xml version="1.0" encoding="UTF-8"?> <svg xmlns="http://www.w3.org/2000/svg" width="400" height="400" viewBox="0 0 400 400" fill="none"><rect width="400" height="400" rx="200" fill="white"></rect><path fill-rule="evenodd" clip-rule="evenodd" d="M298.182 118.182C298.182 172.406 254.225 216.364 200 216.364C145.776 216.364 101.818 172.406 101.818 118.182C101.818 97.0946 118.913 80 140 80C161.087 80 178.182 97.0946 178.182 118.182V191.383C192.331 195.594 207.669 195.594 221.818 191.383V118.182C221.818 97.0946 238.913 80 260 80C281.087 80 298.182 97.0946 298.182 118.182ZM140 101.818C149.038 101.818 156.364 109.144 156.364 118.182V180.858C136.58 167.059 123.637 144.132 123.637 118.182C123.637 109.144 130.963 101.818 140 101.818ZM243.637 118.182V180.858C263.42 167.059 276.364 144.132 276.364 118.182C276.364 109.144 269.038 101.818 260 101.818C250.963 101.818 243.637 109.144 243.637 118.182Z" fill="#7A7AB8"></path><path d="M243.637 281.818V230.001C215.825 240.864 184.153 240.856 156.364 230.001V281.818C156.364 290.856 149.038 298.182 140 298.182C130.963 298.182 123.637 290.856 123.637 281.818V210.753C115.358 203.916 108.012 195.99 101.818 187.195V281.818C101.818 302.906 118.913 320 140 320C161.087 320 178.182 302.906 178.182 281.818V258.332C192.611 260.56 207.39 260.56 221.818 258.332V281.818C221.818 302.906 238.913 320 260 320C281.087 320 298.182 302.906 298.182 281.818V187.195C291.988 195.99 284.642 203.916 276.364 210.753V281.818C276.364 290.856 269.038 298.182 260 298.182C250.963 298.182 243.637 290.856 243.637 281.818Z" fill="#7A7AB8"></path></svg> 