<?xml version="1.0" encoding="UTF-8"?> <svg xmlns="http://www.w3.org/2000/svg" width="400" height="400" viewBox="0 0 400 400" fill="none"><rect width="400" height="400" rx="200" fill="white"></rect><path d="M158.212 153.675L190.255 110.276L172.003 85.6281C167.56 79.6131 158.957 78.3176 152.94 82.758L133.346 97.2658C127.338 101.729 126.057 110.341 130.507 116.36L158.212 153.675Z" fill="#50B694"></path><path d="M318.673 283.59L241.453 179.289L209.317 222.688L277.146 314.228C281.16 319.643 288.919 320.798 294.337 316.786L316.177 300.687C321.426 296.603 322.535 289.004 318.673 283.59Z" fill="#50B694"></path><path fill-rule="evenodd" clip-rule="evenodd" d="M269.229 116.159C273.623 110.222 272.371 101.833 266.434 97.438L246.423 82.6254C240.485 78.23 232.096 79.482 227.701 85.4199L81.6503 282.724C77.2556 288.662 78.5076 297.05 84.4448 301.446L104.456 316.258C110.393 320.654 118.782 319.402 123.178 313.464L269.229 116.159Z" fill="#E73240"></path><path d="M199.833 320C216.03 320 229.161 306.87 229.161 290.672C229.161 274.475 216.03 261.344 199.833 261.344C183.635 261.344 170.505 274.475 170.505 290.672C170.505 306.87 183.635 320 199.833 320Z" fill="#FDC90C"></path></svg> 