<?xml version="1.0" encoding="UTF-8"?> <svg xmlns="http://www.w3.org/2000/svg" width="400" height="400" viewBox="0 0 400 400" fill="none"><rect width="400" height="400" rx="200" fill="white"></rect><path fill-rule="evenodd" clip-rule="evenodd" d="M295.33 170.712L327.066 158.578C328.635 158 330.151 159.733 329.21 161.204L235.099 317.531C234.157 319.054 232.484 320 230.707 320H169.116C167.338 320 165.665 319.001 164.724 317.478L70.769 161.204C69.8802 159.733 71.3442 157.947 72.965 158.578L104.545 170.764C105.904 171.289 107.159 169.923 106.636 168.611L71.2396 82.3047C70.7167 80.9915 71.9716 79.6782 73.2787 80.151L140.516 103.789C141.823 104.209 142.869 105.207 143.392 106.521L189.141 222.085C189.716 223.557 188.304 224.974 186.84 224.449L158.345 213.943C156.724 213.366 155.313 215.099 156.149 216.57L197.977 287.957C198.865 289.533 201.113 289.533 202.002 287.957L243.83 216.57C244.666 215.099 243.203 213.366 241.634 213.943L213.139 224.449C211.675 225.027 210.263 223.557 210.838 222.085L256.483 106.468C257.005 105.207 258.051 104.209 259.358 103.737L326.596 80.0985C327.903 79.6257 329.157 80.9389 328.635 82.2521L293.238 168.558C292.715 169.871 294.022 171.237 295.33 170.712Z" fill="#8439FD"></path></svg> 