<?xml version="1.0" encoding="UTF-8"?> <svg xmlns="http://www.w3.org/2000/svg" width="400" height="400" viewBox="0 0 400 400" fill="none"><rect width="400" height="400" rx="200" fill="white"></rect><g clip-path="url(#clip0_2890_9660)"><path d="M105.511 139.363C157.695 88.2123 242.304 88.2123 294.489 139.363L300.771 145.519C301.39 146.12 301.882 146.84 302.219 147.635C302.555 148.431 302.728 149.286 302.728 150.15C302.728 151.013 302.555 151.868 302.219 152.664C301.882 153.459 301.39 154.179 300.771 154.78L279.286 175.84C278.654 176.455 277.806 176.799 276.924 176.799C276.042 176.799 275.195 176.455 274.562 175.84L265.918 167.368C229.513 131.683 170.486 131.683 134.082 167.368L124.826 176.44C124.194 177.055 123.346 177.399 122.464 177.399C121.582 177.399 120.735 177.055 120.102 176.44L98.6175 155.381C97.9982 154.78 97.5059 154.06 97.1697 153.264C96.8335 152.469 96.6603 151.614 96.6603 150.75C96.6603 149.887 96.8335 149.032 97.1697 148.236C97.5059 147.441 97.9982 146.721 98.6175 146.12L105.511 139.363ZM338.922 182.914L358.042 201.657C358.661 202.259 359.154 202.978 359.49 203.774C359.827 204.569 360 205.424 360 206.288C360 207.152 359.827 208.007 359.49 208.802C359.154 209.598 358.661 210.318 358.042 210.919L271.824 295.432C270.559 296.662 268.864 297.35 267.1 297.35C265.336 297.35 263.641 296.662 262.375 295.432L201.182 235.451C200.866 235.143 200.442 234.971 200.001 234.971C199.56 234.971 199.136 235.143 198.82 235.451L137.626 295.429C136.361 296.66 134.666 297.348 132.902 297.348C131.138 297.348 129.443 296.66 128.177 295.429L41.9553 210.921C41.336 210.32 40.8437 209.6 40.5075 208.805C40.1713 208.009 39.998 207.154 39.998 206.29C39.998 205.427 40.1713 204.572 40.5075 203.776C40.8437 202.981 41.336 202.261 41.9553 201.66L61.0775 182.916C62.3432 181.686 64.0379 180.998 65.8019 180.998C67.566 180.998 69.2607 181.686 70.5264 182.916L131.722 242.893C132.038 243.2 132.462 243.372 132.903 243.372C133.344 243.372 133.768 243.2 134.084 242.893L195.275 182.914C196.541 181.684 198.236 180.996 200 180.996C201.764 180.996 203.458 181.684 204.724 182.914L265.918 242.895C266.234 243.202 266.658 243.374 267.099 243.374C267.54 243.374 267.963 243.202 268.28 242.895L329.473 182.916C330.739 181.686 332.433 180.998 334.198 180.998C335.962 180.998 337.656 181.684 338.922 182.914Z" fill="#0B88F0"></path></g><defs><clipPath id="clip0_2890_9660"><rect width="320" height="198" fill="white" transform="translate(40 101)"></rect></clipPath></defs></svg> 