<svg xmlns="http://www.w3.org/2000/svg" width="150" height="90" fill="none"><path fill="#fff" d="M90.12 39.23V27.052L90.067 27H59.88v12.23h2.142c-.043-2.362.443-4.863 1.97-6.719 1.898-2.303 4.877-3.06 7.776-2.989l.001 26.103c-.074 2.114-.54 3.928-2.774 4.586-1.099.322-2.21.271-3.344.267V63h18.696v-2.522c-1.459.003-3.046.088-4.343-.686-1.297-.773-1.692-2.308-1.776-3.752l.002-26.518c2.25-.04 4.628.385 6.46 1.747 2.476 1.843 3.364 4.968 3.25 7.96h2.178v.001Zm-23.051 4.354H59.88v7.185h7.188v-7.185Zm23.05 0h-7.188v7.185h7.137l.051-.051v-7.135Z"></path><path fill="#fff" d="M90.12 39.23h-2.178c.114-2.993-.775-6.118-3.251-7.96-1.832-1.363-4.21-1.787-6.46-1.748L78.23 56.04c.084 1.444.457 2.966 1.775 3.753 1.319.787 2.885.688 4.344.685V63H65.651v-2.522c1.134.004 2.245.056 3.344-.267 2.235-.657 2.7-2.471 2.774-4.585l-.001-26.104c-2.899-.07-5.878.686-7.775 2.99-1.528 1.855-2.014 4.356-1.97 6.718H59.88V27h30.187l.051.052V39.23Z"></path><path fill="#fff" d="M67.069 43.584H59.88v7.186h7.188v-7.186ZM90.12 43.584v7.134l-.053.052h-7.136v-7.186h7.188Z"></path></svg>