<svg xmlns="http://www.w3.org/2000/svg" width="150" height="90" fill="none"><g fill="#fff" clip-path="url(#a)"><path d="M68.374 45.385c0 4.164-3.269 7.232-7.28 7.232-4.012 0-7.28-3.068-7.28-7.232 0-4.194 3.268-7.233 7.28-7.233 4.011 0 7.28 3.04 7.28 7.233Zm-3.187 0c0-2.602-1.894-4.383-4.093-4.383S57 42.782 57 45.385c0 2.576 1.894 4.382 4.093 4.382s4.093-1.81 4.093-4.382ZM84.08 45.385c0 4.164-3.269 7.232-7.28 7.232-4.012 0-7.28-3.068-7.28-7.232 0-4.19 3.268-7.233 7.28-7.233 4.011 0 7.28 3.04 7.28 7.233Zm-3.187 0c0-2.602-1.895-4.383-4.093-4.383-2.2 0-4.094 1.78-4.094 4.383 0 2.576 1.895 4.382 4.094 4.382 2.198 0 4.093-1.81 4.093-4.382ZM99.132 38.59v12.984c0 5.341-3.161 7.523-6.898 7.523-3.517 0-5.634-2.345-6.433-4.262l2.775-1.151c.494 1.177 1.705 2.566 3.655 2.566 2.392 0 3.874-1.47 3.874-4.24v-1.04h-.111c-.714.878-2.088 1.644-3.822 1.644-3.629 0-6.953-3.15-6.953-7.203 0-4.083 3.324-7.259 6.953-7.259 1.73 0 3.105.766 3.822 1.617h.11v-1.177h3.028v-.003Zm-2.801 6.82c0-2.546-1.705-4.408-3.874-4.408-2.2 0-4.041 1.862-4.041 4.409 0 2.52 1.842 4.356 4.04 4.356 2.17 0 3.875-1.836 3.875-4.356ZM104.121 30.978v21.196h-3.108V30.978h3.108ZM116.234 47.765l2.474 1.644c-.798 1.177-2.722 3.205-6.047 3.205-4.123 0-7.202-3.176-7.202-7.232 0-4.302 3.106-7.233 6.846-7.233 3.766 0 5.608 2.987 6.21 4.601l.33.822-9.701 4.004c.743 1.451 1.898 2.191 3.517 2.191 1.623 0 2.749-.795 3.573-2.002Zm-7.614-2.602 6.486-2.684c-.357-.903-1.43-1.532-2.693-1.532-1.62 0-3.875 1.425-3.793 4.216ZM42.047 43.503v-3.068h10.376c.101.535.154 1.167.154 1.852 0 2.302-.632 5.149-2.667 7.177-1.98 2.055-4.51 3.15-7.86 3.15-6.21 0-11.432-5.041-11.432-11.23 0-6.19 5.222-11.23 11.432-11.23 3.436 0 5.883 1.343 7.722 3.094L47.6 35.413c-1.319-1.232-3.105-2.191-5.553-2.191-4.535 0-8.082 3.642-8.082 8.162 0 4.52 3.547 8.162 8.082 8.162 2.942 0 4.617-1.178 5.69-2.247.87-.867 1.443-2.106 1.669-3.799l-7.359.003Z"></path></g><defs><clipPath id="a"><path fill="#fff" d="M30.5 30h89v30h-89z"></path></clipPath></defs></svg>