<svg xmlns="http://www.w3.org/2000/svg" width="150" height="90" fill="none"><path fill="#fff" d="M95 25H55v40h40V25ZM71.347 54.608l.824-.002c1.082-.006 2.915-.761 3.184-2.466.262-1.652.07-2.847-2.054-6.475l-.029-.06c-1.478-2.411-2.88-4.517-2.356-7.82.569-3.59 3.376-5.172 5.93-5.125h.826v2.696l-.825.002c-1.082.007-2.965.749-3.236 2.454-.261 1.651-.081 2.72 1.988 6.3l.055.091c1.537 2.474 2.92 4.66 2.397 7.964-.569 3.59-3.326 5.183-5.88 5.137h-.824v-2.696Zm-8.832 2.706V32.666h2.632v21.925h3.906v2.721h-6.538Zm18.361 0V32.67h6.652v2.687h-4.02v7.902h3.758v2.875h-3.758v8.455h4.02v2.724h-6.652Z"></path></svg>