<svg xmlns="http://www.w3.org/2000/svg" width="150" height="90" fill="none"><path fill="#fff" d="M43.1 44.995c0-5.324 3.323-7.995 7.422-7.995 4.094 0 7.417 2.67 7.417 7.995 0 5.338-3.323 7.995-7.417 7.995-4.099 0-7.422-2.631-7.422-7.995Zm7.422 5.968c2.018 0 3.656-2.115 3.656-5.968 0-3.818-1.638-5.968-3.656-5.968-2.023 0-3.665 2.15-3.665 5.968 0 3.831 1.642 5.968 3.665 5.968ZM28.72 37.582v14.822h2.58v-9.957l7.951 9.957h2.168V37.582h-2.452v8.17l-6.608-8.17h-3.638ZM111.69 37.582l-6.012 14.822h2.597l1.655-4.077h5.46l1.677 4.077h4.212l-6.073-14.822h-3.516Zm-.92 8.617 1.879-4.645 1.883 4.645h-3.762ZM87.502 47.294c-.07 1.357-.175 2.701-1.677 3.205-.67.219-1.9.215-2.596-.061-.333-.136-.539-.25-.797-.508-.5-.495-.7-1.546-.718-2.229V37.582h-3.862v9.712c.035 1.34.254 2.688 1.125 3.77 1.493 1.856 4.239 2.119 6.459 1.843 1.379-.17 2.587-.626 3.56-1.642.67-.7 1.085-1.804 1.204-2.754.074-.552.083-.644.083-1.217v-9.712h-2.78v9.712ZM96.618 39.67c1.704 0 3.394-.288 4.134 1.48.289.701.311 2.286-.372 2.96-.81.802-2.054.88-3.127.973l3.967 7.32h4.068l-3.599-6.528c2.145-.753 3.152-1.966 3.047-4.282-.114-2.5-2.228-4.01-4.641-4.01h-7.32v14.82h3.843V39.672ZM71.596 52.404l-5.723-14.822h-3.008l-5.56 14.822h2.7l3.74-10.019 3.8 10.019h4.05ZM71.78 37.582H68.63l-.959 2.535 1.366 3.547.495-1.279 3.7 10.019h4.273L71.78 37.582Z"></path><path fill="#fff" d="m64.787 47.232-1.923 5.172h2.457l.714-1.949-1.248-3.223Z"></path></svg>