<svg xmlns="http://www.w3.org/2000/svg" width="150" height="90" fill="none"><path fill="#fff" d="M27.066 44.444C26.778 38.028 21.448 33 15.063 33h-.577c-6.625.287-11.763 5.937-11.474 12.545.288 6.608 5.953 11.73 12.579 11.444 6.625-.288 11.763-5.938 11.475-12.545ZM12.902 55.313h-.624c-1.344-.144-2.977-.575-4.37-1.772-1.296-1.101-2.112-2.633-2.448-3.974-.384-1.389-.576-2.969.096-2.873.192 0 .528.91.912 1.58.385.67.72 1.006 1.009 1.245.144.096.576-.91 1.248-1.484.384-.335.816-.431.864.526.096 1.15-.144 2.586.24 2.586s1.056-.24 2.64-.383c.577-.048.961.048.385.862-.288.383-.672.957-1.584 1.628 1.344 1.245 2.976 1.101 2.976 1.628 0 .287-.576.479-1.392.479l.048-.048Zm7.442-.527c-1.104.766-2.353 1.15-3.985 1.245-.144 0-.384-.096-.384-.335 0-.24.384-.335.384-.335 3.6-.719 2.545-3.065 1.296-4.262-.528-.527-5.57-4.836-5.57-4.836-4.8-4.118-4.416-7.326-4.416-7.326.24-3.974 3.697-4.931 6.29-4.692.287 0 .48.24.431.479-.048.287-.48.287-.48.287-.816.048-1.584.144-2.16.527-2.113 1.436-1.489 3.83 1.344 6.512.384.335.72.718 1.104 1.053 0 0 .576.527 1.68 1.58 2.161 2.011 3.362 3.064 3.362 3.064 3.84 3.16 2.496 6.081 1.056 7.087l.048-.048Zm2.304-13.263c-1.2.862-2.4.526-2.88-1.197-.24-.862-.864-1.293-1.44-1.054-.625.24-.24 1.389.24 2.395.816 2.058-.817 2.298-1.44 2.298h-.193c-1.248-.24-1.488-1.389-1.488-1.389a3.262 3.262 0 0 1 0-1.532c.144-1.34.528-1.963.96-2.969.528-1.388-.816-2.202-.576-2.68.288-.671 1.248.19 2.304.238.913.048 1.44 0 2.16.096.961.144 2.113.431 2.594 1.054.48.526-.24 1.197-1.105.814-.624-.288-1.392-.144-.96.526.576.623.816.623 1.392.766 1.537.431 1.585 1.868.528 2.682l-.096-.048Zm11.235 7.086c.96.766 2.545 1.245 3.601 1.245s2.113-.574 2.113-1.676c0-1.1-.336-1.388-1.392-1.915-1.249-.622-2.257-1.005-3.17-1.82-.864-.718-1.44-1.675-1.44-3.016 0-1.34 1.537-3.16 4.177-3.16 2.641 0 2.641.24 3.745.718v2.011c0 .287-.288.383-.528.192-.912-.766-1.872-1.102-2.929-1.102-1.056 0-1.824.527-1.824 1.389s.24 1.053.672 1.389c.816.67 1.825 1.149 2.689 1.58 1.68.814 2.688 1.723 2.688 3.686 0 1.964-2.112 3.496-4.753 3.496-2.64 0-4.465-.958-4.129-1.724l.528-1.293h-.048Zm9.795-10.103h2.785v4.501a3.875 3.875 0 0 1 2.544-.957c2.017 0 3.41 1.197 3.41 2.872v6.512H49.87v-6.176c0-.91-.48-1.341-1.488-1.341s-1.296.287-1.92.766v6.751h-2.545V40.086c0-.574-.096-.814-.432-1.149-.192-.24-.048-.43.192-.43Zm13.54 3.879v9.097h-2.545v-7.517c0-.527-.096-.814-.385-1.15-.191-.239-.095-.478.145-.478h2.784v.048Zm.095-2.873c0 .862-.672 1.532-1.536 1.532s-1.537-.67-1.537-1.532.673-1.532 1.537-1.532c.864 0 1.536.67 1.536 1.532Zm1.969 2.873h2.689v.91c.672-.67 1.488-1.198 2.592-1.198 1.92 0 3.409 1.102 3.409 3.065v6.32h-2.545v-6.08c0-1.006-.432-1.485-1.488-1.485s-1.344.287-1.92.814v6.751h-2.545v-7.47c0-.574-.096-.813-.384-1.148-.24-.24-.096-.48.144-.48m10.755-3.878h2.784v4.501a3.875 3.875 0 0 1 2.545-.957c2.064 0 3.409 1.197 3.409 2.872v6.512h-2.545v-6.176c0-.91-.48-1.341-1.488-1.341-1.009 0-1.297.287-1.92.766v6.751h-2.545V40.086c0-.574-.097-.814-.433-1.149-.192-.24-.096-.43.192-.43Zm14.5 5.267c-1.01 0-2.017.431-2.738.91-.384.24-.576.096-.576-.24V42.72c.96-.431 2.4-.67 3.505-.67 2.545 0 3.985.957 3.985 2.968v6.416H86.17V50.43c-.72.862-1.729 1.293-2.833 1.293-1.825 0-3.073-1.15-3.073-2.873 0-1.724 1.344-3.16 4.177-3.16h1.633v-.67c0-.91-.577-1.246-1.585-1.246Zm1.584 3.64h-1.68c-1.25 0-1.73.574-1.73 1.436s.433 1.197 1.153 1.197 1.68-.431 2.209-1.054v-1.58h.048Zm4.417-5.028h2.688v.91c.672-.67 1.489-1.198 2.593-1.198 1.92 0 3.409 1.102 3.409 3.065v6.32h-2.545v-6.08c0-1.006-.432-1.485-1.488-1.485s-1.345.287-1.92.814v6.751h-2.545v-7.47c0-.574-.096-.813-.384-1.148-.24-.24-.096-.48.144-.48m15.796-3.542h4.465c2.688 0 4.369 1.244 4.369 3.16 0 1.915-.48 2.154-1.44 2.681 1.296.527 2.112 1.437 2.112 3.16 0 1.724-1.92 3.591-4.849 3.591h-4.417V40.47c0-.574-.096-.813-.432-1.149-.192-.24-.096-.478.144-.478m2.928 5.123h1.393c1.248 0 1.872-.431 1.872-1.676 0-1.245-.672-1.676-1.92-1.676h-1.345v3.352Zm3.889 3.734c0-1.34-.72-1.915-2.256-1.915h-1.585v3.879h1.633c1.536 0 2.256-.575 2.256-1.963m7.97-3.927c-1.008 0-2.016.431-2.736.91-.384.24-.576.096-.576-.24V42.72c.96-.431 2.4-.67 3.504-.67 2.545 0 3.985.957 3.985 2.968v6.416h-2.496V50.43c-.72.862-1.729 1.293-2.833 1.293-1.824 0-3.073-1.15-3.073-2.873 0-1.724 1.345-3.16 4.177-3.16h1.633v-.67c0-.91-.576-1.246-1.585-1.246Zm1.585 3.64h-1.681c-1.248 0-1.728.574-1.728 1.436s.432 1.197 1.152 1.197 1.681-.431 2.209-1.054v-1.58h.048Zm4.465-5.028h2.689v.91c.672-.67 1.488-1.198 2.592-1.198 1.921 0 3.409 1.102 3.409 3.065v6.32h-2.544v-6.08c0-1.006-.433-1.485-1.489-1.485s-1.344.287-1.92.814v6.751h-2.545v-7.47c0-.574-.096-.813-.384-1.148-.24-.24-.096-.48.144-.48m10.899 9.098V40.086c0-.574-.096-.814-.432-1.149-.192-.24-.096-.43.192-.43h2.784v7.42l3.217-3.542h2.929l-3.505 3.878 3.889 5.22h-2.833l-2.832-3.831c-.289-.383-.433-.48-.721-.48h-.24v4.262h-2.544l.096.048Z"></path></svg>