<svg xmlns="http://www.w3.org/2000/svg" width="150" height="90" fill="none"><path fill="#fff" d="M55.868 30.003a6.103 6.103 0 0 0-5.286 3.047 8.335 8.335 0 0 0-7.229 4.181c1.097-.005 2.378 1.056 3.521 2.923.581.95 1.125 2.105 1.595 3.372 2.203-.296 3.79-.791 4.282-1.334a11.425 11.425 0 0 0-3.099-3.06 24.678 24.678 0 0 0 3.694-.14c.162.632.297 1.296.407 1.964.191 1.181.288 2.372.282 3.435a4.47 4.47 0 0 1-.1.022 11.174 11.174 0 0 0-.57-1.215c-.506.676-2.146 1.294-4.436 1.67.256.824.48 1.677.664 2.542a27.1 27.1 0 0 1 .597 5.238c2.404-.797 4.066-2.028 4.525-3.35.013-.226.022-.453.022-.683v-.004a8.33 8.33 0 0 0 4.181-7.226 6.097 6.097 0 0 0 3.052-5.282A6.103 6.103 0 0 0 55.867 30m.001 1.21a4.895 4.895 0 0 1 2.938 8.811 8.34 8.34 0 0 0-6.85-6.858 4.885 4.885 0 0 1 3.911-1.955m-5.29 3.051h.005v.007c.557.006 1.215.717 1.8 1.947.297.624.571 1.38.809 2.205a27.14 27.14 0 0 1-4.674.051 11.737 11.737 0 0 0-.496-.242c.225-.757.482-1.45.758-2.029.584-1.228 1.242-1.933 1.8-1.931v-.007h-.001Zm-.291.007c-.591.166-1.246.834-1.837 1.842-.323.55-.622 1.206-.887 1.926a11.4 11.4 0 0 0-2.829-.72 7.123 7.123 0 0 1 5.554-3.05m.562.002c.033 0 .067 0 .1.002h.003c.12.007.24.016.359.029h.006a7.123 7.123 0 0 1 5.22 3.174c-.32.365-1.374.695-2.828.887-.292-.841-.634-1.609-1-2.236-.605-1.033-1.263-1.705-1.86-1.857M43.24 37.23a11.376 11.376 0 0 0-9.294 4.965c.502.54 2.091 1.033 4.289 1.328.47-1.269 1.012-2.424 1.595-3.375 1.103-1.8 2.341-2.851 3.41-2.916m.11.008c-.845.038-1.835 1.21-2.716 3.19-.414.932-.8 2.037-1.138 3.24a43.94 43.94 0 0 0 7.724-.007c-.342-1.22-.733-2.34-1.151-3.278-.88-1.976-1.874-3.115-2.718-3.145m13.438.642a7.086 7.086 0 0 1 .914 3.778v.023c-.003.083-.01.166-.015.248-.004.05-.01.099-.015.148-.324.848-1.418 1.63-2.97 2.123.006-1.084-.115-2.3-.356-3.494-.123-.61-.28-1.21-.458-1.786 1.5-.227 2.581-.613 2.9-1.038m.808 4.76a7.134 7.134 0 0 1-2.942 4.59c-.04-.33-.093-.657-.161-.978.05-.214.087-.442.12-.686.033-.259.057-.535.072-.82 1.474-.495 2.536-1.263 2.91-2.105Zm-24.258.545a11.33 11.33 0 0 0-1.354 6.087c.448 1.331 2.115 2.571 4.53 3.372.019-1.647.22-3.46.598-5.243a28.39 28.39 0 0 1 .66-2.532c-2.3-.38-3.942-1.003-4.435-1.684m5.796 1.869a36.92 36.92 0 0 0-.569 2.938 36.2 36.2 0 0 0-.424 5.1c1.608.365 3.41.56 5.214.56 1.804 0 3.606-.192 5.215-.557a36.036 36.036 0 0 0-.424-5.118 37.802 37.802 0 0 0-.567-2.919c-2.643.301-5.804.3-8.444-.003m-6.967 5.706a11.397 11.397 0 0 0 5.72 7.843c-.598-.723-1.034-1.926-1.239-3.474a15.718 15.718 0 0 1-.098-1.05c-2.223-.8-3.812-2.005-4.383-3.318m22.352.055c-.59 1.294-2.171 2.476-4.365 3.265-.022.364-.056.718-.1 1.054-.205 1.545-.64 2.742-1.237 3.464a11.4 11.4 0 0 0 5.702-7.783Zm-5.978 3.746c-1.598.396-3.391.606-5.185.607-1.795 0-3.587-.207-5.188-.6.02.45.057.879.103 1.282.186 1.613.572 2.806 1.09 3.423 1.24.465 2.584.72 3.988.72s2.762-.258 4.008-.727c.514-.62.895-1.813 1.08-3.423.046-.403.081-.834.104-1.283M89.5 37.726c-.812 0-1.32.812-1.32 1.42 0 .506.405.912.912.912.71 0 1.317-.608 1.317-1.42a.909.909 0 0 0-.912-.912h.002Zm25.292 4.866c-3.347 0-4.462 1.825-4.462 3.346 0 1.42 1.014 2.028 2.534 2.333l.609.1c.71.203 1.724.203 1.724 1.014 0 .508-.405 1.217-2.029 1.217-1.724 0-1.925-.203-3.447-.912l-.406 2.129c.912.304 2.433.609 3.447.609 2.839 0 4.766-1.42 4.766-3.548 0-1.521-1.216-2.028-2.838-2.333l-.508-.1c-.609-.102-1.623-.203-1.623-.912 0-.406.407-1.116 2.13-1.116 1.623.1 1.52.1 2.94.71l.407-1.927c-.913-.405-2.029-.608-3.244-.608m-44.201-4.968c-4.563 0-5.678 3.244-5.678 5.17 0 1.928 1.318 2.535 3.346 3.042l1.013.203c1.116.305 1.926.71 1.926 1.724 0 1.621-1.318 2.737-3.346 2.737-1.623 0-2.839-.507-4.158-1.42l-.406 2.332c1.42.406 2.738.912 4.26.912 4.969 0 6.368-3.146 6.184-5.171-.242-2.673-2.297-3.276-4.46-3.548-1.027-.129-1.928-.507-1.928-1.52 0-.811.507-2.535 3.144-2.535 1.623 0 2.332.304 3.65 1.014l.406-2.128c-1.013-.508-2.637-.812-3.853-.812h-.102m38.131.204-.913 4.967h-2.129c-4.564 0-5.678 3.626-5.678 5.778 0 2.153 1.319 3.55 3.853 3.55h4.461l2.534-14.195h-2.231l.102-.1h.001Zm-3.245 6.893h2.129l-1.014 5.576h-2.128c-1.419 0-2.13-.71-2.13-2.027 0-1.622.913-3.548 3.143-3.548m-6.879-6.894-2.535 14.192h2.231l2.535-14.192h-2.231Zm-3.636 4.866c-.71 0-1.42.405-1.927 1.013l.203-.912h-2.129l-1.622 9.225h2.129l.811-4.866c.203-1.115 1.012-2.737 2.23-2.737h.203c.609 0 1.114.304 1.318.71l.811-1.825c-.303-.405-1.315-.614-2.024-.614l-.002.007m-7.29.1-1.622 9.225h2.13l1.623-9.225h-2.13m-13.385 0 .913 9.225h2.128l2.434-5.474.507 5.474h2.129l4.259-9.225h-2.13l-2.433 5.475-.507-5.475h-2.13l-2.433 5.475-.508-5.475h-2.23"></path></svg>