<svg xmlns="http://www.w3.org/2000/svg" width="150" height="90" fill="none"><path fill="#fff" d="M92.779 31.472h-4.605L84.1 42.043h4.17l2.279-6.407 2.181 6.407h4.364l-4.315-10.57Zm-18.394 0v3.114h3.182v7.457h4.557v-7.457h3.037v-3.114H74.385Zm-3.037 0h-4.653l-4.074 10.571h4.17l2.219-6.407 2.23 6.407h4.41l-4.314-10.57h.012Zm-18.442 0v3.114h3.182v7.457h4.556v-7.457h3.086v-3.114H52.906ZM139.883 52.204c-1.458-.543-2.121-.917-2.121-1.725 0-.809.566-1.267 1.832-1.267.759 0 1.519.18 2.218.494l.47-1.544a6.019 6.019 0 0 0-2.64-.495c-2.399 0-3.905 1.315-3.905 3.005s1.181 2.413 2.965 3.04c1.41.495 1.977.954 1.977 1.726 0 .773-.711 1.412-2.025 1.412-.94 0-1.857-.241-2.688-.675l-.422 1.593a6.476 6.476 0 0 0 2.965.675c2.821 0 4.195-1.496 4.195-3.137 0-1.642-.892-2.414-2.821-3.09v-.012ZM131.88 51.48c0 1.46.048 2.909.193 4.357h-.049a25.685 25.685 0 0 0-1.88-3.5l-2.82-4.501h-2.303v10.45h1.833v-3.728c0-1.726 0-3.09-.097-4.453h.048a31.676 31.676 0 0 0 1.977 3.596l2.869 4.634h2.073v-10.45h-1.832v3.583l-.012.012ZM118.175 47.655c-3.11 0-5.231 2.268-5.231 5.503 0 3.234 1.977 5.321 5.086 5.321 3.11 0 5.28-2.003 5.28-5.502-.048-3.005-1.929-5.322-5.135-5.322Zm-.048 9.268c-1.929 0-3.062-1.726-3.062-3.814 0-2.087 1.037-3.958 3.062-3.958s3.061 1.859 3.061 3.862c-.048 2.184-1.133 3.91-3.061 3.91ZM111.208 47.836h-2.025v10.45h2.025v-10.45ZM99.577 49.429h3.158v8.857h2.025V49.43h3.158v-1.593h-8.341v1.593ZM94.31 47.836l-3.532 10.45h2.073l.94-2.956h3.484l.988 2.956h2.17l-3.58-10.45H94.31Zm-.242 6.046.844-2.595c.193-.64.374-1.363.518-1.955h.049c.156.664.337 1.316.566 1.955l.844 2.595h-2.82ZM86.62 49.248c.192-.012.385-.012.578 0 .747 0 1.483.133 2.17.41l.421-1.496a7.283 7.283 0 0 0-2.688-.459c-3.386 0-5.882 2.088-5.882 5.54 0 3.45 2.122 5.273 5.605 5.273a7.246 7.246 0 0 0 2.82-.495l-.325-1.496a6.034 6.034 0 0 1-2.121.361c-2.399 0-3.857-1.496-3.857-3.777a3.583 3.583 0 0 1 3.278-3.861ZM79.568 47.836h-2.025v10.45h2.025v-10.45ZM73.349 47.836v3.632c0 1.46.048 2.908.192 4.356h-.048a25.698 25.698 0 0 0-1.88-3.5l-2.82-4.5H66.49v10.45h1.832v-3.729c0-1.725 0-3.089-.096-4.453h.048a31.565 31.565 0 0 0 1.977 3.597l2.869 4.633h2.073v-10.45H73.36v-.048l-.012.012ZM62.151 53.93c0 2.04-.844 3.005-2.302 3.005-1.458 0-2.266-.954-2.266-3.005v-6.082h-1.977v5.998c0 3.318 1.651 4.633 4.195 4.633 2.543 0 4.375-1.411 4.375-4.682v-5.95h-2.025v6.083ZM50.279 47.836l-1.507 4.175a48.113 48.113 0 0 0-1.085 3.633h-.048a36.89 36.89 0 0 0-1.037-3.633l-1.458-4.223h-2.64l-.76 10.45h1.881l.241-4.224c.097-1.411.145-3.089.193-4.453h.048c.278 1.316.712 2.776 1.133 4.091l1.459 4.453h1.555l1.603-4.55c.47-1.315.94-2.726 1.314-4.042h.048c0 1.412.048 3.041.144 4.405l.193 4.272h1.977l-.615-10.366h-2.64v.012ZM36.767 47.836 35.26 52.01a48.16 48.16 0 0 0-1.085 3.633h-.048a36.834 36.834 0 0 0-1.037-3.633l-1.458-4.223h-2.64l-.76 10.45h1.881l.241-4.224c.097-1.411.145-3.089.193-4.453h.048c.278 1.316.712 2.776 1.133 4.091l1.459 4.453h1.555l1.603-4.55c.47-1.315.94-2.726 1.314-4.042h.048c0 1.412.048 3.041.145 4.405l.24 4.272h1.977l-.663-10.366h-2.64v.012ZM21.748 47.655c-3.11 0-5.23 2.268-5.23 5.503 0 3.234 1.976 5.321 5.086 5.321 3.11 0 5.279-2.003 5.279-5.502-.048-3.005-1.929-5.322-5.135-5.322Zm-.096 9.268c-1.929 0-3.062-1.726-3.062-3.814 0-2.087 1.085-3.958 3.062-3.958 1.977 0 3.061 1.859 3.061 3.862s-1.084 3.91-3.061 3.91ZM12.696 49.248c.193-.012.386-.012.579 0 .747 0 1.482.133 2.17.41l.421-1.496a7.283 7.283 0 0 0-2.688-.459c-3.387 0-5.882 2.088-5.882 5.54 0 3.45 2.122 5.273 5.605 5.273a7.246 7.246 0 0 0 2.82-.495l-.325-1.496a6.374 6.374 0 0 1-2.121.361c-2.399 0-3.857-1.496-3.857-3.777a3.584 3.584 0 0 1 3.29-3.861h-.012Z"></path></svg>