<?xml version="1.0" encoding="UTF-8"?>
<svg id="Layer_1" xmlns="http://www.w3.org/2000/svg" version="1.1" viewBox="0 0 641.2 100">
  <!-- Generator: Adobe Illustrator 30.1.0, SVG Export Plug-In . SVG Version: 2.1.1 Build 136)  -->
  <defs>
    <style>
      .st0 {
        fill: #fff;
      }
    </style>
  </defs>
  <g id="_x31_8M6O6.tif">
    <g>
      <path class="st0" d="M105.4,91.1h-3.6l-2.7-.2c-14.5-1.6-27.4-11.4-32.7-25h0c-.4.7-.8,1.9-1.2,2.7-6,12.3-18,20.8-31.6,22.4l-2.7.2c-1.2,0-2.4,0-3.6,0-1.5,0-4.3-.4-5.3-1.7-1.1-1.6,1.1-4.7,2.1-6,2.6-3.6,5.9-6.8,8.5-10.4,0,0,.2,0,.3,0,.7.2,1.6.7,2.4,1,3.5,1.1,7.6,1.7,11.2,1,8-1.4,14.8-8.2,18.7-15,.1-.2,1.2-2.3,1.2-2.3,2.7,5.7,7.1,11,12.4,14.3,5.1,3.1,10.2,3.9,16.1,2.6,1.6-.3,3.2-.9,4.7-1.5h.2c2.5,3.4,5.4,6.4,7.9,9.7,1,1.3,2.9,3.9,2.9,5.5,0,2.4-3.8,2.8-5.5,2.9h0Z"/>
      <path class="st0" d="M66.4,36c5.1-13,17.2-22.7,31-24.8,3-.5,9.4-1,12.1.4,3.2,1.6-.2,5.7-1.6,7.6-2.6,3.4-5.6,6.5-8.2,9.9h0c-1.4-.5-2.8-1-4.2-1.4-6.9-1.6-12.5-.4-18.1,3.9-4.6,3.5-8.3,8.4-10.8,13.6,0,0-.1-.1-.2-.2-.5-.8-.9-1.9-1.4-2.7-3.9-6.6-10.6-13.5-18.4-14.9-4.1-.7-8.5,0-12.3,1.4-.2,0-1.2.5-1.3.5-2.4-3.1-5-5.9-7.4-8.9-1.4-1.7-4.1-4.9-3.8-7.2.3-2,4.3-2.3,5.8-2.4,16.4-.7,31.1,8.9,37.9,23.4,0,.1.8,1.8.8,1.8h0Z"/>
      <path class="st0" d="M120.6,27.1c1.3,0,4.7-.2,5.7.8,1,1-.4,2.8-1,3.7-2.8,3.9-6.2,7-8.5,11.3-4.5,8.2-2.1,14.1,3.2,21,1.8,2.4,4.7,5.1,6.1,7.7,1.3,2.4,0,3.1-2.3,3.3-13.9,1-25.6-10.6-25.3-24.4.3-12.1,10-22.6,22.2-23.3h0Z"/>
      <path class="st0" d="M9.2,27.1c9.5-.8,18.7,4.8,22.9,13.2,6.7,13.5-.7,29.9-15.2,33.7-2.3.6-7.3,1.3-9.6.4-2.1-.9-.2-3.3.6-4.4,2.9-3.9,6.3-7,8.6-11.4,4.4-8.3,1.3-14.4-4-21.1-1.3-1.7-5.9-6.5-6.1-8.3-.2-1.7,1.4-1.9,2.7-2h0Z"/>
      <path class="st0" d="M43.9,35.6c7.7-.4,14.1,6.9,17.6,13.1.3.4,1.1,1.9,1.1,2.4,0,.6-1.7,3.4-2.1,4-2.9,4.6-8.1,10.4-13.7,11.3-2.5.4-5.7,0-8-.8-.2,0-.6-.2-.7-.3,1.9-3.3,3.5-6.9,4.1-10.7,1.1-6.4-.8-12.4-4-17.9,1.8-.7,3.8-1.1,5.7-1.1h0Z"/>
      <path class="st0" d="M94.8,36.4l-1.9,3.7c-3.1,6.7-3.5,12.8-.9,19.7.8,2.1,1.9,4.1,2.9,6-.8.2-1.6.5-2.4.6-5.8.9-9.8-.3-14.2-4.2-2.7-2.4-6.2-6.7-7.6-10-.5-1-.4-1.1,0-2.1,1.9-4.4,7.2-10.5,11.5-12.7,3.9-2.1,8.4-2,12.6-.9h0Z"/>
    </g>
  </g>
  <g>
    <path class="st0" d="M222.7,48.8v22.3h-12.1v-4.5c-2,2.1-4.7,3.5-8.2,4.6-3.5,1-7.1,1.5-11.1,1.5-11,0-19.2-1.8-24.4-5.3-5.3-3.5-7.9-9.1-7.9-16.6s2.6-12.9,7.9-16.5,13.4-5.3,24.4-5.3,10.1.4,14.1,1.1,7.2,1.9,9.7,3.3c2.5,1.5,4.3,3.2,5.5,5.3s1.9,4.4,2,7.1h-21.9c-.1-.3-.3-.7-.7-1.2-.4-.4-.9-.9-1.7-1.3-.7-.5-1.7-.8-2.9-1.1-1.3-.3-2.6-.4-4.2-.4-3.8,0-6.7.8-8.7,2.3-2,1.5-3,3.8-3,6.8,0,6.2,4.1,9.3,12.3,9.3s2.6-.1,3.8-.3c1.2-.2,2.2-.4,3-.7s1.5-.5,2.1-.9c.6-.3,1.1-.6,1.4-.8s.5-.4.5-.5h-9.6v-8.5h29.7,0Z"/>
    <path class="st0" d="M244.7,40.8v4.7h31v9.3h-31v5.3h33v10.9h-51.6V30.6h51.2v10.3h-32.6,0Z"/>
    <path class="st0" d="M321.7,30.6h17.5v40.5h-21.2l-19.3-20.6h-.5v20.6h-17.5V30.6h21.4l19.1,20.3h.5v-20.3h0Z"/>
    <path class="st0" d="M394.4,43.1h-32.9v5.9h31.3v11.1h-31.3v11h-18.6V30.7h51.5v12.5h0Z"/>
    <path class="st0" d="M415.9,71.1h-18.6V30.6h18.6v40.5Z"/>
    <path class="st0" d="M460.4,30.6h17.5v40.5h-21.2l-19.3-20.6h-.5v20.6h-17.5V30.6h21.4l19.1,20.3h.5v-20.3h0Z"/>
    <path class="st0" d="M500.2,71.1h-18.6V30.6h18.6v40.5Z"/>
    <path class="st0" d="M559.6,30.6v14h-19.1v26.5h-18.6v-26.5h-19.1v-14h56.8Z"/>
    <path class="st0" d="M623.3,30.6l-22.3,29.1v11.4h-18.6v-11.4l-22.4-29.1h22.4l9.3,13.7,9.3-13.7h22.4,0Z"/>
  </g>
</svg>