<?xml version="1.0" encoding="UTF-8"?> <svg xmlns="http://www.w3.org/2000/svg" width="400" height="400" viewBox="0 0 400 400" fill="none"><rect width="400" height="400" rx="200" fill="white"></rect><path d="M203.013 330C180.013 330 159.434 324.666 141.274 313.999C123.114 303.331 108.856 288.249 98.5003 268.751C88.1668 249.253 83 226.338 83 200.004C83 173.671 88.2485 150.848 98.7454 131.536C109.242 112.185 123.492 97.0913 141.494 86.2548C159.496 75.4183 180.002 70 203.013 70C234.673 70 260.253 77.9175 279.754 93.7524C299.254 109.587 311.67 131.336 317 159H261.473C258.396 147.364 251.204 137.24 241.231 130.505C231.055 123.495 218.139 119.993 202.481 119.998C191.114 120.007 179.965 123.119 170.238 129.001C160.096 135.002 151.926 143.92 145.728 155.754C139.53 167.588 136.451 182.338 136.49 200.004C136.49 217.344 139.575 232.009 145.745 244.001C151.915 255.993 160.084 265.077 170.255 271.253C179.93 277.282 191.098 280.485 202.497 280.5C218.499 280.5 231.332 277.001 240.995 270.002C250.658 263.003 257.489 253.336 261.49 241H316.983C310.318 268.337 297.319 290.004 277.987 306.002C258.656 322.001 233.664 330 203.013 330Z" fill="#447EF8"></path></svg> 