<?xml version="1.0" encoding="UTF-8"?> <svg xmlns="http://www.w3.org/2000/svg" width="400" height="400" viewBox="0 0 400 400" fill="none"><rect width="400" height="400" rx="200" fill="white"></rect><path d="M93 330L93.0122 95.4005L117.763 70H307V121.082L281.626 146.471H192.051V161.765H283.766V212.847L258.391 238.235H192.051V253.529H307V304.612L281.931 330H93ZM299.051 77.3412H121.431L102.783 96.3059H280.097V136.682L299.051 118.024V77.3412ZM184.714 145.859H165.76V188.071H256.557L257.474 188.988V228.447L276.429 209.788V169.106H184.714V145.859ZM184.714 237.624H165.76V279.835H280.097V320.212L299.051 301.553V260.871H184.714V237.624Z" fill="black"></path></svg> 