<?xml version="1.0" encoding="UTF-8"?> <svg xmlns="http://www.w3.org/2000/svg" width="400" height="400" viewBox="0 0 400 400" fill="none"><rect width="400" height="400" rx="200" fill="white"></rect><path d="M344.865 161.874C342.052 151.053 337.995 140.585 332.773 130.674L307.756 151.361L250.703 198.474L275.557 219.09L317.07 184.754C317.668 189.536 317.976 194.35 317.99 199.169C318.008 215.32 314.64 231.3 308.099 246.103L333.079 266.809C349.828 234.415 353.995 197.092 344.793 161.874H344.865Z" fill="#0000FD"></path><path d="M201.115 242.71L192.363 235.371L158.255 206.789L149.339 199.306L92.4383 151.574L67.5699 130.674C62.292 140.691 58.1805 151.279 55.316 162.231C46.0166 197.826 50.0669 235.59 66.7037 268.407L91.7345 247.489C85.3019 232.613 81.9912 216.576 82.0072 200.37C82.0209 195.378 82.3462 190.391 82.9817 185.439L124.489 220.188L133.422 227.671L167.495 256.253L176.247 263.592L201.115 284.456L226.11 263.574L235.495 255.712L210.626 234.866L201.115 242.71Z" fill="#0000FD"></path><path d="M126.796 107.855C129.705 105.459 132.734 103.23 135.883 101.169C163.242 83.0259 196.899 77.0644 228.819 84.7076C260.738 92.3503 288.054 112.912 304.246 141.484L328.67 121.03C306.491 85.1707 270.25 60.3165 228.831 52.5594C187.412 44.8022 144.644 54.8596 111.01 80.2659C108.029 82.5126 105.174 84.885 102.372 87.3475C94.3734 94.4009 87.1492 102.288 80.8216 110.875L285.784 283.044C245.705 324.005 182.052 330.321 134.716 298.033C131.537 295.877 128.466 293.558 125.521 291.113C114.273 281.718 104.849 270.331 97.7206 257.521L73.2432 277.993C100.441 322.709 148.964 350 201.271 350C253.578 350 302.101 322.709 329.298 277.993L304.839 257.467L126.796 107.855Z" fill="#0000FD"></path></svg> 