<?xml version="1.0" encoding="UTF-8"?> <svg xmlns="http://www.w3.org/2000/svg" width="400" height="400" viewBox="0 0 400 400" fill="none"><rect width="400" height="400" rx="200" fill="white"></rect><path d="M224.231 324.09C224.231 311.818 215.358 301.591 203.755 299.545V233.409C210.58 232.727 216.04 230 221.501 225.909L273.374 277.727C269.278 284.545 269.961 294.091 276.104 299.545C282.929 306.363 294.532 306.363 301.358 299.545C308.183 292.728 308.183 281.137 301.358 274.318C295.215 268.181 286.342 267.5 279.516 271.591L227.643 219.773C231.739 215 234.469 208.863 235.151 202.045H301.358C303.405 213.636 313.643 222.5 325.929 222.5C339.58 222.5 350.5 211.591 350.5 197.955C350.5 184.318 338.215 174.773 324.564 174.773C312.278 174.773 302.04 183.637 299.993 195.228H233.786C233.104 188.409 230.374 182.272 226.278 177.5L278.151 125.682C284.977 129.773 294.532 129.091 299.993 122.955C306.818 116.136 306.818 104.545 299.993 97.7273C293.167 90.9091 281.564 90.9091 274.739 97.7273C268.596 103.864 267.913 112.727 272.008 119.545L221.501 172.045C216.723 167.954 210.58 165.227 203.755 164.545V99.0909C215.358 97.0454 224.231 86.8182 224.231 74.5455C224.231 60.9091 213.31 50 199.658 50C186.008 50 175.087 60.9091 175.087 74.5455C175.087 86.8182 183.96 97.0454 195.563 99.0909V164.545C188.738 165.227 182.595 167.954 177.817 172.045L126.627 120.909C130.722 114.091 130.04 104.545 123.897 99.0909C117.072 92.2727 105.468 92.2727 98.643 99.0909C91.8175 105.909 91.8175 117.5 98.643 124.318C104.786 130.454 113.659 131.136 120.484 127.045L171.674 178.182C167.579 182.955 164.849 189.091 164.166 195.909H98.643C96.5953 184.318 86.3572 175.454 74.0715 175.454C60.4206 175.454 49.5 186.364 49.5 200C49.5 213.636 60.4206 224.546 74.0715 224.546C86.3572 224.546 96.5953 215.682 98.643 204.091H164.166C164.849 210.909 167.579 217.045 171.674 221.818L120.484 272.954C113.659 268.864 104.103 269.545 98.643 275.682C91.8175 282.5 91.8175 294.091 98.643 300.909C105.468 307.728 117.072 307.728 123.897 300.909C130.04 294.772 130.722 285.909 126.627 279.091L178.5 227.273C183.278 231.363 189.42 234.09 196.246 234.773V300.909C184.643 302.955 175.77 313.182 175.77 325.455C175.77 339.091 186.69 350 200.341 350C213.31 349.318 224.231 337.727 224.231 324.09Z" fill="black"></path></svg> 