<svg width="135" height="20" viewBox="0 0 135 20" fill="none" xmlns="http://www.w3.org/2000/svg">
<mask id="mask0_9233_14511" style="mask-type:luminance" maskUnits="userSpaceOnUse" x="0" y="0" width="135" height="20">
<path d="M134.54 0H0V19.3129H134.54V0Z" fill="white"/>
</mask>
<g mask="url(#mask0_9233_14511)">
<path d="M58.7167 19.3129C57.6896 19.3129 56.7499 19.1381 55.8964 18.7867C55.0433 18.4354 54.3177 17.958 53.7174 17.353C53.1171 16.748 52.6511 16.0296 52.3217 15.1962C51.99 14.3627 51.8259 13.4726 51.8259 12.5257C51.8259 11.5788 51.9994 10.6571 52.3483 9.81579C52.6966 8.97448 53.1748 8.2466 53.7845 7.63216C54.3943 7.01772 55.1118 6.53086 55.9387 6.17163C56.7657 5.81245 57.6567 5.63281 58.6148 5.63281C59.5734 5.63281 60.4643 5.79983 61.2913 6.13224C62.1183 6.46628 62.8263 6.93105 63.4189 7.52661C64.0098 8.1237 64.4758 8.8327 64.8147 9.65828C65.154 10.4822 65.3244 11.3771 65.3244 12.3413V13.4458H54.5164C54.7071 14.4636 55.1694 15.2781 55.8995 15.8925C56.6314 16.507 57.5706 16.8142 58.7198 16.8142C59.6076 16.8142 60.3769 16.5999 61.0304 16.1698C61.6834 15.7397 62.1823 15.1662 62.5307 14.4462L64.8286 15.735C64.2549 16.8221 63.4577 17.6917 62.4401 18.3392C61.4225 18.9884 60.1813 19.3129 58.7198 19.3129H58.7167ZM58.6121 8.10482C57.6364 8.10482 56.7968 8.37739 56.092 8.92094C55.3871 9.46449 54.904 10.175 54.6431 11.0526H62.4748C62.2652 10.1057 61.8227 9.37783 61.1426 8.86893C60.4643 8.36004 59.6202 8.1064 58.6103 8.1064L58.6121 8.10482Z" fill="black"/>
<path d="M97.7245 19.3129C96.6974 19.3129 95.7582 19.1381 94.9046 18.7867C94.0511 18.4354 93.3255 17.958 92.7252 17.353C92.1254 16.748 91.6594 16.0296 91.3295 15.1962C90.9982 14.3627 90.8337 13.4726 90.8337 12.5257C90.8337 11.5788 91.0072 10.6571 91.3561 9.81579C91.7044 8.97448 92.183 8.2466 92.7928 7.63216C93.4021 7.01772 94.12 6.53086 94.9465 6.17163C95.7735 5.81245 96.6649 5.63281 97.6231 5.63281C98.5812 5.63281 99.4722 5.79983 100.299 6.13224C101.126 6.46628 101.836 6.93105 102.427 7.52661C103.018 8.1237 103.484 8.8327 103.823 9.65828C104.162 10.4822 104.332 11.3771 104.332 12.3413V13.4458H93.5242C93.7149 14.4636 94.1759 15.2781 94.9078 15.8925C95.6392 16.507 96.5789 16.8142 97.7276 16.8142C98.6154 16.8142 99.3847 16.5999 100.038 16.1698C100.692 15.7397 101.19 15.1662 101.539 14.4462L103.837 15.735C103.263 16.8221 102.466 17.6917 101.448 18.3392C100.431 18.9884 99.1891 19.3129 97.7276 19.3129H97.7245ZM97.6213 8.10482C96.646 8.10482 95.8064 8.37739 95.1016 8.92094C94.3963 9.46449 93.9136 10.175 93.6522 11.0526H101.484C101.275 10.1057 100.832 9.37783 100.152 8.86893C99.474 8.36004 98.6299 8.1064 97.6199 8.1064L97.6213 8.10482Z" fill="black"/>
<path d="M112.737 19.3013C111.71 19.3013 110.77 19.1264 109.917 18.775C109.063 18.4237 108.338 17.9463 107.738 17.3413C107.137 16.7363 106.671 16.0179 106.34 15.1845C106.009 14.351 105.845 13.4608 105.845 12.514C105.845 11.5671 106.018 10.6454 106.367 9.80411C106.714 8.96276 107.194 8.23488 107.802 7.62044C108.411 7.006 109.129 6.51914 109.956 6.15996C110.783 5.80073 111.674 5.62109 112.632 5.62109C113.59 5.62109 114.481 5.78811 115.308 6.12057C116.135 6.45456 116.843 6.91934 117.436 7.51489C118.027 8.11199 118.493 8.82098 118.832 9.64656C119.171 10.4705 119.341 11.3654 119.341 12.3296V13.4341H108.533C108.724 14.4519 109.185 15.2664 109.917 15.8808C110.648 16.4953 111.588 16.8025 112.737 16.8025C113.625 16.8025 114.394 16.5883 115.047 16.1581C115.699 15.728 116.199 15.1545 116.548 14.4345L118.846 15.7233C118.272 16.8104 117.475 17.68 116.457 18.3276C115.439 18.9767 114.198 19.3013 112.737 19.3013ZM112.632 8.0931C111.657 8.0931 110.817 8.36567 110.112 8.90922C109.407 9.45277 108.924 10.1633 108.663 11.0409H116.495C116.285 10.094 115.843 9.36611 115.163 8.85721C114.484 8.34832 113.64 8.09468 112.63 8.09468L112.632 8.0931Z" fill="black"/>
<path d="M43.5984 16.735C44.1674 16.735 44.7021 16.6263 45.2022 16.4089C45.7024 16.1915 46.1369 15.8921 46.5078 15.5093C46.8782 15.1265 47.1671 14.6759 47.3735 14.1544C47.5799 13.6329 47.6845 13.0767 47.6845 12.4859C47.6845 11.8951 47.5817 11.3437 47.3735 10.83C47.1671 10.318 46.8782 9.87055 46.5078 9.48771C46.1369 9.10644 45.7011 8.80553 45.2022 8.58809C44.7021 8.37068 44.1674 8.26198 43.5984 8.26198C43.0294 8.26198 42.4729 8.37541 41.982 8.6007C41.4912 8.82599 41.0644 9.13164 40.7017 9.5129C40.3391 9.89579 40.0546 10.3432 39.8482 10.8553C39.6419 11.3673 39.5371 11.9109 39.5371 12.4843C39.5371 13.0578 39.6403 13.6266 39.8482 14.1402C40.0546 14.6522 40.3391 15.1012 40.7017 15.4825C41.0644 15.8653 41.4912 16.1694 41.982 16.3947C42.4729 16.62 43.0122 16.7334 43.5984 16.7334V16.735ZM44.0127 19.2889C43.1341 19.2889 42.3103 19.1109 41.5428 18.7548C40.7752 18.3987 40.1499 17.8993 39.6685 17.2565V19.0494H36.9531V0H39.695V7.74204C40.1781 7.13391 40.794 6.64705 41.5443 6.28156C42.2947 5.91602 43.1091 5.73486 43.9892 5.73486C44.8693 5.73486 45.6447 5.89083 46.4199 6.20436C47.1955 6.51789 47.8818 6.96847 48.4758 7.5593C49.0712 8.15013 49.5448 8.86223 49.8981 9.69727C50.2515 10.5307 50.4281 11.4697 50.4281 12.5127C50.4281 13.5557 50.247 14.4931 49.8855 15.3281C49.5232 16.1615 49.0446 16.8705 48.4506 17.4519C47.8553 18.0348 47.1734 18.4854 46.4077 18.8068C45.6398 19.1282 44.8427 19.2889 44.0142 19.2889H44.0127Z" fill="black"/>
<path d="M83.9387 16.3963C84.4295 16.171 84.8562 15.8669 85.219 15.4841C85.5818 15.1028 85.8662 14.6538 86.0726 14.1418C86.279 13.6297 86.3836 13.0767 86.3836 12.4859C86.3836 11.8951 86.2804 11.3689 86.0726 10.8568C85.8662 10.3448 85.5818 9.89732 85.219 9.51448C84.8562 9.13321 84.4295 8.82757 83.9387 8.60228C83.4479 8.37699 82.9085 8.26356 82.3221 8.26356C81.7363 8.26356 81.2189 8.37226 80.7187 8.58966C80.2184 8.80711 79.7835 9.10644 79.4131 9.48929C79.0426 9.87213 78.7533 10.3196 78.5473 10.8316C78.3409 11.3437 78.2359 11.8967 78.2359 12.4875C78.2359 13.0783 78.3391 13.6344 78.5473 14.156C78.7533 14.6774 79.0426 15.1296 79.4131 15.5109C79.7835 15.8937 80.2198 16.193 80.7187 16.4104C81.2189 16.6279 81.7534 16.7366 82.3221 16.7366C82.8913 16.7366 83.4479 16.6232 83.9387 16.3979V16.3963ZM79.5163 18.8068C78.7488 18.4854 78.0687 18.0332 77.4734 17.4519C76.8776 16.8705 76.3994 16.1615 76.038 15.3281C75.677 14.4931 75.4958 13.5557 75.4958 12.5127C75.4958 11.4697 75.6725 10.5323 76.0258 9.69727C76.3792 8.8638 76.8528 8.15013 77.4481 7.5593C78.0421 6.96847 78.7285 6.51632 79.5036 6.20436C80.2792 5.89083 81.0905 5.73486 81.9346 5.73486C82.7787 5.73486 83.6291 5.9176 84.3794 6.28156C85.1298 6.64705 85.7459 7.13391 86.229 7.74204V0H88.9708V19.0494H86.2556V17.2565C85.7725 17.8993 85.1487 18.3987 84.3812 18.7548C83.6138 19.1109 82.7899 19.2889 81.9111 19.2889C81.0841 19.2889 80.2869 19.1282 79.5194 18.8068H79.5163Z" fill="black"/>
<path d="M67.1626 5.734H69.9324V7.74277C70.2781 7.09998 70.7441 6.60365 71.3299 6.25547C71.9163 5.90728 72.6418 5.734 73.5044 5.734H75.0317V8.39502H73.0902C71.9523 8.39502 71.1443 8.70855 70.6706 9.33403C70.1951 9.95952 69.959 10.9521 69.959 12.307L69.9716 19.0487H67.1626V5.73242V5.734Z" fill="black"/>
<path d="M127.856 8.62073C129.964 8.62073 131.677 10.3475 131.677 12.4712V19.0491H134.541V12.4712C134.541 8.74989 131.547 5.73438 127.856 5.73438C124.164 5.73438 121.172 8.75147 121.172 12.4712V19.0491H124.036V12.4712C124.036 10.3475 125.749 8.62073 127.856 8.62073Z" fill="black"/>
<path d="M32.0476 14.1508C31.8412 14.6723 31.552 15.1245 31.1815 15.5058C30.8111 15.8886 30.3749 16.188 29.8747 16.4054C29.3745 16.6228 28.8398 16.7315 28.2708 16.7315C27.7018 16.7315 27.1453 16.6181 26.6544 16.3928C26.1636 16.1675 25.7368 15.8634 25.3742 15.4806C25.0115 15.0993 24.727 14.6503 24.5207 14.1382C24.3143 13.6262 24.2096 13.0732 24.2096 12.4824C24.2096 11.8915 24.3127 11.3653 24.5207 10.8533C24.727 10.3412 25.0115 9.89381 25.3742 9.51096C25.7368 9.12965 26.1636 8.82401 26.6544 8.59872C27.1453 8.37343 27.6846 8.26 28.2708 8.26C28.857 8.26 29.3745 8.3687 29.8747 8.5861C30.3749 8.80355 30.8095 9.10288 31.1815 9.48573C31.552 9.86857 31.8412 10.316 32.0476 10.8281C32.2539 11.3401 32.3586 11.8931 32.3586 12.4839C32.3586 13.0748 32.2555 13.6309 32.0476 14.1524V14.1508ZM34.5456 9.83865C34.2001 9.01149 33.7296 8.29308 33.134 7.68494C32.5384 7.07519 31.8334 6.59784 31.0221 6.24808C30.2092 5.89989 29.3385 5.72656 28.4052 5.72656C27.472 5.72656 26.5997 5.90147 25.7884 6.24808C24.9771 6.59626 24.2643 7.07519 23.6515 7.68494C23.0387 8.29465 22.5588 9.01307 22.2133 9.83865C21.8678 10.6658 21.6943 11.5575 21.6943 12.5154C21.6943 13.4733 21.8663 14.3651 22.2133 15.1922C22.5588 16.0194 23.0294 16.7331 23.6249 17.3334C24.2205 17.9337 24.9209 18.4078 25.7244 18.756C26.5278 19.1042 27.3954 19.2775 28.3287 19.2775C29.1916 19.2775 29.9654 19.1074 30.6469 18.7686C31.3285 18.4283 31.8944 17.9557 32.3446 17.346V19.0475H35.0646V12.5139C35.0646 11.556 34.8911 10.6642 34.5456 9.83707V9.83865Z" fill="black"/>
<path d="M14.5984 18.0625C14.3389 18.0625 14.1279 18.2752 14.1279 18.5367C14.1279 18.7983 14.3389 19.0109 14.5984 19.0109C14.8579 19.0109 15.069 18.7983 15.069 18.5367C15.069 18.2752 14.8579 18.0625 14.5984 18.0625Z" fill="black"/>
<path d="M13.6571 18.0625C13.3976 18.0625 13.1865 18.2752 13.1865 18.5367C13.1865 18.7983 13.3976 19.0109 13.6571 19.0109C13.9166 19.0109 14.1276 18.7983 14.1276 18.5367C14.1276 18.2752 13.9166 18.0625 13.6571 18.0625Z" fill="black"/>
<path d="M16.4822 18.0625C16.2227 18.0625 16.0117 18.2752 16.0117 18.5367C16.0117 18.7983 16.2227 19.0109 16.4822 19.0109C16.7417 19.0109 16.9528 18.7983 16.9528 18.5367C16.9528 18.2752 16.7417 18.0625 16.4822 18.0625Z" fill="black"/>
<path d="M15.5404 18.0625C15.2809 18.0625 15.0698 18.2752 15.0698 18.5367C15.0698 18.7983 15.2809 19.0109 15.5404 19.0109C15.7999 19.0109 16.0109 18.7983 16.0109 18.5367C16.0109 18.2752 15.7999 18.0625 15.5404 18.0625Z" fill="black"/>
<path d="M14.5984 17.1133C14.3389 17.1133 14.1279 17.326 14.1279 17.5875C14.1279 17.849 14.3389 18.0618 14.5984 18.0618C14.8579 18.0618 15.069 17.849 15.069 17.5875C15.069 17.326 14.8579 17.1133 14.5984 17.1133Z" fill="black"/>
<path d="M13.6571 17.1133C13.3976 17.1133 13.1865 17.326 13.1865 17.5875C13.1865 17.849 13.3976 18.0618 13.6571 18.0618C13.9166 18.0618 14.1276 17.849 14.1276 17.5875C14.1276 17.326 13.9166 17.1133 13.6571 17.1133Z" fill="black"/>
<path d="M16.4822 17.1133C16.2227 17.1133 16.0117 17.326 16.0117 17.5875C16.0117 17.849 16.2227 18.0618 16.4822 18.0618C16.7417 18.0618 16.9528 17.849 16.9528 17.5875C16.9528 17.326 16.7417 17.1133 16.4822 17.1133Z" fill="black"/>
<path d="M15.5404 17.1133C15.2809 17.1133 15.0698 17.326 15.0698 17.5875C15.0698 17.849 15.2809 18.0618 15.5404 18.0618C15.7999 18.0618 16.0109 17.849 16.0109 17.5875C16.0109 17.326 15.7999 17.1133 15.5404 17.1133Z" fill="black"/>
<path d="M14.5984 16.1621C14.3389 16.1621 14.1279 16.3748 14.1279 16.6363C14.1279 16.8979 14.3389 17.1105 14.5984 17.1105C14.8579 17.1105 15.069 16.8979 15.069 16.6363C15.069 16.3748 14.8579 16.1621 14.5984 16.1621Z" fill="black"/>
<path d="M13.6571 16.1621C13.3976 16.1621 13.1865 16.3748 13.1865 16.6363C13.1865 16.8979 13.3976 17.1105 13.6571 17.1105C13.9166 17.1105 14.1276 16.8979 14.1276 16.6363C14.1276 16.3748 13.9166 16.1621 13.6571 16.1621Z" fill="black"/>
<path d="M16.4822 16.1621C16.2227 16.1621 16.0117 16.3748 16.0117 16.6363C16.0117 16.8979 16.2227 17.1105 16.4822 17.1105C16.7417 17.1105 16.9528 16.8979 16.9528 16.6363C16.9528 16.3748 16.7417 16.1621 16.4822 16.1621Z" fill="black"/>
<path d="M15.5404 16.1621C15.2809 16.1621 15.0698 16.3748 15.0698 16.6363C15.0698 16.8979 15.2809 17.1105 15.5404 17.1105C15.7999 17.1105 16.0109 16.8979 16.0109 16.6363C16.0109 16.3748 15.7999 16.1621 15.5404 16.1621Z" fill="black"/>
<path d="M14.5984 15.2148C14.3389 15.2148 14.1279 15.4275 14.1279 15.689C14.1279 15.9507 14.3389 16.1633 14.5984 16.1633C14.8579 16.1633 15.069 15.9507 15.069 15.689C15.069 15.4275 14.8579 15.2148 14.5984 15.2148Z" fill="black"/>
<path d="M13.6571 15.2148C13.3976 15.2148 13.1865 15.4275 13.1865 15.689C13.1865 15.9507 13.3976 16.1633 13.6571 16.1633C13.9166 16.1633 14.1276 15.9507 14.1276 15.689C14.1276 15.4275 13.9166 15.2148 13.6571 15.2148Z" fill="black"/>
<path d="M16.4822 15.2148C16.2227 15.2148 16.0117 15.4275 16.0117 15.689C16.0117 15.9507 16.2227 16.1633 16.4822 16.1633C16.7417 16.1633 16.9528 15.9507 16.9528 15.689C16.9528 15.4275 16.7417 15.2148 16.4822 15.2148Z" fill="black"/>
<path d="M15.5404 15.2148C15.2809 15.2148 15.0698 15.4275 15.0698 15.689C15.0698 15.9507 15.2809 16.1633 15.5404 16.1633C15.7999 16.1633 16.0109 15.9507 16.0109 15.689C16.0109 15.4275 15.7999 15.2148 15.5404 15.2148Z" fill="black"/>
<path d="M14.5984 14.2637C14.3389 14.2637 14.1279 14.4764 14.1279 14.7379C14.1279 14.9994 14.3389 15.2121 14.5984 15.2121C14.8579 15.2121 15.069 14.9994 15.069 14.7379C15.069 14.4764 14.8579 14.2637 14.5984 14.2637Z" fill="black"/>
<path d="M13.6571 14.2637C13.3976 14.2637 13.1865 14.4764 13.1865 14.7379C13.1865 14.9994 13.3976 15.2121 13.6571 15.2121C13.9166 15.2121 14.1276 14.9994 14.1276 14.7379C14.1276 14.4764 13.9166 14.2637 13.6571 14.2637Z" fill="black"/>
<path d="M16.4822 14.2637C16.2227 14.2637 16.0117 14.4764 16.0117 14.7379C16.0117 14.9994 16.2227 15.2121 16.4822 15.2121C16.7417 15.2121 16.9528 14.9994 16.9528 14.7379C16.9528 14.4764 16.7417 14.2637 16.4822 14.2637Z" fill="black"/>
<path d="M15.5404 14.2637C15.2809 14.2637 15.0698 14.4764 15.0698 14.7379C15.0698 14.9994 15.2809 15.2121 15.5404 15.2121C15.7999 15.2121 16.0109 14.9994 16.0109 14.7379C16.0109 14.4764 15.7999 14.2637 15.5404 14.2637Z" fill="black"/>
<path d="M14.5984 13.3164C14.3389 13.3164 14.1279 13.5291 14.1279 13.7906C14.1279 14.0522 14.3389 14.2648 14.5984 14.2648C14.8579 14.2648 15.069 14.0522 15.069 13.7906C15.069 13.5291 14.8579 13.3164 14.5984 13.3164Z" fill="black"/>
<path d="M13.6571 13.3164C13.3976 13.3164 13.1865 13.5291 13.1865 13.7906C13.1865 14.0522 13.3976 14.2648 13.6571 14.2648C13.9166 14.2648 14.1276 14.0522 14.1276 13.7906C14.1276 13.5291 13.9166 13.3164 13.6571 13.3164Z" fill="black"/>
<path d="M16.4822 13.3164C16.2227 13.3164 16.0117 13.5291 16.0117 13.7906C16.0117 14.0522 16.2227 14.2648 16.4822 14.2648C16.7417 14.2648 16.9528 14.0522 16.9528 13.7906C16.9528 13.5291 16.7417 13.3164 16.4822 13.3164Z" fill="black"/>
<path d="M15.5404 13.3164C15.2809 13.3164 15.0698 13.5291 15.0698 13.7906C15.0698 14.0522 15.2809 14.2648 15.5404 14.2648C15.7999 14.2648 16.0109 14.0522 16.0109 13.7906C16.0109 13.5291 15.7999 13.3164 15.5404 13.3164Z" fill="black"/>
<path d="M14.5984 12.3652C14.3389 12.3652 14.1279 12.578 14.1279 12.8395C14.1279 13.101 14.3389 13.3137 14.5984 13.3137C14.8579 13.3137 15.069 13.101 15.069 12.8395C15.069 12.578 14.8579 12.3652 14.5984 12.3652Z" fill="black"/>
<path d="M13.6571 12.3652C13.3976 12.3652 13.1865 12.578 13.1865 12.8395C13.1865 13.101 13.3976 13.3137 13.6571 13.3137C13.9166 13.3137 14.1276 13.101 14.1276 12.8395C14.1276 12.578 13.9166 12.3652 13.6571 12.3652Z" fill="black"/>
<path d="M16.4822 12.3652C16.2227 12.3652 16.0117 12.578 16.0117 12.8395C16.0117 13.101 16.2227 13.3137 16.4822 13.3137C16.7417 13.3137 16.9528 13.101 16.9528 12.8395C16.9528 12.578 16.7417 12.3652 16.4822 12.3652Z" fill="black"/>
<path d="M15.5404 12.3652C15.2809 12.3652 15.0698 12.578 15.0698 12.8395C15.0698 13.101 15.2809 13.3137 15.5404 13.3137C15.7999 13.3137 16.0109 13.101 16.0109 12.8395C16.0109 12.578 15.7999 12.3652 15.5404 12.3652Z" fill="black"/>
<path d="M14.5984 11.418C14.3389 11.418 14.1279 11.6306 14.1279 11.8922C14.1279 12.1537 14.3389 12.3664 14.5984 12.3664C14.8579 12.3664 15.069 12.1537 15.069 11.8922C15.069 11.6306 14.8579 11.418 14.5984 11.418Z" fill="black"/>
<path d="M13.6571 11.418C13.3976 11.418 13.1865 11.6306 13.1865 11.8922C13.1865 12.1537 13.3976 12.3664 13.6571 12.3664C13.9166 12.3664 14.1276 12.1537 14.1276 11.8922C14.1276 11.6306 13.9166 11.418 13.6571 11.418Z" fill="black"/>
<path d="M16.4822 11.418C16.2227 11.418 16.0117 11.6306 16.0117 11.8922C16.0117 12.1537 16.2227 12.3664 16.4822 12.3664C16.7417 12.3664 16.9528 12.1537 16.9528 11.8922C16.9528 11.6306 16.7417 11.418 16.4822 11.418Z" fill="black"/>
<path d="M15.5404 11.418C15.2809 11.418 15.0698 11.6306 15.0698 11.8922C15.0698 12.1537 15.2809 12.3664 15.5404 12.3664C15.7999 12.3664 16.0109 12.1537 16.0109 11.8922C16.0109 11.6306 15.7999 11.418 15.5404 11.418Z" fill="black"/>
<path d="M14.5984 10.4668C14.3389 10.4668 14.1279 10.6795 14.1279 10.941C14.1279 11.2026 14.3389 11.4152 14.5984 11.4152C14.8579 11.4152 15.069 11.2026 15.069 10.941C15.069 10.6795 14.8579 10.4668 14.5984 10.4668Z" fill="black"/>
<path d="M13.6571 10.4668C13.3976 10.4668 13.1865 10.6795 13.1865 10.941C13.1865 11.2026 13.3976 11.4152 13.6571 11.4152C13.9166 11.4152 14.1276 11.2026 14.1276 10.941C14.1276 10.6795 13.9166 10.4668 13.6571 10.4668Z" fill="black"/>
<path d="M16.4822 10.4668C16.2227 10.4668 16.0117 10.6795 16.0117 10.941C16.0117 11.2026 16.2227 11.4152 16.4822 11.4152C16.7417 11.4152 16.9528 11.2026 16.9528 10.941C16.9528 10.6795 16.7417 10.4668 16.4822 10.4668Z" fill="black"/>
<path d="M15.5404 10.4668C15.2809 10.4668 15.0698 10.6795 15.0698 10.941C15.0698 11.2026 15.2809 11.4152 15.5404 11.4152C15.7999 11.4152 16.0109 11.2026 16.0109 10.941C16.0109 10.6795 15.7999 10.4668 15.5404 10.4668Z" fill="black"/>
<path d="M14.5984 9.51953C14.3389 9.51953 14.1279 9.7322 14.1279 9.99377C14.1279 10.2553 14.3389 10.468 14.5984 10.468C14.8579 10.468 15.069 10.2553 15.069 9.99377C15.069 9.7322 14.8579 9.51953 14.5984 9.51953Z" fill="black"/>
<path d="M13.6571 9.51953C13.3976 9.51953 13.1865 9.7322 13.1865 9.99377C13.1865 10.2553 13.3976 10.468 13.6571 10.468C13.9166 10.468 14.1276 10.2553 14.1276 9.99377C14.1276 9.7322 13.9166 9.51953 13.6571 9.51953Z" fill="black"/>
<path d="M16.4822 9.51953C16.2227 9.51953 16.0117 9.7322 16.0117 9.99377C16.0117 10.2553 16.2227 10.468 16.4822 10.468C16.7417 10.468 16.9528 10.2553 16.9528 9.99377C16.9528 9.7322 16.7417 9.51953 16.4822 9.51953Z" fill="black"/>
<path d="M15.5404 9.51953C15.2809 9.51953 15.0698 9.7322 15.0698 9.99377C15.0698 10.2553 15.2809 10.468 15.5404 10.468C15.7999 10.468 16.0109 10.2553 16.0109 9.99377C16.0109 9.7322 15.7999 9.51953 15.5404 9.51953Z" fill="black"/>
<path d="M14.5984 8.57031C14.3389 8.57031 14.1279 8.78298 14.1279 9.04451C14.1279 9.30607 14.3389 9.51875 14.5984 9.51875C14.8579 9.51875 15.069 9.30607 15.069 9.04451C15.069 8.78298 14.8579 8.57031 14.5984 8.57031Z" fill="black"/>
<path d="M13.6571 8.57031C13.3976 8.57031 13.1865 8.78298 13.1865 9.04451C13.1865 9.30607 13.3976 9.51875 13.6571 9.51875C13.9166 9.51875 14.1276 9.30607 14.1276 9.04451C14.1276 8.78298 13.9166 8.57031 13.6571 8.57031Z" fill="black"/>
<path d="M16.4822 8.57031C16.2227 8.57031 16.0117 8.78298 16.0117 9.04451C16.0117 9.30607 16.2227 9.51875 16.4822 9.51875C16.7417 9.51875 16.9528 9.30607 16.9528 9.04451C16.9528 8.78298 16.7417 8.57031 16.4822 8.57031Z" fill="black"/>
<path d="M15.5404 8.57031C15.2809 8.57031 15.0698 8.78298 15.0698 9.04451C15.0698 9.30607 15.2809 9.51875 15.5404 9.51875C15.7999 9.51875 16.0109 9.30607 16.0109 9.04451C16.0109 8.78298 15.7999 8.57031 15.5404 8.57031Z" fill="black"/>
<path d="M14.5984 7.62109C14.3389 7.62109 14.1279 7.83381 14.1279 8.09533C14.1279 8.35686 14.3389 8.56957 14.5984 8.56957C14.8579 8.56957 15.069 8.35686 15.069 8.09533C15.069 7.83381 14.8579 7.62109 14.5984 7.62109Z" fill="black"/>
<path d="M13.6571 7.62109C13.3976 7.62109 13.1865 7.83381 13.1865 8.09533C13.1865 8.35686 13.3976 8.56957 13.6571 8.56957C13.9166 8.56957 14.1276 8.35686 14.1276 8.09533C14.1276 7.83381 13.9166 7.62109 13.6571 7.62109Z" fill="black"/>
<path d="M16.4822 7.62109C16.2227 7.62109 16.0117 7.83381 16.0117 8.09533C16.0117 8.35686 16.2227 8.56957 16.4822 8.56957C16.7417 8.56957 16.9528 8.35686 16.9528 8.09533C16.9528 7.83381 16.7417 7.62109 16.4822 7.62109Z" fill="black"/>
<path d="M15.5404 7.62109C15.2809 7.62109 15.0698 7.83381 15.0698 8.09533C15.0698 8.35686 15.2809 8.56957 15.5404 8.56957C15.7999 8.56957 16.0109 8.35686 16.0109 8.09533C16.0109 7.83381 15.7999 7.62109 15.5404 7.62109Z" fill="black"/>
<path d="M14.5984 6.67188C14.3389 6.67188 14.1279 6.88455 14.1279 7.14611C14.1279 7.40764 14.3389 7.62031 14.5984 7.62031C14.8579 7.62031 15.069 7.40764 15.069 7.14611C15.069 6.88455 14.8579 6.67188 14.5984 6.67188Z" fill="black"/>
<path d="M13.6571 6.67188C13.3976 6.67188 13.1865 6.88455 13.1865 7.14611C13.1865 7.40764 13.3976 7.62031 13.6571 7.62031C13.9166 7.62031 14.1276 7.40764 14.1276 7.14611C14.1276 6.88455 13.9166 6.67188 13.6571 6.67188Z" fill="black"/>
<path d="M16.4822 6.67188C16.2227 6.67188 16.0117 6.88455 16.0117 7.14611C16.0117 7.40764 16.2227 7.62031 16.4822 7.62031C16.7417 7.62031 16.9528 7.40764 16.9528 7.14611C16.9528 6.88455 16.7417 6.67188 16.4822 6.67188Z" fill="black"/>
<path d="M15.5404 6.67188C15.2809 6.67188 15.0698 6.88455 15.0698 7.14611C15.0698 7.40764 15.2809 7.62031 15.5404 7.62031C15.7999 7.62031 16.0109 7.40764 16.0109 7.14611C16.0109 6.88455 15.7999 6.67188 15.5404 6.67188Z" fill="black"/>
<path d="M14.5984 5.72266C14.3389 5.72266 14.1279 5.93533 14.1279 6.19685C14.1279 6.45842 14.3389 6.67109 14.5984 6.67109C14.8579 6.67109 15.069 6.45842 15.069 6.19685C15.069 5.93533 14.8579 5.72266 14.5984 5.72266Z" fill="black"/>
<path d="M13.6571 5.72266C13.3976 5.72266 13.1865 5.93533 13.1865 6.19685C13.1865 6.45842 13.3976 6.67109 13.6571 6.67109C13.9166 6.67109 14.1276 6.45842 14.1276 6.19685C14.1276 5.93533 13.9166 5.72266 13.6571 5.72266Z" fill="black"/>
<path d="M16.4822 5.72266C16.2227 5.72266 16.0117 5.93533 16.0117 6.19685C16.0117 6.45842 16.2227 6.67109 16.4822 6.67109C16.7417 6.67109 16.9528 6.45842 16.9528 6.19685C16.9528 5.93533 16.7417 5.72266 16.4822 5.72266Z" fill="black"/>
<path d="M15.5404 5.72266C15.2809 5.72266 15.0698 5.93533 15.0698 6.19685C15.0698 6.45842 15.2809 6.67109 15.5404 6.67109C15.7999 6.67109 16.0109 6.45842 16.0109 6.19685C16.0109 5.93533 15.7999 5.72266 15.5404 5.72266Z" fill="black"/>
<path d="M14.5984 4.77344C14.3389 4.77344 14.1279 4.98611 14.1279 5.24768C14.1279 5.5092 14.3389 5.72187 14.5984 5.72187C14.8579 5.72187 15.069 5.5092 15.069 5.24768C15.069 4.98611 14.8579 4.77344 14.5984 4.77344Z" fill="black"/>
<path d="M13.6571 4.77344C13.3976 4.77344 13.1865 4.98611 13.1865 5.24768C13.1865 5.5092 13.3976 5.72187 13.6571 5.72187C13.9166 5.72187 14.1276 5.5092 14.1276 5.24768C14.1276 4.98611 13.9166 4.77344 13.6571 4.77344Z" fill="black"/>
<path d="M16.4822 4.77344C16.2227 4.77344 16.0117 4.98611 16.0117 5.24768C16.0117 5.5092 16.2227 5.72187 16.4822 5.72187C16.7417 5.72187 16.9528 5.5092 16.9528 5.24768C16.9528 4.98611 16.7417 4.77344 16.4822 4.77344Z" fill="black"/>
<path d="M15.5404 4.77344C15.2809 4.77344 15.0698 4.98611 15.0698 5.24768C15.0698 5.5092 15.2809 5.72187 15.5404 5.72187C15.7999 5.72187 16.0109 5.5092 16.0109 5.24768C16.0109 4.98611 15.7999 4.77344 15.5404 4.77344Z" fill="black"/>
<path d="M14.5984 3.82422C14.3389 3.82422 14.1279 4.03691 14.1279 4.29844C14.1279 4.55999 14.3389 4.77266 14.5984 4.77266C14.8579 4.77266 15.069 4.55999 15.069 4.29844C15.069 4.03691 14.8579 3.82422 14.5984 3.82422Z" fill="black"/>
<path d="M13.6571 3.82422C13.3976 3.82422 13.1865 4.03691 13.1865 4.29844C13.1865 4.55999 13.3976 4.77266 13.6571 4.77266C13.9166 4.77266 14.1276 4.55999 14.1276 4.29844C14.1276 4.03691 13.9166 3.82422 13.6571 3.82422Z" fill="black"/>
<path d="M16.4822 3.82422C16.2227 3.82422 16.0117 4.03691 16.0117 4.29844C16.0117 4.55999 16.2227 4.77266 16.4822 4.77266C16.7417 4.77266 16.9528 4.55999 16.9528 4.29844C16.9528 4.03691 16.7417 3.82422 16.4822 3.82422Z" fill="black"/>
<path d="M15.5404 3.82422C15.2809 3.82422 15.0698 4.03691 15.0698 4.29844C15.0698 4.55999 15.2809 4.77266 15.5404 4.77266C15.7999 4.77266 16.0109 4.55999 16.0109 4.29844C16.0109 4.03691 15.7999 3.82422 15.5404 3.82422Z" fill="black"/>
<path d="M14.5984 2.875C14.3389 2.875 14.1279 3.08769 14.1279 3.34923C14.1279 3.61076 14.3389 3.82346 14.5984 3.82346C14.8579 3.82346 15.069 3.61076 15.069 3.34923C15.069 3.08769 14.8579 2.875 14.5984 2.875Z" fill="black"/>
<path d="M13.6571 2.875C13.3976 2.875 13.1865 3.08769 13.1865 3.34923C13.1865 3.61076 13.3976 3.82346 13.6571 3.82346C13.9166 3.82346 14.1276 3.61076 14.1276 3.34923C14.1276 3.08769 13.9166 2.875 13.6571 2.875Z" fill="black"/>
<path d="M16.4822 2.875C16.2227 2.875 16.0117 3.08769 16.0117 3.34923C16.0117 3.61076 16.2227 3.82346 16.4822 3.82346C16.7417 3.82346 16.9528 3.61076 16.9528 3.34923C16.9528 3.08769 16.7417 2.875 16.4822 2.875Z" fill="black"/>
<path d="M15.5404 2.875C15.2809 2.875 15.0698 3.08769 15.0698 3.34923C15.0698 3.61076 15.2809 3.82346 15.5404 3.82346C15.7999 3.82346 16.0109 3.61076 16.0109 3.34923C16.0109 3.08769 15.7999 2.875 15.5404 2.875Z" fill="black"/>
<path d="M14.5984 1.92578C14.3389 1.92578 14.1279 2.13847 14.1279 2.40001C14.1279 2.66154 14.3389 2.87424 14.5984 2.87424C14.8579 2.87424 15.069 2.66154 15.069 2.40001C15.069 2.13847 14.8579 1.92578 14.5984 1.92578Z" fill="black"/>
<path d="M13.6571 1.92578C13.3976 1.92578 13.1865 2.13847 13.1865 2.40001C13.1865 2.66154 13.3976 2.87424 13.6571 2.87424C13.9166 2.87424 14.1276 2.66154 14.1276 2.40001C14.1276 2.13847 13.9166 1.92578 13.6571 1.92578Z" fill="black"/>
<path d="M16.4822 1.92578C16.2227 1.92578 16.0117 2.13847 16.0117 2.40001C16.0117 2.66154 16.2227 2.87424 16.4822 2.87424C16.7417 2.87424 16.9528 2.66154 16.9528 2.40001C16.9528 2.13847 16.7417 1.92578 16.4822 1.92578Z" fill="black"/>
<path d="M15.5404 1.92578C15.2809 1.92578 15.0698 2.13847 15.0698 2.40001C15.0698 2.66154 15.2809 2.87424 15.5404 2.87424C15.7999 2.87424 16.0109 2.66154 16.0109 2.40001C16.0109 2.13847 15.7999 1.92578 15.5404 1.92578Z" fill="black"/>
<path d="M9.88851 18.0625C9.62902 18.0625 9.41797 18.2752 9.41797 18.5367C9.41797 18.7983 9.62902 19.0109 9.88851 19.0109C10.148 19.0109 10.359 18.7983 10.359 18.5367C10.359 18.2752 10.148 18.0625 9.88851 18.0625Z" fill="black"/>
<path d="M10.8313 17.1133C10.5718 17.1133 10.3608 17.326 10.3608 17.5875C10.3608 17.849 10.5718 18.0618 10.8313 18.0618C11.0908 18.0618 11.3019 17.849 11.3019 17.5875C11.3019 17.326 11.0908 17.1133 10.8313 17.1133Z" fill="black"/>
<path d="M9.88851 17.1133C9.62902 17.1133 9.41797 17.326 9.41797 17.5875C9.41797 17.849 9.62902 18.0618 9.88851 18.0618C10.148 18.0618 10.359 17.849 10.359 17.5875C10.359 17.326 10.148 17.1133 9.88851 17.1133Z" fill="black"/>
<path d="M10.8313 16.1621C10.5718 16.1621 10.3608 16.3748 10.3608 16.6363C10.3608 16.8979 10.5718 17.1105 10.8313 17.1105C11.0908 17.1105 11.3019 16.8979 11.3019 16.6363C11.3019 16.3748 11.0908 16.1621 10.8313 16.1621Z" fill="black"/>
<path d="M9.88851 16.1621C9.62902 16.1621 9.41797 16.3748 9.41797 16.6363C9.41797 16.8979 9.62902 17.1105 9.88851 17.1105C10.148 17.1105 10.359 16.8979 10.359 16.6363C10.359 16.3748 10.148 16.1621 9.88851 16.1621Z" fill="black"/>
<path d="M11.7723 16.1621C11.5128 16.1621 11.3018 16.3748 11.3018 16.6363C11.3018 16.8979 11.5128 17.1105 11.7723 17.1105C12.0318 17.1105 12.2428 16.8979 12.2428 16.6363C12.2428 16.3748 12.0318 16.1621 11.7723 16.1621Z" fill="black"/>
<path d="M10.8313 15.2148C10.5718 15.2148 10.3608 15.4275 10.3608 15.689C10.3608 15.9507 10.5718 16.1633 10.8313 16.1633C11.0908 16.1633 11.3019 15.9507 11.3019 15.689C11.3019 15.4275 11.0908 15.2148 10.8313 15.2148Z" fill="black"/>
<path d="M9.88851 15.2148C9.62902 15.2148 9.41797 15.4275 9.41797 15.689C9.41797 15.9507 9.62902 16.1633 9.88851 16.1633C10.148 16.1633 10.359 15.9507 10.359 15.689C10.359 15.4275 10.148 15.2148 9.88851 15.2148Z" fill="black"/>
<path d="M12.7152 15.2148C12.4557 15.2148 12.2446 15.4275 12.2446 15.689C12.2446 15.9507 12.4557 16.1633 12.7152 16.1633C12.9747 16.1633 13.1857 15.9507 13.1857 15.689C13.1857 15.4275 12.9747 15.2148 12.7152 15.2148Z" fill="black"/>
<path d="M11.7723 15.2148C11.5128 15.2148 11.3018 15.4275 11.3018 15.689C11.3018 15.9507 11.5128 16.1633 11.7723 16.1633C12.0318 16.1633 12.2428 15.9507 12.2428 15.689C12.2428 15.4275 12.0318 15.2148 11.7723 15.2148Z" fill="black"/>
<path d="M10.8313 4.77344C10.5718 4.77344 10.3608 4.98611 10.3608 5.24768C10.3608 5.5092 10.5718 5.72187 10.8313 5.72187C11.0908 5.72187 11.3019 5.5092 11.3019 5.24768C11.3019 4.98611 11.0908 4.77344 10.8313 4.77344Z" fill="black"/>
<path d="M9.88851 4.77344C9.62902 4.77344 9.41797 4.98611 9.41797 5.24768C9.41797 5.5092 9.62902 5.72187 9.88851 5.72187C10.148 5.72187 10.359 5.5092 10.359 5.24768C10.359 4.98611 10.148 4.77344 9.88851 4.77344Z" fill="black"/>
<path d="M12.7152 4.77344C12.4557 4.77344 12.2446 4.98611 12.2446 5.24768C12.2446 5.5092 12.4557 5.72187 12.7152 5.72187C12.9747 5.72187 13.1857 5.5092 13.1857 5.24768C13.1857 4.98611 12.9747 4.77344 12.7152 4.77344Z" fill="black"/>
<path d="M11.7723 4.77344C11.5128 4.77344 11.3018 4.98611 11.3018 5.24768C11.3018 5.5092 11.5128 5.72187 11.7723 5.72187C12.0318 5.72187 12.2428 5.5092 12.2428 5.24768C12.2428 4.98611 12.0318 4.77344 11.7723 4.77344Z" fill="black"/>
<path d="M10.8313 3.82422C10.5718 3.82422 10.3608 4.03691 10.3608 4.29844C10.3608 4.55999 10.5718 4.77266 10.8313 4.77266C11.0908 4.77266 11.3019 4.55999 11.3019 4.29844C11.3019 4.03691 11.0908 3.82422 10.8313 3.82422Z" fill="black"/>
<path d="M9.88851 3.82422C9.62902 3.82422 9.41797 4.03691 9.41797 4.29844C9.41797 4.55999 9.62902 4.77266 9.88851 4.77266C10.148 4.77266 10.359 4.55999 10.359 4.29844C10.359 4.03691 10.148 3.82422 9.88851 3.82422Z" fill="black"/>
<path d="M12.7152 3.82422C12.4557 3.82422 12.2446 4.03691 12.2446 4.29844C12.2446 4.55999 12.4557 4.77266 12.7152 4.77266C12.9747 4.77266 13.1857 4.55999 13.1857 4.29844C13.1857 4.03691 12.9747 3.82422 12.7152 3.82422Z" fill="black"/>
<path d="M11.7723 3.82422C11.5128 3.82422 11.3018 4.03691 11.3018 4.29844C11.3018 4.55999 11.5128 4.77266 11.7723 4.77266C12.0318 4.77266 12.2428 4.55999 12.2428 4.29844C12.2428 4.03691 12.0318 3.82422 11.7723 3.82422Z" fill="black"/>
<path d="M10.8313 2.875C10.5718 2.875 10.3608 3.08769 10.3608 3.34923C10.3608 3.61076 10.5718 3.82346 10.8313 3.82346C11.0908 3.82346 11.3019 3.61076 11.3019 3.34923C11.3019 3.08769 11.0908 2.875 10.8313 2.875Z" fill="black"/>
<path d="M9.88851 2.875C9.62902 2.875 9.41797 3.08769 9.41797 3.34923C9.41797 3.61076 9.62902 3.82346 9.88851 3.82346C10.148 3.82346 10.359 3.61076 10.359 3.34923C10.359 3.08769 10.148 2.875 9.88851 2.875Z" fill="black"/>
<path d="M12.7152 2.875C12.4557 2.875 12.2446 3.08769 12.2446 3.34923C12.2446 3.61076 12.4557 3.82346 12.7152 3.82346C12.9747 3.82346 13.1857 3.61076 13.1857 3.34923C13.1857 3.08769 12.9747 2.875 12.7152 2.875Z" fill="black"/>
<path d="M11.7723 2.875C11.5128 2.875 11.3018 3.08769 11.3018 3.34923C11.3018 3.61076 11.5128 3.82346 11.7723 3.82346C12.0318 3.82346 12.2428 3.61076 12.2428 3.34923C12.2428 3.08769 12.0318 2.875 11.7723 2.875Z" fill="black"/>
<path d="M10.8313 1.92578C10.5718 1.92578 10.3608 2.13847 10.3608 2.40001C10.3608 2.66154 10.5718 2.87424 10.8313 2.87424C11.0908 2.87424 11.3019 2.66154 11.3019 2.40001C11.3019 2.13847 11.0908 1.92578 10.8313 1.92578Z" fill="black"/>
<path d="M9.88851 1.92578C9.62902 1.92578 9.41797 2.13847 9.41797 2.40001C9.41797 2.66154 9.62902 2.87424 9.88851 2.87424C10.148 2.87424 10.359 2.66154 10.359 2.40001C10.359 2.13847 10.148 1.92578 9.88851 1.92578Z" fill="black"/>
<path d="M12.7152 1.92578C12.4557 1.92578 12.2446 2.13847 12.2446 2.40001C12.2446 2.66154 12.4557 2.87424 12.7152 2.87424C12.9747 2.87424 13.1857 2.66154 13.1857 2.40001C13.1857 2.13847 12.9747 1.92578 12.7152 1.92578Z" fill="black"/>
<path d="M11.7723 1.92578C11.5128 1.92578 11.3018 2.13847 11.3018 2.40001C11.3018 2.66154 11.5128 2.87424 11.7723 2.87424C12.0318 2.87424 12.2428 2.66154 12.2428 2.40001C12.2428 2.13847 12.0318 1.92578 11.7723 1.92578Z" fill="black"/>
<path d="M7.06429 18.0625C6.8048 18.0625 6.59375 18.2752 6.59375 18.5367C6.59375 18.7983 6.8048 19.0109 7.06429 19.0109C7.32379 19.0109 7.53479 18.7983 7.53479 18.5367C7.53479 18.2752 7.32379 18.0625 7.06429 18.0625Z" fill="black"/>
<path d="M6.12142 18.0625C5.86193 18.0625 5.65088 18.2752 5.65088 18.5367C5.65088 18.7983 5.86193 19.0109 6.12142 19.0109C6.38092 19.0109 6.59192 18.7983 6.59192 18.5367C6.59192 18.2752 6.38092 18.0625 6.12142 18.0625Z" fill="black"/>
<path d="M8.94804 18.0625C8.68854 18.0625 8.47754 18.2752 8.47754 18.5367C8.47754 18.7983 8.68854 19.0109 8.94804 19.0109C9.20753 19.0109 9.41858 18.7983 9.41858 18.5367C9.41858 18.2752 9.20753 18.0625 8.94804 18.0625Z" fill="black"/>
<path d="M8.00472 18.0625C7.74523 18.0625 7.53418 18.2752 7.53418 18.5367C7.53418 18.7983 7.74523 19.0109 8.00472 19.0109C8.26422 19.0109 8.47527 18.7983 8.47527 18.5367C8.47527 18.2752 8.26422 18.0625 8.00472 18.0625Z" fill="black"/>
<path d="M7.06429 17.1133C6.8048 17.1133 6.59375 17.326 6.59375 17.5875C6.59375 17.849 6.8048 18.0618 7.06429 18.0618C7.32379 18.0618 7.53479 17.849 7.53479 17.5875C7.53479 17.326 7.32379 17.1133 7.06429 17.1133Z" fill="black"/>
<path d="M6.12142 17.1133C5.86193 17.1133 5.65088 17.326 5.65088 17.5875C5.65088 17.849 5.86193 18.0618 6.12142 18.0618C6.38092 18.0618 6.59192 17.849 6.59192 17.5875C6.59192 17.326 6.38092 17.1133 6.12142 17.1133Z" fill="black"/>
<path d="M8.94804 17.1133C8.68854 17.1133 8.47754 17.326 8.47754 17.5875C8.47754 17.849 8.68854 18.0618 8.94804 18.0618C9.20753 18.0618 9.41858 17.849 9.41858 17.5875C9.41858 17.326 9.20753 17.1133 8.94804 17.1133Z" fill="black"/>
<path d="M8.00472 17.1133C7.74523 17.1133 7.53418 17.326 7.53418 17.5875C7.53418 17.849 7.74523 18.0618 8.00472 18.0618C8.26422 18.0618 8.47527 17.849 8.47527 17.5875C8.47527 17.326 8.26422 17.1133 8.00472 17.1133Z" fill="black"/>
<path d="M7.06429 16.1621C6.8048 16.1621 6.59375 16.3748 6.59375 16.6363C6.59375 16.8979 6.8048 17.1105 7.06429 17.1105C7.32379 17.1105 7.53479 16.8979 7.53479 16.6363C7.53479 16.3748 7.32379 16.1621 7.06429 16.1621Z" fill="black"/>
<path d="M6.12142 16.1621C5.86193 16.1621 5.65088 16.3748 5.65088 16.6363C5.65088 16.8979 5.86193 17.1105 6.12142 17.1105C6.38092 17.1105 6.59192 16.8979 6.59192 16.6363C6.59192 16.3748 6.38092 16.1621 6.12142 16.1621Z" fill="black"/>
<path d="M8.94804 16.1621C8.68854 16.1621 8.47754 16.3748 8.47754 16.6363C8.47754 16.8979 8.68854 17.1105 8.94804 17.1105C9.20753 17.1105 9.41858 16.8979 9.41858 16.6363C9.41858 16.3748 9.20753 16.1621 8.94804 16.1621Z" fill="black"/>
<path d="M8.00472 16.1621C7.74523 16.1621 7.53418 16.3748 7.53418 16.6363C7.53418 16.8979 7.74523 17.1105 8.00472 17.1105C8.26422 17.1105 8.47527 16.8979 8.47527 16.6363C8.47527 16.3748 8.26422 16.1621 8.00472 16.1621Z" fill="black"/>
<path d="M7.06429 15.2148C6.8048 15.2148 6.59375 15.4275 6.59375 15.689C6.59375 15.9507 6.8048 16.1633 7.06429 16.1633C7.32379 16.1633 7.53479 15.9507 7.53479 15.689C7.53479 15.4275 7.32379 15.2148 7.06429 15.2148Z" fill="black"/>
<path d="M6.12142 15.2148C5.86193 15.2148 5.65088 15.4275 5.65088 15.689C5.65088 15.9507 5.86193 16.1633 6.12142 16.1633C6.38092 16.1633 6.59192 15.9507 6.59192 15.689C6.59192 15.4275 6.38092 15.2148 6.12142 15.2148Z" fill="black"/>
<path d="M8.94804 15.2148C8.68854 15.2148 8.47754 15.4275 8.47754 15.689C8.47754 15.9507 8.68854 16.1633 8.94804 16.1633C9.20753 16.1633 9.41858 15.9507 9.41858 15.689C9.41858 15.4275 9.20753 15.2148 8.94804 15.2148Z" fill="black"/>
<path d="M8.00472 15.2148C7.74523 15.2148 7.53418 15.4275 7.53418 15.689C7.53418 15.9507 7.74523 16.1633 8.00472 16.1633C8.26422 16.1633 8.47527 15.9507 8.47527 15.689C8.47527 15.4275 8.26422 15.2148 8.00472 15.2148Z" fill="black"/>
<path d="M7.06429 4.77344C6.8048 4.77344 6.59375 4.98611 6.59375 5.24768C6.59375 5.5092 6.8048 5.72187 7.06429 5.72187C7.32379 5.72187 7.53479 5.5092 7.53479 5.24768C7.53479 4.98611 7.32379 4.77344 7.06429 4.77344Z" fill="black"/>
<path d="M6.12142 4.77344C5.86193 4.77344 5.65088 4.98611 5.65088 5.24768C5.65088 5.5092 5.86193 5.72187 6.12142 5.72187C6.38092 5.72187 6.59192 5.5092 6.59192 5.24768C6.59192 4.98611 6.38092 4.77344 6.12142 4.77344Z" fill="black"/>
<path d="M8.94804 4.77344C8.68854 4.77344 8.47754 4.98611 8.47754 5.24768C8.47754 5.5092 8.68854 5.72187 8.94804 5.72187C9.20753 5.72187 9.41858 5.5092 9.41858 5.24768C9.41858 4.98611 9.20753 4.77344 8.94804 4.77344Z" fill="black"/>
<path d="M8.00472 4.77344C7.74523 4.77344 7.53418 4.98611 7.53418 5.24768C7.53418 5.5092 7.74523 5.72187 8.00472 5.72187C8.26422 5.72187 8.47527 5.5092 8.47527 5.24768C8.47527 4.98611 8.26422 4.77344 8.00472 4.77344Z" fill="black"/>
<path d="M7.06429 3.82422C6.8048 3.82422 6.59375 4.03691 6.59375 4.29844C6.59375 4.55999 6.8048 4.77266 7.06429 4.77266C7.32379 4.77266 7.53479 4.55999 7.53479 4.29844C7.53479 4.03691 7.32379 3.82422 7.06429 3.82422Z" fill="black"/>
<path d="M6.12142 3.82422C5.86193 3.82422 5.65088 4.03691 5.65088 4.29844C5.65088 4.55999 5.86193 4.77266 6.12142 4.77266C6.38092 4.77266 6.59192 4.55999 6.59192 4.29844C6.59192 4.03691 6.38092 3.82422 6.12142 3.82422Z" fill="black"/>
<path d="M8.94804 3.82422C8.68854 3.82422 8.47754 4.03691 8.47754 4.29844C8.47754 4.55999 8.68854 4.77266 8.94804 4.77266C9.20753 4.77266 9.41858 4.55999 9.41858 4.29844C9.41858 4.03691 9.20753 3.82422 8.94804 3.82422Z" fill="black"/>
<path d="M8.00472 3.82422C7.74523 3.82422 7.53418 4.03691 7.53418 4.29844C7.53418 4.55999 7.74523 4.77266 8.00472 4.77266C8.26422 4.77266 8.47527 4.55999 8.47527 4.29844C8.47527 4.03691 8.26422 3.82422 8.00472 3.82422Z" fill="black"/>
<path d="M7.06429 2.875C6.8048 2.875 6.59375 3.08769 6.59375 3.34923C6.59375 3.61076 6.8048 3.82346 7.06429 3.82346C7.32379 3.82346 7.53479 3.61076 7.53479 3.34923C7.53479 3.08769 7.32379 2.875 7.06429 2.875Z" fill="black"/>
<path d="M6.12142 2.875C5.86193 2.875 5.65088 3.08769 5.65088 3.34923C5.65088 3.61076 5.86193 3.82346 6.12142 3.82346C6.38092 3.82346 6.59192 3.61076 6.59192 3.34923C6.59192 3.08769 6.38092 2.875 6.12142 2.875Z" fill="black"/>
<path d="M8.94804 2.875C8.68854 2.875 8.47754 3.08769 8.47754 3.34923C8.47754 3.61076 8.68854 3.82346 8.94804 3.82346C9.20753 3.82346 9.41858 3.61076 9.41858 3.34923C9.41858 3.08769 9.20753 2.875 8.94804 2.875Z" fill="black"/>
<path d="M8.00472 2.875C7.74523 2.875 7.53418 3.08769 7.53418 3.34923C7.53418 3.61076 7.74523 3.82346 8.00472 3.82346C8.26422 3.82346 8.47527 3.61076 8.47527 3.34923C8.47527 3.08769 8.26422 2.875 8.00472 2.875Z" fill="black"/>
<path d="M7.06429 1.92578C6.8048 1.92578 6.59375 2.13847 6.59375 2.40001C6.59375 2.66154 6.8048 2.87424 7.06429 2.87424C7.32379 2.87424 7.53479 2.66154 7.53479 2.40001C7.53479 2.13847 7.32379 1.92578 7.06429 1.92578Z" fill="black"/>
<path d="M6.12142 1.92578C5.86193 1.92578 5.65088 2.13847 5.65088 2.40001C5.65088 2.66154 5.86193 2.87424 6.12142 2.87424C6.38092 2.87424 6.59192 2.66154 6.59192 2.40001C6.59192 2.13847 6.38092 1.92578 6.12142 1.92578Z" fill="black"/>
<path d="M8.94804 1.92578C8.68854 1.92578 8.47754 2.13847 8.47754 2.40001C8.47754 2.66154 8.68854 2.87424 8.94804 2.87424C9.20753 2.87424 9.41858 2.66154 9.41858 2.40001C9.41858 2.13847 9.20753 1.92578 8.94804 1.92578Z" fill="black"/>
<path d="M8.00472 1.92578C7.74523 1.92578 7.53418 2.13847 7.53418 2.40001C7.53418 2.66154 7.74523 2.87424 8.00472 2.87424C8.26422 2.87424 8.47527 2.66154 8.47527 2.40001C8.47527 2.13847 8.26422 1.92578 8.00472 1.92578Z" fill="black"/>
<path d="M3.29719 18.0625C3.03769 18.0625 2.82666 18.2752 2.82666 18.5367C2.82666 18.7983 3.03769 19.0109 3.29719 19.0109C3.55669 19.0109 3.76772 18.7983 3.76772 18.5367C3.76772 18.2752 3.55669 18.0625 3.29719 18.0625Z" fill="black"/>
<path d="M5.1805 18.0625C4.92101 18.0625 4.70996 18.2752 4.70996 18.5367C4.70996 18.7983 4.92101 19.0109 5.1805 19.0109C5.44 19.0109 5.65105 18.7983 5.65105 18.5367C5.65105 18.2752 5.44 18.0625 5.1805 18.0625Z" fill="black"/>
<path d="M4.23762 18.0625C3.97812 18.0625 3.76709 18.2752 3.76709 18.5367C3.76709 18.7983 3.97812 19.0109 4.23762 19.0109C4.49713 19.0109 4.70813 18.7983 4.70813 18.5367C4.70813 18.2752 4.49713 18.0625 4.23762 18.0625Z" fill="black"/>
<path d="M3.29719 17.1133C3.03769 17.1133 2.82666 17.326 2.82666 17.5875C2.82666 17.849 3.03769 18.0618 3.29719 18.0618C3.55669 18.0618 3.76772 17.849 3.76772 17.5875C3.76772 17.326 3.55669 17.1133 3.29719 17.1133Z" fill="black"/>
<path d="M2.35432 17.1133C2.09482 17.1133 1.88379 17.326 1.88379 17.5875C1.88379 17.849 2.09482 18.0618 2.35432 18.0618C2.61381 18.0618 2.82485 17.849 2.82485 17.5875C2.82485 17.326 2.61381 17.1133 2.35432 17.1133Z" fill="black"/>
<path d="M5.1805 17.1133C4.92101 17.1133 4.70996 17.326 4.70996 17.5875C4.70996 17.849 4.92101 18.0618 5.1805 18.0618C5.44 18.0618 5.65105 17.849 5.65105 17.5875C5.65105 17.326 5.44 17.1133 5.1805 17.1133Z" fill="black"/>
<path d="M4.23762 17.1133C3.97812 17.1133 3.76709 17.326 3.76709 17.5875C3.76709 17.849 3.97812 18.0618 4.23762 18.0618C4.49713 18.0618 4.70813 17.849 4.70813 17.5875C4.70813 17.326 4.49713 17.1133 4.23762 17.1133Z" fill="black"/>
<path d="M3.29719 16.1621C3.03769 16.1621 2.82666 16.3748 2.82666 16.6363C2.82666 16.8979 3.03769 17.1105 3.29719 17.1105C3.55669 17.1105 3.76772 16.8979 3.76772 16.6363C3.76772 16.3748 3.55669 16.1621 3.29719 16.1621Z" fill="black"/>
<path d="M2.35432 16.1621C2.09482 16.1621 1.88379 16.3748 1.88379 16.6363C1.88379 16.8979 2.09482 17.1105 2.35432 17.1105C2.61381 17.1105 2.82485 16.8979 2.82485 16.6363C2.82485 16.3748 2.61381 16.1621 2.35432 16.1621Z" fill="black"/>
<path d="M5.1805 16.1621C4.92101 16.1621 4.70996 16.3748 4.70996 16.6363C4.70996 16.8979 4.92101 17.1105 5.1805 17.1105C5.44 17.1105 5.65105 16.8979 5.65105 16.6363C5.65105 16.3748 5.44 16.1621 5.1805 16.1621Z" fill="black"/>
<path d="M4.23762 16.1621C3.97812 16.1621 3.76709 16.3748 3.76709 16.6363C3.76709 16.8979 3.97812 17.1105 4.23762 17.1105C4.49713 17.1105 4.70813 16.8979 4.70813 16.6363C4.70813 16.3748 4.49713 16.1621 4.23762 16.1621Z" fill="black"/>
<path d="M3.29719 15.2148C3.03769 15.2148 2.82666 15.4275 2.82666 15.689C2.82666 15.9507 3.03769 16.1633 3.29719 16.1633C3.55669 16.1633 3.76772 15.9507 3.76772 15.689C3.76772 15.4275 3.55669 15.2148 3.29719 15.2148Z" fill="black"/>
<path d="M2.35432 15.2148C2.09482 15.2148 1.88379 15.4275 1.88379 15.689C1.88379 15.9507 2.09482 16.1633 2.35432 16.1633C2.61381 16.1633 2.82485 15.9507 2.82485 15.689C2.82485 15.4275 2.61381 15.2148 2.35432 15.2148Z" fill="black"/>
<path d="M5.1805 15.2148C4.92101 15.2148 4.70996 15.4275 4.70996 15.689C4.70996 15.9507 4.92101 16.1633 5.1805 16.1633C5.44 16.1633 5.65105 15.9507 5.65105 15.689C5.65105 15.4275 5.44 15.2148 5.1805 15.2148Z" fill="black"/>
<path d="M4.23762 15.2148C3.97812 15.2148 3.76709 15.4275 3.76709 15.689C3.76709 15.9507 3.97812 16.1633 4.23762 16.1633C4.49713 16.1633 4.70813 15.9507 4.70813 15.689C4.70813 15.4275 4.49713 15.2148 4.23762 15.2148Z" fill="black"/>
<path d="M3.29719 14.2637C3.03769 14.2637 2.82666 14.4764 2.82666 14.7379C2.82666 14.9994 3.03769 15.2121 3.29719 15.2121C3.55669 15.2121 3.76772 14.9994 3.76772 14.7379C3.76772 14.4764 3.55669 14.2637 3.29719 14.2637Z" fill="black"/>
<path d="M2.35432 14.2637C2.09482 14.2637 1.88379 14.4764 1.88379 14.7379C1.88379 14.9994 2.09482 15.2121 2.35432 15.2121C2.61381 15.2121 2.82485 14.9994 2.82485 14.7379C2.82485 14.4764 2.61381 14.2637 2.35432 14.2637Z" fill="black"/>
<path d="M3.29719 13.3164C3.03769 13.3164 2.82666 13.5291 2.82666 13.7906C2.82666 14.0522 3.03769 14.2648 3.29719 14.2648C3.55669 14.2648 3.76772 14.0522 3.76772 13.7906C3.76772 13.5291 3.55669 13.3164 3.29719 13.3164Z" fill="black"/>
<path d="M2.35432 13.3164C2.09482 13.3164 1.88379 13.5291 1.88379 13.7906C1.88379 14.0522 2.09482 14.2648 2.35432 14.2648C2.61381 14.2648 2.82485 14.0522 2.82485 13.7906C2.82485 13.5291 2.61381 13.3164 2.35432 13.3164Z" fill="black"/>
<path d="M3.29719 12.3652C3.03769 12.3652 2.82666 12.578 2.82666 12.8395C2.82666 13.101 3.03769 13.3137 3.29719 13.3137C3.55669 13.3137 3.76772 13.101 3.76772 12.8395C3.76772 12.578 3.55669 12.3652 3.29719 12.3652Z" fill="black"/>
<path d="M2.35432 12.3652C2.09482 12.3652 1.88379 12.578 1.88379 12.8395C1.88379 13.101 2.09482 13.3137 2.35432 13.3137C2.61381 13.3137 2.82485 13.101 2.82485 12.8395C2.82485 12.578 2.61381 12.3652 2.35432 12.3652Z" fill="black"/>
<path d="M3.29719 11.418C3.03769 11.418 2.82666 11.6306 2.82666 11.8922C2.82666 12.1537 3.03769 12.3664 3.29719 12.3664C3.55669 12.3664 3.76772 12.1537 3.76772 11.8922C3.76772 11.6306 3.55669 11.418 3.29719 11.418Z" fill="black"/>
<path d="M2.35432 11.418C2.09482 11.418 1.88379 11.6306 1.88379 11.8922C1.88379 12.1537 2.09482 12.3664 2.35432 12.3664C2.61381 12.3664 2.82485 12.1537 2.82485 11.8922C2.82485 11.6306 2.61381 11.418 2.35432 11.418Z" fill="black"/>
<path d="M3.29719 10.4668C3.03769 10.4668 2.82666 10.6795 2.82666 10.941C2.82666 11.2026 3.03769 11.4152 3.29719 11.4152C3.55669 11.4152 3.76772 11.2026 3.76772 10.941C3.76772 10.6795 3.55669 10.4668 3.29719 10.4668Z" fill="black"/>
<path d="M2.35432 10.4668C2.09482 10.4668 1.88379 10.6795 1.88379 10.941C1.88379 11.2026 2.09482 11.4152 2.35432 11.4152C2.61381 11.4152 2.82485 11.2026 2.82485 10.941C2.82485 10.6795 2.61381 10.4668 2.35432 10.4668Z" fill="black"/>
<path d="M3.29719 9.51953C3.03769 9.51953 2.82666 9.7322 2.82666 9.99377C2.82666 10.2553 3.03769 10.468 3.29719 10.468C3.55669 10.468 3.76772 10.2553 3.76772 9.99377C3.76772 9.7322 3.55669 9.51953 3.29719 9.51953Z" fill="black"/>
<path d="M2.35432 9.51953C2.09482 9.51953 1.88379 9.7322 1.88379 9.99377C1.88379 10.2553 2.09482 10.468 2.35432 10.468C2.61381 10.468 2.82485 10.2553 2.82485 9.99377C2.82485 9.7322 2.61381 9.51953 2.35432 9.51953Z" fill="black"/>
<path d="M3.29719 8.57031C3.03769 8.57031 2.82666 8.78298 2.82666 9.04451C2.82666 9.30607 3.03769 9.51875 3.29719 9.51875C3.55669 9.51875 3.76772 9.30607 3.76772 9.04451C3.76772 8.78298 3.55669 8.57031 3.29719 8.57031Z" fill="black"/>
<path d="M2.35432 8.57031C2.09482 8.57031 1.88379 8.78298 1.88379 9.04451C1.88379 9.30607 2.09482 9.51875 2.35432 9.51875C2.61381 9.51875 2.82485 9.30607 2.82485 9.04451C2.82485 8.78298 2.61381 8.57031 2.35432 8.57031Z" fill="black"/>
<path d="M3.29719 7.62109C3.03769 7.62109 2.82666 7.83381 2.82666 8.09533C2.82666 8.35686 3.03769 8.56957 3.29719 8.56957C3.55669 8.56957 3.76772 8.35686 3.76772 8.09533C3.76772 7.83381 3.55669 7.62109 3.29719 7.62109Z" fill="black"/>
<path d="M2.35432 7.62109C2.09482 7.62109 1.88379 7.83381 1.88379 8.09533C1.88379 8.35686 2.09482 8.56957 2.35432 8.56957C2.61381 8.56957 2.82485 8.35686 2.82485 8.09533C2.82485 7.83381 2.61381 7.62109 2.35432 7.62109Z" fill="black"/>
<path d="M3.29719 6.67188C3.03769 6.67188 2.82666 6.88455 2.82666 7.14611C2.82666 7.40764 3.03769 7.62031 3.29719 7.62031C3.55669 7.62031 3.76772 7.40764 3.76772 7.14611C3.76772 6.88455 3.55669 6.67188 3.29719 6.67188Z" fill="black"/>
<path d="M2.35432 6.67188C2.09482 6.67188 1.88379 6.88455 1.88379 7.14611C1.88379 7.40764 2.09482 7.62031 2.35432 7.62031C2.61381 7.62031 2.82485 7.40764 2.82485 7.14611C2.82485 6.88455 2.61381 6.67188 2.35432 6.67188Z" fill="black"/>
<path d="M3.29719 5.72266C3.03769 5.72266 2.82666 5.93533 2.82666 6.19685C2.82666 6.45842 3.03769 6.67109 3.29719 6.67109C3.55669 6.67109 3.76772 6.45842 3.76772 6.19685C3.76772 5.93533 3.55669 5.72266 3.29719 5.72266Z" fill="black"/>
<path d="M2.35432 5.72266C2.09482 5.72266 1.88379 5.93533 1.88379 6.19685C1.88379 6.45842 2.09482 6.67109 2.35432 6.67109C2.61381 6.67109 2.82485 6.45842 2.82485 6.19685C2.82485 5.93533 2.61381 5.72266 2.35432 5.72266Z" fill="black"/>
<path d="M3.29719 4.77344C3.03769 4.77344 2.82666 4.98611 2.82666 5.24768C2.82666 5.5092 3.03769 5.72187 3.29719 5.72187C3.55669 5.72187 3.76772 5.5092 3.76772 5.24768C3.76772 4.98611 3.55669 4.77344 3.29719 4.77344Z" fill="black"/>
<path d="M5.1805 4.77344C4.92101 4.77344 4.70996 4.98611 4.70996 5.24768C4.70996 5.5092 4.92101 5.72187 5.1805 5.72187C5.44 5.72187 5.65105 5.5092 5.65105 5.24768C5.65105 4.98611 5.44 4.77344 5.1805 4.77344Z" fill="black"/>
<path d="M4.23762 4.77344C3.97812 4.77344 3.76709 4.98611 3.76709 5.24768C3.76709 5.5092 3.97812 5.72187 4.23762 5.72187C4.49713 5.72187 4.70813 5.5092 4.70813 5.24768C4.70813 4.98611 4.49713 4.77344 4.23762 4.77344Z" fill="black"/>
<path d="M5.1805 3.82422C4.92101 3.82422 4.70996 4.03691 4.70996 4.29844C4.70996 4.55999 4.92101 4.77266 5.1805 4.77266C5.44 4.77266 5.65105 4.55999 5.65105 4.29844C5.65105 4.03691 5.44 3.82422 5.1805 3.82422Z" fill="black"/>
<path d="M4.23762 3.82422C3.97812 3.82422 3.76709 4.03691 3.76709 4.29844C3.76709 4.55999 3.97812 4.77266 4.23762 4.77266C4.49713 4.77266 4.70813 4.55999 4.70813 4.29844C4.70813 4.03691 4.49713 3.82422 4.23762 3.82422Z" fill="black"/>
<path d="M5.1805 2.875C4.92101 2.875 4.70996 3.08769 4.70996 3.34923C4.70996 3.61076 4.92101 3.82346 5.1805 3.82346C5.44 3.82346 5.65105 3.61076 5.65105 3.34923C5.65105 3.08769 5.44 2.875 5.1805 2.875Z" fill="black"/>
<path d="M1.41341 16.1621C1.15391 16.1621 0.942871 16.3748 0.942871 16.6363C0.942871 16.8979 1.15391 17.1105 1.41341 17.1105C1.6729 17.1105 1.88393 16.8979 1.88393 16.6363C1.88393 16.3748 1.6729 16.1621 1.41341 16.1621Z" fill="black"/>
<path d="M1.41341 15.2148C1.15391 15.2148 0.942871 15.4275 0.942871 15.689C0.942871 15.9507 1.15391 16.1633 1.41341 16.1633C1.6729 16.1633 1.88393 15.9507 1.88393 15.689C1.88393 15.4275 1.6729 15.2148 1.41341 15.2148Z" fill="black"/>
<path d="M0.470529 15.2148C0.211036 15.2148 0 15.4275 0 15.689C0 15.9507 0.211036 16.1633 0.470529 16.1633C0.730029 16.1633 0.941063 15.9507 0.941063 15.689C0.941063 15.4275 0.730029 15.2148 0.470529 15.2148Z" fill="black"/>
<path d="M1.41341 14.2637C1.15391 14.2637 0.942871 14.4764 0.942871 14.7379C0.942871 14.9994 1.15391 15.2121 1.41341 15.2121C1.6729 15.2121 1.88393 14.9994 1.88393 14.7379C1.88393 14.4764 1.6729 14.2637 1.41341 14.2637Z" fill="black"/>
<path d="M0.470529 14.2637C0.211036 14.2637 0 14.4764 0 14.7379C0 14.9994 0.211036 15.2121 0.470529 15.2121C0.730029 15.2121 0.941063 14.9994 0.941063 14.7379C0.941063 14.4764 0.730029 14.2637 0.470529 14.2637Z" fill="black"/>
<path d="M1.41341 13.3164C1.15391 13.3164 0.942871 13.5291 0.942871 13.7906C0.942871 14.0522 1.15391 14.2648 1.41341 14.2648C1.6729 14.2648 1.88393 14.0522 1.88393 13.7906C1.88393 13.5291 1.6729 13.3164 1.41341 13.3164Z" fill="black"/>
<path d="M0.470529 13.3164C0.211036 13.3164 0 13.5291 0 13.7906C0 14.0522 0.211036 14.2648 0.470529 14.2648C0.730029 14.2648 0.941063 14.0522 0.941063 13.7906C0.941063 13.5291 0.730029 13.3164 0.470529 13.3164Z" fill="black"/>
<path d="M1.41341 12.3652C1.15391 12.3652 0.942871 12.578 0.942871 12.8395C0.942871 13.101 1.15391 13.3137 1.41341 13.3137C1.6729 13.3137 1.88393 13.101 1.88393 12.8395C1.88393 12.578 1.6729 12.3652 1.41341 12.3652Z" fill="black"/>
<path d="M0.470529 12.3652C0.211036 12.3652 0 12.578 0 12.8395C0 13.101 0.211036 13.3137 0.470529 13.3137C0.730029 13.3137 0.941063 13.101 0.941063 12.8395C0.941063 12.578 0.730029 12.3652 0.470529 12.3652Z" fill="black"/>
<path d="M1.41341 11.418C1.15391 11.418 0.942871 11.6306 0.942871 11.8922C0.942871 12.1537 1.15391 12.3664 1.41341 12.3664C1.6729 12.3664 1.88393 12.1537 1.88393 11.8922C1.88393 11.6306 1.6729 11.418 1.41341 11.418Z" fill="black"/>
<path d="M0.470529 11.418C0.211036 11.418 0 11.6306 0 11.8922C0 12.1537 0.211036 12.3664 0.470529 12.3664C0.730029 12.3664 0.941063 12.1537 0.941063 11.8922C0.941063 11.6306 0.730029 11.418 0.470529 11.418Z" fill="black"/>
<path d="M1.41341 10.4668C1.15391 10.4668 0.942871 10.6795 0.942871 10.941C0.942871 11.2026 1.15391 11.4152 1.41341 11.4152C1.6729 11.4152 1.88393 11.2026 1.88393 10.941C1.88393 10.6795 1.6729 10.4668 1.41341 10.4668Z" fill="black"/>
<path d="M0.470529 10.4668C0.211036 10.4668 0 10.6795 0 10.941C0 11.2026 0.211036 11.4152 0.470529 11.4152C0.730029 11.4152 0.941063 11.2026 0.941063 10.941C0.941063 10.6795 0.730029 10.4668 0.470529 10.4668Z" fill="black"/>
<path d="M1.41341 9.51953C1.15391 9.51953 0.942871 9.7322 0.942871 9.99377C0.942871 10.2553 1.15391 10.468 1.41341 10.468C1.6729 10.468 1.88393 10.2553 1.88393 9.99377C1.88393 9.7322 1.6729 9.51953 1.41341 9.51953Z" fill="black"/>
<path d="M0.470529 9.51953C0.211036 9.51953 0 9.7322 0 9.99377C0 10.2553 0.211036 10.468 0.470529 10.468C0.730029 10.468 0.941063 10.2553 0.941063 9.99377C0.941063 9.7322 0.730029 9.51953 0.470529 9.51953Z" fill="black"/>
<path d="M1.41341 8.57031C1.15391 8.57031 0.942871 8.78298 0.942871 9.04451C0.942871 9.30607 1.15391 9.51875 1.41341 9.51875C1.6729 9.51875 1.88393 9.30607 1.88393 9.04451C1.88393 8.78298 1.6729 8.57031 1.41341 8.57031Z" fill="black"/>
<path d="M0.470529 8.57031C0.211036 8.57031 0 8.78298 0 9.04451C0 9.30607 0.211036 9.51875 0.470529 9.51875C0.730029 9.51875 0.941063 9.30607 0.941063 9.04451C0.941063 8.78298 0.730029 8.57031 0.470529 8.57031Z" fill="black"/>
<path d="M1.41341 7.62109C1.15391 7.62109 0.942871 7.83381 0.942871 8.09533C0.942871 8.35686 1.15391 8.56957 1.41341 8.56957C1.6729 8.56957 1.88393 8.35686 1.88393 8.09533C1.88393 7.83381 1.6729 7.62109 1.41341 7.62109Z" fill="black"/>
<path d="M0.470529 7.62109C0.211036 7.62109 0 7.83381 0 8.09533C0 8.35686 0.211036 8.56957 0.470529 8.56957C0.730029 8.56957 0.941063 8.35686 0.941063 8.09533C0.941063 7.83381 0.730029 7.62109 0.470529 7.62109Z" fill="black"/>
<path d="M1.41341 6.67188C1.15391 6.67188 0.942871 6.88455 0.942871 7.14611C0.942871 7.40764 1.15391 7.62031 1.41341 7.62031C1.6729 7.62031 1.88393 7.40764 1.88393 7.14611C1.88393 6.88455 1.6729 6.67188 1.41341 6.67188Z" fill="black"/>
</g>
</svg>
