<svg id="Layer_1" xmlns="http://www.w3.org/2000/svg" viewBox="0 0 100 22"><defs><style>.st1,.st2{fill:#fff;fill-rule:evenodd}.st2{fill:black}</style><mask id="mask" x="0" y=".2" width="99.7" height="21.4" maskUnits="userSpaceOnUse"><g id="mask-2"><path id="path-1" class="st1" d="M0 .2h99.7v21.4H0"/></g></mask><mask id="mask-1" x="0" y=".2" width="99.7" height="21.4" maskUnits="userSpaceOnUse"><g id="mask-4"><path id="path-3" class="st1" d="M0 .2h99.7v21.4H0"/></g></mask></defs><g id="Page-1"><g id="option-2-copy-3"><g id="Page-1-Copy"><g id="logo"><g mask="url(#mask)" id="Group-3"><path id="Fill-1" class="st2" d="M1.8 21.6h-.4c-.9-.2-1.5-1.2-1.3-2.1L4.3 1.9C4.5 1.1 5.2.6 6 .6h4.8c.8 0 1.5.6 1.7 1.3l3.8 15.9h2.8V2.3c0-1 .8-1.8 1.8-1.8h8.8c1 0 1.8.8 1.8 1.8v8l4.1 7.5h1.7V2.3c0-1 .8-1.8 1.8-1.8h8.8c1 0 1.8.8 1.8 1.8v8l4.1 7.5h12.1V7.6c0-1 .8-1.8 1.8-1.8s1.8.8 1.8 1.8v12c0 1-.8 1.8-1.8 1.8H52.8c-.6 0-1.2-.4-1.5-.9l-4.8-8.8c-.1-.3-.2-.5-.2-.8V4.2H41v15.5c0 1-.8 1.8-1.8 1.8h-4.5c-.6 0-1.2-.4-1.5-.9l-4.8-8.8c-.1-.3-.2-.5-.2-.8V4.3h-5.3v15.5c0 1-.8 1.8-1.8 1.8h-5.9c-.8 0-1.5-.6-1.7-1.3L9.7 4.4h-2L3.8 20.6c-.2.8-.9 1.3-1.7 1.3"/></g><g mask="url(#mask-1)" id="Group-6"><path id="Fill-4" class="st2" d="M94.5 21.3h-3.8c-.8 0-1.6-.6-1.7-1.4L85.9 4.1h-.5l-3.1 15.8c-.2.8-.9 1.4-1.7 1.4h-3.8c-.8 0-1.6-.6-1.7-1.4L72 4.1H58.4v10.2c0 1-.8 1.8-1.8 1.8s-1.8-.8-1.8-1.8v-12c0-1 .8-1.8 1.8-1.8h16.8c.8 0 1.6.6 1.7 1.4l3.1 15.8h.9l3.1-15.8c.2-.8.9-1.4 1.7-1.4h3.4c.8 0 1.6.6 1.7 1.4l3.1 15.8h.9l3.1-16.1c.2-1 1.1-1.6 2.1-1.4 1 .2 1.6 1.1 1.4 2.1l-3.4 17.5c-.2.8-.9 1.4-1.7 1.4"/></g></g></g></g></g></svg>