<svg width="110" height="36" viewBox="0 0 110 36" fill="none" xmlns="http://www.w3.org/2000/svg">
<path d="M21.2613 23.1361L19.0168 18.9835L16.7079 23.1361M6.38698 32.5002H26.6885C26.1918 32.1595 25.5387 30.7876 25.5387 30.7876H6.54336C4.57484 30.6587 4.32647 27.6938 6.81932 27.7583H23.8737L22.9078 25.9812H6.2582C2.17398 26.2022 2.0176 32.1595 6.38698 32.5002ZM34.5442 27.6294L24.26 9.03005C24.2325 9.87715 23.4506 11.0557 23.4506 11.0557L33.0264 28.3108C33.8359 30.0878 31.3706 31.7452 30.2484 29.563L21.7948 14.1771L20.7645 15.991L28.9606 30.8797C31.0763 34.3786 36.3471 31.5979 34.5442 27.6294ZM16.2664 4.65644L5.85346 23.4491C6.57096 23.0716 7.91397 23.2005 7.91397 23.2005L17.7014 5.63245C18.7592 4.01191 21.5096 5.22731 20.231 7.34506L11.3727 23.1361H13.3688L22.0064 7.72257C23.8185 4.03954 18.704 1.01023 16.2664 4.66565M37.3774 27.0033C39.3735 31.0638 36.1264 35.4282 32.6677 35.4282H5.63269C1.05174 35.4006 -1.10076 30.2812 0.555009 27.2243L14.3071 2.53869C16.5791 -0.960191 21.8224 -0.73921 23.9381 2.56632L36.9726 26.193L37.3774 27.0033Z" fill="black"/>
<path d="M67.8955 16.8298H73.3504C75.4109 16.8574 75.7512 18.4503 75.7512 19.3895C75.7236 21.0101 74.6934 21.3876 73.7275 21.6362C74.445 22.6674 75.5672 24.067 76.3123 25.0338H73.3872L70.5172 20.4484H72.5777C73.6999 20.4208 73.6723 18.5424 72.5501 18.5424H70.3332V25.0338H67.9323C67.9047 23.3488 67.9047 16.8298 67.9047 16.8298M44.6688 29.3798H46.0394C47.7228 29.3798 48.8174 30.0703 48.8174 31.4699C48.8174 33.026 47.916 33.6245 46.0394 33.6521H44.6688M42.3967 35.4015H46.481C49.3785 35.4015 51.1263 34.0296 51.1263 31.4975C51.1263 28.9654 49.3785 27.6579 46.481 27.6579H42.3967V35.4015ZM52.0278 35.4291H59.4143V33.6797H54.2723V32.1789H58.8532V30.6228H54.2723V29.2509H59.2947V27.6303H52.0278M60.3526 35.466H62.5051V30.5952H62.5327L65.9914 35.466H68.521V27.6303H66.4329V32.4367H66.1846L62.9098 27.6303H60.3526M95.3076 33.8362C93.6887 33.8362 93.0632 32.6485 93.0632 31.4331C93.0632 30.2177 93.6887 29.0299 95.3076 29.0299C96.9266 29.0299 97.5521 30.2177 97.5521 31.4331C97.5521 32.6485 96.9266 33.8362 95.3076 33.8362ZM90.5059 31.4331C90.5059 33.7718 92.2261 35.6133 95.28 35.6133C98.334 35.6133 100.054 33.7442 100.054 31.4331C100.054 29.1219 98.3432 27.2528 95.28 27.2528C92.2169 27.2528 90.5059 29.1219 90.5059 31.4331ZM70.14 35.4291H72.2925V30.5583H72.3201L75.7788 35.4291H78.3085V27.5935H76.2203V32.4275H75.972L72.6972 27.6211H70.1676M79.8998 35.4936H82.2363V27.6303H79.8998V35.4936ZM83.4597 35.1805C84.2416 35.4015 85.2351 35.5212 86.0813 35.5212C88.0131 35.5212 89.9172 34.9596 89.9172 32.8971C89.9172 30.0243 85.7686 30.899 85.7686 29.5915C85.7686 28.901 86.7345 28.8457 87.3232 28.8457C87.9763 28.8457 88.6662 28.9746 89.2549 29.2232L89.4113 27.5659C88.8226 27.3817 88.0039 27.2804 87.1668 27.2804C85.419 27.2804 83.3585 27.8145 83.3585 29.7112C83.3585 32.6116 87.5071 31.6817 87.5071 33.1457C87.5071 33.7718 86.8172 33.9283 86.0721 33.9283C85.1063 33.9283 84.26 33.7073 83.6713 33.3943M101.195 35.4291H103.347V30.5583H103.375L106.834 35.4291H109.363V27.5935H107.275V32.4275H107.027L103.752 27.6211H101.195M46.9777 19.0765L47.0053 18.9844L48.0999 21.4152H45.9474M42.084 24.9417H44.3285L45.1655 23.1646H48.8726L49.7189 24.9417H52.1198L48.4127 16.793H45.7911L42.084 24.9417ZM59.4143 16.8022H56.9491L54.769 22.4833L52.3957 16.8022H49.9305L53.4536 24.9509H55.9464M84.9223 16.8022H82.0523L80.1206 20.1077L78.1889 16.8022H75.3189L78.842 21.9216V24.9509H81.3716V21.9216M59.6995 25.0062H67.0584V23.1646H61.9164V21.6086H66.4973V19.9512H61.9164V18.5148H66.9021V16.8022H59.6719" fill="black"/>
</svg>
