<svg width="92" height="24" viewBox="0 0 92 24" fill="none" xmlns="http://www.w3.org/2000/svg">
<path fill-rule="evenodd" clip-rule="evenodd" d="M20.2792 7.60669C20.2792 20.288 10.1396 23.7409 10.1396 23.7409C10.1396 23.7409 0 20.288 0 7.60669V3.04476C0 2.54253 0.386768 2.14494 0.878067 2.10309C2.71782 2.01938 7.08725 1.64271 10.1396 0C13.2024 1.64271 17.5613 2.00892 19.4011 2.10309C19.8924 2.13448 20.2792 2.53207 20.2792 3.0343V7.59623V7.60669ZM11.4253 7.28234C12.9306 7.42882 14.1118 7.89967 14.2372 9.2808C14.3313 10.2957 13.9027 10.9026 13.2233 11.2479C14.3418 11.5199 15.0317 12.1896 14.8853 13.6753C14.6972 15.5168 13.3173 16.0086 11.3521 16.1028V18.0384H10.1814V16.1237C9.8887 16.1237 9.57511 16.1132 9.25106 16.1028V18.0384H8.0803V16.0923C7.79807 16.0923 5.94786 16.0923 5.94786 16.0923V14.6798H7.26496V8.50652H5.7806V7.28234C5.7806 7.28234 7.88169 7.28234 8.13257 7.28234V5.35712H9.30332V7.25095C9.61692 7.25095 9.94097 7.25095 10.2546 7.25095V5.37805H11.4149V7.31373L11.4253 7.28234ZM9.54374 14.6902C10.495 14.7112 12.5752 14.753 12.5856 13.4242C12.5961 12.064 10.5891 12.0954 9.60647 12.1163C9.49148 12.1163 9.3974 12.1163 9.31378 12.1163V14.6902C9.38695 14.6902 9.46012 14.6902 9.54374 14.6902ZM9.53329 10.934C10.3173 10.9549 12.0525 10.9968 12.063 9.78303C12.063 8.53791 10.3695 8.57977 9.56465 8.59023C9.48103 8.59023 9.40786 8.59023 9.34514 8.59023V10.9235C9.40786 10.9235 9.47057 10.9235 9.53329 10.9235V10.934Z" fill="black"/>
<path d="M40.4409 15.7373C40.4409 16.7522 40.2423 17.5997 39.8451 18.2798C39.4478 18.9704 38.9147 19.5249 38.2562 19.933C37.5976 20.3515 36.845 20.6445 35.9983 20.8328C35.1516 21.0212 34.2944 21.1049 33.4059 21.1049H26.0469V2.62695H33.4059C34.1167 2.62695 34.8484 2.70019 35.6011 2.84667C36.3432 2.99315 37.0227 3.24428 37.6394 3.61049C38.2457 3.96624 38.7475 4.44754 39.1238 5.06487C39.5106 5.67173 39.6987 6.446 39.6987 7.38769C39.6987 8.41307 39.4165 9.26058 38.8625 9.93022C38.3084 10.5999 37.5767 11.0812 36.6673 11.3846V11.4369C37.19 11.5206 37.6813 11.688 38.1412 11.9182C38.6011 12.1484 39.0088 12.4518 39.3329 12.8181C39.6674 13.1843 39.9391 13.6133 40.1377 14.0946C40.3468 14.5863 40.4409 15.1304 40.4409 15.7373ZM35.3816 7.98408C35.3816 7.35629 35.1411 6.90638 34.6707 6.61341C34.1899 6.32044 33.4895 6.18442 32.5383 6.18442H30.3431V9.993H32.7474C33.5836 9.993 34.2317 9.82559 34.6916 9.49077C35.1516 9.15595 35.3816 8.65373 35.3816 7.99455V7.98408ZM35.9774 15.3292C35.9774 14.5654 35.6951 14.0318 35.1098 13.7388C34.5348 13.4459 33.7718 13.2889 32.8101 13.2889H30.3327V17.516H32.8414C33.1864 17.516 33.5523 17.4846 33.9181 17.4218C34.2944 17.3591 34.6289 17.2544 34.9321 17.0975C35.2352 16.9405 35.4861 16.7208 35.6742 16.4278C35.8729 16.1453 35.9669 15.7686 35.9669 15.3187L35.9774 15.3292Z" fill="black"/>
<path d="M46.3693 3.96414C46.3693 4.29896 46.3066 4.60239 46.1707 4.89535C46.0453 5.18832 45.8676 5.42898 45.6481 5.63824C45.4285 5.84751 45.1672 6.0149 44.8641 6.13C44.5609 6.25556 44.2369 6.31834 43.9128 6.31834C43.2125 6.31834 42.6375 6.08815 42.1672 5.62777C41.6968 5.16739 41.4668 4.61284 41.4668 3.97459C41.4668 3.6607 41.5295 3.36773 41.655 3.07476C41.7804 2.78179 41.9476 2.54115 42.1776 2.33189C42.4076 2.12263 42.6689 1.95522 42.9616 1.82966C43.2543 1.7041 43.5783 1.63086 43.9233 1.63086C44.2682 1.63086 44.5714 1.69363 44.8745 1.81919C45.1777 1.94475 45.439 2.10169 45.6585 2.31096C45.878 2.52022 46.0453 2.77134 46.1812 3.05385C46.3066 3.33635 46.3693 3.65025 46.3693 3.98507V3.96414ZM41.7804 21.1132V8.118H46.0557V21.1132H41.7804Z" fill="black"/>
<path d="M53.8233 11.2995V16.28C53.8233 16.8868 53.9382 17.3472 54.1787 17.6611C54.4191 17.975 54.8372 18.1215 55.4435 18.1215C55.6526 18.1215 55.8721 18.1005 56.1125 18.0692C56.3425 18.0273 56.5411 17.9855 56.6979 17.9122L56.7501 21.0407C56.4575 21.1453 56.0811 21.2395 55.6317 21.3127C55.1822 21.3964 54.7222 21.4278 54.2727 21.4278C53.4051 21.4278 52.6734 21.3127 52.0776 21.1035C51.4817 20.8837 51.0114 20.5698 50.6559 20.1618C50.3005 19.7537 50.0497 19.262 49.8824 18.697C49.7256 18.1319 49.6524 17.5042 49.6524 16.8031V11.31H47.5723V8.11872H49.6315V4.69727H53.8337V8.11872H56.886V11.31H53.8337L53.8233 11.2995Z" fill="black"/>
<path d="M72.3581 21.1449C71.1455 21.4379 69.8389 21.5948 68.4068 21.5948C66.9747 21.5948 65.574 21.3646 64.3196 20.8938C63.0757 20.4229 62.0095 19.7638 61.1105 18.9162C60.2115 18.0687 59.5112 17.0433 59.0094 15.8505C58.5077 14.6577 58.2463 13.3289 58.2463 11.8641C58.2463 10.3993 58.5077 9.03905 59.0199 7.84625C59.5321 6.65345 60.2429 5.62805 61.1523 4.78054C62.0513 3.93303 63.1175 3.28431 64.3405 2.83439C65.5531 2.38448 66.8702 2.1543 68.2814 2.1543C69.6926 2.1543 71.1037 2.37402 72.3581 2.82394C73.6125 3.27385 74.6265 3.85978 75.4104 4.61313L72.5881 7.82532C72.1491 7.32309 71.5741 6.90456 70.8633 6.5802C70.1525 6.25584 69.3372 6.09889 68.4382 6.09889C67.6542 6.09889 66.9329 6.24538 66.2744 6.52788C65.6158 6.81039 65.0409 7.21845 64.5496 7.72068C64.0583 8.23337 63.682 8.84024 63.4102 9.55173C63.1384 10.2632 63.0025 11.027 63.0025 11.8641C63.0025 12.7011 63.128 13.4963 63.3684 14.2183C63.6088 14.9403 63.9747 15.5471 64.4451 16.0598C64.9155 16.5725 65.5113 16.9701 66.2117 17.2526C66.912 17.5456 67.7169 17.6816 68.6263 17.6816C69.149 17.6816 69.6403 17.6397 70.1107 17.5665C70.5811 17.4828 71.0201 17.3677 71.4173 17.1898V13.8207H67.8946V10.2214H75.515V20.0149C74.616 20.4753 73.5602 20.8624 72.3581 21.1554V21.1449Z" fill="black"/>
<path d="M91.5871 14.563C91.5871 15.6303 91.399 16.5929 91.0122 17.4509C90.6255 18.3193 90.1028 19.0413 89.4443 19.6481C88.7857 20.2445 88.0226 20.7154 87.1446 21.0397C86.2769 21.3745 85.3466 21.5315 84.3536 21.5315C83.3605 21.5315 82.4511 21.3641 81.573 21.0397C80.695 20.7049 79.9319 20.2445 79.2733 19.6481C78.6148 19.0517 78.1026 18.3089 77.7158 17.4509C77.329 16.5824 77.1409 15.6303 77.1409 14.563C77.1409 13.4958 77.329 12.5437 77.7158 11.6961C78.1026 10.8486 78.6148 10.1162 79.2733 9.53027C79.9319 8.94433 80.695 8.48397 81.573 8.17007C82.4511 7.85618 83.371 7.69922 84.3536 7.69922C85.3362 7.69922 86.2769 7.85618 87.1446 8.17007C88.0122 8.48397 88.7753 8.93387 89.4443 9.53027C90.1028 10.1267 90.6255 10.8486 91.0122 11.6961C91.399 12.5437 91.5871 13.5063 91.5871 14.563ZM87.4686 14.563C87.4686 14.1445 87.4059 13.7365 87.2595 13.3389C87.1132 12.9413 86.925 12.5855 86.6637 12.2821C86.4024 11.9786 86.0888 11.7275 85.702 11.5392C85.3153 11.3509 84.8762 11.2567 84.364 11.2567C83.8518 11.2567 83.4128 11.3509 83.026 11.5392C82.6392 11.7275 82.3256 11.9786 82.0748 12.2821C81.8239 12.5855 81.6253 12.9413 81.4998 13.3389C81.3744 13.7365 81.3012 14.1445 81.3012 14.563C81.3012 14.9816 81.364 15.3896 81.4998 15.7872C81.6253 16.1848 81.8239 16.551 82.0852 16.8649C82.3466 17.1788 82.6601 17.4404 83.0469 17.6392C83.4337 17.838 83.8727 17.9322 84.3849 17.9322C84.8971 17.9322 85.3362 17.838 85.7229 17.6392C86.1097 17.4509 86.4233 17.1893 86.6846 16.8649C86.9459 16.5406 87.1446 16.1744 87.27 15.7872C87.4059 15.3896 87.4686 14.9816 87.4686 14.563Z" fill="black"/>
</svg>
