<svg xmlns="http://www.w3.org/2000/svg" viewBox="0 0 3022 532.96"><path d="m315 0 145.84 83.16c-.36 56.36 1.24 112.53 1.15 168.84l-48.07-27.42-1.41-112.59-96.48-55.59-2.03.02-96.52 56.57.69 112.86L365 308.02l-.63 2.07-47.7 26.73-146.19-82.81c-.07-56.42-2.39-112.63-1-169.03L314 0h1Z"/><path d="m0 185 146-84v54.5l-96.84 56.66v113.68l98.35 55.09 97-56.58L293 351.01c.55.71-3.86 3.27-4.7 3.79-45.5 28.22-93.23 53.03-138.63 81.46l-2.68.32-145.5-82.57-.41-108.63L.01 242v-57ZM3022 320l-48 83.5V450h-35v-45.5l-47-85.5h40.5l24 49.98 23.64-49.84L3022 319v1z"/><path d="M460.84 279.16c1.53 56.47 1.33 113.1 1 169.68l-144.32 84.12-146.51-81.97.62-2.05 46.88-26.93 98.94 55 96.57-56.72-1.18-113.14-149.83-85.14 47.28-25.25 3.98-.62 146.57 83.01ZM1896.5 319l38 100.01L1933 319h36v131h-61l-36.5-100.01L1873 450h-35V319h58.5zM2456.5 319c30.81 3.12 33.68 27.3 31.48 53.48-1.4 16.76-9.43 22.88-24.99 27.02 9.19 1.36 17.99 3.81 21.92 13.1.45 1.08 2.1 6.25 2.1 6.9V450h-36v-25.5c0-3.63-7.85-9.5-11.5-9.5h-28.5v35h-36V319h81.5Zm-45.5 65h33.5c.61 0 4.71-2.63 5.32-3.68 2.75-4.78 2.59-19.92.43-25.06-.59-1.4-4.6-5.26-5.74-5.26h-33.5v34ZM1274.5 319c29.67 3.01 33.46 25.95 31.49 51.49-1.34 17.31-8.21 24.95-25 29.01 8.48 1.14 17.87 3.95 21.53 12.49.52 1.21 2.48 7.72 2.48 8.51V450h-36v-24.5c0-1.07-2.8-6.1-3.93-7.07-.87-.74-6.97-3.43-7.57-3.43h-28l-1.5 1.5V450h-35V319h81.5Zm-12 31c-9.03-1.95-24.71 1.45-34.5 0v34h34.5c4.14 0 6.23-5.91 6.55-9.45.57-6.35 1.47-22.82-6.55-24.55ZM2755 360h-36c-.68-8.64-5.22-12.16-13.51-12.99-10.25-1.03-28.96-1.55-32.98 10-2.49 7.15-2.42 39.92-1.4 48.38 2.05 16.94 18.19 18.15 32.28 16.5s15.43-9.29 15.61-21.89h-24v-24h60c-1.49 31.11 7.91 67.74-32.62 73.88-22.09 3.34-68.57 4.55-81.57-17.18-9.56-15.99-9.7-77.22-1.34-93.73 12.54-24.78 56.14-22.74 80.03-20.95 26.44 1.99 35.91 16.26 35.51 41.99ZM964.79 318.29c25.37-2.46 64.45-2.93 75.39 25.03 5.72 14.61 5.8 66.97.31 81.67-9.99 26.75-45.65 27.62-69.98 26-18.56-1.24-37.33-6.65-44.69-25.31-5.87-14.87-5.94-69.28.4-83.96s22.87-21.91 38.57-23.43Zm16.04 29.95c-12.58.3-20.67 2.32-21.86 16.22-.85 9.88-1.12 32.41.12 41.95.63 4.83 2.81 9.45 7.37 11.63 5.41 2.59 20.78 2.67 26.96 1.87 7.25-.94 11.87-4.63 13.14-11.86 1.49-8.47 1.54-37.78.36-46.46-.46-3.36-2.36-7.88-5.18-9.82-4.19-2.88-15.64-3.65-20.9-3.53ZM1681 319v29h-60v23h56v25h-56v25h61v29h-96V319h95zM2219 319v29h-60v23h56v25h-56v25h61v29h-96V319h95zM776.5 87c19.68 2.21 26.81 16.12 27.54 34.46.6 15.06-2.9 29.69-19.03 34.04 6.92 2.77 13.96 5 18.43 11.57 8.35 12.28 6.49 42.17-3.02 53.85-4.09 5.02-15.56 11.09-21.91 11.09h-96.5V87h94.5ZM701 150h62.5c1.48 0 10.17-2.38 11.77-3.23 10.41-5.56 11.99-28.96 6.18-37.72-2.21-3.33-9.16-7.05-12.95-7.05H701v48Zm0 67h70.5c1.22 0 8.44-2.34 9.85-3.15 10.48-6.06 9.98-33.44 3.17-41.87-2.78-3.44-9.75-6.98-14.02-6.98H701v52ZM2423 218V87h19v145h-32c-.11-1.16-.61-2.23-1.33-3.13-31.45-39.26-57.31-86.09-88.38-125.61-.64-.81.04-1.83-2.29-1.27v130h-19V87h31.5l89.08 127.92L2423 218ZM778 319v29h-58v25h53v29h-53v48h-36V319h94zM1076.79 86.29c16.76-1.62 54.41-1.98 69.47 3.95 15.27 6.01 20.54 18.54 21.73 34.27 1.28 17.01 2.11 67.15-2.04 81.93-3.51 12.5-12.56 20.69-24.94 24.06-15.42 4.2-63.17 4.27-78.23-.78-11.94-4-19.62-12.26-22.47-24.53-3.98-17.14-4.32-78.21.75-94.65 5.07-16.44 19.69-22.71 35.74-24.26Zm-12.44 125.36c3.72 3.55 12.1 5.88 17.17 6.34 11.56 1.03 45.33 1.28 55.18-2.79 5.59-2.31 9-7.81 10.62-13.38 3.6-12.32 2.74-58.72 1.72-73.36-1.15-16.51-5.85-25.86-23.56-27.44-11.58-1.04-46.39-1.37-56.01 2.96-8.01 3.6-10.7 11.23-11.46 19.54-1.22 13.33-1.78 68.76 1.51 79.45.8 2.6 2.88 6.83 4.82 8.68ZM1825 87v64h95V87h20v145h-20v-66h-95v66h-20V87h20zM1999 232l59.1-143.4c.51-1.09 1.27-1.4 2.4-1.6 6.79-1.26 16.84.99 24.04-.07L2147 232h-20l-12.08-29.42-3.36-1.64-78.89.22-14.16 30.84h-19.5Zm109-45-35.99-85-35.01 85h71ZM1740 133h-19c.14-10.7.93-24.76-10.71-29.79-8.01-3.46-36.97-2.91-46.83-2.25-15.3 1.02-31.29 4.89-33.35 22.65-1.84 15.84-1.27 47.57-.15 63.93.68 10.02 2.8 22.45 12.81 27.19s43.64 4.22 55.77 3.31c7.93-.6 18.04-2.41 22.03-9.97.49-.93 2.44-6.02 2.44-6.56v-19.5h19v24.5c0 6.87-9.29 17.46-15.32 20.68-14 7.49-59.44 7.29-76.17 5.8-21.47-1.91-37.82-16.58-39.55-38.45-1.47-18.52-1.74-54.69.16-72.91 2.68-25.69 24.57-34.04 47.39-35.61 15.64-1.08 55.34-2.14 67.82 6.16 6.82 4.53 13.67 16.15 13.67 24.33v16.5ZM1359 133h-19c.12-11.87 1.03-25.42-12.21-30.29-9.12-3.36-46.44-2.34-56.85-.26-11.95 2.38-20.35 8.35-21.84 21.16-1.84 15.84-1.27 47.57-.15 63.93s5.49 28.45 23.66 30.34c11.94 1.24 50.58 1.47 60.28-3.48 4.1-2.09 9.1-8.28 9.1-12.9V182h19v23.5c0 10.07-11.19 20.59-20.22 23.78-14.86 5.25-54.73 5.09-71.27 3.7-21.57-1.81-37.82-16.56-39.55-38.45-1.47-18.52-1.74-54.69.16-72.91 1.87-17.87 13.42-28.59 30.25-32.75s67.66-5.72 82.31 1.95c8.16 4.28 16.32 16.53 16.32 25.68V133ZM1444 87v63h15.5l67-63h24.5l-73.92 70.36L1560 232h-25.5l-75-67H1444v67h-19V87h19zM899 87v130h84v15H880V87h19zM2207 87h19v145h-19z"/></svg>