<svg width="112" height="41" viewBox="0 0 112 41" fill="none" xmlns="http://www.w3.org/2000/svg">
<path d="M44.1913 27.6065V27.17L44.002 27.0391H36.3412L36.2188 27.1591V27.5956L36.3412 27.7156H39.5926L39.7151 27.8356V36.969L39.8376 37.089H40.4166L40.5391 36.969V27.9011L40.6616 27.7701H43.9798L44.1691 27.5847L44.1913 27.6065ZM45.9172 29.7998C43.8796 29.7998 42.6547 31.2402 42.6547 33.3025V33.619C42.6547 35.6159 43.6791 37.3728 46.0397 37.3728C48.0774 37.3728 48.8457 36.0633 48.9793 35.1794L48.8568 35.0594H48.2778L48.1553 35.1794C47.8324 36.0524 47.2646 36.6198 46.1065 36.6198C44.1913 36.6198 43.6123 34.863 43.6123 33.99L43.7459 33.87H49.035L49.1686 33.7391V33.3025C49.1686 31.2402 48.0217 29.7998 45.9172 29.7998ZM45.9172 30.5418C46.808 30.5418 47.3982 30.9019 47.7656 31.382C48.1331 31.8621 48.2778 32.4732 48.2778 32.9752L48.1553 33.1061H43.6903L43.5566 32.9752C43.5566 32.4732 43.7014 31.8621 44.0688 31.382C44.4363 30.9019 45.0264 30.5418 45.9172 30.5418ZM50.6384 33.5426C50.6384 31.5348 51.6628 30.4764 53.1326 30.4764C54.6025 30.4764 55.1703 31.3493 55.3596 32.2332L55.4821 32.3532H56.1168L56.2393 32.2332C56.1168 30.7928 54.9031 29.7889 53.1104 29.7889C51.1952 29.7889 49.7254 30.9783 49.7254 33.5426C49.7254 36.107 51.1952 37.2964 53.1104 37.2964C54.9031 37.2964 56.05 36.2924 56.2393 34.852L56.1168 34.732H55.5378L55.4153 34.852C55.2928 35.725 54.647 36.598 53.1772 36.598C51.7074 36.598 50.6273 35.5941 50.6273 33.5317M63.399 37.0454V32.6696C63.399 30.7928 62.3746 29.7889 60.7155 29.7889C59.6911 29.7889 58.8003 30.2254 58.3549 30.9783H58.2324V27.2245L58.0431 27.0391H57.4752L57.3528 27.1591V37.0344L57.4752 37.1654H58.0431L58.1656 37.0454V33.1061C58.1656 31.4802 58.9339 30.4764 60.5262 30.4764C61.7399 30.4764 62.4414 31.2292 62.4414 32.6696V37.0454L62.5639 37.1654H63.1429L63.399 37.0454ZM70.9262 37.0454V32.6696C70.9262 30.7928 69.9018 29.7889 68.2427 29.7889C67.2183 29.7889 66.3275 30.2254 65.8821 30.9783H65.7596L65.6371 30.1053L65.5146 29.9853H65.0692L64.9468 30.1053V37.0454L65.0692 37.1654H65.6483L65.7707 37.0454V33.1061C65.7707 31.4802 66.539 30.4764 68.1313 30.4764C69.345 30.4764 70.0465 31.2292 70.0465 32.6696V37.0454L70.169 37.1654H70.8037L70.9262 37.0454ZM75.202 29.8544C73.2868 29.8544 71.817 31.1638 71.817 33.6081C71.817 36.0524 73.2868 37.3618 75.202 37.3618C77.1172 37.3618 78.587 36.0524 78.587 33.6081C78.587 31.1638 77.1172 29.8544 75.202 29.8544ZM75.202 30.5418C75.9369 30.5418 76.5604 30.8365 76.9947 31.3712C77.429 31.9059 77.6851 32.6697 77.6851 33.6081C77.6851 34.5465 77.429 35.3104 76.9947 35.8451C76.5604 36.3798 75.9369 36.6744 75.202 36.6744C74.5005 36.6853 73.8435 36.3798 73.4093 35.8451C72.975 35.3104 72.7189 34.5465 72.7189 33.6081C72.7189 32.6697 72.975 31.8731 73.4093 31.3493C73.8435 30.8255 74.4671 30.5418 75.202 30.5418ZM80.569 37.0454V27.17L80.3797 27.0391H79.8118L79.6782 27.1591V37.0454L79.8118 37.1654H80.3797L80.569 37.0454ZM84.9673 29.8544C83.0521 29.8544 81.5823 31.1638 81.5823 33.6081C81.5823 36.0524 83.0521 37.3618 84.9673 37.3618C86.8825 37.3618 88.3523 36.0524 88.3523 33.6081C88.3523 31.1638 86.8825 29.8544 84.9673 29.8544ZM84.9673 30.5418C85.7022 30.5418 86.3146 30.8365 86.76 31.3712C87.1943 31.9059 87.4615 32.6697 87.4615 33.6081C87.4615 34.5465 87.2054 35.3104 86.76 35.8451C86.3257 36.3798 85.6688 36.6853 84.9673 36.6744C84.2658 36.6853 83.6088 36.3798 83.1746 35.8451C82.7292 35.3104 82.4731 34.5465 82.4731 33.6081C82.4731 32.6697 82.7292 31.8731 83.1634 31.3493C83.5977 30.8255 84.2213 30.5418 84.9562 30.5418H84.9673ZM92.2384 29.7998C90.2007 29.7998 89.1095 31.4257 89.1095 33.5536C89.1095 35.6814 90.1339 37.3072 92.2384 37.3072C93.5745 37.3072 94.2872 36.7398 94.599 36.1179V36.1833C94.599 38.0602 94.1536 39.5006 92.3608 39.5006C91.0247 39.5006 90.5681 38.9441 90.4457 38.1912L90.312 38.0602H89.7442L89.6105 38.1912C89.733 39.3806 90.6349 40.188 92.4165 40.188C94.3317 40.188 95.5454 38.9986 95.5454 36.1179V30.1163L95.4118 29.9962H94.9664L94.8439 30.1163L94.7103 30.9892H94.5878C94.2649 30.4218 93.5634 29.7998 92.2272 29.7998H92.2384ZM92.2384 30.4872C92.9733 30.4872 93.5634 30.7382 93.9754 31.2402C94.3874 31.7421 94.6101 32.5169 94.6101 33.5426C94.6101 34.5684 94.3874 35.3431 93.9754 35.8451C93.5634 36.3579 92.9733 36.6089 92.2384 36.6089C91.5035 36.6089 90.9133 36.3579 90.5013 35.8451C90.0893 35.3322 89.8778 34.5684 89.8778 33.5426C89.8778 32.5169 90.1005 31.7749 90.5013 31.262C90.9133 30.7491 91.5035 30.4872 92.2384 30.4872ZM97.8503 28.6649V27.792L97.7279 27.672H97.16L96.9707 27.792V28.6649L97.0932 28.785H97.6722L97.8615 28.6649H97.8503ZM97.8503 37.0454V30.1053L97.7279 29.9853H97.16L96.9707 30.1053V37.0454L97.0932 37.1654H97.6722L97.8615 37.0454H97.8503ZM102.126 29.7998C100.088 29.7998 98.8748 31.2402 98.8748 33.3025V33.619C98.8748 35.6159 99.8992 37.3728 102.26 37.3728C104.309 37.3728 105.066 36.0633 105.199 35.1794L105.066 35.0594H104.498L104.364 35.1794C104.041 36.0524 103.473 36.6198 102.327 36.6198C100.411 36.6198 99.8324 34.863 99.8324 33.99L99.966 33.87H105.255L105.389 33.7391V33.3025C105.389 31.2947 104.175 29.7998 102.137 29.7998M102.126 30.5418C103.017 30.5418 103.607 30.9019 103.975 31.382C104.342 31.8621 104.487 32.4732 104.487 32.9752L104.353 33.0952H99.888L99.7655 32.9643C99.7655 32.4623 99.9103 31.8513 100.278 31.3712C100.645 30.891 101.235 30.5309 102.126 30.5309M111.635 35.2995C111.635 33.99 110.867 33.4226 109.397 33.1061C107.927 32.7897 107.037 32.6696 107.037 31.6657C107.037 30.9128 107.605 30.4764 108.696 30.4764C110.032 30.4764 110.477 31.0437 110.477 31.7858L110.6 31.9058H111.179L111.301 31.7858C111.301 30.3454 110.088 29.7889 108.618 29.7889C106.959 29.7889 106.124 30.6618 106.124 31.6657C106.124 32.8552 107.014 33.4226 108.484 33.6627C109.954 33.9791 110.722 34.0991 110.722 35.2885C110.722 36.0415 110.277 36.598 108.807 36.598C107.471 36.598 106.892 35.8451 106.892 34.9721L106.758 34.852H106.19L106.068 34.9721C106.068 36.2816 107.092 37.2855 108.874 37.2855C110.722 37.3509 111.613 36.467 111.613 35.2885" fill="black"/>
<path d="M75.4055 18.7141V23.1552H61.1639V1.26576H66.3417V18.7141H75.4055ZM32.358 0L19.7422 9.52616C18.4505 4.76853 14.2415 1.27669 9.0638 1.27669H0V23.1662H9.0638C14.2415 23.1662 18.7734 19.6743 19.7422 14.9167L32.358 24.4319L44.9849 14.9167V23.1662H59.2265V18.725H49.8509V1.27669H44.662V9.52616L32.692 19.0523L30.1087 16.8263L35.9323 12.3851L42.0787 7.62748L38.5156 4.7794L26.5344 13.9674L23.9511 11.7522L35.9211 2.8698L32.358 0.0217787V0ZM4.84367 5.70696H8.72975C9.53146 5.70696 10.3332 5.88151 11.0569 6.20887C11.7807 6.53623 12.4488 7.01639 13.0167 7.60564C13.5846 8.2058 14.0411 8.91508 14.364 9.72257C14.6869 10.5191 14.8651 11.4248 14.8651 12.3742C14.8651 13.2471 14.7092 14.0983 14.4085 14.8839C14.1079 15.6696 13.6736 16.4007 13.128 17.0118C12.5824 17.6229 11.9255 18.1248 11.1794 18.4849C10.4334 18.8341 9.59827 19.0305 8.71861 19.0305H4.83254V5.70696H4.84367Z" fill="black"/>
</svg>
