<svg width="111" height="28" viewBox="0 0 111 28" fill="none" xmlns="http://www.w3.org/2000/svg">
<g clip-path="url(#clip0_9522_12404)">
<path d="M63.8926 10.2871C61.5764 10.2871 60.8677 11.6789 60.8677 13.9283C60.8677 16.1777 61.5764 17.5695 63.8926 17.5695C66.2088 17.5695 66.9175 16.1777 66.9175 13.9283C66.9175 11.6789 66.2139 10.2871 63.8926 10.2871Z" fill="black"/>
<path d="M13.7071 10.5957H11.9609V17.2618H13.7071C16.0027 17.2618 16.6857 15.8957 16.6857 13.9287C16.6857 11.9618 16.0027 10.5957 13.7071 10.5957Z" fill="black"/>
<path d="M110.365 12.7583L99.6367 2.02483C98.2758 0.663886 96.8737 0.191406 94.6911 0.191406H1.931C0.867925 0.191406 0 1.05933 0 2.12241V26.1162C0 27.1792 0.867925 28.0472 1.931 28.0472H94.6911C96.8737 28.0472 98.2758 27.5747 99.6367 26.2137L110.365 15.4854C111.115 14.7356 111.115 13.5081 110.365 12.7583ZM13.7738 19.6298H9.49068V8.59846H13.7738C17.5896 8.59846 19.1611 10.74 19.1611 14.1141C19.1611 17.4883 17.5947 19.6298 13.7738 19.6298ZM30.7112 10.7811H24.7744V12.9638H30.0076V15.1053L24.7744 15.1105V17.4523H30.7112V19.635H22.3041V8.59846H30.7112V10.7811ZM44.0176 19.635H41.9634L36.3553 12.6145L36.4682 19.635H33.998V8.59846H36.0522L41.6809 15.6189L41.5474 8.59846H44.0176V19.635ZM56.3689 10.7862H52.8561V19.635H50.3858V10.7862H46.8782V8.6036H56.3689V10.7862ZM63.8926 19.902C60.0306 19.902 58.3769 17.7605 58.3769 14.1193C58.3769 10.4781 60.0306 8.33654 63.8926 8.33654C67.7546 8.33654 69.4083 10.4781 69.4083 14.1193C69.4083 17.7605 67.7546 19.902 63.8926 19.902ZM82.5453 19.635H80.491L74.8829 12.6145L74.9959 19.635H72.5256V8.59846H74.5799L80.2086 15.6189L80.075 8.59846H82.5453V19.635ZM89.7763 19.8969C88.6721 19.8969 86.7308 19.6093 85.9553 19.2549V17.0261C86.8387 17.3804 88.3177 17.6886 89.7968 17.6886C91.6046 17.6886 92.2465 17.2264 92.2465 16.3173C92.2465 15.4083 91.6713 15.1464 90.0844 15.0129C86.7719 14.7253 85.7807 13.996 85.7807 11.8596C85.7807 9.72317 87.1468 8.32627 90.4182 8.32627C91.5224 8.32627 93.2428 8.52656 94.1929 8.94255V11.1714C93.2017 10.7965 91.8511 10.5295 90.3977 10.5295C88.7645 10.5295 88.1894 10.9249 88.1894 11.8545V11.8647C88.1842 12.6813 88.8005 12.8559 90.3925 12.9894C93.705 13.277 94.6962 13.9806 94.6962 16.3225C94.6962 18.31 93.4174 19.8969 89.7763 19.8969Z" fill="black"/>
</g>
<defs>
<clipPath id="clip0_9522_12404">
<rect width="110.93" height="27.8558" fill="white"/>
</clipPath>
</defs>
</svg>
