<svg width="136" height="31" viewBox="0 0 136 31" fill="none" xmlns="http://www.w3.org/2000/svg">
<path fill-rule="evenodd" clip-rule="evenodd" d="M3.56566 2.48142C3.56566 1.68737 3.59871 1.45577 3.78601 1.2352C4.00635 0.992577 4.43603 0.860235 5.13012 0.860235C7.75224 0.860235 8.82093 2.48142 8.82093 6.47372C8.82093 10.466 7.79631 12.1203 5.09707 12.1203C3.78601 12.1203 3.56566 11.8556 3.56566 10.4219V2.48142ZM1.869 10.3447C1.869 11.3262 1.81392 11.6902 1.59357 11.9107C1.42831 12.0762 1.03168 12.1975 0.602001 12.1975H0.359619V12.8041H4.77757C6.59543 12.8041 7.98361 12.3078 9.03026 11.249C10.1981 10.0911 10.8371 8.41473 10.8371 6.46269C10.8371 4.76431 10.3303 3.2865 9.38281 2.13954C8.28107 0.794064 6.83781 0.1875 4.77757 0.1875H0.359619V0.794065H0.602001C1.03168 0.794065 1.42831 0.904349 1.59357 1.0808C1.81392 1.3124 1.869 1.66531 1.869 2.64685V10.3337V10.3447Z" fill="black"/>
<path fill-rule="evenodd" clip-rule="evenodd" d="M13.8392 7.73036C13.8612 5.75627 14.5112 4.52108 15.5579 4.52108C16.6045 4.52108 17.2215 5.72318 17.1995 7.73036H13.8392ZM18.9292 8.37001C18.841 5.60187 17.4969 3.85938 15.4587 3.85938C13.4205 3.85938 12.0764 5.74524 12.0764 8.37001C12.0764 11.2484 13.4756 13.0571 15.635 13.0571C17.0342 13.0571 18.0037 12.3403 18.808 10.675L18.2461 10.3662C17.5961 11.7778 16.9351 12.3292 15.9325 12.3292C14.4562 12.3292 13.8282 11.1492 13.8061 8.35898H18.9182L18.9292 8.37001Z" fill="black"/>
<path fill-rule="evenodd" clip-rule="evenodd" d="M25.84 10.8525C25.201 12.3303 24.3417 12.981 23.1298 12.981C22.3035 12.981 21.6755 12.6611 21.3229 12.0546C20.9704 11.448 20.8602 10.8635 20.8602 9.45184V6.19845C20.8602 4.95224 20.6949 4.68755 19.9127 4.68755H19.7034V4.11407L22.4246 3.9707V9.94813C22.4246 10.7642 22.4797 11.1392 22.645 11.4921C22.7992 11.8671 23.1738 12.1207 23.5815 12.1207C24.2205 12.1207 24.8154 11.7016 25.201 10.9517C25.5536 10.3121 25.6858 9.6283 25.6858 8.54751V6.20948C25.6858 4.96326 25.5205 4.69858 24.7383 4.69858H24.4628V4.1251L27.2612 3.98173V10.6981C27.2612 11.9553 27.4265 12.231 28.2087 12.231H28.4181V12.8045L25.851 12.9368V10.8525H25.84Z" fill="black"/>
<path fill-rule="evenodd" clip-rule="evenodd" d="M31.6608 9.99289C31.6608 10.7649 31.6938 11.1068 31.793 11.4597C31.9252 11.9118 32.2777 12.1986 32.7184 12.1986C33.4346 12.1986 33.8642 11.4266 33.8642 10.0921V9.82746H34.4702V10.1804C34.4702 12.0221 33.732 12.9926 32.2447 12.9926C31.5286 12.9926 30.9557 12.761 30.6141 12.353C30.2065 11.8567 30.0963 11.3163 30.0963 9.99289V4.77643H28.7522V4.24707C30.3717 3.85004 30.9116 3.08908 31.143 0.861328H31.6608V4.13678H34.1948V4.77643H31.6608V9.99289Z" fill="black"/>
<path fill-rule="evenodd" clip-rule="evenodd" d="M40.5957 6.86073H40.0338C39.7143 5.25058 39.0092 4.47859 37.8524 4.47859C37.0481 4.47859 36.4532 5.04104 36.4532 5.802C36.4532 6.56296 36.8278 6.86073 38.0066 7.2357C39.2075 7.63272 39.7033 7.85329 40.1219 8.17312C40.794 8.70248 41.1135 9.36419 41.1135 10.2134C41.1135 11.8346 39.9567 12.9815 38.3151 12.9815C37.5659 12.9815 37.1363 12.8271 36.2218 12.2867C36.1337 12.2316 36.0566 12.2095 36.0235 12.2095C35.8913 12.2095 35.7811 12.3419 35.704 12.5845L35.6489 12.794H35.1311V9.60682H35.6489C35.8913 10.4891 36.0786 10.9633 36.3761 11.3603C36.8388 12 37.5549 12.375 38.3151 12.375C39.1745 12.375 39.8135 11.7133 39.8135 10.853C39.8135 10.3016 39.538 9.81636 39.0533 9.51859C38.6456 9.25391 38.6236 9.25391 37.4117 8.84585C35.9244 8.34957 35.2303 7.54449 35.2303 6.32034C35.2303 4.93075 36.2549 3.94922 37.7422 3.94922C38.3371 3.94922 38.9762 4.1367 39.494 4.4455C39.6041 4.50064 39.7033 4.54476 39.7694 4.54476C39.8796 4.54476 39.9897 4.39036 40.0448 4.12567H40.6067V6.86073H40.5957Z" fill="black"/>
<path fill-rule="evenodd" clip-rule="evenodd" d="M48.8694 10.5867C48.1973 12.2851 47.2498 13.0571 45.8066 13.0571C43.6582 13.0571 42.1819 11.1712 42.1819 8.41413C42.1819 5.65701 43.7463 3.85938 45.9829 3.85938C47.5363 3.85938 48.7482 4.91811 48.7482 6.27461C48.7482 6.9694 48.2965 7.46568 47.6795 7.46568C47.1397 7.46568 46.732 7.03557 46.732 6.45106C46.732 5.9217 47.1066 5.49159 47.6134 5.49159C47.6906 5.49159 47.7236 5.49159 47.8007 5.54673C47.5253 4.88502 46.9083 4.51005 46.1591 4.51005C44.7269 4.51005 43.9997 5.81141 43.9997 8.41413C43.9997 11.0168 44.6938 12.3292 46.104 12.3292C47.0405 12.3292 47.7456 11.6896 48.2634 10.3331L48.8584 10.5757L48.8694 10.5867Z" fill="black"/>
<path fill-rule="evenodd" clip-rule="evenodd" d="M55.4316 7.20308C55.4316 6.11126 55.3765 5.68115 55.1561 5.33927C54.9468 4.9643 54.6163 4.77682 54.2197 4.77682C53.6027 4.77682 53.0188 5.1959 52.6662 5.90172C52.3247 6.59651 52.2035 7.33542 52.2035 8.63678V10.7101C52.2035 11.9784 52.3688 12.2321 53.151 12.2321H53.4484V12.8055H49.3831V12.2321H49.6805C50.4628 12.2321 50.628 11.9453 50.628 10.7101V2.30645C50.628 1.0492 50.4628 0.77349 49.6805 0.77349H49.4712V0.200011L52.1925 0.0566406V5.71424C52.7874 4.49008 53.5146 3.94969 54.6053 3.94969C55.3875 3.94969 56.0265 4.23642 56.4011 4.77682C56.8638 5.43853 56.996 6.04509 56.996 7.6773V10.7101C56.996 11.9784 57.1613 12.2321 57.9435 12.2321H58.1528V12.8055H55.4316V7.19205V7.20308Z" fill="black"/>
<path fill-rule="evenodd" clip-rule="evenodd" d="M60.4121 7.73036C60.4342 5.75627 61.0842 4.52108 62.1308 4.52108C63.1775 4.52108 63.7945 5.72318 63.7724 7.73036H60.4121ZM65.5021 8.37001C65.403 5.60187 64.0699 3.85938 62.0317 3.85938C59.9935 3.85938 58.6604 5.74524 58.6604 8.37001C58.6604 11.2484 60.0596 13.0571 62.219 13.0571C63.6182 13.0571 64.5877 12.3403 65.392 10.675L64.8301 10.3662C64.1801 11.7778 63.519 12.3292 62.5165 12.3292C61.0401 12.3292 60.4122 11.1492 60.3901 8.35898H65.5021V8.37001Z" fill="black"/>
<path fill-rule="evenodd" clip-rule="evenodd" d="M5.69765 27.6931C5.69765 28.6966 5.75274 29.0385 5.97308 29.2591C6.16038 29.4245 6.53496 29.5458 6.96463 29.5458H7.39433V30.1524H2.2933V29.5458H2.72298C3.15265 29.5458 3.52723 29.4356 3.71453 29.2591C3.93487 29.0275 3.98996 28.6966 3.98996 27.6931V18.1534H3.59334C2.49161 18.1534 1.59921 18.76 1.16953 19.7967C0.927149 20.3591 0.816972 20.9326 0.717816 21.9472L0.177979 21.9141L0.27713 17.5469H9.46557L9.5427 21.9141L8.9808 21.9472C8.62825 19.1901 7.79094 18.1534 5.97308 18.1534H5.69765V27.6931Z" fill="black"/>
<path fill-rule="evenodd" clip-rule="evenodd" d="M10.9063 25.067C10.9283 23.0929 11.5784 21.8577 12.625 21.8577C13.6717 21.8577 14.2886 23.0598 14.2666 25.067H10.9063ZM16.0073 25.7177C15.9082 22.9495 14.5751 21.207 12.5369 21.207C10.4987 21.207 9.15454 23.0929 9.15454 25.7177C9.15454 28.5961 10.5537 30.4048 12.7131 30.4048C14.1123 30.4048 15.0819 29.6879 15.8861 28.0226L15.3242 27.7138C14.6742 29.1255 14.0132 29.6769 13.0106 29.6769C11.5343 29.6769 10.9063 28.4968 10.8843 25.7066H15.9963L16.0073 25.7177Z" fill="black"/>
<path fill-rule="evenodd" clip-rule="evenodd" d="M19.2794 28.0448C19.2794 29.3131 19.4447 29.5778 20.2269 29.5778H20.5244V30.1512H16.459V29.5778H16.7565C17.5387 29.5778 17.7039 29.3131 17.7039 28.0448V19.6301C17.7039 18.3839 17.5387 18.1192 16.7565 18.1192H16.5471V17.5457L19.2684 17.4023V28.0448H19.2794Z" fill="black"/>
<path fill-rule="evenodd" clip-rule="evenodd" d="M22.8724 25.067C22.8944 23.0929 23.5444 21.8577 24.5911 21.8577C25.6377 21.8577 26.2547 23.0598 26.2327 25.067H22.8724ZM27.9624 25.7177C27.8632 22.9495 26.5301 21.207 24.4919 21.207C22.4537 21.207 21.1096 23.0929 21.1096 25.7177C21.1096 28.5961 22.5088 30.4048 24.6682 30.4048C26.0674 30.4048 27.0369 29.6879 27.8412 28.0226L27.2793 27.7138C26.6293 29.1255 25.9683 29.6769 24.9657 29.6769C23.4894 29.6769 22.8614 28.4968 22.8393 25.7066H27.9514L27.9624 25.7177Z" fill="black"/>
<path fill-rule="evenodd" clip-rule="evenodd" d="M34.6702 30.1525L31.982 25.7632L31.2328 26.4249V28.035C31.2328 29.3033 31.3981 29.568 32.1803 29.568H32.5328V30.1415H28.4124V29.568H28.7098C29.4921 29.568 29.6573 29.2813 29.6573 28.035V19.6203C29.6573 18.3741 29.4921 18.1094 28.7098 18.1094H28.5005V17.5359L31.2218 17.3926V25.5205L33.7447 23.3259C34.0863 23.0281 34.2846 22.6973 34.2846 22.4546C34.2846 22.1679 34.0422 22.0356 33.4803 22.0356H33.2049V21.4621H36.8847V22.0356H36.6974C36.1575 22.0356 35.9151 22.1679 35.1439 22.8737L33.0947 24.7265L35.3533 28.388C35.9152 29.2923 36.2677 29.579 36.8627 29.579H37.0169V30.1525H34.6702Z" fill="black"/>
<path fill-rule="evenodd" clip-rule="evenodd" d="M40.7937 21.8253C41.4658 21.8253 42.0387 22.2334 42.3472 22.9502C42.6446 23.6119 42.7768 24.5163 42.7768 25.8066C42.7768 28.4755 42.1268 29.7879 40.8157 29.7879C39.5047 29.7879 38.8657 28.4755 38.8657 25.7625C38.8657 24.5052 38.9979 23.623 39.2954 22.9392C39.5928 22.2665 40.1878 21.8143 40.7937 21.8143V21.8253ZM40.8708 21.2188C38.5682 21.2188 37.0588 23.0274 37.0588 25.8286C37.0588 28.6299 38.5682 30.4055 40.8157 30.4055C43.0633 30.4055 44.5947 28.5637 44.5947 25.8176C44.5947 23.0715 43.0853 21.2298 40.8708 21.2298V21.2188Z" fill="black"/>
<path fill-rule="evenodd" clip-rule="evenodd" d="M55.3459 24.8589C55.3459 23.6568 55.2687 23.0282 55.1035 22.6863C54.9052 22.3114 54.5636 22.1018 54.156 22.1018C53.6382 22.1018 53.1754 22.4437 52.8559 23.0393C52.5364 23.6458 52.4703 24.109 52.4703 25.6751V28.0351C52.4703 29.3034 52.6356 29.5571 53.4178 29.5571H53.6822V30.1305H50.9169V25.1236C50.9169 23.5245 50.8838 23.1495 50.6525 22.7084C50.4431 22.3114 50.1126 22.0908 49.683 22.0908C49.1652 22.0908 48.7024 22.4327 48.405 23.0062C48.1075 23.6348 48.0304 24.1752 48.0304 25.653V28.0131C48.0304 29.3034 48.1736 29.546 48.9779 29.546H49.2423V30.1195H45.2209V29.546H45.5184C46.2786 29.546 46.4659 29.2483 46.4659 28.0131V23.5245C46.4659 22.3114 46.2786 22.0136 45.5184 22.0136H45.3091V21.4401L47.9202 21.3188V22.8738C48.2727 21.9143 49.1431 21.2637 50.0906 21.2637C51.1262 21.2637 51.7983 21.8041 52.272 22.9951C52.8119 21.8261 53.55 21.2637 54.5746 21.2637C55.3679 21.2637 56.084 21.6497 56.4476 22.2783C56.8002 22.8297 56.9103 23.4473 56.9103 24.6384V28.0351C56.9103 29.2814 57.0756 29.5571 57.8578 29.5571H58.0671V30.1305H55.3459V24.8369V24.8589Z" fill="black"/>
<path fill-rule="evenodd" clip-rule="evenodd" d="M75.0278 13.8613H81.0543V19.9821H75.0278V13.8613Z" fill="black"/>
<path fill-rule="evenodd" clip-rule="evenodd" d="M89.5262 23.6781C89.5262 27.7255 90.2093 28.3762 94.5061 28.4203V30.1408H79.9301V28.4203C84.2269 28.3762 84.9099 27.7255 84.9099 23.6781V1.4337C79.9742 1.52193 77.0987 4.83047 76.669 10.8851L75.0825 10.6204L75.38 0H99.0672L99.3647 10.6204L97.7782 10.8851C97.3485 4.83047 94.4289 1.52193 89.5372 1.4337V23.6891L89.5262 23.6781Z" fill="black"/>
<path fill-rule="evenodd" clip-rule="evenodd" d="M93.3203 13.8613H99.3468V19.9821H93.3203V13.8613Z" fill="black"/>
<path fill-rule="evenodd" clip-rule="evenodd" d="M111.307 13.8613H117.333V19.9821H111.307V13.8613Z" fill="black"/>
<path fill-rule="evenodd" clip-rule="evenodd" d="M129.35 13.8613H135.376V19.9821H129.35V13.8613Z" fill="black"/>
</svg>
