<svg width="100" height="43" viewBox="0 0 100 43" fill="none" xmlns="http://www.w3.org/2000/svg">
<path fill-rule="evenodd" clip-rule="evenodd" d="M18.9304 28.8429C18.5888 29.2069 17.6633 29.3392 17.3989 29.7472C17.0022 30.3648 16.0877 31.7874 15.3826 32.4601C13.0799 34.6436 8.16591 35.7464 5.73097 33.6511C5.57672 33.6511 5.66486 33.7504 5.85217 34.3569C6.02845 35.4817 6.94294 38.1395 6.60139 38.8122C6.82175 39.5621 7.0421 39.2864 7.46078 39.7054C7.74724 39.9922 7.85742 40.731 8.17693 40.9295C8.55154 40.9075 8.91512 40.8744 9.28973 40.8523C9.35584 41.0619 9.42195 41.2604 9.48806 41.4699C9.96183 41.4368 10.4356 41.4037 10.9094 41.3707C11.1738 41.4368 11.9781 41.8449 12.2205 41.911C12.7493 41.8779 13.2782 41.8338 13.796 41.8007C15.008 42.1206 16.0547 41.6133 17.0794 40.9295C17.6523 40.5546 18.2693 40.6097 18.7761 40.1796C19.5033 39.551 20.5059 38.327 20.9687 37.4778C22.1145 35.3935 21.7289 30.4199 20.6932 29.1848C20.2856 28.7437 19.8118 28.7327 18.9193 28.8319M28.4939 27.4755C27.6345 28.1372 27.2709 27.9717 26.7751 28.9863C26.72 28.9863 26.8522 29.1407 26.7971 29.1407C27.3039 30.1663 28.4828 30.5743 29.3422 31.2911C29.6067 31.5227 30.3338 32.7799 30.6864 32.8681C31.072 33.3313 31.3254 34.6106 31.5789 34.6106C31.8433 34.9745 31.5568 35.8236 31.8102 36.1434C31.8212 37.6653 31.6119 37.7645 31.3475 38.0623C31.3475 38.1726 31.4907 38.4483 31.4907 38.5475C31.5678 38.6247 32.1738 39.0548 32.4383 38.9997C33.2646 39.0217 36.6471 41.6684 36.9225 42.1757C39.3464 42.3632 39.1702 41.6133 40.8449 40.9075C41.2966 40.709 41.6602 40.9075 41.9577 40.5877C42.2662 40.2679 42.2992 39.6393 42.5967 39.3195C42.6408 33.3423 34.5096 27.685 28.4939 27.4755ZM35.0825 14.8485C32.0747 15.3007 30.2347 16.2601 29.0998 17.0541C28.3066 17.6055 28.0752 17.9804 27.9099 18.212C27.7336 18.4436 27.6234 18.9619 27.7006 19.5023C27.7887 20.0427 28.0091 20.6161 28.4828 20.9359C32.1738 20.6602 38.5862 20.4286 39.8422 23.5385C39.9084 23.9686 40.0075 24.2333 40.0185 24.3325C41.2415 24.0237 40.3491 24.134 42.145 24.4208C42.5526 24.4869 43.5773 24.2553 44.2494 24.0899C44.5579 24.0127 44.7342 23.737 44.7342 23.737C44.7342 23.737 44.6791 23.4393 44.6901 23.2738C44.6901 23.2738 45.3181 23.318 45.5825 23.1194C47.2903 22.8438 46.3979 22.0387 47.2022 21.1344C46.7174 15.3227 40.7677 13.9773 35.1046 14.8375M12.1764 25.4243C12.8375 25.2589 13.9613 25.1596 14.5563 24.8729C15.4928 24.3987 18.732 22.138 17.6964 20.2963C17.3768 16.4145 12.7053 19.6898 10.711 18.3333C8.69478 18.0687 6.43611 14.253 5.81911 12.6209C5.58774 11.9702 5.67588 12.1908 5.35637 11.6835C5.35637 11.6284 5.14702 11.86 5.14702 11.8048C4.56308 12.4885 4.66224 13.0951 4.56308 14.7713C4.29865 14.7493 4.03422 14.7382 3.76979 14.7272C3.7147 15.3337 3.65961 15.6646 3.37315 15.9734C3.31806 16.0726 3.25195 16.1719 3.19686 16.2821C2.69004 16.1167 2.94346 16.3483 2.74514 15.9293C0.894141 16.0285 1.02635 17.8922 0.177979 18.9509C0.211032 22.4357 7.1082 26.7366 12.1654 25.4243M25.6072 6.46731C25.7614 5.15498 25.5741 3.22509 26.6098 2.3208C26.9183 0.920253 29.1219 1.24007 28.7803 0.346809C28.571 -0.215615 27.5243 0.0490569 27.1056 0.159336C26.7861 0.236531 23.7562 1.19596 22.5883 1.32829C22.0925 1.19596 21.5967 1.0526 21.1119 0.920265C19.2058 1.17391 18.115 2.69576 17.0573 3.8978C16.1649 4.90134 14.9639 7.38262 15.9225 8.86036C15.8674 9.18017 15.8123 9.51101 15.7572 9.83082L17.9167 12.9958C18.6659 13.5362 18.7651 13.9332 19.5584 14.4515C19.7236 14.7051 19.8889 14.9478 20.0542 15.2014C20.7042 15.6315 22.6434 15.6425 22.9739 15.3558C26.092 15.6425 25.7504 9.33456 26.742 8.01121C26.6208 7.4157 26.092 6.79815 25.5962 6.48937" fill="black"/>
<path d="M75.7379 29.8698C78.4923 29.8698 80.74 28.9545 80.74 24.0801C80.74 19.9336 78.4923 18.5551 75.7379 18.5551H74.2945V29.8808H75.7379V29.8698ZM77.2033 15.2578C82.1944 15.2578 85.5769 18.4228 85.5769 24.0801C85.5769 31.1932 80.9383 33.2995 76.0684 33.2995H69.5569C69.5789 32.9025 69.5569 31.8548 69.5569 30.5315V18.0258C69.5569 16.7135 69.5789 15.8643 69.5569 15.2578H77.2033Z" fill="black"/>
<path d="M92.6538 30.5204C92.6538 31.8438 92.7199 33.2884 92.7199 33.2884H87.8831C87.8831 33.2884 87.9161 31.8438 87.9161 30.5204V18.0148C87.9161 16.7025 87.8831 15.2578 87.8831 15.2578H99.3086V18.7426C99.3086 18.7426 96.7524 18.6765 95.8931 18.6765H92.6538V22.3047L95.8931 22.3377C96.499 22.3377 98.5814 22.3047 98.5814 22.3047V25.624C98.5814 25.624 96.7304 25.5689 95.8931 25.5689L92.6538 25.591V30.5094V30.5204Z" fill="black"/>
<path d="M55.8896 22.071C55.9557 21.0234 56.3303 18.6083 58.9635 18.6083C61.5968 18.6083 61.8062 20.88 61.8062 22.0931V22.3357C61.8062 22.3357 59.9992 22.3909 58.9305 22.3909C57.8618 22.3909 55.8675 22.3357 55.8675 22.3357L55.8896 22.0821V22.071ZM59.9111 29.6472C57.6414 29.6472 55.8896 28.1143 55.8896 25.7213V25.5118C55.8896 25.5118 60.1094 25.4125 61.5417 25.4125C63.9767 25.4125 64.9793 25.3905 66.8964 25.3684V24.012C66.8964 17.8694 64.2962 14.8809 58.9305 14.8809C56.4625 14.8809 50.7112 15.8072 50.7112 24.42C50.7112 30.1655 53.6089 33.5952 58.6661 33.5952C62.6435 33.5952 65.0785 32.5807 66.8523 31.2904C66.654 30.9926 65.1776 28.3239 64.9793 28.0372C63.9216 28.8422 62.1698 29.6583 59.9111 29.6583" fill="black"/>
</svg>
