<svg width="74" height="30" viewBox="0 0 74 30" fill="none" xmlns="http://www.w3.org/2000/svg">
<path d="M73.5658 2.1155H61.3518L62.1101 0H73.5658V2.1155Z" fill="black"/>
<path d="M41.0042 0H52.3486L53.0968 2.1155H41.0143V0" fill="black"/>
<path d="M31.9909 0C33.8614 0.182197 35.4893 0.850247 36.8745 2.1155H16.3088V0H31.9909Z" fill="black"/>
<path d="M14.4647 0H0.177979V2.10537H14.4647V0Z" fill="black"/>
<path d="M73.5809 6.07378H59.9614L60.6995 3.97852H73.5809V6.07378Z" fill="black"/>
<path d="M54.4921 6.07415H41.0042V3.96875H53.754L54.4921 6.07415Z" fill="black"/>
<path d="M38.472 3.9668C38.745 4.6551 39.0584 5.2523 39.0584 6.06206H16.3088V3.9668H38.472Z" fill="black"/>
<path d="M14.4647 3.9668H0.177979V6.06206H14.4647V3.9668Z" fill="black"/>
<path d="M58.5647 10.0312L59.3129 7.92578H69.5351V10.0312H58.5647Z" fill="black"/>
<path d="M55.145 7.92578L55.8932 10.0312H45.0239V7.92578H55.145Z" fill="black"/>
<path d="M39.2546 7.92578C39.2546 8.64445 39.1636 9.40358 38.9512 10.0312H32.7229V7.92578H39.2546Z" fill="black"/>
<path d="M10.3036 7.93555H4.16626V10.0308H10.3036V7.93555Z" fill="black"/>
<path d="M26.5728 7.92578H20.4456V10.0312H26.5728V7.92578Z" fill="black"/>
<path d="M51.0602 12.3085V13.9078H45.0239V11.8125H56.5302L57.248 13.7661C57.248 13.7661 57.9356 11.8024 57.9356 11.8125H69.5328V13.9078H63.5269V12.3085L62.9708 13.9078H51.6264L51.0703 12.3085H51.0602Z" fill="black"/>
<path d="M20.4479 11.8125H38.0409C37.6567 12.5109 36.959 13.3713 36.2917 13.9078H20.4377V11.8125" fill="black"/>
<path d="M10.3036 11.8125H4.16626V13.9078H10.3036V11.8125Z" fill="black"/>
<path d="M69.5374 15.7715H63.5315V17.8668H69.5374V15.7715Z" fill="black"/>
<path d="M51.0602 15.7715H45.0239V17.8668H51.0602V15.7715Z" fill="black"/>
<path d="M62.3119 15.7715C62.3119 15.7715 61.6041 17.8668 61.5839 17.8668H53.03C53.03 17.8668 52.2818 15.7614 52.2717 15.7715H62.3119Z" fill="black"/>
<path d="M20.4456 15.7715H36.2692C36.987 16.3788 37.6442 17.1177 38.1599 17.8668C38.1902 17.8668 20.4557 17.8668 20.4557 17.8668V15.7715" fill="black"/>
<path d="M10.3013 17.8668V15.7715H4.17407V17.8668H10.3013Z" fill="black"/>
<path d="M69.5374 19.7266H63.5315V21.8218H69.5374V19.7266Z" fill="black"/>
<path d="M51.0602 19.7266H45.0239V21.8218H51.0602V19.7266Z" fill="black"/>
<path d="M60.1765 21.832C60.1765 21.832 60.9145 19.7165 60.9247 19.7266H53.6448L54.393 21.8219C54.393 21.8219 60.1663 21.8421 60.1663 21.8219" fill="black"/>
<path d="M20.4456 21.8218V19.7266H26.6638V21.8218H20.4456Z" fill="black"/>
<path d="M39.0322 19.7266C39.3356 20.3541 39.3659 21.1133 39.4265 21.8319H32.8342V19.7266H39.0322Z" fill="black"/>
<path d="M10.3013 19.7266H4.17407V21.8218H10.3013V19.7266Z" fill="black"/>
<path d="M73.5818 23.6035H63.5315V25.6988H73.5818V23.6035Z" fill="black"/>
<path d="M51.0645 23.6035H41.0042V25.6988H51.0645V23.6035Z" fill="black"/>
<path d="M58.8195 25.6988H55.7559L55.0178 23.6035H59.5374L58.8195 25.6988Z" fill="black"/>
<path d="M0.177984 23.6035V25.6988H14.4546V23.6035C14.4546 23.6035 0.167873 23.6035 0.177984 23.6035Z" fill="black"/>
<path d="M39.1494 23.6035C38.9978 24.2918 38.8663 25.1421 38.3608 25.6988H16.3088V23.6035H39.1494Z" fill="black"/>
<path d="M57.4329 29.6699H57.1498L56.4319 27.5645H58.171L57.4329 29.6699Z" fill="black"/>
<path d="M73.5818 27.5645H63.5315V29.6699H73.5818V27.5645Z" fill="black"/>
<path d="M16.3088 29.6675V27.5723C16.3088 27.5723 36.9351 27.5723 36.9958 27.5723C35.6106 28.8983 33.7098 29.6473 31.6674 29.6776H16.319" fill="black"/>
<path d="M51.0645 27.5645H41.0042V29.6699H51.0645V27.5645Z" fill="black"/>
<path d="M14.4546 27.5746V29.6699C14.4546 29.6699 0.188089 29.6699 0.177979 29.6699V27.5645C0.177979 27.5645 14.4445 27.5746 14.4546 27.5645" fill="black"/>
</svg>
