<svg width="90" height="43" viewBox="0 0 90 43" fill="none" xmlns="http://www.w3.org/2000/svg">
<path fill-rule="evenodd" clip-rule="evenodd" d="M21.5279 0C9.73591 0 0.177979 9.56777 0.177979 21.3636C0.177979 33.1593 9.73591 42.7356 21.5279 42.7356C33.32 42.7356 42.8779 33.1677 42.8779 21.3636C42.8779 9.55936 33.32 0 21.5279 0ZM26.7269 28.8883V30.5278H22.309L20.6713 30.5362V12.1573H22.309V28.8799H26.7269V28.8883ZM21.5279 39.2548C11.6593 39.2548 3.65512 31.2424 3.65512 21.3636C3.65512 11.4847 11.6593 3.47232 21.5279 3.47232C21.7883 3.47232 22.0487 3.47234 22.309 3.48915V5.12022C22.0487 5.11181 21.7883 5.10339 21.5279 5.10339C12.5579 5.10339 5.2845 12.3843 5.2845 21.3636C5.2845 30.3428 12.5579 37.6238 21.5279 37.6238C30.4979 37.6238 37.3766 30.738 37.7546 22.095V22.0446H26.752V20.4051H39.3756C39.3924 20.7246 39.4008 21.0441 39.4008 21.3636C39.4008 31.2424 31.405 39.2548 21.5279 39.2548ZM17.3705 14.6039C17.3705 15.9911 16.2451 17.1178 14.8592 17.1178C13.4734 17.1178 12.348 15.9911 12.348 14.6039C12.348 13.2167 13.4734 12.0901 14.8592 12.0901C16.2451 12.0901 17.3705 13.2167 17.3705 14.6039Z" fill="black"/>
<path fill-rule="evenodd" clip-rule="evenodd" d="M53.4729 31.8567H68.7253V27.2493H59.5201H59.0666V26.7953V10.7285H53.4729V31.8567Z" fill="black"/>
<path fill-rule="evenodd" clip-rule="evenodd" d="M87.1609 12.2149C85.414 10.8613 83.163 10.1719 80.4754 10.1719C77.2838 10.1719 74.6214 11.1556 72.7652 13.0052C70.8335 14.9389 69.8088 17.7975 69.8088 21.2614C69.8088 24.9608 70.8923 28.08 72.8576 30.0473C74.403 31.5943 76.4608 32.4098 78.8124 32.4098C83.9778 32.4098 85.1704 29.3075 85.1704 29.3075V31.8466H89.8318V19.9162H80.5426V23.6492H84.8176C84.8176 23.6492 84.8596 28.349 80.4502 28.349C79.3332 28.349 78.3337 27.9455 77.561 27.172C76.3684 25.9781 75.73 23.9603 75.73 21.3455C75.73 17.0157 77.4518 14.4261 80.3326 14.4261C82.13 14.4261 83.4822 15.5359 83.8266 17.209H89.7646C89.4538 14.7708 88.7903 13.5013 87.1609 12.2149Z" fill="black"/>
</svg>
