<svg width="103" height="18" viewBox="0 0 103 18" fill="none" xmlns="http://www.w3.org/2000/svg">
<path fill-rule="evenodd" clip-rule="evenodd" d="M0.395839 0.653329V17.1528H3.24994V6.11253L12.0114 17.1528H14.3456V0.653329H11.6796V9.74463L4.41149 0.653329H0.384766H0.395839ZM40.1101 11.4278L38.0304 17.1417H40.6965L41.5372 14.9934L40.1101 11.4167V11.4278ZM47.8428 0.653329H44.4024L43.2961 3.51028L44.856 7.47456L45.3759 6.04609L49.469 17.1528H54.1374L47.8428 0.653329ZM47.6437 17.1528L41.3491 0.653329H38.0415L31.8797 17.1528H34.8665L39.0149 6.04609L43.1744 17.1528H47.6548H47.6437ZM24.4014 0C18.9476 0 16.2263 4.15253 16.2263 8.90304C16.2263 13.6535 18.9476 17.8061 24.4014 17.8061C29.8552 17.8061 32.5102 13.7089 32.5102 8.90304C32.5102 4.09717 29.8442 0 24.4014 0ZM24.4014 15.525C22.3217 15.525 20.3747 13.5096 20.3747 8.90304C20.3747 4.29649 22.3217 2.28113 24.4014 2.28113C26.4812 2.28113 28.4282 4.29649 28.4282 8.90304C28.4282 13.5096 26.4148 15.525 24.4014 15.525ZM75.2335 2.98983H77.0478C79.0611 2.98983 79.9683 4.21898 79.9683 5.97965C79.9683 8.06146 78.7956 8.8366 75.9415 9.03592L80.2891 17.1528H84.7694L80.809 9.87751C82.9552 9.15774 84.1831 7.92858 84.1831 5.39276C84.1831 2.72406 82.0369 0.653329 79.0501 0.653329H70.9966V17.1528H75.2114V2.98983H75.2335ZM65.1667 11.4942C65.1667 13.9636 64.3259 15.1927 61.9807 15.1927C59.6354 15.1927 58.8057 13.9636 58.8057 11.4942V0.642262H54.5246V11.4942C54.5246 15.9125 57.1906 17.795 61.4054 17.795C65.6202 17.795 68.2199 15.9125 68.2199 11.4942V0.642262H65.1667V11.4942ZM91.8494 0.653329L85.234 17.1528H88.0881L89.9024 12.6016H95.9425L97.7567 17.1528H102.425L95.677 0.653329H91.8494ZM90.8095 10.2651L92.8892 5.07164L94.969 10.2651H90.8095Z" fill="black"/>
</svg>
