<svg width="131" height="48" viewBox="0 0 131 48" fill="none" xmlns="http://www.w3.org/2000/svg">
<path d="M13.1734 30.5052C11.3473 30.3224 9.1775 29.7526 7.27624 28.1074C5.53611 26.602 4.45121 24.5268 3.92488 22.6988C3.3878 20.8386 3.16222 18.6558 4.05377 18.8279C4.32231 18.8816 4.79495 20.0752 5.31055 20.9569C5.83689 21.8601 6.26654 22.3547 6.67472 22.6558C6.85733 22.7956 7.48033 21.4085 8.38263 20.6236C8.90896 20.1827 9.47828 20.0429 9.57496 21.3332C9.68237 22.9246 9.40308 24.8171 9.86497 24.8171C10.2946 24.8171 11.2721 24.4945 13.4204 24.301C14.226 24.2365 14.688 24.387 13.9146 25.473C13.5279 26.0214 13.0123 26.7848 11.7985 27.6558C13.6245 29.3655 15.8158 29.1612 15.8588 29.8924C15.8803 30.3117 15.0639 30.5375 13.9897 30.5375C13.7212 30.5375 13.4419 30.5268 13.1626 30.4945M19.3176 15.1182C17.6419 14.7741 17.2982 13.2473 17.2982 13.2473C17.1585 12.7096 17.1263 12.0322 17.2444 11.172C17.47 9.36557 17.9534 8.52685 18.512 7.12901C19.2531 5.24729 17.4485 4.15052 17.7386 3.46235C18.1467 2.52687 19.4357 3.70967 20.8858 3.80644C22.1211 3.87096 22.873 3.80645 23.8398 3.94623C25.1288 4.11828 26.6648 4.54838 27.3415 5.35483C27.9645 6.08601 27.0085 6.98923 25.8592 6.43009C25.0214 6.02149 23.9579 6.26878 24.5809 7.1505C25.3221 7.9892 25.6873 8.01072 26.45 8.20427C28.5553 8.76341 28.5983 10.7741 27.1697 11.8171C25.5584 12.9999 23.915 12.5053 23.2597 10.1828C22.9267 9.02147 22.1104 8.43006 21.2725 8.76339C20.4454 9.08597 20.9288 10.6129 21.5733 12.0322C22.6689 14.8386 20.4454 15.1397 19.5968 15.1397C19.4679 15.1397 19.3605 15.1397 19.3176 15.129M18.1038 31.0321C18.0823 30.6558 18.6301 30.5697 18.6301 30.5697C23.5068 29.602 22.0782 26.3977 20.3595 24.7633C19.6291 24.0752 12.8404 18.2042 12.8404 18.2042C6.36323 12.6236 6.87881 8.26878 6.87881 8.26878C7.20106 2.90322 11.8844 1.56989 15.4291 1.88171C15.848 1.91397 16.0736 2.16128 15.9984 2.51611C15.9232 2.89246 15.3754 2.92472 15.3754 2.92472C14.2475 2.98924 13.2378 3.10751 12.4644 3.62363C9.60718 5.54836 10.445 8.82792 14.2583 12.4731C14.7416 12.9354 15.2465 13.4193 15.7728 13.9139C15.7728 13.9139 16.5355 14.5913 18.0608 16.043C20.9932 18.7419 22.5937 20.2042 22.5937 20.2042C27.7604 24.516 25.9881 28.4515 24.0224 29.8171C22.5185 30.8601 20.8429 31.3547 18.6516 31.473C18.6301 31.473 18.6086 31.473 18.5979 31.473C18.3938 31.473 18.093 31.3547 18.0823 31.0321M16.138 0.0107631C7.03993 0.419363 -0.00653934 8.13977 0.401641 17.258C0.809821 26.3655 8.52228 33.4192 17.6311 33.0106C26.7293 32.602 33.7757 24.8816 33.3675 15.7634C32.9701 6.9032 25.6658 0 16.89 0C16.6429 0 16.3851 2.10017e-05 16.138 0.0215263" fill="black"/>
<path d="M42.3625 21.4198C43.6837 22.4736 45.7676 23.1403 47.2177 23.1403C49.0008 23.1403 50.0749 22.366 50.0749 20.8929C50.0749 19.7532 49.6131 19.022 48.1629 18.3016C46.4873 17.4414 45.1338 16.9145 43.8556 15.8392C42.717 14.8285 41.9006 13.5919 41.9006 11.7747C41.9006 9.22634 44.006 7.44141 47.5292 7.44141C49.4627 7.44141 51.0847 7.75323 52.5992 8.40914V11.1081C52.5992 11.5059 52.2233 11.6349 51.9117 11.3769C50.6872 10.3446 49.409 9.86075 47.9589 9.86075C46.4013 9.86075 45.5205 10.5919 45.5205 11.7747C45.5205 12.6349 45.8213 13.2263 46.4013 13.6887C47.497 14.5919 48.8611 15.2478 50.0749 15.8285C52.3629 16.9037 53.6949 18.1833 53.6949 20.8607C53.6949 24.2047 50.8591 25.5919 47.2607 25.5919C44.5967 25.5919 41.2454 24.323 41.6858 23.2155L42.3625 21.4306V21.4198Z" fill="black"/>
<path d="M55.6655 7.66602H59.4251V13.8058C60.3489 13.0101 61.5089 12.5262 62.8946 12.5262C65.6659 12.5262 67.4813 14.1283 67.4813 16.4617V25.3003H64.0332V16.924C64.0332 15.666 63.3995 15.0961 62.0353 15.0961C61.133 15.0961 60.3059 15.4939 59.4251 16.1283V25.3003H55.977V9.85956C55.977 9.10688 55.8696 8.74129 55.4292 8.27892C55.1714 7.94559 55.3433 7.66602 55.6763 7.66602" fill="black"/>
<path d="M73.9604 12.9473V25.3128H70.5124V15.13C70.5124 14.4311 70.362 14.0548 69.9645 13.5924C69.696 13.2591 69.8786 12.958 70.1793 12.958H73.9604V12.9473ZM74.1 9.03328C74.1 10.2161 73.2192 11.1193 72.0162 11.1193C70.8131 11.1193 69.9323 10.2161 69.9323 9.03328C69.9323 7.85049 70.8131 6.94727 72.0162 6.94727C73.2192 6.94727 74.1 7.85049 74.1 9.03328Z" fill="black"/>
<path d="M76.775 12.9477H80.4486V14.1627C81.3509 13.281 82.4465 12.5391 83.9826 12.5391C86.5928 12.5391 88.6015 14.0122 88.6015 16.7219V25.324H85.1534V17.0337C85.1534 15.6466 84.5411 15.0337 83.1555 15.0337C82.1887 15.0337 81.3509 15.4315 80.5668 16.1304V25.324H77.1187V15.1842C77.1187 14.4315 76.9898 14.0659 76.5709 13.6036C76.2809 13.2702 76.4635 12.9692 76.7857 12.9692" fill="black"/>
<path d="M91.2145 7.66602H94.974V13.8058C95.8978 13.0101 97.0579 12.5262 98.4436 12.5262C101.215 12.5262 103.041 14.1283 103.041 16.4617V25.3003H99.5929V16.924C99.5929 15.666 98.9592 15.0961 97.595 15.0961C96.6927 15.0961 95.8656 15.4939 94.9848 16.1283V25.3003H91.5367V9.85956C91.5367 9.10688 91.4293 8.74129 90.9889 8.27892C90.7204 7.94559 90.903 7.66602 91.236 7.66602" fill="black"/>
<path d="M110.862 14.8607C109.519 14.8607 108.112 15.4736 107.124 16.1187C106.641 16.4521 106.351 16.2693 106.351 15.7639V13.4521C107.65 12.8822 109.605 12.5273 111.077 12.5273C114.482 12.5273 116.437 13.8499 116.437 16.5703V25.3015H113.053V23.9574C112.087 25.1402 110.701 25.6993 109.229 25.6993C106.769 25.6993 105.072 24.1187 105.072 21.7854C105.072 19.151 106.898 17.4951 110.765 17.4951H112.989V16.5703C112.989 15.3661 112.215 14.8607 110.862 14.8607ZM112.989 19.7854H110.744C109.057 19.7854 108.391 20.5596 108.391 21.7209C108.391 22.6886 108.961 23.3445 109.97 23.3445C111.152 23.3445 112.215 22.7961 112.978 21.9144V19.7854H112.989Z" fill="black"/>
<path d="M118.979 12.9477H122.642V14.1627C123.544 13.281 124.64 12.5391 126.176 12.5391C128.786 12.5391 130.795 14.0122 130.795 16.7219V25.324H127.347V17.0337C127.347 15.6466 126.735 15.0337 125.349 15.0337C124.382 15.0337 123.555 15.4315 122.76 16.1304V25.324H119.312V15.1842C119.312 14.4315 119.183 14.0659 118.764 13.6036C118.474 13.2702 118.657 12.9692 118.979 12.9692" fill="black"/>
<path d="M42.6253 29.9336H48.6621C52.2605 29.9336 54.5485 31.5788 54.5485 34.2454C54.5485 35.9121 53.8933 37.1486 52.615 37.9121C54.3981 38.5895 55.4723 39.8906 55.4723 42.1809C55.4723 45.4174 52.862 47.0841 48.9306 47.0841H42.9583V32.1486C42.9583 31.396 42.8294 31.0304 42.4105 30.568C42.1527 30.2347 42.3246 29.9336 42.6361 29.9336M46.5353 36.9228H48.4258C50.0692 36.9228 50.9715 36.3099 50.9715 34.654C50.9715 32.9981 50.0692 32.3637 48.3613 32.3637H46.5353V36.9121V36.9228ZM51.7879 41.9873C51.7879 40.1594 50.7782 39.3744 48.7158 39.3744H46.546V44.654H48.7373C50.7997 44.654 51.7879 43.8368 51.7879 41.9981" fill="black"/>
<path d="M62.695 36.6439C61.3523 36.6439 59.9451 37.2568 58.9569 37.9019C58.4735 38.2353 58.1835 38.0525 58.1835 37.5471V35.2353C59.4832 34.6654 61.4382 34.3105 62.9098 34.3105C66.3149 34.3105 68.2698 35.6331 68.2698 38.3536V47.0847H64.8862V45.7406C63.9195 46.9234 62.5338 47.4825 61.0622 47.4825C58.6024 47.4825 56.916 45.9019 56.916 43.5686C56.916 40.9342 58.7421 39.2783 62.609 39.2783H64.8326V38.3536C64.8326 37.1493 64.0591 36.6439 62.7057 36.6439M64.8218 41.5686H62.5768C60.8904 41.5686 60.2244 42.3428 60.2244 43.504C60.2244 44.4718 60.7937 45.1277 61.8034 45.1277C62.985 45.1277 64.0484 44.5793 64.811 43.6976V41.5686H64.8218Z" fill="black"/>
<path d="M70.8121 34.7309H74.475V35.9459C75.3773 35.0642 76.4729 34.3223 78.0089 34.3223C80.6192 34.3223 82.6171 35.7954 82.6171 38.505V47.1071H79.1691V38.8169C79.1691 37.4298 78.5568 36.8169 77.1711 36.8169C76.2044 36.8169 75.3665 37.2147 74.5824 37.9136V47.1071H71.1343V36.9674C71.1343 36.2147 71.0054 35.8491 70.5865 35.3868C70.2965 35.0534 70.4791 34.7524 70.8014 34.7524" fill="black"/>
<path d="M85.5677 47.0855V31.6447C85.5677 30.9028 85.4603 30.5264 85.0199 30.064C84.7514 29.7307 84.934 29.4512 85.267 29.4512H89.0265V39.5694L93.3983 34.7307H97.3512L92.625 40.0102L97.9205 47.0963H94.118L90.3155 41.9242C89.9181 41.3758 89.7462 41.2898 89.3273 41.2898H89.0158V47.0963H85.5677V47.0855Z" fill="black"/>
</svg>
