<svg width="93" height="33" viewBox="0 0 93 33" fill="none" xmlns="http://www.w3.org/2000/svg">
<path d="M26.2212 0C23.8121 0 21.7072 1.31111 20.5728 3.2543C17.275 3.2543 14.3982 5.05696 12.8545 7.72593C14.024 7.72593 15.3922 8.84975 16.6201 10.8515C17.2399 11.8699 17.8246 13.099 18.3275 14.4569C20.6781 14.1408 22.3737 13.6141 22.9 13.0288C22.0229 11.7411 20.8886 10.6291 19.5905 9.76283C20.9237 9.80965 22.3153 9.76283 23.5315 9.61065C23.7069 10.2896 23.8472 10.9919 23.9642 11.706C24.163 12.9702 24.2683 14.2462 24.2683 15.3817C24.2332 15.3817 24.1981 15.3934 24.163 15.4051C23.9876 14.9603 23.7771 14.5271 23.5549 14.1057C23.0169 14.8315 21.2628 15.4871 18.8187 15.8968C19.0876 16.7747 19.3332 17.6878 19.532 18.6126C19.9413 20.5206 20.1518 22.4521 20.1752 24.208C22.7363 23.3535 24.5138 22.0424 25.005 20.626C25.0167 20.3801 25.0284 20.146 25.0284 19.9002C27.6947 18.355 29.4956 15.4754 29.4956 12.1743C31.4369 11.0505 32.7583 8.9434 32.7583 6.53196C32.7583 2.92652 29.8464 0.0117174 26.2446 0.0117174M26.2212 1.28763C29.1097 1.28763 31.4486 3.62887 31.4486 6.52025C31.4486 8.22932 30.63 9.75112 29.3553 10.711C28.7355 6.9651 25.7885 4.00347 22.0463 3.38305C23.0052 2.1188 24.5138 1.29935 26.2212 1.29935M20.5728 4.54193C21.1692 4.55364 21.8709 5.31456 22.4907 6.62563C22.8064 7.29287 23.0988 8.10053 23.3561 8.97848C21.8124 9.14236 19.9764 9.15412 18.3626 9.03706C18.1872 8.94342 18.0118 8.86144 17.8363 8.7795C18.0819 7.97178 18.3509 7.23433 18.6432 6.61392C19.263 5.30284 19.9647 4.54194 20.5611 4.55365L20.5728 4.54193ZM20.2688 4.55365C19.6373 4.72924 18.9356 5.4433 18.3041 6.52025C17.965 7.10555 17.6375 7.80792 17.3569 8.58051C16.3979 8.20592 15.3922 7.93664 14.3397 7.80788C15.6144 5.98174 17.6609 4.74096 20.0115 4.56537C20.0933 4.56537 20.1869 4.55365 20.2688 4.55365ZM20.8652 4.55365C20.8652 4.55365 20.9353 4.55365 20.9704 4.55365C21.0991 4.55365 21.2277 4.57702 21.3563 4.58873C23.6835 4.82285 25.7067 6.12224 26.9346 7.9835C26.5954 8.36979 25.4727 8.73268 23.9174 8.93168C23.6016 8.03032 23.2391 7.21092 22.8532 6.54368C22.21 5.44332 21.5084 4.71754 20.8652 4.56537M12.7376 7.72593C8.62116 7.76105 4.98422 9.85645 2.80906 13.0288C3.347 13.6024 5.04267 14.1292 7.39324 14.4452C7.8961 13.0873 8.46915 11.8582 9.10064 10.8398C10.2818 8.91998 11.6032 7.79616 12.7376 7.72593ZM12.8662 7.72593C11.9658 7.76105 10.9016 9.02533 9.96601 11.1324C9.52163 12.1274 9.11232 13.3098 8.74979 14.5974C11.3459 14.8432 14.4099 14.8315 16.9943 14.5974C16.6318 13.298 16.2108 12.0923 15.7664 11.0973C14.8309 8.99018 13.7667 7.77276 12.8662 7.73765M27.2152 8.41661C27.7181 9.30627 28.0455 10.313 28.1625 11.3783C28.1859 11.6358 28.1975 11.8933 28.1975 12.1625C28.1975 12.2562 28.1975 12.3615 28.1975 12.4552V12.4786C28.1975 12.5723 28.1975 12.6542 28.1858 12.7478C28.1858 12.8064 28.1859 12.8532 28.1742 12.9C27.8233 13.8014 26.6656 14.6442 25.005 15.171C25.005 14.0121 24.888 12.7127 24.6308 11.4368C24.5021 10.7812 24.3267 10.1374 24.1396 9.5287C25.7417 9.28287 26.8995 8.87315 27.2386 8.41661M28.0689 13.5087C27.7064 15.5338 26.5487 17.278 24.9231 18.4135C24.8764 18.0623 24.8295 17.7112 24.7477 17.3717C24.8062 17.1376 24.8413 16.9035 24.8763 16.6342C24.9114 16.3533 24.9348 16.0607 24.9582 15.7563C26.537 15.2295 27.6713 14.4101 28.0689 13.5087ZM2.16585 14.094C1.2303 15.8148 0.692383 17.7931 0.692383 19.9002C0.692383 20.1343 0.69237 20.3684 0.715759 20.6025C1.19523 22.0189 2.97279 23.3535 5.55725 24.208C5.58064 22.4521 5.79112 20.5089 6.20042 18.6008C6.39923 17.6761 6.63312 16.7747 6.90209 15.8968C4.44627 15.4871 2.6921 14.8198 2.16585 14.094ZM8.36389 16.084C8.11831 17.1024 7.91948 18.156 7.75576 19.2212C7.4751 21.0825 7.31139 22.9672 7.2997 24.6763C9.01877 25.0626 10.9367 25.2733 12.8662 25.2733C14.7958 25.2733 16.7137 25.0626 18.4327 24.6763C18.421 22.9672 18.269 21.0825 17.9767 19.2096C17.8129 18.1443 17.6141 17.1024 17.3685 16.084C14.5502 16.4118 11.1705 16.4001 8.35219 16.084M0.926249 22.1829C1.61622 25.8 3.90832 28.8553 7.03071 30.5643C6.38752 29.7917 5.91974 28.5041 5.70924 26.8536C5.66247 26.4907 5.62739 26.1161 5.604 25.7298C3.23004 24.8752 1.53436 23.5876 0.926249 22.1829ZM24.7828 22.2414C24.1513 23.6227 22.4673 24.8869 20.1167 25.7298C20.0933 26.1161 20.0583 26.5024 20.0115 26.8536C19.7893 28.5041 19.3332 29.78 18.69 30.5526C21.8007 28.8435 24.0694 25.8234 24.7828 22.2297M18.4094 26.2448C16.702 26.6662 14.7841 26.8887 12.8779 26.8887C10.96 26.8887 9.04216 26.6662 7.33478 26.2448C7.35817 26.7248 7.39325 27.1814 7.44003 27.6145C7.63883 29.3353 8.04812 30.6112 8.59776 31.2785C9.91922 31.7701 11.3576 32.051 12.8545 32.051C14.3514 32.051 15.8015 31.7701 17.1347 31.2785C17.6843 30.6112 18.0936 29.3353 18.2924 27.6145C18.3392 27.1814 18.3743 26.7248 18.4094 26.2448Z" fill="black"/>
<path d="M62.136 8.25375C61.2706 8.25375 60.721 9.11998 60.721 9.77552C60.721 10.314 61.1537 10.7471 61.6917 10.7471C62.4518 10.7471 63.095 10.0916 63.095 9.22537C63.095 8.68689 62.6623 8.25375 62.1243 8.25375H62.136ZM89.1384 13.4512C85.5599 13.4512 84.3787 15.4061 84.3787 17.0215C84.3787 18.5433 85.4663 19.1871 87.0801 19.5149L87.735 19.6203C88.4952 19.8427 89.571 19.8427 89.571 20.7089C89.571 21.2474 89.1383 22.0083 87.4076 22.0083C85.5716 22.0083 85.3494 21.7859 83.7239 21.0367L83.2912 23.3077C84.2618 23.6355 85.8873 23.9632 86.9749 23.9632C90.0037 23.9632 92.062 22.4414 92.062 20.1704C92.062 18.5433 90.7638 18.0048 89.0331 17.6771L88.4951 17.5717C87.8403 17.4664 86.7644 17.3493 86.7644 16.6001C86.7644 16.167 87.1971 15.4062 89.0331 15.4062C90.7638 15.5115 90.6586 15.5115 92.1672 16.167L92.5999 14.1067C91.6293 13.6736 90.4364 13.4512 89.1384 13.4512ZM41.9515 8.14844C37.075 8.14844 35.8938 11.6134 35.8938 13.6736C35.8938 15.7339 37.2972 16.3778 39.4606 16.9279L40.5482 17.1504C41.741 17.4781 42.6064 17.9112 42.6064 18.9882C42.6064 20.7207 41.2031 21.9147 39.0396 21.9147C37.3089 21.9147 36.0108 21.3762 34.5958 20.3929L34.1631 22.8862C35.6834 23.3194 37.0867 23.8579 38.7122 23.8579C44.0214 23.8579 45.5066 20.4983 45.3195 18.3327C45.0623 15.4764 42.8637 14.8325 40.5599 14.5399C39.4606 14.3994 38.5017 14.0014 38.5017 12.9128C38.5017 12.0465 39.0396 10.2087 41.858 10.2087C43.5887 10.2087 44.3489 10.5365 45.7522 11.2974L46.1849 9.02639C45.0973 8.48791 43.3666 8.16015 42.0685 8.16015H41.9632M82.6597 8.35914L81.689 13.6736H79.4203C74.5437 13.6736 73.3626 17.5484 73.3626 19.8544C73.3626 22.1605 74.766 23.6472 77.4791 23.6472H82.2387L84.94 8.47617H82.5544L82.6597 8.37085V8.35914ZM79.1981 15.7339H81.4668L80.3792 21.6923H78.1105C76.5903 21.6923 75.8418 20.9313 75.8418 19.5266C75.8418 17.7941 76.8125 15.7339 79.1981 15.7339ZM71.854 8.35914L69.1526 23.5301H71.5383L74.2397 8.35914H71.854ZM67.9715 13.5683C67.2114 13.5683 66.4513 14.0014 65.9133 14.657L66.1238 13.6854H63.8551L62.1243 23.5418H64.3931L65.2584 18.3443C65.4689 17.1503 66.3343 15.4178 67.6441 15.4178H67.8546C68.5095 15.4178 69.0474 15.7456 69.2579 16.1787L70.1233 14.2239C69.7959 13.7907 68.72 13.5683 67.9598 13.5683M60.1831 13.6736L58.4523 23.5301H60.721L62.4518 13.6736H60.1831ZM45.8925 13.6736L46.8632 23.5301H49.1319L51.728 17.6771L52.266 23.5301H54.5347L59.0838 13.6736H56.8151L54.2189 19.5266L53.681 13.6736H51.4123L48.8161 19.5266L48.2782 13.6736H45.8925Z" fill="black"/>
</svg>
