<svg width="140" height="31" viewBox="0 0 140 31" fill="none" xmlns="http://www.w3.org/2000/svg">
<path d="M9.35604 30.2854C8.89247 30.5226 7.79021 30.832 6.4716 30.832C2.87634 30.832 0.692383 28.5633 0.692383 25.1293C0.692383 21.3757 3.26778 19.1895 6.70852 19.1895C8.03743 19.1895 9.04701 19.4988 9.43847 19.6535L8.97489 21.2932C8.4289 21.056 7.7284 20.8291 6.79095 20.8291C4.5246 20.8291 2.80423 22.2315 2.80423 24.9746C2.80423 27.4702 4.28764 29.0376 6.70852 29.0376C7.56355 29.0376 8.4289 28.8829 8.97489 28.6458" fill="black"/>
<path d="M12.2734 25.018C12.2734 27.2867 13.4477 29.1635 15.3947 29.1635C17.3417 29.1635 18.5161 27.2867 18.5161 24.9458C18.5161 22.8318 17.4963 20.8003 15.3947 20.8003C13.2932 20.8003 12.2734 22.6771 12.2734 25.018ZM20.7001 24.8633C20.7001 28.6169 18.4337 30.8031 15.3123 30.8031C12.1909 30.8031 10.0791 28.3798 10.0791 25.018C10.0791 21.6562 12.263 19.0781 15.4668 19.0781C18.7427 19.1606 20.7001 21.6562 20.7001 24.8633Z" fill="black"/>
<path d="M32.0017 26.0062C31.9192 24.5212 31.8471 22.7991 31.8471 21.2419H31.7647C31.4557 22.6444 30.9818 24.1294 30.4358 25.6143L28.7978 30.5333H27.232L25.7486 25.6143C25.285 24.2119 24.8936 22.6444 24.5742 21.2419C24.4918 22.7269 24.4918 24.5212 24.3373 26.0887L24.1003 30.6261H22.1533L22.9362 19.293H25.6662L27.1496 23.8303C27.5411 25.1606 27.9325 26.4909 28.1695 27.7387H28.2519C28.5609 26.4909 28.9524 25.1606 29.3438 23.8303L30.9097 19.293H33.5675L34.268 30.6261H32.2386" fill="black"/>
<path d="M45.8513 26.0062C45.7689 24.5212 45.6968 22.7991 45.6968 21.2419H45.6143C45.3053 22.6444 44.8314 24.1294 44.2854 25.6143L42.6475 30.5333H41.0816L39.5982 25.6143C39.1346 24.2119 38.7431 22.6444 38.4238 21.2419C38.3414 22.7269 38.3414 24.5212 38.1869 26.0887L37.9499 30.6261H36.0029L36.7858 19.293H39.5158L40.9992 23.8303C41.3906 25.1606 41.7821 26.4909 42.0191 27.7387H42.1015C42.4105 26.4909 42.802 25.1606 43.1934 23.8303L44.7593 19.293H47.4171L48.1176 30.6261H46.0882" fill="black"/>
<path d="M52.2188 19.3145V25.8833C52.2188 28.0695 53.1562 29.0905 54.5573 29.0905C56.0407 29.0905 56.8958 28.0695 56.8958 25.8833V19.3145H58.9252V25.8009C58.9252 29.3174 57.1327 30.8023 54.3924 30.8023C51.817 30.8023 50.0967 29.3174 50.0967 25.8009V19.3145" fill="black"/>
<path d="M61.3154 30.6183V19.2852H63.6539L66.5384 24.1319C67.3213 25.3797 67.9394 26.7099 68.4853 27.8855C68.4029 26.4831 68.3308 24.9981 68.3308 23.276V19.3676H70.2057V30.6183H68.0939L65.2094 25.6168C64.5089 24.369 63.726 23.0388 63.18 21.7085H63.0976C63.18 23.1935 63.18 24.6784 63.18 26.5553V30.6183" fill="black"/>
<path d="M74.6961 19.293H72.6357V30.6055H74.6961V19.293Z" fill="black"/>
<path d="M85.1549 30.2854C84.6913 30.5226 83.589 30.832 82.2704 30.832C78.6751 30.832 76.4912 28.5633 76.4912 25.1293C76.4912 21.3757 79.0666 19.1895 82.497 19.1895C83.8259 19.1895 84.8355 19.4988 85.227 19.6535L84.7634 21.2932C84.2174 21.056 83.5169 20.8291 82.5795 20.8291C80.3131 20.8291 78.5927 22.2315 78.5927 24.9746C78.5927 27.4702 80.0762 29.0376 82.497 29.0376C83.3521 29.0376 84.2174 28.8829 84.7634 28.6458" fill="black"/>
<path d="M92.5177 25.8515L91.6627 23.0363C91.4257 22.335 91.2712 21.5513 91.1167 20.9223C90.9622 21.5513 90.8077 22.3247 90.5707 23.0363L89.6333 25.8515H92.5177ZM89.3139 27.419L88.3765 30.6261H86.2646L89.8599 19.293H92.5177L96.113 30.6261H93.9291L92.8371 27.419" fill="black"/>
<path d="M98.4939 21.0463H95.29V19.3242H103.799V21.0463H100.523V30.5749H98.4939" fill="black"/>
<path d="M107.173 19.293H105.112V30.6055H107.173V19.293Z" fill="black"/>
<path d="M111.137 25.018C111.137 27.2867 112.312 29.1635 114.259 29.1635C116.206 29.1635 117.38 27.2867 117.38 24.9458C117.38 22.8318 116.288 20.8003 114.259 20.8003C112.229 20.8003 111.137 22.6771 111.137 25.018ZM119.574 24.8633C119.574 28.6169 117.308 30.8031 114.187 30.8031C111.065 30.8031 109.036 28.3798 109.036 25.018C109.036 21.6562 111.22 19.0781 114.424 19.0781C117.627 19.1606 119.574 21.6562 119.574 24.8633Z" fill="black"/>
<path d="M121.329 30.6183V19.2852H123.668L126.552 24.1319C127.335 25.3797 127.953 26.7099 128.499 27.8855C128.417 26.4831 128.345 24.9981 128.345 23.276V19.3676H130.22V30.6183H128.108L125.223 25.6168C124.523 24.369 123.74 23.0388 123.194 21.7085H123.112C123.194 23.1935 123.194 24.6784 123.194 26.5553V30.6183" fill="black"/>
<path d="M132.593 28.3681C133.294 28.7599 134.231 29.0693 135.323 29.0693C136.652 29.0693 137.352 28.4402 137.352 27.5018C137.352 26.6459 136.806 26.1715 135.323 25.625C133.531 24.9959 132.356 23.9853 132.356 22.3457C132.356 20.4689 133.922 19.0664 136.333 19.0664C137.579 19.0664 138.444 19.3036 139.063 19.613L138.517 21.3351C138.125 21.1804 137.342 20.7885 136.25 20.7885C134.921 20.7885 134.375 21.4898 134.375 22.191C134.375 23.047 135.004 23.4388 136.559 24.0678C138.506 24.7691 139.444 25.79 139.444 27.4296C139.444 29.224 138.043 30.8636 135.148 30.8636C133.973 30.8636 132.727 30.5543 132.099 30.1624" fill="black"/>
<path fill-rule="evenodd" clip-rule="evenodd" d="M45.7691 14.2721V4.22799H41.7412V0H55.5042V4.22799H51.569V14.2721" fill="black"/>
<path fill-rule="evenodd" clip-rule="evenodd" d="M73.3023 14.2721V4.22799H69.2744V0H83.0271V4.22799H79.1022V14.2721" fill="black"/>
<path fill-rule="evenodd" clip-rule="evenodd" d="M54.1846 14.2833L59.3972 0.0214844H65.2897L70.8938 14.2833H65.2897L62.4465 5.63135L59.4899 14.2833" fill="black"/>
<path fill-rule="evenodd" clip-rule="evenodd" d="M81.7256 14.2819L86.9279 0.00976562H92.8308L98.4348 14.2819H92.8308L89.9772 5.61963L87.0309 14.2819" fill="black"/>
</svg>
