<svg width="119" height="44" viewBox="0 0 119 44" fill="none" xmlns="http://www.w3.org/2000/svg">
<path d="M42.4659 19.1596C41.1029 7.7938 32.3306 2.95206 28.3236 1.3108C27.268 0.879966 26.1612 0.551713 25.0339 0.356812C9.31331 -2.25896 2.01667 10.307 1.09434 12.0508C1.03286 12.1637 1.07388 12.297 1.1866 12.3586L2.76479 13.292C2.86727 13.3536 2.90829 13.4767 2.85705 13.5895C-3.18933 26.8735 5.00913 36.0441 8.27828 38.9984C8.9444 39.5933 9.66176 40.137 10.4406 40.6089C24.46 49.0511 35.5792 38.6906 35.5792 38.6906C45.151 30.0842 42.4865 19.1698 42.4865 19.1698L42.4659 19.1596ZM7.26372 21.4368C5.53179 24.8527 5.93148 27.9609 5.79825 28.761C5.67528 29.5098 5.1936 28.8533 5.14236 28.761C5.14236 28.761 5.14235 28.7507 5.1321 28.7405C4.14828 27.0684 4.37376 23.2012 4.38401 22.9447C4.38401 22.9447 4.38401 22.9242 4.38401 22.914C4.74269 20.9137 5.84948 17.8568 6.8128 16.8926C7.78638 15.9181 8.46275 14.4512 12.1316 12.6766C15.8209 10.9019 19.5307 11.1687 23.0356 12.6766C26.5404 14.1845 29.1947 18.0415 29.4714 19.6519C29.7173 21.0778 28.8155 20.093 28.6207 19.8674C28.6002 19.8468 28.59 19.8263 28.5798 19.7956C28.5388 19.6725 28.2006 19.098 25.6181 17.0772C22.5949 14.7179 18.5674 14.0614 15.4725 14.8615C12.3468 15.6616 8.9854 18.0107 7.25347 21.4266L7.26372 21.4368ZM25.7513 29.6637C21.857 33.8592 18.055 30.792 17.9013 30.6689C14.0787 27.889 16.1386 23.6115 16.3026 23.2832C16.3026 23.273 16.3128 23.2627 16.323 23.2525C18.8953 19.8981 21.5393 20.2982 22.9023 20.8624C23.4762 21.0983 23.9784 21.4573 24.3985 21.9087C26.9093 24.6681 25.1467 27.4993 24.6138 28.2276C24.542 28.3301 24.5625 28.4738 24.665 28.5558L25.7206 29.3252C25.8333 29.4072 25.8435 29.5713 25.7513 29.6739V29.6637ZM38.3463 28.3096C38.3463 28.3096 34.083 41.3474 20.2583 39.9318C20.2583 39.9318 11.1375 38.5983 9.62078 28.9456C9.62078 28.9456 9.62078 28.9354 9.62078 28.9251C9.56954 28.6994 8.43198 23.8679 14.0889 19.5289C14.0889 19.5289 14.0992 19.5289 14.1095 19.5186C14.1709 19.4878 14.4374 19.3442 14.3144 19.8571C14.1812 20.4315 12.521 20.9137 11.8549 25.817C11.1887 30.7202 15.3085 33.6335 16.3743 34.3618C17.4299 35.1004 24.1218 37.7469 29.1434 32.8641C34.042 28.0942 33.3451 21.9497 33.3041 21.6522C33.3041 21.6522 33.3041 21.642 33.3041 21.6317C33.3041 21.3548 33.0685 15.7642 27.4525 11.1892C21.7956 6.57311 14.8268 7.93741 14.5911 7.9887C14.5911 7.9887 14.5911 7.9887 14.5809 7.9887C14.4374 8.00922 11.5884 8.46056 7.25347 11.2917C7.21247 11.3225 7.16124 11.3636 7.13049 11.4046C7.04851 11.5277 6.79228 11.7944 6.33111 11.6097C5.86995 11.4148 5.96221 11.3328 6.5566 10.7276C7.11 10.1634 7.42765 9.80435 7.47889 9.75306C7.47889 9.75306 7.4789 9.75306 7.48915 9.7428C7.70436 9.45558 15.4212 -0.402273 29.0717 5.8448C29.4098 5.99866 29.7275 6.17305 30.035 6.37821C32.5868 7.97844 42.6095 15.241 38.3463 28.3096Z" fill="black"/>
<path d="M47.1494 15.3228H49.9164C50.0599 15.3228 50.1726 15.4356 50.1726 15.5792V24.001C50.1726 24.001 50.1726 24.042 50.1726 24.0625C50.2341 24.3189 50.7465 26.1038 52.6014 26.1038C54.5998 26.1038 55.2249 24.36 55.2249 24.0625V15.5689C55.2249 15.4253 55.3377 15.3125 55.4811 15.3125H57.9202C58.0637 15.3125 58.1764 15.4253 58.1764 15.5689V23.8881C58.1764 24.0112 58.1764 24.124 58.1661 24.2471C58.0432 25.2011 57.2746 28.8427 52.6732 28.8427C48.3895 28.8427 47.4364 25.7858 47.2212 24.6267C47.1802 24.401 47.1597 24.1856 47.1597 23.9394V15.3433H47.1494V15.3228Z" fill="black"/>
<path d="M66.5444 21.7134C66.5444 21.7134 68.1534 21.0159 68.1534 18.5848C68.1534 16.1536 65.3556 15.3125 64.0541 15.3125H59.7704C59.627 15.3125 59.5142 15.4253 59.5142 15.5587C59.4937 17.4051 59.381 28.8529 59.5142 28.8529H64.7203C64.9457 28.8529 65.1814 28.8222 65.4069 28.7606C66.3395 28.5042 68.6555 27.6323 68.6555 25.0473C68.6555 21.8263 66.5444 21.7032 66.5444 21.7032V21.7134ZM62.6092 17.8462C62.9371 17.8462 63.552 17.8257 64.1464 17.8257C64.6998 17.8257 65.3761 18.3796 65.3761 19.2002C65.3761 19.7234 65.0789 20.0619 64.8125 20.2671C64.5563 20.4415 64.2591 20.5338 63.9619 20.5338H62.6092C62.4657 20.5338 62.353 20.4209 62.353 20.2773V18.1027C62.353 17.9693 62.4657 17.8565 62.5989 17.8462H62.6092ZM65.2839 26.0115C64.9867 26.2167 64.628 26.3192 64.2694 26.3192H62.6194C62.476 26.3192 62.3632 26.2064 62.3632 26.0628V23.3855C62.3632 23.2521 62.476 23.1393 62.6092 23.129C62.9884 23.1188 63.7467 23.088 64.4845 23.088C65.1404 23.088 65.9603 23.7445 65.9603 24.7293C65.9603 25.3447 65.6221 25.7448 65.2942 25.991L65.2839 26.0115Z" fill="black"/>
<path d="M69.9935 15.3242H72.494C72.6375 15.3242 72.7503 15.4371 72.7503 15.5807V28.5877C72.7503 28.7313 72.6375 28.8441 72.494 28.8441H69.9935C69.85 28.8441 69.7373 28.7313 69.7373 28.5877V15.5807C69.7373 15.4371 69.85 15.3242 69.9935 15.3242Z" fill="black"/>
<path d="M73.5674 26.095L75.6375 24.464C75.7604 24.3717 75.9347 24.4024 76.0167 24.5358C76.3344 25.0692 77.1952 26.2488 78.5377 26.2488C80.2799 26.2488 80.1466 24.5153 80.1466 24.5153C80.1466 24.5153 80.1876 23.6331 77.9126 22.9355C75.6375 22.238 74.172 20.7916 74.2848 19.1093C74.3872 17.4373 75.5453 15.6422 77.2669 15.3242C78.9271 15.0164 81.0383 15.0575 82.678 17.3039C82.7599 17.4168 82.7394 17.5707 82.6267 17.663L80.8025 18.9965C80.6796 19.0888 80.5054 19.0478 80.4336 18.9144C80.1774 18.4631 79.4908 17.5809 78.1893 17.704C76.4471 17.8681 76.7751 19.3145 77.2362 19.7761C77.6564 20.1967 79.8085 20.966 80.3004 21.1507C80.3721 21.1814 80.5976 21.2635 80.6796 21.2943C80.6796 21.2943 80.6898 21.2943 80.7 21.2943C81.2022 21.5405 82.9239 22.5355 83.0161 23.9306C83.1391 25.6026 83.1801 27.131 80.7103 28.3722C78.2405 29.5929 75.0226 28.4235 73.5776 26.0847" fill="black"/>
<path d="M106.686 23.4157H101.357C101.214 23.4157 101.101 23.5286 101.101 23.6722V28.5857C101.101 28.7293 100.988 28.8422 100.845 28.8422H98.5697C98.4262 28.8422 98.3135 28.7293 98.3135 28.5857V15.6197C98.3135 15.4761 98.4262 15.3633 98.5697 15.3633H107.014C107.158 15.3633 107.27 15.4761 107.27 15.6197V17.9893C107.27 18.1329 107.158 18.2458 107.014 18.2458H101.388C101.244 18.2458 101.132 18.3586 101.132 18.5022V20.8615C101.132 21.0051 101.244 21.118 101.388 21.118H106.686" fill="black"/>
<path d="M111.953 28.5882V18.5559C111.953 18.4123 111.84 18.2995 111.697 18.2995H108.54C108.397 18.2995 108.284 18.1867 108.284 18.043V15.6119C108.284 15.4683 108.397 15.3555 108.54 15.3555H118.337C118.481 15.3555 118.594 15.4683 118.594 15.6119V18.043C118.594 18.1867 118.481 18.2995 118.337 18.2995H115.283C115.14 18.2995 115.027 18.4123 115.027 18.5559V28.5882C115.027 28.7318 114.914 28.8446 114.771 28.8446H112.199C112.055 28.8446 111.942 28.7318 111.942 28.5882" fill="black"/>
<path d="M90.736 15.0566C88.8811 15.0566 87.2004 15.7747 85.9604 16.9441C85.8579 17.0467 85.8579 17.2108 85.9604 17.3031L85.9809 17.3236C86.0834 17.4262 86.0834 17.5903 85.9809 17.6827C84.7511 18.9034 84.085 20.7088 84.085 22.5859C84.085 23.2117 84.1772 23.8169 84.3412 24.4016C84.4027 24.6068 84.4744 24.8017 84.5769 24.9966C85.7247 27.2123 88.0612 28.7407 90.736 28.7407C94.4458 28.7407 97.2743 25.8685 97.469 22.2474C97.469 22.1243 97.4792 22.0218 97.4792 21.9089C97.469 18.1238 94.5585 15.0566 90.736 15.0566ZM94.62 22.4116C94.4356 24.3606 92.8676 25.9505 90.9 26.166C90.4286 26.207 89.9674 26.1762 89.5165 26.0942C88.2047 25.7967 87.2106 24.8324 86.8929 23.5194C86.8212 23.2014 86.77 22.8629 86.77 22.5347C86.77 21.4165 87.2106 20.401 87.9177 19.6419C88.01 19.5496 88.01 19.3957 87.9177 19.3034L87.8563 19.2419C87.764 19.1393 87.7743 18.9752 87.8768 18.8828C88.5839 18.2674 89.3832 17.8981 90.4285 17.8981C91.7403 17.8981 92.8984 18.3494 93.6772 19.2829C94.3741 20.1138 94.743 21.2319 94.62 22.4321V22.4116Z" fill="black"/>
</svg>
