<svg width="64" height="50" viewBox="0 0 64 50" fill="none" xmlns="http://www.w3.org/2000/svg">
<path d="M44.8927 2.96558C44.6496 3.88092 43.7004 4.42549 42.786 4.18218C41.8716 3.93886 41.3276 2.98876 41.5706 2.07342C41.8137 1.15808 42.7629 0.613505 43.6773 0.856823C44.5917 1.10014 45.1357 2.05024 44.8927 2.96558Z" fill="black"/>
<path d="M42.6569 9.11863C42.4949 9.73272 41.8698 10.0919 41.2563 9.92969C40.6428 9.76748 40.2841 9.14181 40.4461 8.52772C40.6082 7.91363 41.2332 7.55444 41.8466 7.71665C42.4601 7.87886 42.819 8.50454 42.6569 9.11863Z" fill="black"/>
<path d="M40.9877 13.9383C40.8721 14.3552 40.444 14.61 40.0276 14.4942C39.6111 14.3784 39.3566 13.9499 39.4723 13.533C39.588 13.1162 40.016 12.8614 40.4325 12.9772C40.8489 13.093 41.1034 13.5215 40.9877 13.9383Z" fill="black"/>
<path d="M39.7012 17.7037C39.6318 17.9816 39.3426 18.1438 39.0649 18.0743C38.7873 18.0048 38.6253 17.7153 38.6947 17.4374C38.7642 17.1595 39.0533 16.9973 39.331 17.0668C39.6086 17.1363 39.7706 17.4258 39.7012 17.7037Z" fill="black"/>
<path d="M50.3088 5.70101C49.8343 6.52366 48.781 6.80174 47.9591 6.32669C47.1373 5.85164 46.8595 4.79726 47.334 3.97461C47.8086 3.15196 48.862 2.87389 49.6838 3.34894C50.5056 3.82399 50.7834 4.87836 50.3088 5.70101Z" fill="black"/>
<path d="M46.5501 11.054C46.2375 11.5986 45.5315 11.784 44.9875 11.4711C44.4434 11.1583 44.2582 10.4515 44.5707 9.90695C44.8832 9.36238 45.5894 9.17699 46.1334 9.48983C46.6774 9.80267 46.8742 10.5095 46.5501 11.054Z" fill="black"/>
<path d="M43.686 15.2953C43.4662 15.6659 42.9918 15.8049 42.6101 15.5848C42.2399 15.3648 42.1011 14.89 42.3209 14.5079C42.5407 14.1374 43.015 13.9984 43.3968 14.2184C43.7785 14.4384 43.9058 14.9132 43.686 15.2953Z" fill="black"/>
<path d="M41.4802 18.5976C41.3414 18.8408 41.0175 18.9335 40.7746 18.7829C40.5316 18.6324 40.439 18.3197 40.5894 18.0766C40.7283 17.8334 41.0522 17.7407 41.2952 17.8913C41.5381 18.0302 41.6306 18.3545 41.4802 18.5976Z" fill="black"/>
<path d="M55.0859 9.98697C54.2757 10.798 52.9677 10.798 52.1575 9.98697C51.3472 9.17591 51.3472 7.86662 52.1575 7.05556C52.9677 6.2445 54.2757 6.2445 55.0859 7.05556C55.8962 7.86662 55.8962 9.17591 55.0859 9.98697Z" fill="black"/>
<path d="M49.9643 14.0889C49.4318 14.6218 48.5752 14.6218 48.0544 14.0889C47.5219 13.5559 47.5219 12.6985 48.0544 12.1771C48.5868 11.6441 49.4434 11.6441 49.9643 12.1771C50.4967 12.7101 50.4967 13.5675 49.9643 14.0889Z" fill="black"/>
<path d="M45.9601 17.2989C45.6593 17.5999 45.1619 17.5999 44.8496 17.2989C44.5488 16.9978 44.5488 16.4999 44.8496 16.1872C45.1504 15.8745 45.6478 15.8861 45.9601 16.1872C46.2609 16.4883 46.2609 16.9862 45.9601 17.2989Z" fill="black"/>
<path d="M42.9729 19.9045C42.7763 20.1014 42.4408 20.1014 42.2442 19.9045C42.0475 19.7077 42.0475 19.3718 42.2442 19.175C42.4408 18.9781 42.7763 18.9781 42.9729 19.175C43.1696 19.3718 43.1696 19.7077 42.9729 19.9045Z" fill="black"/>
<path d="M58.4798 15.3632C57.357 16.0121 55.9218 15.6297 55.2736 14.5058C54.6254 13.3819 55.0073 11.9452 56.1301 11.2963C57.2529 10.6475 58.6881 11.0299 59.3363 12.1537C59.9846 13.2776 59.6026 14.7144 58.4798 15.3632Z" fill="black"/>
<path d="M52.3777 17.8553C51.6832 18.2608 50.7919 18.0175 50.3868 17.3223C49.9817 16.6271 50.2248 15.7349 50.9193 15.3294C51.6138 14.9239 52.505 15.1672 52.9102 15.8624C53.3153 16.5576 53.0722 17.4497 52.3777 17.8553Z" fill="black"/>
<path d="M47.8417 20.1735C47.2745 20.5095 46.5338 20.3125 46.2097 19.7332C45.874 19.1655 46.0708 18.4239 46.6495 18.0995C47.2167 17.7635 47.9575 17.9605 48.2816 18.5398C48.6173 19.1075 48.4205 19.8491 47.8417 20.1735Z" fill="black"/>
<path d="M44.0712 21.5746C43.8283 21.7136 43.5044 21.6325 43.3656 21.3894C43.2267 21.1462 43.3077 20.822 43.5506 20.683C43.7936 20.544 44.1175 20.6251 44.2563 20.8683C44.3952 21.1115 44.3141 21.4357 44.0712 21.5746Z" fill="black"/>
<path d="M60.2637 21.3413C58.9326 21.7005 57.5552 20.901 57.208 19.5686C56.8492 18.2361 57.6478 16.8573 58.9789 16.4981C60.3101 16.1389 61.6875 16.9384 62.0348 18.2709C62.3936 19.6033 61.5949 20.9821 60.2637 21.3297" fill="black"/>
<path d="M53.7321 22.1423C52.8871 22.3625 52.0306 21.8642 51.7991 21.03C51.5792 20.1842 52.0768 19.3268 52.9102 19.095C53.7552 18.8749 54.6118 19.3731 54.8433 20.2073C55.0632 21.0532 54.5655 21.9106 53.7321 22.1423Z" fill="black"/>
<path d="M48.7318 23.15C48.0605 23.3354 47.3775 22.9298 47.1923 22.2578C47.0187 21.5858 47.4123 20.9022 48.0836 20.7168C48.755 20.543 49.4379 20.9369 49.6231 21.609C49.8083 22.281 49.4032 22.9646 48.7318 23.15Z" fill="black"/>
<path d="M44.7706 23.7054C44.3541 23.8212 43.9261 23.5665 43.822 23.1612C43.7063 22.7443 43.9607 22.3159 44.3656 22.2116C44.7821 22.0958 45.2101 22.3506 45.3142 22.7559C45.4299 23.1728 45.1755 23.6012 44.7706 23.7054Z" fill="black"/>
<path d="M60.4056 27.5762C58.9472 27.5762 57.7549 26.3944 57.7549 24.9229C57.7549 23.4514 58.9356 22.2695 60.4056 22.2695C61.8756 22.2695 63.0563 23.4514 63.0563 24.9229C63.0563 26.3944 61.8756 27.5762 60.4056 27.5762Z" fill="black"/>
<path d="M53.8924 26.7668C52.8853 26.7668 52.0635 25.9442 52.0635 24.9362C52.0635 23.9281 52.8853 23.1055 53.8924 23.1055C54.8994 23.1055 55.7212 23.9281 55.7212 24.9362C55.7212 25.9442 54.8994 26.7668 53.8924 26.7668Z" fill="black"/>
<path d="M48.803 26.255C48.0737 26.255 47.4834 25.6641 47.4834 24.9342C47.4834 24.2042 48.0737 23.6133 48.803 23.6133C49.5322 23.6133 50.1225 24.2042 50.1225 24.9342C50.1225 25.6641 49.5322 26.255 48.803 26.255Z" fill="black"/>
<path d="M44.8354 25.8034C44.3611 25.8034 43.9678 25.4097 43.9678 24.9349C43.9678 24.4601 44.3611 24.0664 44.8354 24.0664C45.3097 24.0664 45.703 24.4601 45.703 24.9349C45.703 25.4097 45.3097 25.8034 44.8354 25.8034Z" fill="black"/>
<path d="M56.1875 38.4678C55.1226 37.8537 54.7522 36.4864 55.3657 35.4089C55.9791 34.3313 57.345 33.9722 58.4215 34.5863C59.4864 35.2003 59.8568 36.5676 59.2433 37.6451C58.6299 38.7227 57.264 39.0818 56.1875 38.4678Z" fill="black"/>
<path d="M50.8258 34.7118C50.0271 34.2484 49.7608 33.2403 50.2123 32.4408C50.6753 31.6414 51.6823 31.3749 52.481 31.8268C53.2797 32.2786 53.5459 33.2983 53.0945 34.0977C52.6315 34.8972 51.6245 35.1637 50.8258 34.7118Z" fill="black"/>
<path d="M46.6646 31.7244C46.109 31.3999 45.9238 30.6932 46.2363 30.1486C46.5604 29.5924 47.2666 29.4071 47.8106 29.7199C48.3546 30.0327 48.5514 30.7511 48.2389 31.2957C47.9148 31.8518 47.2086 32.0372 46.6646 31.7244Z" fill="black"/>
<path d="M43.5714 29.1872C43.3285 29.0483 43.2359 28.724 43.3863 28.4809C43.5251 28.2377 43.849 28.145 44.092 28.2956C44.3349 28.4345 44.4275 28.7588 44.2771 29.0019C44.1383 29.2451 43.8143 29.3377 43.5714 29.1872Z" fill="black"/>
<path d="M52.1349 42.8233C51.3131 42.0006 51.3131 40.6681 52.1349 39.8455C52.9568 39.0229 54.2879 39.0229 55.1097 39.8455C55.9315 40.6681 55.9315 42.0006 55.1097 42.8233C54.2879 43.6459 52.9568 43.6459 52.1349 42.8233Z" fill="black"/>
<path d="M47.9493 37.7958C47.359 37.2049 47.359 36.2548 47.9493 35.6639C48.5397 35.073 49.4888 35.073 50.0791 35.6639C50.6694 36.2548 50.6694 37.2049 50.0791 37.7958C49.4888 38.3867 48.5397 38.3867 47.9493 37.7958Z" fill="black"/>
<path d="M44.6668 33.867C44.2504 33.4501 44.2504 32.7901 44.6668 32.3732C45.0833 31.9563 45.7427 31.9563 46.1591 32.3732C46.5756 32.7901 46.5756 33.4501 46.1591 33.867C45.7427 34.2839 45.0833 34.2839 44.6668 33.867Z" fill="black"/>
<path d="M42.2442 30.6799C42.0475 30.483 42.0475 30.1472 42.2442 29.9504C42.4408 29.7535 42.7763 29.7535 42.9729 29.9504C43.1696 30.1472 43.1696 30.483 42.9729 30.6799C42.7763 30.8768 42.4408 30.8768 42.2442 30.6799Z" fill="black"/>
<path d="M47.1069 46.0109C46.5629 45.0608 46.887 43.8558 47.8245 43.3113C48.7737 42.7667 49.9775 43.0911 50.5215 44.0296C51.0656 44.9797 50.7415 46.1847 49.8039 46.7293C48.8547 47.2739 47.6509 46.9494 47.1069 46.0109Z" fill="black"/>
<path d="M44.3415 40.0785C43.9479 39.4065 44.1794 38.5491 44.8508 38.1552C45.5221 37.7612 46.3787 37.9929 46.7722 38.665C47.1658 39.337 46.9343 40.1944 46.2629 40.5883C45.5916 40.9823 44.735 40.7505 44.3415 40.0785Z" fill="black"/>
<path d="M42.3312 35.3604C42.1114 34.9898 42.2386 34.5035 42.6204 34.2834C42.9906 34.0634 43.4764 34.1908 43.6962 34.5729C43.916 34.9435 43.7888 35.4298 43.407 35.6498C43.0368 35.8699 42.551 35.7425 42.3312 35.3604Z" fill="black"/>
<path d="M40.5941 31.7937C40.4552 31.5505 40.5363 31.2263 40.7792 31.0873C41.0221 30.9483 41.346 31.0294 41.4848 31.2726C41.6237 31.5157 41.5427 31.84 41.2998 31.9789C41.0568 32.1179 40.7329 32.0368 40.5941 31.7937Z" fill="black"/>
<path d="M41.5706 47.7839C41.3276 46.8686 41.8716 45.9185 42.786 45.6752C43.7004 45.4319 44.6496 45.9764 44.8927 46.8918C45.1357 47.8071 44.5917 48.7572 43.6773 49.0005C42.7629 49.2439 41.8137 48.6993 41.5706 47.7839Z" fill="black"/>
<path d="M40.4461 41.3413C40.2841 40.7272 40.6428 40.1015 41.2563 39.9393C41.8698 39.7771 42.4949 40.1363 42.6569 40.7504C42.819 41.3645 42.4601 41.9901 41.8466 42.1523C41.2332 42.3146 40.6082 41.9554 40.4461 41.3413Z" fill="black"/>
<path d="M39.4723 36.3231C39.3566 35.9062 39.6111 35.4778 40.0276 35.362C40.444 35.2462 40.8721 35.5009 40.9877 35.9178C41.1034 36.3347 40.8489 36.7631 40.4325 36.8789C40.016 36.9947 39.588 36.74 39.4723 36.3231Z" fill="black"/>
<path d="M38.7026 32.4186C38.6331 32.1406 38.795 31.8627 39.0727 31.7817C39.3503 31.7122 39.628 31.8743 39.709 32.1522C39.7784 32.4301 39.6164 32.708 39.3504 32.7891C39.0727 32.8586 38.795 32.6965 38.7141 32.4186" fill="black"/>
<path d="M35.5049 48.1307C35.5049 47.1806 36.2804 46.4043 37.2296 46.4043C38.1787 46.4043 38.9542 47.1806 38.9542 48.1307C38.9542 49.0808 38.1787 49.8571 37.2296 49.8571C36.2804 49.8571 35.5049 49.0808 35.5049 48.1307Z" fill="black"/>
<path d="M36.0811 41.6061C36.0811 40.9688 36.5903 40.459 37.227 40.459C37.8636 40.459 38.3729 40.9688 38.3729 41.6061C38.3729 42.2433 37.8636 42.7531 37.227 42.7531C36.5903 42.7531 36.0811 42.2433 36.0811 41.6061Z" fill="black"/>
<path d="M36.4443 36.5198C36.4443 36.0914 36.7914 35.7324 37.231 35.7324C37.6706 35.7324 38.0176 36.0798 38.0176 36.5198C38.0176 36.9599 37.6706 37.3073 37.231 37.3073C36.7914 37.3073 36.4443 36.9599 36.4443 36.5198Z" fill="black"/>
<path d="M36.7061 32.5484C36.7061 32.2589 36.9374 32.0273 37.2266 32.0273C37.5158 32.0273 37.7472 32.2589 37.7472 32.5484C37.7472 32.8379 37.5158 33.0695 37.2266 33.0695C36.9374 33.0695 36.7061 32.8379 36.7061 32.5484Z" fill="black"/>
<path d="M29.5611 46.8918C29.8042 45.9764 30.7533 45.4319 31.6678 45.6752C32.5822 45.9185 33.1262 46.8686 32.8831 47.7839C32.6401 48.6993 31.6909 49.2439 30.7765 49.0005C29.862 48.7572 29.318 47.8071 29.5611 46.8918Z" fill="black"/>
<path d="M31.8094 40.7504C31.9714 40.1363 32.5965 39.7771 33.21 39.9393C33.8235 40.1015 34.1822 40.7272 34.0202 41.3413C33.8581 41.9554 33.2331 42.3146 32.6197 42.1523C32.0062 41.9901 31.6473 41.3645 31.8094 40.7504Z" fill="black"/>
<path d="M33.4645 35.9178C33.5802 35.5009 34.0082 35.2462 34.4247 35.362C34.8411 35.4778 35.0956 35.9062 34.9799 36.3231C34.8642 36.74 34.4362 36.9947 34.0197 36.8789C33.6033 36.7631 33.3488 36.3347 33.4645 35.9178Z" fill="black"/>
<path d="M34.8353 32.1745C34.8932 31.9429 35.1361 31.8039 35.3675 31.8734C35.5988 31.9313 35.7376 32.1745 35.6682 32.4061C35.6104 32.6377 35.3675 32.7766 35.1361 32.7072C34.9047 32.6493 34.7659 32.4061 34.8353 32.1745Z" fill="black"/>
<path d="M24.3267 44.2727C24.7434 43.5543 25.6694 43.2994 26.3871 43.7165C27.1047 44.1336 27.3593 45.0606 26.9426 45.779C26.5259 46.4973 25.6 46.7522 24.8823 46.3351C24.1647 45.918 23.91 44.9911 24.3267 44.2727Z" fill="black"/>
<path d="M28.0717 38.9084C28.3262 38.4568 28.9046 38.3063 29.3558 38.561C29.8069 38.8158 29.9573 39.3948 29.7028 39.8464C29.4483 40.298 28.8699 40.4485 28.4188 40.1938C27.9676 39.939 27.8172 39.3601 28.0717 38.9084Z" fill="black"/>
<path d="M30.8418 34.6211C31.0269 34.2853 31.4549 34.181 31.7788 34.3663C32.1143 34.5516 32.2185 34.98 32.0334 35.3159C31.8483 35.6401 31.4203 35.7559 31.0963 35.5706C30.7609 35.3853 30.6567 34.9569 30.8418 34.6327" fill="black"/>
<path d="M33.0647 31.32C33.1804 31.1232 33.4349 31.0537 33.6316 31.1695C33.8282 31.2853 33.8977 31.54 33.782 31.7369C33.6663 31.9337 33.4117 32.0032 33.2151 31.8874C33.0184 31.7716 32.949 31.5169 33.0647 31.32Z" fill="black"/>
<path d="M19.8524 40.3557C20.3964 39.8111 21.2645 39.8111 21.8085 40.3557C22.3526 40.9003 22.3526 41.7692 21.8085 42.3138C21.2645 42.8584 20.3964 42.8584 19.8524 42.3138C19.3083 41.7692 19.3083 40.9003 19.8524 40.3557Z" fill="black"/>
<path d="M24.8739 36.1486C25.1862 35.8359 25.7068 35.8359 26.0192 36.1486C26.3315 36.4612 26.3315 36.9823 26.0192 37.2949C25.7068 37.6076 25.1862 37.6076 24.8739 37.2949C24.5616 36.9823 24.5616 36.4612 24.8739 36.1486Z" fill="black"/>
<path d="M28.658 32.7334C28.8778 32.5134 29.2249 32.5134 29.4447 32.7334C29.6645 32.9534 29.6645 33.3008 29.4447 33.5208C29.2249 33.7408 28.8778 33.7408 28.658 33.5208C28.4382 33.3008 28.4382 32.9534 28.658 32.7334Z" fill="black"/>
<path d="M16.4954 35.3736C17.132 35.0028 17.9538 35.223 18.3242 35.8603C18.6946 36.4975 18.4747 37.3202 17.838 37.6909C17.2014 38.0617 16.3796 37.8416 16.0092 37.2043C15.6388 36.567 15.8587 35.7444 16.4954 35.3736Z" fill="black"/>
<path d="M22.4694 32.7001C22.7817 32.5149 23.1866 32.6307 23.3717 32.9433C23.5568 33.256 23.4411 33.6613 23.1288 33.8465C22.8164 34.0318 22.4115 33.916 22.2264 33.6034C22.0413 33.2907 22.157 32.8854 22.4694 32.7001Z" fill="black"/>
<path d="M26.9179 30.242C27.184 30.0915 27.5311 30.1841 27.6815 30.4505C27.8319 30.7168 27.7393 31.0642 27.4733 31.2147C27.2072 31.3653 26.8601 31.2726 26.7097 31.0063C26.5593 30.74 26.6519 30.3926 26.9179 30.242Z" fill="black"/>
<path d="M15.1494 17.7646C15.7976 17.9384 16.1796 18.5988 16.006 19.2477C15.8323 19.8965 15.1726 20.2789 14.5244 20.1051C13.8762 19.9313 13.4942 19.2708 13.6678 18.622C13.8415 17.9731 14.5012 17.5908 15.1494 17.7646Z" fill="black"/>
<path d="M17.7512 12.2831C18.3299 12.6191 18.5267 13.3606 18.191 13.9284C17.8554 14.5077 17.1146 14.7047 16.5474 14.3687C15.9802 14.0327 15.7719 13.2911 16.1075 12.7234C16.4432 12.144 17.184 11.9471 17.7512 12.2831Z" fill="black"/>
<path d="M23.1459 15.9894C23.4814 16.1746 23.5855 16.6031 23.4004 16.9389C23.2153 17.2747 22.7872 17.3789 22.4518 17.1937C22.1163 17.0084 22.0122 16.5799 22.1973 16.2441C22.3824 15.9083 22.8104 15.8041 23.1459 15.9894Z" fill="black"/>
<path d="M27.4803 18.6669C27.7463 18.8174 27.8273 19.1532 27.6769 19.4195C27.5265 19.6859 27.191 19.7669 26.925 19.6164C26.6589 19.4659 26.5779 19.13 26.7283 18.8637C26.8787 18.5974 27.2142 18.5163 27.4803 18.6669Z" fill="black"/>
<path d="M21.7503 7.62367C22.248 8.12189 22.248 8.93295 21.7503 9.43117C21.2526 9.92939 20.4423 9.92939 19.9446 9.43117C19.4469 8.93295 19.4469 8.12189 19.9446 7.62367C20.4423 7.12544 21.2526 7.12544 21.7503 7.62367Z" fill="black"/>
<path d="M26.0238 12.5596C26.3477 12.8838 26.3477 13.3933 26.0238 13.7176C25.6999 14.0418 25.1909 14.0418 24.867 13.7176C24.543 13.3933 24.543 12.8838 24.867 12.5596C25.1909 12.2353 25.6999 12.2353 26.0238 12.5596Z" fill="black"/>
<path d="M29.4745 16.3015C29.7174 16.5447 29.7174 16.9384 29.4745 17.1816C29.2316 17.4248 28.8382 17.4248 28.5953 17.1816C28.3524 16.9384 28.3524 16.5447 28.5953 16.3015C28.8382 16.0583 29.2316 16.0583 29.4745 16.3015Z" fill="black"/>
<path d="M26.9373 4.07794C27.354 4.79631 27.111 5.72323 26.3818 6.14035C25.6641 6.55747 24.7381 6.31415 24.3214 5.5842C23.9047 4.86583 24.1478 3.93891 24.877 3.52179C25.5947 3.10467 26.5206 3.34798 26.9373 4.07794Z" fill="black"/>
<path d="M29.7039 10.0112C29.9699 10.4629 29.808 11.0419 29.3568 11.3082C28.9057 11.5745 28.3273 11.4124 28.0612 10.9608C27.7951 10.5092 27.9571 9.93018 28.4082 9.66385C28.8594 9.39751 29.4378 9.55963 29.7039 10.0112Z" fill="black"/>
<path d="M32.0334 14.5547C32.2185 14.8789 32.1143 15.2958 31.7788 15.4926C31.4549 15.6779 31.0385 15.5737 30.8418 15.2379C30.6567 14.9136 30.7609 14.4968 31.0963 14.2999C31.4203 14.1146 31.8367 14.2189 32.0334 14.5547Z" fill="black"/>
<path d="M33.7483 18.1454C33.8524 18.319 33.7946 18.5504 33.6096 18.6546C33.4246 18.7587 33.205 18.7008 33.1009 18.5157C32.9969 18.3421 33.0547 18.1107 33.2397 18.0065C33.4131 17.9024 33.6443 17.9602 33.7483 18.1454Z" fill="black"/>
<path d="M32.78 2.10723C33.0115 2.96464 32.5022 3.85681 31.634 4.08854C30.7775 4.32027 29.8862 3.81046 29.6547 2.94147C29.4232 2.08406 29.9325 1.1919 30.8007 0.960164C31.6572 0.728432 32.5485 1.23824 32.78 2.10723Z" fill="black"/>
<path d="M33.851 8.56178C33.9898 9.08287 33.6775 9.62712 33.157 9.76608C32.6364 9.90504 32.0927 9.59239 31.9539 9.0713C31.8151 8.55021 32.1274 8.00595 32.6479 7.867C33.1685 7.72804 33.7122 8.04069 33.851 8.56178Z" fill="black"/>
<path d="M34.9799 13.533C35.0956 13.9499 34.8411 14.3784 34.4247 14.4942C34.0082 14.61 33.5802 14.3552 33.4645 13.9383C33.3488 13.5215 33.6033 13.093 34.0197 12.9772C34.4362 12.8614 34.8642 13.1162 34.9799 13.533Z" fill="black"/>
<path d="M35.6604 17.4595C35.7182 17.6795 35.591 17.9227 35.3597 17.9806C35.1399 18.0385 34.8969 17.9111 34.8391 17.6795C34.7812 17.4479 34.9085 17.2163 35.1399 17.1584C35.3597 17.1005 35.6025 17.2279 35.6604 17.4595Z" fill="black"/>
<path d="M38.9464 1.7264C38.9464 2.6765 38.1709 3.4528 37.2217 3.4528C36.2726 3.4528 35.4971 2.6765 35.4971 1.7264C35.4971 0.776299 36.2726 0 37.2217 0C38.1709 0 38.9464 0.776299 38.9464 1.7264Z" fill="black"/>
<path d="M38.3651 8.25059C38.3651 8.88785 37.8558 9.39766 37.2192 9.39766C36.5825 9.39766 36.0732 8.88785 36.0732 8.25059C36.0732 7.61332 36.5825 7.10352 37.2192 7.10352C37.8558 7.10352 38.3651 7.61332 38.3651 8.25059Z" fill="black"/>
<path d="M38.0098 13.346C38.0098 13.7745 37.6628 14.1334 37.2232 14.1334C36.7836 14.1334 36.4365 13.7861 36.4365 13.346C36.4365 12.906 36.7836 12.5586 37.2232 12.5586C37.6628 12.5586 38.0098 12.906 38.0098 13.346Z" fill="black"/>
<path d="M37.7394 17.3101C37.7394 17.5996 37.508 17.8312 37.2188 17.8312C36.9296 17.8312 36.6982 17.5996 36.6982 17.3101C36.6982 17.0207 36.9296 16.7891 37.2188 16.7891C37.508 16.7891 37.7394 17.0207 37.7394 17.3101Z" fill="black"/>
<path d="M58.9711 33.359C57.64 32.9998 56.8413 31.6326 57.2002 30.3002C57.559 28.9677 58.9249 28.1682 60.256 28.5274C61.5871 28.8866 62.3858 30.2538 62.0269 31.5979C61.6681 32.9303 60.3022 33.7298 58.9711 33.3706" fill="black"/>
<path d="M52.8868 30.8888C51.984 30.6455 51.4515 29.7185 51.6945 28.8148C51.9376 27.911 52.8636 27.378 53.7665 27.6214C54.6693 27.8647 55.2018 28.7916 54.9703 29.6954C54.7272 30.5991 53.8012 31.1321 52.8983 30.8888" fill="black"/>
<path d="M48.0926 29.1163C47.4328 28.9425 47.0508 28.2705 47.2244 27.6101C47.3981 26.9496 48.081 26.5673 48.7292 26.7411C49.389 26.9149 49.7709 27.5869 49.5973 28.2473C49.4237 28.9078 48.7523 29.2901 48.0926 29.1163Z" fill="black"/>
<path d="M44.3694 27.6563C43.9529 27.5405 43.6984 27.112 43.8141 26.6952C43.9298 26.2783 44.3578 26.0235 44.7743 26.1393C45.1907 26.2551 45.4452 26.6836 45.3295 27.1004C45.2139 27.5173 44.7858 27.7721 44.3694 27.6563Z" fill="black"/>
<path d="M19.7345 29.0591C19.7345 30.2409 19.7114 31.3532 19.7345 32.4655C19.7577 33.0565 19.5841 33.2998 18.9359 33.2882C17.5469 33.265 17.5468 33.2998 17.5468 31.921C17.5468 28.8042 17.5353 25.6874 17.5584 22.5706C17.5584 22.1651 17.2459 21.5626 17.9288 21.3772C18.5886 21.1918 18.9821 21.5278 19.1326 22.2462C20.0239 21.5046 20.9499 21.0412 22.0611 21.1455C22.9061 21.2266 23.6469 21.5742 24.2603 22.1535C25.6494 23.4744 25.9503 25.699 24.978 27.437C23.9941 29.1865 22.3157 29.7311 19.7114 29.0707M19.7345 25.2008C19.7345 27.1241 20.0933 27.5528 21.4939 27.4254C22.362 27.3443 22.9524 26.8576 23.2417 26.0234C23.5543 25.1312 23.3806 24.3318 22.7324 23.6597C22.1653 23.0804 21.4823 22.9298 20.7068 23.2079C19.6303 23.6018 19.6651 24.494 19.7345 25.2008Z" fill="black"/>
<path d="M3.87244 25.3177C4.54379 24.0315 5.1341 22.8961 5.73601 21.7606C5.88648 21.4825 5.97908 21.1117 6.38421 21.1233C6.77776 21.1233 6.87034 21.4941 7.02082 21.7837C7.61115 22.9192 8.21309 24.0547 8.87287 25.3177C9.25484 24.1358 9.5905 23.1046 9.93775 22.085C10.1461 21.4709 11.4078 21.0422 11.9634 21.4014C12.2065 21.5636 12.1023 21.749 12.0444 21.946C11.3036 24.2401 10.5628 26.5342 9.82203 28.8284C9.741 29.0833 9.67151 29.3614 9.34741 29.3961C8.98859 29.4309 8.8497 29.1644 8.7108 28.8863C7.97 27.4496 7.21762 26.0244 6.39579 24.4603C5.62026 25.9317 4.91422 27.299 4.18499 28.6546C4.01137 28.979 3.91873 29.4425 3.421 29.373C2.96957 29.315 2.98119 28.8632 2.88859 28.5503C2.18252 26.3952 1.51116 24.2401 0.781928 22.0966C0.562002 21.4593 0.74718 21.3782 1.33751 21.3203C2.27509 21.2392 2.79595 21.5057 2.99273 22.4905C3.17793 23.3943 3.54836 24.2633 3.89562 25.3061" fill="black"/>
<path d="M37.0323 29.3845C34.8215 29.4077 32.9695 27.5191 32.9695 25.2481C32.9695 23.0119 34.7752 21.1464 36.9513 21.1233C39.1506 21.1001 41.0141 23.0003 41.0141 25.2597C41.0141 27.4843 39.2084 29.3613 37.0323 29.3845ZM39.058 25.2365C39.0464 24.0547 38.0509 23.0466 36.9513 23.0698C35.8401 23.1046 34.8794 24.1589 34.9257 25.3176C34.972 26.4647 35.9095 27.4264 36.986 27.438C38.0972 27.438 39.0695 26.3952 39.058 25.2365Z" fill="black"/>
<path d="M28.7291 22.3157C29.6552 21.3656 30.6043 20.9253 31.7734 21.2034C32.1554 21.2961 32.7573 21.3772 32.491 21.9218C32.2595 22.4084 32.4101 23.3353 31.3799 23.1963C29.8751 22.9762 29.3773 23.4049 29.3773 24.8764C29.3773 26.0582 29.3542 27.2284 29.3773 28.4103C29.3889 29.0012 29.169 29.175 28.6018 29.175C27.1781 29.1866 27.1781 29.2097 27.1781 27.7498C27.1781 26.0118 27.155 24.2739 27.1897 22.5475C27.1897 22.1419 26.8887 21.5394 27.5948 21.3656C28.243 21.215 28.6597 21.4931 28.7176 22.3157" fill="black"/>
<path d="M15.6517 25.213C15.6517 26.2674 15.6285 27.3334 15.6517 28.3878C15.6633 28.9439 15.5012 29.222 14.9109 29.1641C14.6447 29.1409 14.3784 29.1525 14.1238 29.1641C13.6955 29.1872 13.4756 29.025 13.4756 28.5616C13.4872 26.3601 13.4756 24.1587 13.4756 21.9456C13.4756 21.5401 13.6261 21.3431 14.0428 21.3547C14.3669 21.3547 14.691 21.3779 15.0151 21.3547C15.5244 21.3199 15.6749 21.5748 15.6633 22.0499C15.6401 23.1043 15.6633 24.1702 15.6633 25.2246" fill="black"/>
</svg>
