<?xml version="1.0" encoding="UTF-8"?> <svg xmlns="http://www.w3.org/2000/svg" width="400" height="400" viewBox="0 0 400 400" fill="none"><rect width="400" height="400" rx="200" fill="white"></rect><path d="M256.264 197.886C252.682 199.562 248.96 200.921 245.14 201.945C243.921 202.309 241.238 202.289 240.787 200.944C240.664 200.196 240.494 199.911 242.37 198.289C245.536 195.599 263.241 184.201 269.976 180.316C276.711 176.431 286.834 172.348 293.755 169.08C295.904 168.059 296.13 166.809 294.566 164.989C293.57 163.857 292.36 162.934 291.005 162.271C288.547 161.034 285.884 160.259 283.146 159.985C277.144 159.507 271.119 160.543 265.623 162.999C256.295 166.988 247.307 171.73 238.749 177.179C225.635 185.156 211.912 192.088 197.708 197.91C193.355 199.595 188.864 201.023 184.432 202.578C184.45 202.731 184.486 202.881 184.538 203.025C185.33 203.057 186.121 203.1 186.913 203.124C206.66 203.773 226.397 204.432 246.126 205.102C260.324 205.573 274.523 206.182 288.722 206.475C293.573 207.257 298.545 206.71 303.11 204.892C311.337 200.505 319.984 196.877 328.658 193.162C331.361 192.003 331.86 190.674 330.174 188.232C329.09 186.719 327.722 185.43 326.146 184.438C323.278 182.614 320.101 181.328 316.771 180.644C309.451 179.301 301.912 179.817 294.843 182.144C281.572 186.363 268.659 191.636 256.228 197.914" fill="#009266"></path><path d="M200 40C168.347 40 137.405 49.3839 111.086 66.9651C84.7676 84.5463 64.2549 109.535 52.142 138.772C40.029 168.008 36.8599 200.179 43.0354 231.216C49.2109 262.253 64.4537 290.762 86.8361 313.138C109.218 335.515 137.735 350.753 168.78 356.926C199.825 363.099 232.004 359.93 261.247 347.82C290.491 335.709 315.485 315.201 333.07 288.888C350.655 262.576 360.041 231.641 360.04 199.996C360.04 178.985 355.9 158.179 347.858 138.767C339.815 119.355 328.026 101.717 313.165 86.8603C298.304 72.0033 280.661 60.2182 261.244 52.1778C241.827 44.1375 221.017 39.9995 200 40ZM200 346.371C196.003 346.371 192.046 346.212 188.128 345.896C187.254 345.963 185.801 344.171 184.017 341.295H184.056C177.453 330.928 171.743 320.02 166.988 308.687C165.545 305.235 164.595 301.596 164.167 297.878C163.901 294.651 164.433 291.407 165.718 288.434C167.002 285.461 168.999 282.85 171.531 280.831C179.961 273.848 189.991 269.065 200.724 266.909C217.963 262.873 235.561 260.566 253.257 260.021C275.639 258.996 298.061 258.648 320.467 258.043C323.534 257.959 326.652 257.987 329.85 258.007L334.456 258.027C323.117 284.266 304.343 306.614 280.45 322.312C256.558 338.011 228.591 346.374 200 346.371ZM345.03 220.165L340.808 220.094C335.537 220.094 330.25 220.157 324.979 220.07C315.085 219.904 305.149 219.603 295.236 219.386C267.899 218.773 240.578 218.227 213.237 217.578C201.005 217.285 188.757 217.036 176.545 216.339C146.866 213.875 136.375 205.111 143.205 190.663C146.521 184.817 150.862 179.615 156.019 175.305C166.345 166.189 177.724 158.34 189.913 151.923C192.402 150.341 194.634 149.237 196.557 148.188C201.254 145.898 205.117 143.726 205.117 138.804C205.019 136.317 203.987 133.958 202.227 132.198C200.466 130.438 198.107 129.407 195.619 129.309C155.14 126.164 119.944 140.387 88.6147 167.242C74.3857 181.941 63.9152 199.856 58.0923 219.465L55.9593 226.428C52.3026 206.427 52.8537 185.883 57.5777 166.107C62.3016 146.331 71.0947 127.755 83.3965 111.564C95.6983 95.373 111.239 81.9216 129.028 72.0673C146.818 62.2129 166.465 56.1716 186.719 54.3285C206.973 52.4853 227.389 54.8807 246.665 61.362C265.942 67.8433 283.657 78.2683 298.68 91.9726C313.704 105.677 325.707 122.36 333.925 140.959C342.143 159.557 346.396 179.664 346.411 199.996C346.412 206.745 345.95 213.487 345.03 220.173" fill="#009266"></path></svg> 