<?xml version="1.0" encoding="UTF-8"?> <svg xmlns="http://www.w3.org/2000/svg" width="400" height="400" viewBox="0 0 400 400" fill="none"><rect width="400" height="400" rx="200" fill="white"></rect><path d="M183.035 247.692C132.038 247.692 90.5 206.308 90.5 155.385C90.5 104.462 132.038 63.0769 183.035 63.0769C234.032 63.0769 275.57 104.462 275.57 155.385C275.57 206.308 234.032 247.692 183.035 247.692ZM183.035 93.8462C149.003 93.8462 121.345 121.436 121.345 155.385C121.345 189.333 149.003 216.923 183.035 216.923C217.068 216.923 244.725 189.333 244.725 155.385C244.725 121.436 217.068 93.8462 183.035 93.8462ZM209.356 335.487L271.046 273.949C277.061 267.949 277.061 258.205 271.046 252.205C265.032 246.205 255.264 246.205 249.249 252.205L187.559 313.744C181.544 319.744 181.544 329.487 187.559 335.487C190.592 338.513 194.499 340 198.458 340C202.416 340 206.375 338.513 209.356 335.487ZM290.993 60C280.814 60 272.486 68.3077 272.486 78.4615C272.486 88.6154 280.814 96.9231 290.993 96.9231C301.172 96.9231 309.5 88.6154 309.5 78.4615C309.5 68.3077 301.172 60 290.993 60Z" fill="#0C0A1D"></path></svg> 