<?xml version="1.0" encoding="UTF-8"?> <svg xmlns="http://www.w3.org/2000/svg" width="400" height="400" viewBox="0 0 400 400" fill="none"><rect width="400" height="400" rx="200" fill="white"></rect><path d="M314.831 101.374C312.945 97.4765 309.801 93.9769 306.107 92.227C304.299 91.1931 301.941 90 298.955 90H101.278C101.121 90 101.043 90.6363 100.885 90.6363C98.2917 90.7158 96.1696 91.5112 94.4403 92.3066C90.5104 93.9768 87.2093 97.2379 85.2443 101.215C82.572 105.112 81 109.009 81 114.179C81 127.542 91.8466 137.722 105.051 137.722H177.362V211.055C177.362 211.453 177.362 211.851 177.362 212.249V287.491C177.362 301.41 187.816 310 201.885 310C214.461 310 224.521 299.898 224.521 287.491V137.643H294.946C308.15 137.643 318.997 127.621 318.997 114.179C319.076 109.168 317.503 105.271 314.831 101.374Z" fill="black"></path></svg> 