<?xml version="1.0" encoding="UTF-8"?> <svg xmlns="http://www.w3.org/2000/svg" width="400" height="400" viewBox="0 0 400 400" fill="none"><rect width="400" height="400" rx="200" fill="white"></rect><path d="M199.978 319.912V300.406C126.316 300.406 71.2012 276.494 71.2012 255.068H51.6948C51.7821 292.028 115.451 319.912 199.978 319.912Z" fill="url(#paint0_linear_2890_9448)"></path><path d="M199.978 209.731C284.506 209.731 348.218 181.847 348.218 144.887L339.359 144.582L328.799 144.887C328.799 166.313 273.771 190.226 200.022 190.226L199.455 200.131L200.022 209.731H199.978Z" fill="url(#paint1_linear_2890_9448)"></path><path d="M51.7822 255.068L62.4736 255.287L71.2013 255.068C71.2013 233.643 126.23 209.73 199.978 209.73V190.225C115.451 190.225 51.7822 218.065 51.7822 255.068Z" fill="url(#paint2_linear_2890_9448)"></path><path d="M328.755 144.844H348.262C348.262 107.884 284.506 80 200.022 80V99.5055C273.597 99.5055 328.712 123.418 328.712 144.844H328.755Z" fill="url(#paint3_linear_2890_9448)"></path><path d="M90.8823 189.615C99.5227 185.731 109.298 182.371 120.076 179.578C89.9222 170.633 71.2013 157.28 71.2013 144.8C71.2013 123.374 126.23 99.4618 199.978 99.4618L200.939 89.9927L199.978 80C115.451 80 51.7822 107.884 51.7822 144.844C51.7822 162.516 66.4011 178.138 90.8823 189.615Z" fill="#6B9385"></path><path d="M309.162 210.298C300.522 214.182 290.747 217.542 279.968 220.334C310.122 229.28 328.843 242.633 328.843 255.113C328.843 276.538 273.815 300.45 200.066 300.45L199.717 310.443L200.066 320C284.593 320 348.306 292.116 348.306 255.156C348.306 237.396 333.643 221.862 309.206 210.342L309.162 210.298Z" fill="#6B9385"></path><defs><linearGradient id="paint0_linear_2890_9448" x1="78.9252" y1="264.145" x2="160.483" y2="308.483" gradientUnits="userSpaceOnUse"><stop stop-color="#E5FFC5"></stop><stop offset="1" stop-color="#6B9385"></stop></linearGradient><linearGradient id="paint1_linear_2890_9448" x1="334.297" y1="145.629" x2="204.825" y2="217.853" gradientUnits="userSpaceOnUse"><stop offset="0.16" stop-color="#E5FFC5"></stop><stop offset="0.54" stop-color="#E5FFC5"></stop></linearGradient><linearGradient id="paint2_linear_2890_9448" x1="57.3243" y1="243.461" x2="195.787" y2="190.526" gradientUnits="userSpaceOnUse"><stop offset="0.11" stop-color="#E5FFC5"></stop><stop offset="0.64" stop-color="#E5FFC5"></stop></linearGradient><linearGradient id="paint3_linear_2890_9448" x1="329.105" y1="128.393" x2="190.86" y2="74.9336" gradientUnits="userSpaceOnUse"><stop stop-color="#E5FFC5"></stop><stop offset="0.78" stop-color="#6B9385"></stop></linearGradient></defs></svg> 