<?xml version="1.0" encoding="UTF-8"?> <svg xmlns="http://www.w3.org/2000/svg" width="400" height="400" viewBox="0 0 400 400" fill="none"><rect width="400" height="400" rx="200" fill="white"></rect><mask id="mask0_2890_9450" style="mask-type:luminance" maskUnits="userSpaceOnUse" x="70" y="70" width="260" height="260"><path d="M330 70H70V330H330V70Z" fill="white"></path></mask><g mask="url(#mask0_2890_9450)"><path fill-rule="evenodd" clip-rule="evenodd" d="M200 281.25C222.071 281.25 242.087 272.45 256.73 258.166C257.131 257.774 257.774 257.774 258.171 258.171L291.924 291.924L326.958 326.957C327.716 327.715 326.935 328.978 325.919 328.639L270.009 310.003C269.719 309.906 269.402 309.945 269.143 310.108C249.116 322.71 225.41 330 200 330C128.203 330 70 271.797 70 200C70 128.203 128.203 70 200 70C271.797 70 330 128.203 330 200C330 230.666 319.382 258.852 301.622 281.082C301.247 281.552 300.546 281.587 300.12 281.162L231.479 212.521C230.722 211.763 231.502 210.501 232.519 210.839L276.138 225.379C276.67 225.556 277.246 225.269 277.417 224.735C279.906 216.936 281.25 208.625 281.25 200C281.25 155.127 244.873 118.75 200 118.75C155.127 118.75 118.75 155.127 118.75 200C118.75 244.873 155.127 281.25 200 281.25Z" fill="#009FD1"></path></g></svg> 