<?xml version="1.0" encoding="UTF-8"?> <svg xmlns="http://www.w3.org/2000/svg" width="400" height="400" viewBox="0 0 400 400" fill="none"><rect width="400" height="400" rx="200" fill="white"></rect><path fill-rule="evenodd" clip-rule="evenodd" d="M280.439 124.072H119.561C77.7897 124.072 43.9359 158.064 43.9359 200C43.9359 241.93 77.7896 275.929 119.549 275.929H280.433C322.198 275.929 356.052 241.936 356.052 200C356.052 158.064 322.198 124.072 280.433 124.072H280.439ZM30 200C30 249.664 70.0994 289.928 119.555 289.928H280.439C329.907 289.928 370 249.664 370 200C370 150.337 329.901 110.073 280.445 110.073H119.549C70.0994 110.073 30 150.337 30 200Z" fill="black"></path><path fill-rule="evenodd" clip-rule="evenodd" d="M280.444 148.843H119.56C91.4187 148.843 68.6118 171.745 68.6118 200C68.6118 228.255 91.4187 251.157 119.56 251.157H280.438C308.579 251.157 331.386 228.255 331.386 200C331.386 171.745 308.585 148.843 280.444 148.843ZM54.6699 200C54.6699 235.983 83.7225 265.155 119.56 265.155H280.438C316.281 265.155 345.334 235.983 345.334 200C345.334 164.017 316.275 134.845 280.444 134.845H119.56C83.7165 134.845 54.6699 164.017 54.6699 200Z" fill="black"></path><path fill-rule="evenodd" clip-rule="evenodd" d="M280.438 173.615H119.561C105.044 173.615 93.2776 185.425 93.2776 200C93.2776 214.568 105.044 226.384 119.555 226.384H280.438C294.956 226.384 306.722 214.574 306.722 200C306.722 185.431 294.956 173.615 280.438 173.615ZM79.3477 200C79.3477 222.302 97.3534 240.383 119.567 240.383H280.444C302.664 240.383 320.664 222.308 320.664 200C320.664 177.698 302.664 159.61 280.444 159.61H119.567C97.3474 159.61 79.3477 177.698 79.3477 200Z" fill="black"></path></svg> 