<?xml version="1.0" encoding="UTF-8"?>
<svg id="Layer_1" xmlns="http://www.w3.org/2000/svg" version="1.1" viewBox="0 0 1200 1200">
  <!-- Generator: Adobe Illustrator 29.2.1, SVG Export Plug-In . SVG Version: 2.1.0 Build 116)  -->
  <defs>
    <style>
      .st0 {
        fill: #fff;
      }
    </style>
  </defs>
  <g id="_x31_8M6O6.tif">
    <g>
      <path class="st0" d="M955,901h-33.2l-24.5-2.2c-132.6-14.7-250.4-104.4-298.7-228.5h0c-3.2,6.7-7.5,17.3-10.9,24.3-54.6,112-164.1,190.4-288.6,204.3l-24.5,2.1c-10.7-.4-21.8.6-32.5,0-13.6-.7-39.6-3.7-48-15.9-10.2-14.9,10.5-43.1,19.4-55.2,24.1-32.9,53.8-62.3,77.9-95.3.8-.5,1.8,0,2.6.2,6.7,2,14.6,6.3,21.8,8.7,31.7,10.4,69.8,15.1,102.8,9.4,73.3-12.6,135.6-74.9,171.2-137.1,1-1.7,10.8-20.7,10.8-20.7,24.6,51.8,64.5,100.7,113.6,130.9,46.6,28.7,93.1,35.5,146.8,24,14.8-3.1,29.6-8,43.4-14.1l1.9.5c22.9,30.3,49.5,57.7,72.5,87.9,9,11.8,26.6,35.2,26.7,50.1.2,22.1-34.5,25.7-50.5,26.6Z"/>
      <path class="st0" d="M598.5,397.2c46.4-118.9,157.3-207.2,283.7-226.5,27.7-4.2,86.1-9,110.8,3.8,28.9,15-1.8,52.4-14.5,69-23.7,31.1-51.1,59.4-74.6,90.6l-.9.2c-12.4-5.2-25.3-9.7-38.5-12.7-63.2-14.4-114-3.3-165.2,35.3-41.9,31.7-75.8,76.7-98.3,124-.5.3-1.3-1.2-1.5-1.6-4.6-7.4-8.5-17-13.1-24.9-35.2-60.4-97-123.6-168.4-136.4-37.1-6.6-77.4.3-112.3,13.1-1.9.7-10.6,4.8-11.6,4.4-21.6-28-45.7-54-67.8-81.6-12.4-15.5-37.3-45-34.5-65.6,2.5-18,38.9-21.2,52.8-21.9,149.5-6.7,283.8,81.1,346.7,214,.6,1.3,7.3,16.8,7.3,16.8Z"/>
      <path class="st0" d="M1093.8,315.9c12-.7,43.3-1.7,52,7,8.8,8.8-3.5,26-9.1,33.8-25.4,35.3-56.6,63.8-78.1,103-41.3,75.2-18.8,128.9,29.6,191.8,16.8,21.8,42.8,46.9,55.7,70.1,12.2,22,0,28.7-21.2,30.2-126.9,8.7-233.9-96.9-231.3-222.9,2.3-110.5,91.4-206.3,202.5-213Z"/>
      <path class="st0" d="M76.1,315.9c86.9-7.3,171.3,43.6,209.4,120.6,61.2,123.5-6.1,272.8-138.6,308.2-21.4,5.7-67.1,12-87.3,3.3-18.8-8.1-1.8-29.9,5.9-40.3,26.5-35.5,57.5-64.4,78.5-104.6,39.8-76.1,11.6-131.6-36.8-192.9-11.9-15.1-53.8-59.5-55.9-75.4-2-15.2,12.6-17.7,24.7-18.7Z"/>
      <path class="st0" d="M392.7,393.9c70.3-3.4,129,63.5,160.7,119.6,2.3,4.1,10.1,17.7,10.2,21.6.2,5.8-15.1,30.7-19,36.9-26.9,42.1-73.7,94.7-125.3,103.5-22.4,3.8-51.9.1-73.4-7-1.4-.5-5.9-1.6-6.2-2.8,17-30.5,31.9-62.8,37.8-97.6,9.9-58.6-7.3-113.4-36.4-163.6,16-6.5,34.4-9.7,51.7-10.5Z"/>
      <path class="st0" d="M857.5,400.7l-17.4,33.4c-28.1,61.1-32.2,116.9-8,180.3,7.3,19.2,17.2,37.1,26.8,55.1-7.2,2.1-14.5,4.2-22,5.3-53.1,8.4-89.9-3-129.5-38.1-24.7-21.9-56.6-61.6-69.9-91.8-4.2-9.5-4.1-10,0-19.6,17.1-40.6,66-95.5,104.8-116.4,36-19.5,76.4-18.4,115.2-8.2Z"/>
    </g>
  </g>
  <g>
    <path class="st0" d="M304.7,992.2v39h-21.1v-7.9c-3.5,3.6-8.2,6.2-14.3,8-6.1,1.8-12.5,2.7-19.4,2.7-19.2,0-33.5-3.1-42.6-9.3-9.2-6.2-13.8-15.9-13.8-29s4.6-22.6,13.8-28.8c9.2-6.2,23.4-9.3,42.6-9.3s17.7.7,24.6,2,12.6,3.3,16.9,5.8c4.3,2.6,7.6,5.6,9.7,9.2s3.3,7.7,3.5,12.4h-38.3c-.2-.6-.6-1.3-1.3-2.1-.7-.7-1.6-1.5-2.9-2.2-1.2-.8-2.9-1.4-5.1-1.9-2.2-.5-4.6-.7-7.3-.7-6.7,0-11.8,1.4-15.3,4.1-3.5,2.7-5.3,6.7-5.3,11.9,0,10.8,7.2,16.3,21.6,16.3s4.6-.2,6.7-.5c2.1-.3,3.9-.7,5.3-1.2,1.4-.5,2.6-.9,3.7-1.5,1.1-.5,1.9-1,2.4-1.4.5-.4.8-.7.9-.9h-16.8v-14.8h51.9Z"/>
    <path class="st0" d="M343.1,978.3v8.3h54.2v16.3h-54.2v9.2h57.8v19.1h-90.3v-70.8h89.5v18h-57Z"/>
    <path class="st0" d="M477.9,960.4h30.7v70.8h-37l-33.8-36h-.8v36h-30.7v-70.8h37.4l33.4,35.5h.8v-35.5Z"/>
    <path class="st0" d="M605.1,982.2h-57.6v10.3h54.7v19.5h-54.7v19.3h-32.5v-70.8h90.1v21.8Z"/>
    <path class="st0" d="M642.6,1031.2h-32.5v-70.8h32.5v70.8Z"/>
    <path class="st0" d="M720.5,960.4h30.7v70.8h-37l-33.8-36h-.8v36h-30.7v-70.8h37.4l33.4,35.5h.8v-35.5Z"/>
    <path class="st0" d="M790.1,1031.2h-32.5v-70.8h32.5v70.8Z"/>
    <path class="st0" d="M894.1,960.4v24.5h-33.4v46.3h-32.6v-46.3h-33.4v-24.5h99.3Z"/>
    <path class="st0" d="M1005.5,960.4l-39,50.9v20h-32.6v-20l-39.1-50.9h39.2l16.2,24,16.2-24h39.1Z"/>
  </g>
</svg>